<svg id="weather34 windir icon" xmlns="http://www.w3.org/2000/svg" xmlns:xlink="http://www.w3.org/1999/xlink" fill-rule="evenodd" clip-rule="evenodd" viewBox="0 0 769 695"><path fill="#aaa" fill-rule="nonzero" stroke="#aaa" stroke-width=".09" d="M227.73 625.28c32.4 18.47 68.23 30.67 105 36.63a314 314 0 0 0 116.74-3.71 315.33 315.33 0 0 0 87.86-34.1l-.21-.32c-6.95-11.08-13.17-22.61-19.72-33.94a273.02 273.02 0 0 1-113 35.33c-58.07 4.9-117.51-9.57-167.09-40.15a272.94 272.94 0 0 1-92.58-95.85c-11.36 6.49-22.53 13.34-34.13 19.4l-.35.17c27.84 48.4 68.76 89.22 117.48 116.54z"/><path fill="#aaa" fill-rule="nonzero" stroke="#afb0b0" stroke-width=".09" d="M110.6 508.56c11.6-6.05 22.77-12.9 34.13-19.39-23.76-40.16-36.07-86.85-36.54-133.44-.38-54.59 15.83-109.26 46.15-154.68 23.36-34.67 54.52-64.36 91.12-84.72-6.59-11.3-12.75-22.88-19.75-33.92A308.93 308.93 0 0 0 137.53 158C98.28 206.7 74.4 267.56 69.9 329.93c-4.66 61.82 9.59 124.99 40.69 178.63zM517.4 589.84c6.55 11.33 12.77 22.86 19.72 33.94 60.94-34.67 109.27-90.78 134.87-156.02a313.6 313.6 0 0 0 18.85-71.69c9.54-67.97-4.13-139.05-38.59-198.44-11.63 6-22.76 12.91-34.15 19.37 30.86 52.3 42.58 115.42 33.63 175.42-6.35 42.03-22.07 82.77-46.59 117.59-22.96 32.53-52.87 60.44-87.74 79.83z"/><use width="3.34" height="2.63" x="388.73" y="191.43" transform="matrix(.83557 0 0 .87532 0 0)" xlink:href="#_Image1"/><path fill="#d05f2d" d="M376.01 381.67l143.5-299.2-273.88-5.95 130.38 305.15z"/><path fill="#aaa" fill-rule="nonzero" stroke="#aaa" stroke-width=".09" d="M304.11 50.15c36.09-9.39 73.86-11.82 110.91-7.99a314 314 0 0 1 111.74 34.03 315.33 315.33 0 0 1 75.93 55.83l-.29.25c-9.6 8.89-18.61 18.4-27.89 27.63a273.02 273.02 0 0 0-99.87-63.58c-54.79-19.88-115.95-21.4-171.78-4.81a272.93 272.93 0 0 0-114.37 68.39c-9.28-9.22-18.28-18.75-27.9-27.62l-.29-.26c39.5-39.46 89.65-68.2 143.81-81.87z" transform="matrix(-.9657 -.25968 -.26133 .97182 841.72 110.42)"/></svg>