<?xml version="1.0" encoding="UTF-8" ?>
<!DOCTYPE svg PUBLIC "-//W3C//DTD SVG 1.1//EN" "http://www.w3.org/Graphics/SVG/1.1/DTD/svg11.dtd">
<svg id="weather34 august 2018 good air quality" width="1024pt" height="1024pt" viewBox="0 0 1024 1024" version="1.1" xmlns="http://www.w3.org/2000/svg">
<path fill="none" stroke="none" stroke-width="5" opacity="1.00" d=" M 489.59 232.87 C 537.01 229.61 585.18 237.03 629.29 254.76 C 699.70 282.67 759.30 336.82 793.65 404.33 C 829.56 473.62 837.70 556.59 816.45 631.63 C 801.59 685.16 771.93 734.40 731.94 772.92 C 690.95 812.62 639.04 841.00 583.40 853.74 C 506.51 871.81 422.94 860.01 354.39 820.65 C 288.45 783.46 236.64 721.80 211.90 650.21 C 195.62 603.81 190.70 553.53 197.32 504.83 C 206.57 434.31 241.17 367.60 292.98 318.94 C 345.84 268.54 416.68 237.48 489.59 232.87 M 448.17 316.04 C 417.34 318.44 389.70 337.11 371.27 361.27 C 355.89 381.31 345.97 405.05 339.61 429.37 C 335.71 443.12 335.46 457.65 336.71 471.80 C 337.37 478.48 337.37 485.24 338.66 491.85 C 341.32 511.55 344.88 531.26 351.56 550.05 C 348.08 551.81 344.13 552.23 340.45 553.41 C 335.43 564.54 336.37 577.33 340.24 588.65 C 343.67 598.89 347.02 609.16 350.71 619.32 C 355.09 631.21 365.57 640.64 377.95 643.51 C 378.12 644.14 378.45 645.41 378.61 646.04 C 378.62 645.41 378.64 644.16 378.65 643.53 C 379.46 643.71 381.08 644.09 381.90 644.27 C 395.40 672.04 410.83 699.30 431.96 722.04 C 443.02 734.78 455.57 747.01 471.37 753.61 C 479.77 757.17 488.95 758.12 497.96 758.87 C 515.51 760.06 534.02 758.39 549.60 749.58 C 556.90 745.55 562.90 739.65 569.04 734.11 C 595.55 708.87 615.05 677.27 630.57 644.35 C 636.42 643.46 642.24 641.65 647.05 638.10 C 656.61 631.31 662.48 620.47 665.63 609.40 C 668.82 598.96 672.70 588.71 674.94 578.02 C 676.54 569.76 675.82 561.02 672.19 553.37 C 668.44 552.41 664.69 551.46 660.95 550.48 C 661.54 545.80 662.70 541.19 662.86 536.47 C 668.42 512.72 668.24 488.11 667.41 463.87 C 667.24 463.42 666.92 462.52 666.76 462.06 C 666.86 457.00 666.28 451.91 664.85 447.08 C 663.61 435.95 659.13 425.52 656.30 414.75 C 651.33 398.89 646.11 382.09 634.15 369.97 C 620.50 349.23 599.04 334.79 576.28 325.64 C 547.38 314.23 515.83 310.94 484.96 312.22 C 472.68 313.26 460.31 313.71 448.17 316.04 Z" />
<path fill="#555" stroke="#555" stroke-width="5" opacity="1.00" d=" M 448.17 316.04 C 460.31 313.71 472.68 313.26 484.96 312.22 C 515.83 310.94 547.38 314.23 576.28 325.64 C 599.04 334.79 620.50 349.23 634.15 369.97 C 646.11 382.09 651.33 398.89 656.30 414.75 C 659.13 425.52 663.61 435.95 664.85 447.08 C 666.28 451.91 666.86 457.00 666.76 462.06 C 666.92 462.52 667.24 463.42 667.41 463.87 C 668.24 488.11 668.42 512.72 662.86 536.47 C 659.78 545.34 658.37 554.67 656.30 563.81 C 651.93 585.04 647.46 606.26 643.67 627.60 C 643.07 626.32 642.49 625.04 641.92 623.76 C 639.47 604.88 637.08 586.00 634.87 567.09 C 634.29 547.40 628.36 527.54 616.19 511.86 C 603.28 495.28 584.58 483.25 564.24 478.11 C 573.15 491.59 587.13 500.39 598.99 510.98 C 591.45 511.60 584.09 509.46 577.12 506.83 C 563.00 501.40 549.69 494.08 536.72 486.35 C 518.19 475.29 500.45 462.98 482.94 450.38 C 486.03 456.81 490.79 462.22 495.57 467.44 C 511.79 484.36 530.47 498.65 548.95 512.98 C 539.91 513.99 530.95 511.93 522.28 509.61 C 503.76 504.10 486.37 495.50 469.33 486.54 C 443.89 472.73 419.35 457.29 395.63 440.71 C 393.68 458.69 389.23 476.29 384.81 493.79 C 379.35 508.63 376.76 524.33 375.20 540.00 C 372.88 568.67 374.05 597.54 377.46 626.08 C 378.11 631.87 378.55 637.69 378.65 643.53 C 378.64 644.16 378.62 645.41 378.61 646.04 C 378.45 645.41 378.12 644.14 377.95 643.51 C 376.73 638.27 375.23 633.10 373.81 627.91 C 368.07 606.50 362.10 585.15 355.87 563.89 C 354.48 559.26 353.10 554.63 351.56 550.05 C 344.88 531.26 341.32 511.55 338.66 491.85 C 337.37 485.24 337.37 478.48 336.71 471.80 C 335.46 457.65 335.71 443.12 339.61 429.37 C 345.97 405.05 355.89 381.31 371.27 361.27 C 389.70 337.11 417.34 318.44 448.17 316.04 Z" />
<path fill="none" stroke="none" stroke-width="5" opacity="1.00" d=" M 395.63 440.71 C 419.35 457.29 443.89 472.73 469.33 486.54 C 486.37 495.50 503.76 504.10 522.28 509.61 C 530.95 511.93 539.91 513.99 548.95 512.98 C 530.47 498.65 511.79 484.36 495.57 467.44 C 490.79 462.22 486.03 456.81 482.94 450.38 C 500.45 462.98 518.19 475.29 536.72 486.35 C 549.69 494.08 563.00 501.40 577.12 506.83 C 584.09 509.46 591.45 511.60 598.99 510.98 C 587.13 500.39 573.15 491.59 564.24 478.11 C 584.58 483.25 603.28 495.28 616.19 511.86 C 628.36 527.54 634.29 547.40 634.87 567.09 C 637.08 586.00 639.47 604.88 641.92 623.76 C 642.06 625.71 642.14 627.66 642.25 629.63 C 637.85 627.40 633.48 625.12 629.07 622.92 C 617.13 648.20 604.54 673.39 587.99 696.02 C 576.35 712.08 562.61 726.76 546.62 738.56 C 522.20 752.90 489.93 752.84 465.60 738.31 C 449.85 726.57 436.25 712.11 424.74 696.23 C 408.15 673.57 395.49 648.36 383.54 623.04 C 381.50 624.03 379.48 625.04 377.46 626.08 C 374.05 597.54 372.88 568.67 375.20 540.00 C 376.76 524.33 379.35 508.63 384.81 493.79 C 389.23 476.29 393.68 458.69 395.63 440.71 M 533.39 532.21 C 552.20 530.06 571.23 529.92 590.04 532.16 C 575.13 517.29 548.43 517.78 533.39 532.21 M 422.50 532.16 C 441.46 530.00 460.64 529.94 479.57 532.39 C 464.48 517.66 437.69 517.46 422.50 532.16 M 549.25 549.22 C 545.45 552.13 545.38 558.04 548.54 561.45 C 557.77 567.52 571.90 566.57 578.65 557.20 C 578.04 553.78 576.42 550.44 573.43 548.51 C 566.28 543.74 556.14 544.11 549.25 549.22 M 433.78 553.31 C 434.94 558.40 438.50 562.97 443.72 564.26 C 453.15 566.71 463.31 562.75 470.19 556.22 C 464.97 549.52 456.61 544.90 447.96 545.77 C 442.41 546.21 437.47 549.28 433.78 553.31 M 485.64 615.10 C 498.56 620.83 513.71 620.73 526.72 615.33 C 514.05 608.83 498.43 609.04 485.64 615.10 M 458.69 658.23 C 463.42 674.81 474.41 690.79 491.01 697.10 C 503.49 701.49 518.13 700.46 529.38 693.25 C 541.75 685.35 549.87 672.12 553.90 658.22 C 522.23 655.69 490.37 655.64 458.69 658.23 Z" />
<path fill="#555" stroke="#555" stroke-width="5" opacity="1.00" d=" M 533.39 532.21 C 548.43 517.78 575.13 517.29 590.04 532.16 C 571.23 529.92 552.20 530.06 533.39 532.21 Z" />
<path fill="#555" stroke="#555" stroke-width="5" opacity="1.00" d=" M 422.50 532.16 C 437.69 517.46 464.48 517.66 479.57 532.39 C 460.64 529.94 441.46 530.00 422.50 532.16 Z" />
<path fill="#555" stroke="#555" stroke-width="5" opacity="1.00" d=" M 656.30 563.81 C 658.37 554.67 659.78 545.34 662.86 536.47 C 662.70 541.19 661.54 545.80 660.95 550.48 C 664.69 551.46 668.44 552.41 672.19 553.37 C 675.82 561.02 676.54 569.76 674.94 578.02 C 672.70 588.71 668.82 598.96 665.63 609.40 C 662.48 620.47 656.61 631.31 647.05 638.10 C 642.24 641.65 636.42 643.46 630.57 644.35 C 615.05 677.27 595.55 708.87 569.04 734.11 C 562.90 739.65 556.90 745.55 549.60 749.58 C 534.02 758.39 515.51 760.06 497.96 758.87 C 488.95 758.12 479.77 757.17 471.37 753.61 C 455.57 747.01 443.02 734.78 431.96 722.04 C 410.83 699.30 395.40 672.04 381.90 644.27 C 381.08 644.09 379.46 643.71 378.65 643.53 C 378.55 637.69 378.11 631.87 377.46 626.08 C 379.48 625.04 381.50 624.03 383.54 623.04 C 395.49 648.36 408.15 673.57 424.74 696.23 C 436.25 712.11 449.85 726.57 465.60 738.31 C 489.93 752.84 522.20 752.90 546.62 738.56 C 562.61 726.76 576.35 712.08 587.99 696.02 C 604.54 673.39 617.13 648.20 629.07 622.92 C 633.48 625.12 637.85 627.40 642.25 629.63 C 642.14 627.66 642.06 625.71 641.92 623.76 C 642.49 625.04 643.07 626.32 643.67 627.60 L 643.82 628.02 C 656.67 609.07 662.25 586.41 665.95 564.12 C 662.73 563.98 659.51 563.88 656.30 563.81 Z" />
<path fill="#555" stroke="#555" stroke-width="5" opacity="1.00" d=" M 549.25 549.22 C 556.14 544.11 566.28 543.74 573.43 548.51 C 576.42 550.44 578.04 553.78 578.65 557.20 C 571.90 566.57 557.77 567.52 548.54 561.45 C 545.38 558.04 545.45 552.13 549.25 549.22 Z" />
<path fill="#555" stroke="#555" stroke-width="5" opacity="1.00" d=" M 433.78 553.31 C 437.47 549.28 442.41 546.21 447.96 545.77 C 456.61 544.90 464.97 549.52 470.19 556.22 C 463.31 562.75 453.15 566.71 443.72 564.26 C 438.50 562.97 434.94 558.40 433.78 553.31 Z" />
<path fill="#555" stroke="#555" stroke-width="5" opacity="1.00" d=" M 351.56 550.05 C 353.10 554.63 354.48 559.26 355.87 563.89 C 352.73 563.73 349.58 563.60 346.44 563.50 C 350.22 586.71 356.31 610.23 369.88 629.81 C 371.18 629.17 372.50 628.54 373.81 627.91 C 375.23 633.10 376.73 638.27 377.95 643.51 C 365.57 640.64 355.09 631.21 350.71 619.32 C 347.02 609.16 343.67 598.89 340.24 588.65 C 336.37 577.33 335.43 564.54 340.45 553.41 C 344.13 552.23 348.08 551.81 351.56 550.05 Z" />
<path fill="none" stroke="none" stroke-width="5" opacity="1.00" d=" M 346.44 563.50 C 349.58 563.60 352.73 563.73 355.87 563.89 C 362.10 585.15 368.07 606.50 373.81 627.91 C 372.50 628.54 371.18 629.17 369.88 629.81 C 356.31 610.23 350.22 586.71 346.44 563.50 Z" />
<path fill="none" stroke="none" stroke-width="5" opacity="1.00" d=" M 656.30 563.81 C 659.51 563.88 662.73 563.98 665.95 564.12 C 662.25 586.41 656.67 609.07 643.82 628.02 L 643.67 627.60 C 647.46 606.26 651.93 585.04 656.30 563.81 Z" />
<path fill="#555" stroke="#555" stroke-width="5" opacity="1.00" d=" M 485.64 615.10 C 498.43 609.04 514.05 608.83 526.72 615.33 C 513.71 620.73 498.56 620.83 485.64 615.10 Z" />
<path fill="#555" stroke="#555" stroke-width="5" opacity="1.00" d=" M 458.69 658.23 C 490.37 655.64 522.23 655.69 553.90 658.22 C 549.87 672.12 541.75 685.35 529.38 693.25 C 518.13 700.46 503.49 701.49 491.01 697.10 C 474.41 690.79 463.42 674.81 458.69 658.23 M 470.28 665.52 C 475.03 674.93 481.82 683.94 491.55 688.57 C 498.18 691.86 505.83 691.48 513.01 690.97 C 526.68 688.88 536.46 677.32 542.22 665.52 C 518.24 665.00 494.26 665.01 470.28 665.52 Z" />
<path fill="none" stroke="none" stroke-width="5" opacity="1.00" d=" M 470.28 665.52 C 494.26 665.01 518.24 665.00 542.22 665.52 C 536.46 677.32 526.68 688.88 513.01 690.97 C 505.83 691.48 498.18 691.86 491.55 688.57 C 481.82 683.94 475.03 674.93 470.28 665.52 Z" />
</svg>
