<?xml version="1.0" encoding="UTF-8" ?>
<!DOCTYPE svg PUBLIC "-//W3C//DTD SVG 1.1//EN" "http://www.w3.org/Graphics/SVG/1.1/DTD/svg11.dtd">
<svg id="weather34 august 2018 hazardous air quality" width="1024pt" height="1024pt" viewBox="0 0 1024 1024" version="1.1" xmlns="http://www.w3.org/2000/svg">
<path fill="none" stroke="none" stroke-width="5" opacity="1.00" d=" M 505.37 234.45 C 552.94 233.32 600.77 243.02 644.04 262.84 C 713.02 294.02 770.05 350.84 801.16 419.88 C 833.74 490.87 837.98 574.24 813.11 648.25 C 795.61 701.12 763.53 749.01 721.60 785.62 C 683.48 819.12 637.18 843.23 587.86 855.19 C 549.40 864.55 509.20 866.66 469.97 861.40 C 394.68 851.70 323.59 813.50 273.70 756.32 C 247.35 726.44 226.78 691.47 213.46 653.92 C 196.58 606.49 191.57 554.96 198.63 505.13 C 204.96 460.05 221.36 416.41 246.31 378.32 C 284.81 318.93 343.86 273.16 411.04 250.84 C 441.39 240.59 473.34 235.08 505.37 234.45 M 446.78 328.88 C 415.20 334.90 387.71 355.68 370.49 382.46 C 359.38 399.64 351.53 418.88 346.84 438.76 C 343.06 467.58 349.08 496.42 354.66 524.57 C 354.44 533.34 356.99 541.89 357.85 550.59 C 352.93 556.20 347.38 561.49 343.87 568.15 C 342.51 576.52 345.11 584.93 347.19 592.99 C 351.21 605.09 354.49 617.52 360.11 629.01 C 362.80 634.58 366.98 639.49 372.33 642.65 C 380.67 647.64 389.41 652.23 396.31 659.22 C 385.12 665.48 373.88 671.65 362.69 677.90 C 368.55 698.17 379.41 716.39 388.97 735.05 C 397.80 752.08 406.42 769.25 416.32 785.70 C 423.35 783.00 430.58 780.74 437.27 777.22 C 449.18 771.76 460.25 764.61 471.99 758.83 C 487.03 760.19 501.69 765.30 516.93 764.51 C 529.49 763.44 541.76 760.37 554.22 758.62 C 562.02 762.78 569.70 767.15 577.44 771.42 C 587.84 777.22 598.82 781.86 610.08 785.71 C 628.92 750.28 649.91 715.72 663.60 677.85 C 653.39 672.02 642.95 666.63 632.45 661.35 C 633.70 657.97 634.05 654.06 635.96 651.04 C 643.82 647.41 652.80 645.41 659.21 639.20 C 663.96 634.83 665.94 628.51 668.78 622.91 C 674.95 608.81 678.90 593.87 682.55 578.96 C 683.63 574.81 683.30 570.32 681.39 566.47 C 678.11 560.34 673.00 555.46 668.52 550.22 C 670.11 538.75 672.73 527.36 672.83 515.75 C 675.76 497.35 675.30 478.51 673.20 460.05 C 670.41 440.93 666.20 421.86 658.92 403.91 C 655.40 395.70 651.49 387.35 645.02 381.01 C 642.12 378.18 640.07 374.65 637.37 371.65 C 631.23 364.72 624.10 358.69 616.44 353.52 C 586.91 333.87 551.02 326.09 515.99 324.91 C 492.85 323.70 469.69 325.73 446.78 328.88 Z" />
<path fill="#555" stroke="#555" stroke-width="5" opacity="1.00" d=" M 446.78 328.88 C 469.69 325.73 492.85 323.70 515.99 324.91 C 551.02 326.09 586.91 333.87 616.44 353.52 C 624.10 358.69 631.23 364.72 637.37 371.65 C 640.07 374.65 642.12 378.18 645.02 381.01 C 651.49 387.35 655.40 395.70 658.92 403.91 C 666.20 421.86 670.41 440.93 673.20 460.05 C 675.30 478.51 675.76 497.35 672.83 515.75 C 670.65 525.92 667.41 535.82 664.89 545.92 C 662.92 553.52 661.15 561.17 659.31 568.81 C 655.43 584.47 652.00 600.25 648.23 615.94 C 645.91 595.13 642.69 574.41 641.01 553.53 C 640.20 542.93 638.12 532.12 632.79 522.80 C 627.90 510.85 618.68 501.11 608.57 493.33 C 597.66 485.36 585.30 479.17 572.12 476.06 C 581.37 488.59 594.69 497.17 606.91 506.50 C 599.03 507.00 591.35 504.76 584.03 502.11 C 565.83 495.33 548.84 485.75 532.19 475.86 C 518.31 467.64 504.99 458.55 491.50 449.72 C 499.26 462.53 511.04 472.18 522.41 481.65 C 533.31 490.71 544.82 498.98 556.33 507.25 C 537.63 508.51 519.84 501.09 502.87 494.16 C 468.58 479.21 436.30 460.03 404.97 439.68 C 403.82 450.67 400.88 461.34 398.05 471.99 C 396.37 477.93 394.99 483.98 392.77 489.75 C 386.11 506.34 383.50 524.23 382.38 541.98 C 381.77 556.26 381.22 570.61 382.47 584.88 C 382.98 598.36 385.74 611.68 385.44 625.21 C 379.98 606.32 374.85 587.35 369.17 568.53 C 364.73 553.76 360.62 538.82 354.66 524.57 C 349.08 496.42 343.06 467.58 346.84 438.76 C 351.53 418.88 359.38 399.64 370.49 382.46 C 387.71 355.68 415.20 334.90 446.78 328.88 Z" />
<path fill="none" stroke="none" stroke-width="5" opacity="1.00" d=" M 404.97 439.68 C 436.30 460.03 468.58 479.21 502.87 494.16 C 519.84 501.09 537.63 508.51 556.33 507.25 C 544.82 498.98 533.31 490.71 522.41 481.65 C 511.04 472.18 499.26 462.53 491.50 449.72 C 504.99 458.55 518.31 467.64 532.19 475.86 C 548.84 485.75 565.83 495.33 584.03 502.11 C 591.35 504.76 599.03 507.00 606.91 506.50 C 594.69 497.17 581.37 488.59 572.12 476.06 C 585.30 479.17 597.66 485.36 608.57 493.33 C 618.68 501.11 627.90 510.85 632.79 522.80 C 633.19 533.52 636.70 543.80 641.01 553.53 C 642.69 574.41 645.91 595.13 648.23 615.94 C 652.00 600.25 655.43 584.47 659.31 568.81 C 663.75 569.42 668.20 569.91 672.66 570.42 C 668.87 592.30 661.13 613.23 652.19 633.48 C 646.26 632.07 640.32 630.72 634.40 629.28 C 630.35 637.75 626.38 646.27 622.44 654.79 C 613.06 655.45 603.70 656.24 594.32 656.77 C 582.97 639.24 570.29 622.29 554.35 608.64 C 545.19 600.32 534.93 592.54 522.82 589.23 C 514.97 587.31 506.26 587.18 498.91 590.91 C 481.21 598.51 466.57 611.68 454.25 626.24 C 445.99 635.82 439.19 646.50 431.88 656.79 C 422.59 656.24 413.33 655.38 404.05 654.82 C 399.99 646.33 396.05 637.79 392.01 629.29 C 386.07 630.71 380.12 632.09 374.17 633.47 C 365.22 613.08 357.38 592.05 353.57 570.04 C 358.78 569.66 363.97 569.10 369.17 568.53 C 374.85 587.35 379.98 606.32 385.44 625.21 C 385.74 611.68 382.98 598.36 382.47 584.88 C 381.22 570.61 381.77 556.26 382.38 541.98 C 383.50 524.23 386.11 506.34 392.77 489.75 C 394.99 483.98 396.37 477.93 398.05 471.99 C 400.88 461.34 403.82 450.67 404.97 439.68 M 428.53 529.96 C 447.05 538.24 468.78 537.72 487.52 530.43 C 468.09 526.52 448.05 526.78 428.53 529.96 M 538.72 530.51 C 557.38 537.86 578.60 537.45 597.47 531.02 C 587.78 528.83 577.90 527.83 568.00 527.45 C 558.16 527.65 548.40 528.81 538.72 530.51 M 442.47 554.29 C 442.41 558.63 442.35 562.98 442.32 567.33 C 454.10 571.95 468.06 570.14 477.86 561.97 C 472.76 557.98 468.25 552.79 461.94 550.71 C 455.34 550.94 448.85 552.63 442.47 554.29 M 562.36 551.43 C 557.10 553.97 553.33 558.60 549.06 562.45 C 552.62 564.81 556.28 567.13 560.42 568.34 C 568.08 570.84 576.40 569.94 583.94 567.45 C 584.14 562.94 584.14 558.43 584.10 553.92 C 579.46 552.87 574.82 551.80 570.11 551.18 C 567.54 550.92 564.75 550.01 562.36 551.43 Z" />
<path fill="#555" stroke="#555" stroke-width="5" opacity="1.00" d=" M 664.89 545.92 C 667.41 535.82 670.65 525.92 672.83 515.75 C 672.73 527.36 670.11 538.75 668.52 550.22 C 673.00 555.46 678.11 560.34 681.39 566.47 C 683.30 570.32 683.63 574.81 682.55 578.96 C 678.90 593.87 674.95 608.81 668.78 622.91 C 665.94 628.51 663.96 634.83 659.21 639.20 C 652.80 645.41 643.82 647.41 635.96 651.04 C 634.05 654.06 633.70 657.97 632.45 661.35 C 642.95 666.63 653.39 672.02 663.60 677.85 C 649.91 715.72 628.92 750.28 610.08 785.71 C 598.82 781.86 587.84 777.22 577.44 771.42 C 569.70 767.15 562.02 762.78 554.22 758.62 C 541.76 760.37 529.49 763.44 516.93 764.51 C 501.69 765.30 487.03 760.19 471.99 758.83 C 460.25 764.61 449.18 771.76 437.27 777.22 C 430.58 780.74 423.35 783.00 416.32 785.70 C 406.42 769.25 397.80 752.08 388.97 735.05 C 379.41 716.39 368.55 698.17 362.69 677.90 C 373.88 671.65 385.12 665.48 396.31 659.22 C 389.41 652.23 380.67 647.64 372.33 642.65 C 366.98 639.49 362.80 634.58 360.11 629.01 C 354.49 617.52 351.21 605.09 347.19 592.99 C 345.11 584.93 342.51 576.52 343.87 568.15 C 347.38 561.49 352.93 556.20 357.85 550.59 C 356.99 541.89 354.44 533.34 354.66 524.57 C 360.62 538.82 364.73 553.76 369.17 568.53 C 363.97 569.10 358.78 569.66 353.57 570.04 C 357.38 592.05 365.22 613.08 374.17 633.47 C 380.12 632.09 386.07 630.71 392.01 629.29 C 396.05 637.79 399.99 646.33 404.05 654.82 C 413.33 655.38 422.59 656.24 431.88 656.79 C 439.19 646.50 445.99 635.82 454.25 626.24 C 466.57 611.68 481.21 598.51 498.91 590.91 C 506.26 587.18 514.97 587.31 522.82 589.23 C 534.93 592.54 545.19 600.32 554.35 608.64 C 570.29 622.29 582.97 639.24 594.32 656.77 C 603.70 656.24 613.06 655.45 622.44 654.79 C 626.38 646.27 630.35 637.75 634.40 629.28 C 640.32 630.72 646.26 632.07 652.19 633.48 C 661.13 613.23 668.87 592.30 672.66 570.42 C 668.20 569.91 663.75 569.42 659.31 568.81 C 661.15 561.17 662.92 553.52 664.89 545.92 M 502.20 598.13 C 487.89 604.93 475.50 615.24 464.90 626.92 C 454.06 638.55 445.46 651.95 436.50 665.01 C 450.27 692.20 463.95 719.42 477.32 746.81 C 497.87 756.36 522.84 758.61 543.70 748.77 C 546.76 746.94 550.92 745.82 552.15 742.08 C 563.22 715.72 576.90 690.58 589.65 665.02 C 579.41 648.84 567.97 633.27 554.05 620.05 C 546.21 612.38 537.87 604.94 528.11 599.79 C 520.27 595.77 510.28 593.57 502.20 598.13 M 414.32 663.39 C 406.32 665.49 399.31 670.17 391.56 672.99 C 407.10 703.58 422.58 734.21 438.55 764.58 C 447.05 760.00 457.43 757.48 463.39 749.33 C 467.17 744.36 465.06 737.79 462.24 732.92 C 451.61 710.88 441.27 688.59 427.90 668.04 C 424.95 663.76 419.28 661.90 414.32 663.39 M 586.03 688.00 C 581.44 697.66 576.32 707.05 571.50 716.60 C 567.50 724.13 563.18 731.65 561.10 739.98 C 559.18 746.16 563.65 752.13 568.55 755.41 C 574.61 759.26 581.35 761.87 587.68 765.25 C 603.39 734.38 619.86 703.89 634.85 672.66 C 624.46 668.74 614.55 661.68 602.93 662.84 C 595.59 669.95 590.71 679.03 586.03 688.00 M 373.91 681.55 C 380.00 695.91 386.93 709.89 394.10 723.74 C 402.84 740.44 411.45 757.21 420.52 773.72 C 424.50 772.36 428.54 771.13 432.58 769.94 C 417.23 738.99 401.49 708.24 385.75 677.49 C 381.80 678.84 377.87 680.22 373.91 681.55 M 594.10 769.87 C 598.06 771.01 602.00 772.19 605.94 773.41 C 621.38 743.13 637.64 713.25 651.79 682.34 C 648.17 680.73 644.55 679.14 640.94 677.53 C 625.23 708.26 609.05 738.75 594.10 769.87 Z" />
<path fill="#555" stroke="#555" stroke-width="5" opacity="1.00" d=" M 632.79 522.80 C 638.12 532.12 640.20 542.93 641.01 553.53 C 636.70 543.80 633.19 533.52 632.79 522.80 Z" />
<path fill="#555" stroke="#555" stroke-width="5" opacity="1.00" d=" M 428.53 529.96 C 448.05 526.78 468.09 526.52 487.52 530.43 C 468.78 537.72 447.05 538.24 428.53 529.96 Z" />
<path fill="#555" stroke="#555" stroke-width="5" opacity="1.00" d=" M 538.72 530.51 C 548.40 528.81 558.16 527.65 568.00 527.45 C 577.90 527.83 587.78 528.83 597.47 531.02 C 578.60 537.45 557.38 537.86 538.72 530.51 Z" />
<path fill="#555" stroke="#555" stroke-width="5" opacity="1.00" d=" M 442.47 554.29 C 448.85 552.63 455.34 550.94 461.94 550.71 C 468.25 552.79 472.76 557.98 477.86 561.97 C 468.06 570.14 454.10 571.95 442.32 567.33 C 442.35 562.98 442.41 558.63 442.47 554.29 Z" />
<path fill="#555" stroke="#555" stroke-width="5" opacity="1.00" d=" M 562.36 551.43 C 564.75 550.01 567.54 550.92 570.11 551.18 C 574.82 551.80 579.46 552.87 584.10 553.92 C 584.14 558.43 584.14 562.94 583.94 567.45 C 576.40 569.94 568.08 570.84 560.42 568.34 C 556.28 567.13 552.62 564.81 549.06 562.45 C 553.33 558.60 557.10 553.97 562.36 551.43 Z" />
<path fill="none" stroke="none" stroke-width="5" opacity="1.00" d=" M 502.20 598.13 C 510.28 593.57 520.27 595.77 528.11 599.79 C 537.87 604.94 546.21 612.38 554.05 620.05 C 567.97 633.27 579.41 648.84 589.65 665.02 C 576.90 690.58 563.22 715.72 552.15 742.08 C 550.92 745.82 546.76 746.94 543.70 748.77 C 522.84 758.61 497.87 756.36 477.32 746.81 C 463.95 719.42 450.27 692.20 436.50 665.01 C 445.46 651.95 454.06 638.55 464.90 626.92 C 475.50 615.24 487.89 604.93 502.20 598.13 M 505.42 643.62 C 485.28 647.00 469.45 665.79 468.68 686.03 C 468.51 701.56 476.81 716.79 489.77 725.30 C 497.23 730.10 506.06 733.34 515.05 732.83 C 530.96 732.37 545.76 722.31 553.44 708.59 C 558.16 700.26 559.49 690.35 558.03 680.96 C 555.46 656.61 529.18 638.32 505.42 643.62 Z" />
<path fill="#555" stroke="#555" stroke-width="5" opacity="1.00" d=" M 505.42 643.62 C 529.18 638.32 555.46 656.61 558.03 680.96 C 559.49 690.35 558.16 700.26 553.44 708.59 C 545.76 722.31 530.96 732.37 515.05 732.83 C 506.06 733.34 497.23 730.10 489.77 725.30 C 476.81 716.79 468.51 701.56 468.68 686.03 C 469.45 665.79 485.28 647.00 505.42 643.62 M 509.32 666.43 C 503.35 668.23 497.10 671.65 494.55 677.66 C 491.80 683.89 492.20 691.16 494.54 697.45 C 496.53 702.83 501.51 706.75 507.02 708.07 C 514.56 710.49 523.19 708.35 529.10 703.19 C 533.58 699.10 534.89 692.74 535.33 686.95 C 535.15 674.26 521.65 663.80 509.32 666.43 Z" />
<path fill="none" stroke="none" stroke-width="5" opacity="1.00" d=" M 414.32 663.39 C 419.28 661.90 424.95 663.76 427.90 668.04 C 441.27 688.59 451.61 710.88 462.24 732.92 C 465.06 737.79 467.17 744.36 463.39 749.33 C 457.43 757.48 447.05 760.00 438.55 764.58 C 422.58 734.21 407.10 703.58 391.56 672.99 C 399.31 670.17 406.32 665.49 414.32 663.39 Z" />
<path fill="none" stroke="none" stroke-width="5" opacity="1.00" d=" M 586.03 688.00 C 590.71 679.03 595.59 669.95 602.93 662.84 C 614.55 661.68 624.46 668.74 634.85 672.66 C 619.86 703.89 603.39 734.38 587.68 765.25 C 581.35 761.87 574.61 759.26 568.55 755.41 C 563.65 752.13 559.18 746.16 561.10 739.98 C 563.18 731.65 567.50 724.13 571.50 716.60 C 576.32 707.05 581.44 697.66 586.03 688.00 Z" />
<path fill="none" stroke="none" stroke-width="5" opacity="1.00" d=" M 509.32 666.43 C 521.65 663.80 535.15 674.26 535.33 686.95 C 534.89 692.74 533.58 699.10 529.10 703.19 C 523.19 708.35 514.56 710.49 507.02 708.07 C 501.51 706.75 496.53 702.83 494.54 697.45 C 492.20 691.16 491.80 683.89 494.55 677.66 C 497.10 671.65 503.35 668.23 509.32 666.43 Z" />
<path fill="none" stroke="none" stroke-width="5" opacity="1.00" d=" M 373.91 681.55 C 377.87 680.22 381.80 678.84 385.75 677.49 C 401.49 708.24 417.23 738.99 432.58 769.94 C 428.54 771.13 424.50 772.36 420.52 773.72 C 411.45 757.21 402.84 740.44 394.10 723.74 C 386.93 709.89 380.00 695.91 373.91 681.55 Z" />
<path fill="none" stroke="none" stroke-width="5" opacity="1.00" d=" M 594.10 769.87 C 609.05 738.75 625.23 708.26 640.94 677.53 C 644.55 679.14 648.17 680.73 651.79 682.34 C 637.64 713.25 621.38 743.13 605.94 773.41 C 602.00 772.19 598.06 771.01 594.10 769.87 Z" />
</svg>
