<?xml version="1.0" encoding="UTF-8" ?>
<!DOCTYPE svg PUBLIC "-//W3C//DTD SVG 1.1//EN" "http://www.w3.org/Graphics/SVG/1.1/DTD/svg11.dtd">
<svg id="weather34 indoor mild" width="1024pt" height="1024pt" viewBox="0 0 1024 1024" version="1.1" xmlns="http://www.w3.org/2000/svg">
<path fill="none" stroke="none" stroke-width="1" opacity="1.00" d=" M 489.59 232.88 C 532.67 229.89 576.35 235.78 617.07 250.14 C 654.71 263.42 689.83 283.87 719.87 310.15 C 777.01 359.54 815.51 430.13 825.23 505.10 C 833.71 567.20 823.07 631.82 794.71 687.74 C 771.99 732.99 738.11 772.56 697.02 802.12 C 649.34 836.66 591.83 857.43 533.07 861.23 C 490.68 864.16 447.67 858.59 407.51 844.66 C 336.70 820.50 275.24 770.17 237.53 705.56 C 216.83 670.47 203.15 631.26 197.53 590.91 C 191.25 546.24 194.64 500.21 207.63 457.01 C 219.33 417.91 238.86 381.20 264.59 349.53 C 293.32 314.08 329.79 284.93 370.73 264.77 C 407.75 246.48 448.39 235.56 489.59 232.88 M 439.84 319.24 C 414.55 325.27 392.03 340.67 375.77 360.80 C 359.29 380.87 348.70 405.12 341.88 429.99 C 340.79 434.64 339.15 439.16 339.05 444.00 C 336.85 457.58 338.76 471.29 339.65 484.89 C 341.18 499.55 344.36 513.97 346.67 528.52 C 347.83 539.72 350.09 550.83 351.62 562.01 C 347.63 565.54 342.78 568.09 339.21 572.08 C 335.52 576.19 336.88 582.02 337.01 587.02 C 338.89 603.39 345.32 618.72 350.92 634.08 C 353.09 640.27 356.75 645.97 361.86 650.12 C 368.07 655.77 376.15 658.36 383.94 660.99 C 400.80 696.03 422.27 729.56 451.58 755.50 C 458.56 761.28 465.24 767.75 473.76 771.25 C 488.93 777.57 505.76 778.54 522.00 777.75 C 536.84 776.92 552.18 773.36 564.13 764.09 C 598.57 737.21 623.20 699.95 642.00 660.97 C 651.45 658.14 661.01 654.21 667.63 646.59 C 673.83 640.11 675.81 631.10 679.07 623.02 C 684.35 608.26 689.99 592.96 689.05 577.02 C 687.34 569.60 679.38 566.74 674.32 561.96 C 678.05 537.79 682.50 513.52 681.66 488.96 C 681.70 475.27 679.48 461.72 676.47 448.41 L 675.93 447.92 C 672.73 432.27 669.21 416.55 663.44 401.61 C 659.09 390.78 654.41 379.42 645.52 371.45 C 639.09 361.47 630.40 353.13 620.97 346.00 C 603.83 333.27 583.84 324.84 563.19 319.81 C 522.81 309.90 480.48 312.35 439.84 319.24 Z" />
<path fill="#84a927" stroke="#84a927" stroke-width="1" opacity="1.00" d=" M 439.84 319.24 C 480.48 312.35 522.81 309.90 563.19 319.81 C 583.84 324.84 603.83 333.27 620.97 346.00 C 630.40 353.13 639.09 361.47 645.52 371.45 C 654.41 379.42 659.09 390.78 663.44 401.61 C 669.21 416.55 672.73 432.27 675.93 447.92 C 676.23 452.98 677.32 457.95 677.93 462.97 C 679.33 479.60 680.91 496.35 678.86 513.01 C 678.10 528.39 672.83 542.97 669.77 557.95 C 668.38 564.53 666.99 571.12 665.60 577.70 C 661.82 595.87 657.83 614.02 654.61 632.29 C 651.35 612.55 649.52 592.62 646.60 572.83 C 645.87 566.96 646.19 560.95 644.79 555.17 C 641.56 545.91 639.54 536.25 635.90 527.13 C 628.35 511.88 615.76 499.47 601.20 490.84 C 592.52 485.82 583.27 481.41 573.41 479.38 C 577.21 485.45 582.73 490.19 587.98 494.97 C 594.61 500.73 601.61 506.06 608.65 511.31 L 608.89 512.32 C 597.37 512.91 586.54 508.07 576.12 503.78 C 549.25 491.49 524.31 475.42 499.96 458.79 C 496.83 456.69 493.92 454.22 490.48 452.63 C 491.23 455.10 492.75 457.23 494.25 459.31 C 504.67 472.04 517.32 482.67 530.01 493.06 C 538.98 500.29 548.21 507.19 557.54 513.96 C 549.61 515.24 541.70 513.38 533.94 511.91 C 509.67 505.33 487.03 493.99 464.98 482.11 C 442.51 469.80 420.76 456.24 399.49 441.98 C 398.68 452.21 396.14 462.20 394.11 472.24 C 391.77 480.66 390.34 489.33 387.48 497.61 C 382.80 509.94 380.78 523.04 378.89 536.04 C 377.64 552.32 376.34 568.66 377.33 585.00 C 378.01 595.37 378.40 605.77 379.46 616.12 C 380.49 623.70 381.47 631.29 381.66 638.95 C 381.31 639.40 380.61 640.31 380.26 640.76 C 374.50 619.77 368.55 598.85 362.36 577.98 C 359.52 568.24 356.58 558.52 353.25 548.94 C 351.42 543.56 349.51 538.18 348.35 532.60 C 348.08 531.13 347.46 529.76 346.67 528.52 C 344.36 513.97 341.18 499.55 339.65 484.89 C 338.76 471.29 336.85 457.58 339.05 444.00 C 339.15 439.16 340.79 434.64 341.88 429.99 C 348.70 405.12 359.29 380.87 375.77 360.80 C 392.03 340.67 414.55 325.27 439.84 319.24 Z" />
<path fill="none" stroke="none" stroke-width="1" opacity="1.00" d=" M 399.49 441.98 C 420.76 456.24 442.51 469.80 464.98 482.11 C 487.03 493.99 509.67 505.33 533.94 511.91 C 541.70 513.38 549.61 515.24 557.54 513.96 C 548.21 507.19 538.98 500.29 530.01 493.06 C 517.32 482.67 504.67 472.04 494.25 459.31 C 496.11 458.83 498.04 458.74 499.96 458.79 C 524.31 475.42 549.25 491.49 576.12 503.78 C 586.54 508.07 597.37 512.91 608.89 512.32 L 608.65 511.31 C 601.61 506.06 594.61 500.73 587.98 494.97 C 582.73 490.19 577.21 485.45 573.41 479.38 C 583.27 481.41 592.52 485.82 601.20 490.84 C 615.76 499.47 628.35 511.88 635.90 527.13 C 639.54 536.25 641.56 545.91 644.79 555.17 C 646.19 560.95 645.87 566.96 646.60 572.83 C 649.52 592.62 651.35 612.55 654.61 632.29 C 657.83 614.02 661.82 595.87 665.60 577.70 C 670.40 577.81 675.21 577.97 680.02 578.17 C 675.44 601.47 671.12 626.47 655.00 644.96 C 650.09 643.08 645.26 641.00 640.34 639.17 C 627.96 666.64 614.49 693.97 595.67 717.68 C 586.89 728.51 577.49 738.90 567.04 748.14 C 559.60 755.21 550.80 760.97 541.11 764.41 C 528.50 768.40 514.99 769.12 501.89 767.94 C 489.85 766.73 478.00 762.82 468.07 755.82 C 433.23 728.49 408.61 690.35 390.55 650.38 C 388.73 646.68 387.44 642.68 385.31 639.17 C 384.52 639.50 382.96 640.17 382.17 640.50 C 382.04 640.11 381.79 639.34 381.66 638.95 C 381.47 631.29 380.49 623.70 379.46 616.12 C 378.40 605.77 378.01 595.37 377.33 585.00 C 376.34 568.66 377.64 552.32 378.89 536.04 C 380.78 523.04 382.80 509.94 387.48 497.61 C 390.34 489.33 391.77 480.66 394.11 472.24 C 396.14 462.20 398.68 452.21 399.49 441.98 M 425.60 537.23 C 432.09 540.90 439.52 542.60 446.86 543.63 C 459.41 544.97 472.50 543.38 483.91 537.79 L 484.06 537.09 C 464.63 535.20 445.02 535.15 425.60 537.23 M 541.49 537.33 C 550.48 542.16 560.94 543.77 571.06 544.05 C 581.06 543.85 591.51 542.32 600.27 537.26 C 580.74 535.10 561.02 535.27 541.49 537.33 M 448.34 560.53 C 445.02 561.38 442.30 563.62 439.40 565.35 C 436.92 568.79 439.24 573.40 442.04 575.87 C 444.65 578.64 448.67 577.81 451.97 579.02 C 460.01 580.20 467.52 575.45 472.66 569.67 C 473.31 568.63 475.20 568.04 474.73 566.59 C 466.49 563.05 457.57 558.04 448.34 560.53 M 551.54 566.13 C 552.31 570.06 556.04 572.58 559.07 574.92 C 565.23 578.60 573.04 580.24 579.95 577.78 C 584.71 576.03 587.59 571.15 587.80 566.22 C 583.67 561.58 577.14 559.57 571.03 560.01 C 564.08 560.27 557.78 563.39 551.54 566.13 M 492.03 627.15 C 495.60 630.57 500.15 632.87 504.97 633.90 C 514.29 636.07 523.79 633.78 532.85 631.50 C 532.84 631.24 532.83 630.71 532.83 630.45 C 520.01 624.64 505.63 626.93 492.03 627.15 M 466.69 684.68 C 476.87 687.48 487.43 688.53 497.97 688.32 C 514.66 688.21 531.43 689.07 548.05 687.16 C 551.60 686.17 555.73 686.05 558.91 684.41 C 551.34 681.19 543.10 680.33 534.98 679.78 C 519.99 679.62 505.01 679.57 490.02 679.80 C 482.11 680.53 473.95 681.14 466.69 684.68 M 496.78 702.89 C 497.11 705.73 497.51 708.55 497.90 711.38 C 505.45 711.38 513.08 711.55 520.57 710.39 C 524.86 709.43 529.70 708.16 532.86 705.10 C 520.93 703.17 508.83 703.12 496.78 702.89 Z" />
<path fill="#84a927" stroke="#84a927" stroke-width="1" opacity="1.00" d=" M 675.93 447.92 L 676.47 448.41 C 679.48 461.72 681.70 475.27 681.66 488.96 C 682.50 513.52 678.05 537.79 674.32 561.96 C 679.38 566.74 687.34 569.60 689.05 577.02 C 689.99 592.96 684.35 608.26 679.07 623.02 C 675.81 631.10 673.83 640.11 667.63 646.59 C 661.01 654.21 651.45 658.14 642.00 660.97 C 623.20 699.95 598.57 737.21 564.13 764.09 C 552.18 773.36 536.84 776.92 522.00 777.75 C 505.76 778.54 488.93 777.57 473.76 771.25 C 465.24 767.75 458.56 761.28 451.58 755.50 C 422.27 729.56 400.80 696.03 383.94 660.99 C 376.15 658.36 368.07 655.77 361.86 650.12 C 356.75 645.97 353.09 640.27 350.92 634.08 C 345.32 618.72 338.89 603.39 337.01 587.02 C 336.88 582.02 335.52 576.19 339.21 572.08 C 342.78 568.09 347.63 565.54 351.62 562.01 C 350.09 550.83 347.83 539.72 346.67 528.52 C 347.46 529.76 348.08 531.13 348.35 532.60 C 349.51 538.18 351.42 543.56 353.25 548.94 C 356.58 558.52 359.52 568.24 362.36 577.98 C 356.82 577.83 351.29 577.49 345.75 577.37 C 349.32 594.82 352.27 612.73 360.13 628.87 C 363.06 634.68 366.72 640.08 371.03 644.96 C 374.03 643.46 377.70 642.94 380.26 640.76 C 380.61 640.31 381.31 639.40 381.66 638.95 C 381.79 639.34 382.04 640.11 382.17 640.50 C 382.96 640.17 384.52 639.50 385.31 639.17 C 387.44 642.68 388.73 646.68 390.55 650.38 C 408.61 690.35 433.23 728.49 468.07 755.82 C 478.00 762.82 489.85 766.73 501.89 767.94 C 514.99 769.12 528.50 768.40 541.11 764.41 C 550.80 760.97 559.60 755.21 567.04 748.14 C 577.49 738.90 586.89 728.51 595.67 717.68 C 614.49 693.97 627.96 666.64 640.34 639.17 C 645.26 641.00 650.09 643.08 655.00 644.96 C 671.12 626.47 675.44 601.47 680.02 578.17 C 675.21 577.97 670.40 577.81 665.60 577.70 C 666.99 571.12 668.38 564.53 669.77 557.95 C 672.83 542.97 678.10 528.39 678.86 513.01 C 680.91 496.35 679.33 479.60 677.93 462.97 C 677.32 457.95 676.23 452.98 675.93 447.92 M 381.04 641.17 C 380.35 642.35 380.45 644.96 381.64 645.62 C 381.99 644.37 382.87 641.40 381.04 641.17 Z" />
<path fill="#84a927" stroke="#84a927" stroke-width="1" opacity="1.00" d=" M 490.48 452.63 C 493.92 454.22 496.83 456.69 499.96 458.79 C 498.04 458.74 496.11 458.83 494.25 459.31 C 492.75 457.23 491.23 455.10 490.48 452.63 Z" />
<path fill="#84a927" stroke="#84a927" stroke-width="1" opacity="1.00" d=" M 425.60 537.23 C 445.02 535.15 464.63 535.20 484.06 537.09 L 483.91 537.79 C 472.50 543.38 459.41 544.97 446.86 543.63 C 439.52 542.60 432.09 540.90 425.60 537.23 Z" />
<path fill="#84a927" stroke="#84a927" stroke-width="1" opacity="1.00" d=" M 541.49 537.33 C 561.02 535.27 580.74 535.10 600.27 537.26 C 591.51 542.32 581.06 543.85 571.06 544.05 C 560.94 543.77 550.48 542.16 541.49 537.33 Z" />
<path fill="#84a927" stroke="#84a927" stroke-width="1" opacity="1.00" d=" M 448.34 560.53 C 457.57 558.04 466.49 563.05 474.73 566.59 C 475.20 568.04 473.31 568.63 472.66 569.67 C 467.52 575.45 460.01 580.20 451.97 579.02 C 448.67 577.81 444.65 578.64 442.04 575.87 C 439.24 573.40 436.92 568.79 439.40 565.35 C 442.30 563.62 445.02 561.38 448.34 560.53 Z" />
<path fill="#84a927" stroke="#84a927" stroke-width="1" opacity="1.00" d=" M 551.54 566.13 C 557.78 563.39 564.08 560.27 571.03 560.01 C 577.14 559.57 583.67 561.58 587.80 566.22 C 587.59 571.15 584.71 576.03 579.95 577.78 C 573.04 580.24 565.23 578.60 559.07 574.92 C 556.04 572.58 552.31 570.06 551.54 566.13 Z" />
<path fill="none" stroke="none" stroke-width="1" opacity="1.00" d=" M 345.75 577.37 C 351.29 577.49 356.82 577.83 362.36 577.98 C 368.55 598.85 374.50 619.77 380.26 640.76 C 377.70 642.94 374.03 643.46 371.03 644.96 C 366.72 640.08 363.06 634.68 360.13 628.87 C 352.27 612.73 349.32 594.82 345.75 577.37 Z" />
<path fill="#84a927" stroke="#84a927" stroke-width="1" opacity="1.00" d=" M 492.03 627.15 C 505.63 626.93 520.01 624.64 532.83 630.45 C 532.83 630.71 532.84 631.24 532.85 631.50 C 523.79 633.78 514.29 636.07 504.97 633.90 C 500.15 632.87 495.60 630.57 492.03 627.15 Z" />
<path fill="#84a927" stroke="#84a927" stroke-width="1" opacity="1.00" d=" M 381.04 641.17 C 382.87 641.40 381.99 644.37 381.64 645.62 C 380.45 644.96 380.35 642.35 381.04 641.17 Z" />
<path fill="#84a927" stroke="#84a927" stroke-width="1" opacity="1.00" d=" M 466.69 684.68 C 473.95 681.14 482.11 680.53 490.02 679.80 C 505.01 679.57 519.99 679.62 534.98 679.78 C 543.10 680.33 551.34 681.19 558.91 684.41 C 555.73 686.05 551.60 686.17 548.05 687.16 C 531.43 689.07 514.66 688.21 497.97 688.32 C 487.43 688.53 476.87 687.48 466.69 684.68 Z" />
<path fill="#84a927" stroke="#84a927" stroke-width="1" opacity="1.00" d=" M 496.78 702.89 C 508.83 703.12 520.93 703.17 532.86 705.10 C 529.70 708.16 524.86 709.43 520.57 710.39 C 513.08 711.55 505.45 711.38 497.90 711.38 C 497.51 708.55 497.11 705.73 496.78 702.89 Z" />
</svg>
