<?xml version="1.0" encoding="UTF-8" ?>
<!DOCTYPE svg PUBLIC "-//W3C//DTD SVG 1.1//EN" "http://www.w3.org/Graphics/SVG/1.1/DTD/svg11.dtd">
<svg id="weather34 august 2018 unhealthy air quality" width="1024pt" height="1024pt" viewBox="0 0 1024 1024" version="1.1" xmlns="http://www.w3.org/2000/svg">
<path fill="none" stroke="none" stroke-width="5" opacity="1.00" d=" M 490.49 232.80 C 537.37 229.74 584.95 237.05 628.59 254.49 C 703.27 283.83 765.77 342.79 799.22 415.74 C 832.59 487.18 837.16 571.41 812.02 646.11 C 794.59 698.76 762.68 746.43 721.02 782.99 C 681.53 817.79 633.25 842.58 581.88 854.10 C 505.39 871.66 422.46 859.74 354.35 820.63 C 288.23 783.33 236.32 721.42 211.68 649.57 C 195.36 602.80 190.64 552.12 197.54 503.10 C 203.93 457.25 220.79 412.93 246.37 374.36 C 265.57 345.31 289.60 319.44 317.21 298.20 C 366.72 259.75 427.93 236.67 490.49 232.80 M 439.00 341.03 C 419.54 344.99 401.33 354.41 386.53 367.61 C 362.43 388.92 347.69 418.99 340.00 449.83 C 337.44 467.16 338.80 484.81 341.39 502.05 C 342.28 509.67 344.08 517.16 344.68 524.83 C 345.96 539.31 348.74 553.60 350.81 567.98 C 346.85 571.61 342.03 574.34 338.68 578.59 C 335.48 582.65 336.43 588.12 336.68 592.90 C 338.25 607.34 343.48 621.02 348.38 634.59 C 350.67 641.36 353.45 648.26 358.80 653.24 C 365.07 659.74 373.63 663.09 382.07 665.76 C 390.10 682.34 398.80 698.63 408.98 714.01 C 419.84 730.40 432.86 745.29 447.13 758.80 C 457.54 768.43 470.00 776.70 484.31 778.77 C 503.89 781.78 524.76 782.18 543.29 774.24 C 552.47 770.46 559.97 763.81 567.23 757.22 C 594.77 731.78 614.97 699.47 630.84 665.76 C 635.85 663.91 641.08 662.50 645.66 659.67 C 652.97 655.42 659.15 648.93 662.09 640.91 C 665.49 631.94 668.71 622.89 671.69 613.77 C 674.42 603.75 677.34 593.43 676.21 582.95 C 674.39 575.82 666.98 572.65 662.10 567.88 C 665.73 544.41 669.96 520.85 669.36 497.00 C 669.38 480.43 666.52 463.97 661.91 448.09 C 657.77 431.52 653.08 414.70 643.85 400.15 C 640.89 395.23 636.18 391.76 633.06 386.96 C 621.61 372.47 605.84 361.96 589.23 354.24 C 589.14 353.79 588.95 352.88 588.86 352.43 C 587.21 352.83 585.53 352.79 584.00 352.04 C 568.92 345.59 552.86 341.80 536.71 339.24 C 504.27 334.88 471.30 336.21 439.00 341.03 Z" />
<path fill="#555" stroke="#555" stroke-width="5" opacity="1.00" d=" M 439.00 341.03 C 471.30 336.21 504.27 334.88 536.71 339.24 C 552.86 341.80 568.92 345.59 584.00 352.04 C 585.53 352.79 587.21 352.83 588.86 352.43 C 588.95 352.88 589.14 353.79 589.23 354.24 C 605.84 361.96 621.61 372.47 633.06 386.96 C 636.18 391.76 640.89 395.23 643.85 400.15 C 653.08 414.70 657.77 431.52 661.91 448.09 C 666.52 463.97 669.38 480.43 669.36 497.00 C 669.96 520.85 665.73 544.41 662.10 567.88 C 666.98 572.65 674.39 575.82 676.21 582.95 C 677.34 593.43 674.42 603.75 671.69 613.77 C 668.71 622.89 665.49 631.94 662.09 640.91 C 659.15 648.93 652.97 655.42 645.66 659.67 C 641.08 662.50 635.85 663.91 630.84 665.76 C 614.97 699.47 594.77 731.78 567.23 757.22 C 559.97 763.81 552.47 770.46 543.29 774.24 C 524.76 782.18 503.89 781.78 484.31 778.77 C 470.00 776.70 457.54 768.43 447.13 758.80 C 432.86 745.29 419.84 730.40 408.98 714.01 C 398.80 698.63 390.10 682.34 382.07 665.76 C 373.63 663.09 365.07 659.74 358.80 653.24 C 353.45 648.26 350.67 641.36 348.38 634.59 C 343.48 621.02 338.25 607.34 336.68 592.90 C 336.43 588.12 335.48 582.65 338.68 578.59 C 342.03 574.34 346.85 571.61 350.81 567.98 C 348.74 553.60 345.96 539.31 344.68 524.83 C 344.08 517.16 342.28 509.67 341.39 502.05 C 338.80 484.81 337.44 467.16 340.00 449.83 C 347.69 418.99 362.43 388.92 386.53 367.61 C 401.33 354.41 419.54 344.99 439.00 341.03 M 397.96 451.62 C 397.11 460.46 394.95 469.09 392.73 477.67 C 390.15 486.89 388.15 496.31 384.45 505.18 C 379.44 519.08 376.91 533.79 375.81 548.50 C 373.69 574.63 374.76 600.98 378.52 626.89 C 381.63 637.05 386.06 646.75 389.93 656.64 C 413.88 648.83 433.82 632.89 455.29 620.27 C 466.82 613.70 478.86 607.57 492.00 605.05 C 507.79 601.59 524.39 604.44 539.09 610.76 C 568.45 623.44 592.29 646.64 622.94 656.64 C 627.42 644.94 632.06 633.30 636.48 621.58 C 637.54 618.12 639.37 614.69 639.02 610.97 C 637.65 594.91 634.55 579.01 633.92 562.89 C 632.30 554.98 629.13 547.48 627.14 539.66 C 624.29 527.41 615.64 517.60 606.56 509.36 C 594.65 499.28 580.40 491.74 565.20 488.09 C 574.35 500.62 587.68 509.17 599.88 518.43 C 594.70 518.94 589.57 517.94 584.60 516.55 C 570.93 512.58 558.09 506.20 545.57 499.50 C 527.83 489.92 510.74 479.19 494.00 467.97 C 492.26 466.57 489.99 466.88 487.93 466.88 C 492.66 473.46 498.65 478.98 504.56 484.47 C 518.73 496.98 533.90 508.30 549.33 519.21 C 534.80 520.46 520.63 515.70 507.19 510.75 C 485.05 502.22 463.96 491.22 443.35 479.53 C 427.97 470.64 412.73 461.48 397.96 451.62 M 351.52 579.03 C 349.54 585.77 347.83 592.83 348.79 599.89 C 349.86 606.09 352.15 611.99 353.97 617.99 C 357.15 627.94 360.60 638.33 368.00 646.02 C 370.71 648.98 374.16 651.09 377.61 653.09 C 369.42 628.23 361.81 603.13 351.52 579.03 M 635.21 653.05 C 641.98 648.78 649.10 643.83 652.25 636.16 C 656.05 625.85 660.22 615.64 663.01 605.00 C 665.13 596.39 664.81 587.16 661.33 578.95 C 650.54 602.87 643.18 628.10 635.21 653.05 M 478.36 618.36 C 449.18 632.23 424.17 653.85 393.76 665.28 C 411.07 700.69 433.36 734.83 465.01 759.06 C 490.47 775.04 525.60 774.77 550.29 757.33 C 580.51 732.96 602.28 699.84 619.10 665.23 C 592.26 655.17 569.55 637.18 544.60 623.50 C 537.40 619.78 530.21 615.82 522.29 613.89 C 507.72 610.14 491.86 611.73 478.36 618.36 Z" />
<path fill="none" stroke="none" stroke-width="5" opacity="1.00" d=" M 397.96 451.62 C 412.73 461.48 427.97 470.64 443.35 479.53 C 463.96 491.22 485.05 502.22 507.19 510.75 C 520.63 515.70 534.80 520.46 549.33 519.21 C 533.90 508.30 518.73 496.98 504.56 484.47 C 498.65 478.98 492.66 473.46 487.93 466.88 C 489.99 466.88 492.26 466.57 494.00 467.97 C 510.74 479.19 527.83 489.92 545.57 499.50 C 558.09 506.20 570.93 512.58 584.60 516.55 C 589.57 517.94 594.70 518.94 599.88 518.43 C 587.68 509.17 574.35 500.62 565.20 488.09 C 580.40 491.74 594.65 499.28 606.56 509.36 C 615.64 517.60 624.29 527.41 627.14 539.66 C 629.13 547.48 632.30 554.98 633.92 562.89 C 634.55 579.01 637.65 594.91 639.02 610.97 C 639.37 614.69 637.54 618.12 636.48 621.58 C 632.06 633.30 627.42 644.94 622.94 656.64 C 592.29 646.64 568.45 623.44 539.09 610.76 C 524.39 604.44 507.79 601.59 492.00 605.05 C 478.86 607.57 466.82 613.70 455.29 620.27 C 433.82 632.89 413.88 648.83 389.93 656.64 C 386.06 646.75 381.63 637.05 378.52 626.89 C 374.76 600.98 373.69 574.63 375.81 548.50 C 376.91 533.79 379.44 519.08 384.45 505.18 C 388.15 496.31 390.15 486.89 392.73 477.67 C 394.95 469.09 397.11 460.46 397.96 451.62 M 421.00 544.28 C 437.83 552.64 457.04 549.18 475.08 549.44 C 475.21 547.14 475.35 544.84 475.50 542.55 C 457.32 542.51 439.07 541.81 421.00 544.28 M 537.81 542.60 C 537.76 544.90 537.72 547.20 537.68 549.51 C 555.91 549.64 574.26 550.41 592.33 547.38 C 575.09 539.96 556.00 542.83 537.81 542.60 M 436.42 571.45 C 433.69 574.37 434.59 579.04 437.09 581.80 C 441.74 584.63 447.51 585.31 452.83 584.44 C 459.91 583.25 466.00 578.81 470.49 573.36 C 464.08 570.72 457.87 567.17 450.92 566.20 C 445.71 566.00 440.04 567.53 436.42 571.45 M 543.00 572.80 C 548.30 582.15 560.60 587.46 570.71 582.92 C 575.96 580.89 579.34 576.01 580.99 570.82 C 568.95 565.33 554.30 565.60 543.00 572.80 Z" />
<path fill="#555" stroke="#555" stroke-width="5" opacity="1.00" d=" M 421.00 544.28 C 439.07 541.81 457.32 542.51 475.50 542.55 C 475.35 544.84 475.21 547.14 475.08 549.44 C 457.04 549.18 437.83 552.64 421.00 544.28 Z" />
<path fill="#555" stroke="#555" stroke-width="5" opacity="1.00" d=" M 537.81 542.60 C 556.00 542.83 575.09 539.96 592.33 547.38 C 574.26 550.41 555.91 549.64 537.68 549.51 C 537.72 547.20 537.76 544.90 537.81 542.60 Z" />
<path fill="#555" stroke="#555" stroke-width="5" opacity="1.00" d=" M 436.42 571.45 C 440.04 567.53 445.71 566.00 450.92 566.20 C 457.87 567.17 464.08 570.72 470.49 573.36 C 466.00 578.81 459.91 583.25 452.83 584.44 C 447.51 585.31 441.74 584.63 437.09 581.80 C 434.59 579.04 433.69 574.37 436.42 571.45 Z" />
<path fill="#555" stroke="#555" stroke-width="5" opacity="1.00" d=" M 543.00 572.80 C 554.30 565.60 568.95 565.33 580.99 570.82 C 579.34 576.01 575.96 580.89 570.71 582.92 C 560.60 587.46 548.30 582.15 543.00 572.80 Z" />
<path fill="none" stroke="none" stroke-width="5" opacity="1.00" d=" M 351.52 579.03 C 361.81 603.13 369.42 628.23 377.61 653.09 C 374.16 651.09 370.71 648.98 368.00 646.02 C 360.60 638.33 357.15 627.94 353.97 617.99 C 352.15 611.99 349.86 606.09 348.79 599.89 C 347.83 592.83 349.54 585.77 351.52 579.03 Z" />
<path fill="none" stroke="none" stroke-width="5" opacity="1.00" d=" M 635.21 653.05 C 643.18 628.10 650.54 602.87 661.33 578.95 C 664.81 587.16 665.13 596.39 663.01 605.00 C 660.22 615.64 656.05 625.85 652.25 636.16 C 649.10 643.83 641.98 648.78 635.21 653.05 Z" />
<path fill="none" stroke="none" stroke-width="5" opacity="1.00" d=" M 478.36 618.36 C 491.86 611.73 507.72 610.14 522.29 613.89 C 530.21 615.82 537.40 619.78 544.60 623.50 C 569.55 637.18 592.26 655.17 619.10 665.23 C 602.28 699.84 580.51 732.96 550.29 757.33 C 525.60 774.77 490.47 775.04 465.01 759.06 C 433.36 734.83 411.07 700.69 393.76 665.28 C 424.17 653.85 449.18 632.23 478.36 618.36 M 460.50 671.63 C 470.76 677.10 482.75 676.75 494.04 676.76 C 513.59 676.48 533.37 677.63 552.64 673.57 C 546.99 669.40 540.06 667.28 533.07 667.14 C 518.05 666.93 503.01 667.47 487.99 667.00 C 478.65 666.79 469.09 667.72 460.50 671.63 M 468.30 688.59 C 466.33 691.73 464.34 694.86 462.36 698.00 C 491.69 700.20 521.16 700.21 550.49 697.96 C 548.49 694.82 546.49 691.69 544.46 688.58 C 519.08 688.61 493.69 688.58 468.30 688.59 M 459.04 715.53 C 489.33 714.73 519.64 715.60 549.93 714.58 C 542.19 712.05 534.04 711.25 525.94 711.05 C 514.97 710.99 503.99 710.82 493.01 710.89 C 481.58 710.99 469.88 711.52 459.04 715.53 M 467.55 717.30 C 467.50 718.81 467.46 720.33 467.43 721.85 C 494.91 720.54 522.94 725.49 549.93 718.21 C 522.48 716.99 495.00 718.17 467.55 717.30 Z" />
<path fill="#555" stroke="#555" stroke-width="5" opacity="1.00" d=" M 460.50 671.63 C 469.09 667.72 478.65 666.79 487.99 667.00 C 503.01 667.47 518.05 666.93 533.07 667.14 C 540.06 667.28 546.99 669.40 552.64 673.57 C 533.37 677.63 513.59 676.48 494.04 676.76 C 482.75 676.75 470.76 677.10 460.50 671.63 Z" />
<path fill="#555" stroke="#555" stroke-width="5" opacity="1.00" d=" M 468.30 688.59 C 493.69 688.58 519.08 688.61 544.46 688.58 C 546.49 691.69 548.49 694.82 550.49 697.96 C 521.16 700.21 491.69 700.20 462.36 698.00 C 464.34 694.86 466.33 691.73 468.30 688.59 Z" />
<path fill="#555" stroke="#555" stroke-width="5" opacity="1.00" d=" M 459.04 715.53 C 469.88 711.52 481.58 710.99 493.01 710.89 C 503.99 710.82 514.97 710.99 525.94 711.05 C 534.04 711.25 542.19 712.05 549.93 714.58 C 519.64 715.60 489.33 714.73 459.04 715.53 Z" />
<path fill="#555" stroke="#555" stroke-width="5" opacity="1.00" d=" M 467.55 717.30 C 495.00 718.17 522.48 716.99 549.93 718.21 C 522.94 725.49 494.91 720.54 467.43 721.85 C 467.46 720.33 467.50 718.81 467.55 717.30 Z" />
</svg>
