<?xml version="1.0" encoding="UTF-8" ?>
<!DOCTYPE svg PUBLIC "-//W3C//DTD SVG 1.1//EN" "http://www.w3.org/Graphics/SVG/1.1/DTD/svg11.dtd">
<svg id="weather34 august 2018 unhealthy for some air quality" width="1024pt" height="1024pt" viewBox="0 0 1024 1024" version="1.1" xmlns="http://www.w3.org/2000/svg">
<path fill="none" stroke="none" stroke-width="2" opacity="1.00" d=" M 500.20 232.33 C 549.22 230.56 598.66 240.26 643.26 260.74 C 712.18 291.98 769.15 348.83 800.19 417.88 C 833.03 489.56 836.98 573.85 811.26 648.35 C 793.62 700.34 761.82 747.36 720.49 783.45 C 678.31 820.51 626.09 846.03 570.90 856.40 C 531.46 863.89 490.62 863.85 451.19 856.33 C 411.53 848.76 373.33 833.52 339.43 811.60 C 276.10 771.13 227.95 707.37 207.06 635.12 C 193.77 590.00 191.03 541.87 198.70 495.48 C 206.37 449.03 224.79 404.40 252.08 366.04 C 290.00 312.24 345.16 270.81 407.43 249.47 C 437.25 239.14 468.65 233.37 500.20 232.33 M 439.78 340.88 C 408.67 346.81 381.51 367.06 364.27 393.28 C 352.99 410.24 345.20 429.36 340.17 449.06 C 337.82 462.93 338.53 477.11 339.87 491.06 C 341.98 507.94 344.69 524.84 349.67 541.15 C 352.57 549.75 355.59 558.31 358.15 567.02 C 354.43 569.81 350.70 572.59 346.96 575.33 C 347.95 593.99 353.69 612.01 360.91 629.12 C 362.87 634.35 365.54 639.47 369.76 643.24 C 375.51 648.86 383.27 651.54 390.96 653.27 C 404.80 681.19 421.58 708.08 443.86 730.08 C 453.61 739.58 463.86 749.32 476.83 754.19 C 495.10 761.13 515.28 760.68 534.22 757.12 C 545.96 755.36 556.08 748.49 565.05 741.10 C 592.90 717.28 613.62 686.24 629.56 653.49 C 636.88 651.60 644.34 649.21 650.08 644.06 C 654.88 640.15 657.77 634.52 659.90 628.82 C 666.22 613.49 671.90 597.62 673.54 581.03 C 672.98 572.87 664.96 568.60 659.42 563.80 C 660.64 555.85 661.57 547.86 663.07 539.96 C 665.51 529.09 667.45 518.05 667.62 506.88 C 668.10 479.13 664.17 451.21 655.31 424.87 C 650.93 412.62 645.78 400.04 636.11 390.96 C 628.53 380.24 618.55 371.41 607.58 364.29 C 578.36 345.57 543.29 338.04 508.98 336.91 C 485.84 335.70 462.69 337.75 439.78 340.88 Z" />
<path fill="#555" stroke="#555" stroke-width="2" opacity="1.00" d=" M 439.78 340.88 C 462.69 337.75 485.84 335.70 508.98 336.91 C 543.29 338.04 578.36 345.57 607.58 364.29 C 618.55 371.41 628.53 380.24 636.11 390.96 C 645.78 400.04 650.93 412.62 655.31 424.87 C 664.17 451.21 668.10 479.13 667.62 506.88 C 667.45 518.05 665.51 529.09 663.07 539.96 C 661.57 547.86 660.64 555.85 659.42 563.80 C 664.96 568.60 672.98 572.87 673.54 581.03 C 671.90 597.62 666.22 613.49 659.90 628.82 C 657.77 634.52 654.88 640.15 650.08 644.06 C 644.34 649.21 636.88 651.60 629.56 653.49 C 613.62 686.24 592.90 717.28 565.05 741.10 C 556.08 748.49 545.96 755.36 534.22 757.12 C 515.28 760.68 495.10 761.13 476.83 754.19 C 463.86 749.32 453.61 739.58 443.86 730.08 C 421.58 708.08 404.80 681.19 390.96 653.27 C 383.27 651.54 375.51 648.86 369.76 643.24 C 365.54 639.47 362.87 634.35 360.91 629.12 C 353.69 612.01 347.95 593.99 346.96 575.33 C 350.70 572.59 354.43 569.81 358.15 567.02 C 355.59 558.31 352.57 549.75 349.67 541.15 C 344.69 524.84 341.98 507.94 339.87 491.06 C 338.53 477.11 337.82 462.93 340.17 449.06 C 345.20 429.36 352.99 410.24 364.27 393.28 C 381.51 367.06 408.67 346.81 439.78 340.88 M 397.96 451.62 C 397.11 460.47 394.94 469.11 392.73 477.70 C 390.17 486.91 388.13 496.31 384.46 505.16 C 376.18 528.13 374.79 552.86 374.83 577.07 C 374.38 586.73 375.59 596.34 376.02 605.98 C 377.22 616.19 378.57 626.42 378.41 636.73 C 372.73 617.62 367.48 598.37 361.88 579.23 C 360.43 579.34 358.98 579.48 357.53 579.61 C 361.21 600.81 367.13 622.25 379.98 639.88 C 383.36 638.00 386.50 635.67 390.03 634.08 C 393.41 633.49 395.09 637.14 396.39 639.59 C 403.69 654.65 410.88 669.84 420.17 683.81 C 431.42 701.41 445.02 717.48 460.54 731.46 C 472.85 743.42 490.05 749.35 507.01 749.82 C 521.76 750.43 536.75 747.01 549.55 739.58 C 583.42 714.82 606.51 678.38 623.73 640.72 C 625.03 638.05 626.27 634.00 629.97 634.28 C 634.12 634.76 637.50 637.58 640.81 639.90 C 653.56 622.22 659.58 600.81 663.16 579.58 C 659.65 579.44 656.14 579.32 652.64 579.24 C 648.73 595.47 645.03 611.75 641.26 628.01 C 638.71 607.07 636.03 586.10 633.68 565.17 C 628.70 553.45 625.49 541.12 621.78 528.98 C 620.01 522.37 614.78 517.58 610.25 512.78 C 597.77 500.81 581.98 492.17 565.18 488.12 C 574.36 500.62 587.68 509.09 599.79 518.45 C 594.04 519.02 588.41 517.63 582.92 516.10 C 567.07 511.06 552.24 503.31 537.77 495.20 C 519.46 484.97 502.01 473.30 484.53 461.73 C 489.61 470.56 497.13 477.59 504.54 484.45 C 518.70 496.97 533.88 508.28 549.31 519.20 C 535.10 520.47 521.21 515.84 508.04 511.07 C 484.49 502.07 462.12 490.30 440.29 477.77 C 425.97 469.39 411.74 460.85 397.96 451.62 Z" />
<path fill="none" stroke="none" stroke-width="2" opacity="1.00" d=" M 397.96 451.62 C 411.74 460.85 425.97 469.39 440.29 477.77 C 462.12 490.30 484.49 502.07 508.04 511.07 C 521.21 515.84 535.10 520.47 549.31 519.20 C 533.88 508.28 518.70 496.97 504.54 484.45 C 497.13 477.59 489.61 470.56 484.53 461.73 C 502.01 473.30 519.46 484.97 537.77 495.20 C 552.24 503.31 567.07 511.06 582.92 516.10 C 588.41 517.63 594.04 519.02 599.79 518.45 C 587.68 509.09 574.36 500.62 565.18 488.12 C 581.98 492.17 597.77 500.81 610.25 512.78 C 614.78 517.58 620.01 522.37 621.78 528.98 C 625.49 541.12 628.70 553.45 633.68 565.17 C 636.03 586.10 638.71 607.07 641.26 628.01 C 645.03 611.75 648.73 595.47 652.64 579.24 C 656.14 579.32 659.65 579.44 663.16 579.58 C 659.58 600.81 653.56 622.22 640.81 639.90 C 637.50 637.58 634.12 634.76 629.97 634.28 C 626.27 634.00 625.03 638.05 623.73 640.72 C 606.51 678.38 583.42 714.82 549.55 739.58 C 536.75 747.01 521.76 750.43 507.01 749.82 C 490.05 749.35 472.85 743.42 460.54 731.46 C 445.02 717.48 431.42 701.41 420.17 683.81 C 410.88 669.84 403.69 654.65 396.39 639.59 C 395.09 637.14 393.41 633.49 390.03 634.08 C 386.50 635.67 383.36 638.00 379.98 639.88 C 367.13 622.25 361.21 600.81 357.53 579.61 C 358.98 579.48 360.43 579.34 361.88 579.23 C 367.48 598.37 372.73 617.62 378.41 636.73 C 378.57 626.42 377.22 616.19 376.02 605.98 C 375.59 596.34 374.38 586.73 374.83 577.07 C 374.79 552.86 376.18 528.13 384.46 505.16 C 388.13 496.31 390.17 486.91 392.73 477.70 C 394.94 469.11 397.11 460.47 397.96 451.62 M 537.57 529.02 C 537.98 534.21 540.45 539.19 544.69 542.30 C 551.75 547.64 560.48 550.11 568.90 552.41 C 577.50 554.69 587.83 554.23 594.33 547.42 C 574.39 545.42 554.62 539.74 537.57 529.02 M 426.35 547.58 C 433.71 554.47 444.70 554.64 453.90 552.02 C 462.37 549.46 470.95 546.48 478.12 541.15 C 481.62 538.59 482.60 534.06 481.64 530.00 C 464.94 540.21 445.69 545.48 426.35 547.58 M 545.04 569.15 C 548.92 574.96 555.03 579.48 562.06 580.41 C 568.09 581.36 574.29 578.74 578.52 574.52 C 581.54 569.08 575.64 563.42 570.51 562.38 C 561.39 558.94 552.74 565.01 545.04 569.15 M 442.55 567.48 C 440.13 570.03 441.84 573.92 444.00 576.03 C 447.75 580.21 453.78 580.77 459.05 580.65 C 466.08 579.87 471.31 574.47 476.07 569.73 C 470.02 565.79 463.53 561.64 456.05 561.57 C 450.89 561.38 446.34 564.30 442.55 567.48 M 490.60 626.60 C 503.09 631.89 517.38 631.36 529.93 626.56 C 517.95 619.90 502.50 619.65 490.60 626.60 M 480.31 673.44 C 474.13 676.49 469.30 681.83 466.69 688.19 C 474.68 685.60 482.37 682.25 490.12 679.07 C 499.40 675.26 509.83 674.07 519.62 676.52 C 529.83 679.34 539.20 684.43 549.24 687.73 C 548.16 683.16 545.87 678.78 541.93 676.06 C 533.82 670.22 523.54 668.92 513.91 667.50 C 502.52 667.43 490.63 668.13 480.31 673.44 M 498.79 690.33 C 497.51 693.16 496.18 695.97 494.84 698.77 C 506.17 698.68 517.60 698.78 528.74 696.38 C 520.20 689.96 508.94 690.39 498.79 690.33 Z" />
<path fill="#555" stroke="#555" stroke-width="2" opacity="1.00" d=" M 537.57 529.02 C 554.62 539.74 574.39 545.42 594.33 547.42 C 587.83 554.23 577.50 554.69 568.90 552.41 C 560.48 550.11 551.75 547.64 544.69 542.30 C 540.45 539.19 537.98 534.21 537.57 529.02 Z" />
<path fill="#555" stroke="#555" stroke-width="2" opacity="1.00" d=" M 426.35 547.58 C 445.69 545.48 464.94 540.21 481.64 530.00 C 482.60 534.06 481.62 538.59 478.12 541.15 C 470.95 546.48 462.37 549.46 453.90 552.02 C 444.70 554.64 433.71 554.47 426.35 547.58 Z" />
<path fill="#555" stroke="#555" stroke-width="2" opacity="1.00" d=" M 545.04 569.15 C 552.74 565.01 561.39 558.94 570.51 562.38 C 575.64 563.42 581.54 569.08 578.52 574.52 C 574.29 578.74 568.09 581.36 562.06 580.41 C 555.03 579.48 548.92 574.96 545.04 569.15 Z" />
<path fill="#555" stroke="#555" stroke-width="2" opacity="1.00" d=" M 442.55 567.48 C 446.34 564.30 450.89 561.38 456.05 561.57 C 463.53 561.64 470.02 565.79 476.07 569.73 C 471.31 574.47 466.08 579.87 459.05 580.65 C 453.78 580.77 447.75 580.21 444.00 576.03 C 441.84 573.92 440.13 570.03 442.55 567.48 Z" />
<path fill="#555" stroke="#555" stroke-width="2" opacity="1.00" d=" M 490.60 626.60 C 502.50 619.65 517.95 619.90 529.93 626.56 C 517.38 631.36 503.09 631.89 490.60 626.60 Z" />
<path fill="#555" stroke="#555" stroke-width="2" opacity="1.00" d=" M 480.31 673.44 C 490.63 668.13 502.52 667.43 513.91 667.50 C 523.54 668.92 533.82 670.22 541.93 676.06 C 545.87 678.78 548.16 683.16 549.24 687.73 C 539.20 684.43 529.83 679.34 519.62 676.52 C 509.83 674.07 499.40 675.26 490.12 679.07 C 482.37 682.25 474.68 685.60 466.69 688.19 C 469.30 681.83 474.13 676.49 480.31 673.44 Z" />
<path fill="#555" stroke="#555" stroke-width="2" opacity="1.00" d=" M 498.79 690.33 C 508.94 690.39 520.20 689.96 528.74 696.38 C 517.60 698.78 506.17 698.68 494.84 698.77 C 496.18 695.97 497.51 693.16 498.79 690.33 Z" />
</svg>
