<?xml version="1.0" encoding="UTF-8" ?>
<!DOCTYPE svg PUBLIC "-//W3C//DTD SVG 1.1//EN" "http://www.w3.org/Graphics/SVG/1.1/DTD/svg11.dtd">
<svg id="weather34 august 2018 very unhealthy air quality" width="1024pt" height="1024pt" viewBox="0 0 1024 1024" version="1.1" xmlns="http://www.w3.org/2000/svg">
<path fill="none" stroke="none" stroke-width="5" opacity="1.00" d=" M 489.55 232.87 C 536.72 229.63 584.64 236.94 628.57 254.48 C 703.73 284.01 766.57 343.53 799.85 417.13 C 832.64 488.21 836.98 571.77 812.08 645.95 C 795.53 695.97 765.95 741.53 727.31 777.31 C 687.09 814.71 636.98 841.46 583.42 853.74 C 506.52 871.81 422.94 860.01 354.38 820.64 C 288.23 783.33 236.30 721.40 211.66 649.51 C 196.14 605.00 191.11 556.92 196.64 510.13 C 202.56 458.92 221.59 409.34 251.25 367.20 C 271.63 338.11 296.96 312.49 325.81 291.78 C 373.45 257.34 430.89 236.67 489.55 232.87 M 438.49 341.14 C 407.17 347.51 380.07 368.39 363.08 395.10 C 352.33 411.84 344.78 430.54 340.01 449.82 C 337.44 467.17 338.81 484.84 341.40 502.10 C 343.13 515.79 346.36 529.23 349.68 542.61 C 350.03 550.93 352.17 559.03 353.40 567.24 C 349.74 568.13 346.09 569.04 342.44 569.95 C 340.59 574.13 338.86 578.45 338.65 583.08 C 337.65 594.91 342.94 605.86 346.41 616.85 C 349.68 625.80 351.76 635.53 357.97 643.06 C 364.11 651.05 373.60 656.09 383.59 657.14 C 385.35 660.89 387.10 664.63 388.86 668.38 C 378.75 673.33 368.27 677.71 359.17 684.45 C 357.29 694.28 363.80 702.71 367.92 711.03 C 378.99 731.60 390.03 752.19 401.11 772.76 C 403.28 776.54 405.33 780.48 408.29 783.72 C 410.65 786.34 414.58 787.19 417.86 785.92 C 434.74 779.47 450.61 770.61 465.85 760.95 C 490.34 769.02 517.10 769.25 541.99 762.79 C 543.79 762.36 545.72 761.79 547.53 762.56 C 554.18 764.68 560.29 768.15 566.26 771.71 C 577.74 778.51 589.84 786.07 603.70 785.69 C 609.57 778.28 614.36 770.11 618.54 761.64 C 622.88 753.01 627.70 744.62 632.12 736.03 C 639.92 721.44 648.66 707.24 654.62 691.77 C 655.44 686.63 651.75 681.95 647.62 679.37 C 640.44 674.99 632.10 672.99 624.89 668.65 C 626.64 664.82 628.41 661.01 630.21 657.21 C 637.93 654.96 646.65 653.51 652.40 647.39 C 662.80 635.22 666.57 619.25 671.51 604.41 C 673.19 598.70 675.98 593.10 675.62 587.00 C 675.63 581.08 673.67 575.41 671.55 569.95 C 667.85 569.03 664.14 568.11 660.44 567.20 C 662.29 555.72 664.98 544.29 665.46 532.66 C 668.75 511.92 668.64 490.68 665.64 469.91 C 663.04 451.22 658.87 432.61 651.60 415.14 C 648.14 407.17 644.26 399.10 637.96 392.95 C 635.09 390.13 633.04 386.61 630.35 383.63 C 619.84 371.76 606.53 362.65 592.35 355.72 C 572.48 346.16 550.80 340.75 528.95 338.30 C 498.84 335.11 468.38 336.59 438.49 341.14 Z" />
<path fill="#555" stroke="#555" stroke-width="5" opacity="1.00" d=" M 438.49 341.14 C 468.38 336.59 498.84 335.11 528.95 338.30 C 550.80 340.75 572.48 346.16 592.35 355.72 C 606.53 362.65 619.84 371.76 630.35 383.63 C 633.04 386.61 635.09 390.13 637.96 392.95 C 644.26 399.10 648.14 407.17 651.60 415.14 C 658.87 432.61 663.04 451.22 665.64 469.91 C 668.64 490.68 668.75 511.92 665.46 532.66 C 659.69 547.94 656.52 564.05 652.53 579.85 C 648.57 595.85 645.05 611.96 641.23 627.99 C 638.82 606.32 635.47 584.74 633.76 563.01 C 633.17 559.99 631.99 557.15 630.98 554.27 C 628.54 547.61 626.80 540.72 624.70 533.96 C 622.33 525.52 616.20 518.89 610.24 512.77 C 597.74 500.75 581.91 492.20 565.10 488.04 C 574.36 500.58 587.69 509.18 599.93 518.51 C 590.45 519.05 581.31 515.84 572.63 512.42 C 548.70 502.59 526.54 489.04 504.83 475.11 C 499.85 472.17 495.29 467.24 488.94 468.38 C 498.96 480.59 511.36 490.51 523.67 500.29 C 532.04 506.87 540.72 513.04 549.36 519.26 C 530.58 520.51 512.72 513.04 495.69 506.08 C 461.47 491.13 429.23 472.01 397.97 451.66 C 396.04 467.78 391.28 483.40 386.78 498.95 C 381.55 511.76 378.38 525.32 376.68 539.04 C 374.61 559.27 374.02 579.71 375.66 599.99 C 376.36 612.45 378.72 624.79 378.46 637.31 C 372.99 618.27 367.78 599.16 362.08 580.19 C 358.20 567.59 354.98 554.71 349.68 542.61 C 346.36 529.23 343.13 515.79 341.40 502.10 C 338.81 484.84 337.44 467.17 340.01 449.82 C 344.78 430.54 352.33 411.84 363.08 395.10 C 380.07 368.39 407.17 347.51 438.49 341.14 Z" />
<path fill="none" stroke="none" stroke-width="5" opacity="1.00" d=" M 397.97 451.66 C 429.23 472.01 461.47 491.13 495.69 506.08 C 512.72 513.04 530.58 520.51 549.36 519.26 C 540.72 513.04 532.04 506.87 523.67 500.29 C 511.36 490.51 498.96 480.59 488.94 468.38 C 495.29 467.24 499.85 472.17 504.83 475.11 C 526.54 489.04 548.70 502.59 572.63 512.42 C 581.31 515.84 590.45 519.05 599.93 518.51 C 587.69 509.18 574.36 500.58 565.10 488.04 C 581.91 492.20 597.74 500.75 610.24 512.77 C 616.20 518.89 622.33 525.52 624.70 533.96 C 626.80 540.72 628.54 547.61 630.98 554.27 C 631.99 557.15 633.17 559.99 633.76 563.01 C 635.47 584.74 638.82 606.32 641.23 627.99 C 645.05 611.96 648.57 595.85 652.53 579.85 C 656.81 579.81 661.10 579.78 665.38 579.78 C 662.48 602.35 656.22 625.21 642.17 643.54 C 637.80 641.38 633.43 639.21 629.07 637.05 C 624.30 645.44 619.90 654.03 615.72 662.74 C 606.47 663.12 597.25 663.88 588.06 665.02 C 579.23 652.63 570.51 640.08 559.78 629.22 C 549.31 618.34 537.24 608.90 523.72 602.11 C 514.41 597.64 503.21 596.74 493.54 600.59 C 476.11 608.14 461.22 620.58 448.74 634.75 C 440.19 644.21 432.95 654.72 425.42 664.99 C 416.37 663.95 407.31 663.09 398.21 662.66 C 393.94 653.95 389.44 645.35 384.62 636.93 C 380.30 639.12 375.99 641.33 371.68 643.53 C 357.57 625.21 351.66 602.25 348.16 579.79 C 352.80 579.90 357.44 580.04 362.08 580.19 C 367.78 599.16 372.99 618.27 378.46 637.31 C 378.72 624.79 376.36 612.45 375.66 599.99 C 374.02 579.71 374.61 559.27 376.68 539.04 C 378.38 525.32 381.55 511.76 386.78 498.95 C 391.28 483.40 396.04 467.78 397.97 451.66 M 423.67 541.49 C 427.41 545.31 432.58 547.43 437.92 547.55 C 447.59 547.87 457.31 548.16 466.97 547.36 C 471.91 547.01 476.57 544.96 480.36 541.82 C 461.52 540.00 442.53 540.07 423.67 541.49 M 534.08 541.71 C 537.60 545.07 542.20 547.20 547.09 547.46 C 556.37 548.10 565.68 547.82 574.98 547.61 C 580.60 547.64 586.24 545.69 590.06 541.45 C 571.43 540.09 552.69 540.05 534.08 541.71 M 437.32 568.38 C 435.31 570.57 435.29 574.31 437.58 576.32 C 446.33 584.29 462.20 583.15 468.59 572.72 C 464.12 560.20 445.46 559.06 437.32 568.38 M 550.40 565.35 C 546.22 567.94 545.39 574.54 549.16 577.82 C 558.44 583.74 572.54 582.58 579.10 573.10 C 577.47 567.40 572.32 563.44 566.54 562.63 C 561.10 561.75 555.15 562.41 550.40 565.35 Z" />
<path fill="#555" stroke="#555" stroke-width="5" opacity="1.00" d=" M 652.53 579.85 C 656.52 564.05 659.69 547.94 665.46 532.66 C 664.98 544.29 662.29 555.72 660.44 567.20 C 664.14 568.11 667.85 569.03 671.55 569.95 C 673.67 575.41 675.63 581.08 675.62 587.00 C 675.98 593.10 673.19 598.70 671.51 604.41 C 666.57 619.25 662.80 635.22 652.40 647.39 C 646.65 653.51 637.93 654.96 630.21 657.21 C 628.41 661.01 626.64 664.82 624.89 668.65 C 632.10 672.99 640.44 674.99 647.62 679.37 C 651.75 681.95 655.44 686.63 654.62 691.77 C 648.66 707.24 639.92 721.44 632.12 736.03 C 627.70 744.62 622.88 753.01 618.54 761.64 C 614.36 770.11 609.57 778.28 603.70 785.69 C 589.84 786.07 577.74 778.51 566.26 771.71 C 560.29 768.15 554.18 764.68 547.53 762.56 C 545.72 761.79 543.79 762.36 541.99 762.79 C 517.10 769.25 490.34 769.02 465.85 760.95 C 450.61 770.61 434.74 779.47 417.86 785.92 C 414.58 787.19 410.65 786.34 408.29 783.72 C 405.33 780.48 403.28 776.54 401.11 772.76 C 390.03 752.19 378.99 731.60 367.92 711.03 C 363.80 702.71 357.29 694.28 359.17 684.45 C 368.27 677.71 378.75 673.33 388.86 668.38 C 387.10 664.63 385.35 660.89 383.59 657.14 C 373.60 656.09 364.11 651.05 357.97 643.06 C 351.76 635.53 349.68 625.80 346.41 616.85 C 342.94 605.86 337.65 594.91 338.65 583.08 C 338.86 578.45 340.59 574.13 342.44 569.95 C 346.09 569.04 349.74 568.13 353.40 567.24 C 352.17 559.03 350.03 550.93 349.68 542.61 C 354.98 554.71 358.20 567.59 362.08 580.19 C 357.44 580.04 352.80 579.90 348.16 579.79 C 351.66 602.25 357.57 625.21 371.68 643.53 C 375.99 641.33 380.30 639.12 384.62 636.93 C 389.44 645.35 393.94 653.95 398.21 662.66 C 407.31 663.09 416.37 663.95 425.42 664.99 C 432.95 654.72 440.19 644.21 448.74 634.75 C 461.22 620.58 476.11 608.14 493.54 600.59 C 503.21 596.74 514.41 597.64 523.72 602.11 C 537.24 608.90 549.31 618.34 559.78 629.22 C 570.51 640.08 579.23 652.63 588.06 665.02 C 597.25 663.88 606.47 663.12 615.72 662.74 C 619.90 654.03 624.30 645.44 629.07 637.05 C 633.43 639.21 637.80 641.38 642.17 643.54 C 656.22 625.21 662.48 602.35 665.38 579.78 C 661.10 579.78 656.81 579.81 652.53 579.85 M 487.93 611.85 C 463.50 626.45 445.01 649.03 430.29 673.02 C 435.54 682.96 440.70 692.96 446.35 702.68 C 455.02 717.75 463.18 733.30 467.77 750.16 C 492.29 761.47 521.64 761.52 546.13 750.10 C 550.56 732.65 559.23 716.72 568.15 701.21 C 573.50 692.04 578.31 682.57 583.26 673.19 C 571.36 652.17 554.76 634.13 536.24 618.77 C 527.41 612.09 517.45 605.44 505.97 605.28 C 499.30 604.96 493.40 608.49 487.93 611.85 M 385.48 679.78 C 401.03 709.66 416.40 739.65 433.54 768.66 C 439.42 765.48 445.51 762.66 451.26 759.24 C 456.30 756.19 460.57 750.57 459.60 744.40 C 456.45 736.52 452.50 728.97 448.51 721.48 C 441.31 708.07 434.39 694.51 426.79 681.32 C 423.93 676.20 419.66 671.87 414.26 669.47 C 404.04 670.88 394.83 675.71 385.48 679.78 M 595.19 671.09 C 586.99 678.12 582.68 688.38 577.68 697.69 C 570.14 712.75 561.00 727.03 554.72 742.70 C 552.16 749.07 556.34 755.94 561.77 759.27 C 567.81 762.94 574.31 765.80 580.63 768.98 C 588.36 754.90 596.11 740.84 603.85 726.77 C 612.14 711.09 620.22 695.30 628.41 679.57 C 622.77 677.31 617.29 674.70 611.72 672.29 C 606.57 670.29 600.46 668.82 595.19 671.09 M 634.37 683.53 C 619.45 713.55 601.21 741.92 588.48 773.01 C 592.13 774.42 595.79 775.81 599.47 777.18 C 614.68 748.17 630.03 719.22 645.49 690.34 C 641.79 688.06 638.09 685.78 634.37 683.53 M 367.69 687.42 C 381.03 718.29 398.47 747.10 414.15 776.79 C 418.40 775.68 422.64 774.57 426.89 773.46 C 412.02 743.41 395.81 714.06 380.31 684.33 C 376.10 685.35 371.89 686.38 367.69 687.42 Z" />
<path fill="#555" stroke="#555" stroke-width="5" opacity="1.00" d=" M 423.67 541.49 C 442.53 540.07 461.52 540.00 480.36 541.82 C 476.57 544.96 471.91 547.01 466.97 547.36 C 457.31 548.16 447.59 547.87 437.92 547.55 C 432.58 547.43 427.41 545.31 423.67 541.49 Z" />
<path fill="#555" stroke="#555" stroke-width="5" opacity="1.00" d=" M 534.08 541.71 C 552.69 540.05 571.43 540.09 590.06 541.45 C 586.24 545.69 580.60 547.64 574.98 547.61 C 565.68 547.82 556.37 548.10 547.09 547.46 C 542.20 547.20 537.60 545.07 534.08 541.71 Z" />
<path fill="#555" stroke="#555" stroke-width="5" opacity="1.00" d=" M 437.32 568.38 C 445.46 559.06 464.12 560.20 468.59 572.72 C 462.20 583.15 446.33 584.29 437.58 576.32 C 435.29 574.31 435.31 570.57 437.32 568.38 Z" />
<path fill="#555" stroke="#555" stroke-width="5" opacity="1.00" d=" M 550.40 565.35 C 555.15 562.41 561.10 561.75 566.54 562.63 C 572.32 563.44 577.47 567.40 579.10 573.10 C 572.54 582.58 558.44 583.74 549.16 577.82 C 545.39 574.54 546.22 567.94 550.40 565.35 Z" />
<path fill="none" stroke="none" stroke-width="5" opacity="1.00" d=" M 487.93 611.85 C 493.40 608.49 499.30 604.96 505.97 605.28 C 517.45 605.44 527.41 612.09 536.24 618.77 C 554.76 634.13 571.36 652.17 583.26 673.19 C 578.31 682.57 573.50 692.04 568.15 701.21 C 559.23 716.72 550.56 732.65 546.13 750.10 C 521.64 761.52 492.29 761.47 467.77 750.16 C 463.18 733.30 455.02 717.75 446.35 702.68 C 440.70 692.96 435.54 682.96 430.29 673.02 C 445.01 649.03 463.50 626.45 487.93 611.85 M 499.47 651.65 C 485.22 654.37 472.38 664.13 466.42 677.42 C 463.11 684.62 462.53 692.81 463.43 700.60 C 467.43 724.44 493.72 742.02 517.26 736.16 C 529.97 732.81 541.38 724.26 547.62 712.62 C 552.72 703.21 552.82 691.87 550.25 681.70 C 543.96 660.92 520.55 647.80 499.47 651.65 Z" />
<path fill="#555" stroke="#555" stroke-width="5" opacity="1.00" d=" M 499.47 651.65 C 520.55 647.80 543.96 660.92 550.25 681.70 C 552.82 691.87 552.72 703.21 547.62 712.62 C 541.38 724.26 529.97 732.81 517.26 736.16 C 493.72 742.02 467.43 724.44 463.43 700.60 C 462.53 692.81 463.11 684.62 466.42 677.42 C 472.38 664.13 485.22 654.37 499.47 651.65 M 502.34 673.55 C 496.49 675.45 490.35 678.85 487.92 684.83 C 485.57 690.59 485.87 697.19 487.91 703.00 C 489.68 708.21 494.37 712.07 499.58 713.57 C 507.70 716.21 517.30 714.49 523.55 708.54 C 527.50 704.44 528.82 698.49 529.17 693.00 C 528.64 680.18 514.53 670.66 502.34 673.55 Z" />
<path fill="none" stroke="none" stroke-width="5" opacity="1.00" d=" M 385.48 679.78 C 394.83 675.71 404.04 670.88 414.26 669.47 C 419.66 671.87 423.93 676.20 426.79 681.32 C 434.39 694.51 441.31 708.07 448.51 721.48 C 452.50 728.97 456.45 736.52 459.60 744.40 C 460.57 750.57 456.30 756.19 451.26 759.24 C 445.51 762.66 439.42 765.48 433.54 768.66 C 416.40 739.65 401.03 709.66 385.48 679.78 Z" />
<path fill="none" stroke="none" stroke-width="5" opacity="1.00" d=" M 595.19 671.09 C 600.46 668.82 606.57 670.29 611.72 672.29 C 617.29 674.70 622.77 677.31 628.41 679.57 C 620.22 695.30 612.14 711.09 603.85 726.77 C 596.11 740.84 588.36 754.90 580.63 768.98 C 574.31 765.80 567.81 762.94 561.77 759.27 C 556.34 755.94 552.16 749.07 554.72 742.70 C 561.00 727.03 570.14 712.75 577.68 697.69 C 582.68 688.38 586.99 678.12 595.19 671.09 Z" />
<path fill="none" stroke="none" stroke-width="5" opacity="1.00" d=" M 502.34 673.55 C 514.53 670.66 528.64 680.18 529.17 693.00 C 528.82 698.49 527.50 704.44 523.55 708.54 C 517.30 714.49 507.70 716.21 499.58 713.57 C 494.37 712.07 489.68 708.21 487.91 703.00 C 485.87 697.19 485.57 690.59 487.92 684.83 C 490.35 678.85 496.49 675.45 502.34 673.55 Z" />
<path fill="none" stroke="none" stroke-width="5" opacity="1.00" d=" M 634.37 683.53 C 638.09 685.78 641.79 688.06 645.49 690.34 C 630.03 719.22 614.68 748.17 599.47 777.18 C 595.79 775.81 592.13 774.42 588.48 773.01 C 601.21 741.92 619.45 713.55 634.37 683.53 Z" />
<path fill="none" stroke="none" stroke-width="5" opacity="1.00" d=" M 367.69 687.42 C 371.89 686.38 376.10 685.35 380.31 684.33 C 395.81 714.06 412.02 743.41 426.89 773.46 C 422.64 774.57 418.40 775.68 414.15 776.79 C 398.47 747.10 381.03 718.29 367.69 687.42 Z" />
</svg>
