<svg id="weather34 cloudy 26" width="302pt" height="340" viewBox="0 0 302 255" xmlns="http://www.w3.org/2000/svg"><path fill="#e6e8ef" stroke="#e6e8ef" stroke-width=".1" d="M73.2 35.2c12-13.6 31-20.4 49-19 18 1 36 11 45.5 26.7 15.2-10 36.8-8.2 49.8 4.5 5.6 5.3 9.2 12.6 10 20.3 14.3 2 27.8 10 35 22.5 6.5 10.8 7.3 24.7 2 36C257 143 239 153 221 153H74c-15.2 0-30.5-7.2-39.4-19.6C28 124.2 25.3 112 28 101c4-15.7 17.4-27.7 32.7-31.8-.5-12.4 4.2-24.8 12.5-34m114 51c-5.7 2.7-9.2 8.6-9.5 14.8-3 1.3-6 2.8-8 5.5-3.6 4.5-3.5 11.3 0 15.7 3.4 4.2 9 6 14.2 5.8h45c3.6 0 7.2-.8 10-3 5.2-3.2 7.6-10.3 5-16-2-4.7-7-7.3-11.8-8.5-1-2.8-2.3-6-5-7.6-4.3-3.2-10-2.8-14.6-.6-5.5-8-17-10.8-25.4-6.2z"/><path fill="#777" stroke="#777" stroke-width=".1" d="M187.2 86.2c8.5-4.6 20-1.8 25.4 6.2 4.5-2.2 10.3-2.6 14.5.5 3 1.6 4 4.7 5.2 7.5 4.8 1.2 9.7 3.8 11.7 8.6 2.6 5.7.2 12.8-5 16-2.8 2.2-6.4 3-10 3h-45c-5.3.3-11-1.6-14.2-5.8-3.6-4.4-3.7-11.2-.2-15.7 2-2.7 5-4.2 8-5.5.4-6.2 4-12 9.6-14.8z"/></svg>