<?xml version="1.0" encoding="UTF-8" ?>
<!DOCTYPE svg PUBLIC "-//W3C//DTD SVG 1.1//EN" "http://www.w3.org/Graphics/SVG/1.1/DTD/svg11.dtd">
<svg id="weather34 clear 31" width="302pt" height="255pt" viewBox="0 0 302 255" version="1.1" xmlns="http://www.w3.org/2000/svg">
<g id="#f05e40ff">
<path fill="#f05e40" opacity="1.00" d=" M 158.83 2.07 C 175.84 9.44 190.57 22.31 199.42 38.67 C 209.06 56.45 211.26 77.95 206.01 97.44 C 202.95 93.58 199.12 90.14 194.29 88.75 C 185.25 85.72 174.32 88.97 168.93 96.97 C 166.71 100.03 166.18 103.85 165.57 107.48 C 162.53 108.98 159.29 110.42 157.07 113.09 C 153.69 116.88 152.31 122.39 153.80 127.28 C 155.50 132.98 160.67 137.24 166.37 138.57 C 170.18 139.40 174.12 139.21 178.00 139.22 C 168.50 145.89 157.95 151.37 146.51 153.74 C 129.10 157.65 110.29 155.79 94.27 147.77 C 82.29 141.97 71.95 133.05 64.02 122.39 C 67.25 123.13 70.36 124.26 73.54 125.17 C 93.21 130.37 114.96 127.65 132.63 117.52 C 148.32 108.67 160.64 94.18 167.40 77.54 C 174.67 59.52 175.03 38.86 168.21 20.65 C 165.94 14.05 162.23 8.12 158.83 2.07 Z" />
</g>
<g id="#505153ff">
<path fill="#505153" opacity="1.00" d=" M 168.93 96.97 C 174.32 88.97 185.25 85.72 194.29 88.75 C 199.12 90.14 202.95 93.58 206.01 97.44 L 206.19 97.64 C 210.50 95.40 215.69 94.65 220.26 96.61 C 224.79 98.11 227.60 102.48 228.59 106.95 C 232.56 107.92 236.60 109.42 239.40 112.55 C 244.03 117.20 245.09 124.98 241.59 130.59 C 238.26 136.36 231.40 139.15 224.96 139.16 C 209.31 139.27 193.65 139.14 178.00 139.22 C 174.12 139.21 170.18 139.40 166.37 138.57 C 160.67 137.24 155.50 132.98 153.80 127.28 C 152.31 122.39 153.69 116.88 157.07 113.09 C 159.29 110.42 162.53 108.98 165.57 107.48 C 166.18 103.85 166.71 100.03 168.93 96.97 M 194.48 114.77 C 192.57 116.31 189.93 118.16 190.80 121.03 C 191.27 124.37 195.17 125.24 197.99 125.06 C 200.83 125.35 204.24 124.13 206.56 126.30 C 207.90 129.84 211.96 129.51 215.04 129.53 C 220.03 129.38 225.03 129.74 230.00 129.34 C 232.75 129.30 235.22 126.80 235.03 124.03 C 234.43 120.64 230.54 119.84 228.69 117.31 C 227.37 115.36 224.95 116.00 222.98 116.07 C 220.68 114.17 217.93 113.05 214.90 113.22 L 216.19 114.29 C 213.85 112.17 210.85 110.98 207.67 111.57 C 205.28 109.70 202.23 107.75 199.09 109.07 C 196.47 109.82 195.37 112.46 194.48 114.77 Z" />
</g>
<g id="#969393ff">
<path fill="#969393" opacity="1.00" d=" M 194.48 114.77 C 195.37 112.46 196.47 109.82 199.09 109.07 C 202.23 107.75 205.28 109.70 207.67 111.57 C 210.85 110.98 213.85 112.17 216.19 114.29 C 217.22 115.12 218.23 115.97 219.25 116.82 C 218.48 118.16 218.80 119.17 220.21 119.85 C 220.11 120.53 219.93 121.90 219.84 122.58 C 219.47 123.00 218.74 123.84 218.38 124.26 C 217.80 124.46 216.64 124.87 216.06 125.08 C 212.92 125.68 209.75 126.11 206.56 126.30 C 204.24 124.13 200.83 125.35 197.99 125.06 C 195.17 125.24 191.27 124.37 190.80 121.03 C 189.93 118.16 192.57 116.31 194.48 114.77 Z" />
</g>
<g id="#aca6a6ff">
<path fill="#aca6a6" opacity="1.00" d=" M 214.90 113.22 C 217.93 113.05 220.68 114.17 222.98 116.07 C 224.95 116.00 227.37 115.36 228.69 117.31 C 230.54 119.84 234.43 120.64 235.03 124.03 C 235.22 126.80 232.75 129.30 230.00 129.34 C 225.03 129.74 220.03 129.38 215.04 129.53 C 211.96 129.51 207.90 129.84 206.56 126.30 C 209.75 126.11 212.92 125.68 216.06 125.08 C 216.64 124.87 217.80 124.46 218.38 124.26 C 218.74 123.84 219.47 123.00 219.84 122.58 C 219.93 121.90 220.11 120.53 220.21 119.85 C 220.57 118.59 220.25 117.58 219.25 116.82 C 218.23 115.97 217.22 115.12 216.19 114.29 L 214.90 113.22 Z" />
</g>
<g id="#858181d8">
<path fill="#858181" opacity="0.85" d=" M 219.25 116.82 C 220.25 117.58 220.57 118.59 220.21 119.85 C 218.80 119.17 218.48 118.16 219.25 116.82 Z" />
</g>
<g id="#837f7fcf">
<path fill="#837f7f" opacity="0.81" d=" M 216.06 125.08 C 216.64 124.87 217.80 124.46 218.38 124.26 C 217.80 124.46 216.64 124.87 216.06 125.08 Z" />
</g>
</svg>
