<svg id="weather34 lightning 4" width="302pt" height="340" viewBox="0 0 302 255" xmlns="http://www.w3.org/2000/svg"><path fill="#e6e8ef" stroke="#e6e8ef" stroke-width=".1" d="M81.5 27.7c21.6-16.2 54-15.5 74.8 2 4.5 3.7 8.3 8.2 11.4 13.2 15-10 36.8-8.2 49.8 4.5 5.6 5.3 9.2 12.6 10 20.3 14.8 2 28.8 10.6 35.8 24 6.3 11.3 6.2 26 0 37.2-7.8 14-23.2 22.8-39 23.8-5.7.3-11.5 0-17.3.2H87c-7.7-.2-15.4.6-23-1-13.3-2.7-25.6-11-32-23-6-10.2-6.6-23-2-34 5.4-12.8 17.3-22.2 30.6-25.7C60 53 68.4 37 81.6 27.7m106.3 58c-6 2.7-10.2 8.8-10.2 15.3-5.7 1.8-10.8 6.7-10.8 13-.3 8 7.4 14 15 14h47c4 0 8-1 11.2-3.8 4.4-3.5 6-10 3.7-15.2-2.2-4.7-7-7.4-11.8-8.4-1-2.5-1.8-5.2-4-7-4.3-3.7-10.7-3.8-15.6-1-5.2-8-16.2-10.8-24.7-6.8z"/><path fill="#777" stroke="#777" stroke-width=".1" d="M188 85.8c8.4-4 19.4-1 24.6 6.7 5-2.7 11.3-2.6 15.6 1.2 2.2 1.7 3 4.4 4 7 4.8 1 9.6 3.6 11.7 8.3 2.3 5.2.6 11.7-3.8 15.2-3 2.7-7.2 4-11.2 3.8h-47c-7.6 0-15.3-6-15-14 0-6.3 5-11.2 10.8-13 0-6.5 4-12.6 10-15.2z"/><path fill="#00a4b4" stroke="#00a4b4" stroke-width=".1" d="M87 153h17.2c-3.3 5.4-6.7 10.6-9.8 16-1.5-5.7-5.3-10.5-7.4-16z"/><path fill="#d05f2d" stroke="#d05f2d" stroke-width=".1" d="M104.2 153H131l-1.5 2-3 4.3 5.4.7 6.8 1 15.7 2-10 9c-1.4 1.5-3 2.8-4.4 4.2l-12 11-4.4 4c-3 3-6.3 6-9.5 8.8l-24.8 22.8 18-29 10-15.5c1-2 2.3-4 3.5-6l-7.2-1-18.5-2.2h-.6c3-5.4 6.5-10.6 9.8-16z"/><path fill="#00a4b4" stroke="#00a4b4" stroke-width=".1" d="M135 153h17.3l7.5 14.8-1.7 2.7c1 0 2.5.3 3.3.4 3 5.4 5.7 11 8.6 16.7l-.8.3.7 1h-1c-2.2 3.8-4.6 7.4-6.8 11-1.4-.2-3.6.7-4.2-1l-13.4-27 10-9-15.8-2-4-8zM159 153h10c-2 3-3.8 6-5.6 9l-4.5-9z"/><path fill="#d05f2d" stroke="#d05f2d" stroke-width=".1" d="M169 153h21.6l-4.5 6.3h-.3v.6l-2 2.8 4.5.6c5.8.6 11.6 2 17.5 2l.4.2-11.4 10.5c-1.5 1.5-3 2.8-4.4 4L178.4 191l-4.8 4.4-5.3 4.8-14.3 13 8.2-13c2.3-3.6 4.6-7.2 6.8-11h1l-.8-1 .7-.3 3.5-5.6 5.7-9c-3.6-.4-7.3-1-11-1.3l-7-.8-3-.5c.4-1 1-1.8 1.6-2.7 1.2-2 2.3-4 3.6-5.8l5.6-9z"/><path fill="#00a4b4" stroke="#00a4b4" stroke-width=".1" d="M190.6 153h9.8c2 3.6 3.6 7.3 5.6 11l-.3 1.3c-6 0-11.7-1.3-17.5-2l-2-4 4.4-6.3zM207 153c5.8 0 11.6 0 17.3-.2l21.7 43c.7 1.3.7 2.8 1 4-5.4.2-10.7.3-16 0-1.2-.5-1.4-2-2-3-7.3-14.6-14.8-29-22-43.8zM126.4 159.3l3-4.3 2.5 5-5.6-.7zM206 165.6l1.2.6c4.8 10 10 20 14.8 29.7.7 1.2.7 2.6 1 4h-15c-1.7.4-2-1.5-2.7-2.5L194.6 176l11.5-10.4zM95 169c6.2 1 12.4 1.6 18.5 2.4 1.3 2.2 2.5 4.5 3.6 7l-9.7 15.4c-4-8.3-8.3-16.4-12.3-24.7zM168.3 171.7c3.6.4 7.3 1 11 1.3-2 3-4 6-5.8 9l-5.2-10.3zM128 187.2l12-11 12 23.7h-16c-1.6.4-2.2-1.2-2.7-2.2l-5.2-10.6zM178.4 190.8c4-3.6 8-7 11.8-10.7 3.2 6.8 6.5 13.3 9.8 20-5.8-.2-12 .5-17.7-.4-1.2-3-3.4-5.7-4-8.8zM114 200l9.6-8.7 4.5 8.6h-14zM168.3 200l5.3-4.8 2.4 4.7h-7.7z"/></svg>