<svg id="weather tornado night 0" xmlns="http://www.w3.org/2000/svg" version="1" viewBox="0 0 302 340">
  <path fill="#565f67" d="M76 74c21-19 55-21 77-4 6 4 11 9 15 15 7-4 15-6 23-6 13 0 26 7 33 19l4 12c13 2 26 9 33 21 8 11 9 27 3 40-6 12-18 20-31 23-8 2-17 1-25 2l-72-1c-1-1-3-3-5-3h-16c-2 0-3 2-3 4H74c-12 0-25-5-34-14a41 41 0 0 1-12-38c4-16 17-28 33-32-1-14 5-28 15-38m-10 42c0 3 3 4 5 3h93l2-3c-2-2-3-4-5-4H70c-2 0-5 2-4 4m18 16h88l-2-7-73 1H84c-3 1-2 5 0 6m-7 7c-1 1-2 3-1 5s3 1 5 2h69c2 0 5 0 5-3 1-3-2-4-5-4H77m7 14c-2 0-2 3-1 4 1 2 3 2 5 2h46c2 0 5 0 5-3s-3-4-6-4l-49 1m8 13l1 5c5 2 11 1 17 1h35c0-2 1-4-1-6l-4-1H99l-7 1m15 13c-2 1-1 4-2 5 6 2 13 1 19 1h19c4-1 3-6-1-6h-35z"/>
  <g fill="#d96526">
    <path d="M66 116c-1-2 2-4 4-4h91c2 0 3 2 5 4l-2 3H71c-2 1-5 0-5-3zM84 132c-2-1-3-5 0-6h13l73-1 2 7H84zM77 139h73c3 0 6 1 5 4 0 3-3 3-5 3H81c-2-1-4 0-5-2s0-4 1-5zM84 153l49-1c3 0 6 1 6 4s-3 3-5 3H88c-2 0-4 0-5-2-1-1-1-4 1-4zM92 166l7-1h41l4 1c2 2 1 4 1 6h-35c-6 0-12 1-17-1l-1-5zM107 179h35c4 0 5 5 1 6h-19c-6 0-13 1-19-1 1-1 0-4 2-5zM112 196c0-2 1-4 3-4h16c2 0 4 2 5 3-1 2-2 4-4 4h-17c-2 0-3-2-3-3zM111 206h9c3 1 2 3 1 5h-12c0-2-1-4 2-5z"/>
  </g>
</svg>
