<svg id="weather34 night rain 40" width="302pt" height="340" viewBox="0 0 302 255" xmlns="http://www.w3.org/2000/svg"><path fill="#565f67" stroke="#565f67" stroke-width=".1" d="M82.2 27.2c22-16 54.8-14.7 75 3.4 4.2 3.5 7.6 7.7 10.5 12.3 15-9.8 36.3-8.3 49.3 4 5.8 5.5 9.7 13 10.6 20.8 14.2 2 27.8 10 35 22.6 6.8 11.4 7.2 26.3 1 38-7.6 14.4-23.3 23.4-39.3 24.4-5.7.3-11.5 0-17.3.2H86.8c-8-.2-16 .6-23.7-1.2-13.2-2.8-25.5-11.3-31.8-23.4-5.5-10.4-6-23.3-1-34 5.4-12.6 17-21.6 30-25.2-.5-16.5 8.2-32.6 21.7-42M188 85.8c-6 2.6-10.2 8.7-10.2 15.2-5.7 2-10.8 6.7-10.8 13-.3 8 7.4 14 15 14h47c3.7 0 7.6-1 10.6-3.3 4.8-3.4 7-10.2 4.3-15.6-2.2-4.7-7-7.4-11.8-8.4-1-2.8-2-5.6-4.5-7.3-4.3-3.4-10.4-3.4-15-.8-5.3-7.8-16.3-10.7-24.8-6.7z"/><path fill="#aca6a6" stroke="#aca6a6" stroke-width=".1" d="M188 85.8c8.4-4 19.3-1 24.6 6.7 4.7-2.6 10.8-2.6 15 .8 2.5 1.7 3.6 4.5 4.6 7.3 4.8 1 9.6 3.7 11.7 8.5 2.5 5.5.4 12.3-4.4 15.7-3 2.4-7 3.4-10.6 3.3h-47c-7.6 0-15.3-6-15-14 0-6.3 5-11 10.8-13 0-6.5 4.2-12.6 10-15.2z"/><path fill="#00a4b4" stroke="#00a4b4" stroke-width=".1" d="M87 153h17.3c8 15.6 15.7 31.4 23.8 47-5.8-.2-12 .6-17.7-.5-7.8-15.4-15.7-31-23.3-46.4zM111 153h17.3c8 15.6 15.7 31.4 23.8 47-5.8-.2-12 .5-17.7-.4-7.7-15.5-15.7-31-23.3-46.5zM135 153h17.3c8 15.6 15.8 31.3 23.7 47h-17l-.7-.5L135 153zM159 153h17.3c8 15.6 15.8 31.3 23.7 47-5.8-.2-12 .6-17.7-.4L159 153zM183 153h17.4l21.5 42.8c.7 1.2.7 2.7 1 4-5.4.2-10.7.3-16 0-1.2-.5-1.4-2-2-3-7.3-14.6-14.8-29-22-43.8zM207 153c5.8 0 11.6 0 17.3-.2l21.7 43c.7 1.3.7 2.8 1 4-5.4.2-10.8.3-16 0-1.2-.6-1.4-2-2-3-7.3-14.6-14.8-29-22-43.8z"/></svg>