<svg id="weather34 nt_snow 42" width="302pt" height="340" viewBox="0 0 302 255" xmlns="http://www.w3.org/2000/svg"><path fill="#565f67" stroke="#565f67" stroke-width=".1" d="M81 28c21-16 52.7-16 73.6.3 5.2 4 9.6 9 13 14.6 15-9.8 36.4-8.3 49.4 4 5.8 5.4 9.7 13 10.6 20.8 13.7 2 27 9.5 34.3 21.4 6.3 10 7.8 23 3.7 34.3-5 13.8-17.6 24-31.7 27.7-9.4 2.7-19.2 1.6-28.8 1.8-3.2-5-11.5-5.2-14.7 0H149c-3.2-4.6-10-4.3-13.5-.2-12.7.3-25.5.3-38 0-3.5-3.4-9.4-3.5-12.7 0-7.4.2-15 .6-22.2-1.2-13.2-3-25.4-11.6-31.4-24-5.4-10.3-5.6-23.2-.5-34 5.5-12 17.2-21 30-24.4C60 53.2 68.2 37.5 81 28m107.5 57.5c-6.3 2.5-10.6 8.7-10.8 15.5-2.8 1.3-5.7 2.5-7.6 5-3.3 4-4 10-1.4 14.4 2.8 5 8.7 7.8 14.3 7.6h46c4 0 8-1 11.2-3.8 4.6-3.6 6.2-10.5 3.4-15.8-2.2-4.4-6.8-6.8-11.4-8-1-2.7-2.3-5.8-5-7.5-4.3-3.2-10-3-14.6-.6-5.2-7.5-15.7-10.5-24-7m-19 43.3c-6 1.7-8.2 10-3.4 14 4.8 5 14.5 1.3 14.4-5.6.7-5.7-5.8-10.3-11-8.3m-52 1c-5.8 2-7 10.4-2.2 14 4.8 4.5 13.6.8 14-5.6 1-6-6.5-11.4-12-8.4z"/><path fill="#aca6a6" stroke="#aca6a6" stroke-width=".1" d="M188.5 85.5c8.4-3.6 19-.6 24 7 4.7-2.4 10.4-2.7 14.7.4 2.7 1.6 4 4.7 5 7.5 4.6 1.2 9.2 3.5 11.4 8 2.8 5.2 1.2 12-3.4 15.8-3 2.6-7.2 3.8-11.2 3.7h-46c-5.7.2-11.6-2.6-14.4-7.6-2.6-4.5-2-10.5 1.5-14.4 2-2.5 5-3.7 7.7-5 .2-6.8 4.6-13 10.8-15.5z"/><path fill="#00a4b4" stroke="#00a4b4" stroke-width=".1" d="M169.5 128.7c5.3-2 11.8 2.6 11 8.4.2 7-9.5 10.8-14.3 5.8-4.8-4-2.5-12.4 3.3-14zM117.5 129.6c5.4-3 13 2.3 12 8.5-.5 6.5-9.3 10.2-14 5.7-5-3.6-3.7-12 2-14zM190.5 153c3.2-5.2 11.5-5 14.7 0 2.7 5.3-.8 13-7.2 12.7-6.5 1-11.3-7.5-7.5-12.8zM84.8 153c3.3-3.7 9.2-3.6 12.6-.2 3.3 3.5 2.8 9.6-1.2 12.4-3.5 3-9.2 2.2-12-1.5-2.6-3-2.2-8 .6-10.8zM135.5 152.8c3.6-4 10.3-4.4 13.6 0 4.5 5.4-.3 14.2-7 13.7-6.8 0-11-8.6-6.5-13.7zM162.7 157.8c6.5-1.6 12.5 6 9.2 12-2.8 5.6-11.5 6.4-15 1-3.6-4.7 0-12 5.7-13zM110.5 158.6c5-1.7 11 2.2 11 7.4.6 5-4.3 9.5-9.2 9-3-.3-6-2-7.2-5-2-4.5 1-10 5.5-11.4zM131.5 179.6c3.5-1 7.7-.3 9.8 3 3.8 4.8 0 13-6.2 13.2-5 .8-10-4.3-9.2-9.4.5-3 2.7-5.8 5.7-6.8zM185.4 179.7c5-3.4 12.6.2 13 6.2.7 6-6.2 11.3-11.8 8.6-6.4-2-7-11.7-1.2-15zM80.3 180.2c5-2.4 11.7 2.2 11.4 7.8.2 6-7.2 10.6-12.4 7.6-6.3-2.7-5.7-13.5 1-15.4z"/></svg>