<svg id="weather34 hail 10" width="302pt" height="340" viewBox="0 0 302 255" xmlns="http://www.w3.org/2000/svg"><path fill="#e4e3e3" stroke="#e4e3e3" stroke-width=".1" d="M72.8 35.7c12-14 31-21 49.2-19.5 18.3 1 36 11 45.7 26.7 11.5-7.4 26.7-8.5 39-2.8 11 5 19.7 15.5 21 27.6 12.7 1.8 25 8.4 32.6 19 6.7 9 9.3 21 6.7 32.2-2.8 12.5-12 23-23.4 28.6-9.2 4.8-19.7 5.8-30 5.4 2.6-2.6 5.6-5 7.6-8 .5-2.3-3-4.4-4.5-2.4-3.8 3.3-7 7-10.7 10.4h-13c.8-3.4.3-7.2-2-10-3.6-4.4-11-5-15.3-1.4-3.4 2.7-4.7 7.3-3.5 11.4H150c2.6-2.7 5.5-5 7.7-8 0-1.8-1.6-2.7-2.7-3.8-4.6 3.5-8.5 7.8-12.7 11.8h-14.2c2.2-6.6-3.2-14-10-13.8-7-.5-13 7-10.7 13.8h-21c2.5-2.5 5.3-4.6 7.4-7.4 1-2-1.2-3.4-2.7-4.3-4.2 3.7-8.2 7.8-12.2 11.7-11.6.5-23.5-2-33-8.7-9.8-6.6-17-17.3-18.5-29.2-1.2-8.8 1-18.2 5.8-25.8 6.3-10 16.5-17 27.7-20-.5-12.2 4-24.4 12-33.5m116.5 49.6c-6.6 2.3-11.3 8.7-11.5 15.7-2.8 1.3-5.7 2.6-7.7 5-3.3 4-4 10-1.4 14.3 2.8 5 8.7 8 14.3 7.7h47c8 0 16-6.8 15-15-.7-6.7-6.7-11.2-12.8-12.5-1-3-2.5-6.3-5.6-8-4.2-2.7-9.6-2.2-14 0-5-7.4-15-10.5-23.4-7.2z"/><path fill="#aca6a6" stroke="#aca6a6" stroke-width=".1" d="M189.2 85.3c8.3-3.3 18.3-.2 23.4 7 4.4-2 9.8-2.5 14 .2 3 1.7 4.5 5 5.6 8 6.2 1.3 12 5.8 12.7 12.4 1 8.2-7 15-15 15h-47c-5.7.2-11.6-2.6-14.4-7.7-2.6-4.4-2-10.4 1.4-14.3 2-2.4 5-3.7 7.7-5 .2-7 5-13.5 11.5-15.7z"/><path fill="#00a4b4" stroke="#00a4b4" stroke-width=".1" d="M107.3 153c-2.3-6.7 3.6-14.3 10.6-13.8 6.8 0 12.2 7.2 10 13.8-1.5 4.5-6 7.8-11 7.4-4.4-.2-8.3-3.3-9.7-7.4zM175.7 141.6c4.3-3.7 11.7-3 15.3 1.5 2.3 2.8 2.8 6.6 2 10-1.6 4.5-6.2 7.8-11 7.4-4.4-.2-8.3-3.3-9.8-7.4-1.2-4 0-8.7 3.5-11.4zM78.8 153c4-4 8-8 12.2-11.7 1.5 1 3.8 2.2 2.7 4.3-2 2.8-5 5-7.3 7.4-1.8 1.8-3.5 3.7-5.6 5.2-3.3 1.4-5-3.6-2-5.2zM142.3 153c4.2-4 8-8.3 12.7-11.8 1 1 2.7 2 2.7 3.8-2.2 3-5 5.3-7.7 8-2 1.8-3.6 4-6 5.4-3.2.7-4.6-3.8-1.7-5.4zM216.7 142.6c1.6-2 5 0 4.5 2.4-2 3-5 5.4-7.5 8-2 1.8-3.6 3.8-5.8 5.3-3.4 1-5-3.8-2-5.3 3.6-3.4 7-7 10.7-10.4zM75.4 166.6c6.3-3 14.5 1.5 15.2 8.5 1 6-4.5 12-10.6 12-6 .2-11.4-5-11-11 0-4 2.7-7.8 6.4-9.4zM140.4 166.6c6.6-3.2 15.2 2 15.2 9.4.3 6.6-6.4 12-12.8 10.7-6-.8-10.6-7.7-8.4-13.6 1-2.8 3.2-5.2 6-6.4zM210.5 166.7c6.2-3.2 14.6 1.3 15.3 8.3 1 6.6-5.3 12.8-12 11.8-6.2-.3-11.2-7.3-9.2-13.4 1-3 3-5.5 6-6.7zM121.4 168.4c2.2-2.5 6 1.5 3.7 3.7-4 4-7.8 8-12 11.8-2 2-5.5-1.5-3.7-3.5 3.8-4.2 8-8 12-12zM185.2 168.2c2-2 5.7 1.5 3.7 3.6-4 4-8 8-12.3 12-2 2-5.8-1.7-3.6-3.7 4-4 8-8 12.2-11.8z"/></svg>