<svg id="weather34 mostly cloudy 28" width="302pt" height="340" viewBox="0 0 302 255" xmlns="http://www.w3.org/2000/svg"><path fill="#d05f2d" stroke="#d05f2d" stroke-width=".1" d="M52.2 22.2C65.2 13 82.5 10 98 13.5c3.6.7 7 2.2 10.4 3-16.4 2.5-32 12-40.7 26.2-5 8-7.2 17.2-7 26.5C48.3 72.6 37.3 80.7 31.3 92 26 79.4 25.6 65 30 52 33.6 40 41.7 29.3 52 22.2z"/><path fill="#e6e8ef" stroke="#e6e8ef" stroke-width=".1" d="M108.4 16.6C131 13.2 155.7 23 167.7 43c15.2-10 37-8.2 49.8 4.5 5.6 5.4 9.3 12.6 10 20.3 14 2 27.4 9.8 34.8 22 6 10 7.4 22.7 3.4 33.7-6.4 17.8-25.2 29.2-43.7 29.5H74c-17.8 0-36-10-43.5-26.6-5-10.8-4.5-23.8 1-34.4 6-11.3 17-19.4 29-22.8 0-9.3 2.3-18.6 7.2-26.5 8.7-14.3 24.3-23.7 40.7-26m79.5 69c-6 2.7-10.2 8.8-10.2 15.3-5.7 1.8-10.8 6.7-10.8 13-.3 8 7.4 14 15 14h47c9.2.8 18.7-8.2 15.4-17.6-1.7-5.4-7-8.8-12.3-9.8-.7-2.5-1.6-5-3.8-7-4.2-3.6-10.8-3.8-15.6-1-5.2-8-16.3-10.8-24.7-6.8z"/><path fill="#777" stroke="#777" stroke-width=".1" d="M188 85.8c8.3-4 19.4-1.2 24.6 6.7 4.8-2.7 11.4-2.5 15.7 1.2 2 1.8 3 4.4 3.8 7 5.5 1 10.7 4.3 12.4 9.7 3.3 9.4-6.2 18.4-15.4 17.6h-47c-7.6 0-15.3-6-15-14 0-6.3 5-11.2 10.8-13 0-6.5 4-12.6 10-15.2z"/></svg>