<svg id="eather34 mostly clear 34 " width="302pt" height="340" viewBox="0 0 302 255" xmlns="http://www.w3.org/2000/svg"><g fill="#d05f2d"><path d="M147.5 5h8v29.2h-8V5zM102.5 28.6c5.6 5.7 11.5 11 16.8 17-2.2 1.5-3.6 4.8-6.2 5.3L96.7 34.4l6-6zM184.6 45.5l17-17 5.8 6L191 51c-2.7-1-4.2-3.8-6.4-5.5zM118.2 65.2c7-12.2 21-20 35-19 12.2 0 23.8 7 30.6 17.2-7-4.4-16.4-4.6-23 .3-4.4 3-7 8-7 13.3-5.3 1.8-10.2 6-10.7 12-1 7.8 6.3 14.5 13.8 15 9.3.2 18.6 0 28 0-5.5 9-14.5 16-25 18-8.8 2-18.4 1-26.4-3.5-11.2-6-19.3-17.7-20.2-30.4-.7-7.8 1-16 5-22.8zM72 80.5h29.2v8H72v-8zM96.6 133.4c5.7-5.5 11.2-11.3 17-16.8l5.8 6-17 16.8-5.8-6zM190.6 116.6l16.8 17c-2.2 1.5-3.7 4.7-6.3 5.3-5.4-5.5-10.8-11-16.4-16.4l6-6zM147.5 134.8h8V164h-8v-29.2z"/></g><path fill="#e6e8ef" d="M160.7 63.7c6.7-5 16.2-4.8 23-.3 2 1.5 3.5 3.3 4.8 5.2 7-4.7 18.3-.8 19.5 8 6.6 1 13 6.3 13 13.3.3 7.5-6.7 13.6-14 14h-22.3c-9.3 0-18.6.2-27.8 0-7.7-.5-15-7.2-14-15 .6-6 5.5-10.2 10.8-12 0-5.2 2.6-10.3 7-13.3z"/></svg>