<svg id="weather34 nt_fog 22" width="302pt" height="340" viewBox="0 0 302 255" xmlns="http://www.w3.org/2000/svg"><path fill="#f05e40" stroke="#f05e40" stroke-width=".1" d="M57.7 18.8c12-6.3 26.2-8.4 39.4-5.5 4 .7 7.7 2.3 11.5 3.3-16.4 2.4-32 11.8-40.7 26-5 8-7.2 17.3-7 26.6C48.3 72.6 37.3 80.7 31.3 92 26 79.2 25.5 64.3 30 51 35 37.4 45 25.7 57.8 19z"/><path fill="#505153" stroke="#505153" stroke-width=".1" d="M108.4 16.6C131 13 155.7 23 167.7 43 183 33 205 34.7 218 48c5.3 5.3 8.8 12.4 9.6 19.8C242 69.8 256 78 263 91c6.3 11 6.6 25.4.8 36.8C256 143.5 238.4 153 221 153H74c-15.6 0-31.4-7.6-40.2-20.8-8-11.6-9-27.6-2.4-40.2 6-11.3 17-19.4 29.2-22.8 0-9.3 2.2-18.6 7-26.5 8.8-14.3 24.4-23.7 40.8-26M84 66v10.3h132V66H84m0 20.6V97h132V86.5H84m0 20.5v10.4h132V107H84m0 20.8V138h132v-10.3H84z"/><path fill="#00a4b4" stroke="#00a4b4" stroke-width=".1" d="M84 66h132v10.3H84V66zm0 20.6h132V97H84V86.5zm0 20.4h132v10.4H84V107zm0 20.8h132V138H84v-10.3z"/></svg>