<svg id="weather34 trop 2 night" xmlns="http://www.w3.org/2000/svg" version="1" viewBox="0 0 302 340"><g fill="#565f67"><path d="M76 75c13-13 32-18 50-16 17 2 33 12 42 26 15-10 38-8 51 6 5 5 7 12 9 19 10 2 21 7 28 15 8 8 13 19 12 30-1 17-14 32-29 37-7 3-14 4-21 4H81l-16-1c-13-3-26-11-33-22-5-10-7-22-3-33 3-8 9-15 16-20 4-4 10-6 16-8 0-14 5-28 15-37m10 32c-9 5-15 14-18 24-2 9 0 19 6 27 2 4 6 6 9 9-4 2-8 2-12 2-5 0-10-2-15-4 9 11 25 16 39 13 15-3 29-11 36-25l-1 1c3 2 7 5 11 4h26l4 7c3 4 7 5 12 5h47c8 1 16-6 15-14 0-7-6-12-13-13-1-3-2-6-5-8-4-3-10-2-15 0-5-7-13-10-22-8-4-6-12-7-18-4-5-8-17-11-25-6-5 3-8 9-9 15l-4 2c-1-10-8-18-15-24l2-2c8-2 17 0 24 4-6-7-14-12-23-14-13-2-26 2-36 9z"/><path d="M96 125c8-2 16 3 18 10 2 8-5 17-13 17-7 1-14-7-14-14 0-6 4-11 9-13z"/></g><path fill="#d05f2d" d="M86 107c10-7 23-11 36-9 9 2 17 7 23 14-7-4-16-6-24-4l-2 2c7 6 14 14 15 24 1 6-1 13-3 19-7 14-21 22-36 25-14 3-30-2-39-13 5 2 10 4 15 4 4 0 8 0 12-2-3-3-7-5-9-9-6-8-8-18-6-27 3-10 9-19 18-24m10 18c-5 2-9 7-9 13 0 7 7 15 14 14 8 0 15-9 13-17-2-7-10-12-18-10z"/><path fill="#ccc" d="M147 117c8-5 20-2 25 6 6-3 14-2 18 4 9-2 17 1 22 8 5-2 11-3 15 0 3 2 4 5 5 8 7 1 13 6 13 13 1 8-7 15-15 14h-47c-5 0-9-1-12-5l-4-7h-26c-4 1-8-2-11-4l1-1c2-6 4-13 3-19l4-2c1-6 4-12 9-15z"/></svg>