<svg id="weather34 tornado 0" xmlns="http://www.w3.org/2000/svg" version="1" viewBox="0 0 302 340">
  <path fill="#e4e3e3" d="M76 74c21-19 55-21 78-4l14 15c11-7 25-8 37-3 12 4 21 15 23 28 13 2 26 10 34 21 7 11 8 25 3 36-7 17-25 28-43 29h-86c-1-2-2-4-4-4h-17c-2 0-3 2-3 4H74c-13-1-26-6-36-15-9-10-13-24-10-37 4-16 17-28 33-32-1-14 5-28 15-38m-9 39c-2 2-2 6 2 6h91l4-1 2-2c-1-2-3-4-5-4l-94 1m15 16c0 2 2 4 4 3h79c2 0 5 1 6-1 2-2 0-4-2-5H85c-1 0-3 1-3 3m107-2c-5 2-10 7-11 13 0 1 0 3-2 4-4 2-8 5-9 9 0 4-1 7 1 10 4 6 10 8 16 8h44c6 0 12-2 15-7 2-3 3-8 2-12-2-5-7-8-13-9-1-3-2-7-5-8-4-3-9-2-13-1l-3-2c-6-5-14-8-22-5M77 139c-1 1-2 3-1 5s3 1 5 2h71c2 0 4-3 3-5s-3-2-5-2H77m7 13c-2 1-3 5 0 6l5 1h47c2 0 3-3 2-5s-4-2-6-2H84m9 19l4 1h47l2-3c-1-2-2-4-4-4l-47 1c-3 0-3 3-2 5m15 15l33-1c1 1 3 0 4-1 2-3-1-6-4-5h-33c-4 0-3 5 0 7z"/>
  <g fill="#d96526">
    <path d="M67 113l94-1c2 0 4 2 5 4l-2 2-4 1H69c-4 0-4-4-2-6zM82 129c0-2 2-3 3-3h84c2 1 4 3 2 5-1 2-4 1-6 1H86c-2 1-4-1-4-3zM77 139h73c2 0 4 0 5 2s-1 5-3 5H81c-2-1-4 0-5-2s0-4 1-5zM84 152h48c2 0 5 0 6 2s0 5-2 5H89l-5-1c-3-1-2-5 0-6zM93 171c-1-2-1-5 2-5l47-1c2 0 3 2 4 4l-2 3H97l-4-1zM108 186c-3-2-4-7 0-7h33c3-1 6 2 4 5-1 1-3 2-4 1l-33 1zM112 196c0-2 1-4 3-4h17c2 0 3 2 4 4l-3 3h-18c-2 0-3-2-3-3zM111 206h9c3 1 2 3 1 5h-11c-1-2-2-4 1-5z"/>
  </g>
  <path fill="#aca6a6" d="M189 127c8-3 16 0 22 5l3 2c4-1 9-2 13 1 3 1 4 5 5 8 6 1 11 4 13 9 1 4 0 9-2 12-3 5-9 7-15 7h-44c-6 0-12-2-16-8-2-3-1-6-1-10 1-4 5-7 9-9 2-1 2-3 2-4 1-6 6-11 11-13z"/>
</svg>
