<?xml version="1.0" encoding="UTF-8" standalone="no"?>
<svg
   x="0"
   y="0"
   viewBox="0 0 100 100"
   version="1.1"
   id="svg17"
   sodipodi:docname="01nw.svg"
   inkscape:version="1.1 (c4e8f9e, 2021-05-24)"
   xmlns:inkscape="http://www.inkscape.org/namespaces/inkscape"
   xmlns:sodipodi="http://sodipodi.sourceforge.net/DTD/sodipodi-0.dtd"
   xmlns:xlink="http://www.w3.org/1999/xlink"
   xmlns="http://www.w3.org/2000/svg"
   xmlns:svg="http://www.w3.org/2000/svg"
   xmlns:rdf="http://www.w3.org/1999/02/22-rdf-syntax-ns#"
   xmlns:cc="http://creativecommons.org/ns#"
   xmlns:dc="http://purl.org/dc/elements/1.1/">
  <metadata
     id="metadata21">
    <rdf:RDF>
      <cc:Work
         rdf:about="">
        <dc:format>image/svg+xml</dc:format>
        <dc:type
           rdf:resource="http://purl.org/dc/dcmitype/StillImage" />
        <dc:title />
      </cc:Work>
    </rdf:RDF>
  </metadata>
  <sodipodi:namedview
     pagecolor="#ffffff"
     bordercolor="#666666"
     borderopacity="1"
     objecttolerance="10"
     gridtolerance="10"
     guidetolerance="10"
     inkscape:pageopacity="0"
     inkscape:pageshadow="2"
     inkscape:window-width="1909"
     inkscape:window-height="1081"
     id="namedview19"
     showgrid="false"
     inkscape:zoom="8.8"
     inkscape:cx="27.613636"
     inkscape:cy="51.420455"
     inkscape:window-x="0"
     inkscape:window-y="25"
     inkscape:window-maximized="0"
     inkscape:current-layer="svg17"
     inkscape:pagecheckerboard="0" />
  <symbol
     id="moon">
    <path
       d="M28.43,0A28.44,28.44,0,0,1,32.3,14.32,28.61,28.61,0,0,1,3.69,42.93,28.71,28.71,0,0,1,0,42.66,28.59,28.59,0,1,0,28.43,0Z"
       fill="url(#moon-grad)"
       id="path2" />
  </symbol>
  <defs
     id="defs10">
    <linearGradient
       id="moon-grad"
       x1="0%"
       y1="50%"
       x2="100%"
       y2="0%">
      <stop
         offset="0%"
         stop-color="#686e73"
         id="stop5" />
      <stop
         offset="100%"
         stop-color="#6a7075"
         id="stop7" />
    </linearGradient>
  </defs>
  <symbol
     id="s01n">
    <use
       xlink:href="#moon"
       x="0"
       y="0"
       width="100"
       height="100"
       transform="translate(20,20) scale(1,1)"
       id="use12" />
  </symbol>
  <use
     xlink:href="#s01n"
     x="0"
     y="0"
     width="100"
     height="100"
     id="use15" />
  <g
     id="g854"
     transform="matrix(4.125,0,0,4.125,2.8792046,-16.599546)"
     style="fill:#0062bf;fill-opacity:1">
    <path
       fill="#000000"
       fill-rule="evenodd"
       d="m 16,16 a 1,1 0 0 0 -1,1 h -1 a 2,2 0 1 1 2,2 v -1 a 1,1 0 1 0 0,-2 z m 2,10 a 1,1 0 0 1 -1,-1 h -1 a 2,2 0 1 0 2,-2 v 1 a 1,1 0 1 1 0,2 z m 2.5,-7.5 a 1,1 0 0 0 -1,1 h -1 a 2,2 0 1 1 2,2 v -1 a 1,1 0 1 0 0,-2 z"
       clip-rule="evenodd"
       id="path8"
       style="fill:#0062bf;fill-opacity:1" />
    <path
       fill="#000000"
       d="m 9,18 h 7 v 1 H 9 Z m 0,2.5 h 11.5 v 1 H 9 Z M 9,23 h 9 v 1 H 9 Z"
       id="path10"
       style="fill:#0062bf;fill-opacity:1" />
  </g>
</svg>
