<svg id="weather34 trop 2" xmlns="http://www.w3.org/2000/svg" version="1" viewBox="0 0 302 340"><g fill="#e6e8ef"><path d="M93 64c17-8 37-7 53 1 9 5 16 12 22 20 15-10 38-8 51 6 5 5 8 12 9 19 13 2 26 10 34 21 6 11 8 24 3 36-6 17-25 29-44 29H81c-6 0-12 0-17-2-13-2-26-11-32-23-5-8-6-17-4-26 3-16 17-29 33-33a51 51 0 0 1 32-48m2 31c-13 8-22 22-23 37s6 31 19 40v4c-5 0-10 2-15 1-7-1-13-3-20-6l9 9c9 7 21 10 32 10 17 0 34-6 47-18 8-6 13-14 16-24 3-12 2-25-4-36-4-6-10-10-15-15l3-2c11-2 23 0 33 5-9-13-25-19-40-19s-30 5-42 14m83 43c0 2 0 5-2 6-4 2-7 5-9 9v8c2 6 9 10 16 10h45c4 0 9-1 12-4 5-3 6-10 4-15s-7-8-12-9l-4-8c-4-3-10-3-14-1-1 1-2-1-3-2-3-3-7-5-11-6-8-2-19 4-22 12z"/><path d="M110 118c6-1 12-1 16 2 6 3 10 9 10 16-1 6-3 11-8 14-8 7-23 4-27-6-6-9-1-22 9-26z"/></g><path fill="#d05f2d" d="M95 95c12-9 27-14 42-14s31 6 40 19c-10-5-22-7-33-5l-3 2c5 5 11 9 15 15 6 11 7 24 4 36-3 10-8 18-16 24a74 74 0 0 1-47 18c-11 0-23-3-32-10l-9-9c7 3 13 5 20 6 5 1 10-1 15-1v-4c-13-9-20-25-19-40s10-29 23-37m15 23c-10 4-15 17-9 26 4 10 19 13 27 6 5-3 7-8 8-14 0-7-4-13-10-16-4-3-10-3-16-2z"/><path fill="#777" d="M178 138c3-8 14-14 22-12 4 1 8 3 11 6 1 1 2 3 3 2 4-2 10-2 14 1l4 8c5 1 10 4 12 9s1 12-4 15c-3 3-8 4-12 4h-45c-7 0-14-4-16-10v-8c2-4 5-7 9-9 2-1 2-4 2-6z"/></svg>
