<?xml version="1.0" encoding="UTF-8" standalone="no"?>
<svg
   xmlns:dc="http://purl.org/dc/elements/1.1/"
   xmlns:cc="http://creativecommons.org/ns#"
   xmlns:rdf="http://www.w3.org/1999/02/22-rdf-syntax-ns#"
   xmlns:svg="http://www.w3.org/2000/svg"
   xmlns="http://www.w3.org/2000/svg"
   xmlns:sodipodi="http://sodipodi.sourceforge.net/DTD/sodipodi-0.dtd"
   xmlns:inkscape="http://www.inkscape.org/namespaces/inkscape"
   width="9.4660034mm"
   height="7.7955327mm"
   viewBox="0 0 9.4660034 7.7955327"
   version="1.1"
   id="svg86"
   inkscape:version="1.0.2 (e86c8708, 2021-01-15)"
   sodipodi:docname="coastal_y.svg">
  <defs
     id="defs80" />
  <sodipodi:namedview
     id="base"
     pagecolor="#ffffff"
     bordercolor="#666666"
     borderopacity="1.0"
     inkscape:pageopacity="0.0"
     inkscape:pageshadow="2"
     inkscape:zoom="10.397736"
     inkscape:cx="-0.62513566"
     inkscape:cy="14.731715"
     inkscape:document-units="mm"
     inkscape:current-layer="layer1"
     inkscape:document-rotation="0"
     showgrid="true"
     inkscape:window-width="1920"
     inkscape:window-height="1056"
     inkscape:window-x="0"
     inkscape:window-y="24"
     inkscape:window-maximized="0">
    <inkscape:grid
       type="xygrid"
       id="grid2589" />
  </sodipodi:namedview>
  <metadata
     id="metadata83">
    <rdf:RDF>
      <cc:Work
         rdf:about="">
        <dc:format>image/svg+xml</dc:format>
        <dc:type
           rdf:resource="http://purl.org/dc/dcmitype/StillImage" />
        <dc:title></dc:title>
      </cc:Work>
    </rdf:RDF>
  </metadata>
  <g
     inkscape:label="Layer 1"
     inkscape:groupmode="layer"
     id="layer1"
     transform="translate(-11.141998,-1.3325924)">
    <path
       fill="#ff9900"
       stroke="#000000"
       stroke-miterlimit="10"
       d="m 11.406581,9.0055091 4.497917,-7.4083334 4.497916,7.4083334 z"
       id="path4"
       style="fill:#ffff00;stroke-width:0.264583;fill-opacity:1" />
    <g
       id="g16"
       transform="matrix(0.01322917,0,0,0.01322917,8.2183279,-2.1202235)" />
    <g
       id="g18"
       transform="matrix(0.01322917,0,0,0.01322917,8.2183279,-2.1202235)" />
    <g
       id="g20"
       transform="matrix(0.01322917,0,0,0.01322917,8.2183279,-2.1202235)" />
    <g
       id="g22"
       transform="matrix(0.01322917,0,0,0.01322917,8.2183279,-2.1202235)" />
    <g
       id="g24"
       transform="matrix(0.01322917,0,0,0.01322917,8.2183279,-2.1202235)" />
    <g
       id="g26"
       transform="matrix(0.01322917,0,0,0.01322917,8.2183279,-2.1202235)" />
    <g
       id="g28"
       transform="matrix(0.01322917,0,0,0.01322917,8.2183279,-2.1202235)" />
    <g
       id="g30"
       transform="matrix(0.01322917,0,0,0.01322917,8.2183279,-2.1202235)" />
    <g
       id="g32"
       transform="matrix(0.01322917,0,0,0.01322917,8.2183279,-2.1202235)" />
    <g
       id="g34"
       transform="matrix(0.01322917,0,0,0.01322917,8.2183279,-2.1202235)" />
    <g
       id="g36"
       transform="matrix(0.01322917,0,0,0.01322917,8.2183279,-2.1202235)" />
    <g
       id="g38"
       transform="matrix(0.01322917,0,0,0.01322917,8.2183279,-2.1202235)" />
    <g
       id="g40"
       transform="matrix(0.01322917,0,0,0.01322917,8.2183279,-2.1202235)" />
    <g
       id="g42"
       transform="matrix(0.01322917,0,0,0.01322917,8.2183279,-2.1202235)" />
    <g
       id="g44"
       transform="matrix(0.01322917,0,0,0.01322917,8.2183279,-2.1202235)" />
    <g
       id="g835"
       transform="matrix(0.0396673,0,0,0.0396673,13.508091,5.4317131)">
      <path
         d="m 13.55,38.63 c -1.09,0.06 -2.02,-0.78 -2.08,-1.88 -0.06,-1.09 0.78,-2.02 1.88,-2.08 2.74,-0.15 5.01,-0.98 6.89,-2.39 1.92,-1.44 3.48,-3.52 4.75,-6.12 0.48,-0.99 1.67,-1.4 2.65,-0.92 0.46,0.23 0.8,0.61 0.98,1.05 1.65,3.27 4.23,5.63 7.14,6.91 1.65,0.73 3.4,1.11 5.13,1.11 0.83,0 1.66,-0.09 2.48,-0.27 -0.02,-0.09 -0.03,-0.19 -0.03,-0.28 0.02,-6.32 1.35,-12.1 4.23,-17.21 2.88,-5.11 7.3,-9.55 13.5,-13.2 0.02,-0.01 0.04,-0.02 0.06,-0.03 v 0 C 63.2,2.23 65.18,1.44 67.05,0.9 69.07,0.32 70.99,0.04 72.77,0 c 3.85,-0.08 7.04,1.02 9.35,2.79 1.72,1.32 2.96,3 3.64,4.86 0.68,1.88 0.79,3.92 0.23,5.92 -0.65,2.34 -2.19,4.59 -4.75,6.42 -1.41,1.01 -3.09,1.66 -4.8,1.82 -1.39,0.14 -2.81,-0.05 -4.12,-0.61 -1.32,-0.56 -2.53,-1.5 -3.51,-2.85 -1.13,-1.58 -1.94,-3.74 -2.21,-6.56 -0.08,-0.82 0.52,-1.54 1.34,-1.62 0.82,-0.08 1.54,0.52 1.62,1.34 0.22,2.25 0.83,3.92 1.68,5.11 0.64,0.89 1.41,1.5 2.25,1.85 0.84,0.36 1.76,0.48 2.68,0.39 1.17,-0.11 2.34,-0.57 3.34,-1.29 1.97,-1.41 3.14,-3.09 3.62,-4.8 0.39,-1.39 0.31,-2.81 -0.16,-4.11 -0.48,-1.33 -1.39,-2.54 -2.65,-3.51 -19.86,-10.78 -31.3,23.78 -7,26.79 1.89,-1.41 3.8,-3.37 5.68,-5.9 0.65,-0.88 1.89,-1.06 2.77,-0.41 0.28,0.21 0.49,0.48 0.63,0.78 v 0 c 1.47,3.25 3.69,5.56 6.23,6.84 1.47,0.74 3.05,1.14 4.64,1.17 1.6,0.03 3.23,-0.3 4.81,-1.01 2.87,-1.3 5.55,-3.86 7.54,-7.82 0.49,-0.98 1.68,-1.37 2.66,-0.88 0.45,0.23 0.78,0.61 0.95,1.05 v 0 c 1.27,3.24 2.85,5.63 4.78,7.07 1.8,1.35 3.98,1.87 6.59,1.49 1.08,-0.16 2.09,0.59 2.25,1.68 0.16,1.08 -0.59,2.09 -1.68,2.25 -3.71,0.55 -6.87,-0.25 -9.54,-2.25 -1.73,-1.29 -3.21,-3.08 -4.46,-5.32 -2.14,3.01 -4.72,5.1 -7.47,6.34 -2.12,0.96 -4.33,1.4 -6.52,1.35 -2.2,-0.05 -4.35,-0.59 -6.35,-1.59 -2.53,-1.27 -4.8,-3.29 -6.57,-6.01 -2.29,2.64 -4.63,4.6 -6.97,5.89 -2.58,1.42 -5.17,2.05 -7.7,1.91 -2.55,-0.14 -4.99,-1.07 -7.24,-2.74 -1.6,-1.19 -3.1,-2.76 -4.49,-4.7 -1.73,2.57 -3.9,4.42 -6.29,5.59 -2.13,1.05 -4.42,1.55 -6.72,1.55 -2.29,0 -4.58,-0.49 -6.72,-1.43 -2.79,-1.23 -5.34,-3.23 -7.32,-5.92 -1.2,1.79 -2.6,3.31 -4.21,4.52 -2.5,1.89 -5.49,2.99 -9.05,3.19 z M 2.08,59.05 C 0.99,59.11 0.06,58.27 0,57.17 -0.06,56.08 0.78,55.15 1.88,55.09 4.62,54.94 6.89,54.11 8.77,52.7 c 1.92,-1.44 3.48,-3.52 4.75,-6.12 0.48,-0.99 1.67,-1.4 2.65,-0.92 0.46,0.23 0.8,0.61 0.98,1.05 1.65,3.27 4.23,5.63 7.14,6.91 1.65,0.73 3.4,1.11 5.13,1.11 1.71,0 3.41,-0.37 4.98,-1.15 2.45,-1.21 4.63,-3.42 6.1,-6.75 0.44,-1 1.61,-1.46 2.61,-1.02 0.43,0.19 0.76,0.51 0.96,0.9 1.57,2.83 3.32,4.95 5.2,6.35 1.62,1.21 3.34,1.87 5.1,1.97 1.78,0.1 3.66,-0.37 5.58,-1.43 2.51,-1.39 5.08,-3.76 7.61,-7.15 0.65,-0.88 1.89,-1.06 2.77,-0.41 0.28,0.21 0.49,0.48 0.63,0.78 v 0 c 1.47,3.25 3.69,5.56 6.23,6.84 1.47,0.74 3.05,1.14 4.64,1.17 1.6,0.03 3.23,-0.3 4.81,-1.01 2.87,-1.3 5.55,-3.86 7.54,-7.82 0.49,-0.98 1.68,-1.37 2.66,-0.88 0.45,0.23 0.78,0.61 0.95,1.05 v 0 c 1.27,3.24 2.85,5.63 4.78,7.07 1.8,1.35 3.98,1.87 6.59,1.49 1.08,-0.16 2.09,0.59 2.25,1.68 0.16,1.08 -0.59,2.09 -1.68,2.25 -3.71,0.55 -6.87,-0.25 -9.54,-2.25 -1.73,-1.29 -3.21,-3.08 -4.46,-5.32 -2.14,3.01 -4.72,5.1 -7.47,6.34 -2.12,0.96 -4.33,1.4 -6.52,1.35 -2.2,-0.05 -4.35,-0.59 -6.35,-1.59 -2.53,-1.27 -4.8,-3.29 -6.57,-6.01 -2.29,2.64 -4.63,4.6 -6.97,5.89 -2.58,1.42 -5.17,2.05 -7.7,1.91 -2.55,-0.14 -4.99,-1.07 -7.24,-2.74 -1.6,-1.19 -3.1,-2.76 -4.49,-4.7 -1.73,2.57 -3.9,4.42 -6.29,5.59 -2.13,1.06 -4.43,1.57 -6.73,1.57 -2.29,0 -4.58,-0.49 -6.72,-1.43 -2.79,-1.23 -5.34,-3.23 -7.32,-5.92 -1.2,1.79 -2.6,3.31 -4.21,4.52 -2.52,1.88 -5.51,2.99 -9.07,3.18 z"
         id="path833" />
    </g>
  </g>
</svg>
