<?xml version="1.0" encoding="UTF-8" standalone="no"?>
<svg
   xmlns:dc="http://purl.org/dc/elements/1.1/"
   xmlns:cc="http://creativecommons.org/ns#"
   xmlns:rdf="http://www.w3.org/1999/02/22-rdf-syntax-ns#"
   xmlns:svg="http://www.w3.org/2000/svg"
   xmlns="http://www.w3.org/2000/svg"
   xmlns:sodipodi="http://sodipodi.sourceforge.net/DTD/sodipodi-0.dtd"
   xmlns:inkscape="http://www.inkscape.org/namespaces/inkscape"
   width="9.4660034mm"
   height="7.7955327mm"
   viewBox="0 0 9.4660034 7.7955327"
   version="1.1"
   id="svg86"
   inkscape:version="1.0.1 (3bc2e813f5, 2020-09-07)"
   sodipodi:docname="flood_r.svg">
  <defs
     id="defs80" />
  <sodipodi:namedview
     id="base"
     pagecolor="#ffffff"
     bordercolor="#666666"
     borderopacity="1.0"
     inkscape:pageopacity="0.0"
     inkscape:pageshadow="2"
     inkscape:zoom="10.397736"
     inkscape:cx="17.88851"
     inkscape:cy="14.731715"
     inkscape:document-units="mm"
     inkscape:current-layer="g1529"
     inkscape:document-rotation="0"
     showgrid="true"
     inkscape:window-width="1431"
     inkscape:window-height="1033"
     inkscape:window-x="128"
     inkscape:window-y="0"
     inkscape:window-maximized="0">
    <inkscape:grid
       type="xygrid"
       id="grid2589" />
  </sodipodi:namedview>
  <metadata
     id="metadata83">
    <rdf:RDF>
      <cc:Work
         rdf:about="">
        <dc:format>image/svg+xml</dc:format>
        <dc:type
           rdf:resource="http://purl.org/dc/dcmitype/StillImage" />
        <dc:title></dc:title>
      </cc:Work>
    </rdf:RDF>
  </metadata>
  <g
     inkscape:label="Layer 1"
     inkscape:groupmode="layer"
     id="layer1"
     transform="translate(-11.141998,-1.3325924)">
    <g
       id="g16"
       transform="matrix(0.01322917,0,0,0.01322917,8.2183279,-2.1202235)" />
    <g
       id="g18"
       transform="matrix(0.01322917,0,0,0.01322917,8.2183279,-2.1202235)" />
    <g
       id="g20"
       transform="matrix(0.01322917,0,0,0.01322917,8.2183279,-2.1202235)" />
    <g
       id="g22"
       transform="matrix(0.01322917,0,0,0.01322917,8.2183279,-2.1202235)" />
    <g
       id="g24"
       transform="matrix(0.01322917,0,0,0.01322917,8.2183279,-2.1202235)" />
    <g
       id="g26"
       transform="matrix(0.01322917,0,0,0.01322917,8.2183279,-2.1202235)" />
    <g
       id="g28"
       transform="matrix(0.01322917,0,0,0.01322917,8.2183279,-2.1202235)" />
    <g
       id="g30"
       transform="matrix(0.01322917,0,0,0.01322917,8.2183279,-2.1202235)" />
    <g
       id="g32"
       transform="matrix(0.01322917,0,0,0.01322917,8.2183279,-2.1202235)" />
    <g
       id="g34"
       transform="matrix(0.01322917,0,0,0.01322917,8.2183279,-2.1202235)" />
    <g
       id="g36"
       transform="matrix(0.01322917,0,0,0.01322917,8.2183279,-2.1202235)" />
    <g
       id="g38"
       transform="matrix(0.01322917,0,0,0.01322917,8.2183279,-2.1202235)" />
    <g
       id="g40"
       transform="matrix(0.01322917,0,0,0.01322917,8.2183279,-2.1202235)" />
    <g
       id="g42"
       transform="matrix(0.01322917,0,0,0.01322917,8.2183279,-2.1202235)" />
    <g
       id="g44"
       transform="matrix(0.01322917,0,0,0.01322917,8.2183279,-2.1202235)" />
    <g
       id="g1529"
       transform="translate(-0.52916667)">
      <path
         fill="#ff9900"
         stroke="#000000"
         stroke-miterlimit="10"
         d="m 11.935748,9.0055091 4.497917,-7.4083334 4.497916,7.4083334 z"
         id="path4"
         style="fill:#ff0000;stroke-width:0.264583" />
      <g
         id="g10"
         transform="matrix(0.01322917,0,0,0.01322917,14.449287,9.8365519)">
        <polygon
           style="fill:#ffffff"
           points="0.332,199.174 0.333,199.174 "
           id="polygon2" />
        <polygon
           style="fill:#ffffff"
           points="296.334,199.174 296.333,199.174 "
           id="polygon4" />
        <polygon
           style="fill:#ffffff"
           points="296.333,235.053 296.334,235.053 "
           id="polygon6" />
        <polygon
           style="fill:#ffffff"
           points="0.332,235.053 0.333,235.053 "
           id="polygon8" />
      </g>
      <path
         d="m 17.845387,7.3243292 c 0.213945,0 0.323421,-0.07181 0.421109,-0.13516 0.08413,-0.05457 0.148897,-0.09767 0.294418,-0.09767 V 6.8586625 c -0.218282,0 -0.322227,0.07181 -0.419915,0.13516 -0.08413,0.05457 -0.149363,0.09767 -0.294404,0.09767 -0.145055,0 -0.213333,-0.0431 -0.297459,-0.09767 -0.02024,-0.01311 -0.03597,-0.02659 -0.06508,-0.03971 V 6.3470398 h 0.543288 L 16.418686,4.5852907 15.75236,5.3058964 v -0.16668 h -0.42201 v 0.6244887 l -0.533625,0.5833347 h 0.519073 v 0.6157427 c -0.01455,0.01035 -0.03065,0.02081 -0.04645,0.03105 -0.08413,0.05457 -0.149348,0.09767 -0.294374,0.09767 -0.145012,0 -0.213275,-0.0431 -0.297372,-0.09767 -0.09767,-0.06337 -0.205825,-0.135175 -0.424106,-0.135175 v 0.2328337 c 0.145521,0 0.213872,0.0431 0.297998,0.09767 0.09766,0.06336 0.207134,0.13516 0.42105,0.13516 0.159971,0 0.270494,-0.04016 0.343255,-0.08692 v 0.247473 c -0.01455,0.01035 -0.03065,0.02081 -0.04645,0.03105 -0.08413,0.05457 -0.149348,0.09767 -0.294374,0.09767 -0.145012,0 -0.213275,-0.0431 -0.297372,-0.09767 -0.09768,-0.06336 -0.205827,-0.13516 -0.424108,-0.13516 v 0.2328337 c 0.145521,0 0.213872,0.0431 0.297998,0.09767 0.09766,0.06336 0.209564,0.13516 0.42348,0.13516 0.213916,0 0.325225,-0.07181 0.422898,-0.13516 0.08411,-0.05457 0.150876,-0.09767 0.295873,-0.09767 0.145027,0 0.211631,0.0431 0.295757,0.09767 0.09767,0.06336 0.208459,0.13516 0.422375,0.13516 0.213915,0 0.324657,-0.07181 0.42233,-0.13516 0.08411,-0.05457 0.150585,-0.09767 0.295597,-0.09767 0.145041,0 0.211515,0.0431 0.29564,0.09767 0.09769,0.06336 0.208415,0.13516 0.42236,0.13516 0.213945,0 0.322212,-0.07181 0.419901,-0.13516 0.08413,-0.05457 0.147689,-0.09767 0.29321,-0.09767 V 7.3807682 c -0.218282,0 -0.322227,0.07182 -0.419915,0.13516 -0.08413,0.05457 -0.149363,0.09767 -0.294404,0.09767 -0.145055,0 -0.213333,-0.0431 -0.297459,-0.09767 -0.02024,-0.01311 -0.03597,-0.02659 -0.06508,-0.03973 v -0.247211 c 0.08731,0.05022 0.191811,0.09533 0.361328,0.09533 z M 16.40719,6.5693525 c 0.184739,0 0.334712,0.149755 0.334712,0.334465 v 0.0649 c -0.01455,0.0084 -0.02401,0.01681 -0.03679,0.0251 -0.08413,0.05457 -0.149348,0.09767 -0.294375,0.09767 -0.145026,0 -0.213275,-0.0431 -0.297401,-0.09767 -0.0127,-0.0082 -0.02628,-0.01663 -0.04083,-0.02499 v -0.06502 c 0,-0.18471 0.149974,-0.334465 0.334684,-0.334464 z m 0.297925,0.9465837 c -0.08413,0.05457 -0.149348,0.09767 -0.294375,0.09767 -0.145026,0 -0.213275,-0.0431 -0.297401,-0.09767 -0.0127,-0.0082 -0.02628,-0.01663 -0.04083,-0.02499 v -0.248113 c 0.08731,0.04437 0.180897,0.08149 0.334596,0.08149 0.153831,0 0.26204,-0.03718 0.3348,-0.08159 v 0.248113 c -0.01455,0.0084 -0.02401,0.01681 -0.03679,0.02509 z"
         id="path12"
         style="fill:none;fill-opacity:1;stroke:#000000;stroke-width:0.174625;stroke-miterlimit:4;stroke-dasharray:none;stroke-opacity:1" />
    </g>
  </g>
</svg>
