<?xml version="1.0" encoding="UTF-8" standalone="no"?>
<svg
   xmlns:dc="http://purl.org/dc/elements/1.1/"
   xmlns:cc="http://creativecommons.org/ns#"
   xmlns:rdf="http://www.w3.org/1999/02/22-rdf-syntax-ns#"
   xmlns:svg="http://www.w3.org/2000/svg"
   xmlns="http://www.w3.org/2000/svg"
   xmlns:sodipodi="http://sodipodi.sourceforge.net/DTD/sodipodi-0.dtd"
   xmlns:inkscape="http://www.inkscape.org/namespaces/inkscape"
   width="9.4660034mm"
   height="7.7955327mm"
   viewBox="0 0 9.4660034 7.7955327"
   version="1.1"
   id="svg86"
   inkscape:version="1.0.1 (3bc2e813f5, 2020-09-07)"
   sodipodi:docname="fire_y.svg">
  <defs
     id="defs80" />
  <sodipodi:namedview
     id="base"
     pagecolor="#ffffff"
     bordercolor="#666666"
     borderopacity="1.0"
     inkscape:pageopacity="0.0"
     inkscape:pageshadow="2"
     inkscape:zoom="10.397736"
     inkscape:cx="17.88851"
     inkscape:cy="14.731715"
     inkscape:document-units="mm"
     inkscape:current-layer="layer1"
     inkscape:document-rotation="0"
     showgrid="true"
     inkscape:window-width="1431"
     inkscape:window-height="1033"
     inkscape:window-x="128"
     inkscape:window-y="0"
     inkscape:window-maximized="1">
    <inkscape:grid
       type="xygrid"
       id="grid2589" />
  </sodipodi:namedview>
  <metadata
     id="metadata83">
    <rdf:RDF>
      <cc:Work
         rdf:about="">
        <dc:format>image/svg+xml</dc:format>
        <dc:type
           rdf:resource="http://purl.org/dc/dcmitype/StillImage" />
        <dc:title></dc:title>
      </cc:Work>
    </rdf:RDF>
  </metadata>
  <g
     inkscape:label="Layer 1"
     inkscape:groupmode="layer"
     id="layer1"
     transform="translate(-11.141998,-1.3325924)">
    <path
       fill="#ff9900"
       stroke="#000000"
       stroke-miterlimit="10"
       d="m 11.406581,9.0055091 4.497917,-7.4083334 4.497916,7.4083334 z"
       id="path4"
       style="fill:#ffe923;stroke-width:0.264583;fill-opacity:1" />
    <g
       id="g16"
       transform="matrix(0.01322917,0,0,0.01322917,8.2183279,-2.1202235)" />
    <g
       id="g18"
       transform="matrix(0.01322917,0,0,0.01322917,8.2183279,-2.1202235)" />
    <g
       id="g20"
       transform="matrix(0.01322917,0,0,0.01322917,8.2183279,-2.1202235)" />
    <g
       id="g22"
       transform="matrix(0.01322917,0,0,0.01322917,8.2183279,-2.1202235)" />
    <g
       id="g24"
       transform="matrix(0.01322917,0,0,0.01322917,8.2183279,-2.1202235)" />
    <g
       id="g26"
       transform="matrix(0.01322917,0,0,0.01322917,8.2183279,-2.1202235)" />
    <g
       id="g28"
       transform="matrix(0.01322917,0,0,0.01322917,8.2183279,-2.1202235)" />
    <g
       id="g30"
       transform="matrix(0.01322917,0,0,0.01322917,8.2183279,-2.1202235)" />
    <g
       id="g32"
       transform="matrix(0.01322917,0,0,0.01322917,8.2183279,-2.1202235)" />
    <g
       id="g34"
       transform="matrix(0.01322917,0,0,0.01322917,8.2183279,-2.1202235)" />
    <g
       id="g36"
       transform="matrix(0.01322917,0,0,0.01322917,8.2183279,-2.1202235)" />
    <g
       id="g38"
       transform="matrix(0.01322917,0,0,0.01322917,8.2183279,-2.1202235)" />
    <g
       id="g40"
       transform="matrix(0.01322917,0,0,0.01322917,8.2183279,-2.1202235)" />
    <g
       id="g42"
       transform="matrix(0.01322917,0,0,0.01322917,8.2183279,-2.1202235)" />
    <g
       id="g44"
       transform="matrix(0.01322917,0,0,0.01322917,8.2183279,-2.1202235)" />
    <g
       id="g10"
       transform="matrix(0.00800364,0,0,0.00800364,14.719721,4.7503402)">
      <g
         id="g6">
        <path
           d="M 226.494,111.653 208.471,97.62 c -1.003,-0.826 -1.114,-2.217 -1.114,-2.326 V 62.929 c 0,-6.341 -5.159,-11.5 -11.5,-11.5 h -21.353 c -5.245,0 -9.672,3.533 -11.045,8.344 -0.227,0.793 -0.741,2.396 -2.418,0.918 L 122.994,31.067 c -2.149,-1.674 -4.906,-2.596 -7.763,-2.596 -2.856,0 -5.613,0.922 -7.764,2.596 L 3.971,111.653 c -4.075,3.172 -4.501,7.291 -3.54,10.089 0.96,2.797 3.826,5.786 8.991,5.786 h 7.9 c 0,0 2.596,-0.234 2.596,2.266 0,23.374 0,93.495 0,93.495 0,6.341 5.159,11.5 11.5,11.5 h 57.8 c 6.341,0 11.5,-5.159 11.5,-11.5 v -25.974 c 0,-2.29 -0.063,-5.994 -0.143,-8.257 -0.002,-0.063 -0.047,-6.581 3.813,-10.576 2.264,-2.344 5.587,-3.482 10.159,-3.482 14.07,0 15.229,10.937 15.249,14.222 -0.028,2.227 -0.051,5.868 -0.051,8.094 v 25.974 c 0,6.341 5.159,11.5 11.5,11.5 h 57.799 c 6.341,0 11.5,-5.159 11.5,-11.5 0,0 0,-70.402 0,-93.87 0,-1.938 1.985,-1.891 1.985,-1.891 h 8.512 c 5.165,0 8.031,-2.989 8.991,-5.786 0.963,-2.799 0.537,-6.918 -3.538,-10.09 z M 178.005,67.856 c 0,-1.688 1.715,-1.427 1.715,-1.427 h 11.354 c 0,0 1.284,-0.178 1.284,1.364 0,4.319 0,11.344 0,15.125 0,2.042 -1.547,0.949 -1.547,0.949 l -12.412,-9.663 c -0.492,-0.494 -0.332,-1.926 -0.394,-2.161 0,10e-4 0,-3.14 0,-4.187 z m 17.541,56.172 v 91.891 c 0,0 0.61,3.87 -4.14,3.87 -10.594,0 -30.746,0 -42.375,0 -5,0 -4.284,-4.37 -4.284,-4.37 v -18.104 c 0,-2.175 0.023,-5.732 0.049,-7.907 0.017,-1.278 -0.086,-12.728 -8.426,-21.171 -5.399,-5.466 -12.741,-8.237 -21.821,-8.237 -10.877,0 -17.395,4.383 -20.947,8.061 -8.219,8.507 -8.062,20.209 -8.016,21.517 0.072,2.084 0.133,5.628 0.133,7.738 v 17.979 c 0,0 0.438,4.495 -5.313,4.495 -10.219,0 -29.328,0 -40.875,0 -5.125,0 -4.612,-4.37 -4.612,-4.37 v -91.391 c 0,-4.158 -2.218,-7.808 -5.532,-9.828 -0.843,-0.514 -2.355,-1.031 0.129,-3.426 L 111.38,47.034 c 0,0 2.276,-2.072 3.853,-2.072 1.736,0 3.893,2.102 3.893,2.102 l 49.929,38.876 v 0 l 0.467,0.363 32.018,24.93 c 1.951,1.395 0.523,2.393 -0.265,2.852 -3.424,1.994 -5.729,5.704 -5.729,9.943 z"
           id="path2" />
        <path
           d="m 123.625,65.7 c -4.797,-3.563 -12.016,-3.548 -16.795,0.034 l -60.952,45.673 c -2.652,1.987 -3.191,5.748 -1.204,8.399 1.988,2.652 5.747,3.192 8.399,1.204 l 60.953,-45.674 c 0.514,-0.383 1.928,-0.387 2.441,-0.004 l 61.504,45.692 c 1.075,0.799 2.329,1.184 3.573,1.184 1.833,0 3.643,-0.837 4.821,-2.422 1.977,-2.66 1.422,-6.418 -1.238,-8.395 z"
           id="path4-1" />
      </g>
      <path
         d="m 420.962,290.641 c -3.684,-12.76 -8.901,-23.439 -13.364,-31.139 -0.469,-0.81 -1.441,-2.33 1.184,-2.33 h 10.88 c 4.399,0 5.635,-2.714 2.744,-6.031 l -53.666,-61.59 c -2.892,-3.317 -1.655,-6.031 2.744,-6.031 H 390.4 c 4.4,0 5.765,-2.822 3.033,-6.271 L 318.859,83.066 c -2.732,-3.449 -7.201,-3.449 -9.934,0 l -74.576,94.183 c -2.73,3.449 -1.365,6.271 3.034,6.271 h 18.918 c 4.399,0 5.635,2.714 2.744,6.031 l -53.667,61.59 c -2.891,3.317 -1.656,6.031 2.744,6.031 h 39.431 c 4.399,0 5.392,2.482 2.204,5.515 l -74.145,70.558 c -3.188,3.033 -2.195,5.515 2.205,5.515 h 75.588 c 2.583,0 2.938,1.648 3.008,2.464 1.816,20.912 14.958,37.721 41.302,53.854 1.335,0.817 2.847,1.25 4.372,1.25 h 0.002 c 2.715,0 5.282,-1.364 6.867,-3.649 1.634,-2.355 2.005,-5.377 0.992,-8.08 -5.881,-15.708 2.608,-25.266 11.596,-35.385 1.143,-1.286 2.268,-2.554 3.344,-3.813 13.557,-15.859 21.262,-26.709 23.76,-38.939 0.274,-1.344 2.484,-1.098 3.481,0.737 9.707,17.867 23.152,55.976 15.867,79.761 -0.72,2.353 -0.31,4.814 1.124,6.755 1.49,2.015 3.95,3.219 6.578,3.219 1.67,0 3.31,-0.476 4.742,-1.379 21.675,-13.646 35.695,-30.991 41.673,-51.554 4.745,-16.319 4.357,-34.271 -1.151,-53.36 z m -215.331,30.605 74.145,-70.558 c 3.188,-3.033 2.195,-5.515 -2.204,-5.515 h -43.075 c -4.4,0 -5.635,-2.714 -2.744,-6.031 l 53.667,-61.59 c 2.891,-3.317 1.655,-6.031 -2.744,-6.031 h -20.482 c -4.399,0 -5.765,-2.822 -3.034,-6.271 l 49.768,-62.853 c 2.732,-3.449 7.201,-3.449 9.934,10e-4 l 49.766,62.852 c 2.732,3.449 1.367,6.271 -3.033,6.271 H 345.11 c -4.399,0 -5.635,2.714 -2.745,6.031 l 53.667,61.59 c 2.143,2.458 2.615,4.582 1.474,5.518 -5.331,-6.321 -7.932,-6.328 -9.248,-6.328 -2.037,0 -3.954,0.983 -5.129,2.631 -1.335,1.871 -1.55,4.159 -0.64,6.802 0.444,1.288 0.167,3.612 -0.83,1.498 -3.67,-11.886 -10.901,-20.917 -18.061,-28.468 -14.898,-15.709 -33.999,-25.097 -43.858,-25.097 -5.427,0 -7.871,2.696 -8.846,4.304 -1.204,1.986 -2.119,5.352 0.36,10.102 6.935,13.29 -2.89,45.518 -11.679,65.564 -0.731,1.375 -1.477,0.21 -1.646,-0.824 -1.319,-8.017 -3.479,-15.651 -5.878,-18.421 -1.878,-2.169 -4.075,-2.493 -5.218,-2.493 -2.227,0 -6.127,1.031 -7.205,7.85 -0.313,1.427 -2.843,7.357 -5.074,12.588 -5.482,12.849 -13.767,32.267 -16.723,46.573 -0.187,0.9 -0.356,1.793 -0.51,2.679 -0.185,1.057 0.002,3.141 -2.998,3.141 h -46.487 c -4.401,-0.001 -5.393,-2.482 -2.205,-5.515 z m 207.717,1.714 c -0.702,21.61 -10.575,39.619 -28.512,54.749 -1.681,1.418 -3.073,-0.307 -3.002,-1.794 1.403,-29.328 -13.224,-67.594 -24.114,-82.319 -2.455,-3.32 -6.288,-7.734 -11.203,-7.734 -2.576,0 -8.609,1.228 -8.982,12.603 -0.361,11.031 -5.244,19.811 -21.768,39.14 -1.027,1.202 -2.104,2.412 -3.194,3.641 -7.381,8.31 -16.903,19.029 -16.584,34.13 0.031,1.462 -0.416,3.836 -3.362,1.811 -24.965,-17.159 -26.949,-34.907 -23.044,-53.817 2.713,-13.13 10.176,-30.621 15.47,-43.03 0.21,-0.49 1.354,-1.107 1.788,1.935 0.57,3.993 0.635,7.804 0.264,10.371 -0.439,3.045 -0.558,6.195 1.538,8.611 1.239,1.428 3.028,2.246 4.912,2.246 h 0.01 c 4.227,-0.006 6.847,-3.75 9.166,-7.583 8.685,-14.352 25.843,-56.881 22.023,-82.05 -0.297,-1.954 0.652,-5.492 5.328,-3.009 6.878,3.652 16.273,9.192 24.809,18.192 9.283,9.789 20.111,25.965 18.972,47.433 -0.146,2.749 -0.004,5.586 2.01,7.709 1.224,1.289 2.869,2 4.635,1.999 1.602,0 3.934,-0.593 5.946,-3.415 2.464,-3.456 5.583,-10.574 7.174,-20.003 0.217,-2.356 1.402,-0.95 1.888,-0.162 8.371,13.591 18.617,36.152 17.832,60.346 z"
         id="path8" />
    </g>
  </g>
</svg>
