<?xml version="1.0" encoding="UTF-8" standalone="no"?>
<svg
   xmlns:dc="http://purl.org/dc/elements/1.1/"
   xmlns:cc="http://creativecommons.org/ns#"
   xmlns:rdf="http://www.w3.org/1999/02/22-rdf-syntax-ns#"
   xmlns:svg="http://www.w3.org/2000/svg"
   xmlns="http://www.w3.org/2000/svg"
   xmlns:sodipodi="http://sodipodi.sourceforge.net/DTD/sodipodi-0.dtd"
   xmlns:inkscape="http://www.inkscape.org/namespaces/inkscape"
   width="9.4660034mm"
   height="7.7955327mm"
   viewBox="0 0 9.4660034 7.7955327"
   version="1.1"
   id="svg86"
   inkscape:version="1.0.1 (3bc2e813f5, 2020-09-07)"
   sodipodi:docname="Flood_Orange.svg">
  <defs
     id="defs80" />
  <sodipodi:namedview
     id="base"
     pagecolor="#ffffff"
     bordercolor="#666666"
     borderopacity="1.0"
     inkscape:pageopacity="0.0"
     inkscape:pageshadow="2"
     inkscape:zoom="10.397736"
     inkscape:cx="17.88851"
     inkscape:cy="14.731715"
     inkscape:document-units="mm"
     inkscape:current-layer="g1529"
     inkscape:document-rotation="0"
     showgrid="true"
     inkscape:window-width="1431"
     inkscape:window-height="1033"
     inkscape:window-x="128"
     inkscape:window-y="0"
     inkscape:window-maximized="0">
    <inkscape:grid
       type="xygrid"
       id="grid2589" />
  </sodipodi:namedview>
  <metadata
     id="metadata83">
    <rdf:RDF>
      <cc:Work
         rdf:about="">
        <dc:format>image/svg+xml</dc:format>
        <dc:type
           rdf:resource="http://purl.org/dc/dcmitype/StillImage" />
        <dc:title />
      </cc:Work>
    </rdf:RDF>
  </metadata>
  <g
     inkscape:label="Layer 1"
     inkscape:groupmode="layer"
     id="layer1"
     transform="translate(-11.141998,-1.3325924)">
    <g
       id="g16"
       transform="matrix(0.01322917,0,0,0.01322917,8.2183279,-2.1202235)" />
    <g
       id="g18"
       transform="matrix(0.01322917,0,0,0.01322917,8.2183279,-2.1202235)" />
    <g
       id="g20"
       transform="matrix(0.01322917,0,0,0.01322917,8.2183279,-2.1202235)" />
    <g
       id="g22"
       transform="matrix(0.01322917,0,0,0.01322917,8.2183279,-2.1202235)" />
    <g
       id="g24"
       transform="matrix(0.01322917,0,0,0.01322917,8.2183279,-2.1202235)" />
    <g
       id="g26"
       transform="matrix(0.01322917,0,0,0.01322917,8.2183279,-2.1202235)" />
    <g
       id="g28"
       transform="matrix(0.01322917,0,0,0.01322917,8.2183279,-2.1202235)" />
    <g
       id="g30"
       transform="matrix(0.01322917,0,0,0.01322917,8.2183279,-2.1202235)" />
    <g
       id="g32"
       transform="matrix(0.01322917,0,0,0.01322917,8.2183279,-2.1202235)" />
    <g
       id="g34"
       transform="matrix(0.01322917,0,0,0.01322917,8.2183279,-2.1202235)" />
    <g
       id="g36"
       transform="matrix(0.01322917,0,0,0.01322917,8.2183279,-2.1202235)" />
    <g
       id="g38"
       transform="matrix(0.01322917,0,0,0.01322917,8.2183279,-2.1202235)" />
    <g
       id="g40"
       transform="matrix(0.01322917,0,0,0.01322917,8.2183279,-2.1202235)" />
    <g
       id="g42"
       transform="matrix(0.01322917,0,0,0.01322917,8.2183279,-2.1202235)" />
    <g
       id="g44"
       transform="matrix(0.01322917,0,0,0.01322917,8.2183279,-2.1202235)" />
    <g
       id="g1529"
       transform="translate(-0.52916667)">
      <path
         fill="#ffa500"
         stroke="#000000"
         stroke-miterlimit="10"
         d="m 11.935748,9.0055091 4.497917,-7.4083334 4.497916,7.4083334 z"
         id="path4"
         style="fill:#ffa500;stroke-width:0.264583;fill-opacity:1" />
      <g
         id="g10"
         transform="matrix(0.01322917,0,0,0.01322917,14.449287,9.8365519)">
        <polygon
           style="fill:#ffffff"
           points="0.332,199.174 0.333,199.174 "
           id="polygon2" />
        <polygon
           style="fill:#ffffff"
           points="296.334,199.174 296.333,199.174 "
           id="polygon4" />
        <polygon
           style="fill:#ffffff"
           points="296.333,235.053 296.334,235.053 "
           id="polygon6" />
        <polygon
           style="fill:#ffffff"
           points="0.332,235.053 0.333,235.053 "
           id="polygon8" />
      </g>
      <path
         d="m 17.845387,7.3243292 c 0.213945,0 0.323421,-0.07181 0.421109,-0.13516 0.08413,-0.05457 0.148897,-0.09767 0.294418,-0.09767 V 6.8586625 c -0.218282,0 -0.322227,0.07181 -0.419915,0.13516 -0.08413,0.05457 -0.149363,0.09767 -0.294404,0.09767 -0.145055,0 -0.213333,-0.0431 -0.297459,-0.09767 -0.02024,-0.01311 -0.03597,-0.02659 -0.06508,-0.03971 V 6.3470398 h 0.543288 L 16.418686,4.5852907 15.75236,5.3058964 v -0.16668 h -0.42201 v 0.6244887 l -0.533625,0.5833347 h 0.519073 v 0.6157427 c -0.01455,0.01035 -0.03065,0.02081 -0.04645,0.03105 -0.08413,0.05457 -0.149348,0.09767 -0.294374,0.09767 -0.145012,0 -0.213275,-0.0431 -0.297372,-0.09767 -0.09767,-0.06337 -0.205825,-0.135175 -0.424106,-0.135175 v 0.2328337 c 0.145521,0 0.213872,0.0431 0.297998,0.09767 0.09766,0.06336 0.207134,0.13516 0.42105,0.13516 0.159971,0 0.270494,-0.04016 0.343255,-0.08692 v 0.247473 c -0.01455,0.01035 -0.03065,0.02081 -0.04645,0.03105 -0.08413,0.05457 -0.149348,0.09767 -0.294374,0.09767 -0.145012,0 -0.213275,-0.0431 -0.297372,-0.09767 -0.09768,-0.06336 -0.205827,-0.13516 -0.424108,-0.13516 v 0.2328337 c 0.145521,0 0.213872,0.0431 0.297998,0.09767 0.09766,0.06336 0.209564,0.13516 0.42348,0.13516 0.213916,0 0.325225,-0.07181 0.422898,-0.13516 0.08411,-0.05457 0.150876,-0.09767 0.295873,-0.09767 0.145027,0 0.211631,0.0431 0.295757,0.09767 0.09767,0.06336 0.208459,0.13516 0.422375,0.13516 0.213915,0 0.324657,-0.07181 0.42233,-0.13516 0.08411,-0.05457 0.150585,-0.09767 0.295597,-0.09767 0.145041,0 0.211515,0.0431 0.29564,0.09767 0.09769,0.06336 0.208415,0.13516 0.42236,0.13516 0.213945,0 0.322212,-0.07181 0.419901,-0.13516 0.08413,-0.05457 0.147689,-0.09767 0.29321,-0.09767 V 7.3807682 c -0.218282,0 -0.322227,0.07182 -0.419915,0.13516 -0.08413,0.05457 -0.149363,0.09767 -0.294404,0.09767 -0.145055,0 -0.213333,-0.0431 -0.297459,-0.09767 -0.02024,-0.01311 -0.03597,-0.02659 -0.06508,-0.03973 v -0.247211 c 0.08731,0.05022 0.191811,0.09533 0.361328,0.09533 z M 16.40719,6.5693525 c 0.184739,0 0.334712,0.149755 0.334712,0.334465 v 0.0649 c -0.01455,0.0084 -0.02401,0.01681 -0.03679,0.0251 -0.08413,0.05457 -0.149348,0.09767 -0.294375,0.09767 -0.145026,0 -0.213275,-0.0431 -0.297401,-0.09767 -0.0127,-0.0082 -0.02628,-0.01663 -0.04083,-0.02499 v -0.06502 c 0,-0.18471 0.149974,-0.334465 0.334684,-0.334464 z m 0.297925,0.9465837 c -0.08413,0.05457 -0.149348,0.09767 -0.294375,0.09767 -0.145026,0 -0.213275,-0.0431 -0.297401,-0.09767 -0.0127,-0.0082 -0.02628,-0.01663 -0.04083,-0.02499 v -0.248113 c 0.08731,0.04437 0.180897,0.08149 0.334596,0.08149 0.153831,0 0.26204,-0.03718 0.3348,-0.08159 v 0.248113 c -0.01455,0.0084 -0.02401,0.01681 -0.03679,0.02509 z"
         id="path12"
         style="fill:none;fill-opacity:1;stroke:#000000;stroke-width:0.174625;stroke-miterlimit:4;stroke-dasharray:none;stroke-opacity:1" />
      <path
         style="opacity:0.996;fill:#ffa500;fill-rule:evenodd;stroke:#000000;stroke-width:0.0577049"
         d="M 2.0937417,28.316403 C 2.1318577,28.217993 17.909035,2.1927989 17.983049,2.1062461 c 0.0125,-0.014615 3.563165,5.806364 7.890373,12.9355089 4.327209,7.129144 7.930389,13.059457 8.007069,13.178473 l 0.139417,0.216394 H 18.033543 c -12.749808,0 -15.976937,-0.02434 -15.9398013,-0.120219 z M 13.489477,24.83821 c 0.212192,-0.07486 0.574682,-0.258264 0.805534,-0.407552 0.603777,-0.390452 1.211877,-0.378508 1.885033,0.03702 0.657779,0.406042 1.231249,0.542552 2.037028,0.484899 0.53744,-0.03845 0.786191,-0.118871 1.377675,-0.445376 0.43046,-0.237619 0.848124,-0.39845 1.034744,-0.39845 0.189035,0 0.603205,0.161832 1.046083,0.408743 0.718799,0.400741 0.751037,0.408743 1.646811,0.408743 0.891342,0 0.93226,-0.01 1.675064,-0.408743 0.459794,-0.24683 0.888387,-0.408743 1.081966,-0.408743 h 0.320563 V 23.27746 22.446164 l -0.673223,0.06257 c -0.370273,0.03441 -0.673224,0.04174 -0.673224,0.01628 0,-0.122846 0.610956,-0.339752 0.956972,-0.339752 h 0.389475 V 21.367776 20.55029 h -0.51461 c -0.611733,0 -1.001271,0.123231 -1.649322,0.521763 -0.566146,0.348162 -1.199898,0.397288 -1.615158,0.1252 -0.250894,-0.164392 -0.260251,-0.201565 -0.260251,-1.033879 v -0.863356 h 1.210199 c 0.665611,0 1.195774,-0.03796 1.178142,-0.08435 -0.05569,-0.146524 -6.726776,-7.417283 -6.805527,-7.417283 -0.04132,0 -0.525015,0.494087 -1.074872,1.097969 l -0.999739,1.09797 -1.226229,0.008 -1.226228,0.008 v 1.306719 1.306719 l -1.202542,1.314044 -1.202542,1.314044 1.202542,0.02692 1.202542,0.02692 v 0.900345 0.900344 l -0.404236,0.161743 c -0.517336,0.206997 -0.876805,0.139533 -1.622079,-0.304425 -0.4915,-0.292784 -0.694161,-0.354137 -1.297743,-0.392873 l -0.7152833,-0.0459 v 0.830133 0.830134 h 0.3885306 c 0.3498197,0 1.2269177,0.340105 1.1291727,0.437851 -0.02185,0.02185 -0.188057,-0.0028 -0.369341,-0.0548 -0.181284,-0.05199 -0.513827,-0.09453 -0.7389845,-0.09453 H 9.3770417 v 0.817486 0.817485 h 0.3514131 c 0.2250821,0 0.5752732,0.12519 0.9741222,0.348239 0.342489,0.191531 0.736156,0.382565 0.874815,0.42452 0.417562,0.126345 1.500781,0.101812 1.912085,-0.04331 z"
         id="path891"
         transform="matrix(0.26458333,0,0,0.26458333,11.671165,1.3325924)" />
      <path
         style="opacity:0.996;fill:#ffa500;fill-rule:evenodd;stroke:#000000;stroke-width:0.0577049"
         d="m 13.9213,23.616814 c 0.253997,-0.189502 0.264481,-0.231318 0.264481,-1.054876 0,-0.751485 -0.02082,-0.857913 -0.168306,-0.860476 -0.160291,-0.0028 -0.160291,-0.0076 0,-0.100954 0.148799,-0.08667 0.168306,-0.270248 0.168306,-1.583959 v -1.48593 H 13.45622 12.726659 l 0.728049,-0.793442 0.728048,-0.793442 0.0015,-1.081966 0.0015,-1.081967 h 0.428197 0.428197 l 0.02863,0.587512 0.02863,0.587512 1.379459,-1.501172 c 0.758702,-0.825645 1.414726,-1.501172 1.457832,-1.501172 0.04311,0 1.217167,1.244261 2.609027,2.765025 l 2.530652,2.765025 -0.742585,0.02809 -0.742587,0.02809 v 1.484194 1.484194 l 0.297462,0.153823 c 0.163604,0.0846 0.275507,0.175778 0.248674,0.202612 -0.02683,0.02683 -0.136207,0.002 -0.243052,-0.05518 -0.106845,-0.05718 -0.218748,-0.103967 -0.248674,-0.103967 -0.02992,0 -0.05441,0.415777 -0.05441,0.92395 0,0.840676 -0.01517,0.918073 -0.168306,0.858744 -0.384585,-0.149 -1.048146,-0.161004 -1.418578,-0.02566 -0.835449,0.305242 -0.788928,0.294432 -0.601092,0.139668 0.1379,-0.11362 0.168306,-0.297474 0.168306,-1.017686 0,-0.526817 -0.03886,-0.879014 -0.09699,-0.879014 -0.06038,0 -0.05536,-0.06665 0.01328,-0.176578 0.153391,-0.245618 0.02779,-0.984449 -0.234476,-1.379216 -0.246576,-0.371158 -0.938163,-0.752401 -1.364878,-0.752401 -0.392298,0 -1.095069,0.367237 -1.336325,0.698303 -0.129733,0.178029 -0.206129,0.464046 -0.231853,0.868038 l -0.03837,0.602522 0.46666,0.259676 c 0.256663,0.142822 0.401743,0.259195 0.322398,0.258607 -0.07934,-5.87e-4 -0.252458,-0.06292 -0.384699,-0.138514 -0.13224,-0.0756 -0.275866,-0.13898 -0.319167,-0.140855 -0.0433,-0.0019 -0.06494,0.408329 -0.04809,0.911563 0.02624,0.783576 0.0099,0.906279 -0.113619,0.854449 -0.675443,-0.283364 -1.451378,-0.260148 -2.051268,0.06137 -0.455223,0.243984 -0.569804,0.23683 -0.232883,-0.01454 z"
         id="path893"
         transform="matrix(0.26458333,0,0,0.26458333,11.671165,1.3325924)" />
      <path
         style="opacity:0.996;fill:#ffa500;fill-rule:evenodd;stroke:#000000;stroke-width:0.0577049"
         d="m 17.33265,21.25522 c -0.299852,-0.124336 -0.353272,-0.186626 -0.305046,-0.3557 0.08109,-0.284303 0.582905,-0.73393 0.819112,-0.73393 0.336563,0 0.730829,0.266941 0.862005,0.583628 0.11345,0.273894 0.107618,0.315035 -0.05859,0.413278 -0.467199,0.276162 -0.815911,0.300704 -1.317486,0.09272 z"
         id="path895"
         transform="matrix(0.26458333,0,0,0.26458333,11.671165,1.3325924)" />
    </g>
  </g>
</svg>
