<?xml version="1.0" encoding="UTF-8" standalone="no"?>
<svg
   xmlns:dc="http://purl.org/dc/elements/1.1/"
   xmlns:cc="http://creativecommons.org/ns#"
   xmlns:rdf="http://www.w3.org/1999/02/22-rdf-syntax-ns#"
   xmlns:svg="http://www.w3.org/2000/svg"
   xmlns="http://www.w3.org/2000/svg"
   xmlns:sodipodi="http://sodipodi.sourceforge.net/DTD/sodipodi-0.dtd"
   xmlns:inkscape="http://www.inkscape.org/namespaces/inkscape"
   width="9.4660034mm"
   height="7.7955327mm"
   viewBox="0 0 9.4660034 7.7955327"
   version="1.1"
   id="svg86"
   inkscape:version="1.0.2 (e86c8708, 2021-01-15)"
   sodipodi:docname="Thunderstorms_Red.svg">
  <defs
     id="defs80" />
  <sodipodi:namedview
     id="base"
     pagecolor="#ffffff"
     bordercolor="#666666"
     borderopacity="1.0"
     inkscape:pageopacity="0.0"
     inkscape:pageshadow="2"
     inkscape:zoom="20.795471"
     inkscape:cx="20.389054"
     inkscape:cy="13.962317"
     inkscape:document-units="mm"
     inkscape:current-layer="layer1"
     inkscape:document-rotation="0"
     showgrid="true"
     inkscape:window-width="1431"
     inkscape:window-height="992"
     inkscape:window-x="241"
     inkscape:window-y="0"
     inkscape:window-maximized="0">
    <inkscape:grid
       type="xygrid"
       id="grid2589" />
  </sodipodi:namedview>
  <metadata
     id="metadata83">
    <rdf:RDF>
      <cc:Work
         rdf:about="">
        <dc:format>image/svg+xml</dc:format>
        <dc:type
           rdf:resource="http://purl.org/dc/dcmitype/StillImage" />
        <dc:title></dc:title>
      </cc:Work>
    </rdf:RDF>
  </metadata>
  <g
     inkscape:label="Layer 1"
     inkscape:groupmode="layer"
     id="layer1"
     transform="translate(-11.141998,-1.3325924)">
    <path
       fill="#00a4b4"
       stroke="#00a4b4"
       stroke-width="0.1"
       d="m 14.282603,5.6335926 h 0.268534 c 0.124178,0.2421467 0.243699,0.4873977 0.369429,0.7295443 h -0.249908 c -0.02172,0.0062 -0.03104,-0.018626 -0.03881,-0.034148 C 14.52009,6.0961552 14.399016,5.8679787 14.285704,5.6351453 Z m 0.372533,0 h 0.268534 c 0.124178,0.2421467 0.243699,0.4858455 0.369429,0.7295443 h -0.249908 c -0.02174,0.00465 -0.03104,-0.020178 -0.03881,-0.034148 -0.11176,-0.2328333 -0.232832,-0.4610098 -0.346145,-0.6938432 z m 0.372533,0 h 0.268534 c 0.124178,0.2405945 0.245252,0.4858455 0.367877,0.7295443 -0.09314,0 -0.186267,0.00777 -0.274743,-0.0062 z m 0.372533,0 h 0.263878 c 0.127282,0.2390422 0.245251,0.4858455 0.369429,0.7295443 -0.09314,0 -0.186267,0.00777 -0.274744,-0.0062 z m 0.372534,0 h 0.270086 l 0.33528,0.6674555 c 0.01242,0.015522 0.01089,0.040358 0.01552,0.062088 h -0.248356 l -0.01089,-0.00777 z m 0.372533,0 c 0.09002,0 0.180058,0.0031 0.268534,-0.0031 l 0.336833,0.6674554 c 0.01242,0.02018 0.01089,0.043462 0.01552,0.06209 -0.08692,0 -0.176952,0.012418 -0.25922,-0.00465 C 16.387415,6.1147814 16.263238,5.874187 16.145269,5.6335926 Z"
       id="path8"
       style="fill:#000000;fill-opacity:1;stroke:#73c6d1;stroke-width:0;stroke-miterlimit:4;stroke-dasharray:none;stroke-opacity:1" />
    <path
       fill="#ff9900"
       stroke="#000000"
       stroke-miterlimit="10"
       d="m 11.406581,9.0055091 4.497917,-7.4083334 4.497916,7.4083334 z"
       id="path4"
       style="fill:#ff0000;stroke-width:0.264583;fill-opacity:1" />
    <path
       fill="#000000"
       fill-rule="evenodd"
       d="m 14.835581,6.0924466 0.91168,0.302759 -0.303896,1.8165535 1.519466,-2.1193125 -0.911677,-0.3027589 0.303891,-1.8165536 z"
       clip-rule="evenodd"
       id="path904"
       style="stroke-width:0.303323;fill:#fefefe;fill-opacity:1" />
  </g>
</svg>
