<?xml version="1.0" encoding="UTF-8" standalone="no"?>
<svg
   xmlns:dc="http://purl.org/dc/elements/1.1/"
   xmlns:cc="http://creativecommons.org/ns#"
   xmlns:rdf="http://www.w3.org/1999/02/22-rdf-syntax-ns#"
   xmlns:svg="http://www.w3.org/2000/svg"
   xmlns="http://www.w3.org/2000/svg"
   xmlns:sodipodi="http://sodipodi.sourceforge.net/DTD/sodipodi-0.dtd"
   xmlns:inkscape="http://www.inkscape.org/namespaces/inkscape"
   width="9.4660034mm"
   height="7.7955327mm"
   viewBox="0 0 9.4660034 7.7955327"
   version="1.1"
   id="svg86"
   inkscape:version="1.0.1 (3bc2e813f5, 2020-09-07)"
   sodipodi:docname="snow_m_y.svg">
  <defs
     id="defs80" />
  <sodipodi:namedview
     id="base"
     pagecolor="#ffffff"
     bordercolor="#666666"
     borderopacity="1.0"
     inkscape:pageopacity="0.0"
     inkscape:pageshadow="2"
     inkscape:zoom="20.795471"
     inkscape:cx="17.88851"
     inkscape:cy="14.731715"
     inkscape:document-units="mm"
     inkscape:current-layer="layer1"
     inkscape:document-rotation="0"
     showgrid="true"
     inkscape:window-width="1431"
     inkscape:window-height="1033"
     inkscape:window-x="241"
     inkscape:window-y="0"
     inkscape:window-maximized="0">
    <inkscape:grid
       type="xygrid"
       id="grid2589" />
  </sodipodi:namedview>
  <metadata
     id="metadata83">
    <rdf:RDF>
      <cc:Work
         rdf:about="">
        <dc:format>image/svg+xml</dc:format>
        <dc:type
           rdf:resource="http://purl.org/dc/dcmitype/StillImage" />
        <dc:title></dc:title>
      </cc:Work>
    </rdf:RDF>
  </metadata>
  <g
     inkscape:label="Layer 1"
     inkscape:groupmode="layer"
     id="layer1"
     transform="translate(-11.141998,-1.3325924)">
    <path
       fill="#ff9900"
       stroke="#000000"
       stroke-miterlimit="10"
       d="m 11.406581,9.0055091 4.497917,-7.4083334 4.497916,7.4083334 z"
       id="path4"
       style="fill:#ffff00;stroke-width:0.264583;fill-opacity:1" />
    <g
       id="g4"
       transform="matrix(0.1190625,0,0,0.1190625,14.027702,4.3191164)">
      <path
         d="m 30.753,15.001 h -3.289 l 1.801,-1.799 c 0.293,-0.292 0.293,-0.768 0,-1.061 -0.293,-0.292 -0.768,-0.293 -1.062,0 L 25.343,15 h -5.381 l -1.186,-1.185 h 3.472 c 0.414,0 0.75,-0.336 0.75,-0.75 0,-0.414 -0.336,-0.75 -0.75,-0.75 h -1.999 l 3.732,-3.734 c 0.293,-0.293 0.293,-0.768 0,-1.061 -0.293,-0.293 -0.77,-0.293 -1.062,0 l -3.732,3.734 v -2 c 0,-0.414 -0.336,-0.75 -0.75,-0.75 -0.414,0 -0.75,0.336 -0.75,0.75 v 3.47 l -1.186,-1.185 v -5.38 l 2.859,-2.86 c 0.293,-0.293 0.293,-0.768 0,-1.061 -0.293,-0.293 -0.769,-0.293 -1.062,0 l -1.8,1.8 V 0.75 C 16.498,0.336 16.162,0 15.748,0 15.334,0 14.998,0.336 14.998,0.75 V 4.039 L 13.2,2.24 c -0.293,-0.293 -0.768,-0.293 -1.061,0 -0.293,0.292 -0.293,0.768 0,1.061 l 2.858,2.86 v 5.38 l -1.084,1.084 V 9.499 c 0,-0.414 -0.336,-0.75 -0.75,-0.75 -0.414,0 -0.75,0.336 -0.75,0.75 v 1.858 L 8.579,7.522 C 8.286,7.229 7.81,7.229 7.517,7.522 7.224,7.814 7.224,8.29 7.517,8.583 l 3.834,3.834 H 9.495 c -0.414,0 -0.75,0.336 -0.75,0.75 0,0.414 0.336,0.75 0.75,0.75 h 3.127 l -1.084,1.084 H 6.163 l -2.86,-2.86 c -0.293,-0.293 -0.768,-0.293 -1.062,0 -0.293,0.293 -0.293,0.768 0,1.061 l 1.801,1.8 H 0.753 c -0.414,0 -0.75,0.336 -0.75,0.75 0,0.414 0.336,0.75 0.75,0.75 h 3.289 l -1.801,1.799 c -0.293,0.293 -0.293,0.77 0,1.062 0.146,0.146 0.339,0.22 0.531,0.22 0.19,0 0.383,-0.072 0.529,-0.22 l 2.86,-2.858 h 5.381 l 1.185,1.185 H 9.256 c -0.414,0 -0.75,0.336 -0.75,0.75 0,0.414 0.336,0.75 0.75,0.75 h 1.999 l -3.731,3.733 c -0.293,0.293 -0.293,0.769 0,1.062 0.146,0.146 0.338,0.221 0.529,0.221 0.192,0 0.385,-0.074 0.53,-0.221 l 3.733,-3.734 v 2.002 c 0,0.414 0.336,0.75 0.75,0.75 0.414,0 0.75,-0.336 0.75,-0.75 V 18.78 l 1.185,1.186 v 5.381 l -2.86,2.859 c -0.293,0.293 -0.293,0.768 0,1.062 0.293,0.293 0.769,0.293 1.062,0 l 1.8,-1.801 v 3.289 c 0,0.414 0.336,0.75 0.75,0.75 0.414,0 0.75,-0.336 0.75,-0.75 v -3.289 l 1.799,1.799 c 0.146,0.146 0.338,0.221 0.53,0.221 0.192,0 0.384,-0.073 0.53,-0.221 0.293,-0.291 0.293,-0.768 0,-1.061 l -2.859,-2.864 v -5.379 l 1.084,-1.084 v 3.125 c 0,0.414 0.336,0.75 0.75,0.75 0.414,0 0.75,-0.336 0.75,-0.75 v -1.856 l 3.834,3.834 c 0.146,0.146 0.338,0.221 0.529,0.221 0.193,0 0.385,-0.072 0.531,-0.221 0.293,-0.291 0.293,-0.769 0,-1.062 l -3.834,-3.834 h 1.855 c 0.414,0 0.75,-0.336 0.75,-0.75 0,-0.414 -0.336,-0.75 -0.75,-0.75 h -3.127 l 1.084,-1.084 h 5.381 l 2.859,2.86 c 0.146,0.146 0.339,0.22 0.529,0.22 0.192,0 0.385,-0.072 0.53,-0.22 0.293,-0.293 0.293,-0.77 0,-1.062 l -1.8,-1.799 h 3.293 c 0.414,0 0.75,-0.336 0.75,-0.75 0,-0.414 -0.334,-0.749 -0.748,-0.749 z m -12.912,1.5 -1.338,1.338 -0.75,0.75 -0.75,-0.75 -1.338,-1.338 -0.75,-0.75 0.75,-0.75 1.338,-1.338 0.75,-0.75 0.75,0.75 1.338,1.338 0.75,0.75 z"
         id="path2" />
    </g>
  </g>
</svg>
