<?xml version="1.0" encoding="UTF-8" standalone="no"?>
<svg
   xmlns:dc="http://purl.org/dc/elements/1.1/"
   xmlns:cc="http://creativecommons.org/ns#"
   xmlns:rdf="http://www.w3.org/1999/02/22-rdf-syntax-ns#"
   xmlns:svg="http://www.w3.org/2000/svg"
   xmlns="http://www.w3.org/2000/svg"
   xmlns:sodipodi="http://sodipodi.sourceforge.net/DTD/sodipodi-0.dtd"
   xmlns:inkscape="http://www.inkscape.org/namespaces/inkscape"
   width="9.4660034mm"
   height="7.7955327mm"
   viewBox="0 0 9.4660034 7.7955327"
   version="1.1"
   id="svg86"
   inkscape:version="1.0.1 (3bc2e813f5, 2020-09-07)"
   sodipodi:docname="wind_m_y.svg">
  <defs
     id="defs80" />
  <sodipodi:namedview
     id="base"
     pagecolor="#ffffff"
     bordercolor="#666666"
     borderopacity="1.0"
     inkscape:pageopacity="0.0"
     inkscape:pageshadow="2"
     inkscape:zoom="20.795471"
     inkscape:cx="17.88851"
     inkscape:cy="14.731715"
     inkscape:document-units="mm"
     inkscape:current-layer="layer1"
     inkscape:document-rotation="0"
     showgrid="true"
     inkscape:window-width="1431"
     inkscape:window-height="1033"
     inkscape:window-x="241"
     inkscape:window-y="0"
     inkscape:window-maximized="0">
    <inkscape:grid
       type="xygrid"
       id="grid2589" />
  </sodipodi:namedview>
  <metadata
     id="metadata83">
    <rdf:RDF>
      <cc:Work
         rdf:about="">
        <dc:format>image/svg+xml</dc:format>
        <dc:type
           rdf:resource="http://purl.org/dc/dcmitype/StillImage" />
        <dc:title></dc:title>
      </cc:Work>
    </rdf:RDF>
  </metadata>
  <g
     inkscape:label="Layer 1"
     inkscape:groupmode="layer"
     id="layer1"
     transform="translate(-11.141998,-1.3325924)">
    <path
       fill="#ff9900"
       stroke="#000000"
       stroke-miterlimit="10"
       d="m 11.406581,9.0055091 4.497917,-7.4083334 4.497916,7.4083334 z"
       id="path4"
       style="fill:#ffff00;stroke-width:0.264583;fill-opacity:1" />
    <path
       fill="#e6e8ef"
       opacity="1"
       d="M 14.396219,5.6089044 C 14.6429,5.349827 15.00817,5.2109913 15.36435,5.23599 c 0.38531,0.018801 0.761738,0.2241618 0.966685,0.5543099 0.184701,-0.1146639 0.412376,-0.1588761 0.625793,-0.1132174 0.306183,0.055782 0.575178,0.3101078 0.610092,0.6255871 0.287176,0.043179 0.564021,0.2026754 0.715253,0.4553481 0.133057,0.2117659 0.15309,0.4863383 0.06281,0.7183509 -0.14379,0.3621712 -0.531378,0.5902585 -0.914416,0.5881925 -0.978254,0.00247 -1.956715,0 -2.93497,0.00124 -0.126029,2.067e-4 -0.253706,-0.0029 -0.3756,-0.038222 C 13.877034,7.9620867 13.656384,7.80445 13.529944,7.58504 13.384296,7.3344333 13.387809,7.0046985 13.541364,6.7584303 c 0.123966,-0.2125921 0.34275,-0.3520477 0.573523,-0.4237382 2.07e-4,-0.2656885 0.09401,-0.5342696 0.28139,-0.7257885"
       id="path2"
       style="fill:none;stroke:#000000;stroke-width:0.224007;stroke-miterlimit:4;stroke-dasharray:none;stroke-opacity:1"
       sodipodi:nodetypes="cccccccccccccc" />
    <g
       fill="#01a4b4"
       id="g12"
       transform="matrix(0.02817283,0,0,0.01408641,12.337693,5.5340812)"
       style="fill:#000000">
      <path
         d="m 122.82,47.02 c -0.86,-2.99 3.72,-4.71 5.39,-2.33 4.76,4.49 9.57,9.01 13.44,14.32 a 104.8,104.8 0 0 1 -14.02,14.7 c -2.68,2.45 -6.51,-1.77 -4.41,-4.48 2.05,-2.48 4.44,-4.65 6.71,-6.92 -15.66,0.07 -31.32,-0.01 -46.98,0.03 -1.76,-0.02 -3.91,0.15 -4.98,-1.56 -1.58,-2.18 0.41,-5.45 3.06,-5.15 16.29,-0.22 32.58,0.02 48.86,-0.05 -2.47,-2.7 -6.18,-4.8 -7.07,-8.56 z m 34.88,33.27 c -1.28,-1.81 0.35,-4.42 2.23,-4.95 2.31,0.07 3.72,2.08 5.28,3.5 3.28,3.39 6.67,6.68 9.86,10.16 1.84,1.84 -0.24,4.12 -1.56,5.53 -4.17,3.96 -7.98,8.34 -12.43,11.98 -2.09,-0.17 -4.26,-1.97 -3.8,-4.22 1.7,-3.09 4.84,-5.12 6.78,-8.07 -27.02,0.12 -54.04,0.01 -81.05,0.04 -1.86,-0.14 -4.48,0.06 -5.31,-2.05 -1.16,-2.2 1.01,-4.97 3.4,-4.66 27.64,-0.08 55.29,-0.09 82.94,-0.06 -1.86,-2.62 -4.46,-4.6 -6.34,-7.2 z m -34.69,33.58 c -1.58,-2.71 1.9,-6.15 4.5,-4.23 4.44,4.17 9.04,8.24 12.85,13.01 1.47,1.45 0.47,3.68 -0.89,4.79 -3.84,3.81 -7.56,7.73 -11.43,11.5 -2.29,2.65 -6.87,-0.93 -5.04,-3.9 2.02,-2.63 4.62,-4.74 6.76,-7.26 -16.29,-0.07 -32.59,0.17 -48.87,-0.06 -3.87,0.5 -4.85,-5.97 -0.87,-6.35 16.61,-0.67 33.27,-0.02 49.9,-0.26 -2.22,-2.5 -4.71,-4.73 -6.91,-7.24 z"
         id="path10"
         style="fill:#000000" />
    </g>
  </g>
</svg>
