<?xml version="1.0" encoding="UTF-8" standalone="no"?>
<svg
   x="0"
   y="0"
   viewBox="0 0 100 100"
   version="1.1"
   id="svg1529"
   sodipodi:docname="01n.svg"
   inkscape:version="1.1 (c4e8f9e, 2021-05-24)"
   xmlns:inkscape="http://www.inkscape.org/namespaces/inkscape"
   xmlns:sodipodi="http://sodipodi.sourceforge.net/DTD/sodipodi-0.dtd"
   xmlns:xlink="http://www.w3.org/1999/xlink"
   xmlns="http://www.w3.org/2000/svg"
   xmlns:svg="http://www.w3.org/2000/svg">
  <sodipodi:namedview
     id="namedview1531"
     pagecolor="#ffffff"
     bordercolor="#666666"
     borderopacity="1.0"
     inkscape:pageshadow="2"
     inkscape:pageopacity="0.0"
     inkscape:pagecheckerboard="0"
     showgrid="false"
     inkscape:zoom="8.73"
     inkscape:cx="25.315006"
     inkscape:cy="51.37457"
     inkscape:window-width="1864"
     inkscape:window-height="1081"
     inkscape:window-x="0"
     inkscape:window-y="25"
     inkscape:window-maximized="0"
     inkscape:current-layer="svg1529" />
  <symbol
     id="moon">
    <path
       d="M28.43,0A28.44,28.44,0,0,1,32.3,14.32,28.61,28.61,0,0,1,3.69,42.93,28.71,28.71,0,0,1,0,42.66,28.59,28.59,0,1,0,28.43,0Z"
       fill="url(#moon-grad)"
       id="path1514" />
  </symbol>
  <defs
     id="defs1522">
    <linearGradient
       id="moon-grad"
       x1="0%"
       y1="50%"
       x2="100%"
       y2="0%">
      <stop
         offset="0%"
         stop-color="#686e73"
         id="stop1517" />
      <stop
         offset="100%"
         stop-color="#6a7075"
         id="stop1519" />
    </linearGradient>
  </defs>
  <symbol
     id="s01n">
    <use
       xlink:href="#moon"
       x="0"
       y="0"
       width="100"
       height="100"
       transform="translate(20,20) scale(1,1)"
       id="use1524" />
  </symbol>
  <g
     id="g1933">
    <use
       xlink:href="#s01n"
       x="0"
       y="0"
       width="100"
       height="100"
       id="use1527" />
    <g
       id="g1769"
       style="clip-rule:evenodd;fill-rule:evenodd"
       transform="matrix(0.25,0,0,0.25,47.892516,48)">
      <path
         d="m 62.44,0 h 2.68 c 6.53,0.59 12.18,6.35 12.27,12.97 0.13,12.49 0.01,24.99 0.05,37.48 -4.8,-0.05 -9.59,-0.06 -14.38,0.03 -3.23,-3.64 -8.51,-1.5 -12.73,-1.91 -0.02,-3.29 -0.01,-6.57 -0.02,-9.85 3.87,0.04 7.75,0.04 11.62,0.02 -0.03,-1.29 -0.07,-2.58 -0.1,-3.87 -3.84,-0.03 -7.68,0.01 -11.52,0.18 0.01,-3.29 0.01,-6.59 0,-9.88 3.86,0.06 7.72,0.07 11.58,0.05 0.01,-1.29 0.02,-2.58 0.04,-3.87 C 58.05,21.33 54.18,21.33 50.31,21.37 50.52,16.62 49.5,11.45 51.96,7.09 54,3.16 58.11,0.61 62.44,0 Z"
         style="fill:#dadce5;fill-rule:nonzero;stroke:#dadce5;stroke-width:0.09px"
         id="path1685" />
      <path
         d="m 50.31,21.37 c 3.87,-0.04 7.74,-0.04 11.62,-0.02 -0.02,1.29 -0.03,2.58 -0.04,3.87 -3.86,0.02 -7.72,0.01 -11.58,-0.05 0,-1.26 0,-2.53 0,-3.8 z"
         style="fill:#838489;fill-rule:nonzero;stroke:#838489;stroke-width:0.09px"
         id="path1687" />
      <path
         d="m 50.31,35.05 c 3.84,-0.17 7.68,-0.21 11.52,-0.18 0.03,1.29 0.07,2.58 0.1,3.87 -3.87,0.02 -7.75,0.02 -11.62,-0.02 0,-1.23 0,-2.45 0,-3.67 z"
         style="fill:#818287;fill-rule:nonzero;stroke:#818287;stroke-width:0.09px"
         id="path1689" />
      <path
         d="m 50.33,48.57 c 4.22,0.41 9.5,-1.73 12.73,1.91 -4.16,1.04 -8.46,1.13 -12.72,0.9 0,-0.7 -0.01,-2.11 -0.01,-2.81 z"
         style="fill:#848085;fill-rule:nonzero;stroke:#848085;stroke-width:0.09px"
         id="path1691" />
      <path
         d="m 63.06,50.48 c 4.79,-0.09 9.58,-0.08 14.38,-0.03 0,8.9 0.01,17.81 -0.01,26.72 4.83,3.2 9.1,7.47 11.34,12.89 3.86,8.85 2.58,19.74 -3.4,27.35 -4.51,5.99 -11.6,9.7 -18.99,10.59 h -4.42 c -7.12,-0.6 -13.98,-3.96 -18.61,-9.42 -6.63,-7.48 -8.47,-18.76 -4.6,-27.97 2.18,-5.67 6.57,-10.15 11.56,-13.46 0.01,-3.77 0.01,-7.55 0,-11.32 3.87,0.05 7.73,0.05 11.6,0.01 -0.01,-1.23 -0.01,-2.46 -0.02,-3.69 -3.86,-0.03 -7.72,-0.03 -11.58,0.02 0,-3.6 0.03,-7.19 0.03,-10.79 4.26,0.23 8.56,0.14 12.72,-0.9 M 56.3,80.5 c -3.4,1.01 -7.97,3.03 -7.93,7.18 0.8,3.92 5.09,5.6 8.53,6.53 5.86,1.23 12.3,1.18 17.81,-1.39 2.22,-1.14 4.79,-3.01 4.69,-5.79 C 79.01,84.06 76.19,82.29 73.65,81.25 68.16,79.1 61.96,79.02 56.3,80.5 Z"
         style="fill:#f67b33;fill-rule:nonzero;stroke:#df5959;stroke-width:0.09px"
         id="path1693" />
      <path
         d="m 50.31,62.17 c 3.86,-0.05 7.72,-0.05 11.58,-0.02 0.01,1.23 0.01,2.46 0.02,3.69 -3.87,0.04 -7.73,0.04 -11.6,-0.01 0,-1.22 0,-2.44 0,-3.66 z"
         style="fill:#2e2424;fill-rule:nonzero;stroke:#843434;stroke-width:0.09px"
         id="path1695" />
      <path
         d="m 56.3,80.5 c 5.66,-1.48 11.86,-1.4 17.35,0.75 2.54,1.04 5.36,2.81 5.75,5.78 0.1,2.78 -2.47,4.65 -4.69,5.79 C 69.2,95.39 62.76,95.44 56.9,94.21 53.46,93.28 49.17,91.6 48.37,87.68 48.33,83.53 52.9,81.51 56.3,80.5 Z"
         style="fill:#0a8bb9;fill-rule:nonzero;stroke:#e78383;stroke-width:0.09px"
         id="path1697" />
    </g>
  </g>
</svg>
