<?xml version="1.0" encoding="UTF-8" standalone="no"?>
<svg
   x="0"
   y="0"
   viewBox="0 0 100 100"
   version="1.1"
   id="svg850"
   sodipodi:docname="coldd(1).svg"
   inkscape:version="1.1 (c4e8f9e, 2021-05-24)"
   xmlns:inkscape="http://www.inkscape.org/namespaces/inkscape"
   xmlns:sodipodi="http://sodipodi.sourceforge.net/DTD/sodipodi-0.dtd"
   xmlns:xlink="http://www.w3.org/1999/xlink"
   xmlns="http://www.w3.org/2000/svg"
   xmlns:svg="http://www.w3.org/2000/svg">
  <sodipodi:namedview
     id="namedview852"
     pagecolor="#ffffff"
     bordercolor="#666666"
     borderopacity="1.0"
     inkscape:pageshadow="2"
     inkscape:pageopacity="0.0"
     inkscape:pagecheckerboard="0"
     showgrid="false"
     inkscape:zoom="7.05"
     inkscape:cx="49.716312"
     inkscape:cy="50"
     inkscape:window-width="1312"
     inkscape:window-height="1081"
     inkscape:window-x="0"
     inkscape:window-y="25"
     inkscape:window-maximized="0"
     inkscape:current-layer="svg850" />
  <symbol
     id="sun">
    <path
       class="sun-glow"
       fill="url(#sun-glow-grad)"
       d="M66.64,47.86,82,41,66.64,34.12l9.84-13.66L59.76,22.22,61.46,5.47l-13.6,9.89L41,0,34.12,15.36,20.46,5.52l1.76,16.72L5.47,20.54l9.89,13.6L0,41l15.36,6.83L5.52,61.54l16.72-1.76L20.54,76.53l13.6-9.89L41,82l6.83-15.36,13.66,9.84L59.78,59.76l16.75,1.69Z"
       id="path824" />
    <path
       class="sun-outer"
       fill="#ffd348"
       d="M19.28,53.5a25,25,0,1,0,9.15-34.16A25,25,0,0,0,19.28,53.5Z"
       id="path826" />
    <path
       class="sun-inner"
       fill="url(#sun-inner-grad)"
       d="M22.74,51.5a21,21,0,1,0,7.69-28.69A21,21,0,0,0,22.74,51.5Z"
       id="path828" />
  </symbol>
  <defs
     id="defs843">
    <radialGradient
       id="sun-glow-grad"
       cx="41"
       cy="41"
       r="41"
       gradientUnits="userSpaceOnUse">
      <stop
         offset="54%"
         stop-color="#d6b849"
         id="stop831" />
      <stop
         offset="67%"
         stop-color="#ffce47"
         id="stop833" />
      <stop
         offset="100%"
         stop-color="#ffdb73"
         id="stop835" />
    </radialGradient>
    <linearGradient
       id="sun-inner-grad"
       x1="0%"
       y1="0%"
       x2="100%"
       y2="100%">
      <stop
         offset="0%"
         stop-color="#ffaf22"
         id="stop838" />
      <stop
         offset="100%"
         stop-color="#f09900"
         id="stop840" />
    </linearGradient>
  </defs>
  <symbol
     id="s01d">
    <use
       xlink:href="#sun"
       x="0"
       y="0"
       width="100"
       height="100"
       transform="translate(9,9) scale(1,1)"
       id="use845" />
  </symbol>
  <g
     id="g2146">
    <use
       xlink:href="#s01d"
       x="0"
       y="0"
       width="100"
       height="100"
       id="use848" />
    <g
       id="g1239"
       style="clip-rule:evenodd;fill-rule:evenodd"
       transform="translate(8.309984,11.9975)">
      <path
         d="m 63.502516,48 h 0.67 c 1.6325,0.1475 3.045,1.5875 3.0675,3.2425 0.0325,3.1225 0.0025,6.2475 0.0125,9.37 -1.2,-0.0125 -2.3975,-0.015 -3.595,0.0075 -0.8075,-0.91 -2.1275,-0.375 -3.1825,-0.4775 -0.005,-0.8225 -0.0025,-1.6425 -0.005,-2.4625 0.9675,0.01 1.9375,0.01 2.905,0.005 -0.0075,-0.3225 -0.0175,-0.645 -0.025,-0.9675 -0.96,-0.0075 -1.92,0.0025 -2.88,0.045 0.0025,-0.8225 0.0025,-1.6475 0,-2.47 0.965,0.015 1.93,0.0175 2.895,0.0125 0.0025,-0.3225 0.005,-0.645 0.01,-0.9675 -0.97,-0.005 -1.9375,-0.005 -2.905,0.005 0.0525,-1.1875 -0.2025,-2.48 0.4125,-3.57 0.51,-0.9825 1.5375,-1.62 2.62,-1.7725 z"
         style="fill:#dadce5;fill-rule:nonzero;stroke:#dadce5;stroke-width:0.0225px"
         id="path2" />
      <path
         d="m 60.470016,53.3425 c 0.9675,-0.01 1.935,-0.01 2.905,-0.005 -0.005,0.3225 -0.0075,0.645 -0.01,0.9675 -0.965,0.005 -1.93,0.0025 -2.895,-0.0125 0,-0.315 0,-0.6325 0,-0.95 z"
         style="fill:#838489;fill-rule:nonzero;stroke:#838489;stroke-width:0.0225px"
         id="path4" />
      <path
         d="m 60.470016,56.7625 c 0.96,-0.0425 1.92,-0.0525 2.88,-0.045 0.0075,0.3225 0.0175,0.645 0.025,0.9675 -0.9675,0.005 -1.9375,0.005 -2.905,-0.005 0,-0.3075 0,-0.6125 0,-0.9175 z"
         style="fill:#818287;fill-rule:nonzero;stroke:#818287;stroke-width:0.0225px"
         id="path6" />
      <path
         d="m 60.475016,60.1425 c 1.055,0.1025 2.375,-0.4325 3.1825,0.4775 -1.04,0.26 -2.115,0.2825 -3.18,0.225 0,-0.175 -0.0025,-0.5275 -0.0025,-0.7025 z"
         style="fill:#848085;fill-rule:nonzero;stroke:#848085;stroke-width:0.0225px"
         id="path8" />
      <path
         d="m 63.657516,60.62 c 1.1975,-0.0225 2.395,-0.02 3.595,-0.0075 0,2.225 0.0025,4.4525 -0.0025,6.68 1.2075,0.8 2.275,1.8675 2.835,3.2225 0.965,2.2125 0.645,4.935 -0.85,6.8375 -1.1275,1.4975 -2.9,2.425 -4.7475,2.6475 h -1.105 c -1.78,-0.15 -3.495,-0.99 -4.6525,-2.355 -1.6575,-1.87 -2.1175,-4.69 -1.15,-6.9925 0.545,-1.4175 1.6425,-2.5375 2.89,-3.365 0.0025,-0.9425 0.0025,-1.8875 0,-2.83 0.9675,0.0125 1.9325,0.0125 2.9,0.0025 -0.0025,-0.3075 -0.0025,-0.615 -0.005,-0.9225 -0.965,-0.0075 -1.93,-0.0075 -2.895,0.005 0,-0.9 0.0075,-1.7975 0.0075,-2.6975 1.065,0.0575 2.14,0.035 3.18,-0.225 m -1.69,7.505 c -0.85,0.2525 -1.9925,0.7575 -1.9825,1.795 0.2,0.98 1.2725,1.4 2.1325,1.6325 1.465,0.3075 3.075,0.295 4.4525,-0.3475 0.555,-0.285 1.1975,-0.7525 1.1725,-1.4475 -0.0975,-0.7425 -0.8025,-1.185 -1.4375,-1.445 -1.3725,-0.5375 -2.9225,-0.5575 -4.3375,-0.1875 z"
         style="fill:#f67b33;fill-rule:nonzero;stroke:#df5959;stroke-width:0.0225px"
         id="path10" />
      <path
         d="m 60.470016,63.5425 c 0.965,-0.0125 1.93,-0.0125 2.895,-0.005 0.0025,0.3075 0.0025,0.615 0.005,0.9225 -0.9675,0.01 -1.9325,0.01 -2.9,-0.0025 0,-0.305 0,-0.61 0,-0.915 z"
         style="fill:#2e2424;fill-rule:nonzero;stroke:#843434;stroke-width:0.0225px"
         id="path12" />
      <path
         d="m 61.967516,68.125 c 1.415,-0.37 2.965,-0.35 4.3375,0.1875 0.635,0.26 1.34,0.7025 1.4375,1.445 0.025,0.695 -0.6175,1.1625 -1.1725,1.4475 -1.3775,0.6425 -2.9875,0.655 -4.4525,0.3475 -0.86,-0.2325 -1.9325,-0.6525 -2.1325,-1.6325 -0.01,-1.0375 1.1325,-1.5425 1.9825,-1.795 z"
         style="fill:#ff0000;fill-rule:nonzero;stroke:#e78383;stroke-width:0.0225px"
         id="path14" />
    </g>
  </g>
</svg>
