<?xml version="1.0" encoding="UTF-8" standalone="no"?>
<svg
   width="32"
   height="32"
   fill="none"
   version="1.1"
   id="svg841"
   sodipodi:docname="icon-no-alert-white.svg"
   inkscape:version="1.1 (c4e8f9e, 2021-05-24)"
   xmlns:inkscape="http://www.inkscape.org/namespaces/inkscape"
   xmlns:sodipodi="http://sodipodi.sourceforge.net/DTD/sodipodi-0.dtd"
   xmlns="http://www.w3.org/2000/svg"
   xmlns:svg="http://www.w3.org/2000/svg">
  <defs
     id="defs845" />
  <sodipodi:namedview
     id="namedview843"
     pagecolor="#ffffff"
     bordercolor="#666666"
     borderopacity="1.0"
     inkscape:pageshadow="2"
     inkscape:pageopacity="0.0"
     inkscape:pagecheckerboard="0"
     showgrid="true"
     inkscape:zoom="27.28125"
     inkscape:cx="8.7789233"
     inkscape:cy="16.439863"
     inkscape:window-width="1838"
     inkscape:window-height="1081"
     inkscape:window-x="0"
     inkscape:window-y="25"
     inkscape:window-maximized="0"
     inkscape:current-layer="svg841">
    <inkscape:grid
       type="xygrid"
       id="grid1017" />
  </sodipodi:namedview>
  <mask
     id="a"
     width="14"
     height="10"
     x="9"
     y="12"
     maskUnits="userSpaceOnUse">
    <path
       fill="#fff"
       d="M23 22c-.627 0-.914-.098-1.502-.434-.725-.414-1.167-.566-1.998-.566-.83 0-1.272.152-1.997.566-.587.336-.874.434-1.501.434-.628 0-.915-.098-1.502-.434-.726-.414-1.168-.566-1.999-.566-.831 0-1.273.152-1.998.566C9.915 21.902 9.627 22 9 22v-9.5h14V22z"
       id="path830" />
  </mask>
  <g
     id="g1023">
    <path
       fill="#fff"
       fill-rule="evenodd"
       d="M31.556 28.24a1.5 1.5 0 0 1-1.302 2.245H1.7A1.5 1.5 0 0 1 .398 28.24L14.675 3.256a1.5 1.5 0 0 1 2.604 0l14.277 24.985z"
       clip-rule="evenodd"
       id="path824" />
    <path
       fill="#FFE600"
       fill-rule="evenodd"
       d="M30.277 30a1 1 0 0 0 .868-1.496L16.868 3.519a1 1 0 0 0-1.736 0L.855 28.504A1 1 0 0 0 1.723 30h28.554z"
       clip-rule="evenodd"
       id="path826"
       style="fill:none" />
    <path
       fill="#908715"
       fill-rule="evenodd"
       d="M31.277 29a1 1 0 0 0-.132-.496L16.868 3.519a1 1 0 0 0-1.736 0L.855 28.504A1 1 0 0 0 1.723 30h28.554a1 1 0 0 0 1-1zM16.434 3.767l14.277 24.985a.5.5 0 0 1-.434.748H1.723a.5.5 0 0 1-.434-.748L15.566 3.767a.5.5 0 0 1 .868 0z"
       clip-rule="evenodd"
       id="path828"
       style="fill:#999999;fill-opacity:1" />
    <path
       style="fill:#000000;stroke:#000000;stroke-width:0.492178;stroke-miterlimit:10"
       d="m 13.558927,24.000261 c -0.06652,-0.0189 -0.161763,-0.05934 -0.212031,-0.09071 -0.161386,-0.100914 -2.42657,-2.394369 -2.494564,-2.525859 -0.08617,-0.1663 -0.08731,-0.468472 -0.0029,-0.628271 0.134929,-0.25474 0.389367,-0.416202 0.654652,-0.415181 0.30463,0.0011 0.334488,0.02268 1.314671,1.004523 0.487937,0.488126 0.899187,0.887471 0.913852,0.887471 0.01512,0 1.446652,-1.420763 3.182135,-3.157266 2.417159,-2.418558 3.186444,-3.173254 3.288,-3.225601 0.345449,-0.178016 0.778243,-0.02646 0.973682,0.344315 0.08466,0.16063 0.08353,0.462274 -0.0023,0.629065 -0.04347,0.08428 -1.085292,1.144063 -3.526073,3.587225 -2.786721,2.789405 -3.490507,3.480379 -3.597127,3.531818 -0.167811,0.08088 -0.33789,0.101291 -0.491868,0.05821 z"
       id="path863" />
  </g>
</svg>