<svg xmlns="http://www.w3.org/2000/svg" width="32" height="32"><path fill="#fff" fill-rule="evenodd" d="M31.56 28.76a1.46 1.46 0 0 1 .19.74 1.5 1.5 0 0 1-1.5 1.5H1.7a1.47 1.47 0 0 1-.7-.2 1.49 1.49 0 0 1-.56-2l14.27-25a1.67 1.67 0 0 1 .56-.56 1.5 1.5 0 0 1 2.05.56z"/><path fill="#c00000" d="M16.41 4.27a.5.5 0 0 0-.68-.19.58.58 0 0 0-.19.19l-14.27 25a.49.49 0 0 0 .18.68.45.45 0 0 0 .25.05h28.55a.5.5 0 0 0 .5-.5.54.54 0 0 0-.06-.25z"/><circle cx="15.97" cy="25.97" r=".97" fill="#fff"/><rect width="2" height="10" x="15" y="13" fill="#fff" rx="1"/></svg>