<?xml version="1.0" encoding="UTF-8" standalone="no"?>
<svg
   xmlns:dc="http://purl.org/dc/elements/1.1/"
   xmlns:cc="http://creativecommons.org/ns#"
   xmlns:rdf="http://www.w3.org/1999/02/22-rdf-syntax-ns#"
   xmlns:svg="http://www.w3.org/2000/svg"
   xmlns="http://www.w3.org/2000/svg"
   xmlns:sodipodi="http://sodipodi.sourceforge.net/DTD/sodipodi-0.dtd"
   xmlns:inkscape="http://www.inkscape.org/namespaces/inkscape"
   width="32"
   height="32"
   fill="none"
   version="1.1"
   id="svg10"
   sodipodi:docname="icon-warning-polarlow-orange.svg"
   inkscape:version="1.0.1 (3bc2e813f5, 2020-09-07)">
  <metadata
     id="metadata16">
    <rdf:RDF>
      <cc:Work
         rdf:about="">
        <dc:format>image/svg+xml</dc:format>
        <dc:type
           rdf:resource="http://purl.org/dc/dcmitype/StillImage" />
      </cc:Work>
    </rdf:RDF>
  </metadata>
  <defs
     id="defs14" />
  <sodipodi:namedview
     pagecolor="#ffffff"
     bordercolor="#666666"
     borderopacity="1"
     objecttolerance="10"
     gridtolerance="10"
     guidetolerance="10"
     inkscape:pageopacity="0"
     inkscape:pageshadow="2"
     inkscape:window-width="1920"
     inkscape:window-height="1051"
     id="namedview12"
     showgrid="false"
     inkscape:zoom="27.5"
     inkscape:cx="16"
     inkscape:cy="16"
     inkscape:window-x="-9"
     inkscape:window-y="-9"
     inkscape:window-maximized="1"
     inkscape:current-layer="svg10" />
  <path
     fill="#fff"
     fill-rule="evenodd"
     d="M31.556 28.24a1.5 1.5 0 0 1-1.302 2.245H1.7A1.5 1.5 0 0 1 .398 28.24L14.675 3.256a1.5 1.5 0 0 1 2.604 0l14.277 24.985z"
     clip-rule="evenodd"
     id="path2" />
  <path
     fill="#FF9D00"
     fill-rule="evenodd"
     d="M30.277 30a1 1 0 0 0 .868-1.496L16.868 3.519a1 1 0 0 0-1.736 0L.855 28.504A1 1 0 0 0 1.723 30h28.554z"
     clip-rule="evenodd"
     id="path4" />
  <path
     fill="#906315"
     fill-rule="evenodd"
     d="M31.277 29a1 1 0 0 0-.132-.496L16.868 3.519a1 1 0 0 0-1.736 0L.855 28.504A1 1 0 0 0 1.723 30h28.554a1 1 0 0 0 1-1zM16.434 3.767l14.277 24.985a.5.5 0 0 1-.434.748H1.723a.5.5 0 0 1-.434-.748L15.566 3.767a.5.5 0 0 1 .868 0z"
     clip-rule="evenodd"
     id="path6" />
  <g
     transform="matrix(0.02749999,0,0,0.02749999,9.382713,-2.2581408)"
     id="g14"
     style="fill:#000000">
    <g
       id="g12"
       style="fill:#000000">
      <g
         id="g10"
         style="fill:#000000">
        <path
           d="m 157.165,887.36 v -60.5 c 0,-5.5 -4.5,-10 -10,-10 -5.5,0 -10,4.5 -10,10 v 60.5 c -20.1,4.5 -35.2,22.3 -35.2,43.6 0,24.6 20.3,44.7 45.2,44.7 24.9,0 45.2,-20 45.2,-44.7 0.1,-21.3 -15,-39.1 -35.2,-43.6 z m -10,68.2 c -13.9,0 -25.2,-11.1 -25.2,-24.7 0,-13.6 11.3,-24.7 25.2,-24.7 13.9,0 25.2,11.1 25.2,24.7 0,13.6 -11.2,24.7 -25.2,24.7 z"
           id="path2-9"
           style="fill:#000000" />
        <path
           d="m 421.465,667.96 -16.8,-8.4 16.8,-8.4 c 4.9,-2.5 7,-8.5 4.5,-13.4 -2.5,-4.9 -8.5,-7 -13.4,-4.5 l -20.3,10.1 v -23.7 c 0,-5.5 -4.5,-10 -10,-10 -5.5,0 -10,4.5 -10,10 v 23.7 l -20.3,-10.1 c -4.9,-2.5 -10.9,-0.5 -13.4,4.5 -2.5,4.9 -0.5,10.9 4.5,13.4 l 16.8,8.4 -16.8,8.4 c -4.9,2.5 -7,8.5 -4.5,13.4 1.7,3.5 5.3,5.5 9,5.5 1.5,0 3,-0.3 4.5,-1.1 l 20.3,-10.1 v 23.7 c 0,5.5 4.5,10 10,10 5.5,0 10,-4.5 10,-10 v -23.7 l 20.3,10.1 c 1.4,0.7 3,1.1 4.5,1.1 3.7,0 7.2,-2 9,-5.5 2.2,-4.9 0.2,-10.9 -4.7,-13.4 z"
           id="path4-45"
           style="fill:#000000" />
        <path
           d="m 204.265,856.66 v -249 c 0,-15.2 -6,-29.4 -16.8,-39.9 -10.7,-10.3 -24.8,-16 -39.9,-16 -32.3,0 -57.6,24.5 -57.6,55.9 v 249 c -30.3,24.2 -42.5,64 -30.4,100.7 11.9,38.9 47.2,65 87.9,65 40.1,0 76.2,-26.8 88.1,-65.1 11.2,-36.8 -1.4,-76.6 -31.3,-100.6 z m 11.9,94.7 c -9.1,30 -37.4,51 -68.8,51 -31.8,0 -59.5,-20.5 -68.8,-51 -0.1,-0.1 -0.1,-0.1 -0.1,-0.2 -9.9,-30 1,-62.8 27.2,-81.5 2.6,-1.8 4.2,-4.9 4.2,-8.1 v -254 c 0,-20.1 16.5,-35.9 37.6,-35.9 v 0 c 20.6,0 36.7,15.8 36.5,35.9 v 254 c 0,3.2 1.6,6.2 4.2,8.1 26,18.6 37.2,51.4 28,81.7 z"
           id="path6-3"
           style="fill:#000000" />
        <path
           d="m 327.165,598.66 -16.8,-8.4 16.8,-8.4 c 4.9,-2.5 7,-8.5 4.5,-13.4 -2.5,-4.9 -8.5,-7 -13.4,-4.5 l -20.3,10.1 v -23.7 c 0,-5.5 -4.5,-10 -10,-10 -5.5,0 -10,4.5 -10,10 v 23.7 l -20.3,-10.1 c -4.9,-2.5 -10.9,-0.5 -13.4,4.5 -2.5,4.9 -0.5,10.9 4.5,13.4 l 16.8,8.4 -16.8,8.4 c -4.9,2.5 -7,8.5 -4.5,13.4 1.7,3.5 5.3,5.5 9,5.5 1.5,0 3,-0.3 4.5,-1.1 l 20.3,-10.1 v 23.7 c 0,5.5 4.5,10 10,10 5.5,0 10,-4.5 10,-10 v -23.7 l 20.3,10.1 c 1.4,0.7 3,1.1 4.5,1.1 3.7,0 7.2,-2 9,-5.5 2.3,-5 0.3,-11 -4.7,-13.4 z"
           id="path8"
           style="fill:#000000" />
      </g>
    </g>
  </g>
</svg>
