<svg xmlns="http://www.w3.org/2000/svg" width="32" height="32" fill="none"><path fill="#fff" fill-rule="evenodd" d="M31.556 28.24a1.5 1.5 0 0 1-1.302 2.245H1.7A1.5 1.5 0 0 1 .398 28.24L14.675 3.256a1.5 1.5 0 0 1 2.604 0l14.277 24.985z" clip-rule="evenodd"/><path fill="#C60000" fill-rule="evenodd" d="M30.277 30a1 1 0 0 0 .868-1.496L16.868 3.519a1 1 0 0 0-1.736 0L.855 28.504A1 1 0 0 0 1.723 30h28.554z" clip-rule="evenodd"/><path fill="#731415" fill-rule="evenodd" d="M31.277 29a1 1 0 0 0-.132-.496L16.868 3.519a1 1 0 0 0-1.736 0L.855 28.504A1 1 0 0 0 1.723 30h28.554a1 1 0 0 0 1-1zM16.434 3.767l14.277 24.985a.5.5 0 0 1-.434.748H1.723a.5.5 0 0 1-.434-.748L15.566 3.767a.5.5 0 0 1 .868 0z" clip-rule="evenodd"/><path fill="#fff" fill-rule="evenodd" d="M16 16a1 1 0 0 0-1 1h-1a2 2 0 1 1 2 2v-1a1 1 0 1 0 0-2zm2 10a1 1 0 0 1-1-1h-1a2 2 0 1 0 2-2v1a1 1 0 1 1 0 2zm2.5-7.5a1 1 0 0 0-1 1h-1a2 2 0 1 1 2 2v-1a1 1 0 1 0 0-2z" clip-rule="evenodd"/><path fill="#fff" d="M9 18h7v1H9zm0 2.5h11.5v1H9zM9 23h9v1H9z"/></svg>