<svg xmlns="http://www.w3.org/2000/svg" width="32" height="32" fill="none"><path fill="#fff" fill-rule="evenodd" d="M31.556 28.24a1.5 1.5 0 0 1-1.302 2.245H1.7A1.5 1.5 0 0 1 .398 28.24L14.675 3.256a1.5 1.5 0 0 1 2.604 0l14.277 24.985z" clip-rule="evenodd"/><path fill="#C60000" fill-rule="evenodd" d="M30.277 30a1 1 0 0 0 .868-1.496L16.868 3.519a1 1 0 0 0-1.736 0L.855 28.504A1 1 0 0 0 1.723 30h28.554z" clip-rule="evenodd"/><path fill="#731415" fill-rule="evenodd" d="M31.277 29a1 1 0 0 0-.132-.496L16.868 3.519a1 1 0 0 0-1.736 0L.855 28.504A1 1 0 0 0 1.723 30h28.554a1 1 0 0 0 1-1zM16.434 3.767l14.277 24.985a.5.5 0 0 1-.434.748H1.723a.5.5 0 0 1-.434-.748L15.566 3.767a.5.5 0 0 1 .868 0z" clip-rule="evenodd"/><path fill="#fff" fill-rule="evenodd" d="M10.502 22.566c.466-.266.994-.566 1.999-.566 1.004 0 1.533.3 1.998.566l.006.003c.408.233.754.431 1.497.431.742 0 1.088-.198 1.495-.43l.006-.004c.465-.266.994-.566 1.997-.566 1.005 0 1.533.3 1.998.566l.006.003c.407.233.754.431 1.496.431v1c-1.004 0-1.533-.3-1.998-.566l-.006-.003c-.407-.233-.753-.431-1.495-.431-.742 0-1.089.198-1.496.43l-.006.004c-.465.266-.993.566-1.997.566s-1.533-.3-1.999-.566l-.005-.003C13.59 23.198 13.243 23 12.5 23s-1.09.198-1.497.43l-.005.004C10.533 23.7 10.004 24 9 24v-1c.743 0 1.09-.198 1.497-.43l.005-.004zm0 2c.466-.266.994-.566 1.999-.566 1.004 0 1.533.3 1.998.566l.006.003c.408.233.754.431 1.497.431.742 0 1.088-.198 1.495-.43l.006-.004c.465-.266.994-.566 1.997-.566 1.005 0 1.533.3 1.998.566l.006.003c.407.233.754.431 1.496.431v1c-1.004 0-1.533-.3-1.998-.566l-.006-.003c-.407-.233-.753-.431-1.495-.431-.742 0-1.089.198-1.496.43l-.006.004c-.465.266-.993.566-1.997.566s-1.533-.3-1.999-.566l-.005-.003C13.59 25.198 13.243 25 12.5 25s-1.09.198-1.497.43l-.005.004C10.533 25.7 10.004 26 9 26v-1c.743 0 1.09-.198 1.497-.43l.005-.004z" clip-rule="evenodd"/><path stroke="#fff" d="M16 20v-6"/><path stroke="#fff" stroke-linecap="square" d="M16 14l2.5 2.5M16 14l-2.5 2.5"/></svg>