<svg xmlns="http://www.w3.org/2000/svg" width="32" height="32" fill="none"><path fill="#fff" fill-rule="evenodd" d="M31.556 28.24a1.5 1.5 0 0 1-1.302 2.245H1.7A1.5 1.5 0 0 1 .398 28.24L14.675 3.256a1.5 1.5 0 0 1 2.604 0l14.277 24.985z" clip-rule="evenodd"/><path fill="#FF9D00" fill-rule="evenodd" d="M30.277 30a1 1 0 0 0 .868-1.496L16.868 3.519a1 1 0 0 0-1.736 0L.855 28.504A1 1 0 0 0 1.723 30h28.554z" clip-rule="evenodd"/><path fill="#906315" fill-rule="evenodd" d="M31.277 29a1 1 0 0 0-.132-.496L16.868 3.519a1 1 0 0 0-1.736 0L.855 28.504A1 1 0 0 0 1.723 30h28.554a1 1 0 0 0 1-1zM16.434 3.767l14.277 24.985a.5.5 0 0 1-.434.748H1.723a.5.5 0 0 1-.434-.748L15.566 3.767a.5.5 0 0 1 .868 0z" clip-rule="evenodd"/><path fill="#000" d="M15.5 14h1v7h-1v-7z"/><path fill="#000" d="M15.702 16.335L18.015 15l.5.866-2.313 1.335-.5-.866z"/><path fill="#000" d="M16.35 16.347L14.019 15l-.5.866 2.333 1.347.5-.866zM15.5 28h1v-7h-1v7z"/><path fill="#000" d="M15.702 25.665L18.015 27l.5-.866-2.313-1.335-.5.866z"/><path fill="#000" d="M16.35 25.653L14.019 27l-.5-.866 2.333-1.347.5.866zm-6.654-7.706l.5-.866 6.062 3.5-.5.866-6.062-3.5z"/><path fill="#000" d="M11.82 18.94v-2.67h1v2.67h-1z"/><path fill="#000" d="M12.154 18.384L9.82 19.73l.5.866 2.333-1.347-.5-.866zm9.666 6.563l.5-.866-6.062-3.5-.5.866 6.063 3.5z"/><path fill="#000" d="M19.899 23.605l2.313-1.336-.5-.866-2.313 1.336.5.866z"/><path fill="#000" d="M20.214 23.037v2.694h-1v-2.694h1zm-10.001 1.91l-.5-.866 6.062-3.5.5.866-6.062 3.5z"/><path fill="#000" d="M12.134 23.605l-2.313-1.336.5-.866 2.313 1.336-.5.866z"/><path fill="#000" d="M11.82 23.037v2.694h1v-2.694h-1zm10.517-5.09l-.5-.866-6.062 3.5.5.866 6.062-3.5z"/><path fill="#000" d="M20.214 18.94v-2.67h-1v2.67h1z"/><path fill="#000" d="M19.88 18.384l2.332 1.347-.5.866-2.333-1.347.5-.866z"/></svg>