<svg xmlns="http://www.w3.org/2000/svg" width="32" height="32"><path fill="#fff" fill-rule="evenodd" d="M31.56 28.76a1.51 1.51 0 0 1-1.31 2.26H1.7a1.46 1.46 0 0 1-.74-.19 1.5 1.5 0 0 1-.56-2.07L14.67 3.78a1.5 1.5 0 0 1 2.61 0z"/><path fill="#ffe600" fill-rule="evenodd" d="M31.12 29.02l-14.27-25a1 1 0 0 0-1.37-.37 1.09 1.09 0 0 0-.37.37l-14.28 25a1 1 0 0 0 .37 1.35 1 1 0 0 0 .5.13h28.55a1 1 0 0 0 1-1 1 1 0 0 0-.13-.48z"/><path d="M31.12 29.02a1 1 0 0 1 .13.49 1 1 0 0 1-1 1H1.7a1 1 0 0 1-.5-.13 1 1 0 0 1-.37-1.36l14.28-25a1.09 1.09 0 0 1 .37-.37 1 1 0 0 1 1.37.37zm-.43.25l-14.28-25a.49.49 0 0 0-.68-.18.47.47 0 0 0-.19.18l-14.27 25a.49.49 0 0 0 .18.68.54.54 0 0 0 .25.07h28.55a.5.5 0 0 0 .5-.5.5.5 0 0 0-.06-.26z" opacity=".5"/><path d="M23.24 23.72c-.91-.86-4.21-1.12-5.48-1.59a.92.92 0 0 1-.4-.26c-.2-.28.09-.46.2-.57l.66-.46a1.08 1.08 0 0 0-.55-.12 1.32 1.32 0 0 0-1 .71 1.08 1.08 0 0 0-.06.33c0 .21 0 .45.48.8 1.76 1 4.31 1 4.81 1.84a1.6 1.6 0 0 1 .13 1.59c-.13.38-.4 1.32-.4 1.32h1.89v-.08a7.41 7.41 0 0 0 .29-2.17 1.84 1.84 0 0 0-.57-1.36m-5.22.89a35.93 35.93 0 0 1-6.39-2.18c-.45-.24-.53-.51-.32-.71s1.2-.86 1.2-1.11c0-.09-.58-.08-.7-.08a5.77 5.77 0 0 0-1.56 1.18c-.12.21-.12.19-.12.37a.88.88 0 0 0 .34.55c1 1 6.34 2.72 6.34 2.72l.31.12a1.24 1.24 0 0 1 .37.32.74.74 0 0 1 .12.33 1.55 1.55 0 0 1-.08.23 7.51 7.51 0 0 1-.61.82l-.15.15h1.85a3.14 3.14 0 0 0 .33-.48 1.89 1.89 0 0 0 .23-.89A1.43 1.43 0 0 0 18 24.62m.5-6.56l-1.18-.2.06-.39 1.19.19zm-2.17.9l-2-.33.07-.4 2 .33zm-2.58-1.65l-1.19-.2.07-.4 1.19.2zm.14-2.83l4.24.7a2.5 2.5 0 0 1 .38 1.71h-.16l-2.42-.54-2.8-.36a.61.61 0 0 0-.19 0 2.56 2.56 0 0 1 .95-1.51zm5 2.73a2.86 2.86 0 0 0-.54-2.35v-.05l-4.53-.75h-.06a2.88 2.88 0 0 0-1.24 2.1.79.79 0 0 0-.29.49l-.26 1.58-.07.4-.06.43a.41.41 0 0 0 .29.43.42.42 0 0 0 .5-.33l.06-.4 5.15.86-.06.44a.401.401 0 1 0 .79.14l.07-.4.06-.4.27-1.58a.83.83 0 0 0-.12-.61z"/></svg>