<svg xmlns="http://www.w3.org/2000/svg" width="32" height="32" fill="none"><path fill="#fff" fill-rule="evenodd" d="M31.556 28.24a1.5 1.5 0 0 1-1.302 2.245H1.7A1.5 1.5 0 0 1 .398 28.24L14.675 3.256a1.5 1.5 0 0 1 2.604 0l14.277 24.985z" clip-rule="evenodd"/><path fill="#FFE600" fill-rule="evenodd" d="M30.277 30a1 1 0 0 0 .868-1.496L16.868 3.519a1 1 0 0 0-1.736 0L.855 28.504A1 1 0 0 0 1.723 30h28.554z" clip-rule="evenodd"/><path fill="#908715" fill-rule="evenodd" d="M31.277 29a1 1 0 0 0-.132-.496L16.868 3.519a1 1 0 0 0-1.736 0L.855 28.504A1 1 0 0 0 1.723 30h28.554a1 1 0 0 0 1-1zM16.434 3.767l14.277 24.985a.501.501 0 0 1-.434.748H1.723a.5.5 0 0 1-.434-.748L15.566 3.767a.5.5 0 0 1 .868 0z" clip-rule="evenodd"/><path fill="#000" fill-rule="evenodd" d="M22.371 23.724c-.915-.862-4.215-1.123-5.476-1.59-.138-.067-.227-.055-.406-.256-.202-.28.09-.46.203-.574l.66-.465s-.312-.15-.552-.114c-.555.084-.877.374-1.045.71a.852.852 0 0 0-.06.327c0 .213.032.457.473.802 1.758.986 4.313.997 4.813 1.842.134.178.446.673.13 1.588-.13.382-.396 1.324-.396 1.324h1.884l.02-.088c.216-.69.326-1.42.326-2.142 0-.1 0-.883-.574-1.364zm-5.221.874s-4.108-.997-6.391-2.189c-.447-.233-.534-.509-.32-.703.34-.31 1.203-.858 1.203-1.11 0-.095-.586-.078-.705-.078-.003 0-.976.496-1.557 1.171-.162.21-.097.199-.12.367 0 .207.195.41.343.553 1 .956 6.332 2.716 6.332 2.716.112.038.206.075.311.123.138.069.276.185.377.312.07.106.112.238.114.332a1.06 1.06 0 0 1-.08.234c-.065.128-.461.66-.612.82l-.14.149 1.841.01.028-.033c.122-.153.222-.312.322-.475.195-.296.224-.7.233-.897.018-.682-.565-1.125-1.178-1.302zm.485-6.494l-1.189-.198.066-.397 1.19.199-.067.396zm-2.18.858l-1.98-.33.066-.397 1.98.33-.065.397zm-2.574-1.651l-1.188-.2.066-.395 1.188.198-.066.397zm.14-2.828l4.21.703c.12.16.458.71.382 1.712a.76.76 0 0 0-.16-.046l-2.39-.493-2.776-.37a.808.808 0 0 0-.183-.007c.254-.979.754-1.389.917-1.498zm4.962 2.732c.217-1.568-.468-2.32-.498-2.352l-.047-.05-4.49-.749-.06.03c-.039.021-.932.505-1.236 2.066a.795.795 0 0 0-.29.49l-.264 1.585-.066.396-.066.396a.401.401 0 1 0 .792.132l.066-.396 5.15.86-.066.396a.402.402 0 0 0 .793.132l.066-.396.066-.396.265-1.585a.806.806 0 0 0-.115-.56z" clip-rule="evenodd"/></svg>