<?xml version="1.0" encoding="UTF-8" standalone="no"?>
<svg
   xmlns:dc="http://purl.org/dc/elements/1.1/"
   xmlns:cc="http://creativecommons.org/ns#"
   xmlns:rdf="http://www.w3.org/1999/02/22-rdf-syntax-ns#"
   xmlns:svg="http://www.w3.org/2000/svg"
   xmlns="http://www.w3.org/2000/svg"
   xmlns:sodipodi="http://sodipodi.sourceforge.net/DTD/sodipodi-0.dtd"
   xmlns:inkscape="http://www.inkscape.org/namespaces/inkscape"
   width="32"
   height="32"
   fill="none"
   version="1.1"
   id="svg5624"
   sodipodi:docname="icon-warning-fog-red.svg"
   inkscape:version="1.0.1 (3bc2e813f5, 2020-09-07)">
  <metadata
     id="metadata5630">
    <rdf:RDF>
      <cc:Work
         rdf:about="">
        <dc:format>image/svg+xml</dc:format>
        <dc:type
           rdf:resource="http://purl.org/dc/dcmitype/StillImage" />
        <dc:title />
      </cc:Work>
    </rdf:RDF>
  </metadata>
  <defs
     id="defs5628" />
  <sodipodi:namedview
     pagecolor="#ffffff"
     bordercolor="#666666"
     borderopacity="1"
     objecttolerance="10"
     gridtolerance="10"
     guidetolerance="10"
     inkscape:pageopacity="0"
     inkscape:pageshadow="2"
     inkscape:window-width="1902"
     inkscape:window-height="1033"
     id="namedview5626"
     showgrid="true"
     inkscape:zoom="28.5625"
     inkscape:cx="9.2603939"
     inkscape:cy="16"
     inkscape:window-x="0"
     inkscape:window-y="0"
     inkscape:window-maximized="0"
     inkscape:current-layer="svg5624"
     inkscape:document-rotation="0">
    <inkscape:grid
       type="xygrid"
       id="grid834" />
  </sodipodi:namedview>
  <path
     fill="#fff"
     fill-rule="evenodd"
     d="M31.556 28.24a1.5 1.5 0 0 1-1.302 2.245H1.7A1.5 1.5 0 0 1 .398 28.24L14.675 3.256a1.5 1.5 0 0 1 2.604 0l14.277 24.985z"
     clip-rule="evenodd"
     id="path5612" />
  <path
     fill="#C60000"
     fill-rule="evenodd"
     d="M30.277 30a1 1 0 0 0 .868-1.496L16.868 3.519a1 1 0 0 0-1.736 0L.855 28.504A1 1 0 0 0 1.723 30h28.554z"
     clip-rule="evenodd"
     id="path5614" />
  <path
     fill="#731415"
     fill-rule="evenodd"
     d="M31.277 29a1 1 0 0 0-.132-.496L16.868 3.519a1 1 0 0 0-1.736 0L.855 28.504A1 1 0 0 0 1.723 30h28.554a1 1 0 0 0 1-1zM16.434 3.767l14.277 24.985a.5.5 0 0 1-.434.748H1.723a.5.5 0 0 1-.434-.748L15.566 3.767a.5.5 0 0 1 .868 0z"
     clip-rule="evenodd"
     id="path5616" />
  <g
     id="g932"
     transform="translate(0.197193,-0.456167)"
     style="fill:#ffffff;fill-opacity:1">
    <path
       fill="#00a4b4"
       opacity="1"
       d="m 8.9999381,18.417208 c 4.6659809,-7.81e-4 9.3330219,-7.81e-4 14.0000629,0 0.0021,0.277202 0.0021,0.554405 -0.0011,0.831608 -4.665981,0 -9.331962,0 -13.9979429,0 -0.00318,-0.277203 -0.00318,-0.554406 -0.00106,-0.831608 z"
       id="path5"
       style="fill:#ffffff;stroke:none;stroke-width:0;stroke-miterlimit:4;stroke-dasharray:none;stroke-opacity:1;fill-opacity:1" />
    <path
       fill="#00a4b4"
       opacity="1"
       d="m 14.17047,20 c 2.943176,0 5.886353,-7.81e-4 8.82953,0 0.0019,0.281888 0.0019,0.563776 6.92e-4,0.845664 -2.943175,7.81e-4 -5.886351,0 -8.829528,0 -6.68e-4,-0.281888 0,-0.563776 -6.68e-4,-0.845664 z"
       id="path7"
       style="fill:#ffffff;stroke:none;stroke-width:0;stroke-miterlimit:4;stroke-dasharray:none;stroke-opacity:1;fill-opacity:1" />
    <path
       fill="#00a4b4"
       opacity="1"
       d="m 8.9999883,20 c 1.3244297,0 2.6488597,-7.81e-4 3.9732887,0 8.55e-4,0.281888 8.55e-4,0.563776 3.11e-4,0.845664 -1.324428,7.81e-4 -2.648857,0 -3.9732877,0 -3e-4,-0.281888 0,-0.563776 -3e-4,-0.845664 z"
       id="path7-3"
       style="fill:#ffffff;stroke:none;stroke-width:0;stroke-miterlimit:4;stroke-dasharray:none;stroke-opacity:1;fill-opacity:1" />
    <path
       fill="#00a4b4"
       opacity="1"
       d="m 17.802807,22.456167 c -2.943176,0 -5.886353,7.81e-4 -8.8295304,0 -0.0019,-0.281888 -0.0019,-0.563776 -6.92e-4,-0.845664 2.9431754,-7.81e-4 5.8863514,0 8.8295284,0 6.68e-4,0.281888 0,0.563776 6.68e-4,0.845664 z"
       id="path7-7"
       style="fill:#ffffff;stroke:none;stroke-width:0;stroke-miterlimit:4;stroke-dasharray:none;stroke-opacity:1;fill-opacity:1" />
    <path
       fill="#00a4b4"
       opacity="1"
       d="m 22.973289,22.456167 c -1.32443,0 -2.64886,7.81e-4 -3.973289,0 -8.55e-4,-0.281888 -8.55e-4,-0.563776 -3.11e-4,-0.845664 1.324428,-7.81e-4 2.648857,0 3.973288,0 3e-4,0.281888 0,0.563776 3e-4,0.845664 z"
       id="path7-3-2"
       style="fill:#ffffff;stroke:none;stroke-width:0;stroke-miterlimit:4;stroke-dasharray:none;stroke-opacity:1;fill-opacity:1" />
    <path
       fill="#00a4b4"
       opacity="1"
       d="m 14.999376,23.154336 c 2.642954,0 5.285907,-7.81e-4 7.92886,0 0.0017,0.281888 0.0017,0.563776 6.21e-4,0.845664 -2.642952,7.81e-4 -5.285903,0 -7.928857,0 -5.99e-4,-0.281888 0,-0.563776 -5.99e-4,-0.845664 z"
       id="path7-8"
       style="fill:#ffffff;stroke:none;stroke-width:0;stroke-miterlimit:4;stroke-dasharray:none;stroke-opacity:1;fill-opacity:1" />
    <path
       fill="#00a4b4"
       opacity="1"
       d="m 9.0553643,23.154336 c 1.6058287,0 3.2116567,-7.81e-4 4.8174847,0 10e-4,0.281888 10e-4,0.563776 3.77e-4,0.845664 -1.605826,7.81e-4 -3.211653,0 -4.8174833,0 -3.639e-4,-0.281888 0,-0.563776 -3.639e-4,-0.845664 z"
       id="path7-3-0"
       style="fill:#ffffff;stroke:none;stroke-width:0;stroke-miterlimit:4;stroke-dasharray:none;stroke-opacity:1;fill-opacity:1" />
    <path
       fill="#00a4b4"
       opacity="1"
       d="m 8.9999374,24.75 c 4.6659806,-7.81e-4 9.3330216,-7.81e-4 14.0000626,0 0.0021,0.277202 0.0021,0.554405 -0.0011,0.831608 -4.665981,0 -9.331962,0 -13.9979426,0 -0.0032,-0.277203 -0.0032,-0.554406 -0.0011,-0.831608 z"
       id="path5-0"
       style="fill:#ffffff;stroke:none;stroke-width:0;stroke-miterlimit:4;stroke-dasharray:none;stroke-opacity:1;fill-opacity:1" />
  </g>
</svg>