<svg xmlns="http://www.w3.org/2000/svg" width="32" height="32" fill="none"><path fill="#fff" fill-rule="evenodd" d="M31.556 28.24a1.5 1.5 0 0 1-1.302 2.245H1.7A1.5 1.5 0 0 1 .398 28.24L14.675 3.256a1.5 1.5 0 0 1 2.604 0l14.277 24.985z" clip-rule="evenodd"/><path fill="#FF9D00" fill-rule="evenodd" d="M30.277 30a1 1 0 0 0 .868-1.496L16.868 3.519a1 1 0 0 0-1.736 0L.855 28.504A1 1 0 0 0 1.723 30h28.554z" clip-rule="evenodd"/><path fill="#906315" fill-rule="evenodd" d="M31.277 29a1 1 0 0 0-.132-.496L16.868 3.519a1 1 0 0 0-1.736 0L.855 28.504A1 1 0 0 0 1.723 30h28.554a1 1 0 0 0 1-1zM16.434 3.767l14.277 24.985a.5.5 0 0 1-.434.748H1.723a.5.5 0 0 1-.434-.748L15.566 3.767a.5.5 0 0 1 .868 0z" clip-rule="evenodd"/><path fill="#000" fill-rule="evenodd" d="M17.146 26.42c-.241.02-.68 0-.926 0-.599 0-2.22-.139-2.22-1.35 0-.6.308-.868.543-1.614.227-.722-.066-1.364-.177-1.83.177-.022.583 0 .943.59.18.295.24.713.235.852.165-.111.62-.506.84-1.35.226-.872-.292-1.554-.384-1.718 1.112.717 1.305 1.798 1.31 2.163.007.531 0 0-.007.693-.004.362.103.82.236.983a1.524 1.524 0 0 1 .115-.962c.221-.464.721-.814.846-.877-.183.498-.175.647-.16 1.069.028.728.66.95.66 1.746 0 1.126-.861 1.519-1.854 1.605zM20 16c-.272.117-1.048.82-1.436 1.549-.335.626-.492 1.465-.483 1.754-.338-.23-1.462-1.536-1.72-2.789-.281-1.366.451-3.175.639-3.514-2.278 1.479-2.537 4.431-2.537 4.431l.014 1.428c.008.746-.21 1.693-.483 2.029a3.16 3.16 0 0 0-.236-1.985C13.304 17.946 12.256 17.13 12 17c.171.347.443 1.258.457 1.918C12.5 20.88 11 21.334 11 22.978c0 2.887 2.333 3.595 4.912 3.595h.959c1.917 0 4.06-1.007 4.374-3.07.205-1.341-.844-2.69-1.15-3.278-.727-1.392-.322-3.265-.095-4.225z" clip-rule="evenodd"/></svg>