<svg xmlns="http://www.w3.org/2000/svg" width="32" height="32" fill="none"><path fill="#fff" fill-rule="evenodd" d="M31.556 28.24a1.5 1.5 0 0 1-1.302 2.245H1.7A1.5 1.5 0 0 1 .398 28.24L14.675 3.256a1.5 1.5 0 0 1 2.604 0l14.277 24.985z" clip-rule="evenodd"/><path fill="#FF9D00" fill-rule="evenodd" d="M30.277 30a1 1 0 0 0 .868-1.496L16.868 3.519a1 1 0 0 0-1.736 0L.855 28.504A1 1 0 0 0 1.723 30h28.554z" clip-rule="evenodd"/><path fill="#906315" fill-rule="evenodd" d="M31.277 29a1 1 0 0 0-.132-.496L16.868 3.519a1 1 0 0 0-1.736 0L.855 28.504A1 1 0 0 0 1.723 30h28.554a1 1 0 0 0 1-1zM16.434 3.767l14.277 24.985a.5.5 0 0 1-.434.748H1.723a.5.5 0 0 1-.434-.748L15.566 3.767a.5.5 0 0 1 .868 0z" clip-rule="evenodd"/><path fill="#000" fill-rule="evenodd" d="M14.814 14h2.392l-.202 7.233h-1.995L14.814 14zm1.196 11.007c-.837 0-1.36-.486-1.36-1.27 0-.792.523-1.278 1.36-1.278.844 0 1.36.486 1.36 1.278 0 .784-.516 1.27-1.36 1.27z" clip-rule="evenodd"/></svg>