<?xml version="1.0" encoding="UTF-8"?>
<svg width="64px" height="64px" viewBox="0 0 64 64" version="1.1" xmlns="http://www.w3.org/2000/svg" xmlns:xlink="http://www.w3.org/1999/xlink">
    <!-- Generator: Sketch 58 (84663) - https://sketch.com -->
    <title>high-temperature</title>
    <desc>Created with Sketch.</desc>
    <g id="high-temperature" stroke="none" stroke-width="1" fill="none" fill-rule="evenodd">
        <g id="5" transform="translate(18.000000, 3.000000)" fill="#ffffff" fill-rule="nonzero">
            <path d="M12.0278915,58 C8.49134329,58.0089521 5.13069836,56.4709949 2.84260362,53.7964283 C-1.34666386,48.8881883 -0.849806778,41.5676678 3.96492175,37.2605809 L3.96492175,7.96767138 C3.97296838,3.58197588 7.54698754,0.0241342217 11.9688221,0 L12.1755649,0 C16.5232716,0.103261027 19.9954945,3.6250322 20.0022572,7.93837847 C20.0022572,8.74727983 19.3411007,9.40302395 18.5255228,9.40302395 L18.5255228,9.40302395 C17.7099449,9.40302395 17.0487884,8.74727983 17.0487884,7.93837847 C17.0044056,5.24108898 14.8486652,3.04520974 12.1312629,2.92929095 L11.9835895,2.92929095 C9.18952374,2.9373351 6.92650107,5.1818321 6.91839053,7.95302493 L6.91839053,38.5934083 L6.1357213,39.2671452 C2.33249815,42.4732095 1.86346658,48.1275849 5.08723989,51.9070356 C7.24476526,54.3727266 10.5754441,55.4925277 13.7999728,54.8363266 C16.1525345,54.3830597 18.2196353,53.0039445 19.5297022,51.0136019 C22.0245146,47.2448931 21.3031277,42.2239704 17.846225,39.2964381 L17.0487884,38.6227012 L17.0487884,27.4035168 C17.0487884,26.5946155 17.7099449,25.9388714 18.5255228,25.9388714 C19.3411007,25.9388714 20.0022572,26.5946155 20.0022572,27.4035168 L20.0022572,37.2605809 C23.3858815,40.2586634 24.770764,44.8957631 23.5793229,49.2379223 C22.3878819,53.5800815 18.8247211,56.8816299 14.3758992,57.7656175 C13.6033832,57.9232542 12.8165858,58.0017807 12.0278915,58 Z" id="Path"></path>
            <path d="M34.5535832,20 L15.4464168,20 C14.6475829,20 14,19.3284271 14,18.5 C14,17.6715729 14.6475829,17 15.4464168,17 L34.5535832,17 C35.3524171,17 36,17.6715729 36,18.5 C36,19.3284271 35.3524171,20 34.5535832,20 Z" id="Path"></path>
            <path d="M24.5,30 C23.6715729,30 23,29.3229815 23,28.4878369 L23,8.51216305 C23,7.67701846 23.6715729,7 24.5,7 C25.3284271,7 26,7.67701846 26,8.51216305 L26,28.4878369 C26,29.3229815 25.3284271,30 24.5,30 Z" id="Path"></path>
            <circle id="Oval" cx="12" cy="46" r="4"></circle>
        </g>
    </g>
</svg>