<?xml version="1.0" encoding="UTF-8" standalone="no"?>
<svg
   xmlns:dc="http://purl.org/dc/elements/1.1/"
   xmlns:cc="http://creativecommons.org/ns#"
   xmlns:rdf="http://www.w3.org/1999/02/22-rdf-syntax-ns#"
   xmlns:svg="http://www.w3.org/2000/svg"
   xmlns="http://www.w3.org/2000/svg"
   xmlns:xlink="http://www.w3.org/1999/xlink"
   xmlns:sodipodi="http://sodipodi.sourceforge.net/DTD/sodipodi-0.dtd"
   xmlns:inkscape="http://www.inkscape.org/namespaces/inkscape"
   viewBox="0 0 512 512"
   version="1.1"
   id="svg2994"
   sodipodi:docname="mostly-clear-night.svg"
   inkscape:version="1.0.1 (3bc2e813f5, 2020-09-07)">
  <metadata
     id="metadata2998">
    <rdf:RDF>
      <cc:Work
         rdf:about="">
        <dc:format>image/svg+xml</dc:format>
        <dc:type
           rdf:resource="http://purl.org/dc/dcmitype/StillImage" />
        <dc:title></dc:title>
      </cc:Work>
    </rdf:RDF>
  </metadata>
  <sodipodi:namedview
     pagecolor="#ffffff"
     bordercolor="#666666"
     borderopacity="1"
     objecttolerance="10"
     gridtolerance="10"
     guidetolerance="10"
     inkscape:pageopacity="0"
     inkscape:pageshadow="2"
     inkscape:window-width="1920"
     inkscape:window-height="1051"
     id="namedview2996"
     showgrid="false"
     inkscape:zoom="1.6621094"
     inkscape:cx="256"
     inkscape:cy="256"
     inkscape:window-x="-9"
     inkscape:window-y="-9"
     inkscape:window-maximized="1"
     inkscape:current-layer="svg2994" />
  <defs
     id="defs2990">
    <linearGradient
       id="a"
       x1="54.3"
       x2="187.2"
       y1="29"
       y2="259.1"
       gradientUnits="userSpaceOnUse">
      <stop
         offset="0"
         stop-color="#86c3db"
         id="stop2980" />
      <stop
         offset=".5"
         stop-color="#86c3db"
         id="stop2982" />
      <stop
         offset="1"
         stop-color="#5eafcf"
         id="stop2984" />
    </linearGradient>
    <symbol
       id="b"
       overflow="visible"
       viewBox="0 0 270 270">
      <path
         fill="url(#a)"
         stroke="#72b9d5"
         stroke-linecap="round"
         stroke-linejoin="round"
         stroke-width="6"
         d="M252.3 168.6A133.4 133.4 0 01118 36.2 130.5 130.5 0 01122.5 3 133 133 0 003 134.6C3 207.7 63 267 137.2 267c62.5 0 114.8-42.2 129.8-99.2a135.6 135.6 0 01-14.8.8Z"
         id="path2987">
        <animateTransform
           additive="sum"
           attributeName="transform"
           dur="6s"
           repeatCount="indefinite"
           type="rotate"
           values="-15 135 135; 9 135 135; -15 135 135" />
      </path>
    </symbol>
    <linearGradient
       inkscape:collect="always"
       xlink:href="#a-0"
       id="linearGradient2800"
       gradientUnits="userSpaceOnUse"
       x1="99.5"
       y1="30.700001"
       x2="232.60001"
       y2="261.39999" />
    <linearGradient
       id="a-0"
       x1="99.5"
       x2="232.60001"
       y1="30.700001"
       y2="261.39999"
       gradientUnits="userSpaceOnUse">
      <stop
         offset="0"
         stop-color="#f3f7fe"
         id="stop1562" />
      <stop
         offset=".5"
         stop-color="#f3f7fe"
         id="stop1564" />
      <stop
         offset="1"
         stop-color="#deeafb"
         id="stop1566" />
    </linearGradient>
  </defs>
  <use
     xlink:href="#b"
     width="270"
     height="270"
     transform="translate(73,79)"
     id="use2992"
     x="0"
     y="0" />
  <g
     id="use1574"
     transform="matrix(0.79375005,0,0,0.79375005,163.4665,241.42612)">
    <path
       fill="url(#a)"
       stroke="#e6effc"
       stroke-miterlimit="10"
       stroke-width="6"
       d="m 291,107 -2.5,0.1 A 83.9,83.9 0 0 0 135.6,43 56,56 0 0 0 51,91 56.6,56.6 0 0 0 51.8,100 60,60 0 0 0 63,219 l 4,-0.2 v 0.2 h 224 a 56,56 0 0 0 0,-112 z"
       id="path2796"
       style="fill:url(#linearGradient2800)" />
  </g>
</svg>
