<svg id="weather34 ice pellets icon" width="302pt" height="340" viewBox="0 0 302 255" xmlns="http://www.w3.org/2000/svg"><path fill="#e6e8ef" stroke="#e6e8ef" stroke-width=".1" d="M75.2 33.2c12.3-12.6 30.5-18.5 47.8-17 18 1.4 35.3 11.2 44.7 26.7 14.4-9.3 34.6-8.4 47.7 2.6 6.7 5.5 11.2 13.6 12.2 22.2 13.3 2 26 9 33.5 20.2 6.7 9.6 8.8 22 5.4 33.2-3.8 13-14.4 23.4-27 28.3-8 3.3-17 3.8-25.7 3.5 2.6-2.6 5.6-5 7.6-8 0-2-2-2.7-3-3.8C214 145 210 149 206 153h-13c2-6.5-3-13.8-10-13.8-7-.6-13 7-10.8 13.8h-22l8-8-3-4c-4.7 3.7-8.7 8-12.8 12H128c2-6.6-3-14-10-13.8-7-.5-13 7-10.8 13.8H86.4c2.6-2.7 5.7-5 7.6-8 .2-2-1.8-2.7-3-3.8L79 153c-14.4.8-29.4-3.8-39.6-14.2-10-9.6-14.5-24.4-11-37.8 3.6-15.7 17.2-27.7 32.5-31.8-.5-13.4 5-26.7 14.5-36m111.4 53.3c-5.4 2.8-8.6 8.5-9 14.5-3 1.3-6 2.8-8 5.5-3.2 4-3.5 10.2-.6 14.5 3 4.7 8.6 7 14 7h45c4 0 7.8-.6 11-2.8 5.2-3.4 7.6-10.5 5-16-2.2-5-7-7.5-11.8-8.7-1-3-2.6-6.4-5.7-8-4.2-2.7-9.6-2.2-14 0-5.5-8.3-17.3-11-26-6z"/><path fill="#777" stroke="#777" stroke-width=".1" d="M186.6 86.5c8.6-5 20.4-2.3 26 6 4.3-2.2 9.7-2.7 14 0 3 1.6 4.5 5 5.6 8 4.8 1.2 9.7 3.8 11.7 8.6 2.6 5.7.2 12.8-5 16.2-3.2 2.2-7 3-11 2.8h-45c-5.4 0-11-2.3-14-7-3-4.3-2.6-10.4.6-14.5 2-2.7 5-4.2 8-5.5.4-6 3.6-11.7 9-14.5z"/><path fill="#00a4b4" stroke="#00a4b4" stroke-width=".1" d="M107.2 153c-2-6.8 3.7-14.3 10.8-13.8 7 0 12 7.2 10.2 13.8-1.7 4.5-6.3 7.8-11.2 7.4-4.4-.2-8.3-3.3-9.8-7.4zM172.2 153c-2.2-6.8 3.7-14.4 10.8-13.8 7 0 12 7.3 10 13.8-1.6 4.5-6.2 7.8-11 7.4-4.4-.2-8.3-3.3-9.8-7.4zM78.8 153c4-4 8-8 12.3-11.8 1.2 1 3.2 2 3 3.7-2 3-5 5.3-7.5 8-2 1.8-3.6 3.7-5.7 5.2-3.4 1.4-5-3.7-2-5.2zM142.3 153c4.2-4 8.2-8.3 12.8-12l3 4-8 8c-2 1.8-3.6 4-6 5.4-3.2.7-4.5-3.8-1.7-5.4zM206 153c4-4 8-8 12.2-11.8 1.2 1 3 2 3 3.7-2 3-5 5.4-7.5 8-2 1.8-3.6 3.8-5.8 5.3-3.5 1-5-3.8-2-5.3zM75.4 166.6c7.3-3.7 16.8 3.3 15 11.4-1 7.8-11 11.6-17 6.7-6.6-4.3-5.3-15.3 2-18zM140.4 166.6c6-2.8 13.6 1 15 7.4 1.6 6.3-4 13-10.4 13-5.6.2-10.7-4.4-11-10-.4-4.3 2.3-8.7 6.4-10.4zM210.5 166.7c6.2-3.2 14.7 1.3 15.3 8.3 1 6.6-5.4 12.8-12 11.8-6.3-.4-11.2-7.3-9.2-13.5 1-3 3-5.4 6-6.6zM121.5 168.3c2.2-2.3 6 1.7 3.6 3.8-3.7 4-7.6 7.7-11.5 11.4-1.8 2.5-6.2-.7-4.2-3 3.8-4.3 8-8.2 12.2-12zM185.2 168.2c2-2 5.7 1.5 3.7 3.6-4 4-8 8-12.3 12-2 2-5.7-1.6-3.7-3.6 4-4 8-8.2 12.2-12z"/></svg>
