<svg id="weather34 chance rain icon" width="302pt" height="340" viewBox="0 0 302 255" xmlns="http://www.w3.org/2000/svg"><path fill="#f05e40" stroke="#f05e40" stroke-width=".1" d="M57 19.2c15.5-8.6 34.8-9.3 51-2.6C93 19 78.6 27 69.8 39.6c-6.2 8.6-9.3 19-9 29.6C48.3 72.6 37.3 80.7 31.3 92c-5.4-12.8-5.8-27.7-1.2-40.8 4.5-13.6 14.4-25 26.8-32z"/><path fill="#e6e8ef" stroke="#e6e8ef" stroke-width=".1" d="M108 16.6C130.8 13 155.8 23 167.8 43c15-9.8 36.3-8.3 49.3 4 5.8 5.5 9.7 13 10.6 20.8C242 69.8 255.8 78 263 91c6.4 11.3 6.7 26 .5 37.4-7.5 14.4-23.2 23.4-39.2 24.4-5.8.3-11.5 0-17.3.2H86.8c-8-.2-16.4.6-24.4-1.4-14.5-3.2-27.7-13.4-33-27.4-4-10.4-3.2-22.3 1.8-32.2 6-11.3 17-19.4 29.2-22.8-.2-10.5 3-21 9-29.5 9-12.6 23.4-20.6 38.5-23m80.6 68.8c-6.3 2.4-10.8 8.7-10.8 15.5-2.7 1-5.4 2.3-7.3 4.5-3.5 3.8-4.6 9.6-2.2 14.2 2.6 5.5 8.8 8.5 14.7 8.3h47c8 0 16-6.8 15-15-.7-6.7-6.7-11.3-13-12.4-.8-3.2-2.4-6.4-5.4-8-4.2-2.8-9.7-2.4-14 0-5-7.7-15.6-10.7-24-7z"/><path fill="#777" stroke="#777" stroke-width=".1" d="M188.6 85.5c8.4-3.6 19-.6 24 7 4.3-2.3 9.8-2.7 14 0 3 1.7 4.6 5 5.5 8 6.3 1.2 12.3 5.8 13 12.4 1 8.2-7 15-15 15h-47c-6 .2-12-2.8-14.7-8.3-2.4-4.6-1.3-10.5 2.2-14.2 2-2.2 4.7-3.4 7.3-4.5 0-6.8 4.5-13 10.8-15.5z"/><path fill="#00a4b4" stroke="#00a4b4" stroke-width=".1" d="M87 153h17.3c8 15.6 15.7 31.4 23.8 47H112c-1.4.4-2-1.2-2.5-2.2-7.2-15-15-29.7-22.3-44.7zM111 153h17.3c8 15.6 15.7 31.3 23.8 47H136c-1.4.3-2-1.3-2.5-2.2-7.2-15-15-29.7-22.3-44.7zM135 153h17.3c8 15.5 15.8 31.3 23.7 47-6 0-12 .5-17.7-.4L135 153zM159 153H176c8.2 15.4 15.8 31.3 23.8 47-6 0-12 .5-17.7-.4L159 153zM183 153h17.4l21.6 43c.8 1 .7 2.6 1 4h-16l-.7-.5L183 153zM207 153c5.8 0 11.6.2 17.3-.2l21.7 43c.8 1.3.7 2.8 1 4-5.6 0-11.4.8-16.7-.3-7.7-15.5-15.7-31-23.3-46.5z"/></svg>