<?xml version="1.0" encoding="UTF-8" ?>
<!DOCTYPE svg PUBLIC "-//W3C//DTD SVG 1.1//EN" "http://www.w3.org/Graphics/SVG/1.1/DTD/svg11.dtd">
<svg width="302pt" height="255pt" viewBox="0 0 302 255" version="1.1" xmlns="http://www.w3.org/2000/svg">
<g id="#e4e3e3ff">
<path fill="#e6e8ef" opacity="1.00" d=" M 74.16 34.14 C 86.10 21.60 103.78 14.88 121.02 16.09 C 139.67 17.00 157.89 26.94 167.81 42.92 C 176.75 37.37 187.77 35.23 198.10 37.44 C 212.92 40.14 225.94 52.45 227.63 67.72 C 241.53 69.81 254.93 77.53 262.25 89.76 C 268.69 100.01 269.66 113.30 265.29 124.53 C 258.33 142.06 239.57 153.10 221.03 153.00 C 173.68 153.12 126.32 153.00 78.97 153.06 C 72.87 153.07 66.69 152.92 60.79 151.21 C 49.03 148.04 38.35 140.41 32.23 129.79 C 25.18 117.66 25.35 101.70 32.78 89.78 C 38.78 79.49 49.37 72.74 60.54 69.27 C 60.55 56.41 65.09 43.41 74.16 34.14 M 83.96 65.95 C 83.94 69.50 83.94 73.05 83.97 76.60 C 127.99 76.60 172.01 76.60 216.03 76.60 C 216.06 73.05 216.06 69.50 216.04 65.95 C 172.01 65.94 127.98 65.94 83.96 65.95 M 83.94 86.22 C 83.95 89.83 83.94 93.44 83.95 97.05 C 127.98 97.05 172.01 97.06 216.04 97.05 C 216.06 93.44 216.06 89.83 216.03 86.22 C 172.00 86.21 127.97 86.22 83.94 86.22 M 83.96 106.95 C 83.94 110.54 83.94 114.13 83.97 117.72 C 127.99 117.73 172.01 117.73 216.03 117.72 C 216.06 114.13 216.06 110.54 216.04 106.95 C 172.01 106.94 127.98 106.94 83.96 106.95 M 83.98 127.40 C 83.93 130.94 83.93 134.49 83.96 138.05 C 127.99 138.06 172.02 138.06 216.04 138.05 C 216.06 134.50 216.06 130.95 216.03 127.40 C 172.01 127.40 128.00 127.41 83.98 127.40 Z" />
</g>
<g id="#00a4b4ff">
<path fill="#00a4b4" opacity="1.00" d=" M 83.96 65.95 C 127.98 65.94 172.01 65.94 216.04 65.95 C 216.06 69.50 216.06 73.05 216.03 76.60 C 172.01 76.60 127.99 76.60 83.97 76.60 C 83.94 73.05 83.94 69.50 83.96 65.95 Z" />
<path fill="#00a4b4" opacity="1.00" d=" M 83.94 86.22 C 127.97 86.22 172.00 86.21 216.03 86.22 C 216.06 89.83 216.06 93.44 216.04 97.05 C 172.01 97.06 127.98 97.05 83.95 97.05 C 83.94 93.44 83.95 89.83 83.94 86.22 Z" />
<path fill="#00a4b4" opacity="1.00" d=" M 83.96 106.95 C 127.98 106.94 172.01 106.94 216.04 106.95 C 216.06 110.54 216.06 114.13 216.03 117.72 C 172.01 117.73 127.99 117.73 83.97 117.72 C 83.94 114.13 83.94 110.54 83.96 106.95 Z" />
<path fill="#00a4b4" opacity="1.00" d=" M 83.98 127.40 C 128.00 127.41 172.01 127.40 216.03 127.40 C 216.06 130.95 216.06 134.50 216.04 138.05 C 172.02 138.06 127.99 138.06 83.96 138.05 C 83.93 134.49 83.93 130.94 83.98 127.40 Z" />
</g>
</svg>
