<svg width="302pt" height="340" viewBox="0 0 302 255" xmlns="http://www.w3.org/2000/svg"><path fill="#505153" stroke="#505153" stroke-width=".1" d="M72.8 35.7C84.4 22.3 102.5 15.3 120 16c19 .6 37.8 10.5 47.7 27 15.7-10.3 38.6-8 51.2 6 4.7 5 7.8 11.8 8.5 18.8 12.6 1.7 24.6 8 32.3 18.3 6.8 9 9.7 20.6 7.5 31.5-2 11.4-9.6 21.4-19.3 27.6-8.3 5.4-18.2 8-28 8H74c-14 0-28-6-37.2-16.8-6.5-7.5-10-17.3-9.8-27.2.4-13.5 8.3-26.2 19.5-33.4 4.3-3 9.5-4.8 14.2-6.6-.4-12 4-24.2 12-33.3m76.6 37.5c-6.6 2.3-11.5 8.7-11.5 15.8-5.3 1.8-10.3 6-10.7 12-1 7.8 6.3 14.5 13.8 15 8.7.2 17.3 0 26 0 0 .4.4 1 .6 1.5 1.7 6.3 8.2 10.4 14.6 10.5h48c7.6 0 15.3-6 15-14 0-7-6.3-12.4-13-13.4-1.3-8.7-12.3-12.7-19.4-8-4-6-11.4-9.3-18.5-8.5l-3.3.5c-3.8-6-12-7.6-18-4-5-7.4-15-10.5-23.3-7.3z"/><path fill="#969393" stroke="#969393" stroke-width=".1" d="M149.3 73.2c8.3-3.2 18.4 0 23.3 7.3 6-3.6 14.3-2 18 4 1 0 2.6-.3 3.5-.4-1 .5-1.8 1-2.7 1.3 0 1 0 2 .6 2.7 4.8 2 10.3 4.4 12.2 9.8 3.3 8-3.3 16.8-11.3 18-7.7.8-15.4-.2-23 .3-1 .2-2 .6-2.6 1.5l-.7-1.5c-8.6 0-17.2.2-26 0-7.4-.5-14.6-7.2-13.6-15 .5-6 5.5-10.2 10.8-12 0-7 5-13.5 11.5-15.8z"/><path fill="#aca6a6" stroke="#aca6a6" stroke-width=".1" d="M194 84c7.2-.7 14.6 2.5 18.6 8.5 7.2-4.6 18-.6 19.5 8 6.7 1 13 6.5 13 13.5.3 8-7.4 14-15 14h-48c-6.4 0-13-4.2-14.6-10.5.7-1 1.5-1.3 2.6-1.4 7.6-.4 15.3.6 23-.3 8-1 14.5-10 11.2-18-2-5.3-7.4-7.6-12.3-9.7-.7-.8-.8-1.7-.7-2.7L194 84z"/></svg>
