<?xml version="1.0" encoding="UTF-8" ?>
<!DOCTYPE svg PUBLIC "-//W3C//DTD SVG 1.1//EN" "http://www.w3.org/Graphics/SVG/1.1/DTD/svg11.dtd">
<svg width="302pt" height="255pt" viewBox="0 0 302 255" version="1.1" xmlns="http://www.w3.org/2000/svg">
<g id="#505153ff">
<path fill="#505153" opacity="1.00" d=" M 75.93 32.39 C 85.86 22.85 99.23 17.11 112.95 16.18 C 134.20 14.44 156.40 24.58 167.72 42.92 C 178.46 36.18 192.27 34.66 204.15 39.15 C 216.37 43.47 226.19 54.67 227.56 67.75 C 240.54 69.71 253.02 76.51 260.68 87.33 C 268.64 98.97 270.47 115.07 263.81 127.74 C 255.96 143.47 238.37 152.97 221.05 153.02 C 175.71 153.09 130.37 153.03 85.02 153.05 C 77.53 152.99 69.90 153.43 62.56 151.62 C 49.65 148.59 37.69 140.31 31.53 128.41 C 25.50 117.59 25.87 103.91 31.04 92.85 C 36.88 81.19 48.18 73.05 60.42 69.16 C 60.46 55.45 65.96 41.86 75.93 32.39 M 186.71 86.65 C 181.31 89.37 178.47 95.24 177.92 101.05 C 173.42 102.86 168.91 106.08 167.81 111.09 C 166.25 116.02 168.46 121.54 172.55 124.53 C 176.31 127.60 181.36 128.16 186.05 128.07 C 201.04 127.91 216.05 128.29 231.03 127.88 C 239.36 127.61 247.63 118.82 244.34 110.39 C 242.73 104.92 237.29 102.03 232.13 100.74 C 230.88 97.64 229.49 94.18 226.33 92.60 C 222.14 90.08 216.88 90.40 212.60 92.54 C 207.02 84.49 195.20 81.56 186.71 86.65 Z" />
</g>
<g id="#f05e40ff">
<path fill="#f05e40" opacity="1.00" d=" M 40.81 56.82 C 48.76 44.50 61.75 35.85 75.93 32.39 C 65.96 41.86 60.46 55.45 60.42 69.16 C 48.18 73.05 36.88 81.19 31.04 92.85 C 30.68 80.24 33.75 67.37 40.81 56.82 Z" />
</g>
<g id="#aca6a6ff">
<path fill="#aca6a6" opacity="1.00" d=" M 186.71 86.65 C 195.20 81.56 207.02 84.49 212.60 92.54 C 216.88 90.40 222.14 90.08 226.33 92.60 C 229.49 94.18 230.88 97.64 232.13 100.74 C 237.29 102.03 242.73 104.92 244.34 110.39 C 247.63 118.82 239.36 127.61 231.03 127.88 C 216.05 128.29 201.04 127.91 186.05 128.07 C 181.36 128.16 176.31 127.60 172.55 124.53 C 168.46 121.54 166.25 116.02 167.81 111.09 C 168.91 106.08 173.42 102.86 177.92 101.05 C 178.47 95.24 181.31 89.37 186.71 86.65 Z" />
</g>
</svg>
