<?xml version="1.0" encoding="UTF-8" ?>
<!DOCTYPE svg PUBLIC "-//W3C//DTD SVG 1.1//EN" "http://www.w3.org/Graphics/SVG/1.1/DTD/svg11.dtd">
<svg width="302pt" height="255pt" viewBox="0 0 302 255" version="1.1" xmlns="http://www.w3.org/2000/svg">
<g id="#e4e3e3ff">
<path fill="#e6e8ef" opacity="1.00" d=" M 88.40 23.13 C 114.67 8.54 151.86 16.72 167.65 42.85 C 174.77 38.91 182.74 36.20 190.98 36.62 C 207.04 36.77 223.30 47.77 226.82 63.91 C 227.50 65.25 226.72 68.19 228.93 68.19 C 242.70 70.24 255.68 78.39 262.70 90.53 C 267.55 98.68 268.98 108.60 267.26 117.87 C 265.09 128.88 257.83 138.48 248.57 144.61 C 239.91 150.48 229.37 153.22 218.95 153.04 C 170.64 153.02 122.32 153.12 74.01 153.00 C 56.39 153.00 38.57 143.17 30.81 127.06 C 23.52 112.56 27.12 94.05 38.28 82.51 C 44.27 76.21 52.10 71.91 60.33 69.26 C 60.55 56.36 65.14 43.45 74.17 34.10 C 78.28 29.70 83.18 26.09 88.40 23.13 M 181.26 90.35 C 178.77 93.08 178.11 96.71 177.23 100.12 C 173.27 103.02 168.08 105.54 167.00 110.89 C 166.85 114.40 166.27 118.43 168.68 121.37 C 171.30 124.96 175.36 128.01 179.96 128.03 C 196.98 128.01 214.01 127.97 231.03 128.04 C 235.25 128.30 239.09 125.80 241.90 122.87 C 246.12 118.54 246.21 111.13 242.59 106.41 C 240.31 103.04 236.36 101.60 232.73 100.20 C 231.14 97.86 230.48 94.81 227.98 93.18 C 223.71 89.67 217.65 89.50 212.84 92.00 C 205.77 81.84 189.22 80.78 181.26 90.35 Z" />
</g>
<g id="#ff8841ff">
<path fill="#d05f2d" opacity="1.00" d=" M 49.08 44.01 C 58.31 31.74 73.08 23.97 88.40 23.13 C 83.18 26.09 78.28 29.70 74.17 34.10 C 65.14 43.45 60.55 56.36 60.33 69.26 C 52.10 71.91 44.27 76.21 38.28 82.51 C 36.88 68.90 40.64 54.83 49.08 44.01 Z" />
</g>
<g id="#aca6a6ff">
<path fill="#777" opacity="1.00" d=" M 181.26 90.35 C 189.22 80.78 205.77 81.84 212.84 92.00 C 217.65 89.50 223.71 89.67 227.98 93.18 C 230.48 94.81 231.14 97.86 232.73 100.20 C 236.36 101.60 240.31 103.04 242.59 106.41 C 246.21 111.13 246.12 118.54 241.90 122.87 C 239.09 125.80 235.25 128.30 231.03 128.04 C 214.01 127.97 196.98 128.01 179.96 128.03 C 175.36 128.01 171.30 124.96 168.68 121.37 C 166.27 118.43 166.85 114.40 167.00 110.89 C 168.08 105.54 173.27 103.02 177.23 100.12 C 178.11 96.71 178.77 93.08 181.26 90.35 Z" />
</g>
</svg>
