<?xml version="1.0" encoding="UTF-8" ?>
<!DOCTYPE svg PUBLIC "-//W3C//DTD SVG 1.1//EN" "http://www.w3.org/Graphics/SVG/1.1/DTD/svg11.dtd">
<svg width="302pt" height="255pt" viewBox="0 0 302 255" version="1.1" xmlns="http://www.w3.org/2000/svg">
<g id="#f05e40ff">
<path fill="#f05e40" opacity="1.00" d=" M 47.07 26.10 C 63.11 12.15 87.36 8.31 106.83 16.85 C 105.73 17.11 103.55 17.64 102.45 17.90 C 101.29 18.17 100.14 18.49 98.99 18.82 C 97.68 18.52 96.59 18.88 95.72 19.90 C 81.45 25.11 69.05 36.11 63.45 50.37 C 60.99 56.40 60.13 62.93 59.85 69.39 C 48.44 72.93 37.83 80.16 31.75 90.61 L 30.83 92.13 C 21.61 69.64 28.32 41.66 47.07 26.10 Z" />
</g>
<g id="#505153ff">
<path fill="#505153" opacity="1.00" d=" M 102.45 17.90 C 116.68 14.76 132.00 16.20 145.00 22.94 C 154.15 27.45 161.88 34.60 167.31 43.22 C 178.19 36.39 192.22 34.95 204.21 39.60 C 216.24 44.03 225.80 55.14 227.20 68.05 C 240.20 70.01 252.68 76.83 260.34 87.66 C 267.90 98.79 269.98 113.95 264.25 126.32 C 256.91 142.92 238.83 153.13 220.99 153.33 C 173.66 153.39 126.32 153.33 78.99 153.36 C 73.65 153.41 68.25 153.28 63.02 152.10 C 49.04 149.10 36.14 139.87 30.14 126.70 C 24.66 115.32 26.13 101.64 31.75 90.61 C 37.83 80.16 48.44 72.93 59.85 69.39 C 60.13 62.93 60.99 56.40 63.45 50.37 C 69.05 36.11 81.45 25.11 95.72 19.90 C 97.13 20.52 98.22 20.16 98.99 18.82 C 100.14 18.49 101.29 18.17 102.45 17.90 M 119.80 40.01 C 120.82 43.73 124.35 45.95 126.91 48.58 C 112.26 48.57 97.61 48.57 82.97 48.51 C 80.67 48.54 78.35 48.55 76.10 49.05 C 73.86 50.23 73.82 53.81 76.18 54.88 C 78.05 55.43 80.01 55.37 81.94 55.42 C 96.94 55.36 111.94 55.36 126.94 55.35 C 124.37 57.99 120.79 60.21 119.81 63.95 C 118.97 66.45 122.88 68.76 124.54 66.62 C 129.64 62.23 134.70 57.60 138.56 52.05 C 137.11 49.68 135.37 47.50 133.34 45.60 C 129.99 42.42 126.99 38.78 123.03 36.33 C 121.28 36.64 119.14 37.93 119.80 40.01 M 154.78 73.16 C 156.57 75.92 159.09 78.08 161.34 80.45 C 134.53 80.45 107.72 80.45 80.90 80.43 C 79.28 80.50 77.58 80.41 76.04 81.04 C 73.78 82.16 73.84 85.94 76.32 86.75 C 80.16 87.60 84.13 87.21 88.03 87.27 C 112.53 87.24 137.04 87.27 161.54 87.25 C 158.68 90.13 155.34 92.79 153.87 96.71 C 154.84 97.63 155.70 98.72 156.90 99.38 C 160.17 98.68 162.13 95.60 164.56 93.55 C 167.39 90.42 171.18 87.90 172.91 83.93 C 171.85 81.27 169.59 79.36 167.68 77.32 C 164.54 74.27 161.67 70.87 157.96 68.49 C 155.48 67.77 153.31 71.14 154.78 73.16 M 190.89 84.91 C 184.33 86.56 178.80 92.13 177.95 98.95 C 178.00 101.58 175.15 102.15 173.43 103.40 C 167.63 106.62 164.96 114.76 168.45 120.57 C 171.32 125.66 177.29 128.51 183.05 128.21 C 198.71 128.14 214.38 128.26 230.04 128.17 C 238.70 128.38 247.18 119.47 244.11 110.74 C 242.53 105.05 236.89 102.35 231.76 100.56 C 230.49 97.36 228.88 93.88 225.53 92.40 C 221.42 90.10 216.51 90.96 212.30 92.48 C 207.42 86.11 198.74 82.63 190.89 84.91 M 120.12 106.81 C 122.10 109.53 124.74 111.67 127.03 114.12 C 110.99 114.22 94.94 113.98 78.90 114.17 C 76.67 113.90 73.85 115.44 74.47 118.01 C 74.72 120.18 77.08 120.86 78.93 120.72 C 94.90 120.78 110.88 120.76 126.85 120.81 C 124.41 123.44 121.35 125.68 119.74 128.97 C 118.92 131.68 122.68 134.11 124.72 132.00 C 129.13 128.06 133.47 123.95 137.29 119.43 C 139.19 117.01 136.69 114.58 135.04 112.93 C 131.45 109.56 128.39 105.60 124.45 102.64 C 121.92 100.59 118.26 104.17 120.12 106.81 Z" />
</g>
<g id="#6f453dd1">
<path fill="#6f453d" opacity="0.82" d=" M 95.72 19.90 C 96.59 18.88 97.68 18.52 98.99 18.82 C 98.22 20.16 97.13 20.52 95.72 19.90 Z" />
</g>
<g id="#01a4b4ff">
<path fill="#01a4b4" opacity="1.00" d=" M 119.80 40.01 C 119.14 37.93 121.28 36.64 123.03 36.33 C 126.99 38.78 129.99 42.42 133.34 45.60 C 135.37 47.50 137.11 49.68 138.56 52.05 C 134.70 57.60 129.64 62.23 124.54 66.62 C 122.88 68.76 118.97 66.45 119.81 63.95 C 120.79 60.21 124.37 57.99 126.94 55.35 C 111.94 55.36 96.94 55.36 81.94 55.42 C 80.01 55.37 78.05 55.43 76.18 54.88 C 73.82 53.81 73.86 50.23 76.10 49.05 C 78.35 48.55 80.67 48.54 82.97 48.51 C 97.61 48.57 112.26 48.57 126.91 48.58 C 124.35 45.95 120.82 43.73 119.80 40.01 Z" />
<path fill="#01a4b4" opacity="1.00" d=" M 154.78 73.16 C 153.31 71.14 155.48 67.77 157.96 68.49 C 161.67 70.87 164.54 74.27 167.68 77.32 C 169.59 79.36 171.85 81.27 172.91 83.93 C 171.18 87.90 167.39 90.42 164.56 93.55 C 162.13 95.60 160.17 98.68 156.90 99.38 C 155.70 98.72 154.84 97.63 153.87 96.71 C 155.34 92.79 158.68 90.13 161.54 87.25 C 137.04 87.27 112.53 87.24 88.03 87.27 C 84.13 87.21 80.16 87.60 76.32 86.75 C 73.84 85.94 73.78 82.16 76.04 81.04 C 77.58 80.41 79.28 80.50 80.90 80.43 C 107.72 80.45 134.53 80.45 161.34 80.45 C 159.09 78.08 156.57 75.92 154.78 73.16 Z" />
<path fill="#01a4b4" opacity="1.00" d=" M 120.12 106.81 C 118.26 104.17 121.92 100.59 124.45 102.64 C 128.39 105.60 131.45 109.56 135.04 112.93 C 136.69 114.58 139.19 117.01 137.29 119.43 C 133.47 123.95 129.13 128.06 124.72 132.00 C 122.68 134.11 118.92 131.68 119.74 128.97 C 121.35 125.68 124.41 123.44 126.85 120.81 C 110.88 120.76 94.90 120.78 78.93 120.72 C 77.08 120.86 74.72 120.18 74.47 118.01 C 73.85 115.44 76.67 113.90 78.90 114.17 C 94.94 113.98 110.99 114.22 127.03 114.12 C 124.74 111.67 122.10 109.53 120.12 106.81 Z" />
</g>
<g id="#aca6a6ff">
<path fill="#aca6a6" opacity="1.00" d=" M 190.89 84.91 C 198.74 82.63 207.42 86.11 212.30 92.48 C 216.51 90.96 221.42 90.10 225.53 92.40 C 228.88 93.88 230.49 97.36 231.76 100.56 C 236.89 102.35 242.53 105.05 244.11 110.74 C 247.18 119.47 238.70 128.38 230.04 128.17 C 214.38 128.26 198.71 128.14 183.05 128.21 C 177.29 128.51 171.32 125.66 168.45 120.57 C 164.96 114.76 167.63 106.62 173.43 103.40 C 175.15 102.15 178.00 101.58 177.95 98.95 C 178.80 92.13 184.33 86.56 190.89 84.91 Z" />
</g>
</svg>
