<svg width="302pt" height="340" viewBox="0 0 302 255" xmlns="http://www.w3.org/2000/svg"><path fill="#505153" stroke="#505153" stroke-width=".1" d="M82 27.2c22-16 55-14.7 75.4 3.4 4 3.5 7.4 7.8 10.3 12.3 15.2-9.8 36.8-8.3 49.8 4.5 5.6 5.3 9.2 12.6 10 20.3C242.2 69.8 256 78 263 91c6.6 11.6 6.6 26.5 0 38-7.5 14-23 22.8-38.7 23.8-5.7.3-11.5.2-17.3.2H87c-8.4-.2-17 .6-25-1.5-13.5-3.3-25.7-12.3-31.4-25-5-10.7-4.7-23.7.8-34.2 5.7-11.5 17-19.7 29.3-23-.7-16.6 8-32.7 21.4-42m103.3 60c-4.7 3-7.3 8.3-7.6 13.7-3 1.3-6 2.8-8 5.5-3.3 4-3.6 10.2-.7 14.5 3 4.7 8.6 7 14 7h46c4 0 8-1 11.2-3.7 4.6-3.7 6.3-10.7 3.3-16-2.2-4.3-6.8-6.6-11.3-7.8-1.2-3.3-3-6.8-6.3-8.4-4.3-2.3-9.3-1.4-13.5.3-5.8-8.6-18.7-11-27.2-5z"/><path fill="#aca6a6" stroke="#aca6a6" stroke-width=".1" d="M185.3 87.3c8.5-6 21.4-3.6 27.2 5 4.2-1.7 9.2-2.6 13.4-.2 3.3 1.7 5 5.2 6.2 8.5 4.5 1.2 9 3.5 11.3 7.8 3 5.3 1.3 12.3-3.3 16-3 2.6-7.2 3.8-11.2 3.7h-46c-5.4 0-11-2.3-14-7-3-4.3-2.6-10.4.7-14.5 2-2.7 5-4.2 8-5.5.3-5.5 3-10.8 7.6-13.7z"/><path fill="#00a4b4" stroke="#00a4b4" stroke-width=".1" d="M87 153h17.2c-3.2 5.3-6.7 10.5-9.7 16-2-5.6-5.2-10.6-7.5-16z"/><path fill="#ff8841" stroke="#ff8841" stroke-width=".1" d="M104.2 153H131l-1.6 2-3 4.3 5.5.7 6.8 1 15.6 2-9.8 9-4.5 4.2-12 11-4.4 4c-3 3-6.3 6-9.4 8.8l-25 22.7 18-29c3.4-5 6.6-10.3 10-15.5 1-2 2.3-4 3.5-6l-7-.8L95 169h-.5c3-5.5 6.5-10.7 9.7-16z"/><path fill="#00a4b4" stroke="#00a4b4" stroke-width=".1" d="M135 153h17.4l7.4 14.7-1.7 2.8c1 0 2.5.3 3.3.4 3 5.5 5.8 11 8.6 16.8l-8 12.3c-1.2-.2-3.4.5-4-1l-13.4-27 9.8-9-15.6-2-4-8zM159 153h10c-2 3-3.8 6-5.6 9l-4.5-9z"/><path fill="#ff8841" stroke="#ff8841" stroke-width=".1" d="M169 153h21.7l-4.5 6.3c-1 1-1.7 2.3-2.5 3.5l4.5.6c6 .6 11.7 2 17.7 1.8v.6c-3.8 3.4-7.7 6.8-11.4 10.3-1.5 1.5-3 2.8-4.5 4-3.8 3.7-7.8 7.2-11.6 11l-4.8 4.2-5.3 4.8-14.3 13 8-13 8-12.2c1-2 2.3-3.8 3.5-5.7l5.7-9-11-1.3-7-.8-3-.5c.4-1 1-1.8 1.6-2.8l3.6-5.7 5.6-9z"/><path fill="#00a4b4" stroke="#00a4b4" stroke-width=".1" d="M190.7 153h9.7c1.7 4 4.8 7.8 5.5 12.2-6 .2-12-1.2-17.8-1.8l-2-4 4.5-6.4zM207 153c5.8 0 11.6 0 17.3-.2 6 12.2 12.3 24.3 18.4 36.5 1.6 3.4 4 6.7 4.4 10.6h-16.3c-8-15.6-16-31.3-23.7-47zM126.4 159.3l3-4.3 2.5 5-5.6-.7zM206 165.8h.7c5 9 9.2 18.4 14 27.4 1.2 2 2 4.4 2.4 6.7-5.4-.3-11.3.7-16.6-.5-4-7.7-7.8-15.6-11.8-23.4l11.3-10.3zM95 169c6.2 1 12.4 1.6 18.6 2.4l3.5 6.8-9.7 15.6c-4-8.3-8.3-16.5-12.3-24.7zM168.3 171.7c3.6.5 7.3 1 11 1.3-2 3-4 6-5.8 9l-5.2-10.3zM128 187.2l12-11 12 23.7H136c-1.4.3-2-1.2-2.4-2.2l-5.3-10.6zM178.4 191c3.8-3.8 7.8-7.3 11.7-11l10 20c-5.8-.2-12 .6-17.6-.4-1.5-3-3.3-5.6-4-8.7zM114.2 200c3-3 6.3-5.8 9.4-8.7l4.5 8.6h-13.8zM168.3 200l5.3-4.8 2.4 4.7h-7.7z"/></svg>