<svg id="weather34 windy icon" xmlns="http://www.w3.org/2000/svg" viewBox="0 0 302 255"><path fill="#d05f2d" d="M63.84 8.32c13.94-2.67 29.66.06 40.89 8.76l-1.9.68a67.2 67.2 0 0 0-18.22 7.68l-.21.14c-7.24 4.8-13.54 11.1-17.81 18.71l-.69 1.51-.37.7-.34.62-.4.75-.27.54a51.12 51.12 0 0 0-4.25 20.73c-4.89 2.42-10.26 3.91-14.67 7.3l-.2.13A42.6 42.6 0 0 0 33.56 88.4l-.13.19-.11.17a4.78 4.78 0 0 1-2.91 3.02c-7.72-11.25-11.33-25.4-9.14-38.93 2.98-21.81 20.85-40.68 42.57-44.53z"/><path fill="#e6e8ef" d="M102.83 17.76c23.92-5.74 51.47 3.96 64.5 25.3 12.48-7.5 28.91-8.54 41.73-1.24a35.3 35.3 0 0 1 18.34 26.44c14.13 1.72 27.58 9.91 34.83 22.28a39.38 39.38 0 0 1 3.19 33c-4.67 12.68-15.65 22.52-28.33 26.82-6.73 2.5-13.99 3.06-21.11 2.95-47.32-.01-94.63.01-141.95-.01-13.4-.12-26.86-5.44-36.11-15.25-5.66-6.05-9.79-13.73-10.89-22.01a38.97 38.97 0 0 1 6.29-27.28l.11-.17.13-.19A42.6 42.6 0 0 1 45.4 76.57l.2-.13c4.41-3.39 9.78-4.88 14.67-7.3a51.12 51.12 0 0 1 4.25-20.73l.27-.54.4-.75.34-.62.37-.7.69-1.51c4.27-7.61 10.57-13.91 17.81-18.71l.21-.14a67.2 67.2 0 0 1 18.22-7.68m19.99 29.26c.89 3.76 4.6 5.86 7.07 8.56-16.28.07-32.57-.17-48.86.05-2.65-.3-4.64 2.97-3.06 5.15 1.07 1.71 3.22 1.54 4.98 1.56 15.66-.04 31.32.04 46.98-.03-2.27 2.27-4.66 4.44-6.71 6.92-2.1 2.71 1.73 6.93 4.41 4.48a104.8 104.8 0 0 0 14.02-14.7c-3.87-5.31-8.68-9.83-13.44-14.32-1.67-2.38-6.25-.66-5.39 2.33m34.88 33.27c1.88 2.6 4.48 4.58 6.34 7.2-27.65-.03-55.3-.02-82.94.06-2.39-.31-4.56 2.46-3.4 4.66.83 2.11 3.45 1.91 5.31 2.05 27.01-.03 54.03.08 81.05-.04-1.94 2.95-5.08 4.98-6.78 8.07-.46 2.25 1.71 4.05 3.8 4.22 4.45-3.64 8.26-8.02 12.43-11.98 1.32-1.41 3.4-3.69 1.56-5.53-3.19-3.48-6.58-6.77-9.86-10.16-1.56-1.42-2.97-3.43-5.28-3.5-1.88.53-3.51 3.14-2.23 4.95m28.7 6.1c-5.63 2.67-8.87 8.63-9.56 14.65-6.09 2.39-11.25 8.18-10.74 14.99 1.19 7.57 8.49 12.5 15.82 12.7 15.01.23 30.03.04 45.04.09 4.17-.7 8.76-.74 12.11-3.72 4.36-3.07 6.8-8.91 5.09-14.08-1.36-5.59-6.69-9.13-12.04-10.3-1.35-2.72-2.28-5.98-5.12-7.56-4.05-3-9.71-3.01-14.15-.91-1.79-.79-2.76-2.64-4.29-3.78-6.12-4.94-15.26-6-22.16-2.08m-63.39 27.48c2.2 2.51 4.69 4.74 6.91 7.24-16.63.24-33.29-.41-49.9.26-3.98.38-3 6.85.87 6.35 16.28.23 32.58-.01 48.87.06-2.14 2.52-4.74 4.63-6.76 7.26-1.83 2.97 2.75 6.55 5.04 3.9 3.87-3.77 7.59-7.69 11.43-11.5 1.36-1.11 2.36-3.34.89-4.79-3.81-4.77-8.41-8.84-12.85-13.01-2.6-1.92-6.08 1.52-4.5 4.23z"/><g fill="#777"><path d="M84.4 25.58l.21-.14-.21.14zM65.9 45.8zM65.19 47.12zM64.52 48.41l.27-.54-.27.54zM45.4 76.57l.2-.13-.2.13zM186.4 86.39c6.9-3.92 16.04-2.86 22.16 2.08 1.53 1.14 2.5 2.99 4.29 3.78 4.44-2.1 10.1-2.09 14.15.91 2.84 1.58 3.77 4.84 5.12 7.56 5.35 1.17 10.68 4.71 12.04 10.3 1.71 5.17-.73 11.01-5.09 14.08-3.35 2.98-7.94 3.02-12.11 3.72-15.01-.05-30.03.14-45.04-.09-7.33-.2-14.63-5.13-15.82-12.7-.51-6.81 4.65-12.6 10.74-14.99.69-6.02 3.93-11.98 9.56-14.65zM33.43 88.59l.13-.19-.13.19z"/></g><g fill="#01a4b4"><path d="M122.82 47.02c-.86-2.99 3.72-4.71 5.39-2.33 4.76 4.49 9.57 9.01 13.44 14.32a104.8 104.8 0 0 1-14.02 14.7c-2.68 2.45-6.51-1.77-4.41-4.48 2.05-2.48 4.44-4.65 6.71-6.92-15.66.07-31.32-.01-46.98.03-1.76-.02-3.91.15-4.98-1.56-1.58-2.18.41-5.45 3.06-5.15 16.29-.22 32.58.02 48.86-.05-2.47-2.7-6.18-4.8-7.07-8.56zM157.7 80.29c-1.28-1.81.35-4.42 2.23-4.95 2.31.07 3.72 2.08 5.28 3.5 3.28 3.39 6.67 6.68 9.86 10.16 1.84 1.84-.24 4.12-1.56 5.53-4.17 3.96-7.98 8.34-12.43 11.98-2.09-.17-4.26-1.97-3.8-4.22 1.7-3.09 4.84-5.12 6.78-8.07-27.02.12-54.04.01-81.05.04-1.86-.14-4.48.06-5.31-2.05-1.16-2.2 1.01-4.97 3.4-4.66 27.64-.08 55.29-.09 82.94-.06-1.86-2.62-4.46-4.6-6.34-7.2zM123.01 113.87c-1.58-2.71 1.9-6.15 4.5-4.23 4.44 4.17 9.04 8.24 12.85 13.01 1.47 1.45.47 3.68-.89 4.79-3.84 3.81-7.56 7.73-11.43 11.5-2.29 2.65-6.87-.93-5.04-3.9 2.02-2.63 4.62-4.74 6.76-7.26-16.29-.07-32.59.17-48.87-.06-3.87.5-4.85-5.97-.87-6.35 16.61-.67 33.27-.02 49.9-.26-2.22-2.5-4.71-4.73-6.91-7.24z"/></g></svg>