<?xml version="1.0" encoding="UTF-8" standalone="no"?>
<svg
   xmlns:dc="http://purl.org/dc/elements/1.1/"
   xmlns:cc="http://creativecommons.org/ns#"
   xmlns:rdf="http://www.w3.org/1999/02/22-rdf-syntax-ns#"
   xmlns:svg="http://www.w3.org/2000/svg"
   xmlns="http://www.w3.org/2000/svg"
   xmlns:sodipodi="http://sodipodi.sourceforge.net/DTD/sodipodi-0.dtd"
   xmlns:inkscape="http://www.inkscape.org/namespaces/inkscape"
   width="9.4660034mm"
   height="7.7955327mm"
   viewBox="0 0 9.4660034 7.7955327"
   version="1.1"
   id="svg86"
   inkscape:version="1.0.1 (3bc2e813f5, 2020-09-07)"
   sodipodi:docname="Avalanche_Orange.svg">
  <defs
     id="defs80" />
  <sodipodi:namedview
     id="base"
     pagecolor="#ffffff"
     bordercolor="#666666"
     borderopacity="1.0"
     inkscape:pageopacity="0.0"
     inkscape:pageshadow="2"
     inkscape:zoom="10.397736"
     inkscape:cx="17.88851"
     inkscape:cy="14.731715"
     inkscape:document-units="mm"
     inkscape:current-layer="layer1"
     inkscape:document-rotation="0"
     showgrid="true"
     inkscape:window-width="1431"
     inkscape:window-height="1033"
     inkscape:window-x="128"
     inkscape:window-y="0"
     inkscape:window-maximized="1">
    <inkscape:grid
       type="xygrid"
       id="grid2589" />
  </sodipodi:namedview>
  <metadata
     id="metadata83">
    <rdf:RDF>
      <cc:Work
         rdf:about="">
        <dc:format>image/svg+xml</dc:format>
        <dc:type
           rdf:resource="http://purl.org/dc/dcmitype/StillImage" />
        <dc:title />
      </cc:Work>
    </rdf:RDF>
  </metadata>
  <g
     inkscape:label="Layer 1"
     inkscape:groupmode="layer"
     id="layer1"
     transform="translate(-11.141998,-1.3325924)">
    <path
       fill="#ffa500"
       stroke="#000000"
       stroke-miterlimit="10"
       d="m 11.406581,9.0055091 4.497917,-7.4083334 4.497916,7.4083334 z"
       id="path4"
       style="fill:#ffa500;stroke-width:0.264583;fill-opacity:1" />
    <g
       id="g16"
       transform="matrix(0.01322917,0,0,0.01322917,8.2183279,-2.1202235)" />
    <g
       id="g18"
       transform="matrix(0.01322917,0,0,0.01322917,8.2183279,-2.1202235)" />
    <g
       id="g20"
       transform="matrix(0.01322917,0,0,0.01322917,8.2183279,-2.1202235)" />
    <g
       id="g22"
       transform="matrix(0.01322917,0,0,0.01322917,8.2183279,-2.1202235)" />
    <g
       id="g24"
       transform="matrix(0.01322917,0,0,0.01322917,8.2183279,-2.1202235)" />
    <g
       id="g26"
       transform="matrix(0.01322917,0,0,0.01322917,8.2183279,-2.1202235)" />
    <g
       id="g28"
       transform="matrix(0.01322917,0,0,0.01322917,8.2183279,-2.1202235)" />
    <g
       id="g30"
       transform="matrix(0.01322917,0,0,0.01322917,8.2183279,-2.1202235)" />
    <g
       id="g32"
       transform="matrix(0.01322917,0,0,0.01322917,8.2183279,-2.1202235)" />
    <g
       id="g34"
       transform="matrix(0.01322917,0,0,0.01322917,8.2183279,-2.1202235)" />
    <g
       id="g36"
       transform="matrix(0.01322917,0,0,0.01322917,8.2183279,-2.1202235)" />
    <g
       id="g38"
       transform="matrix(0.01322917,0,0,0.01322917,8.2183279,-2.1202235)" />
    <g
       id="g40"
       transform="matrix(0.01322917,0,0,0.01322917,8.2183279,-2.1202235)" />
    <g
       id="g42"
       transform="matrix(0.01322917,0,0,0.01322917,8.2183279,-2.1202235)" />
    <g
       id="g44"
       transform="matrix(0.01322917,0,0,0.01322917,8.2183279,-2.1202235)" />
    <g
       id="g8"
       transform="matrix(0.00800366,0,0,0.00800364,14.631783,4.5421161)">
      <path
         d="m 120.451,223.086 c 2.082,2.576 5.859,2.979 8.438,0.895 2.577,-2.083 2.978,-5.86 0.895,-8.438 L 108.366,189.04 c -1.139,-1.409 -2.854,-2.229 -4.667,-2.229 -1.813,0 -3.527,0.819 -4.667,2.229 l -21.418,26.503 c -2.083,2.578 -1.682,6.355 0.895,8.438 1.11,0.897 2.443,1.333 3.768,1.333 1.75,0 3.485,-0.762 4.67,-2.229 l 10.751,-13.304 v 11.255 L 77.615,245.89 c -2.083,2.578 -1.682,6.355 0.895,8.438 1.11,0.897 2.443,1.333 3.768,1.333 1.75,0 3.485,-0.762 4.67,-2.229 l 10.751,-13.304 v 11.255 l -20.084,24.853 c -2.083,2.578 -1.682,6.355 0.895,8.438 1.11,0.897 2.443,1.333 3.768,1.333 1.75,0 3.485,-0.762 4.67,-2.229 l 10.751,-13.304 v 29.173 c 0,3.313 2.686,6 6,6 3.314,0 6,-2.687 6,-6 v -29.174 l 10.752,13.304 c 2.082,2.576 5.859,2.979 8.438,0.895 2.577,-2.083 2.978,-5.86 0.895,-8.438 l -20.085,-24.853 v -11.255 l 10.752,13.304 c 2.082,2.576 5.859,2.979 8.438,0.895 2.577,-2.083 2.978,-5.86 0.895,-8.438 l -20.085,-24.853 v -11.255 z"
         id="path2" />
      <path
         d="m 429.564,444.234 -94.989,-93.916 c 1.468,0.095 2.941,0.16 4.424,0.16 36.949,0 67.009,-30.06 67.009,-67.009 0,-21.836 -10.668,-42.178 -28.261,-54.665 7.252,-9.494 11.179,-21.041 11.179,-33.188 0,-30.221 -24.587,-54.807 -54.808,-54.807 -14.046,0 -27.526,5.418 -37.657,15.003 -10.674,-5.037 -22.45,-7.682 -34.332,-7.682 -10.241,0 -20.327,1.979 -29.722,5.713 L 78.556,1.733 c -2.356,-2.329 -6.155,-2.309 -8.485,0.048 -2.33,2.356 -2.308,6.155 0.048,8.485 l 150.893,149.188 c -3.619,2.151 -7.087,4.576 -10.348,7.294 -2.545,2.122 -2.889,5.905 -0.768,8.451 2.122,2.545 5.906,2.89 8.451,0.768 12.252,-10.211 27.801,-15.835 43.782,-15.835 11.422,0 22.725,2.869 32.685,8.298 2.448,1.335 5.497,0.805 7.352,-1.278 8.116,-9.114 19.763,-14.341 31.953,-14.341 23.604,0 42.808,19.203 42.808,42.807 0,9.843 -3.308,19.174 -9.385,26.742 -6.734,-3.682 -20.292,-9.046 -39.747,-7.05 -5.446,-15.727 -20.397,-27.055 -37.953,-27.055 -3.313,0 -6,2.687 -6,6 0,3.313 2.687,6 6,6 15.527,0 28.16,12.633 28.16,28.16 0,12.506 -8.025,23.339 -19.97,26.958 -3.172,0.96 -4.964,4.31 -4.003,7.481 0.785,2.592 3.165,4.262 5.74,4.262 0.576,0 1.162,-0.083 1.741,-0.259 17.042,-5.162 28.491,-20.611 28.491,-38.442 0,-0.423 -0.019,-0.841 -0.032,-1.261 13.899,-1.248 24.084,2.074 29.776,4.747 3.415,1.604 8.341,4.863 9.462,5.601 15.394,10.133 24.801,27.392 24.801,45.968 0,30.332 -24.677,55.009 -55.009,55.009 -7.033,0 -13.866,-1.304 -20.315,-3.872 L 33.373,52.52 c -2.356,-2.33 -6.156,-2.309 -8.485,0.048 -2.33,2.356 -2.308,6.155 0.048,8.485 l 396.19,391.714 c 1.17,1.156 2.694,1.733 4.219,1.733 1.547,0 3.093,-0.595 4.267,-1.782 2.33,-2.355 2.309,-6.154 -0.048,-8.484 z"
         id="path4-5" />
      <path
         d="m 237.998,332.581 c 1.187,1.467 2.921,2.229 4.671,2.229 1.324,0 2.657,-0.436 3.768,-1.333 2.577,-2.083 2.978,-5.86 0.896,-8.438 l -21.418,-26.503 c -1.139,-1.409 -2.854,-2.229 -4.667,-2.229 -1.813,0 -3.527,0.819 -4.667,2.229 l -21.418,26.503 c -2.083,2.578 -1.682,6.355 0.895,8.438 2.577,2.083 6.355,1.682 8.438,-0.895 l 10.751,-13.304 v 11.255 l -20.084,24.853 c -2.083,2.578 -1.682,6.355 0.895,8.438 2.577,2.083 6.355,1.682 8.438,-0.895 l 10.751,-13.304 v 11.255 l -20.084,24.853 c -2.083,2.578 -1.682,6.355 0.895,8.438 2.577,2.083 6.355,1.682 8.438,-0.895 l 10.751,-13.304 v 29.073 c 0,3.313 2.686,6 6,6 3.314,0 6,-2.687 6,-6 v -29.073 l 10.751,13.304 c 1.187,1.467 2.921,2.229 4.671,2.229 1.324,0 2.657,-0.436 3.768,-1.333 2.577,-2.083 2.978,-5.86 0.896,-8.438 l -20.085,-24.853 v -11.255 l 10.751,13.304 c 1.187,1.467 2.921,2.229 4.671,2.229 1.324,0 2.657,-0.436 3.768,-1.333 2.577,-2.083 2.978,-5.86 0.896,-8.438 L 227.249,330.535 V 319.28 Z"
         id="path6" />
    </g>
  </g>
</svg>
