<?xml version="1.0" encoding="UTF-8" standalone="no"?>
<svg
   xmlns:dc="http://purl.org/dc/elements/1.1/"
   xmlns:cc="http://creativecommons.org/ns#"
   xmlns:rdf="http://www.w3.org/1999/02/22-rdf-syntax-ns#"
   xmlns:svg="http://www.w3.org/2000/svg"
   xmlns="http://www.w3.org/2000/svg"
   xmlns:sodipodi="http://sodipodi.sourceforge.net/DTD/sodipodi-0.dtd"
   xmlns:inkscape="http://www.inkscape.org/namespaces/inkscape"
   width="9.4660034mm"
   height="7.7955327mm"
   viewBox="0 0 9.4660034 7.7955327"
   version="1.1"
   id="svg86"
   inkscape:version="1.0.1 (3bc2e813f5, 2020-09-07)"
   sodipodi:docname="Fog_Orange.svg">
  <defs
     id="defs80" />
  <sodipodi:namedview
     id="base"
     pagecolor="#ffffff"
     bordercolor="#666666"
     borderopacity="1.0"
     inkscape:pageopacity="0.0"
     inkscape:pageshadow="2"
     inkscape:zoom="20.795471"
     inkscape:cx="17.88851"
     inkscape:cy="14.63554"
     inkscape:document-units="mm"
     inkscape:current-layer="layer1"
     inkscape:document-rotation="0"
     showgrid="true"
     inkscape:window-width="1431"
     inkscape:window-height="1033"
     inkscape:window-x="241"
     inkscape:window-y="0"
     inkscape:window-maximized="0">
    <inkscape:grid
       type="xygrid"
       id="grid2589" />
  </sodipodi:namedview>
  <metadata
     id="metadata83">
    <rdf:RDF>
      <cc:Work
         rdf:about="">
        <dc:format>image/svg+xml</dc:format>
        <dc:type
           rdf:resource="http://purl.org/dc/dcmitype/StillImage" />
        <dc:title />
      </cc:Work>
    </rdf:RDF>
  </metadata>
  <g
     inkscape:label="Layer 1"
     inkscape:groupmode="layer"
     id="layer1"
     transform="translate(-11.141998,-1.3325924)">
    <path
       fill="#ffa500"
       stroke="#000000"
       stroke-miterlimit="10"
       d="m 11.406581,9.0055091 4.497917,-7.4083334 4.497916,7.4083334 z"
       id="path4"
       style="fill:#ffa500;stroke-width:0.264583;fill-opacity:1" />
    <g
       id="g2096"
       transform="matrix(1.4641,0,0,1.4641,-7.384572,-1.4590258)">
      <path
         fill="#e6e8ef"
         opacity="1"
         d="m 14.876573,4.8274914 c 0.168487,-0.1769533 0.417971,-0.27178 0.661247,-0.2547055 0.263172,0.012841 0.520277,0.1531055 0.660259,0.3786011 0.126153,-0.078317 0.281658,-0.1085145 0.427425,-0.077329 0.209127,0.0381 0.392854,0.2118078 0.416701,0.4272844 0.196145,0.029492 0.385234,0.13843 0.488527,0.3110089 0.09088,0.1446389 0.104563,0.3321756 0.0429,0.4906433 -0.09821,0.2473678 -0.362938,0.4031545 -0.624558,0.4017434 -0.668161,0.00169 -1.336463,0 -2.004624,8.466e-4 -0.08608,1.412e-4 -0.173285,-0.00198 -0.25654,-0.026106 -0.165947,-0.044732 -0.316654,-0.1524 -0.403014,-0.30226 -0.09948,-0.1711677 -0.09708,-0.396381 0.0078,-0.5645855 0.08467,-0.1452033 0.234103,-0.2404533 0.391724,-0.2894189 1.41e-4,-0.1814688 0.06421,-0.3649133 0.192193,-0.4957233"
         id="path2"
         style="fill:none;stroke:#000000;stroke-width:0.153;stroke-miterlimit:4;stroke-dasharray:none;stroke-opacity:1"
         sodipodi:nodetypes="cccccccccccccc" />
      <g
         id="g851"
         transform="matrix(0.35277777,0,0,0.35277777,-36.208533,-25.887396)">
        <g
           id="#00a4b4ff"
           transform="matrix(0.04,0,0,0.04,141.61678,85.625285)"
           style="fill:#000000;stroke:none;stroke-width:0;stroke-miterlimit:4;stroke-dasharray:none;stroke-opacity:1">
          <path
             fill="#00a4b4"
             opacity="1"
             d="m 83.96,65.95 c 44.02,-0.01 88.05,-0.01 132.08,0 0.02,3.55 0.02,7.1 -0.01,10.65 -44.02,0 -88.04,0 -132.06,0 -0.03,-3.55 -0.03,-7.1 -0.01,-10.65 z"
             id="path5"
             style="fill:#000000;stroke:none;stroke-width:0;stroke-miterlimit:4;stroke-dasharray:none;stroke-opacity:1" />
          <path
             fill="#00a4b4"
             opacity="1"
             d="m 83.94,86.22 c 44.03,0 88.06,-0.01 132.09,0 0.03,3.61 0.03,7.22 0.01,10.83 -44.03,0.01 -88.06,0 -132.09,0 -0.01,-3.61 0,-7.22 -0.01,-10.83 z"
             id="path7"
             style="fill:#000000;stroke:none;stroke-width:0;stroke-miterlimit:4;stroke-dasharray:none;stroke-opacity:1" />
          <path
             fill="#00a4b4"
             opacity="1"
             d="m 83.96,106.95 c 44.02,-0.01 88.05,-0.01 132.08,0 0.02,3.59 0.02,7.18 -0.01,10.77 -44.02,0.01 -88.04,0.01 -132.06,0 -0.03,-3.59 -0.03,-7.18 -0.01,-10.77 z"
             id="path9"
             style="fill:#000000;stroke:none;stroke-width:0;stroke-miterlimit:4;stroke-dasharray:none;stroke-opacity:1" />
          <path
             fill="#00a4b4"
             opacity="1"
             d="m 83.98,127.4 c 44.02,0.01 88.03,0 132.05,0 0.03,3.55 0.03,7.1 0.01,10.65 -44.02,0.01 -88.05,0.01 -132.08,0 -0.03,-3.56 -0.03,-7.11 0.02,-10.65 z"
             id="path11"
             style="fill:#000000;stroke:none;stroke-width:0;stroke-miterlimit:4;stroke-dasharray:none;stroke-opacity:1" />
        </g>
      </g>
    </g>
  </g>
</svg>
