<?xml version="1.0" encoding="UTF-8" standalone="no"?>
<svg
   xmlns:dc="http://purl.org/dc/elements/1.1/"
   xmlns:cc="http://creativecommons.org/ns#"
   xmlns:rdf="http://www.w3.org/1999/02/22-rdf-syntax-ns#"
   xmlns:svg="http://www.w3.org/2000/svg"
   xmlns="http://www.w3.org/2000/svg"
   xmlns:sodipodi="http://sodipodi.sourceforge.net/DTD/sodipodi-0.dtd"
   xmlns:inkscape="http://www.inkscape.org/namespaces/inkscape"
   width="9.4660034mm"
   height="7.7955327mm"
   viewBox="0 0 9.4660034 7.7955327"
   version="1.1"
   id="svg86"
   inkscape:version="1.0.1 (3bc2e813f5, 2020-09-07)"
   sodipodi:docname="rainbow_m_g.svg">
  <defs
     id="defs80" />
  <sodipodi:namedview
     id="base"
     pagecolor="#ffffff"
     bordercolor="#666666"
     borderopacity="1.0"
     inkscape:pageopacity="0.0"
     inkscape:pageshadow="2"
     inkscape:zoom="20.795471"
     inkscape:cx="17.88851"
     inkscape:cy="14.731715"
     inkscape:document-units="mm"
     inkscape:current-layer="layer1"
     inkscape:document-rotation="0"
     showgrid="true"
     inkscape:window-width="1431"
     inkscape:window-height="1033"
     inkscape:window-x="241"
     inkscape:window-y="0"
     inkscape:window-maximized="0">
    <inkscape:grid
       type="xygrid"
       id="grid2589" />
  </sodipodi:namedview>
  <metadata
     id="metadata83">
    <rdf:RDF>
      <cc:Work
         rdf:about="">
        <dc:format>image/svg+xml</dc:format>
        <dc:type
           rdf:resource="http://purl.org/dc/dcmitype/StillImage" />
        <dc:title></dc:title>
      </cc:Work>
    </rdf:RDF>
  </metadata>
  <g
     inkscape:label="Layer 1"
     inkscape:groupmode="layer"
     id="layer1"
     transform="translate(-11.141998,-1.3325924)">
    <path
       fill="#ff9900"
       stroke="#000000"
       stroke-miterlimit="10"
       d="m 11.406581,9.0055091 4.497917,-7.4083334 4.497916,7.4083334 z"
       id="path4"
       style="fill:#90ee90;stroke-width:0.264583;fill-opacity:1" />
    <g
       fill="none"
       fill-rule="evenodd"
       id="Page-1"
       stroke="none"
       stroke-width="1"
       style="fill:#000000"
       transform="matrix(0.13229167,0,0,0.13229166,13.790491,4.6213868)">
      <g
         fill="#157EFB"
         id="icon-34-rainbow"
         style="fill:#000000">
        <path
           d="m 16,11 c 8.633641,0 15.670127,6.83823 15.988734,15.393966 C 31.996114,26.428142 32,26.463617 32,26.5 32,26.776142 31.776142,27 31.5,27 31.223858,27 31,26.776142 31,26.5 30.72808,18.447188 24.116951,12 16,12 7.883049,12 1.2719202,18.447188 1.0081763,26.5 1,26.776142 0.77614239,27 0.5,27 0.22385761,27 0,26.776142 0,26.5 0,26.463617 0.00388599,26.428142 0.01126555,26.393966 0.3298734,17.83823 7.3663592,11 16,11 Z m 0,2 c 7.525957,0 13.66492,5.938423 13.986739,13.385119 C 29.995412,26.422006 30,26.460467 30,26.5 30,26.776142 29.776142,27 29.5,27 29.223858,27 29,26.776142 29,26.5 28.727812,19.552014 23.012277,14 16,14 8.9877226,14 3.2721883,19.552014 3.0094384,26.5 3,26.776142 2.7761424,27 2.5,27 2.2238576,27 2,26.776142 2,26.5 2,26.460467 2.004588,26.422006 2.0132606,26.385119 2.33508,18.938423 8.4740431,13 16,13 Z m 0,2 c 6.417388,0 11.658215,5.037454 11.983944,11.373825 C 27.994423,26.414131 28,26.456414 28,26.5 28,26.776142 27.776142,27 27.5,27 27.223858,27 27,26.776142 27,26.5 26.727443,20.656933 21.907564,16 16,16 10.092436,16 5.2725568,20.656933 5.0111613,26.5 5,26.776142 4.7761424,27 4.5,27 4.2238576,27 4,26.776142 4,26.5 4,26.456414 4.005577,26.414131 4.0160562,26.373825 4.3417846,20.037454 9.5826118,15 16,15 Z M 0.50264358,28 C 0.2250412,28 0,28.231934 0,28.5 0,28.776142 0.22143125,29 0.50264358,29 H 31.497356 C 31.774959,29 32,28.768066 32,28.5 32,28.223858 31.778569,28 31.497356,28 Z M 28,12.5 C 28,9.4624337 25.537566,7 22.5,7 c -2.165626,0 -4.038915,1.2516415 -4.935934,3.07099 3.863384,0.352408 7.353138,1.997425 10.033135,4.498921 C 27.856922,13.930981 28,13.232199 28,12.5 Z M 22,3.495389 V 5.504611 C 22,5.7782068 22.231934,6 22.5,6 22.776142,6 23,5.7842474 23,5.504611 V 3.495389 C 23,3.2217932 22.768066,3 22.5,3 22.223858,3 22,3.2157526 22,3.495389 Z m 6.534212,2.2923455 -1.420735,1.4207345 c -0.193461,0.1934614 -0.186291,0.5142947 0.0033,0.7038463 0.195263,0.1952621 0.506114,0.2009932 0.703847,0.00326 L 29.241318,6.4948412 C 29.43478,6.3013798 29.427609,5.9805465 29.238058,5.7909949 29.042796,5.5957328 28.731944,5.5900017 28.534212,5.7877345 Z m 2.999452,6.2413185 h -2.009222 c -0.273596,0 -0.495389,0.231933 -0.495389,0.5 0,0.276142 0.215752,0.5 0.495389,0.5 h 2.009222 c 0.273595,0 0.495389,-0.231934 0.495389,-0.5 0,-0.276143 -0.215753,-0.5 -0.495389,-0.5 z M 15.758682,6.4948412 17.179416,7.9155758 c 0.193462,0.1934614 0.514295,0.186291 0.703846,-0.00326 0.195263,-0.1952622 0.200994,-0.5061136 0.0033,-0.7038463 L 16.465788,5.7877345 C 16.272327,5.594273 15.951494,5.6014433 15.761942,5.7909945 15.56668,5.9862567 15.560949,6.297108 15.758642,6.4948408 Z"
           id="rainbow"
           style="fill:#000000" />
      </g>
    </g>
  </g>
</svg>
