<?xml version="1.0" encoding="UTF-8" standalone="no"?>
<svg
   xmlns:dc="http://purl.org/dc/elements/1.1/"
   xmlns:cc="http://creativecommons.org/ns#"
   xmlns:rdf="http://www.w3.org/1999/02/22-rdf-syntax-ns#"
   xmlns:svg="http://www.w3.org/2000/svg"
   xmlns="http://www.w3.org/2000/svg"
   xmlns:sodipodi="http://sodipodi.sourceforge.net/DTD/sodipodi-0.dtd"
   xmlns:inkscape="http://www.inkscape.org/namespaces/inkscape"
   width="9.4660034mm"
   height="7.7955327mm"
   viewBox="0 0 9.4660034 7.7955327"
   version="1.1"
   id="svg86"
   inkscape:version="1.0.1 (3bc2e813f5, 2020-09-07)"
   sodipodi:docname="noalert.svg">
  <defs
     id="defs80" />
  <sodipodi:namedview
     id="base"
     pagecolor="#ffffff"
     bordercolor="#666666"
     borderopacity="1.0"
     inkscape:pageopacity="0.0"
     inkscape:pageshadow="2"
     inkscape:zoom="10.397736"
     inkscape:cx="17.88851"
     inkscape:cy="14.539365"
     inkscape:document-units="mm"
     inkscape:current-layer="layer1"
     inkscape:document-rotation="0"
     showgrid="true"
     inkscape:window-width="1431"
     inkscape:window-height="1033"
     inkscape:window-x="128"
     inkscape:window-y="0"
     inkscape:window-maximized="0">
    <inkscape:grid
       type="xygrid"
       id="grid2589" />
  </sodipodi:namedview>
  <metadata
     id="metadata83">
    <rdf:RDF>
      <cc:Work
         rdf:about="">
        <dc:format>image/svg+xml</dc:format>
        <dc:type
           rdf:resource="http://purl.org/dc/dcmitype/StillImage" />
        <dc:title></dc:title>
      </cc:Work>
    </rdf:RDF>
  </metadata>
  <g
     inkscape:label="Layer 1"
     inkscape:groupmode="layer"
     id="layer1"
     transform="translate(-11.141998,-1.3325924)">
    <path
       fill="#ff9900"
       stroke="#000000"
       stroke-miterlimit="10"
       d="m 11.406581,9.0055091 4.497917,-7.4083334 4.497916,7.4083334 z"
       id="path4"
       style="fill:none;stroke-width:0.264583" />
    <g
       id="g16"
       transform="matrix(0.01322917,0,0,0.01322917,8.2183279,-2.1202235)" />
    <g
       id="g18"
       transform="matrix(0.01322917,0,0,0.01322917,8.2183279,-2.1202235)" />
    <g
       id="g20"
       transform="matrix(0.01322917,0,0,0.01322917,8.2183279,-2.1202235)" />
    <g
       id="g22"
       transform="matrix(0.01322917,0,0,0.01322917,8.2183279,-2.1202235)" />
    <g
       id="g24"
       transform="matrix(0.01322917,0,0,0.01322917,8.2183279,-2.1202235)" />
    <g
       id="g26"
       transform="matrix(0.01322917,0,0,0.01322917,8.2183279,-2.1202235)" />
    <g
       id="g28"
       transform="matrix(0.01322917,0,0,0.01322917,8.2183279,-2.1202235)" />
    <g
       id="g30"
       transform="matrix(0.01322917,0,0,0.01322917,8.2183279,-2.1202235)" />
    <g
       id="g32"
       transform="matrix(0.01322917,0,0,0.01322917,8.2183279,-2.1202235)" />
    <g
       id="g34"
       transform="matrix(0.01322917,0,0,0.01322917,8.2183279,-2.1202235)" />
    <g
       id="g36"
       transform="matrix(0.01322917,0,0,0.01322917,8.2183279,-2.1202235)" />
    <g
       id="g38"
       transform="matrix(0.01322917,0,0,0.01322917,8.2183279,-2.1202235)" />
    <g
       id="g40"
       transform="matrix(0.01322917,0,0,0.01322917,8.2183279,-2.1202235)" />
    <g
       id="g42"
       transform="matrix(0.01322917,0,0,0.01322917,8.2183279,-2.1202235)" />
    <g
       id="g44"
       transform="matrix(0.01322917,0,0,0.01322917,8.2183279,-2.1202235)" />
    <path
       style="fill:#000000;stroke:#000000;stroke-width:0.130222;stroke-miterlimit:10"
       d="m 15.375301,7.6826624 c -0.0176,-0.005 -0.0428,-0.0157 -0.0561,-0.024 -0.0427,-0.0267 -0.64203,-0.63351 -0.66002,-0.6683002 -0.0228,-0.044 -0.0231,-0.1239499 -7.7e-4,-0.16623 0.0357,-0.0674 0.10302,-0.1101199 0.17321,-0.10985 0.0806,2.99e-4 0.0885,0.006 0.34784,0.2657802 0.1291,0.1291499 0.23791,0.2348099 0.24179,0.2348099 0.004,0 0.38276,-0.3759101 0.84194,-0.8353599 0.63954,-0.6399102 0.84308,-0.8395902 0.86995,-0.8534402 0.0914,-0.0471 0.20591,-0.007 0.25762,0.0911 0.0224,0.0425 0.0221,0.12231 -6.1e-4,0.16644 -0.0115,0.0223 -0.28715,0.3027 -0.93294,0.94912 -0.73732,0.7380302 -0.92353,0.9208502 -0.95174,0.9344602 -0.0444,0.0214 -0.0894,0.0268 -0.13014,0.0154 z"
       id="path863" />
    <path
       style="fill:#a0fba0;stroke:none;stroke-width:0.0961748;fill-opacity:1"
       d="M 2.0937417,28.316403 C 2.1314329,28.21909 17.907804,2.1946223 17.982111,2.1071834 17.997843,2.088671 29.267577,20.601745 33.786844,28.070015 l 0.221844,0.366607 H 18.027934 c -12.745321,0 -15.971328,-0.02434 -15.9341923,-0.120219 z M 16.840201,24.022357 c 0.419943,-0.312087 6.625062,-6.537622 6.948513,-6.971374 0.113792,-0.152597 0.206895,-0.38196 0.206895,-0.509693 0,-0.625564 -0.660284,-1.16976 -1.259587,-1.038131 -0.196005,0.04305 -1.204767,0.978949 -3.42271,3.175489 l -3.144799,3.114448 -0.890874,-0.86184 c -0.776245,-0.750946 -0.934161,-0.861841 -1.227279,-0.861841 -0.683554,0 -1.114851,0.407929 -1.114851,1.054446 0,0.238115 0.177503,0.488852 0.925759,1.307708 1.730384,1.893651 2.219755,2.154981 2.978933,1.590788 z"
       id="path2052"
       transform="matrix(0.26458333,0,0,0.26458333,11.141998,1.3325924)" />
  </g>
</svg>
