<?xml version="1.0" encoding="UTF-8" standalone="no"?>
<svg
   xmlns:dc="http://purl.org/dc/elements/1.1/"
   xmlns:cc="http://creativecommons.org/ns#"
   xmlns:rdf="http://www.w3.org/1999/02/22-rdf-syntax-ns#"
   xmlns:svg="http://www.w3.org/2000/svg"
   xmlns="http://www.w3.org/2000/svg"
   xmlns:sodipodi="http://sodipodi.sourceforge.net/DTD/sodipodi-0.dtd"
   xmlns:inkscape="http://www.inkscape.org/namespaces/inkscape"
   width="9.4660034mm"
   height="7.7955327mm"
   viewBox="0 0 9.4660034 7.7955327"
   version="1.1"
   id="svg86"
   inkscape:version="1.0.1 (3bc2e813f5, 2020-09-07)"
   sodipodi:docname="Rain_Orange.svg">
  <defs
     id="defs80" />
  <sodipodi:namedview
     id="base"
     pagecolor="#ffffff"
     bordercolor="#666666"
     borderopacity="1.0"
     inkscape:pageopacity="0.0"
     inkscape:pageshadow="2"
     inkscape:zoom="20.795471"
     inkscape:cx="17.88851"
     inkscape:cy="14.63554"
     inkscape:document-units="mm"
     inkscape:current-layer="layer1"
     inkscape:document-rotation="0"
     showgrid="true"
     inkscape:window-width="1431"
     inkscape:window-height="1033"
     inkscape:window-x="241"
     inkscape:window-y="0"
     inkscape:window-maximized="0">
    <inkscape:grid
       type="xygrid"
       id="grid2589" />
  </sodipodi:namedview>
  <metadata
     id="metadata83">
    <rdf:RDF>
      <cc:Work
         rdf:about="">
        <dc:format>image/svg+xml</dc:format>
        <dc:type
           rdf:resource="http://purl.org/dc/dcmitype/StillImage" />
        <dc:title />
      </cc:Work>
    </rdf:RDF>
  </metadata>
  <g
     inkscape:label="Layer 1"
     inkscape:groupmode="layer"
     id="layer1"
     transform="translate(-11.141998,-1.3325924)">
    <path
       fill="#ffa500"
       stroke="#000000"
       stroke-miterlimit="10"
       d="m 11.406581,9.0055091 4.497917,-7.4083334 4.497916,7.4083334 z"
       id="path4"
       style="fill:#ffa500;stroke-width:0.264583;fill-opacity:1" />
    <g
       id="g836"
       transform="matrix(1.21,0,0,1.21,-3.2526188,-0.54000833)">
      <path
         fill="#e6e8ef"
         opacity="1"
         d="m 14.797199,4.8274914 c 0.168487,-0.1769533 0.417971,-0.27178 0.661247,-0.2547055 0.263172,0.012841 0.520277,0.1531055 0.660259,0.3786011 0.126153,-0.078317 0.281658,-0.1085145 0.427425,-0.077329 0.209127,0.0381 0.392854,0.2118078 0.416701,0.4272844 0.196145,0.029492 0.385234,0.13843 0.488527,0.3110089 0.09088,0.1446389 0.104563,0.3321756 0.0429,0.4906433 -0.09821,0.2473678 -0.362938,0.4031545 -0.624558,0.4017434 -0.668161,0.00169 -1.336463,0 -2.004624,8.466e-4 -0.08608,1.412e-4 -0.173285,-0.00198 -0.25654,-0.026106 -0.165947,-0.044732 -0.316654,-0.1524 -0.403014,-0.30226 -0.09948,-0.1711677 -0.09708,-0.396381 0.0078,-0.5645855 0.08467,-0.1452033 0.234103,-0.2404533 0.391724,-0.2894189 1.41e-4,-0.1814688 0.06421,-0.3649133 0.192193,-0.4957233"
         id="path2"
         style="fill:none;stroke:#000000;stroke-width:0.153;stroke-miterlimit:4;stroke-dasharray:none;stroke-opacity:1"
         sodipodi:nodetypes="cccccccccccccc" />
      <path
         fill="#00a4b4"
         stroke="#00a4b4"
         stroke-width="0.1"
         d="m 14.76679,6.5655093 h 0.244122 c 0.112889,0.2201333 0.221544,0.4430888 0.335844,0.6632221 h -0.227189 c -0.01975,0.00564 -0.02822,-0.016933 -0.03528,-0.031044 -0.1016,-0.2116667 -0.211667,-0.4190999 -0.314678,-0.6307666 z m 0.338666,0 h 0.244122 c 0.112889,0.2201333 0.221545,0.4416777 0.335845,0.6632221 h -0.227189 c -0.01976,0.00423 -0.02822,-0.018344 -0.03528,-0.031044 -0.1016,-0.2116667 -0.211666,-0.4190999 -0.314678,-0.6307666 z m 0.338667,0 h 0.244122 c 0.112889,0.2187222 0.222956,0.4416777 0.334433,0.6632221 -0.08467,0 -0.169333,0.00706 -0.249766,-0.00564 z m 0.338666,0 h 0.239889 c 0.115711,0.2173111 0.222956,0.4416777 0.335845,0.6632221 -0.08467,0 -0.169334,0.00706 -0.249767,-0.00564 z m 0.338667,0 h 0.245533 l 0.3048,0.6067777 c 0.01129,0.014111 0.0099,0.036689 0.01411,0.056444 h -0.225778 l -0.0099,-0.00706 z m 0.338667,0 c 0.08184,0 0.163689,0.00282 0.244122,-0.00282 l 0.306211,0.6067776 c 0.01129,0.018345 0.0099,0.039511 0.01411,0.056445 -0.07902,0 -0.160866,0.011289 -0.235655,-0.00423 C 16.680256,7.0029536 16.567367,6.7842315 16.460123,6.5655093 Z"
         id="path8"
         style="fill:#000000;fill-opacity:1;stroke:#73c6d1;stroke-width:0;stroke-miterlimit:4;stroke-dasharray:none;stroke-opacity:1" />
    </g>
  </g>
</svg>
