<?xml version="1.0" encoding="UTF-8" standalone="no"?>
<svg
   xmlns:dc="http://purl.org/dc/elements/1.1/"
   xmlns:cc="http://creativecommons.org/ns#"
   xmlns:rdf="http://www.w3.org/1999/02/22-rdf-syntax-ns#"
   xmlns:svg="http://www.w3.org/2000/svg"
   xmlns="http://www.w3.org/2000/svg"
   xmlns:sodipodi="http://sodipodi.sourceforge.net/DTD/sodipodi-0.dtd"
   xmlns:inkscape="http://www.inkscape.org/namespaces/inkscape"
   width="9.4660034mm"
   height="7.7955327mm"
   viewBox="0 0 9.4660034 7.7955327"
   version="1.1"
   id="svg86"
   inkscape:version="1.0.1 (3bc2e813f5, 2020-09-07)"
   sodipodi:docname="lightning_m_r.svg">
  <defs
     id="defs80" />
  <sodipodi:namedview
     id="base"
     pagecolor="#ffffff"
     bordercolor="#666666"
     borderopacity="1.0"
     inkscape:pageopacity="0.0"
     inkscape:pageshadow="2"
     inkscape:zoom="20.795471"
     inkscape:cx="17.88851"
     inkscape:cy="14.731715"
     inkscape:document-units="mm"
     inkscape:current-layer="layer1"
     inkscape:document-rotation="0"
     showgrid="true"
     inkscape:window-width="1431"
     inkscape:window-height="1033"
     inkscape:window-x="241"
     inkscape:window-y="0"
     inkscape:window-maximized="0">
    <inkscape:grid
       type="xygrid"
       id="grid2589" />
  </sodipodi:namedview>
  <metadata
     id="metadata83">
    <rdf:RDF>
      <cc:Work
         rdf:about="">
        <dc:format>image/svg+xml</dc:format>
        <dc:type
           rdf:resource="http://purl.org/dc/dcmitype/StillImage" />
        <dc:title></dc:title>
      </cc:Work>
    </rdf:RDF>
  </metadata>
  <g
     inkscape:label="Layer 1"
     inkscape:groupmode="layer"
     id="layer1"
     transform="translate(-11.141998,-1.3325924)">
    <path
       fill="#00a4b4"
       stroke="#00a4b4"
       stroke-width="0.1"
       d="m 14.282603,5.6335926 h 0.268534 c 0.124178,0.2421467 0.243699,0.4873977 0.369429,0.7295443 h -0.249908 c -0.02172,0.0062 -0.03104,-0.018626 -0.03881,-0.034148 C 14.52009,6.0961552 14.399016,5.8679787 14.285704,5.6351453 Z m 0.372533,0 h 0.268534 c 0.124178,0.2421467 0.243699,0.4858455 0.369429,0.7295443 h -0.249908 c -0.02174,0.00465 -0.03104,-0.020178 -0.03881,-0.034148 -0.11176,-0.2328333 -0.232832,-0.4610098 -0.346145,-0.6938432 z m 0.372533,0 h 0.268534 c 0.124178,0.2405945 0.245252,0.4858455 0.367877,0.7295443 -0.09314,0 -0.186267,0.00777 -0.274743,-0.0062 z m 0.372533,0 h 0.263878 c 0.127282,0.2390422 0.245251,0.4858455 0.369429,0.7295443 -0.09314,0 -0.186267,0.00777 -0.274744,-0.0062 z m 0.372534,0 h 0.270086 l 0.33528,0.6674555 c 0.01242,0.015522 0.01089,0.040358 0.01552,0.062088 h -0.248356 l -0.01089,-0.00777 z m 0.372533,0 c 0.09002,0 0.180058,0.0031 0.268534,-0.0031 l 0.336833,0.6674554 c 0.01242,0.02018 0.01089,0.043462 0.01552,0.06209 -0.08692,0 -0.176952,0.012418 -0.25922,-0.00465 C 16.387415,6.1147814 16.263238,5.874187 16.145269,5.6335926 Z"
       id="path8"
       style="fill:#000000;fill-opacity:1;stroke:#73c6d1;stroke-width:0;stroke-miterlimit:4;stroke-dasharray:none;stroke-opacity:1" />
    <path
       fill="#ff9900"
       stroke="#000000"
       stroke-miterlimit="10"
       d="m 11.406581,9.0055091 4.497917,-7.4083334 4.497916,7.4083334 z"
       id="path4"
       style="fill:#ff0000;stroke-width:0.264583;fill-opacity:1" />
    <g
       id="g2059"
       transform="matrix(1.1,0,0,1.1,-1.5349755,0.08265494)">
      <g
         id="g861"
         transform="matrix(0.01411111,0,0,0.01411111,13.830868,5.8414454)">
        <path
           fill="#ff8841"
           stroke="#ff8841"
           stroke-width="0.1"
           d="M 104.2,51 H 131 l -1.6,2 -3,4.3 5.5,0.7 6.8,1 15.6,2 -9.8,9 -4.5,4.2 -12,11 -4.4,4 c -3,3 -6.3,6 -9.4,8.8 l -25,22.7 18,-29 c 3.4,-5 6.6,-10.3 10,-15.5 1,-2 2.3,-4 3.5,-6 l -7,-0.8 L 95,67 h -0.5 c 3,-5.5 6.5,-10.7 9.7,-16 z"
           id="path8-0"
           style="fill:#000000;fill-opacity:1" />
        <path
           fill="#ff8841"
           stroke="#ff8841"
           stroke-width="0.1"
           d="m 169,51 h 21.7 l -4.5,6.3 c -1,1 -1.7,2.3 -2.5,3.5 l 4.5,0.6 c 6,0.6 11.7,2 17.7,1.8 v 0.6 c -3.8,3.4 -7.7,6.8 -11.4,10.3 -1.5,1.5 -3,2.8 -4.5,4 -3.8,3.7 -7.8,7.2 -11.6,11 l -4.8,4.2 -5.3,4.8 -14.3,13 8,-13 8,-12.2 c 1,-2 2.3,-3.8 3.5,-5.7 l 5.7,-9 -11,-1.3 -7,-0.8 -3,-0.5 c 0.4,-1 1,-1.8 1.6,-2.8 l 3.6,-5.7 5.6,-9 z"
           id="path12"
           style="fill:#000000;fill-opacity:1" />
      </g>
      <path
         fill="#e6e8ef"
         opacity="1"
         d="m 14.715425,4.6358905 c 0.185336,-0.1946486 0.459768,-0.298958 0.727372,-0.280176 0.289489,0.014125 0.572304,0.168416 0.726284,0.4164612 0.138769,-0.086149 0.309824,-0.1193659 0.470168,-0.085062 0.23004,0.04191 0.432139,0.2329886 0.458371,0.4700128 0.21576,0.032441 0.423757,0.152273 0.53738,0.3421098 0.09997,0.1591028 0.115019,0.3653932 0.04719,0.5397077 -0.108031,0.2721045 -0.399232,0.4434699 -0.687014,0.4419177 -0.734977,0.00186 -1.470109,0 -2.205086,9.313e-4 C 14.6954,6.4819483 14.599476,6.479613 14.507896,6.453076 14.325354,6.403871 14.159576,6.285436 14.06458,6.12059 13.955152,5.9323055 13.957792,5.6845709 14.07318,5.4995459 c 0.09314,-0.1597236 0.257513,-0.2644986 0.430897,-0.3183608 1.55e-4,-0.1996157 0.07063,-0.4014046 0.211412,-0.5452956"
         id="path2"
         style="fill:none;stroke:#000000;stroke-width:0.1683;stroke-miterlimit:4;stroke-dasharray:none;stroke-opacity:1"
         sodipodi:nodetypes="cccccccccccccc" />
    </g>
  </g>
</svg>
