<?xml version="1.0" encoding="UTF-8" ?>
<!DOCTYPE svg PUBLIC "-//W3C//DTD SVG 1.1//EN" "http://www.w3.org/Graphics/SVG/1.1/DTD/svg11.dtd">
<svg width="302pt" height="255pt" viewBox="0 0 302 255" version="1.1" xmlns="http://www.w3.org/2000/svg">
<g id="#e4e3e3ff">
<path fill="#e6e8ef" opacity="1.00" d=" M 68.14 41.82 C 77.45 27.34 93.81 17.81 110.90 16.32 C 132.83 13.76 156.10 23.98 167.84 42.93 C 176.49 37.54 187.12 35.33 197.16 37.28 C 209.71 39.35 221.36 48.00 225.73 60.13 C 226.83 62.63 226.84 65.48 227.90 67.97 C 241.48 69.88 254.47 77.39 261.83 89.11 C 268.96 100.07 269.97 114.74 264.41 126.56 C 258.34 139.40 245.86 148.59 232.13 151.70 C 227.52 152.85 222.73 152.97 218.00 153.05 C 170.35 153.03 122.70 153.08 75.04 153.03 C 62.32 153.15 49.51 148.49 40.20 139.75 C 32.60 132.61 27.31 122.63 27.07 112.07 C 26.62 104.11 28.88 96.16 33.01 89.38 C 39.06 79.37 49.40 72.76 60.35 69.23 C 60.63 59.63 62.94 49.98 68.14 41.82 M 186.28 86.29 C 180.96 88.83 178.13 94.46 177.27 100.05 C 173.57 102.97 168.70 105.09 167.19 110.03 C 166.74 113.79 166.19 118.18 168.68 121.38 C 171.32 124.99 175.42 128.05 180.06 128.03 C 197.05 128.00 214.03 127.96 231.01 128.04 C 235.72 128.25 240.03 125.30 242.83 121.72 C 247.23 115.96 245.21 106.81 239.08 103.08 C 236.53 101.13 232.29 101.36 231.35 97.72 C 228.56 90.62 219.23 88.45 212.85 91.98 C 209.73 88.35 205.83 85.11 201.02 84.14 C 196.05 83.69 190.62 83.33 186.28 86.29 Z" />
</g>
<g id="#ff8841ff">
<path fill="#d05f2d" opacity="1.00" d=" M 33.01 89.38 C 33.80 68.36 48.36 48.84 68.14 41.82 C 62.94 49.98 60.63 59.63 60.35 69.23 C 49.40 72.76 39.06 79.37 33.01 89.38 Z" />
</g>
<g id="#aca6a6ff">
<path fill="#777" opacity="1.00" d=" M 186.28 86.29 C 190.62 83.33 196.05 83.69 201.02 84.14 C 205.83 85.11 209.73 88.35 212.85 91.98 C 219.23 88.45 228.56 90.62 231.35 97.72 C 232.29 101.36 236.53 101.13 239.08 103.08 C 245.21 106.81 247.23 115.96 242.83 121.72 C 240.03 125.30 235.72 128.25 231.01 128.04 C 214.03 127.96 197.05 128.00 180.06 128.03 C 175.42 128.05 171.32 124.99 168.68 121.38 C 166.19 118.18 166.74 113.79 167.19 110.03 C 168.70 105.09 173.57 102.97 177.27 100.05 C 178.13 94.46 180.96 88.83 186.28 86.29 Z" />
</g>
</svg>
