<?xml version="1.0" encoding="UTF-8" ?>
<svg width="302pt" height="255pt" viewBox="0 0 302 255" version="1.1" xmlns="http://www.w3.org/2000/svg">
<path fill="#565f67" stroke="#565f67" stroke-width="0.09375" opacity="1.00" d=" M 81.78 27.75 C 91.35 20.69 103.10 16.76 114.96 16.31 C 135.58 14.98 156.51 25.32 167.70 42.76 C 178.93 35.89 193.37 34.40 205.58 39.53 C 217.20 44.04 225.95 55.00 227.65 67.38 C 240.88 69.57 253.71 76.54 261.14 87.95 C 268.49 98.59 270.02 112.97 265.04 124.91 C 258.16 141.02 241.17 151.47 223.94 152.35 C 213.64 152.79 203.33 152.32 193.03 152.48 C 183.48 152.43 173.94 152.97 164.40 152.61 C 147.60 152.15 130.80 152.95 114.01 152.54 C 104.95 152.70 95.89 152.44 86.83 152.58 C 79.27 152.21 71.61 153.13 64.14 151.57 C 55.59 149.82 47.46 145.86 40.99 139.98 C 33.48 132.97 28.21 123.39 27.18 113.10 C 26.60 104.02 28.80 94.62 34.25 87.22 C 40.53 78.26 50.17 72.17 60.49 68.88 C 60.35 52.81 68.41 36.78 81.78 27.75 Z" />
<path fill="#00a4b4" stroke="#00a4b4" stroke-width="0.09375" opacity="1.00" d=" M 69.24 152.79 C 75.05 153.04 80.97 152.21 86.70 153.21 C 89.61 158.18 91.88 163.50 94.61 168.57 L 94.88 169.08 C 98.99 177.23 103.12 185.38 107.24 193.53 C 105.92 195.59 104.61 197.66 103.32 199.74 C 99.94 199.70 96.54 199.94 93.17 199.59 C 92.09 198.66 91.53 197.29 90.85 196.07 C 83.70 181.62 76.44 167.22 69.24 152.79 Z" />
<path fill="#00a4b4" stroke="#00a4b4" stroke-width="0.09375" opacity="1.00" d=" M 93.39 152.84 C 97.02 152.76 100.65 152.78 104.29 152.89 C 102.31 156.15 100.30 159.40 98.29 162.64 C 96.61 159.40 94.99 156.12 93.39 152.84 Z" />
<path fill="#d05f2d" stroke="#d05f2d" stroke-width="0.09375" opacity="1.00" d=" M 104.29 152.89 C 113.23 152.85 122.19 153.17 131.13 152.80 C 129.64 154.94 128.16 157.08 126.67 159.22 C 130.61 159.80 134.56 160.32 138.51 160.80 C 140.88 161.11 143.25 161.44 145.62 161.74 C 148.49 162.13 151.36 162.54 154.23 162.96 C 152.45 164.63 150.66 166.31 148.86 167.97 C 147.37 169.34 145.88 170.71 144.39 172.08 C 140.40 175.73 136.42 179.39 132.44 183.06 C 130.95 184.44 129.46 185.81 127.96 187.19 C 124.13 190.74 120.19 194.16 116.49 197.85 C 107.18 206.08 98.21 214.67 88.96 222.97 C 93.65 215.17 98.56 207.50 103.32 199.74 C 104.61 197.66 105.92 195.59 107.24 193.53 C 108.44 191.63 109.66 189.74 110.87 187.85 C 114.16 182.76 117.37 177.64 120.41 172.40 C 114.26 171.54 108.10 170.77 101.94 170.01 C 99.59 169.72 97.23 169.45 94.88 169.08 L 94.61 168.57 C 95.86 166.61 97.08 164.63 98.29 162.64 C 100.30 159.40 102.31 156.15 104.29 152.89 Z" />
<path fill="#00a4b4" stroke="#00a4b4" stroke-width="0.09375" opacity="1.00" d=" M 131.13 152.80 C 132.34 152.80 133.53 152.94 134.70 153.22 C 136.27 155.59 137.34 158.23 138.51 160.80 C 134.56 160.32 130.61 159.80 126.67 159.22 C 128.16 157.08 129.64 154.94 131.13 152.80 Z" />
<path fill="#00a4b4" stroke="#00a4b4" stroke-width="0.09375" opacity="1.00" d=" M 141.23 152.85 C 147.04 153.00 152.97 152.18 158.70 153.22 C 160.57 156.13 161.87 159.35 163.39 162.45 C 161.64 165.19 159.97 167.98 158.28 170.76 C 161.64 171.18 164.99 171.60 168.35 171.99 C 170.08 175.47 171.84 178.93 173.39 182.50 C 170.16 187.56 166.95 192.64 163.72 197.71 C 158.76 187.80 153.72 177.93 148.86 167.97 C 150.66 166.31 152.45 164.63 154.23 162.96 C 151.36 162.54 148.49 162.13 145.62 161.74 C 144.19 158.76 142.71 155.81 141.23 152.85 Z" />
<path fill="#d05f2d" stroke="#d05f2d" stroke-width="0.09375" opacity="1.00" d=" M 166.02 153.24 C 174.20 152.79 182.40 153.11 190.59 152.84 C 190.42 153.17 190.07 153.81 189.89 154.14 C 188.74 155.95 187.51 157.70 186.30 159.48 C 185.62 160.47 184.96 161.47 184.29 162.48 C 185.44 162.62 186.59 162.76 187.75 162.90 C 190.03 163.16 192.31 163.43 194.59 163.69 C 198.53 164.15 202.47 164.65 206.41 165.16 C 203.92 167.54 201.42 169.91 198.88 172.24 C 197.42 173.58 195.96 174.93 194.51 176.28 C 190.53 179.96 186.55 183.63 182.58 187.31 C 181.08 188.71 179.57 190.11 178.05 191.48 C 174.99 194.24 171.92 197.00 168.87 199.78 C 163.91 204.21 159.10 208.80 154.02 213.09 C 157.21 207.94 160.51 202.85 163.72 197.71 C 166.95 192.64 170.16 187.56 173.39 182.50 C 174.65 180.51 175.90 178.51 177.14 176.51 C 177.80 175.43 178.46 174.36 179.12 173.28 C 177.82 173.12 176.51 172.96 175.21 172.80 C 172.92 172.53 170.63 172.25 168.35 171.99 C 164.99 171.60 161.64 171.18 158.28 170.76 C 159.97 167.98 161.64 165.19 163.39 162.45 C 164.58 160.56 165.77 158.66 166.98 156.78 C 166.66 155.60 166.34 154.42 166.02 153.24 Z" />
<path fill="#00a4b4" stroke="#00a4b4" stroke-width="0.09375" opacity="1.00" d=" M 190.59 152.84 C 195.98 152.68 201.38 152.63 206.77 152.81 C 213.54 166.40 220.43 179.92 227.26 193.48 C 228.20 195.41 228.85 197.47 229.47 199.53 C 224.05 199.52 218.61 199.96 213.19 199.58 C 212.00 198.81 211.52 197.36 210.82 196.20 C 206.87 188.20 202.88 180.21 198.88 172.24 C 201.42 169.91 203.92 167.54 206.41 165.16 C 202.47 164.65 198.53 164.15 194.59 163.69 C 193.06 160.49 191.38 157.36 189.89 154.14 C 190.07 153.81 190.42 153.17 190.59 152.84 Z" />
<path fill="#00a4b4" stroke="#00a4b4" stroke-width="0.09375" opacity="1.00" d=" M 184.29 162.48 C 184.96 161.47 185.62 160.47 186.30 159.48 C 186.77 160.62 187.26 161.76 187.75 162.90 C 186.59 162.76 185.44 162.62 184.29 162.48 Z" />
<path fill="#00a4b4" stroke="#00a4b4" stroke-width="0.09375" opacity="1.00" d=" M 101.94 170.01 C 108.10 170.77 114.26 171.54 120.41 172.40 C 117.37 177.64 114.16 182.76 110.87 187.85 C 107.84 181.92 104.90 175.96 101.94 170.01 Z" />
<path fill="#00a4b4" stroke="#00a4b4" stroke-width="0.09375" opacity="1.00" d=" M 132.44 183.06 C 136.42 179.39 140.40 175.73 144.39 172.08 C 148.94 181.33 153.69 190.48 158.26 199.73 C 152.37 199.88 146.47 199.75 140.59 199.37 C 137.87 193.94 135.04 188.55 132.44 183.06 Z" />
<path fill="#00a4b4" stroke="#00a4b4" stroke-width="0.09375" opacity="1.00" d=" M 175.21 172.80 C 176.51 172.96 177.82 173.12 179.12 173.28 C 178.46 174.36 177.80 175.43 177.14 176.51 C 176.49 175.27 175.85 174.03 175.21 172.80 Z" />
<path fill="#00a4b4" stroke="#00a4b4" stroke-width="0.09375" opacity="1.00" d=" M 182.58 187.31 C 186.55 183.63 190.53 179.96 194.51 176.28 C 197.25 181.68 199.92 187.12 202.70 192.50 C 203.91 194.78 204.77 197.22 205.47 199.71 C 200.05 199.66 194.61 199.95 189.20 199.63 C 186.21 196.04 184.87 191.35 182.58 187.31 Z" />
<path fill="#00a4b4" stroke="#00a4b4" stroke-width="0.09375" opacity="1.00" d=" M 116.49 197.85 C 120.19 194.16 124.13 190.74 127.96 187.19 C 130.19 191.32 132.26 195.54 134.38 199.74 C 128.11 199.46 121.74 200.43 115.56 199.07 L 116.49 197.85 Z" />
<path fill="#00a4b4" stroke="#00a4b4" stroke-width="0.09375" opacity="1.00" d=" M 168.87 199.78 C 171.92 197.00 174.99 194.24 178.05 191.48 C 179.52 194.20 180.91 196.95 182.26 199.73 C 177.79 199.80 173.33 199.82 168.87 199.78 Z" />
</svg>
