<?xml version="1.0" encoding="UTF-8" ?>
<!DOCTYPE svg PUBLIC "-//W3C//DTD SVG 1.1//EN" "http://www.w3.org/Graphics/SVG/1.1/DTD/svg11.dtd">
<svg width="50pt" height="50pt" viewBox="0 0 50 50" version="1.1" xmlns="http://www.w3.org/2000/svg">
<path fill="#a5aaae" opacity="1.00" d=" M 12.28 0.00 L 37.43 0.00 C 41.79 0.67 42.70 5.32 42.41 9.01 C 41.16 8.62 39.91 8.23 38.66 7.83 C 38.37 6.62 38.54 5.24 37.80 4.19 C 33.61 3.33 29.27 3.99 25.02 3.80 C 20.71 4.00 16.31 3.30 12.07 4.23 C 10.89 8.67 11.84 13.44 11.43 18.02 C 11.78 27.25 10.76 36.65 12.04 45.78 C 16.32 46.56 20.70 45.97 25.03 46.13 C 29.30 45.98 33.64 46.54 37.87 45.80 C 38.79 44.16 38.35 42.16 38.56 40.37 C 39.52 40.65 41.43 41.23 42.38 41.52 C 42.68 45.04 41.62 49.09 37.72 50.00 L 12.48 50.00 C 8.17 49.25 7.25 44.64 7.56 40.95 C 8.40 41.16 10.07 41.57 10.90 41.77 C 10.93 40.16 10.96 38.55 10.98 36.94 C 10.17 36.89 8.54 36.77 7.73 36.71 C 7.72 36.05 7.70 34.71 7.68 34.05 C 8.53 34.22 10.22 34.58 11.06 34.76 C 11.00 33.09 10.95 31.41 10.90 29.74 C 10.14 29.73 8.61 29.72 7.85 29.71 C 7.84 29.04 7.81 27.71 7.79 27.04 C 8.60 27.22 10.22 27.57 11.02 27.75 C 10.98 26.08 10.94 24.41 10.92 22.75 C 10.14 22.73 8.58 22.69 7.80 22.68 C 7.84 21.51 7.87 20.35 7.91 19.18 C 8.69 19.31 10.27 19.56 11.06 19.69 C 11.00 18.05 10.95 16.41 10.90 14.76 C 10.13 14.75 8.59 14.72 7.82 14.71 C 7.77 14.12 7.66 12.95 7.61 12.36 C 8.35 12.43 9.84 12.58 10.58 12.65 C 10.54 11.03 10.51 9.40 10.48 7.78 C 9.72 7.77 8.21 7.75 7.45 7.74 C 7.48 4.44 8.68 0.83 12.28 0.00 Z" />
<path fill="#9aba2f" opacity="1.00" d=" M 1.00 6.55 C 3.13 7.05 5.26 7.59 7.45 7.74 C 8.21 7.75 9.72 7.77 10.48 7.78 C 10.51 9.40 10.54 11.03 10.58 12.65 C 9.84 12.58 8.35 12.43 7.61 12.36 C 5.40 11.73 3.22 10.96 1.00 10.34 C 1.01 9.08 1.01 7.81 1.00 6.55 Z" />
<path fill="#9aba2f" opacity="1.00" d=" M 15.00 10.41 C 19.24 10.38 23.05 8.49 26.99 7.20 C 30.81 5.88 34.92 6.59 38.66 7.83 C 39.91 8.23 41.16 8.62 42.41 9.01 C 44.26 9.54 46.14 9.94 48.01 10.36 C 47.99 11.64 47.98 12.93 47.97 14.21 C 46.05 13.80 44.14 13.35 42.27 12.79 C 40.98 12.39 39.70 11.99 38.42 11.59 C 34.84 10.54 30.96 9.76 27.35 11.11 C 23.33 12.53 19.36 14.31 15.00 14.21 C 15.00 12.94 15.00 11.68 15.00 10.41 Z" />
<path fill="#a7a79a" opacity="1.00" d=" M 38.42 11.59 C 39.70 11.99 40.98 12.39 42.27 12.79 C 42.31 13.53 42.39 15.01 42.44 15.75 C 41.16 15.36 39.88 14.96 38.61 14.55 C 38.56 13.81 38.46 12.33 38.42 11.59 Z" />
<path fill="#c29d42" opacity="1.00" d=" M 1.02 13.38 C 3.28 13.89 5.53 14.40 7.82 14.71 C 8.59 14.72 10.13 14.75 10.90 14.76 C 10.95 16.41 11.00 18.05 11.06 19.69 C 10.27 19.56 8.69 19.31 7.91 19.18 C 5.63 18.43 3.34 17.72 1.00 17.20 C 1.01 16.24 1.02 14.34 1.02 13.38 Z" />
<path fill="#c29d42" opacity="1.00" d=" M 26.47 14.69 C 30.34 13.11 34.69 13.16 38.61 14.55 C 39.88 14.96 41.16 15.36 42.44 15.75 C 44.28 16.29 46.14 16.73 48.01 17.19 C 47.99 18.49 47.98 19.79 47.98 21.09 C 41.51 19.78 34.99 15.81 28.29 18.13 C 24.02 19.71 19.70 21.54 15.02 21.10 C 15.02 19.83 15.00 18.56 14.99 17.30 C 19.02 17.59 22.81 16.18 26.47 14.69 Z" />
<path fill="#ff8841" opacity="1.00" d=" M 1.01 21.37 C 3.26 21.86 5.51 22.37 7.80 22.68 C 8.58 22.69 10.14 22.73 10.92 22.75 C 10.94 24.41 10.98 26.08 11.02 27.75 C 10.22 27.57 8.60 27.22 7.79 27.04 C 5.53 26.42 3.29 25.75 1.00 25.20 C 1.01 23.93 1.01 22.65 1.01 21.37 Z" />
<path fill="#ff8841" opacity="1.00" d=" M 14.99 25.22 C 21.41 26.19 26.68 21.17 33.01 21.48 C 35.39 21.63 37.85 21.96 39.98 23.11 C 42.64 23.86 45.33 24.48 48.00 25.20 C 48.00 26.49 47.99 27.78 47.98 29.07 C 41.48 27.83 34.98 23.75 28.26 26.13 C 23.99 27.67 19.69 29.67 15.02 29.04 C 15.01 27.77 15.00 26.49 14.99 25.22 Z" />
<path fill="#d86858" opacity="1.00" d=" M 1.02 28.39 C 3.29 28.89 5.55 29.40 7.85 29.71 C 8.61 29.72 10.14 29.73 10.90 29.74 C 10.95 31.41 11.00 33.09 11.06 34.76 C 10.22 34.58 8.53 34.22 7.68 34.05 C 5.47 33.39 3.25 32.73 1.00 32.19 C 1.01 31.24 1.02 29.34 1.02 28.39 Z" />
<path fill="#d86858" opacity="1.00" d=" M 14.99 32.22 C 21.39 33.18 26.66 28.21 32.97 28.48 C 35.38 28.60 37.84 28.99 40.00 30.13 C 42.66 30.86 45.34 31.48 48.00 32.20 C 48.00 33.49 47.99 34.78 47.98 36.07 C 42.62 35.01 37.56 32.28 32.00 32.38 C 26.17 32.94 21.09 37.04 15.02 36.04 C 15.01 34.77 15.00 33.50 14.99 32.22 Z" />
<path fill="#a475cb" opacity="1.00" d=" M 0.97 35.38 C 3.21 35.86 5.45 36.38 7.73 36.71 C 8.54 36.77 10.17 36.89 10.98 36.94 C 10.96 38.55 10.93 40.16 10.90 41.77 C 10.07 41.57 8.40 41.16 7.56 40.95 C 5.41 40.36 3.25 39.77 1.07 39.29 C 1.05 37.99 1.02 36.68 0.97 35.38 Z" />
<path fill="#a475cb" opacity="1.00" d=" M 14.99 39.29 C 21.39 40.04 26.69 35.28 33.00 35.49 C 38.22 35.70 42.96 38.14 48.00 39.22 C 47.99 40.51 47.98 41.80 47.98 43.09 C 46.10 42.60 44.24 42.09 42.38 41.52 C 41.43 41.23 39.52 40.65 38.56 40.37 C 34.99 39.28 31.10 38.91 27.56 40.36 C 23.56 41.96 19.42 43.48 15.02 43.10 C 15.02 41.83 15.00 40.56 14.99 39.29 Z" />
</svg>
