<?xml version="1.0" encoding="UTF-8" ?>
<!DOCTYPE svg PUBLIC "-//W3C//DTD SVG 1.1//EN" "http://www.w3.org/Graphics/SVG/1.1/DTD/svg11.dtd">
<svg width="1200pt" height="1200pt" viewBox="0 0 1200 1200" version="1.1" xmlns="http://www.w3.org/2000/svg">
<path fill="#168ec9" stroke="#168ec9" stroke-width="0.09375" opacity="1.00" d=" M 603.28 108.26 C 608.22 107.78 613.23 107.90 618.19 108.17 C 621.81 108.36 624.24 111.43 625.53 114.53 C 734.69 343.99 843.84 573.46 953.03 802.91 C 976.86 852.94 1000.55 903.03 1024.50 953.00 C 914.66 953.00 804.83 953.00 694.99 953.00 C 668.19 952.88 641.38 953.24 614.59 952.82 C 618.55 948.87 624.54 949.79 629.63 949.65 C 635.39 947.39 641.63 946.60 647.55 944.78 C 668.88 940.17 688.54 929.82 706.39 917.48 C 714.03 911.88 721.57 906.07 728.06 899.13 C 731.09 895.48 734.74 892.41 737.87 888.85 C 741.22 884.63 744.72 880.52 748.12 876.33 C 754.00 868.33 759.26 859.91 764.17 851.27 C 768.91 842.64 772.54 833.45 776.58 824.48 C 778.14 819.29 779.42 814.00 781.46 808.96 C 783.72 800.87 785.14 792.59 786.87 784.38 C 786.75 781.54 786.88 778.64 788.00 775.99 C 789.48 772.49 788.17 768.62 788.95 764.99 C 790.59 758.12 789.68 751.01 789.93 744.03 C 790.18 738.64 788.65 733.40 788.56 728.03 C 786.72 723.22 787.02 717.97 785.39 713.11 C 784.44 707.69 782.77 702.47 781.47 697.15 C 774.89 678.95 764.46 662.58 755.19 645.70 C 748.58 636.08 741.66 626.67 735.24 616.91 C 717.93 594.27 700.73 571.52 685.11 547.67 C 678.28 538.99 673.11 529.16 666.96 520.02 C 656.23 502.06 645.50 484.07 636.21 465.32 C 634.21 461.07 631.40 457.27 629.65 452.90 C 626.55 444.85 622.54 437.19 618.86 429.40 C 615.36 418.76 609.71 408.97 606.65 398.16 C 604.72 404.98 600.56 410.87 598.08 417.49 C 594.62 423.40 591.61 429.56 588.89 435.85 C 583.87 444.41 579.84 453.49 574.64 461.95 C 572.89 464.79 571.66 467.91 569.89 470.75 C 563.19 481.92 556.81 493.28 550.17 504.48 C 546.49 473.74 528.16 445.74 502.81 428.33 C 484.98 415.88 463.78 408.44 442.14 406.52 C 492.77 310.93 543.17 215.21 593.67 119.55 C 596.13 115.33 597.71 109.17 603.28 108.26 Z" />
<path fill="#fff200" stroke="#fff200" stroke-width="0.09375" opacity="1.00" d=" M 372.84 419.60 C 394.10 408.82 418.44 404.40 442.14 406.52 C 463.78 408.44 484.98 415.88 502.81 428.33 C 528.16 445.74 546.49 473.74 550.17 504.48 C 552.98 526.45 548.52 549.28 537.62 568.57 C 522.79 595.28 496.71 614.98 467.57 623.63 C 432.88 634.00 393.77 629.26 363.06 609.89 C 355.91 605.42 349.24 600.18 343.17 594.32 C 330.85 582.28 321.13 567.48 315.59 551.14 C 308.17 529.52 308.17 505.47 315.59 483.86 C 325.08 455.89 346.58 432.75 372.84 419.60 Z" />
<path fill="#168ec9" stroke="#168ec9" stroke-width="0.09375" opacity="1.00" d=" M 343.17 594.32 C 349.24 600.18 355.91 605.42 363.06 609.89 C 393.77 629.26 432.88 634.00 467.57 623.63 C 461.55 633.50 454.02 642.44 448.92 652.88 C 447.23 655.84 445.69 658.89 443.81 661.75 C 440.47 668.17 437.85 674.97 434.04 681.15 C 432.26 683.79 432.10 687.06 430.93 689.95 C 425.82 702.07 424.42 715.25 421.44 727.94 C 421.16 733.31 419.70 738.56 420.07 743.97 C 420.33 750.61 419.46 757.35 420.83 763.91 C 421.52 768.02 421.15 772.19 421.18 776.34 C 421.79 778.89 423.05 781.28 423.07 783.97 C 423.22 788.24 424.79 792.27 425.21 796.50 C 427.48 807.26 431.56 817.52 435.11 827.90 C 438.31 834.98 441.09 842.26 444.99 849.02 C 448.22 856.16 453.24 862.27 457.04 869.10 C 465.55 881.64 475.76 892.91 486.48 903.58 C 492.32 908.86 498.09 914.28 504.89 918.33 C 513.36 924.58 522.48 929.99 532.14 934.19 C 539.64 938.30 547.93 940.60 555.98 943.38 C 563.11 944.58 569.97 947.03 577.08 948.40 C 578.22 948.67 579.28 949.17 580.36 949.65 C 585.45 949.79 591.44 948.86 595.40 952.82 C 564.58 953.23 533.75 952.88 502.93 953.00 C 386.55 953.00 270.18 953.00 153.81 953.00 C 216.90 833.42 279.96 713.83 343.17 594.32 Z" />
<path fill="#2a2e33" stroke="#2a2e33" stroke-width="0.09375" opacity="1.00" d=" M 863.10 964.88 C 872.50 961.19 882.86 960.43 892.83 961.67 C 903.90 963.14 914.87 968.32 921.66 977.41 C 925.95 982.98 928.17 989.93 928.37 996.92 C 921.99 997.07 915.60 996.96 909.22 997.01 C 907.92 990.37 903.81 984.21 897.42 981.58 C 887.93 977.62 876.25 977.90 867.41 983.38 C 860.57 987.55 857.74 998.30 863.67 1004.36 C 869.30 1009.85 877.40 1011.32 884.75 1013.20 C 896.09 1016.12 908.16 1018.02 917.98 1024.86 C 924.12 1028.97 928.47 1035.60 929.69 1042.90 C 931.29 1052.48 929.82 1062.92 924.14 1070.99 C 919.20 1078.14 911.41 1082.90 903.20 1085.39 C 894.38 1088.13 885.01 1088.44 875.86 1087.73 C 863.88 1086.56 851.56 1081.75 844.06 1071.94 C 839.45 1066.18 837.40 1058.86 836.80 1051.62 C 843.35 1051.40 849.91 1051.54 856.47 1051.49 C 857.61 1057.07 860.61 1062.40 865.64 1065.34 C 873.87 1070.31 884.18 1071.22 893.47 1069.21 C 899.33 1067.83 905.23 1064.74 908.24 1059.30 C 911.36 1053.97 910.35 1046.46 905.49 1042.51 C 899.46 1037.45 891.51 1035.85 884.07 1034.01 C 873.84 1031.39 862.99 1029.83 853.96 1023.98 C 847.79 1020.15 843.05 1014.01 841.34 1006.93 C 838.99 997.42 840.14 986.79 845.63 978.54 C 849.75 972.22 856.13 967.62 863.10 964.88 Z" />
<path fill="#2a2e33" stroke="#2a2e33" stroke-width="0.09375" opacity="1.00" d=" M 254.05 964.00 C 261.07 964.00 268.09 964.00 275.11 964.00 C 289.53 1004.43 304.45 1044.68 318.67 1085.18 C 311.64 1085.32 304.60 1085.21 297.57 1085.26 C 293.88 1074.68 290.22 1064.10 286.63 1053.50 C 271.74 1053.49 256.85 1053.50 241.96 1053.50 C 238.25 1064.07 234.59 1074.66 230.94 1085.25 C 224.12 1085.22 217.31 1085.32 210.50 1085.17 C 224.65 1044.66 239.57 1004.40 254.05 964.00 M 247.17 1036.50 C 258.57 1036.50 269.97 1036.51 281.37 1036.49 C 275.71 1019.92 270.04 1003.36 264.34 986.80 C 258.49 1003.32 252.89 1019.93 247.17 1036.50 Z" />
<path fill="#2a2e33" stroke="#2a2e33" stroke-width="0.09375" opacity="1.00" d=" M 322.91 964.12 C 329.83 963.89 336.75 964.04 343.67 964.00 C 351.01 994.53 358.26 1025.09 365.68 1055.60 C 374.09 1025.09 382.35 994.53 390.68 964.00 C 396.80 964.00 402.92 964.00 409.04 964.00 C 417.48 994.57 425.79 1025.17 434.23 1055.74 C 441.56 1025.16 448.83 994.58 456.17 964.00 C 463.07 964.03 469.98 963.88 476.89 964.13 C 466.17 1004.55 455.13 1044.88 444.23 1085.25 C 438.04 1085.25 431.85 1085.24 425.66 1085.26 C 417.00 1056.01 408.63 1026.68 399.86 997.47 C 391.17 1026.69 382.78 1056.01 374.17 1085.25 C 367.95 1085.24 361.73 1085.24 355.52 1085.25 C 344.63 1044.88 333.65 1004.53 322.91 964.12 Z" />
<path fill="#2a2e33" stroke="#2a2e33" stroke-width="0.09375" opacity="1.00" d=" M 500.07 964.06 C 525.84 963.92 551.62 964.03 577.40 964.01 C 577.56 970.07 577.51 976.14 577.45 982.22 C 558.30 982.29 539.15 982.23 520.00 982.25 C 520.00 993.08 520.00 1003.91 520.00 1014.75 C 538.07 1014.77 556.14 1014.70 574.21 1014.79 C 574.28 1020.60 574.25 1026.42 574.24 1032.24 C 556.16 1032.26 538.08 1032.25 520.00 1032.25 C 520.00 1043.75 520.00 1055.25 520.00 1066.75 C 539.13 1066.78 558.26 1066.67 577.38 1066.81 C 577.57 1072.94 577.51 1079.08 577.45 1085.22 C 551.64 1085.25 525.84 1085.31 500.04 1085.19 C 499.99 1044.81 499.94 1004.44 500.07 964.06 Z" />
<path fill="#2a2e33" stroke="#2a2e33" stroke-width="0.09375" opacity="1.00" d=" M 605.07 964.07 C 611.69 963.96 618.31 963.96 624.93 964.07 C 625.09 982.85 624.95 1001.64 625.00 1020.43 C 641.63 1001.64 658.24 982.83 674.84 964.00 C 682.69 964.12 690.56 963.69 698.40 964.30 C 683.12 982.00 667.33 999.26 651.87 1016.82 C 665.14 1034.68 678.40 1052.55 691.67 1070.41 C 695.20 1075.28 699.04 1079.95 702.20 1085.09 C 694.09 1085.28 685.96 1085.43 677.86 1085.10 C 673.01 1079.82 669.27 1073.61 664.83 1067.98 C 655.79 1055.76 646.77 1043.54 637.74 1031.33 C 633.49 1036.00 629.34 1040.77 625.04 1045.40 C 624.92 1058.66 625.08 1071.92 624.96 1085.19 C 618.32 1085.28 611.68 1085.28 605.04 1085.19 C 604.99 1044.82 604.94 1004.44 605.07 964.07 Z" />
<path fill="#2a2e33" stroke="#2a2e33" stroke-width="0.09375" opacity="1.00" d=" M 756.48 964.05 C 763.51 963.96 770.55 963.99 777.59 964.02 C 792.05 1004.43 806.87 1044.71 821.20 1085.17 C 814.14 1085.32 807.09 1085.22 800.04 1085.25 C 796.34 1074.68 792.74 1064.07 789.06 1053.50 C 774.16 1053.52 759.26 1053.45 744.36 1053.53 C 740.78 1064.13 737.05 1074.69 733.37 1085.26 C 726.55 1085.22 719.73 1085.31 712.91 1085.18 C 727.17 1044.71 742.03 1004.45 756.48 964.05 M 766.76 986.82 C 761.00 1003.36 755.36 1019.94 749.63 1036.49 C 761.04 1036.51 772.46 1036.51 783.88 1036.49 C 778.10 1019.96 772.62 1003.32 766.76 986.82 Z" />
</svg>
