<?xml version="1.0" encoding="UTF-8" standalone="no"?>
<svg
   xmlns:dc="http://purl.org/dc/elements/1.1/"
   xmlns:cc="http://creativecommons.org/ns#"
   xmlns:rdf="http://www.w3.org/1999/02/22-rdf-syntax-ns#"
   xmlns:svg="http://www.w3.org/2000/svg"
   xmlns="http://www.w3.org/2000/svg"
   xmlns:sodipodi="http://sodipodi.sourceforge.net/DTD/sodipodi-0.dtd"
   xmlns:inkscape="http://www.inkscape.org/namespaces/inkscape"
   id="weather34 checkwx"
   version="1"
   viewBox="0 0 182 69"
   sodipodi:docname="checkwx.svg"
   inkscape:version="1.0.2 (e86c8708, 2021-01-15)">
  <metadata
     id="metadata848">
    <rdf:RDF>
      <cc:Work
         rdf:about="">
        <dc:format>image/svg+xml</dc:format>
        <dc:type
           rdf:resource="http://purl.org/dc/dcmitype/StillImage" />
        <dc:title></dc:title>
      </cc:Work>
    </rdf:RDF>
  </metadata>
  <defs
     id="defs846" />
  <sodipodi:namedview
     pagecolor="#ffffff"
     bordercolor="#666666"
     borderopacity="1"
     objecttolerance="10"
     gridtolerance="10"
     guidetolerance="10"
     inkscape:pageopacity="0"
     inkscape:pageshadow="2"
     inkscape:window-width="1230"
     inkscape:window-height="838"
     id="namedview844"
     showgrid="false"
     inkscape:zoom="3.6703297"
     inkscape:cx="79.011976"
     inkscape:cy="33.682635"
     inkscape:window-x="0"
     inkscape:window-y="0"
     inkscape:window-maximized="0"
     inkscape:current-layer="weather34 checkwx" />
  <g
     fill="#fff"
     id="g835"
     style="fill:#8a8a8a;fill-opacity:1">
    <path
       d="M10 28c4-5 13-3 14 4h-2c-1-4-6-6-9-4-4 3-5 10-2 14s9 2 11-2h2c-1 7-10 9-14 4-4-4-4-12 0-16zM28 25h2v8c2-3 8-4 10 0v13h-2l-1-11c0-4-7-3-7 1v10h-2V25zM78 25h2v13c3-3 5-7 9-7v-2 2l-6 6 7 9h-3l-6-7-1 1v6h-2V25zM49 46c-7-2-6-15 2-16 5 0 7 5 7 9H47c0 2 1 5 4 5 3 1 4-2 7-2-1 3-5 5-9 4m-2-9h9c-1-2-2-5-5-4-2 0-3 2-4 4zM65 46c-6-2-6-14 1-15 4-1 7 1 8 5-3 0-4-4-7-3-6 0-5 12 1 11l6-3c-1 4-5 6-9 5z"
       id="path833"
       style="fill:#8a8a8a;fill-opacity:1" />
  </g>
  <g
     fill="#ff8841"
     id="g839">
    <path
       d="M143 26l3-1-8 11 7 10h-3l-5-8-6 8h-3l7-10-7-11 4 1 5 8 6-8zM100 25l3 1 4 17 5-17 2-1 5 17 4-16 3-1-6 21h-2l-5-16-5 16h-2l-6-21z"
       id="path837" />
  </g>
  <path
     fill="#8a8a8a"
     d="M153 25c4 1 5 6 8 9 3 0 8-1 9 3h-9c-3 4-4 9-8 10l3-10h-8l-4 4V31l4 3h8l-3-9z"
     id="path841"
     style="fill:#8a8a8a;fill-opacity:1" />
</svg>
