<?xml version="1.0" encoding="UTF-8" ?>
<!DOCTYPE svg PUBLIC "-//W3C//DTD SVG 1.1//EN" "http://www.w3.org/Graphics/SVG/1.1/DTD/svg11.dtd">
<svg width="402pt" height="132pt" viewBox="0 0 402 132" version="1.1" xmlns="http://www.w3.org/2000/svg">
<path fill="rgba(24, 25, 27, 1.000)" opacity="1.00" d=" M 29.99 27.32 C 36.10 18.69 42.80 10.23 46.06 0.01 C 50.58 6.30 54.89 12.74 58.98 19.32 C 48.94 20.25 39.11 23.00 29.99 27.32 Z" />
<path fill="rgba(24, 25, 27, 1.000)" opacity="1.00" d=" M 60.68 22.03 C 67.76 32.38 75.11 42.55 81.79 53.16 C 88.48 63.11 93.35 74.90 92.60 87.08 C 91.97 101.69 84.19 115.88 71.89 123.88 C 65.77 128.19 58.51 130.50 51.19 131.73 C 46.48 114.61 47.36 96.45 50.92 79.20 C 48.64 80.19 46.37 81.17 44.09 82.15 C 44.03 69.44 48.28 57.22 53.90 45.98 C 50.65 46.86 47.40 47.75 44.16 48.64 C 47.79 38.75 53.67 29.85 60.68 22.03 Z" />
<path fill="rgba(24, 25, 27, 1.000)" opacity="1.00" d=" M 4.29 64.52 C 9.38 52.14 18.01 41.69 26.52 31.51 C 22.89 42.90 20.94 54.86 21.47 66.83 C 23.70 65.94 25.92 65.07 28.14 64.18 C 27.57 75.54 28.61 86.99 31.71 97.95 C 33.45 97.12 35.18 96.29 36.91 95.47 C 38.10 101.93 38.97 108.52 41.44 114.65 C 43.85 120.66 46.99 126.34 50.12 132.00 L 45.08 132.00 C 32.74 131.35 20.57 126.02 12.34 116.70 C 4.63 108.59 0.54 97.52 0.00 86.43 L 0.00 85.42 C -0.01 78.25 1.53 71.13 4.29 64.52 Z" />
<path fill="rgba(24, 25, 27, 1.000)" opacity="1.00" d=" M 239.78 47.34 C 242.44 47.35 245.10 47.35 247.77 47.35 C 247.86 58.45 247.95 69.55 248.04 80.66 C 252.21 76.01 256.40 71.38 260.54 66.70 C 264.13 66.65 267.71 66.65 271.30 66.66 C 266.61 71.75 261.88 76.82 257.18 81.92 C 262.12 87.99 267.10 94.04 272.03 100.12 C 268.43 100.15 264.83 100.16 261.23 100.19 C 256.81 94.51 252.42 88.80 248.00 83.12 C 247.91 88.80 247.86 94.49 247.78 100.18 C 245.11 100.19 242.44 100.19 239.77 100.18 C 239.77 82.57 239.76 64.96 239.78 47.34 Z" />
<path fill="rgba(24, 25, 27, 1.000)" opacity="1.00" d=" M 334.29 47.35 C 336.96 47.35 339.62 47.35 342.29 47.35 C 342.26 58.45 342.32 69.54 342.57 80.64 C 346.79 75.99 350.96 71.29 355.17 66.64 C 358.72 66.65 362.27 66.64 365.82 66.65 C 361.12 71.74 356.41 76.82 351.71 81.91 C 356.64 88.00 361.62 94.05 366.56 100.13 C 362.94 100.15 359.33 100.16 355.73 100.17 C 351.30 94.49 346.94 88.77 342.51 83.10 C 342.43 88.79 342.38 94.49 342.30 100.18 C 339.63 100.19 336.96 100.19 334.29 100.18 C 334.29 82.57 334.29 64.96 334.29 47.35 Z" />
<path fill="rgba(24, 25, 27, 1.000)" opacity="1.00" d=" M 298.44 53.43 C 306.38 47.78 317.83 48.72 325.32 54.73 C 323.47 56.80 321.61 58.87 319.75 60.93 C 316.04 57.77 310.70 55.77 306.01 57.95 C 302.05 59.30 300.65 65.27 304.17 67.85 C 310.25 71.94 318.68 72.30 323.35 78.50 C 328.19 85.90 324.25 96.92 315.97 99.90 C 307.58 102.68 297.38 101.03 291.00 94.66 C 293.00 92.69 295.01 90.74 297.04 88.80 C 300.09 91.51 303.82 93.83 308.04 93.79 C 311.73 94.09 315.88 91.72 316.46 87.84 C 316.93 85.41 315.75 82.88 313.66 81.60 C 308.37 78.18 301.56 77.67 296.82 73.29 C 291.28 68.01 292.23 57.82 298.44 53.43 Z" />
<path fill="rgba(24, 25, 27, 1.000)" opacity="1.00" d=" M 124.25 50.73 C 133.08 50.92 142.09 50.09 150.77 52.10 C 159.10 54.21 166.70 61.08 167.80 69.88 C 169.06 76.88 168.04 84.69 163.39 90.31 C 158.81 96.19 151.47 99.54 144.09 99.86 C 137.48 100.15 130.86 100.09 124.25 100.25 C 124.24 83.75 124.24 67.24 124.25 50.73 M 132.82 58.27 C 132.81 69.63 132.81 80.99 132.82 92.35 C 139.36 92.19 146.56 92.97 152.33 89.24 C 160.17 84.15 160.69 72.39 156.06 64.98 C 150.81 57.60 140.80 58.51 132.82 58.27 Z" />
<path fill="rgba(24, 25, 27, 1.000)" opacity="1.00" d=" M 176.00 70.92 C 181.27 66.73 188.31 64.95 194.92 66.37 C 199.83 67.22 203.82 71.54 204.33 76.49 C 205.06 84.36 204.85 92.28 204.64 100.17 C 202.17 100.18 199.71 100.19 197.24 100.20 C 197.20 98.87 197.17 97.54 197.15 96.21 C 192.50 101.30 184.18 102.63 178.45 98.61 C 173.59 95.65 172.96 87.92 176.94 84.02 C 182.68 79.53 190.30 79.76 197.18 79.13 C 196.52 77.00 196.14 74.25 193.73 73.38 C 189.17 71.13 184.09 73.22 180.23 75.89 C 178.81 74.24 177.40 72.58 176.00 70.92 M 182.82 89.02 C 181.23 94.32 188.32 95.48 191.91 93.97 C 195.82 92.77 196.80 88.42 197.14 84.86 C 192.33 85.26 185.91 84.45 182.82 89.02 Z" />
<path fill="rgba(24, 25, 27, 1.000)" opacity="1.00" d=" M 222.32 72.00 C 224.84 68.00 229.30 65.28 234.15 65.85 C 234.12 68.34 234.08 70.84 234.05 73.34 C 231.77 73.49 229.42 73.47 227.24 74.24 C 224.55 75.82 222.70 78.87 222.77 82.03 C 222.61 88.08 222.70 94.14 222.60 100.19 C 219.84 100.19 217.09 100.19 214.34 100.18 C 214.34 89.00 214.34 77.83 214.36 66.65 C 217.02 66.65 219.69 66.65 222.35 66.66 C 222.35 68.44 222.34 70.22 222.32 72.00 Z" />
<path fill="rgba(24, 25, 27, 1.000)" opacity="1.00" d=" M 366.70 66.80 C 369.75 66.79 372.81 66.80 375.87 66.80 C 378.98 74.84 382.03 82.89 385.15 90.92 C 387.89 82.88 390.61 74.83 393.38 66.79 C 396.24 66.79 399.11 66.78 401.99 66.77 C 396.76 80.28 391.49 93.78 386.26 107.29 C 384.82 110.54 383.08 114.12 379.69 115.71 C 376.54 117.03 373.05 116.83 369.72 116.65 C 369.87 114.27 370.03 111.89 370.19 109.52 C 372.31 109.41 374.79 110.00 376.61 108.58 C 378.68 106.24 379.61 103.18 380.78 100.34 C 376.05 89.17 371.38 77.99 366.70 66.80 Z" />
</svg>
