<?xml version="1.0" encoding="UTF-8" ?>
<svg id="weather34 davis meteobridge" width="1589pt" height="754pt" viewBox="0 0 1589 754" version="1.1" xmlns="http://www.w3.org/2000/svg">
<path fill="#373e41" opacity="1.00" d=" M 208.01 13.00 C 219.34 13.00 230.67 13.00 242.00 13.00 C 231.39 37.05 220.78 61.09 210.12 85.11 C 209.23 86.95 209.01 89.00 208.77 91.00 C 179.85 91.00 150.92 91.00 122.00 91.00 C 122.21 100.95 121.53 110.93 122.44 120.85 C 138.29 121.34 154.23 120.88 170.12 121.04 C 172.00 120.87 173.41 122.24 174.58 123.51 C 199.65 152.73 224.86 181.82 249.93 211.03 C 249.96 208.17 249.97 205.29 250.45 202.46 C 250.41 203.35 250.34 205.12 250.30 206.01 C 258.86 205.92 267.43 206.19 275.98 205.83 C 275.93 215.91 276.23 225.99 275.85 236.07 C 267.28 235.95 258.71 235.95 250.15 236.07 C 249.92 231.86 250.00 227.63 249.99 223.42 C 222.31 191.51 194.85 159.40 167.20 127.46 C 152.32 127.70 137.42 127.80 122.55 127.41 C 122.42 132.25 121.94 137.08 121.96 141.94 C 120.34 142.08 118.72 142.14 117.12 142.39 C 117.64 144.35 118.74 146.08 119.71 147.84 C 126.28 142.74 136.40 148.06 137.15 155.95 C 138.13 162.69 131.97 169.46 125.09 168.66 C 119.31 168.86 115.41 163.69 114.09 158.59 C 110.89 160.59 106.76 161.28 103.25 159.72 C 98.89 157.63 96.59 152.64 96.54 147.97 C 96.84 145.90 97.95 144.06 98.65 142.11 C 96.43 142.13 94.21 142.18 91.99 142.14 C 92.01 125.09 92.00 108.05 92.00 91.00 C 81.00 91.03 70.00 90.93 59.00 91.05 C 59.00 86.04 59.00 81.02 59.00 76.00 C 70.00 75.99 81.00 76.00 92.00 76.00 C 92.00 74.00 92.00 72.00 92.00 70.00 C 102.01 70.00 112.01 70.01 122.02 69.99 C 122.07 72.00 122.12 74.00 122.10 76.00 C 127.31 75.99 132.52 76.03 137.73 75.96 C 161.11 54.93 184.59 33.99 208.01 13.00 M 155.71 76.27 C 155.14 78.81 154.56 81.35 153.96 83.88 C 155.61 83.87 157.28 83.96 158.93 83.76 C 161.40 83.24 162.80 80.43 162.23 78.05 C 161.00 75.59 157.91 76.49 155.71 76.27 M 162.36 78.38 C 164.32 78.23 166.31 77.54 168.29 77.94 C 165.48 78.99 161.28 79.70 162.06 83.66 C 164.22 83.84 166.39 83.86 168.57 83.87 C 168.99 81.44 169.44 79.03 169.91 76.61 C 167.23 75.71 163.97 75.60 162.36 78.38 M 175.23 76.48 C 174.13 77.51 173.61 79.04 172.79 80.29 C 173.05 78.04 172.25 76.54 170.38 75.80 C 170.50 78.48 170.74 81.16 170.93 83.85 C 171.60 83.85 172.94 83.87 173.61 83.87 C 174.71 82.13 174.95 79.16 176.78 78.22 C 177.18 80.27 176.19 82.30 175.91 84.31 C 179.11 84.16 178.72 80.51 179.33 78.28 C 180.73 79.84 182.49 80.96 184.25 82.08 C 182.43 81.80 180.62 81.46 178.80 81.34 C 179.55 83.92 182.05 84.02 184.26 84.31 C 185.10 83.10 185.82 81.83 186.40 80.48 C 184.83 79.67 183.25 78.87 181.70 78.03 C 183.57 78.11 185.45 78.18 187.33 78.23 C 185.50 75.34 181.83 75.57 179.63 77.86 L 179.63 76.11 C 178.15 76.11 176.68 76.20 175.23 76.48 M 188.81 76.52 C 188.08 78.94 187.65 81.44 186.99 83.87 C 188.80 83.80 190.63 83.83 192.44 83.63 C 194.58 83.79 196.73 83.84 198.88 83.86 C 199.56 83.86 200.93 83.86 201.61 83.86 C 202.24 81.72 202.91 79.59 203.56 77.45 C 205.18 77.77 205.46 77.32 204.38 76.09 C 202.54 76.12 200.72 76.38 198.91 76.72 C 195.55 76.63 192.17 76.22 188.81 76.52 Z" />
<path fill="#f26c4f" opacity="1.00" d=" M 44.31 78.27 C 48.60 75.16 54.06 76.11 59.00 76.00 C 59.00 81.02 59.00 86.04 59.00 91.05 C 53.15 90.84 46.41 90.35 42.13 85.85 C 39.73 83.35 41.63 79.62 44.31 78.27 Z" />
<path fill="#feffff" opacity="1.00" d=" M 155.71 76.27 C 157.91 76.49 161.00 75.59 162.23 78.05 C 162.80 80.43 161.40 83.24 158.93 83.76 C 157.28 83.96 155.61 83.87 153.96 83.88 C 154.56 81.35 155.14 78.81 155.71 76.27 M 157.47 78.16 C 157.21 79.59 156.97 81.02 156.74 82.46 C 158.97 82.06 160.18 80.49 160.18 78.26 C 159.50 78.24 158.14 78.18 157.47 78.16 Z" />
<path fill="#feffff" opacity="1.00" d=" M 162.36 78.38 C 163.97 75.60 167.23 75.71 169.91 76.61 C 169.44 79.03 168.99 81.44 168.57 83.87 C 166.39 83.86 164.22 83.84 162.06 83.66 C 161.28 79.70 165.48 78.99 168.29 77.94 C 166.31 77.54 164.32 78.23 162.36 78.38 M 165.42 80.17 C 165.16 80.47 164.63 81.06 164.37 81.35 C 165.37 84.69 169.33 79.43 165.42 80.17 Z" />
<path fill="#ffffff" opacity="1.00" d=" M 175.23 76.48 C 176.68 76.20 178.15 76.11 179.63 76.11 L 179.63 77.86 C 181.83 75.57 185.50 75.34 187.33 78.23 C 185.45 78.18 183.57 78.11 181.70 78.03 C 183.25 78.87 184.83 79.67 186.40 80.48 C 185.82 81.83 185.10 83.10 184.26 84.31 C 182.05 84.02 179.55 83.92 178.80 81.34 C 180.62 81.46 182.43 81.80 184.25 82.08 C 182.49 80.96 180.73 79.84 179.33 78.28 C 178.72 80.51 179.11 84.16 175.91 84.31 C 176.19 82.30 177.18 80.27 176.78 78.22 C 174.95 79.16 174.71 82.13 173.61 83.87 C 172.94 83.87 171.60 83.85 170.93 83.85 C 170.74 81.16 170.50 78.48 170.38 75.80 C 172.25 76.54 173.05 78.04 172.79 80.29 C 173.61 79.04 174.13 77.51 175.23 76.48 Z" />
<path fill="#fbfbfb" opacity="1.00" d=" M 188.81 76.52 C 192.17 76.22 195.55 76.63 198.91 76.72 L 197.87 76.86 C 198.64 77.27 201.10 77.82 200.35 79.30 L 199.59 78.60 C 196.61 78.13 193.64 77.69 190.68 77.18 C 190.34 79.15 189.84 81.09 189.23 83.00 C 190.85 82.52 192.49 82.08 194.13 81.67 C 194.68 81.81 195.77 82.09 196.32 82.23 C 195.03 82.71 193.74 83.18 192.44 83.63 C 190.63 83.83 188.80 83.80 186.99 83.87 C 187.65 81.44 188.08 78.94 188.81 76.52 Z" />
<path fill="#616769" opacity="1.00" d=" M 198.91 76.72 C 200.72 76.38 202.54 76.12 204.38 76.09 C 204.17 76.43 203.76 77.11 203.56 77.45 C 202.91 79.59 202.24 81.72 201.61 83.86 C 200.93 83.86 199.56 83.86 198.88 83.86 C 199.23 82.75 199.60 81.65 199.97 80.55 C 200.07 80.24 200.26 79.62 200.35 79.30 C 201.10 77.82 198.64 77.27 197.87 76.86 L 198.91 76.72 Z" />
<path fill="#8b8f90" opacity="1.00" d=" M 204.38 76.09 C 205.46 77.32 205.18 77.77 203.56 77.45 C 203.76 77.11 204.17 76.43 204.38 76.09 Z" />
<path fill="#383f42" opacity="1.00" d=" M 157.47 78.16 C 158.14 78.18 159.50 78.24 160.18 78.26 C 160.18 80.49 158.97 82.06 156.74 82.46 C 156.97 81.02 157.21 79.59 157.47 78.16 Z" />
<path fill="#373e41" opacity="1.00" d=" M 190.68 77.18 C 193.64 77.69 196.61 78.13 199.59 78.60 L 200.35 79.30 C 200.26 79.62 200.07 80.24 199.97 80.55 C 198.02 80.93 196.07 81.24 194.13 81.67 C 192.49 82.08 190.85 82.52 189.23 83.00 C 189.84 81.09 190.34 79.15 190.68 77.18 Z" />
<path fill="#383f42" opacity="1.00" d=" M 165.42 80.17 C 169.33 79.43 165.37 84.69 164.37 81.35 C 164.63 81.06 165.16 80.47 165.42 80.17 Z" />
<path fill="#818587" opacity="1.00" d=" M 194.13 81.67 C 196.07 81.24 198.02 80.93 199.97 80.55 C 199.60 81.65 199.23 82.75 198.88 83.86 C 196.73 83.84 194.58 83.79 192.44 83.63 C 193.74 83.18 195.03 82.71 196.32 82.23 C 195.77 82.09 194.68 81.81 194.13 81.67 Z" />
<path fill="#383f42" opacity="1.00" d=" M 82.24 146.21 C 91.50 143.09 99.99 155.07 95.05 163.04 C 91.44 170.11 80.23 170.67 75.91 164.01 C 70.92 157.98 74.80 147.98 82.24 146.21 Z" />
<path fill="#ebebeb" opacity="1.00" d=" M 250.45 202.46 C 251.54 198.28 255.62 195.02 260.01 195.24 C 263.99 195.35 268.53 194.46 271.90 197.12 C 274.75 199.06 275.84 202.53 275.98 205.83 C 267.43 206.19 258.86 205.92 250.30 206.01 C 250.34 205.12 250.41 203.35 250.45 202.46 Z" />
<path fill="#cbcbcb" opacity="1.00" d=" M 320.38 223.03 C 321.53 223.01 322.68 223.00 323.83 222.99 C 323.83 242.33 323.85 261.67 323.82 281.01 C 323.81 283.22 324.00 285.42 324.21 287.63 C 322.93 287.82 321.65 287.96 320.36 288.01 C 320.42 266.35 320.40 244.69 320.38 223.03 Z" />
<path fill="#cbcbcb" opacity="1.00" d=" M 349.68 223.07 C 350.59 223.04 352.42 223.00 353.34 222.97 C 353.42 244.56 353.16 266.15 353.47 287.73 C 352.36 287.74 349.49 288.95 349.64 286.93 C 349.75 265.64 349.68 244.35 349.68 223.07 Z" />
<path fill="#cbcbcb" opacity="1.00" d=" M 379.21 223.00 C 380.36 223.00 381.51 223.00 382.66 223.01 C 382.68 244.63 382.59 266.25 382.72 287.87 C 381.54 287.91 380.36 287.94 379.19 287.96 C 379.23 266.31 379.20 244.65 379.21 223.00 Z" />
<path fill="#cbcbcb" opacity="1.00" d=" M 408.52 222.94 C 409.46 222.99 411.32 223.09 412.25 223.14 C 412.25 244.63 412.14 266.13 412.31 287.62 C 411.06 287.87 409.81 288.11 408.57 288.35 C 408.45 266.55 408.55 244.74 408.52 222.94 Z" />
<path fill="#cbcbcb" opacity="1.00" d=" M 437.82 223.06 C 439.05 223.04 440.28 223.03 441.52 223.02 C 441.47 244.56 441.51 266.10 441.51 287.63 C 440.34 288.40 439.11 288.39 437.84 287.59 C 437.80 266.09 437.85 244.57 437.82 223.06 Z" />
<path fill="#cbcbcb" opacity="1.00" d=" M 467.40 223.00 C 468.52 223.00 469.65 223.00 470.78 223.00 C 470.77 244.70 470.82 266.41 470.76 288.11 C 469.63 288.06 468.50 288.00 467.38 287.93 C 467.43 266.29 467.39 244.65 467.40 223.00 Z" />
<path fill="#cbcbcb" opacity="1.00" d=" M 498.51 223.00 C 499.43 223.01 501.27 223.04 502.20 223.05 C 502.24 244.58 502.07 266.12 502.28 287.64 C 501.04 287.86 499.79 288.07 498.55 288.28 C 498.44 266.52 498.54 244.76 498.51 223.00 Z" />
<path fill="#cbcbcb" opacity="1.00" d=" M 527.80 223.12 C 528.72 223.07 530.57 222.99 531.50 222.95 C 531.44 244.60 531.60 266.27 531.43 287.91 C 530.18 288.00 528.94 287.95 527.72 287.76 C 527.92 266.21 527.77 244.66 527.80 223.12 Z" />
<path fill="#cbcbcb" opacity="1.00" d=" M 557.34 223.01 C 558.48 223.00 559.63 223.00 560.78 223.00 C 560.81 244.64 560.73 266.28 560.83 287.92 C 559.64 287.92 558.46 287.92 557.29 287.90 C 557.42 266.27 557.32 244.64 557.34 223.01 Z" />
<path fill="#ebebeb" opacity="1.00" d=" M 250.15 236.07 C 258.71 235.95 267.28 235.95 275.85 236.07 C 275.65 307.75 275.87 379.43 275.74 451.11 C 267.25 451.11 258.76 451.27 250.27 451.35 C 250.11 379.59 250.36 307.83 250.15 236.07 Z" />
<path fill="#a1a1a1" opacity="1.00" d=" M 984.37 245.43 C 987.78 243.33 992.92 245.80 993.00 249.93 C 993.70 254.65 987.65 257.93 983.97 255.04 C 980.55 252.84 980.88 247.38 984.37 245.43 Z" />
<path fill="#a1a1a1" opacity="1.00" d=" M 1258.47 248.52 C 1262.75 244.46 1269.09 245.01 1274.51 245.50 C 1274.49 247.81 1274.48 250.14 1274.47 252.46 C 1271.30 252.43 1267.64 251.79 1265.04 254.04 C 1262.45 256.74 1263.20 260.84 1262.93 264.25 C 1266.61 264.25 1270.29 264.24 1273.98 264.28 C 1273.99 266.67 1273.99 269.06 1274.01 271.46 C 1270.33 271.51 1266.67 271.50 1263.01 271.49 C 1262.98 285.16 1263.01 298.83 1263.00 312.50 C 1260.24 312.50 1257.49 312.50 1254.75 312.50 C 1254.76 298.84 1254.71 285.19 1254.78 271.53 C 1252.09 271.50 1249.42 271.49 1246.75 271.45 C 1246.73 269.05 1246.74 266.65 1246.79 264.26 C 1249.44 264.25 1252.08 264.25 1254.75 264.25 C 1254.68 258.89 1254.21 252.57 1258.47 248.52 Z" />
<path fill="#a1a1a1" opacity="1.00" d=" M 1201.53 245.52 C 1204.34 245.49 1207.16 245.50 1209.99 245.54 C 1210.01 267.86 1209.99 290.18 1210.00 312.50 C 1207.32 312.49 1204.65 312.50 1201.99 312.50 C 1201.99 310.06 1201.99 307.63 1202.03 305.20 C 1196.57 313.89 1183.95 315.99 1175.62 310.32 C 1168.77 305.68 1166.07 296.95 1166.21 289.01 C 1165.96 281.61 1167.89 273.64 1173.44 268.42 C 1181.27 260.96 1195.71 262.03 1201.59 271.42 C 1201.40 262.79 1201.52 254.15 1201.53 245.52 M 1184.47 271.70 C 1179.73 272.98 1176.53 277.42 1175.53 282.06 C 1174.14 288.33 1174.46 295.49 1178.19 300.93 C 1183.00 307.77 1194.82 307.29 1198.90 299.91 C 1202.79 292.99 1202.75 283.88 1198.82 276.99 C 1196.06 272.09 1189.70 270.17 1184.47 271.70 Z" />
<path fill="#a1a1a1" opacity="1.00" d=" M 816.49 248.33 C 824.02 248.20 831.55 248.24 839.08 248.28 C 846.86 248.40 855.02 250.69 860.57 256.41 C 866.45 262.32 868.75 270.83 869.00 278.96 C 869.18 286.93 867.74 295.34 862.87 301.87 C 857.89 308.73 849.31 312.30 840.98 312.49 C 832.82 312.53 824.66 312.48 816.50 312.50 C 816.50 291.11 816.51 269.72 816.49 248.33 M 825.25 256.25 C 825.25 272.42 825.25 288.58 825.25 304.75 C 833.66 304.42 842.92 306.03 850.49 301.41 C 857.70 297.02 860.24 287.97 860.03 279.98 C 860.05 272.06 857.13 263.28 849.87 259.19 C 842.38 254.91 833.46 256.58 825.25 256.25 Z" />
<path fill="#a1a1a1" opacity="1.00" d=" M 885.01 271.00 C 892.62 261.22 909.61 260.80 917.36 270.63 C 921.90 276.33 922.64 283.96 922.53 291.00 C 911.12 291.03 899.71 290.93 888.30 291.06 C 888.74 295.54 890.03 300.38 893.76 303.28 C 899.77 307.87 909.47 306.42 913.60 299.95 C 916.13 298.92 919.33 299.75 922.10 299.59 C 920.70 304.11 917.93 308.37 913.62 310.58 C 906.10 314.53 896.24 314.67 889.07 309.86 C 882.71 305.47 879.82 297.52 879.73 290.03 C 879.44 283.37 880.79 276.33 885.01 271.00 M 893.67 273.66 C 890.24 276.08 889.01 280.31 888.26 284.22 C 896.75 284.27 905.24 284.27 913.73 284.23 C 913.22 281.15 912.77 277.87 910.67 275.42 C 906.75 270.30 898.60 269.66 893.67 273.66 Z" />
<path fill="#a1a1a1" opacity="1.00" d=" M 937.59 268.51 C 944.12 262.66 954.33 262.13 962.07 265.76 C 966.52 267.77 969.24 272.21 970.16 276.88 C 967.38 277.00 964.60 277.01 961.84 277.00 C 959.12 269.66 948.05 268.76 943.14 274.24 C 940.90 276.63 942.09 280.73 945.05 281.91 C 951.91 285.21 960.31 284.67 966.54 289.47 C 971.85 293.47 972.01 301.93 967.88 306.84 C 964.04 311.47 957.81 313.25 952.00 313.48 C 946.04 313.57 939.52 312.12 935.39 307.51 C 933.39 305.40 932.71 302.51 931.99 299.79 C 934.83 299.75 937.69 299.74 940.55 299.74 C 943.45 306.82 953.15 307.88 959.11 304.23 C 962.36 302.51 963.25 297.25 959.93 295.16 C 953.13 291.09 944.23 292.16 937.81 287.20 C 931.91 282.85 932.25 273.19 937.59 268.51 Z" />
<path fill="#a1a1a1" opacity="1.00" d=" M 983.10 264.30 C 985.88 264.24 988.66 264.24 991.45 264.25 C 991.56 280.33 991.47 296.42 991.50 312.50 C 988.66 312.50 985.83 312.50 983.01 312.46 C 983.05 296.41 982.87 280.35 983.10 264.30 Z" />
<path fill="#a1a1a1" opacity="1.00" d=" M 1013.00 266.82 C 1021.19 261.09 1034.01 262.84 1039.54 271.46 C 1039.48 269.06 1039.50 266.65 1039.63 264.26 C 1042.32 264.24 1045.02 264.25 1047.72 264.28 C 1047.76 280.56 1047.76 296.83 1047.73 313.11 C 1047.81 319.19 1044.43 325.17 1038.96 327.92 C 1031.91 331.52 1023.27 331.65 1015.86 329.12 C 1010.51 327.35 1006.45 322.64 1005.67 317.03 C 1008.57 316.99 1011.48 317.00 1014.39 317.00 C 1015.47 319.64 1017.53 321.86 1020.39 322.53 C 1025.77 323.93 1032.43 323.79 1036.65 319.70 C 1040.59 315.46 1038.85 309.27 1039.31 304.08 C 1033.03 313.86 1017.57 314.47 1009.94 306.06 C 1004.48 299.87 1003.12 291.05 1004.14 283.10 C 1004.90 276.85 1007.65 270.45 1013.00 266.82 M 1022.45 271.61 C 1017.52 272.62 1014.16 277.14 1013.20 281.87 C 1011.87 287.90 1012.22 294.91 1016.12 299.96 C 1021.16 306.42 1032.52 305.59 1036.70 298.57 C 1040.41 292.17 1040.41 283.69 1036.83 277.23 C 1034.08 272.27 1027.78 270.23 1022.45 271.61 Z" />
<path fill="#a1a1a1" opacity="1.00" d=" M 1062.28 264.28 C 1064.92 264.25 1067.57 264.25 1070.23 264.25 C 1070.25 266.68 1070.23 269.10 1070.13 271.53 C 1074.74 262.79 1086.96 261.34 1094.89 266.14 C 1099.55 269.04 1101.64 274.65 1101.73 279.95 C 1101.78 290.80 1101.72 301.65 1101.75 312.50 C 1098.99 312.50 1096.24 312.49 1093.50 312.50 C 1093.47 303.04 1093.55 293.59 1093.48 284.13 C 1093.28 280.30 1093.02 275.78 1089.73 273.22 C 1083.03 268.43 1071.76 272.29 1070.94 280.97 C 1070.42 291.35 1070.99 301.77 1070.68 312.16 C 1067.98 312.89 1065.04 312.35 1062.26 312.50 C 1062.25 296.43 1062.23 280.35 1062.28 264.28 Z" />
<path fill="#a1a1a1" opacity="1.00" d=" M 1120.33 269.38 C 1127.06 262.63 1138.50 261.69 1146.59 266.49 C 1154.79 271.53 1156.86 282.05 1156.26 291.00 C 1144.88 291.01 1133.50 290.97 1122.12 291.02 C 1122.63 296.00 1124.30 301.37 1128.82 304.13 C 1134.94 307.62 1144.15 306.09 1147.59 299.52 C 1150.40 299.48 1153.21 299.49 1156.03 299.60 C 1154.51 304.31 1151.53 308.68 1146.97 310.87 C 1138.55 315.00 1127.19 314.51 1120.29 307.70 C 1114.59 301.80 1112.90 293.06 1113.68 285.13 C 1114.17 279.37 1116.18 273.54 1120.33 269.38 M 1126.06 275.03 C 1123.61 277.49 1122.85 280.98 1122.11 284.23 C 1130.64 284.26 1139.17 284.27 1147.71 284.23 C 1147.07 280.94 1146.51 277.38 1144.04 274.89 C 1139.55 269.66 1130.53 269.89 1126.06 275.03 Z" />
<path fill="#a1a1a1" opacity="1.00" d=" M 1297.14 264.19 C 1304.55 262.46 1313.10 263.86 1318.68 269.32 C 1323.57 274.19 1325.34 281.31 1325.50 288.02 C 1325.48 293.91 1324.34 300.03 1320.92 304.94 C 1312.93 316.51 1293.01 316.39 1285.24 304.64 C 1280.55 297.64 1280.21 288.62 1281.72 280.57 C 1283.26 272.81 1289.22 265.82 1297.14 264.19 M 1299.54 271.66 C 1294.80 272.72 1291.40 276.95 1290.40 281.56 C 1288.99 287.78 1289.09 294.87 1292.59 300.42 C 1297.08 307.59 1309.06 307.55 1313.70 300.56 C 1316.33 296.57 1316.92 291.62 1316.74 286.95 C 1316.53 282.57 1315.44 277.92 1312.30 274.69 C 1309.03 271.38 1303.91 270.57 1299.54 271.66 Z" />
<path fill="#a1a1a1" opacity="1.00" d=" M 1345.66 270.73 C 1349.00 264.48 1356.71 262.75 1363.25 263.69 C 1363.24 266.50 1363.24 269.31 1363.25 272.13 C 1358.43 271.38 1352.84 271.40 1349.20 275.14 C 1346.21 277.88 1345.81 282.14 1345.98 285.95 C 1346.02 294.80 1345.99 303.65 1346.00 312.50 C 1343.16 312.50 1340.34 312.50 1337.52 312.48 C 1337.54 296.41 1337.38 280.34 1337.61 264.28 C 1340.31 264.24 1343.02 264.25 1345.75 264.28 C 1345.73 266.43 1345.73 268.58 1345.66 270.73 Z" />
<path fill="#f06b4e" opacity="1.00" d=" M 602.10 288.96 C 603.32 288.28 604.36 286.87 605.93 287.02 C 614.33 286.97 622.73 286.97 631.14 287.03 C 632.66 286.90 633.68 288.28 634.90 288.96 C 623.97 289.03 613.03 289.03 602.10 288.96 Z" />
<path fill="#383f42" opacity="1.00" d=" M 319.57 288.87 C 376.37 289.16 433.17 288.89 489.97 289.01 C 513.94 288.90 537.91 289.12 561.88 288.90 C 562.78 327.67 555.48 367.07 537.80 401.78 C 531.35 414.46 523.40 426.38 513.95 437.02 C 518.12 441.84 522.09 446.82 525.78 452.02 C 537.20 452.00 548.63 451.97 560.05 452.02 C 566.52 451.68 571.83 457.71 571.93 463.94 C 572.11 472.85 571.97 481.77 571.96 490.69 C 565.68 489.62 559.31 490.00 552.98 490.04 C 470.65 489.97 388.31 490.09 305.98 489.98 C 303.31 490.04 300.67 490.37 298.03 490.72 C 298.04 481.79 297.88 472.86 298.08 463.94 C 298.17 457.70 303.49 451.67 309.98 452.03 C 325.24 451.89 340.51 452.14 355.78 451.91 C 359.37 446.66 363.32 441.67 367.61 436.97 C 356.11 424.33 347.14 409.57 339.97 394.11 C 325.05 361.26 318.76 324.84 319.57 288.87 Z" />
<path fill="#373e41" opacity="1.00" d=" M 595.00 289.01 C 597.36 289.00 599.73 288.97 602.10 288.96 C 613.03 289.03 623.97 289.03 634.90 288.96 C 636.60 288.96 638.29 288.99 640.00 289.01 C 640.00 294.34 640.00 299.67 640.00 305.00 C 644.00 305.00 648.00 305.00 652.00 305.00 C 652.00 311.00 652.00 317.00 652.00 323.00 C 632.00 323.00 612.00 323.00 592.00 323.00 C 592.01 384.91 591.97 446.82 592.02 508.72 C 589.71 502.83 591.51 496.30 590.85 490.14 C 585.58 489.87 580.28 489.84 575.06 490.68 C 574.92 428.79 575.04 366.89 575.00 305.00 C 581.66 305.00 588.33 305.00 595.00 305.00 C 595.00 299.67 595.00 294.34 595.00 289.01 Z" />
<path fill="#009aab" opacity="1.00" d=" M 845.08 347.48 C 864.97 342.50 886.18 342.87 905.91 348.40 C 913.78 350.61 921.65 355.54 924.29 363.70 C 925.99 368.98 924.41 374.57 923.48 379.86 C 917.48 408.96 911.18 437.99 904.97 467.04 C 904.07 470.10 905.08 473.19 905.95 476.14 C 894.30 476.07 882.65 476.12 871.01 476.12 C 869.75 475.92 867.59 476.50 867.51 474.64 C 867.09 472.74 867.86 470.86 868.23 469.03 C 861.06 473.73 852.41 475.13 844.13 476.59 C 835.08 478.17 825.77 477.53 816.83 475.56 C 811.00 474.18 805.83 470.44 802.55 465.45 C 798.15 458.90 796.87 450.70 797.40 442.96 C 798.26 432.07 803.08 421.88 809.17 412.97 C 817.86 402.24 830.93 395.45 844.48 393.32 C 856.14 391.48 868.00 390.84 879.56 388.33 C 881.85 387.69 884.73 387.27 885.91 384.90 C 887.99 380.68 887.73 375.04 884.56 371.42 C 882.41 368.97 878.90 369.01 875.93 368.69 C 869.62 368.09 862.74 368.59 857.45 372.41 C 853.16 375.61 852.77 381.37 851.67 386.17 C 838.27 386.22 824.88 386.17 811.48 386.20 C 813.89 376.52 815.59 366.02 822.24 358.17 C 828.04 351.63 836.87 349.34 845.08 347.48 M 844.56 423.56 C 838.96 427.58 837.45 435.53 839.12 441.90 C 840.11 445.89 844.08 448.26 847.99 448.58 C 855.75 449.31 864.01 447.07 869.92 441.90 C 876.54 434.81 877.22 424.67 879.43 415.70 C 867.58 416.51 854.56 416.09 844.56 423.56 Z" />
<path fill="#009aab" opacity="1.00" d=" M 1122.91 349.13 C 1137.59 344.26 1153.44 344.52 1168.51 347.23 C 1175.71 348.48 1183.25 350.25 1188.97 355.09 C 1191.97 357.78 1194.24 361.22 1196.17 364.75 C 1199.37 371.06 1199.10 378.52 1197.42 385.23 C 1185.66 385.13 1173.90 385.21 1162.14 385.18 C 1161.21 381.58 1160.14 377.22 1156.38 375.58 C 1151.28 373.25 1145.48 372.15 1139.94 373.34 C 1136.26 373.93 1131.74 375.11 1130.40 379.05 C 1129.81 381.68 1129.74 385.08 1132.14 386.88 C 1137.27 390.96 1143.81 392.53 1149.92 394.53 C 1159.78 397.30 1169.66 400.37 1178.66 405.34 C 1185.25 408.97 1190.53 415.32 1191.70 422.89 C 1193.02 431.26 1193.04 440.31 1189.12 448.04 C 1182.04 462.78 1167.40 472.91 1151.75 476.72 C 1144.98 478.53 1137.91 477.79 1130.99 477.95 C 1121.71 478.13 1112.45 476.72 1103.50 474.31 C 1096.07 472.19 1088.94 467.81 1085.05 460.95 C 1079.76 451.93 1079.63 440.86 1081.64 430.86 C 1093.29 430.87 1104.94 430.86 1116.60 430.87 C 1117.01 435.90 1116.42 442.48 1121.58 445.36 C 1128.02 448.75 1135.80 449.01 1142.87 447.86 C 1146.85 446.94 1151.80 445.78 1153.51 441.57 C 1154.89 437.22 1151.50 433.08 1148.02 430.92 C 1141.21 426.98 1133.25 426.03 1125.86 423.67 C 1117.03 421.25 1108.70 417.08 1101.55 411.36 C 1096.76 407.64 1093.08 402.24 1092.39 396.11 C 1091.17 383.83 1093.69 370.46 1102.06 360.99 C 1107.46 354.80 1115.33 351.71 1122.91 349.13 Z" />
<path fill="#009aab" opacity="1.00" d=" M 692.92 348.88 C 712.63 348.92 732.34 348.79 752.05 348.93 C 764.18 349.93 777.24 351.92 786.69 360.29 C 794.97 367.92 800.63 378.58 801.57 389.87 C 802.91 406.14 798.98 422.56 791.93 437.17 C 789.69 441.65 787.03 445.96 783.62 449.64 C 776.77 457.17 769.48 464.76 760.02 468.95 C 754.20 471.40 748.32 473.96 742.03 474.88 C 731.10 476.68 720.00 475.96 708.98 476.11 C 694.30 476.11 679.62 476.10 664.94 476.11 C 674.12 433.67 683.65 391.30 692.92 348.88 M 722.85 379.10 C 718.48 400.59 714.31 422.12 709.77 443.57 C 718.62 443.75 727.53 444.28 736.35 443.52 C 746.10 440.34 754.28 432.50 757.89 422.88 C 760.56 416.55 763.02 409.94 762.87 402.97 C 762.66 397.27 763.29 391.04 760.14 385.98 C 757.50 381.43 752.25 378.70 747.03 378.83 C 738.97 378.83 730.90 378.68 722.85 379.10 Z" />
<path fill="#009aab" opacity="1.00" d=" M 929.62 348.86 C 941.84 348.88 954.07 348.89 966.30 348.86 C 968.91 372.96 971.66 397.06 974.15 421.18 C 985.41 397.24 996.02 372.97 1006.93 348.87 C 1020.13 348.88 1033.33 348.89 1046.54 348.86 C 1026.37 391.27 1006.41 433.78 986.15 476.15 C 971.80 475.89 957.42 476.47 943.10 475.86 C 938.42 433.55 934.26 391.18 929.62 348.86 Z" />
<path fill="#009aab" opacity="1.00" d=" M 1052.02 348.96 C 1065.01 348.77 1078.01 348.93 1091.00 348.88 C 1081.87 391.28 1072.28 433.60 1063.10 476.00 C 1050.09 476.26 1037.09 476.02 1024.08 476.12 C 1033.31 433.72 1042.84 391.37 1052.02 348.96 Z" />
<path fill="#009aab" opacity="1.00" d=" M 1207.88 476.11 C 1217.12 433.68 1226.56 391.29 1235.89 348.88 C 1245.99 348.87 1256.09 348.88 1266.20 348.87 C 1265.31 353.13 1264.39 357.37 1263.44 361.61 C 1259.75 360.59 1256.05 359.62 1252.39 358.54 C 1255.26 363.59 1258.00 368.72 1260.78 373.83 C 1255.54 397.18 1250.44 420.57 1245.30 443.94 C 1245.09 445.02 1244.51 445.97 1243.69 446.69 C 1238.74 451.41 1233.48 455.80 1228.58 460.58 C 1233.21 459.55 1237.80 458.29 1242.42 457.18 C 1240.96 463.48 1239.53 469.79 1238.19 476.12 C 1228.09 476.09 1217.98 476.11 1207.88 476.11 Z" />
<path fill="#009aab" opacity="1.00" d=" M 1269.09 362.98 C 1270.15 358.24 1271.31 353.53 1272.56 348.84 C 1279.69 348.91 1286.81 348.86 1293.94 348.87 C 1292.45 355.40 1291.19 361.98 1289.52 368.46 C 1282.74 366.49 1275.87 364.90 1269.09 362.98 Z" />
<path fill="#009aab" opacity="1.00" d=" M 1301.34 349.11 C 1307.03 348.55 1312.77 349.03 1318.49 348.87 C 1316.58 357.40 1314.60 365.93 1312.87 374.51 C 1307.40 373.13 1301.98 371.62 1296.52 370.24 C 1298.27 363.23 1299.53 356.10 1301.34 349.11 Z" />
<path fill="#009aab" opacity="1.00" d=" M 1325.97 348.88 C 1330.78 348.87 1335.59 348.88 1340.41 348.87 C 1338.03 359.21 1335.83 369.58 1333.51 379.93 C 1328.95 378.72 1324.37 377.60 1319.85 376.30 C 1322.03 367.20 1323.89 358.02 1325.97 348.88 Z" />
<path fill="#009aab" opacity="1.00" d=" M 1351.48 348.84 C 1355.50 348.89 1359.53 348.88 1363.57 348.86 C 1360.83 361.15 1358.15 373.44 1355.41 385.73 C 1351.61 384.65 1347.79 383.68 1343.98 382.67 C 1346.39 371.38 1348.83 360.08 1351.48 348.84 Z" />
<path fill="#009aab" opacity="1.00" d=" M 1376.89 348.88 C 1380.17 348.87 1383.45 348.87 1386.75 348.86 C 1383.62 363.07 1380.48 377.29 1377.35 391.50 C 1374.26 390.63 1371.15 389.81 1368.04 389.02 C 1371.00 375.64 1373.95 362.26 1376.89 348.88 Z" />
<path fill="#009aab" opacity="1.00" d=" M 1391.36 395.13 C 1394.89 379.73 1398.12 364.26 1401.65 348.86 C 1404.42 348.87 1407.21 348.87 1410.01 348.88 C 1406.53 365.03 1402.96 381.16 1399.33 397.28 C 1396.68 396.51 1394.02 395.81 1391.36 395.13 Z" />
<path fill="#009aab" opacity="1.00" d=" M 1415.97 401.51 C 1419.92 383.96 1423.65 366.37 1427.66 348.84 C 1430.03 348.86 1432.39 348.87 1434.79 348.88 C 1430.98 367.12 1427.17 385.37 1423.40 403.62 C 1420.92 402.91 1418.43 402.21 1415.97 401.51 Z" />
<path fill="#009aab" opacity="1.00" d=" M 1456.79 349.48 C 1458.11 348.24 1460.98 349.19 1462.85 348.80 C 1453.57 391.27 1444.15 433.72 1434.78 476.18 C 1432.76 476.16 1430.74 476.16 1428.75 476.17 C 1438.16 433.95 1447.30 391.67 1456.79 349.48 Z" />
<path fill="#009aab" opacity="1.00" d=" M 1484.31 350.29 C 1489.33 347.98 1495.76 349.43 1499.24 353.78 C 1503.95 359.22 1502.76 368.76 1496.55 372.61 C 1490.56 376.87 1481.30 374.43 1478.17 367.78 C 1474.69 361.57 1477.84 353.06 1484.31 350.29 M 1487.42 351.62 C 1482.70 352.60 1479.02 357.20 1479.22 362.04 C 1479.02 367.76 1484.32 372.96 1490.07 372.54 C 1495.43 372.31 1499.95 367.30 1499.79 361.96 C 1500.01 355.67 1493.65 350.11 1487.42 351.62 Z" />
<path fill="#009aab" opacity="1.00" d=" M 1484.39 369.52 C 1484.44 364.54 1484.41 359.56 1484.43 354.58 C 1487.96 354.98 1492.98 353.23 1495.08 357.09 C 1496.23 360.00 1494.18 362.48 1491.60 363.54 C 1493.02 365.55 1494.38 367.61 1495.58 369.78 C 1490.99 369.99 1491.27 363.25 1486.84 362.94 C 1486.77 365.17 1486.80 367.41 1486.81 369.64 C 1486.20 369.61 1485.00 369.55 1484.39 369.52 M 1486.79 356.56 C 1486.77 358.13 1486.78 359.71 1486.80 361.29 C 1488.77 360.89 1492.58 361.87 1492.97 359.02 C 1492.86 355.94 1488.81 356.93 1486.79 356.56 Z" />
<path fill="#373e41" opacity="1.00" d=" M 603.48 363.54 C 605.13 363.08 606.78 362.62 608.45 362.21 C 608.51 362.54 608.62 363.19 608.67 363.51 C 609.98 372.99 611.30 382.48 612.18 392.02 C 610.53 392.05 608.89 392.10 607.25 392.17 C 606.05 382.62 605.16 373.02 603.48 363.54 Z" />
<path fill="#5a5a5a" opacity="0.49" d=" M 606.49 393.15 C 605.82 383.25 603.29 373.48 603.48 363.54 C 605.16 373.02 606.05 382.62 607.25 392.17 C 608.89 392.10 610.53 392.05 612.18 392.02 C 611.30 382.48 609.98 372.99 608.67 363.51 C 610.37 365.98 610.32 369.08 610.70 371.94 C 611.53 378.81 612.30 385.69 613.39 392.53 C 617.72 392.35 622.05 392.28 626.39 392.27 C 626.64 400.31 627.70 408.30 628.56 416.29 C 631.49 416.38 634.83 415.86 637.27 417.89 C 639.94 419.71 641.40 422.81 641.65 425.98 C 647.44 475.33 653.17 524.68 658.95 574.03 C 659.58 578.62 660.32 583.40 658.70 587.89 L 657.74 587.37 C 658.45 585.37 659.09 583.27 658.83 581.12 C 652.98 530.74 647.03 480.37 641.22 429.98 C 640.74 426.31 640.77 421.95 637.65 419.38 C 635.09 416.72 631.20 417.14 627.85 417.08 C 626.66 409.11 626.02 401.06 625.39 393.03 C 620.88 393.17 616.31 393.67 611.87 392.64 C 610.07 392.78 608.28 392.96 606.49 393.15 Z" />
<path fill="#009aab" opacity="1.00" d=" M 1265.10 382.01 C 1267.41 386.21 1270.18 390.28 1271.85 394.77 C 1269.54 405.71 1267.18 416.68 1264.44 427.52 C 1260.57 431.52 1256.48 435.43 1252.02 438.78 C 1253.75 435.39 1254.21 431.58 1255.06 427.92 C 1258.36 412.61 1261.90 397.34 1265.10 382.01 Z" />
<path fill="#ebebeb" opacity="1.00" d=" M 601.31 393.37 C 603.04 393.37 604.76 393.35 606.49 393.15 C 608.28 392.96 610.07 392.78 611.87 392.64 C 616.31 393.67 620.88 393.17 625.39 393.03 C 626.02 401.06 626.66 409.11 627.85 417.08 C 631.20 417.14 635.09 416.72 637.65 419.38 C 640.77 421.95 640.74 426.31 641.22 429.98 C 647.03 480.37 652.98 530.74 658.83 581.12 C 659.09 583.27 658.45 585.37 657.74 587.37 C 657.59 587.79 657.29 588.63 657.14 589.05 C 656.76 589.25 655.99 589.63 655.61 589.82 C 652.29 591.74 648.39 591.80 644.69 592.21 C 645.02 601.34 646.44 610.39 646.96 619.51 C 641.98 619.66 636.96 619.65 632.04 620.48 C 629.38 620.73 626.69 620.60 624.07 621.17 C 618.88 621.16 613.72 621.76 608.53 621.73 L 608.46 622.25 C 606.10 622.23 603.74 622.26 601.40 622.37 C 601.49 597.23 601.39 572.09 601.45 546.96 C 601.47 544.66 601.33 542.37 601.09 540.10 C 600.95 531.94 600.87 523.76 601.14 515.60 C 601.80 500.77 601.25 485.89 601.43 471.05 C 601.35 445.15 601.59 419.26 601.31 393.37 Z" />
<path fill="#009aab" opacity="1.00" d=" M 1412.83 416.01 C 1415.60 415.36 1418.35 414.67 1421.15 414.05 C 1416.19 434.60 1411.70 455.27 1406.71 475.81 C 1404.33 476.28 1401.89 476.10 1399.50 476.16 C 1403.98 456.11 1408.32 436.04 1412.83 416.01 Z" />
<path fill="#009aab" opacity="1.00" d=" M 1385.26 422.75 C 1388.26 421.96 1391.29 421.23 1394.32 420.47 C 1390.11 438.98 1386.10 457.52 1382.02 476.06 C 1379.18 476.10 1376.34 476.11 1373.52 476.15 C 1377.44 458.35 1381.45 440.57 1385.26 422.75 Z" />
<path fill="#009aab" opacity="1.00" d=" M 1359.26 428.98 C 1362.74 428.14 1366.23 427.28 1369.72 426.41 C 1365.83 442.95 1362.51 459.62 1358.56 476.15 C 1355.36 476.10 1352.16 476.10 1348.98 476.13 C 1352.13 460.36 1355.84 444.70 1359.26 428.98 Z" />
<path fill="#009aab" opacity="1.00" d=" M 1332.28 435.50 C 1336.58 434.46 1340.90 433.44 1345.20 432.37 C 1341.80 446.81 1338.93 461.38 1335.46 475.80 C 1331.47 476.53 1327.34 475.92 1323.32 476.11 C 1326.31 462.57 1329.29 449.04 1332.28 435.50 Z" />
<path fill="#009aab" opacity="1.00" d=" M 1305.44 442.03 C 1310.51 440.73 1315.61 439.55 1320.69 438.27 C 1317.79 450.88 1315.17 463.54 1312.25 476.14 C 1307.50 476.08 1302.76 476.09 1298.02 476.14 C 1300.27 464.72 1303.00 453.40 1305.44 442.03 Z" />
<path fill="#009aab" opacity="1.00" d=" M 1279.31 448.36 C 1285.36 446.80 1291.46 445.41 1297.52 443.86 C 1295.08 454.61 1292.84 465.41 1290.31 476.14 C 1284.62 476.08 1278.94 476.09 1273.26 476.14 C 1275.19 466.86 1277.40 457.64 1279.31 448.36 Z" />
<path fill="#2f383c" opacity="1.00" d=" M 250.27 451.35 C 258.76 451.27 267.25 451.11 275.74 451.11 C 278.54 451.78 280.27 453.71 280.85 456.51 C 280.94 456.99 281.12 457.96 281.21 458.44 C 281.60 459.45 281.97 460.47 282.32 461.50 C 282.78 462.82 283.20 464.15 283.66 465.48 C 284.02 466.51 284.39 467.53 284.78 468.56 C 284.88 469.03 285.10 469.98 285.21 470.46 C 285.72 471.78 286.20 473.13 286.71 474.47 C 287.01 475.48 287.33 476.49 287.67 477.50 C 287.98 478.50 288.31 479.50 288.64 480.51 C 289.01 481.53 289.39 482.55 289.79 483.57 C 289.90 484.04 290.11 484.98 290.22 485.46 C 290.92 487.32 291.60 489.21 292.29 491.09 C 294.20 491.00 296.12 490.95 298.03 490.72 C 300.67 490.37 303.31 490.04 305.98 489.98 C 388.31 490.09 470.65 489.97 552.98 490.04 C 559.31 490.00 565.68 489.62 571.96 490.69 C 572.98 490.82 574.03 490.81 575.06 490.68 C 580.28 489.84 585.58 489.87 590.85 490.14 C 591.51 496.30 589.71 502.83 592.02 508.72 C 592.33 509.36 592.96 510.62 593.27 511.26 C 595.58 511.16 597.89 511.35 600.21 511.50 C 600.22 512.52 600.23 513.55 600.26 514.58 C 599.50 513.71 598.75 512.84 598.00 511.98 C 596.36 511.99 594.73 512.00 593.10 512.03 C 592.83 524.36 593.09 536.70 592.99 549.04 C 592.99 550.35 592.99 551.67 593.00 552.99 C 592.25 553.00 590.75 553.00 590.00 553.01 C 590.00 559.00 590.00 565.00 590.00 571.00 C 578.92 571.12 567.84 570.75 556.77 571.20 L 555.88 571.36 C 554.25 571.62 552.60 571.79 550.95 571.88 C 484.63 571.86 418.30 571.87 351.98 571.87 C 347.02 571.82 342.02 572.24 337.12 571.35 L 336.26 571.20 C 320.18 570.74 304.07 571.13 287.98 571.00 C 283.88 571.05 279.74 570.68 275.68 571.44 C 267.22 571.76 258.75 571.53 250.29 571.58 C 249.52 571.28 248.76 570.99 248.00 570.72 C 247.98 545.47 248.04 520.23 247.97 494.99 C 247.95 493.38 248.10 491.75 248.83 490.30 C 249.22 478.53 248.90 466.75 248.98 454.98 C 249.19 453.85 248.61 451.56 250.27 451.35 M 333.01 510.10 C 328.41 512.31 327.52 517.76 326.30 522.17 C 331.05 522.14 335.80 522.16 340.55 522.15 C 341.37 520.27 341.57 517.58 343.75 516.71 C 346.63 515.49 350.30 515.26 352.94 517.17 C 353.55 518.88 354.13 522.08 351.76 522.63 C 344.82 524.79 336.92 523.50 330.57 527.54 C 325.51 530.25 322.69 535.74 321.54 541.16 C 320.67 545.88 322.25 551.86 327.09 553.78 C 333.49 555.92 340.63 554.79 346.68 552.05 C 346.60 552.63 346.42 553.77 346.33 554.35 C 350.86 554.41 355.39 554.35 359.93 554.43 C 359.75 552.55 359.86 550.68 360.30 548.86 C 362.49 538.54 364.82 528.26 366.77 517.90 C 367.86 514.16 365.18 510.46 361.73 509.24 C 352.50 505.98 342.05 506.43 333.01 510.10 M 433.01 510.94 C 427.57 514.04 425.84 521.15 427.01 526.95 C 428.34 530.94 432.40 533.17 436.06 534.71 C 440.44 536.70 446.31 536.32 449.10 540.89 C 448.85 541.48 448.34 542.65 448.09 543.24 C 444.72 544.58 440.70 545.20 437.36 543.49 C 435.38 542.52 435.68 540.00 435.23 538.20 C 431.08 538.22 426.93 538.20 422.78 538.21 C 422.16 542.90 422.37 548.45 426.43 551.62 C 431.45 555.25 438.04 554.97 443.94 554.97 C 450.39 555.12 456.70 551.58 460.26 546.27 C 462.93 542.57 463.09 537.52 461.68 533.33 C 458.51 527.49 451.18 526.64 445.50 524.61 C 443.17 523.78 439.17 522.62 440.34 519.36 C 443.59 516.01 450.65 516.94 452.06 521.80 C 456.23 521.82 460.40 521.86 464.57 521.73 C 464.86 518.72 464.93 515.40 462.89 512.93 C 460.60 509.28 456.02 508.51 452.09 507.98 C 445.64 507.01 438.76 507.71 433.01 510.94 M 284.10 508.90 C 280.53 524.02 277.65 539.31 273.91 554.39 C 282.25 554.29 290.61 554.55 298.95 554.27 C 309.26 553.83 318.16 545.86 321.18 536.24 C 323.41 529.55 324.35 521.34 319.75 515.40 C 316.57 510.59 310.51 509.06 305.06 508.94 C 298.08 508.81 291.08 508.93 284.10 508.90 M 368.57 508.89 C 370.44 524.04 371.66 539.26 373.49 554.41 C 378.60 554.36 383.72 554.37 388.83 554.40 C 396.05 539.23 403.18 524.02 410.43 508.86 C 405.69 508.91 400.96 508.87 396.23 508.92 C 392.17 517.38 388.85 526.21 384.47 534.51 C 383.55 525.97 382.72 517.42 381.71 508.89 C 377.33 508.89 372.95 508.89 368.57 508.89 M 412.35 508.95 C 408.98 524.09 405.86 539.30 402.23 554.38 C 406.93 554.38 411.63 554.38 416.33 554.39 C 419.61 539.21 422.93 524.04 426.35 508.90 C 421.68 508.89 417.01 508.86 412.35 508.95 M 477.98 508.90 C 474.63 524.05 471.53 539.27 467.89 554.36 C 471.54 554.39 475.20 554.39 478.86 554.37 C 479.34 552.06 479.87 549.78 480.49 547.52 C 478.83 548.01 477.18 548.51 475.50 548.92 C 477.30 546.91 479.52 545.33 481.24 543.25 C 483.36 534.81 484.93 526.23 486.94 517.76 C 485.92 515.92 484.87 514.08 483.85 512.25 C 484.86 512.55 486.88 513.14 487.89 513.44 C 488.21 511.92 488.53 510.40 488.85 508.89 C 485.22 508.89 481.60 508.89 477.98 508.90 M 491.16 508.90 C 490.72 510.58 490.27 512.26 489.82 513.95 C 492.31 514.53 494.77 515.21 497.26 515.82 C 497.76 513.50 498.25 511.18 498.79 508.87 C 496.24 508.88 493.70 508.89 491.16 508.90 M 501.39 508.93 C 500.85 511.45 500.26 513.96 499.69 516.48 C 501.64 516.99 503.59 517.51 505.55 517.97 C 506.18 514.93 506.84 511.90 507.49 508.86 C 505.45 508.88 503.42 508.90 501.39 508.93 M 510.25 508.95 C 509.48 512.15 508.76 515.38 508.07 518.61 C 509.68 519.09 511.31 519.57 512.95 520.03 C 513.68 516.28 514.50 512.56 515.42 508.85 C 513.68 508.88 511.97 508.91 510.25 508.95 M 519.25 509.02 C 518.40 513.01 517.57 517.00 516.59 520.96 C 517.95 521.30 519.32 521.66 520.70 522.01 C 521.77 517.63 522.63 513.20 523.70 508.82 C 522.21 508.87 520.73 508.94 519.25 509.02 M 528.37 509.25 C 527.23 513.87 526.36 518.56 525.19 523.18 C 526.32 523.51 527.45 523.85 528.60 524.19 C 529.68 519.01 530.84 513.85 531.98 508.69 C 530.76 508.80 529.56 508.99 528.37 509.25 M 537.29 508.90 C 536.00 514.34 534.85 519.82 533.54 525.26 C 534.25 525.54 535.67 526.10 536.37 526.38 C 537.76 520.56 538.90 514.69 540.31 508.88 C 539.56 508.88 538.05 508.90 537.29 508.90 M 546.58 509.32 C 544.85 515.32 543.91 521.51 542.27 527.54 C 542.97 527.80 544.37 528.33 545.07 528.59 C 546.30 521.88 547.85 515.23 549.12 508.53 C 548.48 508.73 547.21 509.13 546.58 509.32 M 557.05 509.32 C 553.32 524.37 550.28 539.61 546.88 554.75 C 547.42 554.58 548.50 554.26 549.04 554.09 C 552.57 538.94 555.95 523.72 559.12 508.47 C 558.60 508.68 557.56 509.11 557.05 509.32 M 566.45 509.33 C 564.58 510.40 563.23 512.80 564.12 514.94 C 564.98 517.78 568.84 519.41 571.28 517.43 C 573.54 516.18 573.28 513.28 572.73 511.16 C 571.53 508.75 568.70 509.02 566.45 509.33 M 488.46 520.87 C 486.95 527.57 485.56 534.30 483.97 540.98 C 485.48 539.60 487.29 538.39 488.29 536.57 C 489.30 532.82 490.27 529.04 490.88 525.21 C 490.36 523.62 489.35 522.26 488.46 520.87 M 541.24 532.83 C 539.67 540.14 537.98 547.43 536.48 554.75 C 537.10 554.59 538.34 554.26 538.95 554.09 C 541.13 546.92 542.24 539.46 544.27 532.25 C 543.51 532.39 541.99 532.69 541.24 532.83 M 531.42 535.53 C 529.84 541.85 528.68 548.27 527.17 554.61 C 527.91 554.50 529.40 554.29 530.15 554.18 C 531.93 547.59 533.12 540.85 534.66 534.19 C 533.85 534.53 532.23 535.20 531.42 535.53 M 522.12 537.51 C 520.85 543.14 519.70 548.79 518.33 554.39 C 519.23 554.38 521.04 554.36 521.94 554.35 C 523.19 548.42 524.52 542.52 525.82 536.60 C 524.89 536.83 523.04 537.28 522.12 537.51 M 512.46 539.98 C 511.36 544.78 510.41 549.63 509.17 554.40 C 510.68 554.38 512.19 554.35 513.70 554.32 C 514.74 549.06 515.92 543.83 517.10 538.61 C 515.55 539.05 514.00 539.51 512.46 539.98 M 502.91 542.22 C 501.96 546.27 501.18 550.35 500.07 554.37 C 501.81 554.37 503.55 554.38 505.30 554.40 C 506.35 549.87 507.24 545.31 508.43 540.82 C 506.58 541.27 504.74 541.74 502.91 542.22 M 493.49 544.55 C 492.83 547.85 492.11 551.14 491.35 554.43 C 493.43 554.39 495.51 554.36 497.59 554.31 C 498.32 550.49 499.20 546.70 500.17 542.94 C 497.93 543.42 495.70 543.96 493.49 544.55 M 482.80 547.01 C 482.19 549.46 481.61 551.93 481.02 554.39 C 483.60 554.38 486.18 554.38 488.76 554.34 C 489.47 551.28 490.16 548.21 490.90 545.15 C 488.19 545.77 485.50 546.41 482.80 547.01 Z" />
<path fill="#009aab" opacity="1.00" d=" M 1248.91 455.70 C 1256.46 453.81 1264.06 452.17 1271.61 450.30 C 1269.55 458.77 1268.07 467.39 1265.80 475.81 C 1258.69 476.54 1251.51 475.85 1244.38 476.15 C 1245.96 469.35 1247.40 462.52 1248.91 455.70 Z" />
<path fill="#a1a1a1" opacity="1.00" d=" M 1176.52 488.73 C 1179.86 486.87 1184.57 489.12 1184.97 492.99 C 1185.88 497.56 1180.18 501.36 1176.32 498.73 C 1172.54 496.70 1172.70 490.63 1176.52 488.73 Z" />
<path fill="#a1a1a1" opacity="1.00" d=" M 1083.50 489.00 C 1086.24 488.99 1088.99 489.00 1091.75 489.00 C 1091.71 497.70 1091.81 506.41 1091.69 515.11 C 1097.58 505.25 1112.85 504.28 1120.57 512.41 C 1126.46 518.62 1127.88 527.74 1127.08 535.97 C 1126.42 542.79 1123.53 549.84 1117.68 553.78 C 1109.45 559.25 1096.96 557.35 1091.48 548.85 C 1091.49 551.23 1091.49 553.60 1091.46 555.99 C 1088.80 556.00 1086.15 556.00 1083.50 556.00 C 1083.50 533.67 1083.50 511.33 1083.50 489.00 M 1100.33 515.53 C 1095.70 517.37 1092.87 522.10 1092.13 526.87 C 1091.19 532.63 1091.60 538.99 1094.89 543.98 C 1098.83 549.90 1108.08 551.00 1113.37 546.30 C 1117.44 542.79 1118.58 537.09 1118.54 531.95 C 1118.62 527.03 1117.53 521.73 1114.00 518.09 C 1110.55 514.47 1104.86 513.91 1100.33 515.53 Z" />
<path fill="#a1a1a1" opacity="1.00" d=" M 1231.27 489.03 C 1234.08 488.99 1236.90 488.99 1239.72 489.02 C 1239.77 511.34 1239.75 533.65 1239.73 555.97 C 1236.98 556.00 1234.25 556.00 1231.53 555.99 C 1231.49 553.64 1231.50 551.29 1231.58 548.94 C 1228.03 553.88 1222.18 557.22 1216.01 556.79 C 1208.74 557.16 1201.76 552.61 1198.77 546.05 C 1195.04 537.91 1194.85 528.23 1197.90 519.84 C 1200.46 512.75 1207.22 507.09 1214.95 507.00 C 1221.39 506.40 1227.81 509.50 1231.36 514.92 C 1231.14 506.29 1231.28 497.66 1231.27 489.03 M 1214.18 515.14 C 1209.58 516.34 1206.45 520.63 1205.36 525.08 C 1203.85 531.16 1204.14 538.02 1207.34 543.52 C 1211.17 550.14 1221.43 551.14 1226.70 545.75 C 1230.32 542.20 1231.33 536.91 1231.49 532.03 C 1231.39 526.91 1230.19 521.34 1226.30 517.72 C 1223.06 514.76 1218.32 514.10 1214.18 515.14 Z" />
<path fill="#a1a1a1" opacity="1.00" d=" M 811.50 491.75 C 814.77 491.75 818.04 491.75 821.32 491.74 C 828.68 509.30 835.62 527.04 843.15 544.53 C 850.40 526.94 857.61 509.35 864.82 491.75 C 868.12 491.74 871.43 491.74 874.74 491.79 C 874.73 513.18 874.78 534.58 874.72 555.98 C 871.99 556.00 869.26 556.00 866.54 555.99 C 866.45 540.09 866.52 524.18 866.51 508.27 C 859.89 524.16 853.34 540.08 846.79 555.99 C 844.31 555.99 841.85 555.99 839.40 555.99 C 832.85 540.45 826.77 524.69 819.90 509.29 C 819.54 524.85 819.87 540.42 819.72 555.98 C 816.98 556.00 814.23 556.00 811.50 556.00 C 811.50 534.59 811.50 513.17 811.50 491.75 Z" />
<path fill="#a1a1a1" opacity="1.00" d=" M 946.01 495.54 C 948.83 495.49 951.64 495.49 954.47 495.52 C 954.51 499.59 954.50 503.67 954.49 507.75 C 957.99 507.74 961.50 507.73 965.00 507.79 C 964.99 510.18 964.99 512.57 964.97 514.97 C 961.48 515.01 957.98 515.00 954.50 515.00 C 954.50 523.66 954.50 532.31 954.48 540.97 C 954.51 543.21 954.60 545.87 956.39 547.50 C 958.81 549.44 962.13 548.70 965.00 548.82 C 964.99 551.21 964.99 553.61 965.00 556.01 C 959.97 556.47 954.28 556.97 949.91 553.91 C 946.58 551.41 946.02 546.93 945.99 543.06 C 945.99 533.71 946.00 524.35 946.00 515.00 C 943.49 515.00 940.99 514.99 938.50 515.00 C 938.49 512.58 938.49 510.16 938.50 507.75 C 940.99 507.74 943.49 507.75 946.00 507.75 C 946.00 503.68 945.99 499.61 946.01 495.54 Z" />
<path fill="#feffff" opacity="1.00" d=" M 333.01 510.10 C 342.05 506.43 352.50 505.98 361.73 509.24 C 365.18 510.46 367.86 514.16 366.77 517.90 C 364.82 528.26 362.49 538.54 360.30 548.86 C 359.86 550.68 359.75 552.55 359.93 554.43 C 355.39 554.35 350.86 554.41 346.33 554.35 C 346.42 553.77 346.60 552.63 346.68 552.05 C 340.63 554.79 333.49 555.92 327.09 553.78 C 322.25 551.86 320.67 545.88 321.54 541.16 C 322.69 535.74 325.51 530.25 330.57 527.54 C 336.92 523.50 344.82 524.79 351.76 522.63 C 354.13 522.08 353.55 518.88 352.94 517.17 C 350.30 515.26 346.63 515.49 343.75 516.71 C 341.57 517.58 341.37 520.27 340.55 522.15 C 335.80 522.16 331.05 522.14 326.30 522.17 C 327.52 517.76 328.41 512.31 333.01 510.10 M 337.36 536.44 C 335.66 538.63 335.25 542.80 338.10 544.26 C 341.66 545.17 345.99 544.19 348.17 541.05 C 349.74 538.51 350.09 535.46 350.81 532.61 C 346.24 533.21 340.83 532.83 337.36 536.44 Z" />
<path fill="#a1a1a1" opacity="1.00" d=" M 893.79 513.83 C 901.80 504.31 919.04 504.50 926.21 514.93 C 930.26 520.54 930.80 527.73 930.81 534.43 C 919.38 534.61 907.94 534.41 896.51 534.53 C 897.04 539.50 898.69 545.07 903.36 547.67 C 909.49 550.99 918.45 549.42 921.96 543.01 C 924.73 542.99 927.51 542.99 930.30 543.03 C 928.68 549.41 923.40 554.49 917.00 555.98 C 910.13 557.57 902.17 557.24 896.45 552.67 C 890.54 548.06 887.96 540.33 887.97 533.04 C 887.69 526.25 889.25 519.06 893.79 513.83 M 900.89 517.94 C 898.25 520.43 897.29 524.05 896.48 527.46 C 904.98 527.52 913.50 527.55 922.01 527.43 C 921.44 524.26 920.79 520.91 918.56 518.44 C 914.23 513.30 905.58 513.24 900.89 517.94 Z" />
<path fill="#a1a1a1" opacity="1.00" d=" M 979.69 513.69 C 987.79 504.29 1004.88 504.59 1012.05 514.97 C 1016.02 520.60 1016.69 527.77 1016.51 534.47 C 1005.10 534.56 993.69 534.42 982.28 534.54 C 982.77 539.82 984.82 545.68 989.96 548.08 C 995.97 550.73 1004.42 549.30 1007.64 543.05 C 1010.45 542.98 1013.28 542.98 1016.10 543.10 C 1014.42 549.08 1009.74 554.04 1003.71 555.72 C 996.41 557.73 987.74 557.34 981.72 552.27 C 976.12 547.62 973.80 540.09 973.72 533.01 C 973.51 526.19 975.04 518.90 979.69 513.69 M 988.45 516.50 C 984.67 518.86 983.11 523.30 982.25 527.45 C 990.76 527.55 999.27 527.50 1007.78 527.48 C 1007.26 524.55 1006.75 521.48 1004.87 519.09 C 1001.18 514.06 993.53 513.12 988.45 516.50 Z" />
<path fill="#a1a1a1" opacity="1.00" d=" M 1042.52 507.62 C 1049.75 506.01 1058.03 507.21 1063.64 512.35 C 1068.93 517.32 1070.90 524.87 1070.79 531.93 C 1070.92 539.45 1068.59 547.64 1062.47 552.45 C 1056.99 556.87 1049.45 557.51 1042.75 556.27 C 1035.93 554.90 1030.26 549.56 1028.06 543.02 C 1025.53 535.70 1025.63 527.49 1028.26 520.21 C 1030.52 513.97 1036.01 509.04 1042.52 507.62 M 1044.25 515.26 C 1039.37 516.61 1036.33 521.33 1035.53 526.11 C 1034.48 532.07 1034.62 538.80 1038.07 544.00 C 1042.41 550.54 1053.01 550.99 1058.15 545.19 C 1061.24 541.57 1062.08 536.61 1062.14 531.99 C 1062.09 527.13 1061.24 521.84 1057.73 518.20 C 1054.33 514.64 1048.81 514.00 1044.25 515.26 Z" />
<path fill="#a1a1a1" opacity="1.00" d=" M 1147.41 514.20 C 1150.82 507.84 1158.61 506.21 1165.24 507.13 C 1165.24 509.91 1165.24 512.70 1165.23 515.50 C 1160.69 515.11 1155.55 514.65 1151.84 517.85 C 1148.09 520.65 1147.56 525.68 1147.73 530.02 C 1147.77 538.67 1147.73 547.33 1147.75 556.00 C 1144.99 556.00 1142.24 556.00 1139.50 556.00 C 1139.50 539.92 1139.49 523.85 1139.51 507.77 C 1142.17 507.74 1144.83 507.74 1147.51 507.77 C 1147.49 509.91 1147.47 512.05 1147.41 514.20 Z" />
<path fill="#a1a1a1" opacity="1.00" d=" M 1259.67 511.69 C 1267.60 504.31 1282.20 505.57 1288.03 515.01 C 1287.98 512.60 1287.99 510.19 1288.00 507.79 C 1290.65 507.75 1293.32 507.74 1296.00 507.75 C 1296.01 524.16 1295.98 540.58 1296.01 557.00 C 1296.14 561.23 1294.41 565.46 1291.42 568.44 C 1287.13 572.66 1280.89 574.11 1275.06 574.26 C 1269.07 574.32 1262.62 573.03 1258.19 568.74 C 1255.90 566.57 1254.84 563.54 1254.04 560.58 C 1256.93 560.48 1259.84 560.48 1262.75 560.52 C 1263.96 562.72 1265.48 565.03 1268.08 565.74 C 1273.63 567.52 1280.63 567.34 1285.07 563.12 C 1289.11 558.84 1287.33 552.52 1287.83 547.25 C 1281.67 557.54 1265.48 557.90 1257.97 549.02 C 1253.11 543.21 1251.76 535.24 1252.42 527.88 C 1252.96 521.90 1255.07 515.77 1259.67 511.69 M 1269.30 515.51 C 1264.27 517.40 1261.69 522.77 1261.17 527.83 C 1260.60 533.17 1261.16 539.11 1264.61 543.46 C 1269.36 549.39 1279.54 549.18 1284.24 543.29 C 1287.40 539.29 1288.13 533.92 1287.77 528.97 C 1287.48 524.70 1285.92 520.26 1282.55 517.47 C 1278.95 514.41 1273.64 514.03 1269.30 515.51 Z" />
<path fill="#a1a1a1" opacity="1.00" d=" M 1318.97 509.80 C 1326.85 505.34 1337.89 505.94 1344.52 512.41 C 1350.24 518.16 1351.45 526.74 1351.01 534.50 C 1339.63 534.50 1328.25 534.49 1316.87 534.50 C 1317.41 539.20 1318.82 544.33 1322.95 547.15 C 1329.09 551.15 1338.70 549.71 1342.38 543.00 C 1345.14 542.99 1347.90 542.99 1350.68 543.06 C 1349.09 549.29 1343.96 554.26 1337.77 555.87 C 1330.45 557.74 1321.82 557.19 1315.95 551.95 C 1309.60 546.32 1307.76 537.21 1308.39 529.08 C 1308.89 521.58 1312.19 513.66 1318.97 509.80 M 1320.66 518.64 C 1318.36 521.04 1317.63 524.38 1316.93 527.51 C 1325.44 527.47 1333.96 527.55 1342.48 527.46 C 1341.85 523.95 1340.96 520.21 1338.26 517.68 C 1333.48 513.03 1324.93 513.58 1320.66 518.64 Z" />
<path fill="#feffff" opacity="1.00" d=" M 433.01 510.94 C 438.76 507.71 445.64 507.01 452.09 507.98 C 456.02 508.51 460.60 509.28 462.89 512.93 C 464.93 515.40 464.86 518.72 464.57 521.73 C 460.40 521.86 456.23 521.82 452.06 521.80 C 450.65 516.94 443.59 516.01 440.34 519.36 C 439.17 522.62 443.17 523.78 445.50 524.61 C 451.18 526.64 458.51 527.49 461.68 533.33 C 463.09 537.52 462.93 542.57 460.26 546.27 C 456.70 551.58 450.39 555.12 443.94 554.97 C 438.04 554.97 431.45 555.25 426.43 551.62 C 422.37 548.45 422.16 542.90 422.78 538.21 C 426.93 538.20 431.08 538.22 435.23 538.20 C 435.68 540.00 435.38 542.52 437.36 543.49 C 440.70 545.20 444.72 544.58 448.09 543.24 C 448.34 542.65 448.85 541.48 449.10 540.89 C 446.31 536.32 440.44 536.70 436.06 534.71 C 432.40 533.17 428.34 530.94 427.01 526.95 C 425.84 521.15 427.57 514.04 433.01 510.94 Z" />
<path fill="#a1a1a1" opacity="1.00" d=" M 1175.01 507.79 C 1177.83 507.74 1180.65 507.74 1183.49 507.77 C 1183.49 523.84 1183.54 539.92 1183.46 555.99 C 1180.64 556.00 1177.83 556.00 1175.03 555.98 C 1174.97 539.91 1175.01 523.85 1175.01 507.79 Z" />
<path fill="#feffff" opacity="1.00" d=" M 284.10 508.90 C 291.08 508.93 298.08 508.81 305.06 508.94 C 310.51 509.06 316.57 510.59 319.75 515.40 C 324.35 521.34 323.41 529.55 321.18 536.24 C 318.16 545.86 309.26 553.83 298.95 554.27 C 290.61 554.55 282.25 554.29 273.91 554.39 C 277.65 539.31 280.53 524.02 284.10 508.90 M 290.07 542.75 C 294.38 542.69 299.37 543.95 303.02 540.96 C 308.29 536.87 309.87 529.41 308.60 523.12 C 306.30 517.68 299.34 520.19 294.79 519.72 C 293.22 527.40 291.65 535.08 290.07 542.75 Z" />
<path fill="#feffff" opacity="1.00" d=" M 368.57 508.89 C 372.95 508.89 377.33 508.89 381.71 508.89 C 382.72 517.42 383.55 525.97 384.47 534.51 C 388.85 526.21 392.17 517.38 396.23 508.92 C 400.96 508.87 405.69 508.91 410.43 508.86 C 403.18 524.02 396.05 539.23 388.83 554.40 C 383.72 554.37 378.60 554.36 373.49 554.41 C 371.66 539.26 370.44 524.04 368.57 508.89 Z" />
<path fill="#feffff" opacity="1.00" d=" M 412.35 508.95 C 417.01 508.86 421.68 508.89 426.35 508.90 C 422.93 524.04 419.61 539.21 416.33 554.39 C 411.63 554.38 406.93 554.38 402.23 554.38 C 405.86 539.30 408.98 524.09 412.35 508.95 Z" />
<path fill="#feffff" opacity="1.00" d=" M 477.98 508.90 C 481.60 508.89 485.22 508.89 488.85 508.89 C 488.53 510.40 488.21 511.92 487.89 513.44 C 486.88 513.14 484.86 512.55 483.85 512.25 C 484.87 514.08 485.92 515.92 486.94 517.76 C 484.93 526.23 483.36 534.81 481.24 543.25 C 479.52 545.33 477.30 546.91 475.50 548.92 C 477.18 548.51 478.83 548.01 480.49 547.52 C 479.87 549.78 479.34 552.06 478.86 554.37 C 475.20 554.39 471.54 554.39 467.89 554.36 C 471.53 539.27 474.63 524.05 477.98 508.90 Z" />
<path fill="#feffff" opacity="1.00" d=" M 491.16 508.90 C 493.70 508.89 496.24 508.88 498.79 508.87 C 498.25 511.18 497.76 513.50 497.26 515.82 C 494.77 515.21 492.31 514.53 489.82 513.95 C 490.27 512.26 490.72 510.58 491.16 508.90 Z" />
<path fill="#feffff" opacity="1.00" d=" M 501.39 508.93 C 503.42 508.90 505.45 508.88 507.49 508.86 C 506.84 511.90 506.18 514.93 505.55 517.97 C 503.59 517.51 501.64 516.99 499.69 516.48 C 500.26 513.96 500.85 511.45 501.39 508.93 Z" />
<path fill="#feffff" opacity="1.00" d=" M 510.25 508.95 C 511.97 508.91 513.68 508.88 515.42 508.85 C 514.50 512.56 513.68 516.28 512.95 520.03 C 511.31 519.57 509.68 519.09 508.07 518.61 C 508.76 515.38 509.48 512.15 510.25 508.95 Z" />
<path fill="#feffff" opacity="1.00" d=" M 519.25 509.02 C 520.73 508.94 522.21 508.87 523.70 508.82 C 522.63 513.20 521.77 517.63 520.70 522.01 C 519.32 521.66 517.95 521.30 516.59 520.96 C 517.57 517.00 518.40 513.01 519.25 509.02 Z" />
<path fill="#feffff" opacity="1.00" d=" M 528.37 509.25 C 529.56 508.99 530.76 508.80 531.98 508.69 C 530.84 513.85 529.68 519.01 528.60 524.19 C 527.45 523.85 526.32 523.51 525.19 523.18 C 526.36 518.56 527.23 513.87 528.37 509.25 Z" />
<path fill="#feffff" opacity="1.00" d=" M 537.29 508.90 C 538.05 508.90 539.56 508.88 540.31 508.88 C 538.90 514.69 537.76 520.56 536.37 526.38 C 535.67 526.10 534.25 525.54 533.54 525.26 C 534.85 519.82 536.00 514.34 537.29 508.90 Z" />
<path fill="#feffff" opacity="1.00" d=" M 546.58 509.32 C 547.21 509.13 548.48 508.73 549.12 508.53 C 547.85 515.23 546.30 521.88 545.07 528.59 C 544.37 528.33 542.97 527.80 542.27 527.54 C 543.91 521.51 544.85 515.32 546.58 509.32 Z" />
<path fill="#feffff" opacity="1.00" d=" M 557.05 509.32 C 557.56 509.11 558.60 508.68 559.12 508.47 C 555.95 523.72 552.57 538.94 549.04 554.09 C 548.50 554.26 547.42 554.58 546.88 554.75 C 550.28 539.61 553.32 524.37 557.05 509.32 Z" />
<path fill="#ebebeb" opacity="1.00" d=" M 566.45 509.33 C 568.70 509.02 571.53 508.75 572.73 511.16 C 573.28 513.28 573.54 516.18 571.28 517.43 C 568.84 519.41 564.98 517.78 564.12 514.94 C 563.23 512.80 564.58 510.40 566.45 509.33 M 566.65 509.97 L 567.02 510.15 C 568.32 510.78 569.66 511.39 570.99 512.01 C 570.27 513.55 569.87 515.16 570.82 516.77 C 572.60 514.74 572.36 512.33 570.85 510.33 C 569.44 510.19 568.04 510.08 566.65 509.97 M 564.78 513.05 C 565.16 515.69 567.82 517.81 570.51 517.50 C 569.78 516.32 569.06 515.15 568.33 513.98 L 567.87 516.12 C 566.81 514.29 566.63 512.20 567.02 510.15 C 566.21 511.07 565.47 512.04 564.78 513.05 M 568.51 512.09 C 568.99 512.83 568.99 512.83 568.51 512.09 Z" />
<path fill="#2f383c" opacity="1.00" d=" M 566.65 509.97 C 568.04 510.08 569.44 510.19 570.85 510.33 C 572.36 512.33 572.60 514.74 570.82 516.77 C 569.87 515.16 570.27 513.55 570.99 512.01 C 569.66 511.39 568.32 510.78 567.02 510.15 L 566.65 509.97 Z" />
<path fill="#2f383c" opacity="1.00" d=" M 564.78 513.05 C 565.47 512.04 566.21 511.07 567.02 510.15 C 566.63 512.20 566.81 514.29 567.87 516.12 L 568.33 513.98 C 569.06 515.15 569.78 516.32 570.51 517.50 C 567.82 517.81 565.16 515.69 564.78 513.05 Z" />
<path fill="#2f383c" opacity="1.00" d=" M 568.51 512.09 C 568.99 512.83 568.99 512.83 568.51 512.09 Z" />
<path fill="#373e41" opacity="1.00" d=" M 593.10 512.03 C 594.73 512.00 596.36 511.99 598.00 511.98 C 598.75 512.84 599.50 513.71 600.26 514.58 L 601.14 515.60 C 600.87 523.76 600.95 531.94 601.09 540.10 L 600.42 540.91 C 600.15 541.24 599.60 541.91 599.33 542.25 C 599.11 544.44 599.06 546.66 599.00 548.88 C 598.39 548.95 597.17 549.09 596.56 549.16 C 595.67 549.13 593.88 549.07 592.99 549.04 C 593.09 536.70 592.83 524.36 593.10 512.03 Z" />
<path fill="#2f383c" opacity="1.00" d=" M 290.07 542.75 C 291.65 535.08 293.22 527.40 294.79 519.72 C 299.34 520.19 306.30 517.68 308.60 523.12 C 309.87 529.41 308.29 536.87 303.02 540.96 C 299.37 543.95 294.38 542.69 290.07 542.75 Z" />
<path fill="#feffff" opacity="1.00" d=" M 488.46 520.87 C 489.35 522.26 490.36 523.62 490.88 525.21 C 490.27 529.04 489.30 532.82 488.29 536.57 C 487.29 538.39 485.48 539.60 483.97 540.98 C 485.56 534.30 486.95 527.57 488.46 520.87 Z" />
<path fill="#2f383c" opacity="1.00" d=" M 337.36 536.44 C 340.83 532.83 346.24 533.21 350.81 532.61 C 350.09 535.46 349.74 538.51 348.17 541.05 C 345.99 544.19 341.66 545.17 338.10 544.26 C 335.25 542.80 335.66 538.63 337.36 536.44 Z" />
<path fill="#feffff" opacity="1.00" d=" M 541.24 532.83 C 541.99 532.69 543.51 532.39 544.27 532.25 C 542.24 539.46 541.13 546.92 538.95 554.09 C 538.34 554.26 537.10 554.59 536.48 554.75 C 537.98 547.43 539.67 540.14 541.24 532.83 Z" />
<path fill="#feffff" opacity="1.00" d=" M 531.42 535.53 C 532.23 535.20 533.85 534.53 534.66 534.19 C 533.12 540.85 531.93 547.59 530.15 554.18 C 529.40 554.29 527.91 554.50 527.17 554.61 C 528.68 548.27 529.84 541.85 531.42 535.53 Z" />
<path fill="#feffff" opacity="1.00" d=" M 522.12 537.51 C 523.04 537.28 524.89 536.83 525.82 536.60 C 524.52 542.52 523.19 548.42 521.94 554.35 C 521.04 554.36 519.23 554.38 518.33 554.39 C 519.70 548.79 520.85 543.14 522.12 537.51 Z" />
<path fill="#feffff" opacity="1.00" d=" M 512.46 539.98 C 514.00 539.51 515.55 539.05 517.10 538.61 C 515.92 543.83 514.74 549.06 513.70 554.32 C 512.19 554.35 510.68 554.38 509.17 554.40 C 510.41 549.63 511.36 544.78 512.46 539.98 Z" />
<path fill="#feffff" opacity="1.00" d=" M 502.91 542.22 C 504.74 541.74 506.58 541.27 508.43 540.82 C 507.24 545.31 506.35 549.87 505.30 554.40 C 503.55 554.38 501.81 554.37 500.07 554.37 C 501.18 550.35 501.96 546.27 502.91 542.22 Z" />
<path fill="#3f4242" opacity="0.57" d=" M 599.33 542.25 C 599.60 541.91 600.15 541.24 600.42 540.91 C 600.32 544.01 600.30 547.11 600.30 550.22 C 598.64 549.91 596.99 549.59 595.36 549.25 L 596.56 549.16 C 597.17 549.09 598.39 548.95 599.00 548.88 C 599.06 546.66 599.11 544.44 599.33 542.25 Z" />
<path fill="#feffff" opacity="1.00" d=" M 493.49 544.55 C 495.70 543.96 497.93 543.42 500.17 542.94 C 499.20 546.70 498.32 550.49 497.59 554.31 C 495.51 554.36 493.43 554.39 491.35 554.43 C 492.11 551.14 492.83 547.85 493.49 544.55 Z" />
<path fill="#feffff" opacity="1.00" d=" M 482.80 547.01 C 485.50 546.41 488.19 545.77 490.90 545.15 C 490.16 548.21 489.47 551.28 488.76 554.34 C 486.18 554.38 483.60 554.38 481.02 554.39 C 481.61 551.93 482.19 549.46 482.80 547.01 Z" />
<path fill="#ebebeb" opacity="1.00" d=" M 250.29 571.58 C 258.75 571.53 267.22 571.76 275.68 571.44 C 275.89 608.30 275.73 645.16 275.76 682.02 C 276.08 687.28 271.23 692.08 265.98 691.76 C 262.21 691.62 257.98 692.51 254.66 690.28 C 251.50 688.39 249.93 684.64 250.22 681.05 C 250.27 644.56 250.15 608.07 250.29 571.58 Z" />
<path fill="#a1a1a1" opacity="1.00" d=" M 337.12 571.35 C 342.02 572.24 347.02 571.82 351.98 571.87 C 418.30 571.87 484.63 571.86 550.95 571.88 C 552.60 571.79 554.25 571.62 555.88 571.36 C 556.10 576.88 555.96 582.41 556.00 587.94 C 483.00 588.06 410.00 588.01 337.00 587.96 C 337.03 582.42 336.89 576.88 337.12 571.35 Z" />
<path fill="#a1a1a1" opacity="1.00" d=" M 897.87 576.89 C 905.00 575.29 913.51 576.63 918.41 582.47 C 920.54 584.80 921.24 587.92 921.79 590.93 C 919.46 590.98 917.14 591.00 914.82 591.02 C 913.01 582.19 900.79 580.29 894.69 585.76 C 891.84 588.40 891.69 593.64 895.20 595.82 C 902.31 600.09 911.59 599.36 918.19 604.72 C 922.56 608.19 923.05 614.47 921.64 619.50 C 919.90 625.00 914.55 628.56 909.09 629.60 C 902.12 630.97 894.15 630.18 888.60 625.39 C 885.55 622.80 884.24 618.85 883.64 615.02 C 885.98 614.99 888.33 614.99 890.69 615.00 C 892.42 622.89 902.14 625.25 908.92 622.79 C 912.60 621.61 915.86 617.93 914.95 613.85 C 914.24 610.27 910.56 608.52 907.42 607.51 C 901.51 605.53 894.87 605.12 889.77 601.23 C 885.19 597.82 884.33 591.22 886.16 586.11 C 887.96 581.14 892.84 577.91 897.87 576.89 Z" />
<path fill="#a1a1a1" opacity="1.00" d=" M 946.42 577.59 C 954.36 575.01 963.85 576.11 970.27 581.71 C 975.73 586.57 978.02 594.02 978.34 601.13 C 978.78 609.25 976.92 618.04 971.06 624.01 C 961.36 633.43 942.86 632.14 935.51 620.42 C 930.72 612.59 930.17 602.74 932.20 593.96 C 933.88 586.60 939.08 579.91 946.42 577.59 M 949.50 583.70 C 943.71 585.53 940.04 591.21 938.98 596.96 C 937.60 604.09 938.25 612.18 942.80 618.11 C 948.21 625.14 959.98 625.40 965.95 618.95 C 969.90 614.69 971.14 608.65 971.19 603.00 C 971.05 597.17 969.64 590.85 965.18 586.76 C 961.08 582.84 954.77 582.14 949.50 583.70 Z" />
<path fill="#f26c4f" opacity="1.00" d=" M 1242.50 577.50 C 1253.16 577.50 1263.83 577.49 1274.50 577.50 C 1274.48 579.66 1274.49 581.83 1274.50 584.00 C 1266.16 584.00 1257.83 584.00 1249.50 584.00 C 1249.49 589.16 1249.49 594.33 1249.50 599.50 C 1257.41 599.50 1265.33 599.50 1273.25 599.50 C 1273.23 601.58 1273.24 603.66 1273.25 605.75 C 1265.33 605.74 1257.41 605.75 1249.50 605.75 C 1249.49 611.33 1249.50 616.91 1249.50 622.50 C 1257.83 622.50 1266.16 622.49 1274.50 622.50 C 1274.48 624.66 1274.49 626.83 1274.50 629.00 C 1263.82 628.98 1253.15 629.03 1242.48 628.98 C 1242.52 611.82 1242.49 594.66 1242.50 577.50 Z" />
<path fill="#a1a1a1" opacity="1.00" d=" M 989.52 577.52 C 1000.01 577.47 1010.50 577.51 1021.00 577.50 C 1020.99 579.66 1020.99 581.83 1021.00 584.00 C 1012.83 584.00 1004.66 584.00 996.50 584.00 C 996.49 589.58 996.49 595.17 996.50 600.75 C 1004.00 600.75 1011.50 600.75 1019.00 600.75 C 1018.99 602.83 1018.99 604.91 1019.00 607.00 C 1011.49 607.01 1003.99 606.98 996.49 607.02 C 996.51 614.35 996.49 621.67 996.50 629.00 C 994.17 628.99 991.85 628.99 989.54 628.99 C 989.46 611.83 989.50 594.68 989.52 577.52 Z" />
<path fill="#a1a1a1" opacity="1.00" d=" M 1028.51 577.53 C 1041.76 577.47 1055.01 577.51 1068.26 577.50 C 1068.24 579.66 1068.23 581.83 1068.21 584.00 C 1062.80 584.00 1057.40 584.00 1052.00 584.00 C 1051.98 598.99 1052.03 613.98 1051.97 628.97 C 1049.64 628.99 1047.32 629.00 1045.00 629.01 C 1045.00 614.00 1045.00 599.00 1045.00 584.00 C 1039.51 583.99 1034.02 584.01 1028.53 583.99 C 1028.50 581.83 1028.49 579.67 1028.51 577.53 Z" />
<path fill="#f26c4f" opacity="1.00" d=" M 1074.84 577.51 C 1077.30 577.49 1079.76 577.49 1082.24 577.50 C 1085.63 591.09 1088.84 604.71 1092.27 618.29 C 1096.02 604.79 1099.65 591.26 1103.45 577.77 C 1105.75 577.29 1108.12 577.52 1110.46 577.47 C 1114.28 591.05 1117.99 604.67 1121.72 618.28 C 1125.19 604.72 1128.38 591.09 1131.76 577.50 C 1134.21 577.49 1136.68 577.49 1139.16 577.51 C 1134.53 594.69 1129.83 611.85 1125.17 629.02 C 1122.94 629.00 1120.72 628.98 1118.51 628.93 C 1114.78 615.79 1110.96 602.67 1107.03 589.59 C 1102.97 602.64 1099.28 615.81 1095.48 628.94 C 1093.25 628.98 1091.04 629.00 1088.84 629.02 C 1084.22 611.84 1079.44 594.70 1074.84 577.51 Z" />
<path fill="#f26c4f" opacity="1.00" d=" M 1140.83 628.98 C 1147.04 611.78 1153.46 594.66 1159.74 577.50 C 1162.02 577.49 1164.31 577.49 1166.61 577.50 C 1172.85 594.67 1179.35 611.75 1185.46 628.98 C 1182.99 628.99 1180.53 629.00 1178.07 629.00 C 1176.37 624.17 1174.67 619.34 1172.97 614.51 C 1166.43 614.49 1159.89 614.50 1153.35 614.50 C 1151.66 619.33 1149.97 624.17 1148.26 629.01 C 1145.77 629.00 1143.30 628.99 1140.83 628.98 M 1163.18 586.41 C 1160.65 593.70 1158.07 600.97 1155.53 608.26 C 1160.62 608.24 1165.72 608.25 1170.82 608.25 C 1168.25 600.97 1165.69 593.70 1163.18 586.41 Z" />
<path fill="#f26c4f" opacity="1.00" d=" M 1194.49 628.99 C 1194.51 611.83 1194.49 594.66 1194.50 577.50 C 1201.33 577.53 1208.17 577.45 1215.01 577.51 C 1220.91 577.57 1227.18 580.63 1229.48 586.33 C 1233.02 594.36 1229.36 604.89 1220.85 607.92 C 1224.72 614.94 1228.75 621.88 1232.49 628.97 C 1229.73 629.00 1226.99 629.00 1224.26 629.00 C 1220.69 622.36 1216.98 615.79 1213.57 609.07 C 1209.54 608.96 1205.52 609.00 1201.50 609.00 C 1201.50 615.66 1201.49 622.32 1201.51 628.99 C 1199.16 628.99 1196.82 628.99 1194.49 628.99 M 1201.50 583.75 C 1201.50 590.00 1201.50 596.25 1201.50 602.50 C 1206.96 602.21 1212.58 603.19 1217.94 601.85 C 1225.23 599.49 1225.38 587.43 1218.24 584.79 C 1212.86 583.00 1207.06 584.00 1201.50 583.75 Z" />
<path fill="#c2c2c2" opacity="1.00" d=" M 337.00 587.96 C 410.00 588.01 483.00 588.06 556.00 587.94 C 556.00 591.29 556.00 594.64 556.00 598.00 C 483.00 597.91 410.00 597.92 337.00 598.00 C 337.00 594.65 337.00 591.31 337.00 587.96 Z" />
<path fill="#363636" opacity="0.34" d=" M 644.69 592.21 C 648.39 591.80 652.29 591.74 655.61 589.82 L 656.29 590.92 C 653.03 592.20 649.59 592.91 646.12 593.23 C 646.55 602.34 647.57 611.41 648.58 620.47 C 643.07 620.40 637.40 622.44 632.04 620.48 C 636.96 619.65 641.98 619.66 646.96 619.51 C 646.44 610.39 645.02 601.34 644.69 592.21 Z" />
<path fill="#a8a8a8" opacity="1.00" d=" M 337.00 598.00 C 410.00 597.92 483.00 597.91 556.00 598.00 C 556.00 603.63 556.00 609.27 556.00 614.91 C 483.00 614.94 410.00 614.98 337.00 614.90 C 337.00 609.26 337.00 603.63 337.00 598.00 Z" />
<path fill="#00a4b4" opacity="1.00" d=" M 135.22 632.30 C 139.54 619.12 153.17 609.99 166.95 610.47 C 171.65 610.71 176.22 612.19 180.43 614.27 C 188.06 618.14 193.69 625.20 196.49 633.22 C 194.54 631.84 191.48 632.03 191.03 634.80 C 192.02 637.23 193.89 639.33 194.27 641.99 C 194.15 644.78 192.31 647.08 191.12 649.51 C 192.06 650.24 192.98 651.04 194.01 651.69 C 195.21 651.21 196.28 650.48 197.37 649.82 C 194.76 658.83 189.07 667.14 180.52 671.40 C 171.35 676.30 159.67 676.27 150.53 671.30 C 136.88 664.34 129.61 646.73 135.22 632.30 M 163.02 627.16 C 163.98 625.86 165.64 624.81 165.67 623.02 C 165.70 621.30 164.56 619.86 163.94 618.33 C 159.83 619.65 160.02 624.73 163.02 627.16 M 146.52 626.97 C 147.17 629.35 149.37 630.67 151.23 632.05 C 151.90 630.92 153.99 629.72 152.90 628.22 C 152.15 625.43 147.50 623.04 146.52 626.97 M 176.16 625.22 C 173.78 626.12 171.57 630.47 174.96 631.55 C 177.13 631.28 178.82 629.51 179.61 627.58 C 180.27 625.69 177.75 623.92 176.16 625.22 M 159.36 629.44 C 155.15 630.86 151.79 634.52 151.00 638.93 C 149.27 646.14 155.50 654.12 163.01 653.69 C 171.00 654.39 177.60 645.49 175.13 638.00 C 173.49 631.45 165.78 627.04 159.36 629.44 M 142.29 639.34 C 140.98 639.84 139.83 641.60 141.42 642.60 C 143.38 644.95 149.66 643.59 148.02 640.10 C 146.42 638.84 144.16 638.53 142.29 639.34 M 177.39 641.96 C 179.12 642.69 180.86 644.27 182.89 643.66 C 184.11 643.14 185.21 642.37 186.35 641.71 C 184.48 638.05 178.90 637.92 177.39 641.96 M 150.39 651.42 C 148.30 652.25 146.02 654.50 146.91 656.96 C 149.27 658.72 152.55 656.66 153.02 654.02 C 153.91 652.47 151.85 650.68 150.39 651.42 M 174.52 651.01 C 174.11 651.56 173.29 652.67 172.87 653.22 C 173.57 656.20 177.62 659.69 179.90 656.11 C 179.44 653.35 177.03 651.69 174.52 651.01 M 160.80 658.95 C 160.14 661.14 161.88 662.94 163.01 664.59 C 165.17 662.82 166.69 659.72 164.81 657.18 C 163.44 655.13 160.87 657.01 160.80 658.95 Z" />
<path fill="#9aba2f" opacity="1.00" d=" M 180.43 614.27 C 187.73 610.67 196.34 609.07 204.19 611.87 C 215.63 615.10 224.96 625.11 226.92 636.88 C 226.89 642.77 227.89 649.02 225.32 654.56 C 221.54 664.63 212.33 672.21 201.89 674.48 C 194.66 675.57 186.99 675.08 180.52 671.40 C 189.07 667.14 194.76 658.83 197.37 649.82 C 198.41 647.32 199.53 644.75 199.45 642.00 C 199.57 638.79 197.77 636.02 196.49 633.22 C 193.69 625.20 188.06 618.14 180.43 614.27 M 207.49 619.57 C 206.51 620.24 205.34 621.48 206.30 622.69 C 207.63 624.66 209.40 626.29 210.74 628.27 C 216.57 636.76 216.48 649.02 210.24 657.28 C 209.15 658.80 207.95 660.27 207.18 661.99 C 207.64 663.82 210.01 665.43 211.60 663.83 C 217.22 658.47 220.02 650.64 220.43 643.00 C 220.39 634.75 217.19 626.44 211.27 620.62 C 210.31 619.66 208.80 618.46 207.49 619.57 M 200.37 626.40 C 198.95 627.13 198.23 629.15 199.50 630.38 C 202.20 633.67 204.68 637.52 204.58 641.94 C 204.83 646.22 202.47 649.95 200.14 653.32 C 198.04 655.42 201.58 658.33 203.69 656.82 C 211.60 649.43 211.78 635.54 204.15 627.89 C 203.13 626.91 201.90 625.59 200.37 626.40 Z" />
<path fill="#c7c7c7" opacity="1.00" d=" M 337.00 614.90 C 410.00 614.98 483.00 614.94 556.00 614.91 C 556.00 618.92 556.00 622.93 556.00 626.94 C 483.00 626.98 410.00 626.98 337.00 626.94 C 337.00 622.92 337.00 618.91 337.00 614.90 Z" />
<path fill="#fdf9f9" opacity="1.00" d=" M 163.02 627.16 C 160.02 624.73 159.83 619.65 163.94 618.33 C 164.56 619.86 165.70 621.30 165.67 623.02 C 165.64 624.81 163.98 625.86 163.02 627.16 Z" />
<path fill="#f7f7f7" opacity="1.00" d=" M 207.49 619.57 C 208.80 618.46 210.31 619.66 211.27 620.62 C 217.19 626.44 220.39 634.75 220.43 643.00 C 220.02 650.64 217.22 658.47 211.60 663.83 C 210.01 665.43 207.64 663.82 207.18 661.99 C 207.95 660.27 209.15 658.80 210.24 657.28 C 216.48 649.02 216.57 636.76 210.74 628.27 C 209.40 626.29 207.63 624.66 206.30 622.69 C 205.34 621.48 206.51 620.24 207.49 619.57 Z" />
<path fill="#faf7f7" opacity="1.00" d=" M 146.52 626.97 C 147.50 623.04 152.15 625.43 152.90 628.22 C 153.99 629.72 151.90 630.92 151.23 632.05 C 149.37 630.67 147.17 629.35 146.52 626.97 Z" />
<path fill="#f7f6f6" opacity="1.00" d=" M 176.16 625.22 C 177.75 623.92 180.27 625.69 179.61 627.58 C 178.82 629.51 177.13 631.28 174.96 631.55 C 171.57 630.47 173.78 626.12 176.16 625.22 Z" />
<path fill="#f7f7f7" opacity="1.00" d=" M 200.37 626.40 C 201.90 625.59 203.13 626.91 204.15 627.89 C 211.78 635.54 211.60 649.43 203.69 656.82 C 201.58 658.33 198.04 655.42 200.14 653.32 C 202.47 649.95 204.83 646.22 204.58 641.94 C 204.68 637.52 202.20 633.67 199.50 630.38 C 198.23 629.15 198.95 627.13 200.37 626.40 Z" />
<path fill="#dadadb" opacity="1.00" d=" M 337.00 626.94 C 410.00 626.98 483.00 626.98 556.00 626.94 C 555.99 629.30 555.99 631.67 556.00 634.04 C 483.00 633.97 410.00 633.97 337.00 634.05 C 337.00 631.67 337.00 629.30 337.00 626.94 Z" />
<path fill="#f7f7f7" opacity="1.00" d=" M 159.36 629.44 C 165.78 627.04 173.49 631.45 175.13 638.00 C 177.60 645.49 171.00 654.39 163.01 653.69 C 155.50 654.12 149.27 646.14 151.00 638.93 C 151.79 634.52 155.15 630.86 159.36 629.44 M 160.31 634.50 C 155.36 636.30 153.88 643.55 158.20 646.84 C 162.14 650.91 169.45 648.22 170.58 642.92 C 172.08 637.40 165.43 631.91 160.31 634.50 Z" />
<path fill="#f7f7f7" opacity="1.00" d=" M 191.03 634.80 C 191.48 632.03 194.54 631.84 196.49 633.22 C 197.77 636.02 199.57 638.79 199.45 642.00 C 199.53 644.75 198.41 647.32 197.37 649.82 C 196.28 650.48 195.21 651.21 194.01 651.69 C 192.98 651.04 192.06 650.24 191.12 649.51 C 192.31 647.08 194.15 644.78 194.27 641.99 C 193.89 639.33 192.02 637.23 191.03 634.80 Z" />
<path fill="#00a4b4" opacity="1.00" d=" M 160.31 634.50 C 165.43 631.91 172.08 637.40 170.58 642.92 C 169.45 648.22 162.14 650.91 158.20 646.84 C 153.88 643.55 155.36 636.30 160.31 634.50 Z" />
<path fill="#bcbcbc" opacity="0.88" d=" M 337.00 634.05 C 410.00 633.97 483.00 633.97 556.00 634.04 C 555.99 635.68 555.99 637.32 556.00 638.96 C 483.00 639.02 410.00 639.04 337.00 638.94 C 337.00 637.30 337.00 635.67 337.00 634.05 Z" />
<path fill="#fffcfb" opacity="1.00" d=" M 142.29 639.34 C 144.16 638.53 146.42 638.84 148.02 640.10 C 149.66 643.59 143.38 644.95 141.42 642.60 C 139.83 641.60 140.98 639.84 142.29 639.34 Z" />
<path fill="#fffcfb" opacity="1.00" d=" M 177.39 641.96 C 178.90 637.92 184.48 638.05 186.35 641.71 C 185.21 642.37 184.11 643.14 182.89 643.66 C 180.86 644.27 179.12 642.69 177.39 641.96 Z" />
<path fill="#cecece" opacity="0.88" d=" M 337.00 638.94 C 410.00 639.04 483.00 639.02 556.00 638.96 C 556.00 642.63 556.00 646.30 556.00 649.97 C 483.00 650.03 410.00 650.03 337.00 649.96 C 337.00 646.28 337.00 642.61 337.00 638.94 Z" />
<path fill="#a1a1a1" opacity="1.00" d=" M 914.00 642.75 C 915.56 642.73 917.14 642.72 918.73 642.72 C 918.72 647.08 918.78 651.44 918.65 655.81 C 921.56 652.65 926.16 651.39 930.26 652.76 C 934.36 653.92 936.86 658.03 937.42 662.07 C 938.19 667.07 937.53 673.01 933.44 676.47 C 929.18 680.03 922.34 679.29 918.65 675.24 C 918.68 675.99 918.74 677.51 918.77 678.26 C 917.17 678.26 915.58 678.25 914.00 678.26 C 914.00 666.42 914.00 654.59 914.00 642.75 M 923.52 656.60 C 916.16 659.84 917.15 674.56 925.99 674.77 C 931.68 674.56 933.50 667.75 932.62 663.08 C 932.26 658.76 927.91 654.83 923.52 656.60 Z" />
<path fill="#a1a1a1" opacity="1.00" d=" M 1094.00 642.75 C 1095.56 642.73 1097.14 642.72 1098.73 642.72 C 1098.72 647.07 1098.79 651.41 1098.64 655.76 C 1101.61 652.29 1106.73 651.31 1110.89 653.05 C 1113.91 654.36 1115.57 657.69 1115.66 660.88 C 1115.86 666.67 1115.66 672.48 1115.73 678.29 C 1114.13 678.26 1112.56 678.25 1110.99 678.24 C 1110.97 673.46 1111.06 668.68 1110.98 663.91 C 1110.83 661.54 1110.77 658.72 1108.70 657.16 C 1105.00 654.60 1099.08 657.37 1098.95 661.96 C 1098.44 667.38 1098.86 672.84 1098.73 678.27 C 1097.14 678.26 1095.56 678.26 1094.00 678.26 C 1094.00 666.42 1094.00 654.59 1094.00 642.75 Z" />
<path fill="#9aba2f" opacity="1.00" d=" M 1176.20 644.29 C 1181.38 642.62 1188.67 642.95 1191.57 648.34 C 1194.16 652.91 1191.59 658.79 1186.74 660.47 C 1192.55 661.22 1195.50 667.98 1192.93 673.00 C 1189.60 679.48 1180.53 680.46 1174.50 677.52 C 1171.24 676.04 1169.66 672.64 1169.01 669.32 C 1170.62 669.29 1172.25 669.27 1173.90 669.28 C 1174.96 675.39 1183.71 677.00 1187.44 672.48 C 1189.64 669.96 1188.96 665.61 1186.07 663.92 C 1183.36 662.24 1180.01 662.83 1177.00 662.70 C 1176.98 661.39 1176.98 660.08 1177.00 658.79 C 1180.17 658.64 1184.21 659.36 1186.34 656.34 C 1189.39 652.98 1186.31 647.38 1182.02 647.38 C 1178.21 646.79 1175.13 649.75 1174.38 653.29 C 1172.78 653.27 1171.19 653.25 1169.61 653.24 C 1170.28 649.43 1172.36 645.63 1176.20 644.29 Z" />
<path fill="#9aba2f" opacity="1.00" d=" M 1213.17 644.25 C 1215.43 644.26 1217.71 644.26 1220.00 644.27 C 1220.00 651.93 1219.99 659.60 1220.00 667.27 C 1221.65 667.26 1223.31 667.26 1224.99 667.26 C 1224.98 668.59 1224.98 669.92 1225.00 671.27 C 1223.32 671.26 1221.65 671.25 1220.00 671.26 C 1219.99 673.59 1219.99 675.92 1220.00 678.26 C 1218.41 678.26 1216.83 678.26 1215.27 678.27 C 1215.26 675.93 1215.26 673.59 1215.27 671.27 C 1209.71 671.26 1204.15 671.27 1198.60 671.25 C 1198.03 666.87 1201.00 663.47 1203.11 659.98 C 1206.37 654.68 1209.74 649.44 1213.17 644.25 M 1203.81 667.26 C 1207.62 667.27 1211.44 667.27 1215.27 667.27 C 1215.26 661.17 1215.28 655.08 1215.25 648.99 C 1211.32 655.01 1207.42 661.04 1203.81 667.26 Z" />
<path fill="#a1a1a1" opacity="1.00" d=" M 1077.50 646.25 C 1079.08 646.25 1080.67 646.26 1082.27 646.28 C 1082.25 648.42 1082.26 650.58 1082.27 652.73 C 1084.17 652.73 1086.07 652.73 1088.00 652.74 C 1088.00 653.62 1088.00 655.38 1088.00 656.26 C 1086.08 656.26 1084.17 656.26 1082.27 656.27 C 1082.43 661.69 1081.89 667.16 1082.54 672.55 C 1083.23 674.97 1086.07 674.43 1088.00 674.67 C 1088.00 675.60 1088.00 677.45 1088.00 678.37 C 1085.23 678.40 1082.18 678.81 1079.73 677.26 C 1077.99 676.15 1077.50 673.94 1077.54 672.03 C 1077.48 666.77 1077.56 661.51 1077.54 656.26 C 1076.19 656.25 1074.85 656.26 1073.53 656.27 C 1073.53 655.38 1073.53 653.62 1073.53 652.73 C 1074.86 652.73 1076.20 652.73 1077.55 652.74 C 1077.53 650.57 1077.51 648.40 1077.50 646.25 Z" />
<path fill="#d3d5d7" opacity="0.88" d=" M 337.00 649.96 C 410.00 650.03 483.00 650.03 556.00 649.97 C 556.00 653.65 556.00 657.32 556.00 661.00 C 483.00 661.00 410.00 661.00 337.00 661.00 C 337.00 657.32 337.00 653.64 337.00 649.96 Z" />
<path fill="#f6f6f6" opacity="1.00" d=" M 150.39 651.42 C 151.85 650.68 153.91 652.47 153.02 654.02 C 152.55 656.66 149.27 658.72 146.91 656.96 C 146.02 654.50 148.30 652.25 150.39 651.42 Z" />
<path fill="#fcf9f8" opacity="1.00" d=" M 174.52 651.01 C 177.03 651.69 179.44 653.35 179.90 656.11 C 177.62 659.69 173.57 656.20 172.87 653.22 C 173.29 652.67 174.11 651.56 174.52 651.01 Z" />
<path fill="#a1a1a1" opacity="1.00" d=" M 1020.10 658.23 C 1023.40 650.70 1035.76 650.09 1039.82 657.21 C 1041.53 660.06 1041.48 663.49 1041.84 666.70 C 1035.62 666.78 1029.40 666.67 1023.19 666.78 C 1023.95 669.35 1024.45 672.49 1027.07 673.92 C 1030.39 675.86 1034.64 674.54 1036.83 671.53 C 1038.42 671.53 1040.02 671.56 1041.63 671.61 C 1038.60 680.52 1024.03 681.37 1020.09 672.85 C 1017.97 668.31 1017.91 662.75 1020.10 658.23 M 1023.24 663.23 C 1027.78 663.28 1032.33 663.30 1036.88 663.21 C 1036.21 660.18 1034.67 656.49 1031.08 656.27 C 1026.84 655.56 1023.94 659.51 1023.24 663.23 Z" />
<path fill="#a1a1a1" opacity="1.00" d=" M 1046.99 659.31 C 1048.85 651.80 1058.97 650.45 1064.68 654.23 C 1067.57 656.13 1067.58 659.93 1067.49 663.02 C 1067.45 668.10 1067.46 673.18 1067.47 678.27 C 1065.96 678.26 1064.46 678.26 1062.97 678.26 C 1062.99 677.51 1063.03 676.01 1063.05 675.27 C 1059.49 679.38 1052.67 679.97 1048.54 676.45 C 1045.02 673.38 1045.65 666.92 1049.91 664.81 C 1053.98 662.94 1058.62 663.55 1062.95 662.87 C 1062.68 660.61 1062.88 657.59 1060.21 656.71 C 1056.94 655.17 1053.73 656.96 1051.33 659.15 C 1050.25 659.19 1048.08 659.27 1046.99 659.31 M 1051.82 668.79 C 1049.54 672.17 1053.75 675.81 1057.13 674.72 C 1061.24 674.42 1063.23 670.27 1062.96 666.54 C 1059.31 667.14 1054.75 666.06 1051.82 668.79 Z" />
<path fill="#a1a1a1" opacity="1.00" d=" M 1123.11 658.20 C 1126.43 650.67 1138.82 650.10 1142.85 657.27 C 1144.53 660.11 1144.48 663.51 1144.84 666.70 C 1138.62 666.78 1132.40 666.67 1126.19 666.78 C 1126.96 669.34 1127.44 672.46 1130.03 673.90 C 1133.35 675.86 1137.63 674.55 1139.83 671.53 C 1141.42 671.53 1143.02 671.56 1144.63 671.61 C 1141.85 679.55 1130.18 681.10 1124.67 675.28 C 1120.90 670.56 1120.57 663.57 1123.11 658.20 M 1126.24 663.23 C 1130.78 663.28 1135.33 663.30 1139.88 663.21 C 1139.21 660.18 1137.67 656.50 1134.10 656.27 C 1129.85 655.55 1126.94 659.51 1126.24 663.23 Z" />
<path fill="#a1a1a1" opacity="1.00" d=" M 1155.30 655.11 C 1157.88 652.78 1161.22 651.96 1164.64 652.18 C 1164.68 653.62 1164.74 655.07 1164.82 656.53 C 1162.63 656.54 1160.22 656.16 1158.34 657.52 C 1156.11 658.78 1155.42 661.53 1155.47 663.92 C 1155.41 668.70 1155.49 673.48 1155.47 678.27 C 1153.88 678.26 1152.30 678.25 1150.74 678.26 C 1150.73 669.75 1150.73 661.24 1150.74 652.74 C 1152.32 652.73 1153.91 652.73 1155.52 652.74 C 1155.47 653.33 1155.36 654.52 1155.30 655.11 Z" />
<path fill="#a1a1a1" opacity="1.00" d=" M 940.46 652.74 C 942.19 652.72 943.96 652.73 945.71 652.74 C 947.96 659.49 950.17 666.25 952.48 672.98 C 954.69 666.23 956.98 659.51 959.19 652.76 C 960.88 652.74 962.58 652.73 964.30 652.73 C 960.51 662.76 957.11 672.95 953.02 682.86 C 951.55 686.83 947.09 687.70 943.34 687.48 C 943.31 686.55 943.24 684.67 943.21 683.74 C 947.24 684.63 950.89 680.19 949.28 676.49 C 946.38 668.56 943.43 660.64 940.46 652.74 Z" />
<path fill="#a1a1a1" opacity="1.00" d=" M 981.47 652.74 C 983.11 652.73 984.76 652.73 986.43 652.73 C 987.98 659.24 989.61 665.73 991.23 672.23 C 993.01 665.72 994.86 659.23 996.68 652.73 C 998.19 652.72 999.72 652.73 1001.26 652.74 C 1003.13 659.23 1004.90 665.74 1006.73 672.24 C 1008.28 665.73 1009.98 659.24 1011.51 652.73 C 1013.12 652.73 1014.75 652.74 1016.38 652.76 C 1014.01 661.25 1011.62 669.75 1009.25 678.25 C 1007.63 678.25 1006.02 678.27 1004.42 678.29 C 1002.58 672.07 1000.85 665.82 998.97 659.61 C 996.98 665.79 995.34 672.07 993.45 678.27 C 991.85 678.26 990.26 678.25 988.69 678.25 C 986.28 669.75 983.95 661.22 981.47 652.74 Z" />
<path fill="#fdf9f8" opacity="1.00" d=" M 160.80 658.95 C 160.87 657.01 163.44 655.13 164.81 657.18 C 166.69 659.72 165.17 662.82 163.01 664.59 C 161.88 662.94 160.14 661.14 160.80 658.95 Z" />
</svg>
