<svg xmlns="http://www.w3.org/2000/svg" viewBox="0 0 881 416"><g fill="#373e41"><path d="M112.3 9.3c1.1-.79 2.08-2.18 3.6-2.06 5.86-.12 11.73.06 17.6-.05-5.62 12.56-11.11 25.18-16.73 37.74-.76 1.7-1.32 3.49-1.84 5.28-15.89.02-31.77-.02-47.66.02.08 5.52-.05 11.03.18 16.55 9.17-.1 18.33-.04 27.49-.04 14.55 16.36 28.42 33.33 43.09 49.57-.07-.7-.22-2.11-.3-2.81 4.89.16 9.78.17 14.66.01-.27 5.58.04 11.17-.17 16.75-4.79-.07-9.57-.08-14.35.02-.01-2.35-.01-4.71-.02-7.06-15.23-17.48-30.19-35.22-45.49-52.63-8.26-.48-16.57.05-24.85-.23-.04 2.63-.15 5.27-.21 7.91-.74.08-2.23.25-2.97.34.4.69 1.19 2.08 1.59 2.77 3.84-2.45 9.31.22 9.75 4.71.67 4.42-4.33 8.4-8.47 6.66-2.3-.7-3.28-3.02-4.31-4.95-2.12.49-4.62 1.47-6.56-.03-2.23-1.46-2.73-4.26-3.34-6.64.43-.65 1.31-1.94 1.75-2.59-1.34-.07-2.68-.13-4.02-.2.07-9.37-.04-18.74.07-28.11-6.09.01-12.18-.11-18.26.08 0-2.82 0-5.65-.01-8.48 6.08.07 12.17.03 18.26.03-.01-.81-.04-2.45-.05-3.26 5.53.01 11.06.01 16.6 0 .01.82.04 2.47.06 3.29 2.86-.02 5.73-.03 8.6-.02C88.08 31 100.24 20.2 112.3 9.3M75 42.66c.21 1.69.44 3.38.71 5.07 1.28-1.56 2.21-3.35 3.11-5.14-.63.57-1.89 1.73-2.53 2.3-.32-.56-.97-1.67-1.29-2.23m2.26 4.35c1.68-.87 3.32-.3 4.91.37.16-.67.49-2.02.65-2.69.44.69 1.34 2.06 1.78 2.74.83-.82.4-3.75 2.18-3.17.28 1.07.51 2.15.7 3.24.43-1.6.93-3.18 1.47-4.74-1.71.32-3.63.47-4.82 1.95-.27-.49-.8-1.49-1.06-1.98-.7 1.21-1.4 2.43-2.1 3.64-.1-.94-.29-2.81-.39-3.74-1.09 1.47-2.17 2.95-3.32 4.38m10.48.13c2.25-.02 4.5.05 6.75.2 1.61.14 3.22.31 4.84.5.38-1.71.78-3.42 1.19-5.13-1.32.24-2.62.48-3.93.72-1.07-.21-2.14-.41-3.2-.6-.2.55-.6 1.67-.8 2.22l-1.12-2.04c-2.21-.21-2.45 2.89-3.73 4.13m14.77-3.89c-.4 1.43-.74 2.88-1.03 4.35 1.29-.9 2.59-1.79 3.89-2.68.06.68.17 2.06.23 2.75.58-.61 1.75-1.82 2.33-2.43l.19 2.4c.34-.43 1.01-1.28 1.35-1.7.48.51 1.45 1.53 1.93 2.04.94-1.17 3.76-2.59 1.99-4.21-1.05-1.53-2.59-.24-3.78.28-.35-.27-1.07-.8-1.43-1.07l-2.44.56c-1.08-.13-2.15-.26-3.23-.29zM328.38 166.68c8.13-.15 16.27-.18 24.4.02.75 2.96 4.66 1.09 6.87 1.61-.02 3.32-.03 6.64-.08 9.96-11.02-.09-22.05-.01-33.07-.05.07 30.75-.01 61.49.04 92.24-3.13-.1-6.25-.07-9.37.06 0-34.08.06-68.15-.03-102.23 3.53-.05 7.09.22 10.61-.15l.63-1.46z"/></g><g fill="#f26c4f"><path d="M22.53 46.12c.72-4.39 6.45-4.45 9.99-4.29.01 2.83.01 5.66.01 8.48-3.52-.41-8.29-.44-10-4.19zM731.5 195.25c0-16.92-.01-33.83 0-50.75 11.09.02 22.18-.04 33.27.03-.03 2.98-.03 5.97-.01 8.95-7.58.04-15.17.02-22.75.01-.02 4.42-.02 8.84-.01 13.26h20.75c-.01 2.92-.01 5.83 0 8.75-6.92-.01-13.82.02-20.73-.01-.05 6.58-.01 13.17-.02 19.76h-10.5zM785.16 156.25c6.33-1.28 13.67-.59 18.57 4 4.59 4.17 6.14 10.66 5.92 16.66-.05 7.13-3.52 14.88-10.54 17.56-7.43 2.86-17.05 2.18-22.7-3.93-5.24-5.95-5.91-14.77-3.92-22.17 1.6-5.98 6.58-10.86 12.67-12.12m2.27 8.32c-3.67 1.5-5.09 5.67-5.36 9.31-.27 3.88.05 8.22 2.62 11.34 3.39 3.96 10.61 3.15 12.87-1.62 2.14-4.7 2.2-10.45.12-15.18-1.65-3.8-6.53-5.46-10.25-3.85zM833.2 157.18c2.88-1.67 6.33-1.28 9.51-1.04.04 3.13.03 6.27.07 9.4-3.88-.69-8.36-1.07-11.58 1.65-2.37 1.82-2.88 4.96-2.93 7.76-.08 6.76.01 13.53-.02 20.3h-10c.01-12.92-.01-25.84.01-38.76 3.24.01 6.49.01 9.74.01-.01 2.25-.01 4.51 0 6.77 1.41-2.26 2.69-4.85 5.2-6.09zM328.07 160.55c8.36-.07 16.72-.04 25.08-.02-.08 2.06-.17 4.12-.37 6.17-8.13-.2-16.27-.17-24.4-.02-.17-2.04-.23-4.09-.31-6.13zM770.46 215.67c7.68-1.35 16.35.22 22.03 5.88 5.32 4.94 7.26 12.43 7.52 19.46.1 7.46-1.75 15.43-7.12 20.9-10.06 9.96-29.47 8.81-37.34-3.34-4.92-7.87-5.37-17.91-3.03-26.7 2.19-8.3 9.38-14.99 17.94-16.2m.7 9.62c-5.28 1.78-8.25 7.29-8.86 12.56-.83 6.25-.05 13.56 4.76 18.13 4.69 4.57 13.02 4.3 17.51-.43 3.39-3.61 4.6-8.73 4.48-13.57.1-4.4-.76-9-3.46-12.57-3.17-4.41-9.42-6.04-14.43-4.12zM655 216.5c7 .01 14-.02 21 0 5.76-.05 11.83 2.46 14.91 7.52 4.71 7.65 3.39 19.34-4.51 24.39-6.12 4.28-13.91 2.86-20.9 3.09v15.75H655V216.5m10.5 8.76c0 5.9.02 11.8-.03 17.7 4.16-.05 8.5.48 12.5-.93 5.64-2.1 6.41-10.48 2.45-14.46-4.16-3.5-9.96-2.03-14.92-2.31zM703.5 267.25V216.5c7.18.02 14.35-.03 21.53.01 5.74.05 12.09 2.06 15.24 7.21 5.06 7.91 2.15 19.87-6.73 23.67 3.61 6.58 7.1 13.23 10.62 19.86h-12.04c-3.14-6.2-6.28-12.42-9.58-18.53-2.85.03-5.7.03-8.54.03v18.5h-10.5M714 225v15.75c4.56-.24 9.38.72 13.76-.94 5.69-2.44 5.31-12.05-.6-14.01-4.25-1.3-8.79-.66-13.16-.8zM738.98 294.91c4.55-3.49 11.26-3.79 16.27-1.12 3.85 2 5.53 7.15 3.52 11.02-.94 2.34-3.44 3.2-5.5 4.24 3.12.86 6.55 2.54 7.37 5.99 1.61 4.91-1.99 10-6.62 11.51-5.3 1.7-11.93 1.58-16.22-2.38-2.08-1.81-2.8-4.55-3.37-7.12 2.22-.05 4.45-.06 6.69-.05 1.11 5.11 8.39 6.38 11.65 2.64 1.88-2.06 1.01-5.8-1.52-6.89-2.52-1.1-5.36-.66-8.01-.8 0-1.72 0-3.45.02-5.16 2.7-.27 6 .71 8.22-1.36 2.21-1.83 1.87-5.86-.86-7.02-3.57-2-8.29.06-9.09 4.12-2.14-.02-4.29-.04-6.41-.05.62-2.79 1.44-5.78 3.86-7.57zM414.75 293c5.76.1 11.54-.2 17.3.12 4.04.29 8.2 3.48 7.99 7.83.44 3.86-2.72 6.88-6.2 7.81 3.36.73 6.86 2.72 7.66 6.33 1.46 5.26-2.68 10.66-7.94 11.33-6.24.73-12.55.14-18.81.33V293m7.26 5.22c-.02 2.93-.01 5.86-.01 8.8 3-.17 6.27.49 9.06-.9 2.88-1.26 2.76-5.94-.1-7.13-2.84-1.1-5.98-.64-8.95-.77m-.01 13.53v9.5c3.25-.14 6.64.46 9.79-.53 3.08-1.19 3.82-5.94.98-7.8-3.24-1.93-7.21-.96-10.77-1.17zM444.7 293.02c2.54-.02 5.09-.03 7.64-.04 2.6 4.77 5.06 9.62 7.66 14.39 2.67-4.74 5.04-9.65 7.69-14.4 2.53.02 5.07.03 7.6.05-3.83 7.06-7.91 13.99-11.55 21.14-.57 4.16-.11 8.4-.23 12.59-2.34-.01-4.68-.01-7.02 0-.09-4.14.24-8.3-.14-12.42-3.64-7.23-7.78-14.2-11.65-21.31zM780.02 293H790c0 7.25-.01 14.5 0 21.76 1.49-.01 2.99-.01 4.49-.01 0 1.99 0 3.99.02 5.99-1.51 0-3.02 0-4.51.01-.01 2-.01 4 0 6-2.26 0-4.51-.01-6.75 0a600 600 0 0 1 0-6c-5.51-.01-11.02 0-16.53-.01.16-2.57-.53-5.42 1-7.7 3.89-6.81 8.04-13.46 12.3-20.04m3.38 5.03c-3.85 5.45-7.27 11.18-10.58 16.97 3.57 0 7.13.01 10.71-.04-.09-5.64.07-11.29-.13-16.93z"/></g><g fill="#fff"><path d="M75 42.66c.32.56.97 1.67 1.29 2.23.64-.57 1.9-1.73 2.53-2.3-.9 1.79-1.83 3.58-3.11 5.14-.27-1.69-.5-3.38-.71-5.07zM77.26 47.01c1.15-1.43 2.23-2.91 3.32-4.38.1.93.29 2.8.39 3.74.7-1.21 1.4-2.43 2.1-3.64.26.49.79 1.49 1.06 1.98 1.19-1.48 3.11-1.63 4.82-1.95-.54 1.56-1.04 3.14-1.47 4.74-.19-1.09-.42-2.17-.7-3.24-1.78-.58-1.35 2.35-2.18 3.17-.44-.68-1.34-2.05-1.78-2.74-.16.67-.49 2.02-.65 2.69-1.59-.67-3.23-1.24-4.91-.37zM165.08 287.33c1.19.01 2.37.03 3.56.05-2.93 5.23-5.63 10.58-8.54 15.83-1.27-.01-2.53-.02-3.8-.02-.7-5.27-1.17-10.57-1.9-15.84.9.03 2.72.09 3.62.11.28 3.9.56 7.8.83 11.7 2.26-3.84 4.06-7.93 6.23-11.83zM173.41 287.36c1.16.01 2.33.02 3.49.04.9 5.28 1.8 10.56 2.61 15.85l-3.4-.12c-.18-1.18-.36-2.36-.53-3.53-1.94 0-3.87-.01-5.8-.03-.7 1.19-1.38 2.37-2.07 3.56l-3.72.12c3.16-5.29 6.24-10.62 9.42-15.89m-2.3 9.74c1.4-.12 2.81-.23 4.21-.33-.31-1.94-.58-3.88-.87-5.81-1.17 2.01-2.25 4.08-3.34 6.14zM184.14 287.38c1.17-.01 2.34-.01 3.52-.01 1.48 3.68 2.67 7.47 4.43 11.03.75-3.63 1.4-7.27 2.06-10.91.81-.05 2.42-.14 3.23-.19-1.01 5.3-2.17 10.57-3.28 15.86-.84.02-2.52.07-3.36.09-1.51-3.59-2.83-7.26-4.4-10.82-.94 3.54-1.63 7.14-2.29 10.74l-3.2.04c.98-5.3 2.14-10.57 3.29-15.83zM216.32 287.37h3.47c.48 2.65.93 5.32 1.42 7.98.46 2.63.93 5.26 1.4 7.9l-3.77.16c-.09-1.28-.19-2.56-.29-3.83-1.91.01-3.82.02-5.72.02-1.28 2.31-2.9 4.51-5.96 3.77 3.11-5.36 6.25-10.7 9.45-16m-2.29 9.74c1.3-.02 2.6-.03 3.9-.03-.13-2.09-.28-4.17-.48-6.25-1.23 2.05-2.33 4.16-3.42 6.28zM224.64 294.1c1.11-3.67 4.24-7.2 8.37-7.02 3.44-.35 6.73 1.98 7.16 5.48-.77 0-2.33 0-3.1.01-1.15-1.12-2.14-2.95-4.04-2.56-3.86.01-5.38 4.73-4.75 7.92.46 2.25 3.19 3.22 5.17 2.35 1.15-.78 2.05-1.87 3.03-2.84-1.17-.08-3.5-.25-4.66-.34.94-3.75 5.1-2.21 7.89-2.58-.53 2.36-1.07 4.73-1.61 7.1-.19.54-.59 1.62-.79 2.17-.51-.4-1.55-1.2-2.06-1.6-3.13 1.94-7.25 1.56-9.71-1.27-.97-2.14-1.16-4.51-.9-6.82zM295.01 289.82c3.09-3.33 9.45-4.03 12.31-.1 3.26 5.34-.72 13.88-7.33 13.77-3.78.44-6.9-2.55-7.48-6.14.2-2.67.95-5.32 2.5-7.53m4.33.61c-3.17 1.9-4.57 7.89-.84 9.92 3.76 1.38 6.66-3.07 6.41-6.4.52-2.96-3.14-5.25-5.57-3.52zM199.33 287.48c4.32-.26 8.66-.02 12.99-.08-.21.75-.65 2.24-.87 2.98l-4.58-.15c-.95 4.31-1.84 8.64-2.75 12.96-.88 0-2.64.01-3.52.01.96-4.29 1.81-8.61 2.81-12.9-1.75 0-3.51-.01-5.25-.02.29-.7.88-2.1 1.17-2.8zM241.84 296.39c.67-3.05 1.3-6.1 1.88-9.16 3.35.15 6.7.15 10.05.01.76.72 1.52 1.45 2.26 2.2-2.99 1.27-6.25.97-9.41.94-.23 1.06-.45 2.13-.67 3.2 2.82-.01 5.63 0 8.45.08-.92 4.36-5.78 2.39-8.95 2.75-.34 1.28-.67 2.57-1.01 3.86 2.99-.04 5.97-.06 8.96-.14-.25.77-.74 2.32-.98 3.1-4.02-.07-8.05-.05-12.07-.03.17-.79.5-2.37.67-3.16.29-1.22.55-2.44.82-3.65zM264.56 287.38c3.1.08 6.3-.32 9.33.53 3.32 1.43 3.2 6.43.32 8.24-2.38 1.77-5.52 1.22-8.29 1.42-.37 1.75-.68 3.52-1.18 5.25-.87.15-2.61.46-3.48.61 1.07-5.36 2.21-10.7 3.3-16.05m3 2.65c-.37 1.6-.74 3.19-1.09 4.8 2.25-.25 6.34.69 6.39-2.7.01-2.76-3.54-1.72-5.3-2.1zM279.23 287.44c4.08.44 10.28-1.82 12.43 2.95.2 2.26-1.16 4.01-2.72 5.47.4 2.15.58 4.34.85 6.51l.09.82-3.65.03c0-1.77.07-3.53-.06-5.28-1.35-1.51-3.57-.84-5.33-1.14-.49 2.15-.97 4.31-1.47 6.47-1.13-.05-2.25-.1-3.37-.14 1.08-5.23 2.26-10.44 3.23-15.69m3.07 2.62c-.37 1.51-.72 3.03-1.06 4.56 2.76-.01 5.92.05 7.45-2.72-1.49-2.15-4.13-1.71-6.39-1.84z"/></g><path fill="#989b9d" d="M87.74 47.14c1.28-1.24 1.52-4.34 3.73-4.13l1.12 2.04c.2-.55.6-1.67.8-2.22 1.06.19 2.13.39 3.2.6 1.31-.24 2.61-.48 3.93-.72-.41 1.71-.81 3.42-1.19 5.13-1.62-.19-3.23-.36-4.84-.5-2.25-.15-4.5-.22-6.75-.2m6.35-2.69c-1.53 3.02 3.3.12 0 0z"/><g fill="#d7d7d7"><path d="M102.51 43.25c1.08.03 2.15.16 3.23.29l2.44-.56c.36.27 1.08.8 1.43 1.07 1.19-.52 2.73-1.81 3.78-.28 1.77 1.62-1.05 3.04-1.99 4.21-.48-.51-1.45-1.53-1.93-2.04-.34.42-1.01 1.27-1.35 1.7l-.19-2.4c-.58.61-1.75 1.82-2.33 2.43-.06-.69-.17-2.07-.23-2.75-1.3.89-2.6 1.78-3.89 2.68.29-1.47.63-2.92 1.03-4.35m4.75 1.02c.54.51.54.51 0 0m3.95.17c-1.68 2.96 3.31.3 0 0zM185.83 330.95c40.23.04 80.47.18 120.7-.04-.02 1.95-.08 3.91.01 5.88l.04.72c-40.24.4-80.5-.1-120.75.23v-6.79z"/></g><path fill="#3f4649" d="M94.09 44.45c3.3.12-1.53 3.02 0 0z"/><path fill="#787c7e" d="M107.26 44.27c.54.51.54.51 0 0z"/><g fill="#101b1f"><path d="M111.21 44.44c3.31.3-1.68 2.96 0 0zM291.76 289.3c1.08.17 2.16.34 3.25.52-1.55 2.21-2.3 4.86-2.5 7.53-.81 2.1-1.61 4.2-2.48 6.28l-.24-1.26c-.27-2.17-.45-4.36-.85-6.51 1.56-1.46 2.92-3.21 2.72-5.47l.1-1.09zM171.11 297.1c1.09-2.06 2.17-4.13 3.34-6.14.29 1.93.56 3.87.87 5.81-1.4.1-2.81.21-4.21.33zM214.03 297.11c1.09-2.12 2.19-4.23 3.42-6.28.2 2.08.35 4.16.48 6.25-1.3 0-2.6.01-3.9.03zM223.37 293.23l1.27.87c-.26 2.31-.07 4.68.9 6.82-2 1.53-4.14 5.15-6.7 2.49l3.77-.16c-.47-2.64-.94-5.27-1.4-7.9l2.16-2.12z"/></g><g fill="#383f42"><path d="M40.66 86.03c.43-3.68 4.64-6.78 8.24-5.26 3.28.83 3.83 4.59 4.69 7.32-1.28 1.77-2.34 4.1-4.64 4.69-4.13 1.65-9.03-2.4-8.29-6.75zM176.25 161.01c40.27-.03 80.53 0 120.8-.01 4.23-.03 8.47.2 12.68-.22.73 23.55-4.75 47.61-17.04 67.84-2.69 4.43-5.8 8.6-9.29 12.43 2.34 2.67 4.53 5.46 6.64 8.31 6.33.08 12.67-.08 19.01.04 3.52-.2 6.37 3.22 6.31 6.6.18 4.83.06 9.68-.08 14.52-2.77-.17-5.54-.4-8.31-.45-40.98.06-81.96.02-122.95.04-6.52.02-13.06-.32-19.56.45-.11-4.87-.25-9.74-.05-14.6.02-3.42 2.98-6.81 6.54-6.57 8.37-.08 16.75.03 25.12-.02 2.12-2.86 4.31-5.67 6.67-8.34-19.15-21.72-26.78-51.55-26.49-80.02z"/></g><path fill="#ececec" d="M137.73 113.5c.38-2.48 1.7-4.99 4.3-5.68 2.88-.21 6.45-.82 8.61 1.62 1.15 1.03 1.26 2.69 1.75 4.07-4.88.16-9.77.15-14.66-.01z"/><g fill="#959595"><path d="M176.37 128.05c.16-2.14-.98-5.83 2.5-5.47.06 12.08.18 24.17-.07 36.25-.64.33-1.29.67-1.93 1.01 44.63-.19 89.26.12 133.89-.17l-1.03 1.11c-4.21.42-8.45.19-12.68.22-40.27.01-80.53-.02-120.8.01.32-10.98.08-21.98.12-32.96z"/><path d="M225.12 122.58c3.43-.34 2.34 3.27 2.49 5.39-.13 10.38.16 20.76-.15 31.13h-2.31c-.17-12.17-.12-24.35-.03-36.52zM241.21 122.9c.64-.02 1.93-.05 2.57-.07.02 12.07.11 24.15-.05 36.22h-2.42c-.26-12.05-.07-24.1-.1-36.15zM257.42 128c.23-2.13-1.02-5.93 2.49-5.38.07 12.16.11 24.33-.02 36.49-.52 0-1.57-.02-2.1-.03-.84-10.3-.07-20.73-.37-31.08zM307.18 122.55c.6.19 1.79.55 2.39.74.11 12.04.15 24.11-.04 36.15-.78-.13-1.57-.25-2.35-.34-.12-12.18-.12-24.37 0-36.55zM512.35 139.43c3.69-1.83 8.36 1.55 7.97 5.59.26 4.74-6.28 7.55-9.57 4.15-3.2-2.62-2.28-8.31 1.6-9.74zM691 141.75h10.25v53.5h-9.97c-.03-2.13-.05-4.26-.1-6.39-3.83 6.6-12.7 8.83-19.39 5.41-5.25-2.6-7.82-8.48-8.51-14.03-.82-6.72-.1-14.24 4.43-19.59 4.08-4.83 11.44-6.05 17.1-3.51 2.77 1.2 4.48 3.77 6.2 6.12-.02-7.17-.01-14.34-.01-21.51m-12.71 23.59c-3.21 1.63-4.42 5.43-4.74 8.77-.3 3.7.21 7.77 2.69 10.7 3.56 3.99 11.1 3.09 13.32-1.9 2.08-4.66 2.14-10.49-.54-14.91-2.11-3.63-7.16-4.46-10.73-2.66zM372.75 144.5c7.28.05 14.56-.11 21.84.07 7.34.28 14.93 3.75 18.49 10.45 4.14 7.79 4.18 17.34 1.67 25.65-2.29 7.82-9.63 13.52-17.68 14.27-8.08.69-16.22.13-24.32.31V144.5m10.5 41.75c4.42-.05 8.95.37 13.26-.88 4.93-1.54 8.19-6.38 8.75-11.38.83-6.06.25-13.3-4.85-17.42-4.82-3.87-11.38-2.94-17.13-3.1-.08 10.93-.01 21.85-.03 32.78zM434.1 157.15c7.33-2.81 17.03-1.94 22.16 4.59 3.74 4.61 4.16 10.82 4.03 16.51-8.95.06-17.9-.14-26.85.11.49 2.58.84 5.46 2.81 7.42 3.93 3.91 11.37 3.16 14.42-1.51 3.15-.03 6.31-.04 9.47.05-1.41 4.75-4.87 8.86-9.67 10.4-7.13 2.38-16.03 1.95-21.67-3.53-5.08-5.29-6.08-13.27-4.87-20.24.91-5.86 4.53-11.52 10.17-13.8m1.91 8.91c-1.49 1.53-1.85 3.72-2.47 5.67 5.63.03 11.27.03 16.92 0-.59-2.01-.93-4.22-2.4-5.81-3.04-3.4-9.06-3.25-12.05.14zM471.52 159.58c5.46-4.61 13.41-4.58 19.99-2.9 4.84 1.29 8.25 5.62 8.76 10.55-3.06.03-6.12.03-9.18-.01-2.1-4.33-7.86-5.15-11.75-2.9-2.05 1.13-2.47 4.39-.14 5.47 5.96 2.84 13.41 1.96 18.74 6.27 4.57 3.89 3.75 11.55-.36 15.46-3.65 3.33-8.75 4.6-13.59 4.52-4.87.1-10.14-.86-13.83-4.27-2.02-1.91-2.84-4.66-3.57-7.25 3.28-.03 6.56-.03 9.85 0 2.32 4.35 8.11 4.93 12.25 3.14 2.39-.88 3.02-4.78.47-5.85-5.75-2.6-12.76-1.99-17.89-6.03-4.95-3.94-4.55-12.3.25-16.2zM529.28 167.26c1.73-6.92 8.51-12.18 15.73-11.35 4.92.01 8.87 3.38 11.43 7.29.03-2.23.06-4.47.08-6.7 3.24 0 6.48 0 9.73.01-.03 13.16.04 26.32-.02 39.49.06 5.82-4.49 10.76-9.83 12.49-6.72 2.22-14.47 2.12-20.82-1.16-3.45-1.69-5.51-5.13-6.4-8.76 3.31-.1 6.63-.09 9.95-.04 2.96 4.89 10.2 5.01 14.63 2.22 3.75-3.05 1.73-8.52 2.25-12.66-4.65 8.07-17.11 8.8-23.13 1.98-5.34-6.18-5.58-15.26-3.6-22.81m14.11-1.95c-5.42 3.34-5.6 11.13-3.54 16.5 2.18 6.04 11.86 6.41 14.73.78 2.24-4.34 2.28-9.86-.06-14.17-2.05-3.88-7.36-4.99-11.13-3.11zM593.61 156.49c5.15-1.63 11.81-1.08 15.34 3.48 2.72 3.38 2.95 7.91 3.05 12.06.02 7.74-.01 15.48 0 23.22h-10.25c-.02-7.1.03-14.21 0-21.31-.14-2.82-.18-6.22-2.59-8.14-3.22-2.27-8.38-1.73-10.72 1.57-1.59 2.2-1.57 5.03-1.69 7.63-.03 6.75.01 13.5 0 20.25h-10V156.5h9.72c.02 2.22.04 4.44.1 6.67 1.82-2.69 3.73-5.69 7.04-6.68zM629.56 157.52c7.37-3.29 17.47-2.52 22.82 4.07 3.85 4.61 4.3 10.9 4.15 16.66-8.91.01-17.83-.02-26.74.01.34 2.56.66 5.37 2.53 7.34 3.89 4.09 11.51 3.44 14.6-1.33 3.14-.03 6.3-.03 9.45.02-1.37 4.77-4.86 8.92-9.67 10.44-6.95 2.31-15.55 1.95-21.23-3.14-4.94-4.72-6.28-12.04-5.58-18.59.52-6.28 3.75-12.73 9.67-15.48m2.56 8.7c-1.37 1.53-1.75 3.62-2.35 5.51 5.64.03 11.28.04 16.93-.01-.6-2.05-.93-4.33-2.49-5.91-3.13-3.35-9.16-3.07-12.09.41zM509.5 156.5h10.25c-.04 12.93.06 25.85-.05 38.77-3.4-.03-6.8-.02-10.2-.02V156.5zM592.3 219.21c6.71-4.72 15.96-5.12 23.44-2.07 5.51 2.15 9.27 7.46 9.76 13.32-3.29.05-6.58.04-9.87.04-1.75-7.06-11.42-8.59-16.57-4.46-2.91 2.28-2.3 7.39 1.29 8.64 7.19 3.14 16.03 2.32 22.22 7.78 5.93 5.96 4.51 17.07-2.18 21.92-4.92 3.7-11.36 4.44-17.33 4.07-5.49-.42-11.3-2.33-14.74-6.86-1.97-2.34-2.58-5.38-3.1-8.3 3.38-.05 6.76-.04 10.15-.05 2.2 7.13 12.04 8.32 17.67 4.78 3.42-1.93 3.49-7.31-.16-9.02-6.8-3.44-15.29-2.41-21.52-7.24-7.08-5.44-6.14-17.49.94-22.55zM564.75 216.51c3.5-.01 7-.01 10.5 0v50.74h-10.5v-50.74zM413.23 216.53c7.22-.01 14.45-.12 21.68.03 7.23.25 14.76 3.54 18.42 10.05 4.33 7.66 4.42 17.17 2.11 25.49-2.11 7.87-9.26 13.86-17.34 14.76-8.24.86-16.57.17-24.85.39-.01-16.91.04-33.81-.02-50.72m10.52 8.97v32.75c4.49-.08 9.13.43 13.49-.96 4.76-1.58 7.89-6.29 8.49-11.14.85-6.01.36-13.18-4.59-17.38-4.8-4.1-11.55-3.16-17.39-3.27zM478.65 216.49c4.15.01 8.3.01 12.46.01 5.88 16.92 11.78 33.82 17.6 50.76-3.83-.02-7.66 0-11.48-.03-1.25-3.99-2.54-7.97-3.75-11.97-5.99-.02-11.98-.02-17.97 0-1.2 4.02-2.57 7.98-3.81 11.98-3.56.01-7.11 0-10.66.02 5.85-16.93 11.76-33.84 17.61-50.77m5.82 10.01c-2.29 6.8-4.42 13.66-6.58 20.5h13.3c-2.31-6.81-4.09-13.8-6.72-20.5zM509.05 216.5h11.98c3.97 13.09 7.59 26.29 11.84 39.29 4.19-13 7.7-26.22 11.67-39.3 3.8.01 7.61.01 11.41.01-5.62 16.92-11.27 33.83-16.9 50.75-4.28 0-8.56.01-12.84-.02-5.77-16.89-11.47-33.81-17.16-50.73zM491.57 293h7.37c1.84 8.08 3.44 16.21 5.47 24.25 2.16-8.07 4.21-16.17 6.29-24.26 2.01 0 4.02.01 6.04.02 2.14 8.08 4.16 16.2 6.47 24.25 1.86-8.05 3.59-16.13 5.34-24.21 2.44-.04 4.88-.06 7.34-.08-2.99 11.27-5.96 22.54-8.98 33.79-2.22-.01-4.42-.02-6.63-.01-2.2-7.62-4.28-15.28-6.59-22.87-2.26 7.61-4.26 15.29-6.56 22.89-2.21-.02-4.42-.03-6.62-.03-2.97-11.25-5.95-22.5-8.94-33.74zM542 293h22.5c-.01 2-.01 4 0 6h-15.25c0 2.67-.01 5.33 0 8h14.5c-.01 1.83-.01 3.67-.01 5.51-4.84-.01-9.68-.03-14.52.02.02 2.74.03 5.48.03 8.22h15.23c.01 1.99.02 3.97.05 5.96-7.51.08-15.02.02-22.53.04-.01-11.25 0-22.5 0-33.75zM581.13 293c2.81-.01 5.62 0 8.43.04 3.83 11.26 7.83 22.45 11.66 33.71-2.55-.01-5.09-.01-7.63-.01-.86-2.66-1.7-5.33-2.52-7.99-3.99-.01-7.98 0-11.96-.01-.87 2.66-1.69 5.33-2.54 8-2.38 0-4.76 0-7.13.01 3.89-11.26 7.85-22.49 11.69-33.75m-.48 20.24c2.95.01 5.92.01 8.88.01-1.48-4.55-2.8-9.15-4.41-13.66-1.64 4.51-2.96 9.11-4.47 13.65zM601.5 293c9.08 0 18.17-.01 27.25 0-.01 2-.01 4 0 6h-10c0 9.25-.01 18.49 0 27.74-2.41 0-4.82.01-7.23.03-.04-9.25-.03-18.5 0-27.75-3.35-.03-6.68-.02-10.02-.02-.01-2-.01-4 0-6zM635 293h7.25v13.51c5.08-.02 10.17-.01 15.25-.01 0-4.5.01-8.99-.01-13.48 2.33-.02 4.66-.02 7.01-.03-.02 11.26.03 22.52-.02 33.78-2.34-.02-4.66-.03-6.98-.03V312.5c-5.09 0-10.18-.02-15.27.02.03 4.74.01 9.48.02 14.23-2.42-.01-4.84-.01-7.25 0V293zM672.5 293H695c-.01 2-.01 4 0 6h-15.25c-.01 2.66-.01 5.33 0 8h14.5c-.01 1.83-.01 3.66 0 5.5h-14.51v8.25H695c-.01 2-.01 4 0 6-7.51-.01-15.01.01-22.51-.01.02-11.25 0-22.49.01-33.74zM702.5 293c5.55.09 11.11-.19 16.66.11 5.1.28 9.63 4.66 9.61 9.86.52 4.46-2.21 8.54-6 10.67 2.36 4.35 4.68 8.73 7.01 13.11-2.66-.01-5.31-.01-7.96.02-2.14-4.09-4.29-8.18-6.37-12.29l-5.7.03c-.01 4.08-.01 8.16 0 12.24-2.42-.01-4.84-.01-7.25 0V293m7.25 5.75c-.01 3.41-.01 6.83 0 10.25 2.95-.09 6 .34 8.9-.42 3.79-1.54 3.85-7.67.15-9.36-2.93-.85-6.05-.37-9.05-.47z"/></g><path fill="#979696" d="M192.65 122.84c.6.01 1.81.02 2.41.02-.04 12.09.12 24.17-.08 36.25-.5-.01-1.49-.02-1.98-.03l-.36-2.1c-.02-11.38-.02-22.76.01-34.14z"/><path fill="#979797" d="M208.94 122.87l2.31-.04c-.18 12.08.43 24.21-.29 36.25-.5.01-1.49.02-1.99.03-.07-12.08-.01-24.16-.03-36.24z"/><path fill="#969696" d="M274.7 122.85h2.45c-.05 12.09.15 24.18-.1 36.26-.5 0-1.5-.02-2-.02-.84-12.02-.14-24.17-.35-36.24z"/><path fill="#969696" d="M290.97 122.62c.59.12 1.76.37 2.34.49.31 9.95 0 19.91.14 29.87-.07 2.03.25 4.14-.45 6.1-.49.01-1.47.02-1.95.03-.21-12.16-.07-24.33-.08-36.49z" opacity=".98"/><g fill="#ebebeb"><path d="M137.87 130.28c4.78-.1 9.56-.09 14.35-.02-.07 39.56.01 79.12-.04 118.68l-.76-.04c-4.42-.23-8.85.02-13.26.27-.45-10.38.2-20.75-.26-31.12.65-17.35-.22-34.71.08-52.07.02-11.9.15-23.79-.11-35.7zM331.88 217.93l1.18-.83c3.9-.41 7.99-.52 11.86-.07.8 4.33-.07 8.9 1.28 13.21.92 0 2.77.02 3.7.02 2.19.2 3.56 2.62 3.67 4.67 3.34 28.38 6.6 56.78 9.97 85.16.11 1.54.23 3.3-1.05 4.43-1.54 2.36-4.56 1.95-7 2.3.8 4.92.84 9.94 1.75 14.85-8.53.91-17.11 1-25.65 1.75.11-14.94-.01-29.89.07-44.84 2.76-4.93 1.47-10.93.14-16.11-.15-21.5-.32-43.04.08-64.54zM138.08 315.32c4.69.02 9.39.11 14.08-.11.01 20.62.14 41.24-.06 61.85-.87 5.06-7.12 5.27-11 4.06-3.6-1.56-3.04-5.92-3.21-9.11.25-7.67.24-15.34.22-23.02-.03-11.22.03-22.45-.03-33.67zM185.83 337.74c40.25-.33 80.51.17 120.75-.23.07 2.13.07 4.26.07 6.4-40.27-.05-80.55-.02-120.82-.01v-6.16z"/></g><path fill="#646566" d="M176.87 159.84c.64-.34 1.29-.68 1.93-1.01 4.72.43 9.47.22 14.2.25.49.01 1.48.02 1.98.03 4.66-.02 9.33-.02 13.99 0 .5-.01 1.49-.02 1.99-.03 4.73-.02 9.46.02 14.19.02h2.31c4.62 0 9.23-.02 13.85-.05h2.42c4.68.05 9.37.03 14.06.03.53.01 1.58.03 2.1.03 5.05.01 10.1-.05 15.16-.02.5 0 1.5.02 2 .02 4.67-.02 9.33-.02 14 0 .48-.01 1.46-.02 1.95-.03 4.73.07 9.46-.14 14.18.02.78.09 1.57.21 2.35.34l1.23.23c-44.63.29-89.26-.02-133.89.17z" opacity=".8"/><path fill="#2a3235" d="M332.92 201.03c.57-.42 1.71-1.25 2.27-1.66.52 5.78 1.68 11.51 1.55 17.33-1-1.59-1.91-3.23-2.56-4.99-.73-3.51-1.1-7.11-1.26-10.68z"/><g fill="#2f383c"><path d="M335.19 199.37c2.04 5.25 2.17 11.08 2.4 16.64 2.59.28 5.19.51 7.8.54.04 2.33-.21 4.87 1.17 6.92-.09 2.76-.11 6.18 3.34 6.79-.93 0-2.78-.02-3.7-.02-1.35-4.31-.48-8.88-1.28-13.21-3.87-.45-7.96-.34-11.86.07l-1.18.83c-.4 21.5-.23 43.04-.08 64.54-.37 5.36-.43 10.75-.14 16.11-1.08 1.37-.96 3.2-1.27 4.84-.9-.2-1.81-.41-2.7-.6-.75 1.03-1.51 2.04-2.29 3.05-.02 3-.02 6 .04 9.01-46.42.15-92.84.08-139.26.06-11.34.09-22.7-.35-34.02.27-4.69.22-9.39.13-14.08.11l-1.25-.02c.02-16.79-.56-33.61.52-50.37-.02-5.24-.05-10.48 0-15.71l.81-.05c4.41-.25 8.84-.5 13.26-.27.66.15 1.97.44 2.63.59 2.32 7.15 4.75 14.26 7.09 21.4l3.32-.33c6.5-.77 13.04-.43 19.56-.45 40.99-.02 81.97.02 122.95-.04 2.77.05 5.54.28 8.31.45h1.89c3.12-.13 6.24-.16 9.37-.06.05 3.87-.41 7.83.61 11.62 1.51.18 3.01.39 4.51.63-.19-19.57-.04-39.14-.07-58.71-.02-2.44-.35-4.85-.53-7.27 2.92.33 4.03-2.71 3.12-5.02.65 1.76 1.56 3.4 2.56 4.99.13-5.82-1.03-11.55-1.55-17.33m-170.11 87.96c-2.17 3.9-3.97 7.99-6.23 11.83-.27-3.9-.55-7.8-.83-11.7-.9-.02-2.72-.08-3.62-.11.73 5.27 1.2 10.57 1.9 15.84 1.27 0 2.53.01 3.8.02 2.91-5.25 5.61-10.6 8.54-15.83-1.19-.02-2.37-.04-3.56-.05m8.33.03c-3.18 5.27-6.26 10.6-9.42 15.89l3.72-.12c.69-1.19 1.37-2.37 2.07-3.56 1.93.02 3.86.03 5.8.03.17 1.17.35 2.35.53 3.53l3.4.12c-.81-5.29-1.71-10.57-2.61-15.85-1.16-.02-2.33-.03-3.49-.04m10.73.02c-1.15 5.26-2.31 10.53-3.29 15.83l3.2-.04c.66-3.6 1.35-7.2 2.29-10.74 1.57 3.56 2.89 7.23 4.4 10.82.84-.02 2.52-.07 3.36-.09 1.11-5.29 2.27-10.56 3.28-15.86-.81.05-2.42.14-3.23.19-.66 3.64-1.31 7.28-2.06 10.91-1.76-3.56-2.95-7.35-4.43-11.03-1.18 0-2.35 0-3.52.01m32.18-.01c-3.2 5.3-6.34 10.64-9.45 16 3.06.74 4.68-1.46 5.96-3.77 1.9 0 3.81-.01 5.72-.02.1 1.27.2 2.55.29 3.83 2.56 2.66 4.7-.96 6.7-2.49 2.46 2.83 6.58 3.21 9.71 1.27.51.4 1.55 1.2 2.06 1.6.2-.55.6-1.63.79-2.17.42.53 1.25 1.61 1.67 2.14.46-1.23.88-2.47 1.25-3.72-.17.79-.5 2.37-.67 3.16 4.02-.02 8.05-.04 12.07.03.24-.78.73-2.33.98-3.1-2.28-.47-4.57-.87-6.85-1.27 2.78-.55 5.84-.68 8.1-2.61-.11-1.26-.22-2.51-.31-3.76 1-1.73 1.94-3.49 2.86-5.25-4.46-.57-9.12-1.66-13.48-.01-.58 3.06-1.21 6.11-1.88 9.16-.58-1.27-1.14-2.54-1.67-3.83-.43-3.5-3.72-5.83-7.16-5.48-4.13-.18-7.26 3.35-8.37 7.02l-1.27-.87-2.16 2.12c-.49-2.66-.94-5.33-1.42-7.98h-3.47m78.69 2.45c-1.09-.18-2.17-.35-3.25-.52l-.1 1.09c-2.15-4.77-8.35-2.51-12.43-2.95-.97 5.25-2.15 10.46-3.23 15.69 1.12.04 2.24.09 3.37.14.5-2.16.98-4.32 1.47-6.47 1.76.3 3.98-.37 5.33 1.14.13 1.75.06 3.51.06 5.28l3.65-.03-.09-.82.24 1.26c.87-2.08 1.67-4.18 2.48-6.28.58 3.59 3.7 6.58 7.48 6.14 6.61.11 10.59-8.43 7.33-13.77-2.86-3.93-9.22-3.23-12.31.1m-95.68-2.34c-.29.7-.88 2.1-1.17 2.8 1.74.01 3.5.02 5.25.02-1 4.29-1.85 8.61-2.81 12.9.88 0 2.64-.01 3.52-.01.91-4.32 1.8-8.65 2.75-12.96l4.58.15c.22-.74.66-2.23.87-2.98-4.33.06-8.67-.18-12.99.08m65.23-.1c-1.09 5.35-2.23 10.69-3.3 16.05.87-.15 2.61-.46 3.48-.61.5-1.73.81-3.5 1.18-5.25 2.77-.2 5.91.35 8.29-1.42 2.88-1.81 3-6.81-.32-8.24-3.03-.85-6.23-.45-9.33-.53z"/><path d="M299.34 290.43c2.43-1.73 6.09.56 5.57 3.52.25 3.33-2.65 7.78-6.41 6.4-3.73-2.03-2.33-8.02.84-9.92z"/></g><path fill="#fefefe" d="M331.8 282.47c1.33 5.18 2.62 11.18-.14 16.11-.29-5.36-.23-10.75.14-16.11z"/><path fill="#131d21" d="M243.72 287.23c4.36-1.65 9.02-.56 13.48.01-.92 1.76-1.86 3.52-2.86 5.25.09 1.25.2 2.5.31 3.76-2.26 1.93-5.32 2.06-8.1 2.61 2.28.4 4.57.8 6.85 1.27-2.99.08-5.97.1-8.96.14.34-1.29.67-2.58 1.01-3.86 3.17-.36 8.03 1.61 8.95-2.75-2.82-.08-5.63-.09-8.45-.08.22-1.07.44-2.14.67-3.2 3.16.03 6.42.33 9.41-.94-.74-.75-1.5-1.48-2.26-2.2-3.35.14-6.7.14-10.05-.01z"/><path fill="#232c31" d="M228.28 297.93c-.63-3.19.89-7.91 4.75-7.92 1.9-.39 2.89 1.44 4.04 2.56.77-.01 2.33-.01 3.1-.01.53 1.29 1.09 2.56 1.67 3.83-.27 1.21-.53 2.43-.82 3.65a56.01 56.01 0 0 1-1.25 3.72c-.42-.53-1.25-1.61-1.67-2.14.54-2.37 1.08-4.74 1.61-7.1-2.79.37-6.95-1.17-7.89 2.58 1.16.09 3.49.26 4.66.34-.98.97-1.88 2.06-3.03 2.84-1.98.87-4.71-.1-5.17-2.35z"/><path fill="#1e282c" d="M267.56 290.03c1.76.38 5.31-.66 5.3 2.1-.05 3.39-4.14 2.45-6.39 2.7.35-1.61.72-3.2 1.09-4.8z"/><path fill="#1f282d" d="M282.3 290.06c2.26.13 4.9-.31 6.39 1.84-1.53 2.77-4.69 2.71-7.45 2.72.34-1.53.69-3.05 1.06-4.56z"/><path fill="#a1a1a1" d="M184.89 316.05c1.31-.7 2.7-1 4.18-.9 39.21.04 78.42.04 117.63 0-.21 7.21.21 14.44-.16 21.64-.09-1.97-.03-3.93-.01-5.88 0-2.13-.01-4.29-.6-6.35-4.63-.5-9.29-.11-13.93-.17-35.4-.06-70.79.08-106.18-.07-.01-2.71.01-5.41.13-8.11 4.32.67 8.7.6 13.06.55 27.67-.09 55.34-.03 83-.03 8.04-.1 16.09.23 24.12-.25-40.41-.63-80.84.22-121.24-.43z"/><g fill="#c2c2c2"><path d="M184.89 316.05c40.4.65 80.83-.2 121.24.43-8.03.48-16.08.15-24.12.25-27.66 0-55.33-.06-83 .03-4.36.05-8.74.12-13.06-.55l-1.06-.16zM185.82 324.32c35.39.15 70.78.01 106.18.07 4.64.06 9.3-.33 13.93.17.59 2.06.6 4.22.6 6.35-40.23.22-80.47.08-120.7.04 0-2.21 0-4.42-.01-6.63z"/></g><path fill="#f1f3f5" d="M185.83 343.9c40.27-.01 80.55-.04 120.82.01 0 1.94.02 3.88.03 5.83H185.82c0-1.95.01-3.9.01-5.84z"/></svg>