<?xml version="1.0" encoding="UTF-8" standalone="no"?><!DOCTYPE svg PUBLIC "-//W3C//DTD SVG 1.1//EN" "http://www.w3.org/Graphics/SVG/1.1/DTD/svg11.dtd"><svg width="100%" height="100%" viewBox="0 0 45 18" version="1.1" xmlns="http://www.w3.org/2000/svg" xmlns:xlink="http://www.w3.org/1999/xlink" xml:space="preserve" xmlns:serif="http://www.serif.com/" style="fill-rule:evenodd;clip-rule:evenodd;"><g><path d="M4.882,0.944c2.471,-1.267 5.538,-1.236 7.984,0.064c1.806,0.925 3.264,2.503 4.056,4.372c0.152,0.355 0.253,0.722 0.38,1.09c-0.203,-0.228 -0.418,-0.52 -0.76,-0.532c-0.444,-0.045 -0.843,0.393 -0.761,0.823c0.038,0.305 0.304,0.469 0.463,0.698c0.481,0.633 0.507,1.584 0.063,2.243c-0.139,0.228 -0.38,0.405 -0.405,0.678c-0.064,0.424 0.316,0.843 0.76,0.798c0.355,-0.012 0.558,-0.348 0.76,-0.589c-0.316,1.458 -0.982,2.852 -1.964,3.973c-0.729,0.824 -1.61,1.534 -2.598,2.047c-1.603,0.837 -3.466,1.141 -5.26,0.9c-1.825,-0.241 -3.561,-1.09 -4.879,-2.37c-1.407,-1.331 -2.345,-3.15 -2.617,-5.07c-0.235,-1.628 -0.013,-3.314 0.659,-4.816c0.823,-1.856 2.3,-3.409 4.119,-4.309m3.073,1.369c-0.412,0.215 -0.539,0.741 -0.475,1.166c0.038,0.355 0.234,0.779 0.633,0.836c0.254,0.013 0.463,-0.19 0.571,-0.392c0.215,-0.444 0.19,-1.014 -0.108,-1.414c-0.139,-0.19 -0.399,-0.297 -0.621,-0.19m-3.942,1.623c-0.209,0.069 -0.335,0.278 -0.335,0.487c0,0.444 0.304,0.824 0.659,1.059c0.253,0.158 0.633,0.253 0.887,0.05c0.266,-0.221 0.209,-0.608 0.063,-0.874c-0.241,-0.444 -0.748,-0.837 -1.267,-0.716m7.908,-0.013c-0.469,0.102 -0.868,0.488 -1.014,0.951c-0.076,0.228 -0.038,0.532 0.191,0.678c0.215,0.139 0.506,0.089 0.735,-0.026c0.342,-0.164 0.633,-0.481 0.741,-0.855c0.051,-0.19 0.063,-0.418 -0.082,-0.583c-0.127,-0.165 -0.368,-0.209 -0.571,-0.165m-4.119,1.077c-0.633,0.064 -1.267,0.317 -1.761,0.698c-0.697,0.551 -1.173,1.381 -1.268,2.262c-0.127,0.887 0.14,1.806 0.697,2.509c0.558,0.723 1.42,1.204 2.332,1.28c1.103,0.127 2.244,-0.348 2.947,-1.204c0.596,-0.709 0.887,-1.673 0.76,-2.598c-0.107,-0.887 -0.589,-1.73 -1.311,-2.281c-0.672,-0.507 -1.553,-0.761 -2.408,-0.672m-5.108,2.744c-0.361,0.063 -0.786,0.406 -0.621,0.811c0.253,0.488 0.913,0.583 1.394,0.444c0.279,-0.083 0.57,-0.279 0.608,-0.59c0.013,-0.215 -0.139,-0.411 -0.316,-0.519c-0.317,-0.19 -0.71,-0.241 -1.065,-0.146m10.139,0.013c-0.272,0.076 -0.57,0.272 -0.608,0.583c-0.019,0.234 0.158,0.443 0.355,0.545c0.405,0.228 0.931,0.221 1.33,0c0.203,-0.114 0.381,-0.317 0.355,-0.545c-0.012,-0.209 -0.171,-0.38 -0.348,-0.476c-0.317,-0.19 -0.723,-0.221 -1.077,-0.114m-8.239,3.41c-0.475,0.171 -0.88,0.614 -0.918,1.121c-0.032,0.266 0.164,0.545 0.443,0.571c0.494,0.038 0.938,-0.317 1.16,-0.742c0.127,-0.241 0.203,-0.57 0.013,-0.811c-0.172,-0.203 -0.476,-0.215 -0.698,-0.127m6.578,0c-0.279,0.108 -0.348,0.463 -0.253,0.723c0.158,0.507 0.633,0.95 1.185,0.95c0.279,0.013 0.519,-0.234 0.507,-0.507c0,-0.424 -0.279,-0.798 -0.615,-1.026c-0.241,-0.159 -0.545,-0.266 -0.824,-0.152m-3.232,1.33c-0.209,0.108 -0.342,0.33 -0.412,0.552c-0.126,0.443 -0.076,0.95 0.241,1.293c0.19,0.209 0.552,0.215 0.742,0c0.38,-0.412 0.405,-1.078 0.126,-1.559c-0.126,-0.229 -0.43,-0.406 -0.697,-0.273l0,-0.013Z" style="fill:#00a4b4;fill-rule:nonzero;stroke:#00a4b4;stroke-width:0.01px;"/><path d="M12.866,1.008c1.584,-0.837 3.422,-1.154 5.197,-0.919c1.869,0.234 3.637,1.096 4.98,2.408c1.395,1.33 2.313,3.13 2.586,5.031c0.234,1.648 0,3.384 -0.697,4.905c-0.875,1.952 -2.497,3.549 -4.455,4.411c-2.389,1.077 -5.272,0.982 -7.604,-0.241c0.988,-0.507 1.869,-1.204 2.598,-2.041c0.982,-1.128 1.647,-2.515 1.964,-3.973c0.412,-0.57 0.634,-1.28 0.634,-1.983c0,-0.774 -0.279,-1.534 -0.761,-2.142c-0.126,-0.368 -0.228,-0.735 -0.38,-1.09c-0.792,-1.87 -2.249,-3.448 -4.055,-4.373m7.566,1.356c-0.38,0.076 -0.634,0.488 -0.539,0.862c0.038,0.222 0.209,0.38 0.361,0.526c1.312,1.299 2.073,3.137 2.041,4.987c0,1.737 -0.684,3.454 -1.863,4.721c-0.266,0.254 -0.304,0.716 -0.051,0.995c0.254,0.317 0.761,0.355 1.027,0.051c1.819,-1.857 2.642,-4.607 2.218,-7.161c-0.292,-1.825 -1.204,-3.549 -2.554,-4.803c-0.171,-0.165 -0.425,-0.228 -0.653,-0.178m-2.154,1.977c-0.444,0.191 -0.533,0.862 -0.165,1.173c0.855,0.824 1.35,1.99 1.331,3.168c0,0.906 -0.336,1.8 -0.888,2.535c-0.164,0.215 -0.424,0.399 -0.443,0.697c-0.076,0.444 0.336,0.868 0.773,0.811c0.406,-0.038 0.634,-0.418 0.862,-0.71c0.697,-0.912 1.077,-2.059 1.128,-3.206c0.063,-1.622 -0.609,-3.264 -1.806,-4.36c-0.222,-0.19 -0.545,-0.234 -0.792,-0.101l0,-0.007Z" style="fill:#9aba2f;fill-rule:nonzero;stroke:#9aba2f;stroke-width:0.01px;"/><path d="M7.955,2.313c0.222,-0.101 0.482,0 0.621,0.19c0.298,0.406 0.317,0.976 0.108,1.42c-0.114,0.209 -0.317,0.405 -0.571,0.392c-0.399,-0.063 -0.595,-0.481 -0.633,-0.836c-0.064,-0.425 0.063,-0.951 0.475,-1.166Zm12.478,0.051c0.228,-0.051 0.481,0.012 0.652,0.177c1.35,1.267 2.263,2.978 2.554,4.803c0.425,2.554 -0.399,5.305 -2.218,7.161c-0.272,0.304 -0.779,0.254 -1.026,-0.05c-0.254,-0.279 -0.216,-0.736 0.05,-0.995c1.179,-1.268 1.863,-2.979 1.857,-4.721c0.025,-1.851 -0.735,-3.689 -2.047,-4.988c-0.152,-0.152 -0.317,-0.304 -0.367,-0.526c-0.102,-0.38 0.152,-0.785 0.532,-0.861l0.013,0Zm-16.42,1.584c0.526,-0.127 1.033,0.272 1.268,0.716c0.152,0.266 0.209,0.653 -0.051,0.874c-0.253,0.203 -0.634,0.108 -0.887,-0.05c-0.368,-0.235 -0.665,-0.615 -0.665,-1.059c0,-0.209 0.126,-0.418 0.335,-0.481Zm7.915,-0.013c0.203,-0.044 0.444,0 0.571,0.165c0.139,0.165 0.126,0.399 0.082,0.589c-0.114,0.381 -0.399,0.697 -0.741,0.862c-0.229,0.114 -0.52,0.165 -0.742,0.019c-0.215,-0.152 -0.253,-0.456 -0.177,-0.697c0.146,-0.444 0.545,-0.836 1.014,-0.938l-0.007,0Z" style="fill:#f7f7f7;fill-rule:nonzero;stroke:#f7f7f7;stroke-width:0.01px;"/><path d="M18.284,4.341c0.254,-0.127 0.571,-0.089 0.786,0.101c1.191,1.096 1.863,2.738 1.8,4.36c-0.045,1.141 -0.425,2.294 -1.128,3.206c-0.228,0.292 -0.456,0.672 -0.862,0.71c-0.444,0.064 -0.849,-0.367 -0.779,-0.805c0.025,-0.297 0.285,-0.481 0.456,-0.697c0.538,-0.735 0.868,-1.628 0.868,-2.534c0.025,-1.179 -0.469,-2.345 -1.331,-3.169c-0.361,-0.304 -0.272,-0.976 0.178,-1.166l0.012,-0.006Zm-10.487,0.671c0.855,-0.095 1.736,0.159 2.408,0.679c0.722,0.538 1.204,1.381 1.311,2.281c0.127,0.912 -0.164,1.876 -0.76,2.585c-0.697,0.856 -1.838,1.331 -2.947,1.204c-0.912,-0.082 -1.774,-0.557 -2.344,-1.28c-0.545,-0.697 -0.812,-1.628 -0.697,-2.515c0.107,-0.888 0.583,-1.711 1.28,-2.263c0.507,-0.393 1.121,-0.646 1.755,-0.697m-0.228,1.413c-0.824,0.241 -1.458,1.052 -1.458,1.927c-0.031,0.792 0.469,1.571 1.204,1.888c0.729,0.349 1.661,0.19 2.237,-0.38c0.672,-0.621 0.824,-1.711 0.362,-2.484c-0.444,-0.805 -1.458,-1.223 -2.345,-0.951Z" style="fill:#f7f7f7;fill-rule:nonzero;stroke:#f7f7f7;stroke-width:0.01px;"/><path d="M15.781,6.774c-0.082,-0.443 0.317,-0.887 0.761,-0.836c0.342,0.012 0.557,0.304 0.76,0.532c0.482,0.608 0.761,1.369 0.761,2.142c0,0.697 -0.222,1.407 -0.634,1.983c-0.203,0.241 -0.406,0.571 -0.761,0.59c-0.443,0.044 -0.823,-0.381 -0.76,-0.805c0.019,-0.279 0.253,-0.456 0.393,-0.684c0.443,-0.666 0.424,-1.604 -0.064,-2.244c-0.152,-0.228 -0.418,-0.393 -0.443,-0.697l-0.013,0.019Z" style="fill:#f7f7f7;fill-rule:nonzero;stroke:#f7f7f7;stroke-width:0.01px;"/><path d="M7.568,6.432c0.888,-0.273 1.902,0.146 2.345,0.951c0.469,0.779 0.317,1.863 -0.361,2.471c-0.57,0.57 -1.508,0.741 -2.243,0.393c-0.729,-0.317 -1.23,-1.096 -1.204,-1.889c0,-0.874 0.633,-1.692 1.457,-1.926l0.006,0Z" style="fill:#00a4b4;fill-rule:nonzero;stroke:#00a4b4;stroke-width:0.01px;"/><path d="M2.689,7.756c0.355,-0.095 0.76,-0.05 1.065,0.146c0.177,0.108 0.329,0.304 0.316,0.52c-0.038,0.317 -0.329,0.507 -0.608,0.589c-0.481,0.14 -1.141,0.044 -1.394,-0.443c-0.165,-0.406 0.253,-0.742 0.621,-0.812Zm10.139,0.013c0.361,-0.108 0.761,-0.063 1.077,0.114c0.191,0.095 0.343,0.266 0.355,0.475c0.019,0.235 -0.152,0.431 -0.348,0.539c-0.406,0.228 -0.932,0.235 -1.331,0c-0.203,-0.101 -0.38,-0.304 -0.361,-0.545c0.038,-0.317 0.336,-0.507 0.608,-0.589l0,0.006Zm-8.238,3.409c0.228,-0.088 0.532,-0.076 0.697,0.127c0.19,0.235 0.127,0.57 0,0.811c-0.228,0.418 -0.678,0.78 -1.172,0.735c-0.279,-0.025 -0.475,-0.304 -0.444,-0.57c0.045,-0.507 0.444,-0.951 0.913,-1.109l0.006,0.006Zm6.584,-0.006c0.279,-0.114 0.583,0 0.824,0.152c0.336,0.228 0.615,0.602 0.615,1.014c0.012,0.285 -0.228,0.532 -0.507,0.52c-0.545,0 -1.027,-0.444 -1.185,-0.951c-0.095,-0.266 -0.026,-0.621 0.253,-0.735Zm-3.225,1.337c0.253,-0.127 0.557,0.044 0.684,0.273c0.285,0.475 0.254,1.14 -0.127,1.559c-0.19,0.215 -0.545,0.209 -0.735,0c-0.317,-0.336 -0.38,-0.856 -0.241,-1.287c0.064,-0.215 0.203,-0.443 0.419,-0.539l0,-0.006Z" style="fill:#f7f7f7;fill-rule:nonzero;stroke:#f7f7f7;stroke-width:0.01px;"/><g transform="matrix(0.642281,0,0,0.645893,4.87258,-6.55704)"><text x="33.004px" y="23.224px" style="font-family:'ArialMT', 'Arial', sans-serif;font-size:5px;fill:#fff;">Easyweather</text><text x="33.004px" y="28.388px" style="font-family:'ArialMT', 'Arial', sans-serif;font-size:5px;fill:#fff;">Setup</text></g></g></svg>