<svg id="svg" xmlns="http://www.w3.org/2000/svg" xmlns:xlink="http://www.w3.org/1999/xlink" width="400" height="754.863813229572" viewBox="0, 0, 400,754.863813229572"><g id="svgg"><path id="path0" d="M6.252 6.100 C 6.120 6.595,6.008 173.722,6.005 377.492 L 6.000 747.985 6.900 748.201 C 7.395 748.321,94.830 748.369,201.200 748.309 L 394.600 748.200 394.600 376.800 L 394.600 5.400 200.547 5.300 L 6.494 5.199 6.252 6.100 M265.600 474.768 C 274.070 474.998,283.810 475.378,287.245 475.614 C 290.680 475.849,297.790 476.202,303.045 476.399 C 312.656 476.757,317.997 477.120,329.800 478.217 C 343.437 479.484,345.074 479.668,347.400 480.200 C 348.720 480.502,350.573 480.853,351.517 480.982 C 352.462 481.110,353.542 481.377,353.917 481.574 C 354.293 481.772,355.193 482.154,355.919 482.423 C 356.644 482.692,357.491 483.402,357.800 484.000 C 358.109 484.598,358.866 485.299,359.481 485.557 C 361.078 486.229,362.347 489.378,362.661 493.454 C 363.073 498.800,359.621 504.400,355.914 504.400 C 355.272 504.400,354.360 504.607,353.886 504.861 C 352.388 505.663,345.265 506.841,336.200 507.787 C 332.900 508.131,328.850 508.582,327.200 508.789 C 325.550 508.996,322.580 509.174,320.600 509.186 C 318.620 509.197,314.750 509.474,312.000 509.800 C 309.250 510.126,304.570 510.411,301.600 510.432 C 298.630 510.454,294.040 510.617,291.400 510.795 C 274.332 511.943,237.971 512.457,189.200 512.239 C 134.577 511.996,113.895 511.502,93.200 509.950 C 90.010 509.711,84.610 509.380,81.200 509.214 C 77.790 509.048,72.570 508.626,69.600 508.275 C 66.630 507.924,62.330 507.435,60.044 507.189 C 54.667 506.609,44.735 504.361,43.600 503.467 C 43.270 503.207,42.183 502.570,41.184 502.052 C 36.079 499.401,36.180 490.321,41.366 485.756 C 44.076 483.371,49.213 480.800,51.271 480.800 C 52.139 480.800,53.694 480.545,54.725 480.234 C 55.756 479.922,58.760 479.462,61.400 479.211 C 64.040 478.961,68.450 478.495,71.200 478.177 C 73.950 477.858,77.730 477.585,79.600 477.570 C 81.470 477.554,83.990 477.381,85.200 477.185 C 86.410 476.989,92.323 476.644,98.341 476.418 C 104.359 476.192,111.199 475.836,113.541 475.627 C 115.883 475.417,127.160 475.046,138.600 474.802 C 150.040 474.557,161.200 474.302,163.400 474.235 C 172.191 473.965,251.175 474.377,265.600 474.768 M320.600 522.706 C 321.288 523.211,322.397 525.722,322.762 527.600 C 322.955 528.590,323.132 529.109,323.156 528.754 C 323.180 528.399,323.560 527.650,324.000 527.091 C 324.443 526.528,324.800 525.468,324.800 524.717 C 324.800 523.015,325.402 522.400,327.066 522.400 C 328.398 522.400,329.200 523.227,329.200 524.602 C 329.200 524.962,329.470 525.527,329.800 525.857 C 330.130 526.187,330.400 526.894,330.400 527.429 C 330.400 527.963,330.580 528.400,330.800 528.400 C 331.020 528.400,331.208 527.815,331.217 527.100 C 331.227 526.385,331.648 525.080,332.153 524.200 L 333.071 522.600 336.149 522.551 C 340.040 522.490,340.000 522.420,340.000 529.355 C 340.000 535.156,339.617 536.800,338.267 536.800 C 336.409 536.800,336.000 535.784,336.000 531.162 C 336.000 526.885,335.473 525.020,335.079 527.902 C 334.704 530.644,333.128 535.388,332.289 536.300 C 330.580 538.157,328.453 536.751,328.056 533.501 C 327.672 530.352,326.233 530.208,325.831 533.279 C 325.182 538.239,320.942 538.179,320.158 533.200 C 320.002 532.210,319.646 531.040,319.367 530.600 C 319.088 530.160,318.730 529.080,318.573 528.200 C 318.415 527.320,318.042 526.245,317.743 525.811 C 316.277 523.682,318.556 521.205,320.600 522.706 M353.632 523.260 C 354.172 524.269,354.093 534.558,353.536 535.781 C 352.977 537.008,351.622 537.130,350.638 536.042 C 350.075 535.420,349.939 534.365,349.876 530.142 L 349.800 525.000 347.200 525.143 C 344.158 525.310,344.230 525.270,344.560 526.581 C 344.728 527.251,345.091 527.600,345.620 527.600 C 347.368 527.600,349.200 528.712,349.200 529.772 C 349.200 530.848,348.703 531.084,346.000 531.292 L 344.600 531.400 344.400 533.759 C 344.148 536.736,343.337 537.444,341.818 536.017 C 340.474 534.754,340.211 523.940,341.500 522.951 C 342.643 522.075,353.141 522.341,353.632 523.260 M59.525 525.100 C 60.171 525.705,60.909 526.605,61.164 527.100 C 61.860 528.449,62.725 528.208,63.030 526.580 C 63.432 524.440,64.101 524.000,66.952 524.000 C 71.257 524.000,72.657 526.904,68.800 527.834 C 65.960 528.518,66.142 530.380,69.051 530.394 C 70.474 530.401,71.333 531.189,70.964 532.149 C 70.792 532.597,70.226 532.800,69.147 532.800 C 67.327 532.800,66.800 533.651,66.800 536.587 C 66.800 538.606,65.197 539.671,63.750 538.613 C 63.155 538.178,62.881 538.191,62.120 538.689 C 60.460 539.777,57.200 537.416,57.200 535.125 C 57.200 534.777,56.750 534.197,56.200 533.837 L 55.200 533.182 55.195 535.091 C 55.184 538.612,53.317 540.269,51.639 538.246 C 50.597 536.992,51.257 525.095,52.400 524.517 C 54.336 523.539,58.195 523.854,59.525 525.100 M55.200 529.200 C 55.200 530.623,56.503 530.902,57.186 529.626 C 57.855 528.375,57.674 528.000,56.400 528.000 C 55.333 528.000,55.200 528.133,55.200 529.200 M61.365 529.798 C 61.231 530.331,60.869 530.977,60.561 531.233 C 59.818 531.849,59.843 533.454,60.600 533.745 C 60.930 533.871,61.200 534.240,61.200 534.564 C 61.200 535.419,61.943 535.745,62.618 535.185 C 63.235 534.673,63.348 533.148,62.947 530.724 C 62.654 528.951,61.715 528.401,61.365 529.798 M251.100 612.796 C 252.710 613.778,253.010 617.158,251.636 618.856 C 250.705 620.007,241.127 620.503,239.200 619.500 C 237.875 618.810,237.454 613.388,238.657 612.509 C 239.899 611.601,249.504 611.822,251.100 612.796 M267.331 616.343 C 267.718 616.664,268.007 617.662,268.080 618.933 C 268.191 620.839,268.278 621.000,269.200 621.000 C 270.122 621.000,270.209 620.839,270.320 618.933 C 270.480 616.171,270.899 615.912,275.573 615.687 C 283.274 615.316,284.718 615.791,285.076 618.810 C 285.256 620.328,285.605 621.213,286.265 621.825 C 287.703 623.158,287.659 628.081,286.200 629.037 L 285.200 629.692 285.200 639.859 C 285.200 649.180,285.258 650.046,285.900 650.272 C 288.479 651.182,289.497 655.747,287.530 657.579 C 284.305 660.584,272.101 658.143,272.013 654.476 C 271.984 653.305,271.200 654.546,271.200 655.762 C 271.200 660.038,259.263 659.924,255.400 655.611 C 254.642 654.765,254.594 654.060,254.478 642.269 C 254.389 633.164,254.228 629.739,253.878 629.516 C 252.430 628.596,252.400 628.866,252.400 642.782 L 252.400 656.364 251.400 657.364 C 249.644 659.120,240.624 659.451,238.828 657.825 C 237.572 656.689,237.521 621.485,238.774 620.814 C 239.795 620.268,249.936 620.280,251.512 620.829 C 253.536 621.535,254.400 620.800,254.400 618.373 C 254.400 616.681,254.538 616.315,255.300 615.989 C 256.653 615.411,266.558 615.702,267.331 616.343 M135.646 621.145 C 136.171 621.555,136.994 622.013,137.475 622.164 C 138.225 622.399,139.131 623.301,141.247 625.919 C 141.965 626.806,142.397 628.882,142.472 631.797 C 142.530 634.063,142.573 634.232,142.695 632.679 C 142.787 631.499,143.065 630.673,143.414 630.539 C 143.745 630.412,144.095 629.476,144.250 628.306 C 144.410 627.105,144.817 626.036,145.259 625.657 C 145.666 625.308,146.000 624.858,146.000 624.657 C 146.000 624.170,147.892 622.438,148.953 621.953 C 149.419 621.740,150.250 621.306,150.800 620.989 C 152.221 620.169,162.182 620.170,163.600 620.990 C 164.150 621.308,165.048 621.800,165.595 622.084 C 168.234 623.453,170.062 626.306,170.411 629.600 C 170.562 631.030,170.712 631.714,170.743 631.120 C 170.774 630.526,171.059 629.895,171.376 629.717 C 171.693 629.540,172.131 628.600,172.349 627.629 C 172.567 626.657,173.028 625.704,173.373 625.511 C 173.718 625.318,174.000 624.933,174.000 624.655 C 174.000 624.113,175.810 622.295,176.800 621.843 C 177.130 621.692,177.850 621.308,178.400 620.990 C 180.467 619.795,192.800 620.335,192.800 621.621 C 192.800 621.782,193.205 622.016,193.700 622.143 C 194.515 622.350,195.004 622.757,197.311 625.144 C 197.701 625.548,198.177 626.671,198.367 627.640 L 198.712 629.400 198.813 628.000 C 198.869 627.230,198.869 625.363,198.813 623.851 C 198.686 620.393,198.652 620.414,204.424 620.406 C 210.483 620.398,210.555 620.450,210.743 625.004 L 210.885 628.472 211.643 627.226 C 212.121 626.440,212.400 625.238,212.400 623.964 C 212.400 620.478,212.521 620.400,217.925 620.400 C 224.303 620.400,224.218 620.328,224.648 626.092 L 224.985 630.600 225.192 626.532 C 225.490 620.693,225.807 620.400,231.821 620.400 C 235.329 620.400,236.411 620.531,236.803 621.004 C 237.457 621.791,237.155 629.690,236.438 630.554 C 236.113 630.945,235.800 634.012,235.527 639.475 C 235.263 644.755,234.907 648.293,234.555 649.149 C 234.250 649.891,234.000 651.834,234.000 653.467 C 234.000 658.250,232.750 658.989,225.078 658.737 C 219.996 658.571,219.419 658.213,219.014 654.977 C 218.644 652.008,217.200 652.788,217.200 655.957 C 217.200 658.219,216.151 658.600,209.925 658.600 C 203.439 658.600,203.200 658.472,203.200 655.004 C 203.200 653.880,202.981 652.741,202.714 652.474 C 202.422 652.182,202.124 650.113,201.968 647.294 C 201.794 644.133,201.496 642.208,201.057 641.400 C 200.623 640.601,200.391 639.131,200.363 637.000 C 200.339 635.240,200.176 633.350,200.000 632.800 C 199.589 631.518,199.578 631.618,199.445 637.800 C 199.148 651.618,197.927 654.781,191.800 657.609 C 189.182 658.817,180.777 658.990,179.175 657.868 C 178.651 657.500,177.947 657.195,177.611 657.188 C 176.251 657.162,172.687 653.015,172.227 650.924 C 172.074 650.226,171.690 649.441,171.374 649.179 C 171.058 648.917,170.778 648.319,170.750 647.851 C 170.723 647.383,170.565 647.922,170.400 649.049 C 169.073 658.106,154.535 662.124,147.667 655.332 C 145.695 653.382,144.401 651.306,144.395 650.082 C 144.386 648.386,143.958 647.200,143.353 647.200 C 143.049 647.200,142.774 646.975,142.741 646.700 C 142.709 646.425,142.561 647.529,142.412 649.154 C 142.222 651.223,141.940 652.255,141.471 652.598 C 141.102 652.868,140.800 653.279,140.800 653.513 C 140.800 654.185,137.577 656.768,135.600 657.681 C 131.759 659.455,123.482 658.678,120.521 656.266 C 119.007 655.032,116.400 652.235,116.398 651.842 C 116.396 651.599,116.081 650.860,115.698 650.200 C 113.842 647.008,114.915 627.624,117.081 625.200 C 117.376 624.870,117.986 624.106,118.436 623.503 C 120.633 620.555,132.763 618.893,135.646 621.145 M268.180 629.707 C 268.073 629.986,268.034 634.711,268.093 640.207 L 268.200 650.200 269.400 650.200 C 270.583 650.200,270.600 650.170,270.585 648.100 C 270.576 646.945,270.531 642.220,270.485 637.600 L 270.400 629.200 269.387 629.200 C 268.831 629.200,268.287 629.428,268.180 629.707 M157.600 639.376 C 157.600 645.125,157.745 648.400,158.000 648.400 C 158.237 648.400,158.400 646.954,158.400 644.862 C 158.400 640.063,158.483 639.996,164.431 640.013 C 169.059 640.026,170.392 640.390,170.406 641.644 C 170.411 642.089,170.490 642.080,170.800 641.600 C 171.238 640.922,171.265 636.721,170.842 635.200 C 170.606 634.354,170.522 634.308,170.294 634.900 C 170.057 635.517,169.409 635.600,164.845 635.600 C 158.299 635.600,158.400 635.641,158.400 632.981 C 158.400 631.807,158.220 630.736,158.000 630.600 C 157.738 630.438,157.600 633.463,157.600 639.376 M142.289 639.713 C 142.054 640.325,141.282 640.400,135.213 640.400 L 128.400 640.400 128.432 642.100 C 128.449 643.035,128.554 643.575,128.665 643.300 C 128.776 643.025,129.093 642.800,129.369 642.800 C 129.645 642.800,130.077 642.350,130.327 641.800 C 130.781 640.803,130.800 640.800,136.341 640.800 L 141.900 640.800 142.140 642.000 C 142.412 643.360,143.027 643.575,143.389 642.436 C 143.722 641.385,142.658 638.751,142.289 639.713 " stroke="none" fill="#6484a4" fill-rule="evenodd"></path><path id="path1" d="M0.000 377.400 L 0.000 754.800 200.000 754.800 L 400.000 754.800 400.000 377.400 L 400.000 0.000 200.000 0.000 L 0.000 0.000 0.000 377.400 M396.700 377.300 L 396.800 751.200 200.200 751.200 L 3.600 751.200 3.600 377.200 L 3.600 3.199 200.100 3.300 L 396.600 3.400 396.700 377.300 M343.079 523.454 C 342.661 523.872,342.742 534.800,343.163 534.800 C 343.460 534.800,344.004 531.342,343.949 529.800 C 343.941 529.580,343.905 528.230,343.868 526.800 L 343.800 524.200 346.000 523.965 L 348.200 523.730 346.333 523.665 C 345.306 523.629,344.216 523.504,343.912 523.388 C 343.607 523.271,343.233 523.301,343.079 523.454 M319.204 524.067 C 319.216 525.456,319.744 527.600,320.074 527.600 C 320.633 527.600,320.277 523.888,319.700 523.698 C 319.425 523.607,319.202 523.773,319.204 524.067 M326.234 524.363 C 325.193 525.513,325.515 527.760,326.746 527.934 C 328.159 528.134,328.535 527.497,328.225 525.430 C 327.927 523.442,327.348 523.132,326.234 524.363 M333.443 525.224 C 333.151 527.044,333.553 528.219,334.041 526.973 C 334.465 525.892,334.472 523.600,334.051 523.600 C 333.859 523.600,333.585 524.331,333.443 525.224 M338.243 524.233 C 337.824 525.323,337.965 534.800,338.400 534.800 C 338.648 534.800,338.800 532.667,338.800 529.200 C 338.800 523.681,338.722 522.984,338.243 524.233 M352.243 524.233 C 351.824 525.323,351.965 534.800,352.400 534.800 C 352.648 534.800,352.800 532.667,352.800 529.200 C 352.800 523.681,352.722 522.984,352.243 524.233 M64.333 528.847 C 64.029 535.365,64.853 539.459,65.296 533.633 C 65.384 532.471,65.610 532.191,66.800 531.764 C 68.053 531.314,68.093 531.258,67.180 531.230 C 65.688 531.186,65.200 530.474,65.200 528.344 C 65.200 525.289,64.479 525.707,64.333 528.847 M53.167 528.900 C 53.105 533.653,53.258 536.201,53.628 536.580 C 53.858 536.815,54.000 536.121,54.000 534.760 C 54.000 532.341,54.440 531.627,55.980 531.547 C 56.773 531.506,56.688 531.440,55.600 531.247 C 54.209 531.002,54.199 530.985,54.080 528.700 C 53.919 525.606,53.208 525.761,53.167 528.900 M321.228 530.251 C 321.151 535.881,324.113 536.767,324.939 531.362 C 325.255 529.294,324.764 528.725,324.174 530.477 C 323.482 532.536,322.545 532.394,321.847 530.126 L 321.256 528.200 321.228 530.251 M328.828 530.200 C 328.799 532.371,329.850 535.000,330.747 535.000 C 331.534 535.000,332.862 531.387,332.543 530.114 L 332.281 529.073 331.841 530.406 C 331.296 532.054,330.529 532.365,330.050 531.131 C 328.868 528.090,328.856 528.081,328.828 530.200 M57.736 532.978 C 57.881 533.356,58.000 533.921,58.000 534.233 C 58.000 534.545,58.192 534.800,58.427 534.800 C 59.052 534.800,58.699 532.694,58.036 532.476 C 57.641 532.346,57.551 532.496,57.736 532.978 M59.600 536.153 C 59.600 536.483,59.780 536.864,60.000 537.000 C 60.220 537.136,60.400 536.977,60.400 536.647 C 60.400 536.317,60.220 535.936,60.000 535.800 C 59.780 535.664,59.600 535.823,59.600 536.153 M240.100 613.459 C 239.453 613.728,239.437 617.277,240.080 617.920 C 240.399 618.239,242.141 618.400,245.272 618.400 C 250.586 618.400,250.608 618.385,250.328 614.962 L 250.200 613.400 245.400 613.326 C 242.760 613.285,240.375 613.345,240.100 613.459 M255.867 616.667 C 255.720 616.813,255.600 617.601,255.600 618.417 C 255.600 621.004,255.174 622.283,254.159 622.746 C 252.719 623.402,252.796 626.135,254.300 627.704 L 255.400 628.851 255.600 641.255 L 255.800 653.659 257.485 655.229 L 259.169 656.800 263.752 656.800 C 269.561 656.800,269.600 656.784,269.600 654.424 C 269.600 652.684,269.482 652.457,268.115 651.567 C 266.131 650.275,266.086 650.010,266.040 639.319 C 265.991 628.048,266.122 627.624,269.638 627.605 C 272.085 627.593,272.180 628.069,272.400 641.435 L 272.600 653.588 274.106 655.094 L 275.611 656.600 280.625 656.733 C 286.307 656.884,286.800 656.699,286.800 654.413 C 286.800 652.978,285.884 651.600,284.930 651.600 C 283.370 651.600,283.200 650.448,283.200 639.901 C 283.200 628.638,283.202 628.627,284.848 627.775 C 286.194 627.079,286.669 622.800,285.400 622.800 C 284.134 622.800,283.200 621.282,283.200 619.224 C 283.200 618.137,282.995 617.121,282.745 616.966 C 282.017 616.516,277.073 616.274,274.693 616.571 L 272.507 616.844 272.284 619.305 C 272.012 622.306,271.364 622.945,268.865 622.677 C 266.605 622.434,266.374 622.150,266.115 619.290 C 265.897 616.892,265.894 616.887,264.448 616.648 C 262.479 616.323,256.197 616.336,255.867 616.667 M124.800 621.524 C 121.870 622.342,119.164 624.420,117.932 626.800 C 116.626 629.323,116.477 648.817,117.746 651.200 C 120.001 655.435,122.515 656.600,129.400 656.600 C 137.477 656.600,141.061 653.634,141.514 646.575 C 141.774 642.532,141.621 642.390,137.051 642.440 C 131.349 642.502,131.437 642.445,131.200 646.216 C 130.973 649.830,130.731 650.400,129.425 650.400 C 127.797 650.400,127.566 649.622,127.687 644.543 L 127.800 639.800 134.600 639.600 L 141.400 639.400 141.362 634.600 C 141.307 627.779,139.573 624.454,135.000 622.409 C 132.902 621.470,126.869 620.947,124.800 621.524 M153.600 621.553 C 146.229 624.027,145.200 626.144,145.200 638.828 C 145.200 653.837,147.063 656.600,157.185 656.600 C 165.422 656.600,168.904 653.424,169.474 645.391 C 169.770 641.210,169.681 641.135,164.541 641.285 L 160.600 641.400 160.362 644.875 C 160.012 649.990,158.599 651.726,156.820 649.228 C 155.546 647.439,155.725 629.412,157.025 628.550 C 158.494 627.575,159.327 628.643,159.525 631.756 C 159.727 634.930,159.638 634.885,165.400 634.717 L 169.400 634.600 169.361 632.101 C 169.247 624.684,160.905 619.101,153.600 621.553 M181.200 621.527 C 174.379 623.410,173.000 626.416,173.000 639.400 C 173.000 654.575,174.388 656.563,185.000 656.587 C 192.409 656.604,194.697 655.449,196.836 650.612 C 198.000 647.980,198.226 630.471,197.128 627.971 C 194.943 622.995,187.212 619.867,181.200 621.527 M200.671 621.481 C 200.185 621.607,200.026 621.891,200.195 622.330 C 200.334 622.693,200.618 624.973,200.826 627.395 C 201.033 629.818,201.374 632.700,201.583 633.800 C 201.791 634.900,202.168 637.870,202.420 640.400 C 202.671 642.930,203.130 646.575,203.439 648.500 C 203.747 650.425,204.000 652.776,204.000 653.724 C 204.000 656.728,204.241 656.841,210.403 656.712 L 215.798 656.600 216.272 653.489 C 216.532 651.777,216.931 649.797,217.158 649.089 C 217.384 648.380,217.690 646.851,217.838 645.691 C 218.316 641.922,219.600 643.174,219.600 647.410 C 219.600 650.646,220.427 655.570,221.081 656.224 C 221.748 656.891,231.383 657.075,231.783 656.428 C 232.054 655.989,232.646 651.742,233.404 644.800 C 233.704 642.050,234.133 638.990,234.357 638.000 C 234.582 637.010,234.773 635.181,234.783 633.935 C 234.792 632.690,235.070 630.260,235.400 628.535 C 236.757 621.444,236.533 621.076,230.999 621.281 L 227.800 621.400 227.148 623.400 C 226.790 624.500,226.374 626.660,226.225 628.200 C 226.076 629.740,225.752 631.962,225.505 633.138 L 225.056 635.275 224.303 633.808 C 223.880 632.984,223.374 630.731,223.149 628.670 C 222.928 626.652,222.623 624.190,222.471 623.200 L 222.195 621.400 219.197 621.277 C 213.954 621.063,213.604 621.227,213.576 623.918 C 213.563 625.173,213.381 627.100,213.172 628.200 C 212.963 629.300,212.527 631.818,212.202 633.794 C 211.252 639.589,210.620 639.942,210.226 634.897 C 209.745 628.734,208.734 621.806,208.272 621.512 C 207.767 621.191,201.886 621.167,200.671 621.481 M240.100 621.459 C 239.711 621.621,239.600 625.516,239.600 639.026 L 239.600 656.385 240.500 656.609 C 240.995 656.732,243.380 656.780,245.800 656.716 L 250.200 656.600 250.200 639.000 L 250.200 621.400 245.400 621.326 C 242.760 621.285,240.375 621.345,240.100 621.459 M129.911 628.623 C 131.284 629.585,131.209 633.064,129.803 633.599 C 128.099 634.247,127.600 633.747,127.600 631.390 C 127.600 627.973,128.111 627.362,129.911 628.623 M186.600 639.395 C 186.600 651.122,186.481 651.681,184.425 649.625 C 183.638 648.838,183.600 648.362,183.600 639.233 C 183.600 628.372,183.610 628.309,185.351 628.478 L 186.600 628.600 186.600 639.395 " stroke="none" fill="#eaebeb" fill-rule="evenodd"></path><path id="path2" d="M163.400 474.235 C 161.200 474.302,150.040 474.557,138.600 474.802 C 127.160 475.046,115.883 475.417,113.541 475.627 C 111.199 475.836,104.359 476.192,98.341 476.418 C 92.323 476.644,86.410 476.989,85.200 477.185 C 83.990 477.381,81.470 477.554,79.600 477.570 C 77.730 477.585,73.950 477.858,71.200 478.177 C 68.450 478.495,64.040 478.961,61.400 479.211 C 58.760 479.462,55.756 479.922,54.725 480.234 C 53.694 480.545,52.139 480.800,51.271 480.800 C 49.213 480.800,44.076 483.371,41.366 485.756 C 36.180 490.321,36.079 499.401,41.184 502.052 C 42.183 502.570,43.270 503.207,43.600 503.467 C 44.735 504.361,54.667 506.609,60.044 507.189 C 62.330 507.435,66.630 507.924,69.600 508.275 C 72.570 508.626,77.790 509.048,81.200 509.214 C 84.610 509.380,90.010 509.711,93.200 509.950 C 113.895 511.502,134.577 511.996,189.200 512.239 C 237.971 512.457,274.332 511.943,291.400 510.795 C 294.040 510.617,298.630 510.454,301.600 510.432 C 304.570 510.411,309.250 510.126,312.000 509.800 C 314.750 509.474,318.620 509.197,320.600 509.186 C 322.580 509.174,325.550 508.996,327.200 508.789 C 328.850 508.582,332.900 508.131,336.200 507.787 C 345.265 506.841,352.388 505.663,353.886 504.861 C 354.360 504.607,355.272 504.400,355.914 504.400 C 359.621 504.400,363.073 498.800,362.661 493.454 C 362.347 489.378,361.078 486.229,359.481 485.557 C 358.866 485.299,358.109 484.598,357.800 484.000 C 357.491 483.402,356.644 482.692,355.919 482.423 C 355.193 482.154,354.293 481.772,353.917 481.574 C 353.542 481.377,352.462 481.110,351.517 480.982 C 350.573 480.853,348.720 480.502,347.400 480.200 C 345.074 479.668,343.437 479.484,329.800 478.217 C 317.997 477.120,312.656 476.757,303.045 476.399 C 297.790 476.202,290.680 475.849,287.245 475.614 C 272.946 474.634,183.029 473.632,163.400 474.235 " stroke="none" fill="#050506" fill-rule="evenodd"></path><path id="path3" d="M5.500 4.832 C 4.477 5.428,4.400 747.651,5.423 749.111 L 6.045 750.000 200.409 750.000 C 392.160 750.000,394.777 749.990,395.186 749.226 C 395.826 748.030,395.761 5.521,395.120 4.880 C 394.486 4.246,6.589 4.198,5.500 4.832 M394.600 376.800 L 394.600 748.200 201.200 748.309 C 94.830 748.369,7.395 748.321,6.900 748.201 L 6.000 747.985 6.005 377.492 C 6.008 173.722,6.120 6.595,6.252 6.100 L 6.494 5.199 200.547 5.300 L 394.600 5.400 394.600 376.800 M317.680 522.880 C 317.043 523.517,317.071 524.835,317.743 525.811 C 318.042 526.245,318.415 527.320,318.573 528.200 C 318.730 529.080,319.088 530.160,319.367 530.600 C 319.646 531.040,320.002 532.210,320.158 533.200 C 320.942 538.179,325.182 538.239,325.831 533.279 C 326.233 530.208,327.672 530.352,328.056 533.501 C 328.453 536.751,330.580 538.157,332.289 536.300 C 333.128 535.388,334.704 530.644,335.079 527.902 C 335.473 525.020,336.000 526.885,336.000 531.162 C 336.000 535.784,336.409 536.800,338.267 536.800 C 339.617 536.800,340.000 535.156,340.000 529.355 C 340.000 522.420,340.040 522.490,336.149 522.551 L 333.071 522.600 332.153 524.200 C 331.648 525.080,331.227 526.385,331.217 527.100 C 331.208 527.815,331.020 528.400,330.800 528.400 C 330.580 528.400,330.400 527.963,330.400 527.429 C 330.400 526.894,330.130 526.187,329.800 525.857 C 329.470 525.527,329.200 524.962,329.200 524.602 C 329.200 523.227,328.398 522.400,327.066 522.400 C 325.402 522.400,324.800 523.015,324.800 524.717 C 324.800 525.468,324.443 526.528,324.000 527.091 C 323.560 527.650,323.180 528.399,323.156 528.754 C 323.132 529.109,322.955 528.590,322.762 527.600 C 321.928 523.311,319.502 521.058,317.680 522.880 M341.500 522.951 C 340.211 523.940,340.474 534.754,341.818 536.017 C 343.337 537.444,344.148 536.736,344.400 533.759 L 344.600 531.400 346.000 531.292 C 348.703 531.084,349.200 530.848,349.200 529.772 C 349.200 528.712,347.368 527.600,345.620 527.600 C 345.091 527.600,344.728 527.251,344.560 526.581 C 344.230 525.270,344.158 525.310,347.200 525.143 L 349.800 525.000 349.876 530.142 C 349.939 534.365,350.075 535.420,350.638 536.042 C 351.622 537.130,352.977 537.008,353.536 535.781 C 354.093 534.558,354.172 524.269,353.632 523.260 C 353.141 522.341,342.643 522.075,341.500 522.951 M321.558 526.315 C 322.054 528.012,322.565 529.760,322.694 530.200 C 322.895 530.885,323.011 530.799,323.501 529.600 C 323.816 528.830,324.314 527.930,324.609 527.599 C 324.903 527.269,325.202 526.196,325.272 525.215 C 325.475 522.381,328.142 522.004,328.649 524.739 C 328.799 525.542,329.146 526.560,329.421 527.000 C 329.696 527.440,330.043 528.385,330.193 529.100 C 330.524 530.689,331.101 530.782,331.424 529.300 C 332.718 523.362,332.966 523.046,336.293 523.089 L 339.000 523.125 339.111 529.045 C 339.242 535.988,339.206 536.168,337.813 535.533 C 336.825 535.083,336.800 534.972,336.800 530.962 C 336.800 524.921,335.689 522.715,334.801 526.993 C 334.551 528.199,334.194 529.280,334.008 529.395 C 333.822 529.510,333.542 530.368,333.387 531.302 C 332.521 536.501,328.400 537.592,328.400 532.623 C 328.400 529.418,325.855 529.425,325.375 532.630 C 324.682 537.247,321.294 536.774,320.560 531.958 C 320.413 530.991,320.055 529.750,319.766 529.200 C 319.312 528.339,318.000 524.077,318.000 523.466 C 318.000 523.197,319.664 522.922,320.228 523.097 C 320.463 523.170,321.062 524.619,321.558 526.315 M348.708 523.228 C 349.529 523.514,350.397 523.528,351.330 523.270 C 353.446 522.686,353.600 523.082,353.600 529.106 C 353.600 535.186,353.310 536.215,351.792 535.524 C 350.730 535.040,350.477 533.376,350.738 528.600 C 350.798 527.500,350.740 526.022,350.609 525.316 L 350.370 524.033 347.685 524.266 C 344.266 524.563,343.761 525.003,344.238 527.276 C 344.589 528.949,344.653 529.006,346.369 529.200 C 348.801 529.475,349.042 530.400,346.682 530.400 C 344.503 530.400,344.087 530.855,343.926 533.410 C 343.819 535.091,343.676 535.400,343.000 535.400 C 341.999 535.400,341.514 523.755,342.489 523.137 C 343.228 522.668,347.271 522.727,348.708 523.228 M52.400 524.517 C 51.257 525.095,50.597 536.992,51.639 538.246 C 53.317 540.269,55.184 538.612,55.195 535.091 L 55.200 533.182 56.200 533.837 C 56.750 534.197,57.200 534.777,57.200 535.125 C 57.200 537.416,60.460 539.777,62.120 538.689 C 62.881 538.191,63.155 538.178,63.750 538.613 C 65.197 539.671,66.800 538.606,66.800 536.587 C 66.800 533.651,67.327 532.800,69.147 532.800 C 70.226 532.800,70.792 532.597,70.964 532.149 C 71.333 531.189,70.474 530.401,69.051 530.394 C 66.142 530.380,65.960 528.518,68.800 527.834 C 72.657 526.904,71.257 524.000,66.952 524.000 C 64.101 524.000,63.432 524.440,63.030 526.580 C 62.725 528.208,61.860 528.449,61.164 527.100 C 59.690 524.242,55.429 522.986,52.400 524.517 M59.643 526.241 C 61.091 527.628,61.285 530.112,60.000 530.800 C 59.551 531.040,59.200 531.638,59.200 532.160 C 59.200 532.673,59.560 533.550,60.000 534.109 C 60.440 534.669,60.800 535.295,60.800 535.502 C 60.800 535.709,61.156 536.288,61.592 536.790 C 62.568 537.916,62.317 538.400,60.757 538.400 C 59.840 538.400,59.446 538.144,59.065 537.300 C 56.556 531.740,54.400 531.232,54.400 536.202 C 54.400 538.172,53.989 538.637,52.808 538.004 C 51.495 537.302,51.575 526.354,52.900 525.392 C 54.348 524.341,58.160 524.821,59.643 526.241 M69.525 525.700 C 69.608 526.134,69.412 526.400,69.009 526.400 C 65.980 526.400,64.653 530.072,67.500 530.577 C 70.202 531.056,70.494 531.204,69.972 531.834 C 69.714 532.145,68.999 532.400,68.384 532.400 C 66.299 532.400,66.000 532.722,66.000 534.966 C 66.000 537.488,65.222 538.848,64.243 538.036 C 63.411 537.345,63.290 526.890,64.100 525.580 C 64.784 524.475,69.311 524.575,69.525 525.700 M54.790 527.826 C 53.700 530.694,56.278 532.001,58.125 529.517 L 58.931 528.434 57.965 527.630 C 56.589 526.485,55.269 526.566,54.790 527.826 M57.600 528.426 C 57.600 529.341,56.734 530.400,55.986 530.400 C 55.379 530.400,55.200 530.126,55.200 529.200 C 55.200 528.133,55.333 528.000,56.400 528.000 C 57.060 528.000,57.600 528.192,57.600 528.426 M62.947 530.724 C 63.348 533.148,63.235 534.673,62.618 535.185 C 61.943 535.745,61.200 535.419,61.200 534.564 C 61.200 534.240,60.930 533.871,60.600 533.745 C 59.843 533.454,59.818 531.849,60.561 531.233 C 60.869 530.977,61.231 530.331,61.365 529.798 C 61.715 528.401,62.654 528.951,62.947 530.724 M238.657 612.509 C 237.454 613.388,237.875 618.810,239.200 619.500 C 241.127 620.503,250.705 620.007,251.636 618.856 C 253.010 617.158,252.710 613.778,251.100 612.796 C 249.504 611.822,239.899 611.601,238.657 612.509 M250.720 613.280 C 251.309 613.869,251.353 617.366,250.786 618.426 C 250.205 619.511,240.711 619.606,239.531 618.538 C 238.674 617.762,238.497 614.063,239.280 613.280 C 239.946 612.614,250.054 612.614,250.720 613.280 M258.316 615.897 C 259.699 615.975,261.859 615.974,263.116 615.895 C 264.372 615.816,263.240 615.752,260.600 615.753 C 257.960 615.753,256.932 615.818,258.316 615.897 M275.300 615.896 C 276.565 615.975,278.635 615.975,279.900 615.896 C 281.165 615.816,280.130 615.751,277.600 615.751 C 275.070 615.751,274.035 615.816,275.300 615.896 M254.667 616.267 C 254.520 616.413,254.400 617.397,254.400 618.453 C 254.400 620.795,253.511 621.526,251.512 620.829 C 249.936 620.280,239.795 620.268,238.774 620.814 C 237.521 621.485,237.572 656.689,238.828 657.825 C 240.624 659.451,249.644 659.120,251.400 657.364 L 252.400 656.364 252.400 642.782 C 252.400 628.866,252.430 628.596,253.878 629.516 C 254.228 629.739,254.389 633.164,254.478 642.269 C 254.615 656.247,254.422 655.361,257.800 657.532 C 259.297 658.494,259.725 658.561,264.456 658.580 C 270.238 658.603,271.200 658.201,271.200 655.762 C 271.200 654.546,271.984 653.305,272.013 654.476 C 272.101 658.143,284.305 660.584,287.530 657.579 C 289.497 655.747,288.479 651.182,285.900 650.272 C 285.258 650.046,285.200 649.180,285.200 639.859 L 285.200 629.692 286.200 629.037 C 287.659 628.081,287.703 623.158,286.265 621.825 C 285.605 621.213,285.256 620.328,285.076 618.810 C 284.824 616.685,284.368 616.007,283.200 616.018 C 282.730 616.023,282.752 616.113,283.300 616.432 C 283.831 616.741,284.000 617.365,284.000 619.011 C 284.000 620.943,284.121 621.259,285.100 621.882 C 286.644 622.864,286.787 623.154,286.794 625.318 C 286.800 627.213,285.584 629.200,284.418 629.200 C 284.138 629.200,284.000 632.611,284.000 639.532 L 284.000 649.864 285.800 651.157 C 287.511 652.386,287.600 652.546,287.600 654.402 C 287.600 657.211,286.889 657.603,281.811 657.590 C 272.067 657.567,271.693 656.939,271.332 640.000 C 271.087 628.462,271.017 628.144,268.835 628.664 C 266.786 629.152,266.800 629.082,266.800 639.023 C 266.800 649.426,266.901 649.949,269.184 651.390 C 270.972 652.519,271.458 654.948,270.232 656.624 C 269.348 657.831,259.382 657.792,257.753 656.575 C 254.950 654.481,255.012 654.809,254.883 641.387 L 254.767 629.231 253.483 628.335 C 250.625 626.339,250.746 622.931,253.702 622.189 C 254.751 621.925,254.800 621.804,254.800 619.437 C 254.800 618.044,255.010 616.750,255.280 616.480 C 255.567 616.193,255.594 616.000,255.347 616.000 C 255.119 616.000,254.813 616.120,254.667 616.267 M266.100 616.432 C 266.592 616.719,266.800 617.342,266.800 618.531 C 266.800 622.362,270.885 623.757,271.105 620.000 C 271.264 617.302,271.528 616.478,272.300 616.276 C 272.856 616.131,272.825 616.083,272.149 616.046 C 270.935 615.980,270.469 616.737,270.326 619.010 C 270.211 620.833,270.116 621.000,269.200 621.000 C 268.284 621.000,268.189 620.833,268.074 619.010 C 267.932 616.748,267.474 615.995,266.251 616.012 C 265.481 616.023,265.466 616.063,266.100 616.432 M121.327 621.407 C 120.187 621.956,118.886 622.899,118.436 623.503 C 117.986 624.106,117.376 624.870,117.081 625.200 C 114.915 627.624,113.842 647.008,115.698 650.200 C 116.081 650.860,116.396 651.599,116.398 651.842 C 116.400 652.235,119.007 655.032,120.521 656.266 C 123.482 658.678,131.759 659.455,135.600 657.681 C 137.577 656.768,140.800 654.185,140.800 653.513 C 140.800 653.279,141.102 652.868,141.471 652.598 C 141.940 652.255,142.222 651.223,142.412 649.154 C 142.561 647.529,142.709 646.425,142.741 646.700 C 142.774 646.975,143.049 647.200,143.353 647.200 C 143.958 647.200,144.386 648.386,144.395 650.082 C 144.401 651.306,145.695 653.382,147.667 655.332 C 154.535 662.124,169.073 658.106,170.400 649.049 C 170.565 647.922,170.723 647.383,170.750 647.851 C 170.778 648.319,171.058 648.917,171.374 649.179 C 171.690 649.441,172.074 650.226,172.227 650.924 C 172.687 653.015,176.251 657.162,177.611 657.188 C 177.947 657.195,178.651 657.500,179.175 657.868 C 180.777 658.990,189.182 658.817,191.800 657.609 C 197.927 654.781,199.148 651.618,199.445 637.800 C 199.578 631.618,199.589 631.518,200.000 632.800 C 200.176 633.350,200.339 635.240,200.363 637.000 C 200.391 639.131,200.623 640.601,201.057 641.400 C 201.496 642.208,201.794 644.133,201.968 647.294 C 202.124 650.113,202.422 652.182,202.714 652.474 C 202.981 652.741,203.200 653.880,203.200 655.004 C 203.200 658.472,203.439 658.600,209.925 658.600 C 216.151 658.600,217.200 658.219,217.200 655.957 C 217.200 652.788,218.644 652.008,219.014 654.977 C 219.419 658.213,219.996 658.571,225.078 658.737 C 232.750 658.989,234.000 658.250,234.000 653.467 C 234.000 651.823,234.251 649.896,234.562 649.149 C 234.927 648.273,235.196 645.554,235.330 641.400 C 235.474 636.934,235.431 635.725,235.187 637.400 C 234.655 641.063,233.666 649.433,233.359 652.885 C 232.946 657.519,232.661 657.700,226.058 657.533 C 219.710 657.371,220.013 657.627,219.160 651.698 C 218.788 649.114,218.465 647.633,218.442 648.406 C 218.419 649.179,218.040 650.484,217.600 651.304 C 217.151 652.141,216.800 653.561,216.800 654.537 C 216.800 657.350,216.254 657.600,210.097 657.600 C 203.883 657.600,203.600 657.453,203.600 654.222 C 203.600 653.055,203.330 651.335,203.000 650.400 C 202.670 649.465,202.389 647.687,202.376 646.450 C 202.363 645.212,202.188 643.300,201.988 642.200 C 201.787 641.100,201.251 637.050,200.796 633.200 C 200.342 629.350,199.796 625.210,199.583 624.000 C 199.062 621.037,199.424 620.800,204.476 620.800 C 209.159 620.800,209.983 621.290,210.027 624.100 C 210.065 626.582,211.102 634.472,211.155 632.687 C 211.180 631.855,211.489 630.505,211.842 629.687 C 212.195 628.869,212.646 626.680,212.844 624.822 C 213.046 622.934,213.424 621.305,213.702 621.128 C 214.553 620.588,222.252 620.735,222.691 621.300 C 223.184 621.933,223.999 626.078,224.002 627.967 C 224.005 629.545,224.745 632.588,225.052 632.281 C 225.159 632.175,225.388 630.313,225.561 628.144 C 225.760 625.657,226.159 623.609,226.641 622.600 L 227.406 621.000 231.760 621.000 C 237.185 621.000,237.163 620.978,236.445 625.874 C 236.161 627.813,235.874 630.390,235.807 631.600 C 235.740 632.810,235.771 633.171,235.875 632.402 C 235.980 631.632,236.261 630.768,236.499 630.480 C 237.164 629.679,237.419 621.746,236.803 621.004 C 236.411 620.531,235.329 620.400,231.821 620.400 C 225.807 620.400,225.490 620.693,225.192 626.532 L 224.985 630.600 224.648 626.092 C 224.218 620.328,224.303 620.400,217.925 620.400 C 212.521 620.400,212.400 620.478,212.400 623.964 C 212.400 625.238,212.121 626.440,211.643 627.226 L 210.885 628.472 210.743 625.004 C 210.555 620.450,210.483 620.398,204.424 620.406 C 198.652 620.414,198.686 620.393,198.813 623.851 C 198.869 625.363,198.869 627.230,198.813 628.000 L 198.712 629.400 198.367 627.640 C 198.177 626.671,197.701 625.548,197.311 625.144 C 195.004 622.757,194.515 622.350,193.700 622.143 C 193.205 622.016,192.800 621.782,192.800 621.621 C 192.800 620.335,180.467 619.795,178.400 620.990 C 177.850 621.308,177.130 621.692,176.800 621.843 C 175.810 622.295,174.000 624.113,174.000 624.655 C 174.000 624.933,173.718 625.318,173.373 625.511 C 173.028 625.704,172.567 626.657,172.349 627.629 C 172.131 628.600,171.693 629.540,171.376 629.717 C 171.059 629.895,170.774 630.526,170.743 631.120 C 170.712 631.714,170.562 631.030,170.411 629.600 C 170.062 626.306,168.234 623.453,165.595 622.084 C 165.048 621.800,164.150 621.308,163.600 620.990 C 162.182 620.170,152.221 620.169,150.800 620.989 C 150.250 621.306,149.419 621.740,148.953 621.953 C 147.892 622.438,146.000 624.170,146.000 624.657 C 146.000 624.858,145.666 625.308,145.259 625.657 C 144.817 626.036,144.410 627.105,144.250 628.306 C 144.095 629.476,143.745 630.412,143.414 630.539 C 143.065 630.673,142.787 631.499,142.695 632.679 C 142.573 634.232,142.530 634.063,142.472 631.797 C 142.397 628.882,141.965 626.806,141.247 625.919 C 139.131 623.301,138.225 622.399,137.475 622.164 C 136.994 622.013,136.171 621.555,135.646 621.145 C 134.025 619.879,124.125 620.060,121.327 621.407 M135.422 621.828 C 140.520 624.240,142.073 627.310,141.912 634.663 L 141.800 639.800 135.000 640.000 L 128.200 640.200 128.200 644.600 L 128.200 649.000 129.200 649.000 C 130.161 649.000,130.208 648.883,130.400 645.959 C 130.684 641.641,130.741 641.600,136.435 641.600 C 142.191 641.600,142.139 641.550,141.937 646.943 C 141.649 654.624,137.221 657.942,127.826 657.516 C 123.541 657.321,122.537 656.984,119.832 654.828 C 118.323 653.626,117.820 652.972,116.735 650.800 C 116.083 649.494,115.772 632.213,116.345 629.113 C 117.649 622.059,127.753 618.200,135.422 621.828 M163.400 621.742 C 168.013 623.896,170.112 627.213,169.919 632.043 L 169.800 635.000 164.856 635.113 C 158.989 635.246,158.877 635.188,158.718 631.870 C 158.592 629.238,157.576 628.144,157.057 630.081 C 156.596 631.802,156.772 647.501,157.264 648.581 C 158.301 650.857,159.200 649.120,159.200 644.840 C 159.200 640.855,159.278 640.800,164.894 640.800 C 170.022 640.800,170.000 640.780,170.000 645.291 C 170.000 653.877,165.162 657.975,155.572 657.513 C 146.417 657.072,144.600 653.941,144.600 638.600 L 144.600 628.200 145.659 626.400 C 148.683 621.255,157.437 618.957,163.400 621.742 M191.600 621.722 C 197.494 624.658,198.444 626.905,198.485 638.000 C 198.547 654.471,195.789 658.082,183.591 657.504 C 174.590 657.078,172.367 654.082,172.077 641.991 C 171.746 628.188,172.940 624.582,178.790 621.713 C 181.461 620.403,188.963 620.408,191.600 621.722 M250.720 621.280 C 251.538 622.098,251.396 656.147,250.571 656.971 C 250.068 657.475,248.960 657.600,245.000 657.600 C 241.040 657.600,239.932 657.475,239.429 656.971 C 238.604 656.147,238.462 622.098,239.280 621.280 C 239.946 620.614,250.054 620.614,250.720 621.280 M128.000 630.949 C 128.000 632.874,128.332 633.354,129.384 632.951 C 130.476 632.532,130.069 629.438,128.900 629.272 C 128.081 629.156,128.000 629.306,128.000 630.949 M184.195 630.100 C 183.459 633.101,184.203 648.510,185.100 648.842 L 186.000 649.174 186.000 639.187 C 186.000 629.499,185.976 629.200,185.208 629.200 C 184.718 629.200,184.331 629.544,184.195 630.100 M270.485 637.600 C 270.531 642.220,270.576 646.945,270.585 648.100 C 270.600 650.170,270.583 650.200,269.400 650.200 L 268.200 650.200 268.093 640.207 C 267.974 629.121,267.965 629.200,269.387 629.200 L 270.400 629.200 270.485 637.600 M158.400 632.981 C 158.400 635.641,158.299 635.600,164.845 635.600 C 169.409 635.600,170.057 635.517,170.294 634.900 C 170.522 634.308,170.606 634.354,170.842 635.200 C 171.265 636.721,171.238 640.922,170.800 641.600 C 170.490 642.080,170.411 642.089,170.406 641.644 C 170.392 640.390,169.059 640.026,164.431 640.013 C 158.483 639.996,158.400 640.063,158.400 644.862 C 158.400 646.954,158.237 648.400,158.000 648.400 C 157.745 648.400,157.600 645.125,157.600 639.376 C 157.600 633.463,157.738 630.438,158.000 630.600 C 158.220 630.736,158.400 631.807,158.400 632.981 M143.389 642.436 C 143.027 643.575,142.412 643.360,142.140 642.000 L 141.900 640.800 136.341 640.800 C 130.800 640.800,130.781 640.803,130.327 641.800 C 130.077 642.350,129.645 642.800,129.369 642.800 C 129.093 642.800,128.776 643.025,128.665 643.300 C 128.554 643.575,128.449 643.035,128.432 642.100 L 128.400 640.400 135.213 640.400 C 141.282 640.400,142.054 640.325,142.289 639.713 C 142.658 638.751,143.722 641.385,143.389 642.436 " stroke="none" fill="#8ea1b6" fill-rule="evenodd"></path><path id="path4" d="M3.600 377.200 L 3.600 751.200 200.200 751.200 L 396.800 751.200 396.700 377.300 L 396.600 3.400 200.100 3.300 L 3.600 3.199 3.600 377.200 M395.120 4.880 C 395.761 5.521,395.826 748.030,395.186 749.226 C 394.777 749.990,392.160 750.000,200.409 750.000 L 6.045 750.000 5.423 749.111 C 4.400 747.651,4.477 5.428,5.500 4.832 C 6.589 4.198,394.486 4.246,395.120 4.880 M318.900 523.110 C 318.405 523.190,318.000 523.350,318.000 523.466 C 318.000 524.077,319.312 528.339,319.766 529.200 C 320.055 529.750,320.413 530.991,320.560 531.958 C 321.294 536.774,324.682 537.247,325.375 532.630 C 325.855 529.425,328.400 529.418,328.400 532.623 C 328.400 537.592,332.521 536.501,333.387 531.302 C 333.542 530.368,333.822 529.510,334.008 529.395 C 334.194 529.280,334.551 528.199,334.801 526.993 C 335.689 522.715,336.800 524.921,336.800 530.962 C 336.800 534.972,336.825 535.083,337.813 535.533 C 339.206 536.168,339.242 535.988,339.111 529.045 L 339.000 523.125 336.293 523.089 C 332.966 523.046,332.718 523.362,331.424 529.300 C 331.101 530.782,330.524 530.689,330.193 529.100 C 330.043 528.385,329.696 527.440,329.421 527.000 C 329.146 526.560,328.799 525.542,328.649 524.739 C 328.142 522.004,325.475 522.381,325.272 525.215 C 325.202 526.196,324.903 527.269,324.609 527.599 C 324.314 527.930,323.816 528.830,323.501 529.600 C 323.011 530.799,322.895 530.885,322.694 530.200 C 322.565 529.760,322.054 528.012,321.558 526.315 C 320.624 523.122,320.411 522.865,318.900 523.110 M342.489 523.137 C 341.514 523.755,341.999 535.400,343.000 535.400 C 343.676 535.400,343.819 535.091,343.926 533.410 C 344.087 530.855,344.503 530.400,346.682 530.400 C 349.042 530.400,348.801 529.475,346.369 529.200 C 344.653 529.006,344.589 528.949,344.238 527.276 C 343.761 525.003,344.266 524.563,347.685 524.266 L 350.370 524.033 350.609 525.316 C 350.740 526.022,350.798 527.500,350.738 528.600 C 350.477 533.376,350.730 535.040,351.792 535.524 C 353.310 536.215,353.600 535.186,353.600 529.106 C 353.600 523.082,353.446 522.686,351.330 523.270 C 350.397 523.528,349.529 523.514,348.708 523.228 C 347.271 522.727,343.228 522.668,342.489 523.137 M346.333 523.665 L 348.200 523.730 346.000 523.965 L 343.800 524.200 343.868 526.800 C 343.905 528.230,343.941 529.580,343.949 529.800 C 344.004 531.342,343.460 534.800,343.163 534.800 C 342.742 534.800,342.661 523.872,343.079 523.454 C 343.233 523.301,343.607 523.271,343.912 523.388 C 344.216 523.504,345.306 523.629,346.333 523.665 M320.322 525.731 C 320.467 527.959,319.810 528.239,319.457 526.100 C 319.098 523.928,319.140 523.513,319.700 523.698 C 319.979 523.790,320.254 524.687,320.322 525.731 M328.225 525.430 C 328.535 527.497,328.159 528.134,326.746 527.934 C 324.913 527.675,325.563 523.600,327.437 523.600 C 327.741 523.600,328.063 524.350,328.225 525.430 M334.372 524.900 C 334.336 526.577,333.833 527.900,333.460 527.298 C 333.099 526.714,333.597 523.600,334.051 523.600 C 334.243 523.600,334.387 524.185,334.372 524.900 M338.800 529.200 C 338.800 532.667,338.648 534.800,338.400 534.800 C 337.965 534.800,337.824 525.323,338.243 524.233 C 338.722 522.984,338.800 523.681,338.800 529.200 M352.800 529.200 C 352.800 532.667,352.648 534.800,352.400 534.800 C 351.965 534.800,351.824 525.323,352.243 524.233 C 352.722 522.984,352.800 523.681,352.800 529.200 M52.900 525.392 C 51.575 526.354,51.495 537.302,52.808 538.004 C 53.989 538.637,54.400 538.172,54.400 536.202 C 54.400 531.232,56.556 531.740,59.065 537.300 C 59.446 538.144,59.840 538.400,60.757 538.400 C 62.317 538.400,62.568 537.916,61.592 536.790 C 61.156 536.288,60.800 535.709,60.800 535.502 C 60.800 535.295,60.440 534.669,60.000 534.109 C 59.560 533.550,59.200 532.673,59.200 532.160 C 59.200 531.638,59.551 531.040,60.000 530.800 C 61.285 530.112,61.091 527.628,59.643 526.241 C 58.160 524.821,54.348 524.341,52.900 525.392 M64.100 525.580 C 63.290 526.890,63.411 537.345,64.243 538.036 C 65.222 538.848,66.000 537.488,66.000 534.966 C 66.000 532.722,66.299 532.400,68.384 532.400 C 68.999 532.400,69.714 532.145,69.972 531.834 C 70.494 531.204,70.202 531.056,67.500 530.577 C 64.653 530.072,65.980 526.400,69.009 526.400 C 69.412 526.400,69.608 526.134,69.525 525.700 C 69.311 524.575,64.784 524.475,64.100 525.580 M65.200 528.344 C 65.200 530.474,65.688 531.186,67.180 531.230 C 68.093 531.258,68.053 531.314,66.800 531.764 C 65.610 532.191,65.384 532.471,65.296 533.633 C 64.853 539.459,64.029 535.365,64.333 528.847 C 64.479 525.707,65.200 525.289,65.200 528.344 M54.080 528.700 C 54.199 530.985,54.209 531.002,55.600 531.247 C 56.688 531.440,56.773 531.506,55.980 531.547 C 54.440 531.627,54.000 532.341,54.000 534.760 C 54.000 537.764,53.274 536.898,53.195 533.800 C 53.073 528.995,53.208 526.400,53.580 526.400 C 53.789 526.400,54.014 527.435,54.080 528.700 M57.965 527.630 L 58.931 528.434 58.125 529.517 C 56.278 532.001,53.700 530.694,54.790 527.826 C 55.269 526.566,56.589 526.485,57.965 527.630 M323.084 531.926 C 323.439 531.857,323.930 531.204,324.174 530.477 C 324.764 528.725,325.255 529.294,324.939 531.362 C 324.113 536.767,321.151 535.881,321.228 530.251 L 321.256 528.200 321.847 530.126 C 322.272 531.508,322.621 532.016,323.084 531.926 M330.050 531.131 C 330.529 532.365,331.296 532.054,331.841 530.406 L 332.281 529.073 332.543 530.114 C 332.862 531.387,331.534 535.000,330.747 535.000 C 329.850 535.000,328.799 532.371,328.828 530.200 C 328.856 528.081,328.868 528.090,330.050 531.131 M58.727 533.731 C 58.796 534.319,58.661 534.800,58.427 534.800 C 58.192 534.800,58.000 534.545,58.000 534.233 C 58.000 533.921,57.881 533.356,57.736 532.978 C 57.551 532.496,57.641 532.346,58.036 532.476 C 58.346 532.578,58.657 533.143,58.727 533.731 M60.400 536.647 C 60.400 536.977,60.220 537.136,60.000 537.000 C 59.780 536.864,59.600 536.483,59.600 536.153 C 59.600 535.823,59.780 535.664,60.000 535.800 C 60.220 535.936,60.400 536.317,60.400 536.647 M239.280 613.280 C 238.497 614.063,238.674 617.762,239.531 618.538 C 240.711 619.606,250.205 619.511,250.786 618.426 C 251.353 617.366,251.309 613.869,250.720 613.280 C 250.054 612.614,239.946 612.614,239.280 613.280 M250.328 614.962 C 250.608 618.385,250.586 618.400,245.272 618.400 C 239.860 618.400,239.600 618.269,239.600 615.553 C 239.600 613.206,239.527 613.234,245.400 613.326 L 250.200 613.400 250.328 614.962 M255.280 616.480 C 255.010 616.750,254.800 618.044,254.800 619.437 C 254.800 621.804,254.751 621.925,253.702 622.189 C 250.746 622.931,250.625 626.339,253.483 628.335 L 254.767 629.231 254.883 641.387 C 255.012 654.809,254.950 654.481,257.753 656.575 C 259.382 657.792,269.348 657.831,270.232 656.624 C 271.458 654.948,270.972 652.519,269.184 651.390 C 266.901 649.949,266.800 649.426,266.800 639.023 C 266.800 629.082,266.786 629.152,268.835 628.664 C 271.017 628.144,271.087 628.462,271.332 640.000 C 271.693 656.939,272.067 657.567,281.811 657.590 C 286.889 657.603,287.600 657.211,287.600 654.402 C 287.600 652.546,287.511 652.386,285.800 651.157 L 284.000 649.864 284.000 639.532 C 284.000 632.611,284.138 629.200,284.418 629.200 C 285.584 629.200,286.800 627.213,286.794 625.318 C 286.787 623.154,286.644 622.864,285.100 621.882 C 284.121 621.258,284.000 620.943,284.000 619.005 C 284.000 616.059,283.641 615.904,277.200 616.069 C 271.263 616.220,271.461 616.112,271.200 619.333 L 271.000 621.800 269.538 621.922 C 267.698 622.075,266.800 620.961,266.800 618.525 C 266.800 617.257,266.605 616.724,266.026 616.414 C 264.915 615.819,255.885 615.875,255.280 616.480 M264.448 616.648 C 265.894 616.887,265.897 616.892,266.115 619.290 C 266.374 622.150,266.605 622.434,268.865 622.677 C 271.364 622.945,272.012 622.306,272.284 619.305 L 272.507 616.844 274.693 616.571 C 277.073 616.274,282.017 616.516,282.745 616.966 C 282.995 617.121,283.200 618.137,283.200 619.224 C 283.200 621.282,284.134 622.800,285.400 622.800 C 286.669 622.800,286.194 627.079,284.848 627.775 C 283.202 628.627,283.200 628.638,283.200 639.901 C 283.200 650.448,283.370 651.600,284.930 651.600 C 285.884 651.600,286.800 652.978,286.800 654.413 C 286.800 656.699,286.307 656.884,280.625 656.733 L 275.611 656.600 274.106 655.094 L 272.600 653.588 272.400 641.435 C 272.180 628.069,272.085 627.593,269.638 627.605 C 266.122 627.624,265.991 628.048,266.040 639.319 C 266.086 650.010,266.131 650.275,268.115 651.567 C 269.482 652.457,269.600 652.684,269.600 654.424 C 269.600 656.784,269.561 656.800,263.752 656.800 L 259.169 656.800 257.485 655.229 L 255.800 653.659 255.600 641.255 L 255.400 628.851 254.300 627.704 C 252.796 626.135,252.719 623.402,254.159 622.746 C 255.174 622.283,255.600 621.004,255.600 618.417 C 255.600 617.601,255.720 616.813,255.867 616.667 C 256.197 616.336,262.479 616.323,264.448 616.648 M122.400 621.733 C 116.537 624.566,115.860 626.584,116.086 640.561 C 116.234 649.707,116.299 650.183,117.749 652.689 C 121.662 659.455,135.826 659.444,140.400 652.673 C 141.706 650.740,141.809 650.353,141.937 646.943 C 142.139 641.550,142.191 641.600,136.435 641.600 C 130.741 641.600,130.684 641.641,130.400 645.959 C 130.208 648.883,130.161 649.000,129.200 649.000 L 128.200 649.000 128.200 644.600 L 128.200 640.200 135.000 640.000 L 141.800 639.800 141.912 634.663 C 142.073 627.310,140.520 624.240,135.422 621.828 C 132.426 620.410,125.245 620.358,122.400 621.733 M150.616 622.019 C 147.690 623.503,147.007 624.107,145.659 626.400 L 144.600 628.200 144.600 638.600 C 144.600 653.941,146.417 657.072,155.572 657.513 C 165.162 657.975,170.000 653.877,170.000 645.291 C 170.000 640.780,170.022 640.800,164.894 640.800 C 159.278 640.800,159.200 640.855,159.200 644.840 C 159.200 649.120,158.301 650.857,157.264 648.581 C 156.772 647.501,156.596 631.802,157.057 630.081 C 157.576 628.144,158.592 629.238,158.718 631.870 C 158.877 635.188,158.989 635.246,164.856 635.113 L 169.800 635.000 169.919 632.043 C 170.277 623.106,159.505 617.512,150.616 622.019 M178.790 621.713 C 172.940 624.582,171.746 628.188,172.077 641.991 C 172.367 654.082,174.590 657.078,183.591 657.504 C 195.789 658.082,198.547 654.471,198.485 638.000 C 198.444 626.905,197.494 624.658,191.600 621.722 C 188.963 620.408,181.461 620.403,178.790 621.713 M199.875 621.300 C 199.291 621.730,199.250 622.108,199.583 624.000 C 199.796 625.210,200.342 629.350,200.796 633.200 C 201.251 637.050,201.787 641.100,201.988 642.200 C 202.188 643.300,202.363 645.212,202.376 646.450 C 202.389 647.687,202.670 649.465,203.000 650.400 C 203.330 651.335,203.600 653.055,203.600 654.222 C 203.600 657.458,203.875 657.600,210.167 657.600 C 216.290 657.600,216.800 657.359,216.800 654.467 C 216.800 653.549,217.160 652.125,217.600 651.304 C 218.040 650.484,218.419 649.179,218.442 648.406 C 218.465 647.633,218.788 649.114,219.160 651.698 C 220.013 657.627,219.710 657.371,226.058 657.533 C 232.661 657.700,232.946 657.519,233.359 652.885 C 233.510 651.188,233.905 647.550,234.235 644.800 C 234.566 642.050,235.012 637.820,235.225 635.400 C 235.438 632.980,235.794 630.219,236.015 629.264 C 237.761 621.714,237.235 620.728,231.544 620.886 L 227.404 621.000 226.640 622.600 C 226.159 623.607,225.759 625.661,225.561 628.144 C 225.388 630.313,225.159 632.175,225.052 632.281 C 224.745 632.588,224.005 629.545,224.002 627.967 C 223.999 626.078,223.184 621.933,222.691 621.300 C 222.252 620.735,214.553 620.588,213.702 621.128 C 213.424 621.305,213.046 622.934,212.844 624.822 C 212.646 626.680,212.195 628.869,211.842 629.687 C 211.489 630.505,211.180 631.855,211.155 632.687 C 211.102 634.472,210.065 626.582,210.027 624.100 C 209.983 621.290,209.159 620.800,204.476 620.800 C 201.966 620.800,200.309 620.980,199.875 621.300 M239.280 621.280 C 238.462 622.098,238.604 656.147,239.429 656.971 C 239.932 657.475,241.040 657.600,245.000 657.600 C 248.960 657.600,250.068 657.475,250.571 656.971 C 251.396 656.147,251.538 622.098,250.720 621.280 C 250.054 620.614,239.946 620.614,239.280 621.280 M135.000 622.409 C 139.573 624.454,141.307 627.779,141.362 634.600 L 141.400 639.400 134.600 639.600 L 127.800 639.800 127.687 644.543 C 127.566 649.622,127.797 650.400,129.425 650.400 C 130.731 650.400,130.973 649.830,131.200 646.216 C 131.437 642.445,131.349 642.502,137.051 642.440 C 141.621 642.390,141.774 642.532,141.514 646.575 C 141.061 653.634,137.477 656.600,129.400 656.600 C 122.515 656.600,120.001 655.435,117.746 651.200 C 116.477 648.817,116.626 629.323,117.932 626.800 C 120.553 621.737,128.772 619.622,135.000 622.409 M163.400 622.526 C 167.231 624.438,169.294 627.752,169.361 632.101 L 169.400 634.600 165.400 634.717 C 159.638 634.885,159.727 634.930,159.525 631.756 C 159.327 628.643,158.494 627.575,157.025 628.550 C 155.725 629.412,155.546 647.439,156.820 649.228 C 158.599 651.726,160.012 649.990,160.362 644.875 L 160.600 641.400 164.541 641.285 C 169.681 641.135,169.770 641.210,169.474 645.391 C 168.904 653.424,165.422 656.600,157.185 656.600 C 147.063 656.600,145.200 653.837,145.200 638.828 C 145.200 626.144,146.229 624.027,153.600 621.553 C 155.586 620.887,161.241 621.448,163.400 622.526 M191.625 622.505 C 197.031 624.980,197.760 626.950,197.735 639.012 C 197.714 649.589,197.431 651.047,194.879 653.737 C 191.078 657.742,179.565 657.965,175.707 654.107 C 171.528 649.928,171.710 628.229,175.956 624.478 C 179.843 621.045,186.583 620.197,191.625 622.505 M208.272 621.512 C 208.734 621.806,209.745 628.734,210.226 634.897 C 210.620 639.942,211.252 639.589,212.202 633.794 C 212.527 631.818,212.963 629.300,213.172 628.200 C 213.381 627.100,213.563 625.173,213.576 623.918 C 213.604 621.227,213.954 621.063,219.197 621.277 L 222.195 621.400 222.471 623.200 C 222.623 624.190,222.928 626.652,223.149 628.670 C 223.374 630.731,223.880 632.984,224.303 633.808 L 225.056 635.275 225.505 633.138 C 225.752 631.962,226.076 629.740,226.225 628.200 C 226.374 626.660,226.790 624.500,227.148 623.400 L 227.800 621.400 230.999 621.281 C 236.533 621.076,236.757 621.444,235.400 628.535 C 235.070 630.260,234.792 632.690,234.783 633.935 C 234.773 635.181,234.582 637.010,234.357 638.000 C 234.133 638.990,233.704 642.050,233.404 644.800 C 232.646 651.742,232.054 655.989,231.783 656.428 C 231.383 657.075,221.748 656.891,221.081 656.224 C 220.427 655.570,219.600 650.646,219.600 647.410 C 219.600 643.174,218.316 641.922,217.838 645.691 C 217.690 646.851,217.384 648.380,217.158 649.089 C 216.931 649.797,216.532 651.777,216.272 653.489 L 215.798 656.600 210.403 656.712 C 204.241 656.841,204.000 656.728,204.000 653.724 C 204.000 652.776,203.747 650.425,203.439 648.500 C 203.130 646.575,202.671 642.930,202.420 640.400 C 202.168 637.870,201.791 634.900,201.583 633.800 C 201.374 632.700,201.033 629.818,200.826 627.395 C 200.618 624.973,200.334 622.693,200.195 622.330 C 199.818 621.350,206.890 620.634,208.272 621.512 M250.200 639.000 L 250.200 656.600 245.800 656.716 C 243.380 656.780,240.995 656.732,240.500 656.609 L 239.600 656.385 239.600 639.026 C 239.600 625.516,239.711 621.621,240.100 621.459 C 240.375 621.345,242.760 621.285,245.400 621.326 L 250.200 621.400 250.200 639.000 M127.843 628.633 C 127.330 629.968,127.580 633.507,128.203 633.746 C 130.567 634.653,132.073 630.137,129.911 628.623 C 128.780 627.830,128.150 627.833,127.843 628.633 M183.851 629.011 C 183.099 630.972,183.595 648.795,184.425 649.625 C 186.481 651.681,186.600 651.122,186.600 639.395 L 186.600 628.600 185.351 628.478 C 184.484 628.394,184.025 628.557,183.851 629.011 M129.921 631.049 C 130.011 632.286,129.877 632.762,129.384 632.951 C 128.332 633.354,128.000 632.874,128.000 630.949 C 128.000 628.352,129.730 628.443,129.921 631.049 M186.000 639.187 L 186.000 649.174 185.100 648.842 C 184.209 648.512,184.199 648.420,184.087 639.754 C 183.961 630.031,184.050 629.200,185.208 629.200 C 185.976 629.200,186.000 629.499,186.000 639.187 " stroke="none" fill="#aabccc" fill-rule="evenodd"></path></g></svg>