<?xml version="1.0" encoding="UTF-8" ?>
<!DOCTYPE svg PUBLIC "-//W3C//DTD SVG 1.1//EN" "http://www.w3.org/Graphics/SVG/1.1/DTD/svg11.dtd">
<svg width="1200pt" height="558pt" viewBox="0 0 1200 558" version="1.1" xmlns="http://www.w3.org/2000/svg">
<path fill="#07727d" opacity="1.00" d=" M 330.16 113.18 C 341.53 106.53 354.91 103.87 368.00 104.22 C 383.31 104.38 398.93 109.24 410.50 119.51 C 422.21 129.72 429.24 144.38 432.32 159.43 C 434.74 170.61 434.89 182.11 434.73 193.50 C 396.87 193.53 359.00 193.45 321.13 193.54 C 321.54 205.50 324.29 217.76 331.28 227.67 C 336.56 235.36 344.57 241.11 353.55 243.63 C 361.47 245.89 369.88 245.76 377.96 244.50 C 386.30 243.10 394.59 239.71 400.58 233.58 C 403.37 230.80 405.42 227.40 407.37 224.01 C 415.84 224.01 424.30 223.96 432.77 224.04 C 429.74 234.84 423.74 244.89 415.06 252.09 C 402.62 262.68 386.12 267.25 370.04 267.85 C 351.77 268.79 332.57 263.69 318.96 251.04 C 304.39 237.83 297.17 218.30 295.32 199.08 C 293.39 178.34 295.67 156.47 305.96 138.02 C 311.65 127.81 319.98 119.00 330.16 113.18 M 334.11 140.12 C 325.88 149.01 322.10 161.07 321.10 172.95 C 350.08 173.07 379.05 172.96 408.02 173.00 C 407.59 159.96 403.54 146.35 393.79 137.22 C 377.50 121.98 348.91 123.51 334.11 140.12 Z" />
<path fill="#07727d" opacity="1.00" d=" M 502.15 113.18 C 513.53 106.53 526.91 103.87 540.00 104.22 C 555.54 104.38 571.40 109.40 583.02 119.97 C 594.43 130.16 601.28 144.61 604.32 159.43 C 606.74 170.61 606.89 182.11 606.73 193.50 C 568.87 193.53 531.00 193.45 493.13 193.54 C 493.54 205.50 496.29 217.77 503.29 227.68 C 508.56 235.36 516.57 241.11 525.55 243.63 C 533.47 245.89 541.88 245.76 549.96 244.50 C 558.30 243.10 566.59 239.71 572.58 233.58 C 575.37 230.80 577.42 227.40 579.37 224.01 C 587.84 224.01 596.30 223.96 604.77 224.04 C 601.74 234.84 595.74 244.89 587.06 252.09 C 574.62 262.68 558.12 267.26 542.04 267.85 C 523.77 268.79 504.57 263.69 490.96 251.04 C 476.39 237.83 469.17 218.30 467.32 199.08 C 465.39 178.34 467.67 156.46 477.96 138.02 C 483.66 127.81 491.98 119.00 502.15 113.18 M 506.11 140.12 C 497.88 149.00 494.10 161.07 493.10 172.95 C 522.08 173.07 551.05 172.96 580.02 173.00 C 579.59 159.96 575.54 146.35 565.78 137.21 C 549.50 121.98 520.91 123.51 506.11 140.12 Z" />
<path fill="#07727d" opacity="1.00" d=" M 62.80 107.02 C 71.39 106.99 79.99 106.97 88.59 107.03 C 98.99 149.27 109.34 191.52 119.78 233.75 C 121.48 233.28 122.26 231.83 122.59 230.21 C 134.04 189.13 145.51 148.05 157.05 107.00 C 165.20 107.01 173.34 106.97 181.49 107.03 C 193.28 149.28 205.03 191.55 216.96 233.77 C 218.55 233.21 219.31 231.82 219.59 230.24 C 229.70 189.15 239.75 148.04 249.93 106.97 C 258.46 107.04 266.99 106.96 275.52 107.02 C 260.86 159.67 245.97 212.26 231.36 264.92 C 222.67 265.07 213.99 264.99 205.30 264.98 C 194.54 227.58 183.70 190.21 172.92 152.83 C 171.94 149.56 171.22 146.20 169.90 143.04 C 169.46 143.04 168.58 143.03 168.14 143.02 C 166.88 146.10 166.15 149.36 165.20 152.54 C 154.44 190.03 143.61 227.51 132.86 265.00 C 124.26 265.00 115.65 265.00 107.04 265.00 C 92.29 212.34 77.52 159.69 62.80 107.02 Z" />
<path fill="#07727d" opacity="1.00" d=" M 877.53 234.54 C 882.77 234.53 888.01 234.52 893.25 234.55 C 893.24 243.54 893.35 252.53 893.18 261.51 C 895.94 258.52 899.02 255.40 903.20 254.61 C 909.79 253.33 917.49 253.55 922.80 258.19 C 927.27 262.08 928.76 268.25 928.74 273.96 C 928.73 285.88 928.74 297.80 928.73 309.72 C 923.40 309.74 918.07 309.74 912.75 309.72 C 912.70 299.12 912.76 288.52 912.74 277.92 C 912.79 274.62 911.83 270.99 909.02 268.97 C 904.65 265.73 897.81 267.49 895.16 272.11 C 893.51 274.75 893.40 277.95 893.43 280.97 C 893.50 290.56 893.45 300.15 893.47 309.75 C 888.15 309.72 882.84 309.73 877.53 309.74 C 877.54 284.68 877.53 259.61 877.53 234.54 Z" />
<path fill="#07727d" opacity="1.00" d=" M 839.01 242.27 C 844.33 242.27 849.66 242.27 854.99 242.27 C 854.99 246.69 855.00 251.11 855.02 255.54 C 858.76 255.53 862.50 255.53 866.26 255.55 C 866.27 259.60 866.27 263.66 866.25 267.72 C 862.50 267.73 858.75 267.73 855.01 267.74 C 855.01 275.19 854.97 282.63 854.99 290.08 C 855.03 292.40 855.16 295.22 857.32 296.64 C 859.95 298.37 863.30 297.51 866.26 297.59 C 866.26 301.53 866.26 305.46 866.30 309.40 C 860.96 310.18 855.50 310.36 850.17 309.49 C 846.80 308.90 843.32 307.46 841.35 304.53 C 839.23 301.47 839.09 297.60 838.99 294.02 C 838.98 285.26 839.02 276.50 838.99 267.74 C 836.24 267.74 833.49 267.72 830.75 267.72 C 830.72 263.66 830.72 259.60 830.74 255.55 C 833.48 255.55 836.23 255.52 838.98 255.53 C 838.99 251.11 839.00 246.69 839.01 242.27 Z" />
<path fill="#07727d" opacity="1.00" d=" M 721.14 258.16 C 727.48 253.78 735.67 253.23 743.10 254.26 C 749.99 255.14 756.49 259.29 759.74 265.50 C 763.23 271.88 763.43 279.36 763.27 286.45 C 750.86 286.51 738.45 286.41 726.05 286.50 C 726.75 290.07 727.53 294.01 730.54 296.41 C 735.79 300.88 744.55 299.40 748.21 293.58 C 753.18 293.50 758.14 293.50 763.11 293.60 C 761.92 298.77 759.18 303.71 754.60 306.60 C 748.59 310.70 740.97 311.37 733.90 310.94 C 727.04 310.54 720.06 307.65 715.89 302.02 C 710.64 295.28 709.95 286.25 710.62 278.04 C 711.15 270.36 714.68 262.61 721.14 258.16 M 730.99 267.97 C 728.23 269.88 727.18 273.18 726.18 276.21 C 733.35 276.31 740.52 276.29 747.69 276.22 C 746.84 273.37 746.10 270.21 743.64 268.28 C 740.17 265.15 734.60 265.01 730.99 267.97 Z" />
<path fill="#07727d" opacity="1.00" d=" M 775.65 262.77 C 778.73 258.24 783.93 255.61 789.20 254.59 C 794.92 253.51 800.88 253.49 806.59 254.74 C 811.06 255.78 815.43 258.10 818.01 262.02 C 820.19 265.20 820.76 269.17 820.76 272.95 C 820.71 285.21 820.75 297.46 820.72 309.72 C 815.58 309.74 810.43 309.72 805.29 309.74 C 805.27 308.06 805.27 306.38 805.27 304.70 C 799.33 310.72 790.05 312.03 782.17 309.71 C 776.84 308.15 772.40 303.54 771.47 298.01 C 770.74 293.32 771.05 288.03 774.22 284.24 C 777.48 280.34 782.57 278.55 787.46 277.77 C 793.31 277.01 799.22 276.90 805.11 276.50 C 804.87 273.81 805.33 270.69 803.39 268.52 C 800.78 266.00 796.75 265.81 793.40 266.57 C 790.87 267.08 789.17 269.13 787.57 270.96 C 782.69 271.03 777.82 271.05 772.95 270.89 C 773.47 268.09 773.94 265.14 775.65 262.77 M 790.21 288.37 C 787.25 289.47 785.68 293.57 787.95 296.07 C 791.75 300.75 799.46 299.22 802.97 294.93 C 805.10 292.65 804.88 289.34 805.17 286.45 C 800.19 286.98 794.94 286.51 790.21 288.37 Z" />
<path fill="#07727d" opacity="1.00" d=" M 950.13 258.16 C 956.48 253.78 964.67 253.23 972.10 254.26 C 978.99 255.14 985.49 259.29 988.74 265.50 C 992.23 271.88 992.43 279.36 992.27 286.45 C 979.86 286.51 967.45 286.41 955.05 286.50 C 955.75 290.07 956.53 294.00 959.53 296.41 C 964.79 300.88 973.55 299.41 977.21 293.58 C 982.18 293.50 987.14 293.50 992.12 293.60 C 990.92 298.77 988.18 303.72 983.60 306.61 C 977.58 310.70 969.97 311.37 962.90 310.94 C 956.04 310.54 949.06 307.65 944.88 302.01 C 939.64 295.28 938.95 286.26 939.62 278.05 C 940.15 270.36 943.68 262.62 950.13 258.16 M 959.99 267.97 C 957.23 269.87 956.18 273.18 955.18 276.21 C 962.35 276.31 969.52 276.29 976.69 276.22 C 975.84 273.38 975.10 270.21 972.64 268.28 C 969.17 265.15 963.60 265.01 959.99 267.97 Z" />
<path fill="#07727d" opacity="1.00" d=" M 1025.79 255.58 C 1030.12 253.53 1035.07 254.31 1039.69 254.58 C 1039.75 259.33 1039.75 264.09 1039.69 268.84 C 1036.83 268.44 1033.97 267.90 1031.09 268.01 C 1027.30 268.28 1023.53 270.28 1021.58 273.61 C 1020.04 276.11 1020.00 279.15 1019.97 281.99 C 1020.01 291.24 1020.01 300.49 1019.99 309.73 C 1014.66 309.73 1009.33 309.73 1004.01 309.73 C 1003.98 291.49 1004.00 273.25 1004.00 255.00 C 1009.16 254.99 1014.32 254.99 1019.49 255.01 C 1019.45 257.00 1019.41 258.98 1019.37 260.97 C 1021.25 258.90 1023.17 256.73 1025.79 255.58 Z" />
<path fill="#07727d" opacity="1.00" d=" M 624.62 255.02 C 630.08 254.99 635.54 254.99 641.00 255.01 C 643.54 267.30 646.12 279.58 648.62 291.88 C 651.49 279.58 654.63 267.34 657.55 255.04 C 662.65 254.98 667.76 254.99 672.87 255.00 C 675.91 267.29 678.95 279.58 681.90 291.89 C 684.35 279.59 686.98 267.33 689.50 255.05 C 694.83 254.97 700.16 254.96 705.49 255.06 C 700.90 273.34 695.89 291.51 691.07 309.73 C 685.42 309.73 679.77 309.73 674.12 309.74 C 671.10 298.02 668.13 286.30 664.97 274.62 C 661.89 286.31 658.97 298.04 655.90 309.73 C 650.33 309.73 644.76 309.73 639.19 309.73 C 634.33 291.49 629.42 273.27 624.62 255.02 Z" />
<path fill="#959595" opacity="1.00" d=" M 392.80 281.51 C 403.17 281.53 413.54 281.43 423.90 281.53 C 425.16 281.35 425.68 282.79 426.38 283.55 C 442.51 308.09 458.79 332.53 474.98 357.03 C 476.90 359.91 478.60 362.96 480.88 365.59 C 481.34 365.53 482.27 365.40 482.73 365.33 C 484.72 363.05 486.20 360.39 487.90 357.90 C 504.98 332.43 522.18 307.03 539.21 281.53 C 549.35 281.48 559.50 281.49 569.64 281.52 C 545.33 317.04 520.74 352.37 496.41 387.88 C 520.31 422.89 544.15 457.95 568.02 492.99 C 557.35 493.01 546.69 492.99 536.02 493.00 C 521.94 472.05 508.12 450.93 494.06 429.96 C 489.42 422.97 484.96 415.87 480.02 409.09 C 478.98 410.02 477.88 410.91 477.05 412.05 C 458.76 439.02 440.56 466.07 422.22 493.02 C 412.14 492.97 402.06 493.02 391.98 492.99 C 416.09 457.54 440.21 422.10 464.34 386.66 C 440.50 351.61 416.62 316.59 392.80 281.51 Z" />
<path fill="#959595" opacity="1.00" d=" M 159.56 492.98 C 140.43 422.46 121.15 351.99 102.01 281.49 C 111.28 281.50 120.55 281.52 129.82 281.48 C 143.62 337.71 157.38 393.96 171.11 450.21 C 171.49 451.59 172.26 452.83 172.93 454.11 C 174.54 449.70 175.63 445.13 176.89 440.62 C 191.51 387.58 206.09 334.54 220.72 281.51 C 229.70 281.51 238.69 281.46 247.67 281.53 C 262.59 336.08 277.70 390.57 292.66 445.10 C 293.42 448.21 294.19 451.37 295.94 454.11 C 297.67 449.24 298.64 444.16 299.90 439.17 C 312.80 386.62 325.57 334.04 338.52 281.51 C 347.79 281.50 357.05 281.48 366.32 281.52 C 347.16 352.02 327.93 422.50 308.74 492.99 C 300.32 492.99 291.90 493.03 283.48 492.97 C 268.55 441.55 253.53 390.16 238.55 338.76 C 237.24 334.36 236.08 329.91 234.59 325.57 C 232.34 327.85 232.09 331.19 231.13 334.09 C 215.70 387.07 200.26 440.03 184.81 493.00 C 176.39 492.99 167.97 493.03 159.56 492.98 Z" />
<path fill="#959595" opacity="1.00" d=" M 754.84 327.78 C 761.27 322.76 770.11 323.94 777.72 324.42 C 777.73 328.11 777.73 331.80 777.74 335.49 C 774.24 335.56 770.04 334.53 767.29 337.30 C 765.33 339.52 765.98 342.81 765.60 345.53 C 769.40 345.83 773.56 344.85 777.16 346.02 C 777.45 349.91 777.21 353.82 777.25 357.72 C 773.50 357.73 769.75 357.73 766.01 357.73 C 765.98 371.73 766.02 385.73 765.99 399.74 C 760.75 399.73 755.51 399.73 750.27 399.73 C 750.26 385.73 750.28 371.74 750.26 357.74 C 747.34 357.75 744.42 357.71 741.51 357.74 C 741.54 353.67 741.54 349.60 741.53 345.53 C 744.43 345.55 747.34 345.52 750.25 345.53 C 750.17 339.43 749.58 332.09 754.84 327.78 Z" />
<path fill="#959595" opacity="1.00" d=" M 792.01 332.26 C 797.33 332.27 802.66 332.27 807.99 332.26 C 807.99 336.69 808.00 341.11 808.01 345.54 C 811.76 345.53 815.50 345.53 819.26 345.54 C 819.26 349.60 819.26 353.66 819.26 357.73 C 815.50 357.73 811.75 357.73 808.01 357.74 C 808.01 365.18 807.98 372.63 807.99 380.08 C 808.01 382.40 808.16 385.22 810.33 386.64 C 812.95 388.38 816.30 387.52 819.26 387.57 C 819.26 391.53 819.26 395.49 819.28 399.45 C 812.28 400.19 804.72 400.88 798.15 397.84 C 793.75 395.76 792.08 390.65 792.06 386.09 C 791.89 376.64 792.06 367.19 791.99 357.74 C 789.24 357.74 786.49 357.72 783.74 357.73 C 783.73 353.66 783.73 349.60 783.74 345.54 C 786.48 345.54 789.23 345.53 791.99 345.54 C 792.00 341.11 792.00 336.69 792.01 332.26 Z" />
<path fill="#959595" opacity="1.00" d=" M 637.41 344.70 C 643.12 343.49 649.07 343.52 654.81 344.61 C 659.30 345.50 663.79 347.65 666.54 351.45 C 668.51 354.13 669.10 357.49 669.74 360.69 C 664.78 360.76 659.83 360.75 654.88 360.70 C 652.58 355.06 644.83 353.69 640.20 357.20 C 639.01 358.03 638.20 359.38 638.22 360.85 C 638.90 363.03 641.15 364.04 643.16 364.67 C 649.43 366.58 656.11 367.04 662.19 369.60 C 665.56 371.01 668.64 373.52 669.86 377.06 C 671.79 382.89 670.70 389.94 666.24 394.36 C 661.48 399.07 654.58 400.88 648.04 401.01 C 640.82 401.23 632.98 400.52 627.10 395.89 C 623.45 393.06 621.90 388.48 621.27 384.07 C 626.47 383.96 631.68 383.98 636.89 384.04 C 639.42 389.77 647.18 390.99 652.26 388.09 C 653.84 387.17 655.26 385.27 654.59 383.37 C 653.84 381.52 651.85 380.73 650.11 380.16 C 644.51 378.49 638.62 377.92 633.13 375.87 C 629.13 374.35 625.31 371.57 623.78 367.45 C 622.27 363.24 622.33 358.40 624.19 354.31 C 626.68 349.18 631.96 345.90 637.41 344.70 Z" />
<path fill="#959595" opacity="1.00" d=" M 698.41 344.69 C 707.68 342.87 718.50 343.50 725.81 350.17 C 732.68 356.34 734.61 366.13 734.07 374.99 C 733.84 382.74 730.96 390.84 724.70 395.74 C 718.63 400.62 710.41 401.48 702.90 400.90 C 696.09 400.46 689.26 397.44 685.05 391.95 C 681.13 386.85 679.47 380.32 679.44 373.96 C 679.22 367.82 680.03 361.48 683.08 356.05 C 686.21 350.25 692.01 346.10 698.41 344.69 M 702.49 357.62 C 699.64 358.99 697.94 361.87 696.88 364.73 C 695.27 369.74 695.33 375.27 696.93 380.28 C 697.96 383.50 700.23 386.47 703.47 387.70 C 706.62 388.98 710.44 388.23 712.96 385.96 C 715.85 383.48 717.07 379.63 717.55 375.97 C 718.10 370.93 717.70 365.48 714.85 361.13 C 712.38 357.10 706.71 355.17 702.49 357.62 Z" />
<path fill="#959595" opacity="1.00" d=" M 916.65 352.77 C 919.89 348.00 925.46 345.36 931.02 344.44 C 936.74 343.50 942.68 343.52 948.33 344.93 C 952.98 346.12 957.41 348.87 959.73 353.19 C 961.49 356.47 961.81 360.28 961.76 363.95 C 961.68 375.88 961.79 387.82 961.69 399.76 C 956.54 399.72 951.39 399.74 946.25 399.72 C 946.25 397.95 946.29 396.20 946.33 394.45 C 939.89 401.46 928.75 402.43 920.39 398.57 C 912.29 394.68 910.01 383.72 913.95 376.13 C 916.69 371.15 922.41 368.85 927.74 367.89 C 933.82 366.99 939.98 366.94 946.11 366.50 C 945.88 363.64 946.37 360.12 943.91 358.07 C 939.16 354.63 931.69 355.86 928.61 360.97 C 923.73 361.02 918.85 361.05 913.97 360.90 C 914.45 358.09 914.94 355.14 916.65 352.77 M 931.20 378.37 C 928.25 379.48 926.68 383.57 928.95 386.06 C 932.75 390.75 940.46 389.22 943.97 384.93 C 946.10 382.65 945.90 379.33 946.16 376.44 C 941.18 377.00 935.93 376.50 931.20 378.37 Z" />
<path fill="#959595" opacity="1.00" d=" M 997.78 345.59 C 1002.12 343.52 1007.08 344.30 1011.70 344.59 C 1011.75 349.34 1011.75 354.09 1011.68 358.85 C 1008.82 358.46 1005.96 357.87 1003.07 358.01 C 999.29 358.30 995.52 360.28 993.58 363.61 C 992.03 366.11 991.99 369.15 991.97 371.99 C 992.02 381.24 992.00 390.49 991.99 399.74 C 986.66 399.73 981.33 399.73 976.01 399.74 C 975.99 381.49 976.00 363.25 976.00 345.00 C 981.16 345.00 986.32 344.99 991.49 345.01 C 991.45 347.01 991.42 349.01 991.37 351.01 C 993.22 348.91 995.15 346.73 997.78 345.59 Z" />
<path fill="#959595" opacity="1.00" d=" M 1024.94 349.92 C 1029.24 345.88 1035.19 344.13 1040.99 343.87 C 1047.16 343.58 1053.74 344.38 1058.94 347.98 C 1063.22 350.80 1066.22 355.29 1067.69 360.17 C 1069.36 365.43 1069.35 371.00 1069.27 376.46 C 1056.86 376.50 1044.46 376.41 1032.05 376.50 C 1032.73 380.07 1033.53 384.00 1036.53 386.41 C 1041.76 390.86 1050.58 389.45 1054.17 383.58 C 1059.15 383.51 1064.13 383.50 1069.11 383.59 C 1067.93 388.77 1065.17 393.71 1060.60 396.60 C 1054.58 400.70 1046.97 401.37 1039.90 400.94 C 1033.04 400.54 1026.06 397.65 1021.89 392.02 C 1016.85 385.57 1016.02 376.95 1016.54 369.05 C 1016.89 361.96 1019.55 354.72 1024.94 349.92 M 1036.43 358.43 C 1034.00 360.34 1033.13 363.41 1032.19 366.21 C 1039.35 366.31 1046.52 366.28 1053.68 366.23 C 1052.84 363.13 1051.89 359.73 1049.08 357.83 C 1045.40 354.92 1039.83 355.26 1036.43 358.43 Z" />
<path fill="#959595" opacity="1.00" d=" M 826.62 345.01 C 832.08 344.99 837.54 345.00 843.01 345.01 C 845.53 357.30 848.12 369.59 850.63 381.89 C 853.48 369.57 856.64 357.33 859.55 345.03 C 864.65 344.98 869.76 344.99 874.87 345.00 C 877.91 357.30 880.96 369.59 883.90 381.91 C 886.35 369.60 888.98 357.33 891.51 345.04 C 896.83 344.98 902.16 344.96 907.49 345.05 C 902.91 363.34 897.88 381.51 893.07 399.74 C 887.42 399.73 881.77 399.73 876.12 399.74 C 873.11 388.00 870.10 376.26 866.97 364.55 C 863.92 376.27 860.96 388.02 857.91 399.74 C 852.33 399.73 846.76 399.73 841.19 399.73 C 836.33 381.49 831.43 363.26 826.62 345.01 Z" />
</svg>
