<?xml version="1.0" encoding="UTF-8" standalone="no"?>
<svg
   xmlns:dc="http://purl.org/dc/elements/1.1/"
   xmlns:cc="http://creativecommons.org/ns#"
   xmlns:rdf="http://www.w3.org/1999/02/22-rdf-syntax-ns#"
   xmlns:svg="http://www.w3.org/2000/svg"
   xmlns="http://www.w3.org/2000/svg"
   xmlns:xlink="http://www.w3.org/1999/xlink"
   xmlns:sodipodi="http://sodipodi.sourceforge.net/DTD/sodipodi-0.dtd"
   xmlns:inkscape="http://www.inkscape.org/namespaces/inkscape"
   inkscape:version="1.0 (4035a4fb49, 2020-05-01)"
   sodipodi:docname="icon-weewx-arch.svg"
   id="svg184"
   version="1.1"
   viewBox="0 0 1200 558"
   height="558pt"
   width="1200pt">
  <metadata
     id="metadata190">
    <rdf:RDF>
      <cc:Work
         rdf:about="">
        <dc:format>image/svg+xml</dc:format>
        <dc:type
           rdf:resource="http://purl.org/dc/dcmitype/StillImage" />
        <dc:title></dc:title>
      </cc:Work>
    </rdf:RDF>
  </metadata>
  <defs
     id="defs188">
    <linearGradient
       x1="112.49854"
       y1="6.1372099"
       x2="112.49853"
       y2="129.3468"
       id="path1082_2_"
       gradientUnits="userSpaceOnUse"
       gradientTransform="translate(287,-83)">
      <stop
         id="stop193"
         style="stop-color:#ffffff;stop-opacity:0"
         offset="0" />
      <stop
         id="stop195"
         style="stop-color:#ffffff;stop-opacity:0.27450982"
         offset="1" />
      <midPointStop
         offset="0"
         style="stop-color:#FFFFFF"
         id="midPointStop197" />
      <midPointStop
         offset="0.5"
         style="stop-color:#FFFFFF"
         id="midPointStop199" />
      <midPointStop
         offset="1"
         style="stop-color:#000000"
         id="midPointStop201" />
    </linearGradient>
    <linearGradient
       x1="541.33502"
       y1="104.50665"
       x2="606.91248"
       y2="303.14029"
       id="linearGradient2544"
       xlink:href="#path1082_2_"
       gradientUnits="userSpaceOnUse"
       gradientTransform="matrix(-0.3937741,0,0,0.393752,357.51969,122.00151)" />
    <linearGradient
       id="linearGradient3388">
      <stop
         id="stop3390"
         style="stop-color:#000000;stop-opacity:0"
         offset="0" />
      <stop
         id="stop3392"
         style="stop-color:#000000;stop-opacity:0.37113401"
         offset="1" />
    </linearGradient>
    <linearGradient
       x1="490.72305"
       y1="237.72447"
       x2="490.72305"
       y2="183.9644"
       id="linearGradient4416"
       xlink:href="#linearGradient3388"
       gradientUnits="userSpaceOnUse"
       gradientTransform="matrix(0.749107,0,0,0.749107,-35.459862,91.44108)" />
  </defs>
  <sodipodi:namedview
     inkscape:current-layer="svg184"
     inkscape:window-maximized="0"
     inkscape:window-y="15"
     inkscape:window-x="0"
     inkscape:cy="372"
     inkscape:cx="800"
     inkscape:zoom="0.8125"
     showgrid="true"
     id="namedview186"
     inkscape:window-height="1050"
     inkscape:window-width="1746"
     inkscape:pageshadow="2"
     inkscape:pageopacity="0"
     guidetolerance="10"
     gridtolerance="10"
     objecttolerance="10"
     borderopacity="1"
     bordercolor="#666666"
     pagecolor="#ffffff">
    <inkscape:grid
       id="grid378"
       type="xygrid" />
  </sodipodi:namedview>
  <path
     style="stroke-width:0.519007"
     id="path144"
     d="m 141.79547,155.25189 c 5.68138,-3.58489 12.36712,-5.01885 18.90797,-4.83017 7.65012,0.0862 15.45515,2.70621 21.23648,8.24259 5.85127,5.50402 9.36404,13.40696 10.90306,21.52014 1.20922,6.02696 1.28418,12.22641 1.20423,18.36655 -18.91796,0.0162 -37.84092,-0.027 -56.76388,0.0217 0.20487,6.44743 1.57899,13.05658 5.07178,18.39889 2.63833,4.14555 6.64077,7.24527 11.12791,8.60376 3.95747,1.21833 8.15981,1.14825 12.19725,0.469 4.16734,-0.75471 8.3097,-2.5822 11.3028,-5.8868 1.39413,-1.49864 2.41847,-3.33151 3.39284,-5.15899 4.23231,0 8.45961,-0.027 12.69192,0.0162 -1.51404,5.82209 -4.51213,11.23986 -8.84936,15.12127 -6.21604,5.70888 -14.4608,8.17249 -22.49569,8.49593 -9.12919,0.50675 -18.72308,-2.24257 -25.52374,-9.06197 -7.28039,-7.12129 -10.88807,-17.64956 -11.8125,-28.01072 -0.96438,-11.18059 0.17489,-22.97031 5.31662,-32.91637 2.84318,-5.50404 7.00554,-10.25335 12.09231,-13.3908 m 1.97372,14.52288 c -4.11237,4.79243 -6.00117,11.29376 -6.50085,17.69806 14.48078,0.0646 28.95659,0.005 43.43237,0.027 -0.21487,-7.02963 -2.23858,-14.36654 -7.11048,-19.28836 -8.13982,-8.2156 -22.42574,-7.39081 -29.82104,1.56335 z"
     opacity="1"
     fill="#07727d" />
  <path
     style="stroke-width:0.519007"
     id="path146"
     d="m 227.73578,155.25189 c 5.68637,-3.58489 12.37212,-5.01885 18.91295,-4.83017 7.76506,0.0862 15.69001,2.79245 21.49633,8.49055 5.70137,5.49325 9.12419,13.28298 10.64323,21.27218 1.20923,6.02696 1.28417,12.22641 1.20423,18.36655 -18.91796,0.0162 -37.84092,-0.027 -56.76388,0.0217 0.20487,6.44743 1.57899,13.06197 5.07678,18.40428 2.63331,4.14016 6.63577,7.23988 11.1229,8.59837 3.95749,1.21833 8.15982,1.14825 12.19725,0.469 4.16735,-0.75471 8.3097,-2.5822 11.30281,-5.8868 1.39411,-1.49864 2.41845,-3.33151 3.39283,-5.15899 4.23231,0 8.45962,-0.027 12.69193,0.0162 -1.51403,5.82209 -4.51213,11.23986 -8.84937,15.12127 -6.21604,5.70888 -14.4608,8.17788 -22.49568,8.49593 -9.12918,0.50675 -18.72309,-2.24257 -25.52377,-9.06197 -7.28035,-7.12129 -10.88807,-17.64956 -11.81248,-28.01072 -0.96439,-11.18059 0.1749,-22.97569 5.31662,-32.91637 2.84819,-5.50404 7.00555,-10.25335 12.08732,-13.3908 m 1.97873,14.52288 c -4.11238,4.78704 -6.00118,11.29376 -6.50085,17.69806 14.48078,0.0646 28.95656,0.005 43.43235,0.027 -0.21486,-7.02963 -2.23859,-14.36654 -7.11547,-19.29376 -8.13483,-8.2102 -22.42072,-7.38541 -29.81603,1.56875 z"
     opacity="1"
     fill="#07727d" />
  <path
     style="stroke-width:0.519007"
     id="path148"
     d="m 8.2004769,151.93115 c 4.2922741,-0.0162 8.5895371,-0.027 12.8868001,0.005 5.196689,22.77082 10.368402,45.54706 15.585079,68.31248 0.849455,-0.25335 1.239208,-1.03501 1.404108,-1.90833 5.721359,-22.1455 11.452717,-44.291 17.219038,-66.42034 4.072412,0.005 8.139825,-0.0162 12.212236,0.0162 5.891249,22.77622 11.762505,45.56323 17.723723,68.32328 0.794493,-0.30187 1.174249,-1.0512 1.314165,-1.90296 5.051775,-22.15088 10.073583,-44.31256 15.160354,-66.45267 4.26228,0.0377 8.52457,-0.005 12.78687,0.027 -7.32535,28.38269 -14.765619,56.73304 -22.065964,85.12112 -4.342244,0.0809 -8.679481,0.0378 -13.021719,0.0324 -5.376587,-20.16149 -10.793137,-40.307 -16.179713,-60.45789 -0.489687,-1.76279 -0.849447,-3.57411 -1.509033,-5.27763 -0.219854,0 -0.659586,-0.005 -0.879448,-0.0107 -0.629593,1.66037 -0.994361,3.41778 -1.469059,5.13207 -5.376579,20.21017 -10.788139,40.41499 -16.15971,60.6252 -4.297273,0 -8.599535,0 -12.901797,0 C 22.9361,208.70725 15.555804,180.32458 8.2004769,151.9311 Z"
     opacity="1"
     fill="#07727d" />
  <path
     style="stroke-width:0.519007"
     id="path150"
     d="m 415.3064,220.67493 c 2.61833,-0.005 5.23667,-0.0107 7.85501,0.005 -0.005,4.84635 0.05,9.69269 -0.035,14.53364 1.3791,-1.61185 2.91813,-3.29378 5.0068,-3.71964 3.2929,-0.69003 7.14046,-0.57145 9.79377,1.9299 2.23358,2.09705 2.9781,5.42317 2.96811,8.50132 -0.005,6.42586 0,12.85174 -0.005,19.27759 -2.66329,0.0103 -5.3266,0.0103 -7.98491,0 -0.0249,-5.71427 0.005,-11.42854 -0.005,-17.1428 0.0249,-1.77901 -0.45471,-3.73585 -1.85883,-4.82479 -2.1836,-1.74664 -5.60143,-0.79785 -6.92559,1.69272 -0.82447,1.42316 -0.87944,3.14823 -0.86444,4.77625 0.035,5.1698 0.0104,10.3396 0.0199,15.51479 -2.6583,-0.0162 -5.31161,-0.0103 -7.96493,-0.006 0.005,-13.50944 0,-27.02419 0,-40.539 z"
     opacity="1"
     fill="#07727d" />
  <path
     style="stroke-width:0.519007"
     id="path152"
     d="m 396.05867,224.84204 c 2.6583,0 5.3216,0 7.9849,0 0,2.38274 0.005,4.76549 0.015,7.15363 1.86882,-0.005 3.73763,-0.005 5.61643,0.005 0.005,2.1833 0.005,4.37196 -0.005,6.56064 -1.87381,0.006 -3.74761,0.006 -5.61643,0.0103 0,4.01618 -0.0199,8.02695 -0.0104,12.0431 0.0199,1.25068 0.085,2.7709 1.16426,3.53638 1.31416,0.93261 2.98811,0.469 4.46715,0.51213 0,2.12399 0,4.24258 0.0199,6.36656 -2.6683,0.42049 -5.39657,0.51753 -8.05988,0.0486 -1.68394,-0.31806 -3.42284,-1.09433 -4.4072,-2.67385 -1.05932,-1.64959 -1.12928,-3.73583 -1.17923,-5.66574 -0.005,-4.72236 0.0149,-9.44472 0,-14.16708 -1.37414,0 -2.74826,-0.0103 -4.11739,-0.0103 -0.0151,-2.18868 -0.0151,-4.37735 -0.005,-6.56064 1.36912,0 2.74326,-0.0162 4.11737,-0.0107 0.005,-2.38275 0.0104,-4.76548 0.015,-7.14823 z"
     opacity="1"
     fill="#07727d" />
  <path
     style="stroke-width:0.519007"
     id="path154"
     d="m 337.16113,233.40806 c 3.168,-2.36118 7.26038,-2.65768 10.97303,-2.10243 3.4428,0.47439 6.69073,2.71159 8.3147,6.05929 1.74389,3.43934 1.84384,7.47169 1.76388,11.29378 -6.20105,0.0324 -12.4021,-0.0216 -18.59816,0.027 0.34977,1.92453 0.73953,4.04851 2.24356,5.34231 2.62334,2.40969 7.00054,1.61186 8.82939,-1.52561 2.48342,-0.043 4.96183,-0.043 7.44526,0.0103 -0.59462,2.78706 -1.96376,5.45013 -4.25228,7.00807 -3.00311,2.21025 -6.81068,2.57142 -10.34344,2.33962 -3.42781,-0.21562 -6.91559,-1.77359 -8.99927,-4.80863 -2.62332,-3.6334 -2.9681,-8.50131 -2.63331,-12.92717 0.26482,-4.14015 2.0287,-8.31804 5.25664,-10.71697 m 4.92188,5.28841 c -1.37913,1.02965 -1.9038,2.80859 -2.40348,4.44203 3.58272,0.0538 7.16543,0.043 10.74817,0.006 -0.42474,-1.53639 -0.7945,-3.23989 -2.02372,-4.28031 -1.73389,-1.68733 -4.51713,-1.76281 -6.32097,-0.16713 z"
     opacity="1"
     fill="#07727d" />
  <path
     style="stroke-width:0.519007"
     id="path156"
     d="m 364.39879,235.89324 c 1.53903,-2.44206 4.13737,-3.85984 6.77069,-4.4097 2.8582,-0.58222 5.83631,-0.593 8.68949,0.0809 2.23357,0.56064 4.41718,1.81131 5.70637,3.9245 1.0893,1.71428 1.37413,3.85444 1.37413,5.89218 -0.0249,6.60914 -0.005,13.21289 -0.0199,19.82204 -2.56837,0.0103 -5.14174,0 -7.7101,0.0103 -0.0104,-0.90566 -0.0104,-1.81132 -0.0104,-2.71699 -2.96812,3.24529 -7.60516,3.95149 -11.54267,2.7008 -2.66329,-0.84094 -4.88189,-3.32612 -5.34659,-6.30724 -0.36476,-2.52832 -0.20985,-5.38004 1.37413,-7.42317 1.62896,-2.10241 4.17234,-3.06739 6.61579,-3.48787 2.92313,-0.40968 5.87626,-0.469 8.81939,-0.68463 -0.11992,-1.45013 0.10993,-3.13205 -0.85946,-4.30188 -1.30417,-1.35846 -3.31788,-1.4609 -4.99182,-1.05119 -1.2642,0.27493 -2.11366,1.38004 -2.91314,2.36657 -2.43847,0.0377 -4.8719,0.0486 -7.30536,-0.0378 0.25984,-1.50942 0.49469,-3.09972 1.34915,-4.37733 m 7.27537,13.8005 c -1.47906,0.593 -2.26356,2.80322 -1.12928,4.15093 1.89879,2.52291 5.75133,1.69811 7.50521,-0.61456 1.06432,-1.2291 0.9544,-3.01346 1.09931,-4.57141 -2.48842,0.2857 -5.11175,0.0323 -7.47524,1.03504 z"
     opacity="1"
     fill="#07727d" />
  <path
     style="stroke-width:0.519007"
     id="path158"
     d="m 451.58333,233.40806 c 3.17297,-2.36118 7.26536,-2.65768 10.978,-2.10243 3.44281,0.47439 6.69075,2.71159 8.31471,6.05929 1.74389,3.43934 1.84383,7.47169 1.76389,11.29378 -6.20106,0.0324 -12.40212,-0.0216 -18.59817,0.027 0.34978,1.92453 0.73952,4.04313 2.23857,5.34231 2.62832,2.40969 7.00553,1.61724 8.83437,-1.52561 2.48343,-0.043 4.96185,-0.043 7.45027,0.0103 -0.59963,2.78706 -1.96876,5.45553 -4.25728,7.01346 -3.0081,2.20486 -6.81069,2.56603 -10.34342,2.33423 -3.42783,-0.21562 -6.91561,-1.77359 -9.00429,-4.814 -2.61832,-3.62803 -2.9631,-8.49055 -2.62833,-12.91641 0.26485,-4.14554 2.02871,-8.31804 5.25168,-10.72236 m 4.92686,5.28841 c -1.37913,1.02425 -1.90379,2.80859 -2.40347,4.44203 3.58271,0.0538 7.16543,0.043 10.74816,0.006 -0.42475,-1.53099 -0.79451,-3.23989 -2.02371,-4.28031 -1.73391,-1.68733 -4.51714,-1.76281 -6.32098,-0.16713 z"
     opacity="1"
     fill="#07727d" />
  <path
     style="stroke-width:0.519007"
     id="path160"
     d="m 489.38926,232.01722 c 2.16362,-1.10511 4.63706,-0.68464 6.94557,-0.53907 0.0299,2.56063 0.0299,5.12666 0,7.6873 -1.42908,-0.21563 -2.85818,-0.50673 -4.29724,-0.44743 -1.8938,0.14555 -3.7776,1.22372 -4.75199,3.01886 -0.76951,1.34772 -0.7895,2.98651 -0.80449,4.51751 0.02,4.9865 0.02,9.97302 0.0104,14.95414 -2.66329,0 -5.32659,0 -7.9849,0 -0.015,-9.83285 -0.005,-19.66572 -0.005,-29.50398 2.57836,-0.005 5.15674,-0.005 7.74008,0.005 -0.0199,1.07279 -0.0399,2.14016 -0.06,3.21294 0.93941,-1.1159 1.89879,-2.28572 3.20796,-2.90565 z"
     opacity="1"
     fill="#07727d" />
  <path
     style="stroke-width:0.519007"
     id="path162"
     d="m 288.93182,231.71535 c 2.72827,-0.0162 5.45654,-0.0162 8.1848,-0.005 1.26919,6.62533 2.55836,13.24525 3.80757,19.87595 1.4341,-6.6307 3.00308,-13.22906 4.46217,-19.85978 2.54837,-0.0323 5.10176,-0.027 7.65512,-0.0217 1.51905,6.62534 3.03806,13.25065 4.51212,19.88673 1.22423,-6.63068 2.5384,-13.23985 3.7976,-19.85977 2.6633,-0.043 5.3266,-0.0486 7.98992,0.005 -2.29354,9.85442 -4.79695,19.64953 -7.20543,29.47162 -2.82319,0 -5.64639,0 -8.4696,0.006 -1.50905,-6.31806 -2.9931,-12.6361 -4.5721,-18.93259 -1.53902,6.30188 -2.99808,12.62531 -4.53212,18.92717 -2.78321,0 -5.56645,0 -8.34967,0 -2.42846,-9.83284 -4.88189,-19.65493 -7.28038,-29.49316 z"
     opacity="1"
     fill="#07727d" />
  <path
     style="stroke-width:0.519007"
     id="path164"
     d="m 173.09555,245.99564 c 5.18169,0.0103 10.3634,-0.043 15.5401,0.0103 0.6296,-0.0971 0.88944,0.67926 1.23921,1.08896 8.05988,13.22907 16.1947,26.40424 24.28455,39.61175 0.95939,1.55258 1.80886,3.19677 2.94812,4.61455 0.22987,-0.0324 0.69457,-0.10244 0.92441,-0.14014 0.99438,-1.22912 1.7339,-2.66307 2.58335,-4.00539 8.53459,-13.73043 17.12912,-27.42312 25.6387,-41.16973 5.06677,-0.027 10.13855,-0.0216 15.20531,-0.006 -12.14726,19.14819 -24.43445,38.19397 -36.59171,57.3368 11.9424,18.87327 23.85483,37.77348 35.78223,56.66294 -5.33159,0.0103 -10.65821,0 -15.98982,0.006 -7.03552,-11.29377 -13.94113,-22.67918 -20.96667,-33.98374 -2.31851,-3.76819 -4.54709,-7.59567 -7.01552,-11.25065 -0.51968,0.50136 -1.06932,0.98113 -1.48406,1.59568 -9.13918,14.53905 -18.2334,29.12123 -27.39755,43.64949 -5.03681,-0.027 -10.0736,0 -15.11039,-0.0162 12.04732,-19.11048 24.09966,-38.21557 36.15699,-57.32065 -11.91243,-18.89482 -23.84483,-37.77349 -35.74725,-56.68449 z"
     opacity="1"
     fill="#959595" />
  <path
     style="stroke-width:0.519007"
     id="path166"
     d="M 56.549708,359.99536 C 46.990786,321.97927 37.356927,283.99014 27.792999,245.98485 c 4.632055,0.006 9.264111,0.0162 13.896158,-0.006 6.895616,30.3126 13.771247,60.63598 20.631871,90.95936 0.189887,0.74393 0.57465,1.41237 0.909424,2.10242 0.804493,-2.37736 1.349149,-4.84097 1.978742,-7.27221 7.305356,-28.59294 14.590725,-57.18587 21.901066,-85.7734 4.487141,0 8.979281,-0.027 13.46643,0.0103 7.45526,29.40694 15.00546,58.78155 22.48069,88.1777 0.37977,1.67654 0.76453,3.38004 1.63897,4.85713 0.86444,-2.62534 1.34913,-5.36388 1.97873,-8.05389 6.44591,-28.32879 12.82684,-56.67373 19.29773,-84.99172 4.63205,-0.006 9.2591,-0.0163 13.89116,0.006 -9.5739,38.0053 -19.18281,75.99982 -28.7717,113.99974 -4.20732,0 -8.41464,0.0215 -12.62196,-0.0103 -7.46026,-27.71963 -14.96548,-55.42307 -22.45071,-83.13189 -0.654587,-2.37198 -1.234217,-4.77089 -1.97875,-7.11051 -1.124286,1.22911 -1.249205,3.02965 -1.728902,4.59299 -7.710098,28.56058 -15.425179,57.11037 -23.145266,85.66557 -4.207326,-0.006 -8.414645,0.0162 -12.616974,-0.0103 z"
     opacity="1"
     fill="#959595" />
  <path
     style="stroke-width:0.519007"
     id="path168"
     d="m 354.00042,270.93898 c 3.21295,-2.70621 7.63015,-2.07009 11.43272,-1.81133 0.005,1.98921 0.005,3.97843 0.0104,5.96765 -1.74889,0.0378 -3.84755,-0.51752 -5.22168,0.97571 -0.97937,1.19678 -0.65458,2.97036 -0.84446,4.43667 1.8988,0.16172 3.97746,-0.36658 5.77632,0.26414 0.14491,2.09704 0.0249,4.20486 0.0449,6.30726 -1.87381,0.006 -3.74762,0.006 -5.61641,0.006 -0.015,7.54715 0.005,15.09429 -0.0104,22.64685 -2.61835,-0.006 -5.23669,-0.006 -7.85501,-0.006 -0.005,-7.54716 0.005,-15.08893 -0.005,-22.63607 -1.45907,0.006 -2.91813,-0.0162 -4.37222,0 0.015,-2.19408 0.015,-4.38814 0.0104,-6.58221 1.44908,0.0103 2.90316,-0.006 4.35724,0 -0.0401,-3.28839 -0.3348,-7.24525 2.29353,-9.56871 z"
     opacity="1"
     fill="#959595" />
  <path
     style="stroke-width:0.519007"
     id="path170"
     d="m 372.57359,273.35405 c 2.65833,0.006 5.32161,0.006 7.98493,0 0,2.38815 0.005,4.77089 0.0104,7.15902 1.87381,-0.006 3.74262,-0.006 5.62143,0 0,2.18867 0,4.37734 0,6.5714 -1.87881,0 -3.75263,0 -5.62143,0.006 0,4.01077 -0.015,8.02691 -0.0104,12.04308 0.0104,1.25067 0.085,2.77089 1.16925,3.53638 1.30918,0.938 2.9831,0.47442 4.46216,0.50135 0,2.13478 0,4.26954 0.0104,6.4043 -3.49777,0.39893 -7.27537,0.77089 -10.55828,-0.86792 -2.19861,-1.12131 -3.03307,-3.87601 -3.04306,-6.33423 -0.085,-5.09432 0,-10.18866 -0.035,-15.28296 -1.37413,0 -2.74826,-0.0103 -4.12237,-0.006 -0.005,-2.19406 -0.005,-4.38273 0,-6.5714 1.36912,0 2.74324,-0.006 4.12237,0 0.005,-2.38813 0.005,-4.77087 0.0104,-7.15902 z"
     opacity="1"
     fill="#959595" />
  <path
     style="stroke-width:0.519007"
     id="path172"
     d="m 295.32276,280.06025 c 2.85319,-0.65229 5.82629,-0.63613 8.69447,-0.0486 2.24357,0.47978 4.48714,1.6388 5.86127,3.68732 0.98438,1.44475 1.27917,3.25606 1.59898,4.98112 -2.47842,0.0377 -4.95183,0.0323 -7.42527,0.006 -1.14928,-3.04042 -5.02181,-3.77897 -7.33534,-1.8868 -0.59463,0.44745 -0.99936,1.17522 -0.98937,1.96767 0.33978,1.17518 1.46407,1.71967 2.46844,2.05928 3.133,1.02966 6.47086,1.27761 9.50894,2.65768 1.68394,0.76009 3.22295,2.11321 3.83256,4.02154 0.96438,3.14286 0.41973,6.9434 -1.80886,9.32613 -2.37849,2.53907 -5.82629,3.51483 -9.0942,3.5849 -3.6077,0.11861 -7.52521,-0.26413 -10.46335,-2.7601 -1.82383,-1.52561 -2.59834,-3.99459 -2.91313,-6.37196 2.59835,-0.0594 5.20169,-0.0486 7.80502,-0.0162 1.26419,3.08894 5.14173,3.74662 7.68011,2.18328 0.78952,-0.49594 1.49905,-1.52021 1.16427,-2.54447 -0.37475,-0.9973 -1.36914,-1.42318 -2.23857,-1.73044 -2.79824,-0.90027 -5.74136,-1.20756 -8.48462,-2.31267 -1.99871,-0.8194 -3.9075,-2.31806 -4.67202,-4.53907 -0.75451,-2.26954 -0.72453,-4.87869 0.20488,-7.08354 1.24421,-2.7655 3.88252,-4.5337 6.60579,-5.18059 z"
     opacity="1"
     fill="#959595" />
  <path
     style="stroke-width:0.519007"
     id="path174"
     d="m 325.80336,280.05484 c 4.63205,-0.98113 10.03861,-0.6415 13.69129,2.95418 3.43282,3.32613 4.3972,8.60376 4.12738,13.38001 -0.11493,4.17791 -1.55402,8.54446 -4.68202,11.18597 -3.03308,2.63073 -7.14046,3.09432 -10.89308,2.78165 -3.40283,-0.23719 -6.81567,-1.86522 -8.91932,-4.82477 -1.95874,-2.74932 -2.78823,-6.26953 -2.80322,-9.69809 -0.10993,-3.30996 0.29482,-6.72774 1.81885,-9.65497 1.564,-3.12669 4.46217,-5.36387 7.66012,-6.12398 m 2.03871,6.97034 c -1.4241,0.73854 -2.27356,2.29112 -2.80322,3.83287 -0.8045,2.70081 -0.77449,5.68194 0.0249,8.38274 0.51466,1.73584 1.64894,3.3369 3.26791,4 1.57399,0.69001 3.48278,0.28571 4.74199,-0.93801 1.44408,-1.33693 2.05369,-3.4124 2.29354,-5.38544 0.27482,-2.71697 0.075,-5.65495 -1.34915,-7.99998 -1.23421,-2.1725 -4.0674,-3.21293 -6.17606,-1.89218 z"
     opacity="1"
     fill="#959595" />
  <path
     style="stroke-width:0.519007"
     id="path176"
     d="m 434.85397,284.41063 c 1.61896,-2.57142 4.40219,-3.9946 7.18044,-4.49055 2.85817,-0.50674 5.82628,-0.49596 8.64949,0.26414 2.32351,0.64154 4.53711,2.12398 5.69637,4.45283 0.87944,1.76819 1.03934,3.82209 1.01436,5.80052 -0.04,6.43125 0.015,12.86791 -0.035,19.30456 -2.57336,-0.0216 -5.14671,-0.0103 -7.71507,-0.0216 0,-0.95417 0.0199,-1.89757 0.0399,-2.84097 -3.21796,3.77897 -8.78441,4.30188 -12.96176,2.22101 -4.04742,-2.097 -5.18669,-8.00536 -3.21794,-12.097 1.36911,-2.68462 4.22731,-3.92452 6.8906,-4.44203 3.03808,-0.48518 6.11613,-0.51213 9.17916,-0.74932 -0.11492,-1.54179 0.12993,-3.43935 -1.09929,-4.54447 -2.37348,-1.85445 -6.10611,-1.19137 -7.64513,1.56333 -2.43845,0.027 -4.87691,0.043 -7.31535,-0.0378 0.23984,-1.51482 0.48469,-3.1051 1.33915,-4.38273 m 7.27036,13.8005 c -1.47405,0.59839 -2.25855,2.80325 -1.12428,4.14554 1.89879,2.52829 5.75133,1.7035 7.50523,-0.60915 1.06433,-1.22911 0.96438,-3.01886 1.0943,-4.57681 -2.4884,0.30189 -5.11174,0.0323 -7.47525,1.04042 z"
     opacity="1"
     fill="#959595" />
  <path
     style="stroke-width:0.519007"
     id="path178"
     d="m 475.39316,280.54003 c 2.16862,-1.11591 4.64704,-0.69543 6.95558,-0.5391 0.0249,2.56065 0.0249,5.12131 -0.0104,7.68733 -1.42909,-0.21026 -2.85819,-0.52831 -4.30226,-0.45285 -1.8888,0.15634 -3.77261,1.22373 -4.74199,3.01887 -0.77451,1.34771 -0.79449,2.98654 -0.80449,4.51752 0.0249,4.98651 0.0151,9.97301 0.0104,14.95953 -2.66331,-0.006 -5.3266,-0.006 -7.98491,0 -0.0104,-9.83826 -0.005,-19.67111 -0.005,-29.50937 2.57835,0 5.15671,-0.006 7.74008,0.006 -0.0199,1.07816 -0.035,2.15631 -0.06,3.23448 0.92442,-1.13209 1.88879,-2.30727 3.20295,-2.92183 z"
     opacity="1"
     fill="#959595" />
  <path
     style="stroke-width:0.519007"
     id="path180"
     d="m 488.96453,282.87425 c 2.14865,-2.17789 5.12174,-3.12128 8.01991,-3.26144 3.08303,-0.15634 6.37094,0.27492 8.96928,2.21563 2.13863,1.5202 3.63768,3.94067 4.37222,6.57141 0.83447,2.83557 0.82946,5.83825 0.78949,8.78164 -6.20106,0.0216 -12.39712,-0.027 -18.59816,0.0216 0.33977,1.92451 0.73953,4.0431 2.23858,5.34229 2.61333,2.39894 7.02052,1.63883 8.81438,-1.52559 2.48843,-0.0377 4.97684,-0.043 7.46525,0.006 -0.58962,2.79245 -1.96874,5.45552 -4.25229,7.01346 -3.00809,2.21025 -6.81067,2.57142 -10.34342,2.33963 -3.42781,-0.21563 -6.9156,-1.77359 -8.99927,-4.80864 -2.5184,-3.47706 -2.93313,-8.12395 -2.6733,-12.38269 0.17489,-3.82211 1.50403,-7.72507 4.19733,-10.31268 m 5.74136,4.58762 c -1.21424,1.02965 -1.64897,2.68462 -2.11866,4.19405 3.57771,0.0539 7.16043,0.0378 10.73815,0.0103 -0.41972,-1.67116 -0.89441,-3.50404 -2.29853,-4.52829 -1.83884,-1.56874 -4.62206,-1.38545 -6.32096,0.32344 z"
     opacity="1"
     fill="#959595" />
  <path
     style="stroke-width:0.519007"
     id="path182"
     d="m 389.8676,280.22734 c 2.72825,-0.0103 5.45652,-0.006 8.18978,0 1.2592,6.62534 2.55339,13.25066 3.80758,19.88138 1.42409,-6.6415 3.00309,-13.23987 4.45716,-19.87058 2.54837,-0.027 5.10177,-0.0216 7.65513,-0.0162 1.51905,6.63073 3.04307,13.25603 4.51212,19.89753 1.22423,-6.6361 2.5384,-13.25064 3.80259,-19.87596 2.6583,-0.0324 5.32161,-0.043 7.98491,0.006 -2.28852,9.85981 -4.80194,19.65494 -7.20541,29.48241 -2.82321,-0.006 -5.64641,-0.006 -8.4696,0 -1.50406,-6.32883 -3.00809,-12.65766 -4.57209,-18.97032 -1.52404,6.31805 -3.00308,12.65226 -4.52712,18.97032 -2.78823,-0.006 -5.57146,-0.006 -8.35469,-0.006 -2.42846,-9.83286 -4.8769,-19.66033 -7.28036,-29.49859 z"
     opacity="1"
     fill="#959595" />
  <g
     id="g2424"
     transform="matrix(1.035654,0,0,1.1062584,474.76326,-5.7940805)">
    <g
       style="fill:#4d4d4d;fill-opacity:1"
       id="g2809"
       transform="matrix(0.6378586,0,0,0.6378586,36.486487,2.17139)">
      <path
         style="fill:#4d4d4d;fill-opacity:1;fill-rule:evenodd;stroke:none"
         id="path2284"
         d="m 339.96875,309.09375 c -14.47141,-0.0239 -26.4812,2.94367 -31.125,4.5625 l -4.78125,25.8125 c -0.0116,0.0951 23.79543,-6.34855 34.28125,-5.96875 17.36158,0.62381 18.95948,6.63541 18.65625,14.75 0.29595,0.47462 -4.47933,-7.33192 -19.5,-7.59375 -18.94961,-0.32687 -45.69284,6.70947 -45.65625,35.3125 -0.51086,32.17412 24.03361,41.63882 40.75,41.8125 15.02821,-0.27364 22.0777,-5.69136 25.9375,-8.59375 5.07124,-5.30236 10.87308,-10.63447 16.40625,-17.03125 -5.23567,9.51278 -9.77472,16.0898 -14.5,21.125 v 4.25 l 22.84375,-3.84375 0.15625,-62.09375 c -0.23141,-8.78839 5.04123,-42.41827 -43.46875,-42.5 z m -3.28125,54.0625 c 9.46889,0.12995 20.32788,4.79708 20.34375,16.03125 0.049,10.21821 -12.80005,15.71183 -21.15625,15.625 -8.35976,-0.0868 -19.45093,-6.56982 -19.5,-16.53125 0.16016,-8.90444 10.45953,-15.35418 20.3125,-15.125 z" />
      <path
         style="fill:#4d4d4d;fill-opacity:1;fill-rule:evenodd;stroke:none"
         id="path2286"
         d="m 398.50106,314.83145 -0.15505,102.82693 26.61213,-5.12724 0.0449,-58.30157 c 0.006,-8.68089 12.40554,-18.82451 27.9627,-18.66287 3.30202,-5.97408 9.5087,-21.24219 11.02088,-24.71514 -34.75649,-0.0833 -35.19897,9.98993 -41.24398,14.94517 -0.0631,-9.45285 -0.0213,-15.12741 -0.0213,-15.12741 l -24.2202,4.16213 z" />
      <path
         style="fill:#4d4d4d;fill-opacity:1;fill-rule:evenodd;stroke:none"
         id="path2288"
         d="m 548.2688,328.33058 c -0.25696,-0.12068 -13.87938,-15.93419 -41.26638,-16.0589 -25.65249,-0.42638 -54.42578,9.51895 -54.88631,52.5328 0.22457,37.81852 27.6402,52.59809 55.0314,52.88627 29.31292,0.30451 40.97654,-18.32947 41.67615,-18.79124 -3.49762,-3.0321 -16.59792,-16.0131 -16.59792,-16.0131 0,0 -8.18236,11.65102 -24.05802,11.79913 -15.87942,0.1512 -29.68245,-12.27325 -29.87805,-29.60905 -0.20349,-17.33595 12.68881,-26.72821 29.99725,-27.48687 14.98466,-0.003 23.6297,9.67334 23.6297,9.67334 z" />
      <path
         style="fill:#4d4d4d;fill-opacity:1;fill-rule:evenodd;stroke:none"
         id="path2290"
         d="m 581.8125,278.84375 -25.125,5.90625 0.1875,133.9375 24.75,-4.46875 0.28125,-63.03125 c 0.0529,-6.60927 9.56127,-16.75916 25.4375,-16.4375 15.17973,0.15775 18.57236,10.11767 18.53125,11.375 l 0.4375,72.96875 24.40625,-4.3125 0.0937,-77.375 c 0.1607,-7.44539 -16.30833,-23.16954 -42.78125,-23.28125 -12.58087,0.0202 -19.54815,2.86825 -23.09375,4.96875 -6.06656,4.68565 -12.9998,9.17543 -19.8125,14.90625 6.29809,-8.09099 11.58551,-13.68516 16.75,-17.84375 l -0.0625,-37.3125 z" />
    </g>
    <g
       style="fill:#1793d1;fill-opacity:1;stroke:none"
       id="g5326"
       transform="matrix(0.9443373,0,0.01336345,0.9443373,78.345657,-412.48879)">
      <path
         style="fill:#1793d1;fill-opacity:1;fill-rule:evenodd;stroke:none"
         id="path2292"
         d="m 400.67581,629.79609 7.68167,-1.91575 -0.92851,91.20792 -7.79574,1.32426 z" />
      <path
         style="fill:#1793d1;fill-opacity:1;fill-rule:evenodd;stroke:none"
         id="path2294"
         d="m 421.10266,657.01757 6.75064,-2.9867 -0.86808,65.39931 -6.49779,1.33915 z m -1.26059,-23.58316 5.47167,-4.41533 4.42261,4.99952 -5.47558,4.53221 z" />
      <path
         style="fill:#1793d1;fill-opacity:1;fill-rule:evenodd;stroke:none"
         id="path2296"
         d="m 440.44273,655.82614 7.67755,-1.56201 -0.1573,13.6722 c -0.007,0.58717 4.4194,-15.27364 24.68502,-14.92094 19.67986,0.10952 22.68401,15.34634 22.5291,18.76237 l -0.43759,48.0783 -6.73044,1.45631 0.63316,-47.489 c 0.0974,-1.38684 -2.88144,-13.11441 -16.78906,-13.15754 -13.90509,-0.0404 -23.68364,10.10048 -23.75821,16.57937 l -0.48127,41.83477 -7.80388,2.0313 z" />
      <path
         style="fill:#1793d1;fill-opacity:1;fill-rule:evenodd;stroke:none"
         id="path2298"
         d="m 561.53301,720.20203 -7.6776,1.56186 0.15737,-13.67198 c 0.007,-0.58742 -4.42201,15.27361 -24.68504,14.92086 -19.67983,-0.10944 -22.68399,-15.34626 -22.52908,-18.76229 l 0.43757,-48.07861 8.15674,-1.64226 -0.54644,47.48988 c -0.0149,1.29682 1.36845,13.29979 15.27604,13.3426 13.90511,0.0405 23.76622,-8.37359 24.01453,-21.04416 l 0.43105,-37.46902 7.5978,-1.93195 z" />
      <path
         style="fill:#1793d1;fill-opacity:1;fill-rule:evenodd;stroke:none"
         id="path2300"
         d="m 577.45461,655.28678 -5.42715,4.20017 20.19894,26.93328 -22.39092,31.11622 5.63499,4.226 21.04365,-28.8967 20.8779,29.58159 5.32727,-4.20103 -22.37578,-31.62866 18.56963,-25.5775 -5.53193,-4.73429 -16.92109,23.66778 z" />
    </g>
    <path
       style="fill:#1793d1;fill-opacity:1;fill-rule:evenodd;stroke:none"
       id="path2518"
       transform="matrix(1.1433333,0,0,1.1433333,22.920168,121.64318)"
       d="m 105.8125,16.625 c -7.39687,18.135158 -11.858304,29.997682 -20.09375,47.59375 5.04936,5.35232 11.247211,11.585364 21.3125,18.625 C 96.210077,78.390904 88.828713,73.920352 83.3125,69.28125 72.7727,91.274163 56.259864,122.60209 22.75,182.8125 49.087628,167.60733 69.504089,158.23318 88.53125,154.65625 87.714216,151.1422 87.2497,147.34107 87.28125,143.375 l 0.03125,-0.84375 c 0.417917,-16.87382 9.195665,-29.84979 19.59375,-28.96875 10.39809,0.88104 18.48041,15.28242 18.0625,32.15625 -0.0786,3.17512 -0.43674,6.22955 -1.0625,9.0625 18.82058,3.68164 39.01873,13.03179 65,28.03125 -5.123,-9.4318 -9.69572,-17.93388 -14.0625,-26.03125 -6.87839,-5.33121 -14.05289,-12.2698 -28.6875,-19.78125 10.05899,2.61375 17.2611,5.62932 22.875,9 C 124.63297,63.338161 121.03766,52.354109 105.8125,16.625 Z" />
    <g
       style="font-style:normal;font-weight:normal;font-size:8.44138px;font-family:'DejaVu Sans Mono';fill:#1793d1;fill-opacity:1;stroke:none"
       id="text2634">
      <path
         style="fill:#1793d1;fill-opacity:1"
         id="path3945"
         d="m 685.46692,263.83624 v -5.32944 h -1.99082 v -0.71307 h 4.7895 v 0.71307 h -1.99906 v 5.32944 h -0.79962" />
      <path
         style="fill:#1793d1;fill-opacity:1"
         id="path3947"
         d="m 689.0982,263.83624 v -6.04251 h 1.20355 l 1.43026,4.2784 c 0.13189,0.39843 0.22806,0.69658 0.28852,0.89442 0.0687,-0.21983 0.17586,-0.5427 0.3215,-0.96862 l 1.44674,-4.2042 h 1.07578 v 6.04251 h -0.77077 v -5.05741 l -1.75587,5.05741 h -0.72131 l -1.74763,-5.14396 v 5.14396 h -0.77077" />
    </g>
    <g
       style="font-style:normal;font-weight:normal;font-size:8.2513px;font-family:'DejaVu Sans Mono';fill:#1793d1;fill-opacity:1;stroke:none"
       id="text2638">
      <path
         style="fill:#1793d1;fill-opacity:1"
         id="path3940"
         d="m 239.84053,313.69965 v -5.20945 h -1.94598 v -0.697 h 4.68164 v 0.697 h -1.95404 v 5.20945 h -0.78162" />
      <path
         style="fill:#1793d1;fill-opacity:1"
         id="path3942"
         d="m 243.39004,313.69965 v -5.90645 h 1.17646 l 1.39805,4.18205 c 0.12892,0.38947 0.22293,0.6809 0.28202,0.87429 0.0671,-0.21488 0.1719,-0.53048 0.31426,-0.94681 l 1.41417,-4.10953 h 1.05155 v 5.90645 h -0.75341 v -4.94353 l -1.71634,4.94353 h -0.70506 l -1.70828,-5.02814 v 5.02814 h -0.75342" />
    </g>
  </g>
</svg>
