<?xml version="1.0" encoding="UTF-8" ?>
<svg id="weather34 lightning alert notification" width="30pt" height="30pt" viewBox="0 0 980 980" version="1.1" xmlns="http://www.w3.org/2000/svg">
<path fill="#777" opacity="1.00" d=" M 487.61 0.00 L 492.24 0.00 C 568.51 0.51 644.75 18.54 712.60 53.51 C 810.50 103.18 890.64 186.90 935.92 286.91 C 964.80 349.65 979.48 418.66 980.00 487.67 L 980.00 492.18 C 979.52 546.27 970.62 600.36 952.65 651.43 C 927.78 723.04 885.79 788.61 831.37 841.36 C 772.46 898.80 698.83 941.06 619.41 962.60 C 578.06 974.04 535.19 979.53 492.32 980.00 L 487.81 980.00 C 420.81 979.51 353.84 965.68 292.56 938.46 C 224.57 908.61 163.65 862.89 115.76 806.16 C 69.92 752.04 35.98 687.86 17.40 619.41 C 5.96 578.07 0.47 535.20 0.00 492.34 L 0.00 487.75 C 0.47 477.47 0.26 467.15 1.23 456.90 C 5.88 384.93 26.88 314.08 62.16 251.19 C 92.80 196.34 134.13 147.48 183.11 108.13 C 241.46 61.07 310.77 27.65 384.01 11.63 C 417.99 3.99 452.81 0.44 487.61 0.00 M 484.29 50.35 C 458.32 50.65 432.38 53.26 406.88 58.15 C 339.95 70.86 276.17 99.61 222.22 141.19 C 169.35 181.73 125.83 234.43 96.16 294.10 C 64.73 356.85 48.93 427.31 50.29 497.46 C 51.26 565.85 68.60 633.95 100.54 694.44 C 136.57 763.14 191.17 821.95 256.98 863.03 C 315.30 899.68 382.43 922.18 451.06 928.08 C 513.39 933.60 576.91 925.83 635.94 905.00 C 682.43 888.68 726.12 864.41 764.55 833.58 C 836.51 776.28 889.84 695.85 914.03 607.06 C 932.00 542.16 934.60 473.09 921.95 406.96 C 907.92 332.97 874.18 262.87 825.33 205.57 C 779.86 151.88 721.31 109.32 656.14 82.78 C 601.82 60.52 542.97 49.52 484.29 50.35 Z" /><path fill="#ff8841" opacity="1.00" d=" M 280.42 535.45 C 406.33 410.20 532.24 284.98 658.17 159.76 C 625.31 254.76 592.38 349.74 559.50 444.74 C 606.23 444.76652.95 444.73 699.68 444.75 C 570.73 569.96 441.79 695.16 312.83 820.34 C 348.70 725.37 384.62 630.42 420.49 535.46 C 373.80 535.45 327.11 535.46 280.42 535.45 Z" /></svg>
