<?xml version="1.0" encoding="UTF-8" ?>
<!DOCTYPE svg PUBLIC "-//W3C//DTD SVG 1.1//EN" "http://www.w3.org/Graphics/SVG/1.1/DTD/svg11.dtd">
<svg width="500pt" height="250pt" viewBox="0 250 500 10" version="1.1" xmlns="http://www.w3.org/2000/svg">
<path fill="#9a0000" stroke="#9a0000" stroke-width="0.09375" opacity="1.00" d=" M 0.00 0.00 L 500.00 0.00 L 500.00 500.00 L 0.00 500.00 L 0.00 0.00 M 286.11 194.32 C 271.15 214.02 256.11 233.67 241.07 253.32 C 233.69 250.36 224.96 250.29 217.82 253.98 C 210.08 257.80 204.35 265.51 203.09 274.08 C 201.53 282.94 204.84 292.44 211.46 298.52 C 219.65 306.35 232.87 308.02 242.82 302.64 C 253.50 297.21 259.61 284.22 256.74 272.54 C 255.66 266.99 252.47 262.16 248.58 258.17 C 262.79 239.76 276.81 221.21 290.96 202.76 C 305.13 202.76 319.30 202.75 333.46 202.76 C 333.46 199.93 333.46 197.10 333.46 194.26 C 317.68 194.31 301.89 194.21 286.11 194.32 M 333.00 207.93 C 324.65 214.36 316.54 221.36 306.91 225.85 C 302.23 228.18 297.16 229.51 292.15 230.89 C 292.62 231.33 293.09 231.77 293.56 232.22 C 302.04 232.72 310.69 231.21 318.26 227.26 C 325.76 223.32 332.49 218.04 340.21 214.48 C 345.85 218.77 352.52 221.53 357.92 226.15 C 360.72 228.48 362.41 231.77 363.84 235.05 C 376.67 234.65 389.63 234.74 402.23 231.88 C 411.68 229.89 420.76 226.15 428.78 220.75 C 434.99 227.04 444.48 229.76 453.07 227.72 C 458.35 226.62 463.28 223.42 465.86 218.59 C 459.60 219.93 452.96 221.55 446.74 219.15 C 438.77 216.15 431.56 211.16 423.04 209.66 C 414.24 218.66 401.45 222.79 389.03 222.36 C 370.84 221.80 353.50 215.26 337.11 207.83 C 335.80 207.15 334.14 206.66 333.00 207.93 M 34.70 237.52 L 34.66 239.28 C 37.28 239.59 40.43 239.56 42.23 241.85 C 44.02 244.15 43.58 247.25 43.68 249.96 C 43.49 265.12 43.96 280.30 43.45 295.45 C 43.06 300.45 37.13 299.87 33.62 300.92 C 37.39 303.06 41.87 301.87 45.99 302.15 C 50.14 301.86 54.66 303.08 58.45 300.90 C 55.90 300.22 53.23 300.13 50.72 299.31 C 48.14 297.89 48.31 294.60 48.21 292.07 C 48.30 277.55 48.07 263.03 48.35 248.52 C 56.34 266.57 64.78 284.42 72.98 302.38 C 73.47 302.16 74.46 301.73 74.96 301.51 C 82.93 283.75 91.14 266.10 99.24 248.40 C 99.37 261.94 99.24 275.47 99.31 289.00 C 99.29 291.85 99.48 294.82 98.34 297.50 C 96.69 300.39 92.93 300.06 90.08 300.34 C 90.14 300.80 90.25 301.71 90.31 302.17 C 99.41 302.15 108.52 302.15 117.62 302.16 C 117.67 301.70 117.77 300.78 117.81 300.32 C 114.91 300.32 111.97 299.92 109.51 298.26 C 108.88 295.56 108.48 292.79 108.58 290.01 C 108.72 275.00 108.41 259.98 108.73 244.97 C 108.71 240.24 113.92 238.87 117.76 239.36 L 117.74 237.52 C 111.56 237.53 105.38 237.48 99.20 237.56 C 91.64 254.30 84.03 271.04 76.23 287.68 C 68.73 270.88 60.78 254.28 53.17 237.52 C 47.01 237.52 40.86 237.51 34.70 237.52 M 275.18 239.66 C 277.60 240.48 281.16 240.26 282.30 243.11 C 283.07 245.31 282.63 247.69 282.51 249.96 C 280.80 265.93 279.23 281.91 277.50 297.88 C 277.25 300.29 277.02 302.75 277.67 305.12 C 279.04 303.58 280.23 301.89 281.37 300.18 C 291.12 285.09 300.93 270.04 310.69 254.95 C 309.27 271.58 307.13 288.14 305.67 304.77 C 307.05 304.18 308.38 303.37 309.09 302.00 C 319.95 285.22 330.84 268.45 341.71 251.68 C 343.66 248.70 345.65 245.69 348.28 243.26 C 350.60 240.98 353.93 240.37 356.63 238.70 C 351.48 237.71 346.21 238.37 341.01 238.16 C 339.23 238.37 336.69 237.44 335.88 239.64 C 338.23 240.32 340.49 241.38 341.53 243.75 C 340.45 246.80 339.05 249.73 337.27 252.42 C 330.15 263.40 322.84 274.26 315.79 285.28 C 317.24 274.54 318.24 263.73 319.38 252.95 C 319.81 249.45 319.65 245.65 321.39 242.47 C 323.39 239.15 328.29 241.45 330.50 238.42 C 321.70 238.01 312.85 238.11 304.05 238.32 C 303.78 238.72 303.24 239.51 302.98 239.90 C 304.91 240.30 306.97 240.35 308.83 241.12 C 311.71 242.25 312.54 246.39 310.70 248.75 C 302.95 260.74 295.10 272.68 287.41 284.71 C 288.80 271.38 289.66 257.95 291.82 244.73 C 292.52 239.98 298.12 240.61 301.38 238.81 C 295.01 237.48 288.42 238.51 281.96 238.16 C 279.69 238.45 276.61 237.27 275.18 239.66 M 166.78 273.28 C 171.41 280.30 180.33 282.22 186.57 287.35 C 189.19 289.47 190.63 293.54 188.51 296.50 C 185.03 301.87 176.97 301.20 172.37 297.69 C 168.60 295.19 168.10 290.43 166.73 286.51 C 165.08 292.11 166.13 298.03 165.89 303.79 C 166.88 302.68 167.82 301.51 168.91 300.50 C 172.46 301.19 175.83 302.67 179.43 303.16 C 184.86 303.73 190.87 301.65 193.83 296.85 C 196.98 292.08 195.83 285.21 191.48 281.57 C 185.62 276.80 178.00 274.65 172.47 269.43 C 170.23 267.29 170.31 263.64 172.48 261.48 C 176.15 257.07 183.20 258.36 186.99 261.95 C 190.19 264.64 190.45 269.09 192.08 272.68 C 193.14 266.87 192.73 260.86 192.28 255.00 C 191.45 256.18 190.65 257.38 189.88 258.59 C 184.83 257.08 179.51 254.52 174.18 256.44 C 167.23 258.24 162.88 266.90 166.78 273.28 M 416.04 259.30 C 411.70 258.24 407.54 255.67 402.91 256.62 C 395.52 257.25 389.97 265.68 393.35 272.59 C 396.86 278.85 403.45 282.78 406.90 289.11 C 408.57 292.78 407.19 297.56 403.90 299.85 C 399.39 302.63 392.83 301.23 389.93 296.77 C 387.72 293.58 388.74 289.52 388.10 285.92 C 385.63 291.74 384.91 298.12 383.57 304.26 C 385.32 303.05 387.06 300.31 389.52 301.55 C 394.84 303.69 401.08 304.97 406.47 302.31 C 412.53 299.68 415.41 292.00 413.12 285.92 C 410.09 279.47 403.51 275.84 399.57 270.08 C 398.07 267.88 397.74 264.65 399.43 262.48 C 402.89 257.60 411.20 258.56 414.23 263.43 C 416.03 266.11 415.34 269.51 415.92 272.53 C 418.38 267.35 419.01 261.53 420.14 255.96 C 418.77 257.07 417.49 258.29 416.04 259.30 M 121.22 256.75 L 121.07 258.11 C 122.84 258.30 124.59 258.54 126.35 258.81 C 126.94 260.81 127.47 262.85 127.38 264.95 C 127.36 274.64 127.35 284.33 127.38 294.01 C 127.31 295.82 127.52 297.82 126.42 299.39 C 124.58 300.72 122.18 300.64 120.09 301.31 C 123.25 302.59 126.69 302.10 130.01 302.16 C 138.44 302.07 146.88 302.31 155.32 302.07 C 157.74 298.53 158.79 293.89 159.50 289.66 C 156.40 292.81 154.87 298.06 150.09 299.13 C 144.94 299.87 139.70 299.55 134.53 299.30 C 133.42 292.85 133.79 286.26 134.17 279.76 C 138.39 279.95 142.69 279.37 146.87 280.11 C 150.19 280.62 150.30 284.46 151.02 287.04 C 151.32 286.65 151.91 285.88 152.21 285.49 C 152.16 280.57 152.18 275.65 152.18 270.73 L 150.98 270.65 C 150.26 272.74 150.16 275.94 147.55 276.61 C 143.20 277.75 138.64 276.96 134.20 277.20 C 133.62 271.34 133.93 265.45 133.86 259.58 C 139.30 259.65 144.77 259.27 150.20 259.76 C 153.98 260.67 153.87 265.29 156.09 267.79 C 156.46 264.11 156.10 260.42 155.68 256.76 C 144.19 256.77 132.71 256.79 121.22 256.75 M 352.16 258.00 C 353.99 258.69 355.87 259.24 357.74 259.82 C 357.83 261.96 357.79 264.14 357.16 266.21 C 354.39 275.80 351.63 285.40 348.89 295.00 C 348.26 296.86 347.77 298.94 346.26 300.33 C 344.39 301.13 342.40 301.59 340.50 302.31 C 352.38 303.40 364.40 302.47 376.34 302.79 C 377.83 298.44 379.48 294.13 380.60 289.66 C 377.51 291.52 376.44 295.35 373.41 297.29 C 367.90 301.32 360.72 300.29 354.33 300.23 C 354.38 293.39 357.74 287.12 359.00 280.47 C 362.56 280.47 366.35 279.88 369.60 281.69 C 369.69 284.01 369.68 286.31 369.80 288.63 C 372.95 283.40 373.41 277.07 375.54 271.41 C 375.20 271.39 374.51 271.37 374.17 271.36 C 372.87 273.55 371.78 276.35 369.10 277.16 C 366.08 278.03 362.88 277.75 359.78 277.82 C 361.50 271.96 363.16 266.09 364.84 260.22 C 370.45 260.49 376.85 258.97 381.58 262.86 C 381.71 264.71 381.84 266.55 382.00 268.40 C 382.32 268.45 382.95 268.56 383.27 268.61 C 384.25 264.96 385.17 261.29 386.03 257.61 C 374.75 257.82 363.41 257.10 352.16 258.00 M 425.11 257.64 C 424.43 261.97 422.08 266.10 422.61 270.57 C 424.32 267.79 425.12 264.10 428.13 262.35 C 431.29 260.30 435.20 260.44 438.81 260.27 C 435.70 271.40 432.45 282.50 429.26 293.61 C 428.49 295.92 427.90 298.44 426.21 300.29 C 424.12 301.16 421.85 301.50 419.81 302.51 C 423.88 303.01 427.99 302.72 432.07 302.79 C 435.12 302.73 438.27 303.17 441.21 302.10 C 438.86 301.51 436.50 301.02 434.17 300.37 C 434.30 298.55 434.49 296.73 435.00 294.98 C 438.38 283.46 441.58 271.88 444.85 260.33 C 447.99 260.59 451.56 259.79 454.37 261.54 C 456.49 264.09 454.75 267.63 455.75 270.59 C 457.58 266.41 458.67 261.97 460.02 257.62 C 448.39 257.59 436.75 257.56 425.11 257.64 Z" />
<path fill="#ffffff" stroke="#ffffff" stroke-width="0.09375" opacity="1.00" d=" M 286.11 194.32 C 301.89 194.21 317.68 194.31 333.46 194.26 C 333.46 197.10 333.46 199.93 333.46 202.76 C 319.30 202.75 305.13 202.76 290.96 202.76 C 276.81 221.21 262.79 239.76 248.58 258.17 C 252.47 262.16 255.66 266.99 256.74 272.54 C 259.61 284.22 253.50 297.21 242.82 302.64 C 232.87 308.02 219.65 306.35 211.46 298.52 C 204.84 292.44 201.53 282.94 203.09 274.08 C 204.35 265.51 210.08 257.80 217.82 253.98 C 224.96 250.29 233.69 250.36 241.07 253.32 C 256.11 233.67 271.15 214.02 286.11 194.32 M 225.38 259.68 C 218.53 261.41 212.85 267.07 211.29 273.99 C 209.29 281.44 212.65 289.78 218.91 294.16 C 224.76 298.51 233.15 298.93 239.46 295.29 C 247.35 291.07 251.46 280.83 248.38 272.37 C 245.49 263.01 234.85 257.18 225.38 259.68 Z" />
<path fill="#ffffff" stroke="#ffffff" stroke-width="0.09375" opacity="1.00" d=" M 333.00 207.93 C 334.14 206.66 335.80 207.15 337.11 207.83 C 353.50 215.26 370.84 221.80 389.03 222.36 C 401.45 222.79 414.24 218.66 423.04 209.66 C 431.56 211.16 438.77 216.15 446.74 219.15 C 452.96 221.55 459.60 219.93 465.86 218.59 C 463.28 223.42 458.35 226.62 453.07 227.72 C 444.48 229.76 434.99 227.04 428.78 220.75 C 420.76 226.15 411.68 229.89 402.23 231.88 C 389.63 234.74 376.67 234.65 363.84 235.05 C 362.41 231.77 360.72 228.48 357.92 226.15 C 352.52 221.53 345.85 218.77 340.21 214.48 C 332.49 218.04 325.76 223.32 318.26 227.26 C 310.69 231.21 302.04 232.72 293.56 232.22 C 293.09 231.77 292.62 231.33 292.15 230.89 C 297.16 229.51 302.23 228.18 306.91 225.85 C 316.54 221.36 324.65 214.36 333.00 207.93 Z" />
<path fill="#ffffff" stroke="#ffffff" stroke-width="0.09375" opacity="1.00" d=" M 34.70 237.52 C 40.86 237.51 47.01 237.52 53.17 237.52 C 60.78 254.28 68.73 270.88 76.23 287.68 C 84.03 271.04 91.64 254.30 99.20 237.56 C 105.38 237.48 111.56 237.53 117.74 237.52 L 117.76 239.36 C 113.92 238.87 108.71 240.24 108.73 244.97 C 108.41 259.98 108.72 275.00 108.58 290.01 C 108.48 292.79 108.88 295.56 109.51 298.26 C 111.97 299.92 114.91 300.32 117.81 300.32 C 117.77 300.78 117.67 301.70 117.62 302.16 C 108.52 302.15 99.41 302.15 90.31 302.17 C 90.25 301.71 90.14 300.80 90.08 300.34 C 92.93 300.06 96.69 300.39 98.34 297.50 C 99.48 294.82 99.29 291.85 99.31 289.00 C 99.24 275.47 99.37 261.94 99.24 248.40 C 91.14 266.10 82.93 283.75 74.96 301.51 C 74.46 301.73 73.47 302.16 72.98 302.38 C 64.78 284.42 56.34 266.57 48.35 248.52 C 48.07 263.03 48.30 277.55 48.21 292.07 C 48.31 294.60 48.14 297.89 50.72 299.31 C 53.23 300.13 55.90 300.22 58.45 300.90 C 54.66 303.08 50.14 301.86 45.99 302.15 C 41.87 301.87 37.39 303.06 33.62 300.92 C 37.13 299.87 43.06 300.45 43.45 295.45 C 43.96 280.30 43.49 265.12 43.68 249.96 C 43.58 247.25 44.02 244.15 42.23 241.85 C 40.43 239.56 37.28 239.59 34.66 239.28 L 34.70 237.52 Z" />
<path fill="#ffffff" stroke="#ffffff" stroke-width="0.09375" opacity="1.00" d=" M 275.18 239.66 C 276.61 237.27 279.69 238.45 281.96 238.16 C 288.42 238.51 295.01 237.48 301.38 238.81 C 298.12 240.61 292.52 239.98 291.82 244.73 C 289.66 257.95 288.80 271.38 287.41 284.71 C 295.10 272.68 302.95 260.74 310.70 248.75 C 312.54 246.39 311.71 242.25 308.83 241.12 C 306.97 240.35 304.91 240.30 302.98 239.90 C 303.24 239.51 303.78 238.72 304.05 238.32 C 312.85 238.11 321.70 238.01 330.50 238.42 C 328.29 241.45 323.39 239.15 321.39 242.47 C 319.65 245.65 319.81 249.45 319.38 252.95 C 318.24 263.73 317.24 274.54 315.79 285.28 C 322.84 274.26 330.15 263.40 337.27 252.42 C 339.05 249.73 340.45 246.80 341.53 243.75 C 340.49 241.38 338.23 240.32 335.88 239.64 C 336.69 237.44 339.23 238.37 341.01 238.16 C 346.21 238.37 351.48 237.71 356.63 238.70 C 353.93 240.37 350.60 240.98 348.28 243.26 C 345.65 245.69 343.66 248.70 341.71 251.68 C 330.84 268.45 319.95 285.22 309.09 302.00 C 308.38 303.37 307.05 304.18 305.67 304.77 C 307.13 288.14 309.27 271.58 310.69 254.95 C 300.93 270.04 291.12 285.09 281.37 300.18 C 280.23 301.89 279.04 303.58 277.67 305.12 C 277.02 302.75 277.25 300.29 277.50 297.88 C 279.23 281.91 280.80 265.93 282.51 249.96 C 282.63 247.69 283.07 245.31 282.30 243.11 C 281.16 240.26 277.60 240.48 275.18 239.66 Z" />
<path fill="#ffffff" stroke="#ffffff" stroke-width="0.09375" opacity="1.00" d=" M 166.78 273.28 C 162.88 266.90 167.23 258.24 174.18 256.44 C 179.51 254.52 184.83 257.08 189.88 258.59 C 190.65 257.38 191.45 256.18 192.28 255.00 C 192.73 260.86 193.14 266.87 192.08 272.68 C 190.45 269.09 190.19 264.64 186.99 261.95 C 183.20 258.36 176.15 257.07 172.48 261.48 C 170.31 263.64 170.23 267.29 172.47 269.43 C 178.00 274.65 185.62 276.80 191.48 281.57 C 195.83 285.21 196.98 292.08 193.83 296.85 C 190.87 301.65 184.86 303.73 179.43 303.16 C 175.83 302.67 172.46 301.19 168.91 300.50 C 167.82 301.51 166.88 302.68 165.89 303.79 C 166.13 298.03 165.08 292.11 166.73 286.51 C 168.10 290.43 168.60 295.19 172.37 297.69 C 176.97 301.20 185.03 301.87 188.51 296.50 C 190.63 293.54 189.19 289.47 186.57 287.35 C 180.33 282.22 171.41 280.30 166.78 273.28 Z" />
<path fill="#ffffff" stroke="#ffffff" stroke-width="0.09375" opacity="1.00" d=" M 416.04 259.30 C 417.49 258.29 418.77 257.07 420.14 255.96 C 419.01 261.53 418.38 267.35 415.92 272.53 C 415.34 269.51 416.03 266.11 414.23 263.43 C 411.20 258.56 402.89 257.60 399.43 262.48 C 397.74 264.65 398.07 267.88 399.57 270.08 C 403.51 275.84 410.09 279.47 413.12 285.92 C 415.41 292.00 412.53 299.68 406.47 302.31 C 401.08 304.97 394.84 303.69 389.52 301.55 C 387.06 300.31 385.32 303.05 383.57 304.26 C 384.91 298.12 385.63 291.74 388.10 285.92 C 388.74 289.52 387.72 293.58 389.93 296.77 C 392.83 301.23 399.39 302.63 403.90 299.85 C 407.19 297.56 408.57 292.78 406.90 289.11 C 403.45 282.78 396.86 278.85 393.35 272.59 C 389.97 265.68 395.52 257.25 402.91 256.62 C 407.54 255.67 411.70 258.24 416.04 259.30 Z" />
<path fill="#ffffff" stroke="#ffffff" stroke-width="0.09375" opacity="1.00" d=" M 121.22 256.75 C 132.71 256.79 144.19 256.77 155.68 256.76 C 156.10 260.42 156.46 264.11 156.09 267.79 C 153.87 265.29 153.98 260.67 150.20 259.76 C 144.77 259.27 139.30 259.65 133.86 259.58 C 133.93 265.45 133.62 271.34 134.20 277.20 C 138.64 276.96 143.20 277.75 147.55 276.61 C 150.16 275.94 150.26 272.74 150.98 270.65 L 152.18 270.73 C 152.18 275.65 152.16 280.57 152.21 285.49 C 151.91 285.88 151.32 286.65 151.02 287.04 C 150.30 284.46 150.19 280.62 146.87 280.11 C 142.69 279.37 138.39 279.95 134.17 279.76 C 133.79 286.26 133.42 292.85 134.53 299.30 C 139.70 299.55 144.94 299.87 150.09 299.13 C 154.87 298.06 156.40 292.81 159.50 289.66 C 158.79 293.89 157.74 298.53 155.32 302.07 C 146.88 302.31 138.44 302.07 130.01 302.16 C 126.69 302.10 123.25 302.59 120.09 301.31 C 122.18 300.64 124.58 300.72 126.42 299.39 C 127.52 297.82 127.31 295.82 127.38 294.01 C 127.35 284.33 127.36 274.64 127.38 264.95 C 127.47 262.85 126.94 260.81 126.35 258.81 C 124.59 258.54 122.84 258.30 121.07 258.11 L 121.22 256.75 Z" />
<path fill="#ffffff" stroke="#ffffff" stroke-width="0.09375" opacity="1.00" d=" M 352.16 258.00 C 363.41 257.10 374.75 257.82 386.03 257.61 C 385.17 261.29 384.25 264.96 383.27 268.61 C 382.95 268.56 382.32 268.45 382.00 268.40 C 381.84 266.55 381.71 264.71 381.58 262.86 C 376.85 258.97 370.45 260.49 364.84 260.22 C 363.16 266.09 361.50 271.96 359.78 277.82 C 362.88 277.75 366.08 278.03 369.10 277.16 C 371.78 276.35 372.87 273.55 374.17 271.36 C 374.51 271.37 375.20 271.39 375.54 271.41 C 373.41 277.07 372.95 283.40 369.80 288.63 C 369.68 286.31 369.69 284.01 369.60 281.69 C 366.35 279.88 362.56 280.47 359.00 280.47 C 357.74 287.12 354.38 293.39 354.33 300.23 C 360.72 300.29 367.90 301.32 373.41 297.29 C 376.44 295.35 377.51 291.52 380.60 289.66 C 379.48 294.13 377.83 298.44 376.34 302.79 C 364.40 302.47 352.38 303.40 340.50 302.31 C 342.40 301.59 344.39 301.13 346.26 300.33 C 347.77 298.94 348.26 296.86 348.89 295.00 C 351.63 285.40 354.39 275.80 357.16 266.21 C 357.79 264.14 357.83 261.96 357.74 259.82 C 355.87 259.24 353.99 258.69 352.16 258.00 Z" />
<path fill="#ffffff" stroke="#ffffff" stroke-width="0.09375" opacity="1.00" d=" M 425.11 257.64 C 436.75 257.56 448.39 257.59 460.02 257.62 C 458.67 261.97 457.58 266.41 455.75 270.59 C 454.75 267.63 456.49 264.09 454.37 261.54 C 451.56 259.79 447.99 260.59 444.85 260.33 C 441.58 271.88 438.38 283.46 435.00 294.98 C 434.49 296.73 434.30 298.55 434.17 300.37 C 436.50 301.02 438.86 301.51 441.21 302.10 C 438.27 303.17 435.12 302.73 432.07 302.79 C 427.99 302.72 423.88 303.01 419.81 302.51 C 421.85 301.50 424.12 301.16 426.21 300.29 C 427.90 298.44 428.49 295.92 429.26 293.61 C 432.45 282.50 435.70 271.40 438.81 260.27 C 435.20 260.44 431.29 260.30 428.13 262.35 C 425.12 264.10 424.32 267.79 422.61 270.57 C 422.08 266.10 424.43 261.97 425.11 257.64 Z" />
<path fill="#9a0000" stroke="#9a0000" stroke-width="0.09375" opacity="1.00" d=" M 225.38 259.68 C 234.85 257.18 245.49 263.01 248.38 272.37 C 251.46 280.83 247.35 291.07 239.46 295.29 C 233.15 298.93 224.76 298.51 218.91 294.16 C 212.65 289.78 209.29 281.44 211.29 273.99 C 212.85 267.07 218.53 261.41 225.38 259.68 Z" />
</svg>
