<?xml version="1.0" encoding="UTF-8" ?>
<svg width="309pt" height="70pt" viewBox="0 0 309 70" id="weather34 meteobridge logo" version="1.1" xmlns="http://www.w3.org/2000/svg">
<path fill="#b7b7b7" opacity="1.00" d=" M 136.53 7.00 C 137.98 7.00 139.42 7.00 140.87 7.00 C 140.85 11.21 140.91 15.42 140.80 19.63 C 142.81 17.87 145.07 15.94 147.91 15.97 C 152.95 15.58 157.59 19.51 158.42 24.43 C 159.58 30.53 158.62 38.26 152.87 41.81 C 148.75 44.30 143.32 42.90 140.64 38.96 C 140.68 39.72 140.74 41.23 140.77 41.99 C 139.36 41.99 137.95 42.00 136.54 42.00 C 136.53 30.34 136.53 18.67 136.53 7.00 M 145.43 20.43 C 139.84 22.54 140.07 29.92 141.52 34.67 C 142.74 39.41 149.99 40.71 152.66 36.54 C 154.98 32.67 155.16 27.59 153.37 23.47 C 152.06 20.54 148.35 19.04 145.43 20.43 Z" />
<path fill="#b7b7b7" opacity="1.00" d=" M 206.54 7.00 C 207.94 7.00 209.33 7.00 210.74 7.00 C 210.73 18.67 210.73 30.33 210.73 42.00 C 209.33 42.00 207.93 41.99 206.54 41.99 C 206.60 41.14 206.71 39.44 206.77 38.59 C 204.79 40.86 202.26 43.05 199.07 43.03 C 193.92 43.34 189.73 38.83 188.75 34.07 C 187.86 29.13 188.34 23.57 191.54 19.50 C 193.75 16.67 197.59 15.39 201.08 16.15 C 203.42 16.55 204.99 18.47 206.86 19.75 C 206.29 15.52 206.59 11.25 206.54 7.00 M 197.46 20.42 C 192.18 22.72 192.16 29.85 193.64 34.55 C 194.70 38.40 199.64 40.32 203.00 38.17 C 206.81 35.48 206.98 30.18 206.32 26.00 C 205.96 21.92 201.36 18.56 197.46 20.42 Z" />
<path fill="#b7b7b7" opacity="1.00" d=" M 233.54 7.00 C 234.93 7.00 236.33 7.00 237.74 7.00 C 237.73 18.67 237.73 30.34 237.73 42.00 C 236.33 42.00 234.93 41.99 233.54 41.99 C 233.60 41.14 233.71 39.44 233.77 38.59 C 231.79 40.84 229.29 43.04 226.11 43.03 C 220.53 43.37 216.12 38.16 215.57 32.95 C 214.77 27.30 216.00 20.43 221.19 17.20 C 225.33 14.72 230.85 16.01 233.62 19.92 C 233.47 15.61 233.55 11.30 233.54 7.00 M 224.46 20.42 C 219.18 22.71 219.16 29.84 220.63 34.54 C 221.69 38.41 226.68 40.34 230.04 38.14 C 233.80 35.45 233.97 30.20 233.33 26.05 C 232.98 21.95 228.38 18.55 224.46 20.42 Z" />
<path fill="#b7b7b7" opacity="1.00" d=" M 286.54 7.00 C 287.93 7.00 289.33 7.00 290.74 7.00 C 290.73 18.67 290.73 30.33 290.73 42.00 C 289.33 42.00 287.93 41.99 286.54 41.99 C 286.60 41.14 286.71 39.44 286.77 38.59 C 284.77 40.87 282.22 43.08 279.00 43.03 C 273.07 43.31 268.62 37.46 268.45 31.92 C 267.84 26.20 269.61 19.08 275.39 16.63 C 279.43 14.88 284.08 16.45 286.62 19.92 C 286.47 15.61 286.55 11.31 286.54 7.00 M 277.46 20.42 C 272.18 22.71 272.17 29.83 273.63 34.53 C 274.68 38.39 279.63 40.33 283.00 38.17 C 286.80 35.49 286.98 30.21 286.33 26.03 C 285.97 21.94 281.38 18.56 277.46 20.42 Z" />
<path fill="#9aba2f" opacity="1.00" d=" M 124.87 10.00 C 126.29 10.00 127.71 10.00 129.13 10.00 C 129.13 12.00 129.13 14.00 129.13 16.00 C 130.51 16.00 131.89 16.00 133.27 16.00 C 133.26 17.33 133.26 18.67 133.27 20.00 C 131.89 20.00 130.51 20.00 129.13 20.00 C 129.38 26.02 128.55 32.12 129.68 38.06 C 130.58 38.04 132.37 37.99 133.26 37.97 C 133.26 39.33 133.26 40.70 133.27 42.07 C 130.40 42.08 125.93 42.54 125.27 38.76 C 124.39 32.56 125.08 26.25 124.87 20.01 C 124.04 20.00 122.37 20.00 121.53 19.99 C 121.53 18.66 121.53 17.34 121.53 16.01 C 122.37 16.00 124.04 15.99 124.87 15.99 C 124.87 13.99 124.87 12.00 124.87 10.00 Z" />
<path fill="#9aba2f" opacity="1.00" d=" M 17.93 19.01 C 23.11 13.38 34.84 15.56 35.64 23.93 C 34.36 23.96 33.07 23.98 31.78 23.99 C 30.44 19.92 25.22 18.84 21.78 20.83 C 20.08 21.73 19.93 24.35 21.56 25.39 C 25.46 27.65 30.44 27.23 34.19 29.83 C 37.93 33.20 36.09 39.97 31.72 41.91 C 27.89 43.54 23.20 43.56 19.51 41.50 C 16.87 39.97 16.15 36.79 15.45 34.06 C 16.74 34.03 18.02 34.01 19.30 33.99 C 20.21 39.29 26.88 40.31 30.83 37.81 C 32.43 36.77 32.94 33.98 31.07 32.90 C 27.10 30.81 22.20 31.08 18.44 28.50 C 15.32 26.38 15.65 21.63 17.93 19.01 Z" />
<path fill="#9aba2f" opacity="1.00" d=" M 41.13 15.99 C 42.51 16.00 43.89 16.00 45.27 16.01 C 45.26 17.34 45.26 18.67 45.25 20.00 C 48.48 15.23 56.35 14.31 59.40 19.74 C 61.96 16.79 66.04 14.98 69.90 16.39 C 73.18 17.21 74.78 20.75 74.71 23.89 C 74.81 29.93 74.69 35.97 74.73 42.00 C 73.33 42.00 71.93 42.00 70.54 42.00 C 70.38 35.52 70.84 29.02 70.34 22.56 C 68.64 18.04 61.12 19.84 60.41 24.25 C 59.76 30.13 60.30 36.09 60.13 42.00 C 58.67 42.00 57.20 42.00 55.74 42.00 C 55.56 35.54 56.09 29.04 55.49 22.61 C 53.92 17.67 46.22 20.33 45.72 24.75 C 44.98 30.46 45.59 36.26 45.40 42.00 C 43.98 42.00 42.55 42.00 41.13 42.00 C 41.14 33.33 41.14 24.66 41.13 15.99 Z" />
<path fill="#9aba2f" opacity="1.00" d=" M 83.93 17.93 C 87.41 15.72 91.93 15.43 95.81 16.72 C 98.14 17.49 100.55 19.30 100.74 21.95 C 101.18 27.48 100.52 33.06 101.04 38.59 C 101.67 38.79 102.93 39.20 103.55 39.40 C 103.47 40.60 103.39 41.80 103.30 43.00 C 101.91 43.01 100.53 42.94 99.15 42.79 C 97.61 42.08 97.39 40.23 96.71 38.87 C 93.78 41.96 89.34 44.03 85.07 42.63 C 79.56 41.08 77.97 32.87 82.40 29.32 C 86.21 26.10 91.60 27.50 95.99 25.84 C 97.01 24.63 96.52 22.96 96.61 21.53 C 92.78 19.24 86.29 18.88 84.69 24.01 C 83.45 23.97 82.20 23.93 80.95 23.88 C 81.57 21.77 81.87 19.20 83.93 17.93 M 84.53 33.52 C 82.90 38.09 88.75 40.42 92.18 38.40 C 96.42 37.39 96.91 32.73 96.78 29.11 C 92.92 31.11 87.34 29.74 84.53 33.52 Z" />
<path fill="#9aba2f" opacity="1.00" d=" M 108.13 16.00 C 109.52 16.00 110.91 16.00 112.31 16.01 C 112.26 17.34 112.21 18.68 112.16 20.02 C 114.27 17.59 117.03 15.74 120.37 15.74 C 120.39 17.08 120.41 18.42 120.43 19.77 C 116.87 19.57 113.05 21.57 112.59 25.40 C 112.13 30.91 112.52 36.47 112.40 42.00 C 110.97 42.00 109.55 42.00 108.13 42.00 C 108.14 33.33 108.13 24.67 108.13 16.00 Z" />
<path fill="#b7b7b7" opacity="1.00" d=" M 172.46 15.92 C 176.31 15.80 180.65 16.70 183.10 19.94 C 185.60 23.04 185.49 27.22 185.52 30.98 C 179.36 31.05 173.19 30.91 167.03 31.08 C 167.44 33.99 168.25 37.59 171.47 38.59 C 175.47 40.27 179.79 37.71 181.49 33.99 C 182.78 34.00 184.07 34.02 185.36 34.04 C 184.28 37.65 182.02 41.36 178.14 42.38 C 173.43 44.11 167.55 42.49 164.84 38.16 C 160.19 30.58 162.90 18.01 172.46 15.92 M 167.01 26.83 C 171.82 27.13 176.65 27.00 181.47 26.95 C 180.96 23.60 178.91 19.98 175.09 19.98 C 170.82 19.29 167.77 23.03 167.01 26.83 Z" />
<path fill="#b7b7b7" opacity="1.00" d=" M 252.46 15.93 C 256.32 15.79 260.68 16.71 263.13 19.98 C 265.60 23.07 265.49 27.24 265.52 30.98 C 259.36 31.05 253.19 30.91 247.03 31.08 C 247.44 34.00 248.26 37.60 251.49 38.59 C 255.49 40.26 259.79 37.70 261.49 33.99 C 262.78 34.00 264.07 34.02 265.36 34.04 C 264.28 37.65 262.02 41.36 258.14 42.38 C 253.42 44.11 247.53 42.48 244.82 38.13 C 240.19 30.56 242.91 18.01 252.46 15.93 M 247.03 26.86 C 251.84 27.10 256.66 27.01 261.47 26.95 C 260.96 23.64 258.96 20.04 255.18 19.99 C 250.88 19.25 247.73 23.00 247.03 26.86 Z" />
<path fill="#9aba2f" opacity="1.00" d=" M 132.27 46.00 C 132.64 46.00 133.39 46.01 133.77 46.01 C 133.73 47.37 133.69 48.72 133.65 50.08 C 135.32 49.55 137.32 48.70 138.87 50.01 C 141.41 52.37 141.07 57.34 137.87 58.99 C 135.99 59.37 134.09 58.73 132.20 58.72 C 132.31 54.48 132.26 50.24 132.27 46.00 M 135.22 51.05 C 132.54 52.50 133.37 58.63 137.10 57.71 C 140.58 56.59 139.16 49.06 135.22 51.05 Z" />
<path fill="#9aba2f" opacity="1.00" d=" M 148.44 45.90 C 150.06 45.40 150.61 45.96 150.09 47.57 C 148.46 48.07 147.91 47.51 148.44 45.90 Z" />
<path fill="#9aba2f" opacity="1.00" d=" M 158.49 45.99 C 158.87 46.00 159.62 46.00 160.00 46.00 C 160.00 50.26 159.99 54.53 160.01 58.79 C 157.70 58.64 154.82 60.05 153.02 57.99 C 150.48 55.31 151.62 48.97 155.99 49.30 C 156.65 49.51 157.97 49.92 158.63 50.12 C 158.60 49.09 158.53 47.03 158.49 45.99 M 154.10 51.38 C 152.60 53.39 152.80 57.91 156.06 57.76 C 160.64 57.32 158.35 48.01 154.10 51.38 Z" />
<path fill="#98b82e" opacity="1.00" d=" M 106.39 50.15 C 107.32 48.76 108.28 47.41 109.17 45.99 C 109.20 46.87 109.26 48.62 109.29 49.50 C 109.72 49.51 110.58 49.55 111.01 49.56 L 111.00 50.96 C 110.56 50.99 109.67 51.06 109.22 51.10 C 109.25 53.10 109.28 55.10 109.30 57.11 C 109.91 57.68 111.13 58.84 111.74 59.42 C 110.84 59.25 109.06 58.93 108.16 58.77 C 106.96 56.01 108.94 52.32 106.39 50.15 Z" />
<path fill="#9aba2f" opacity="1.00" d=" M 82.31 49.29 C 82.79 49.41 83.75 49.65 84.23 49.78 C 85.91 49.25 87.63 49.26 89.12 50.29 C 90.79 49.42 93.23 48.45 94.45 50.56 C 94.98 53.34 94.68 56.19 94.74 59.00 C 94.37 59.00 93.64 59.00 93.28 59.00 C 93.26 56.34 93.46 53.65 92.95 51.02 C 91.66 50.48 90.55 50.68 89.61 51.64 C 89.05 54.05 89.30 56.56 89.24 59.01 C 88.87 59.01 88.12 58.99 87.75 58.99 C 87.76 56.20 87.73 53.42 87.55 50.64 C 82.48 49.95 83.88 55.91 83.71 59.00 C 83.35 59.00 82.63 59.00 82.27 59.00 C 82.26 55.77 82.27 52.53 82.31 49.29 Z" />
<path fill="#9aba2f" opacity="1.00" d=" M 100.13 59.20 C 95.09 58.15 95.80 49.24 101.01 49.22 C 104.11 48.97 105.38 52.15 105.85 54.65 C 103.17 54.73 100.48 54.74 97.80 54.83 C 98.76 55.94 99.29 57.93 101.11 57.78 C 102.81 57.46 104.21 56.36 105.81 55.77 C 104.84 57.99 102.75 59.98 100.13 59.20 M 97.67 53.15 C 99.97 53.26 102.27 53.26 104.57 53.19 C 103.84 52.18 102.94 51.39 101.88 50.82 C 100.02 49.95 98.87 52.20 97.67 53.15 Z" />
<path fill="#9aba2f" opacity="1.00" d=" M 115.14 59.20 C 110.10 58.17 110.78 49.28 115.98 49.22 C 119.10 48.95 120.38 52.14 120.85 54.65 C 118.16 54.73 115.48 54.74 112.80 54.83 C 113.78 55.94 114.29 57.95 116.14 57.78 C 117.82 57.44 119.22 56.38 120.80 55.76 C 119.85 57.99 117.76 59.97 115.14 59.20 M 112.66 53.15 C 114.96 53.26 117.26 53.26 119.56 53.19 C 118.84 52.19 117.95 51.40 116.90 50.83 C 115.03 49.94 113.87 52.21 112.66 53.15 Z" />
<path fill="#9aba2f" opacity="1.00" d=" M 124.51 49.58 C 127.06 48.43 130.47 50.28 130.45 53.20 C 131.19 56.08 129.20 59.47 126.01 59.29 C 121.23 59.16 120.50 51.33 124.51 49.58 M 124.34 51.40 C 122.47 53.70 123.43 58.42 127.05 57.79 C 131.07 56.28 128.55 48.19 124.34 51.40 Z" />
<path fill="#9aba2f" opacity="1.00" d=" M 141.82 49.57 C 144.48 49.56 147.14 49.48 149.78 49.14 C 150.02 52.42 150.05 55.71 150.00 59.00 C 149.63 59.00 148.90 59.00 148.54 59.00 C 148.11 56.20 149.89 52.12 146.80 50.48 C 142.39 50.80 144.50 56.08 143.97 59.00 L 142.54 59.00 C 142.44 55.90 142.53 52.81 142.74 49.71 L 141.82 49.57 Z" />
<path fill="#9aba2f" opacity="1.00" d=" M 163.20 50.19 C 165.12 48.63 167.77 49.76 170.00 49.65 C 169.85 53.31 170.44 57.08 169.55 60.66 C 168.01 63.98 162.35 63.26 161.47 59.67 C 163.48 60.07 165.78 62.40 167.70 60.57 C 168.08 60.06 168.84 59.03 169.22 58.51 C 167.19 58.55 164.69 59.70 163.05 57.93 C 161.27 55.73 161.21 52.27 163.20 50.19 M 164.25 51.31 C 161.96 53.24 163.55 58.84 167.04 57.38 C 170.31 55.54 167.93 48.57 164.25 51.31 Z" />
<path fill="#9aba2f" opacity="1.00" d=" M 175.10 59.18 C 170.11 58.12 170.80 49.31 175.95 49.22 C 179.09 48.93 180.38 52.13 180.85 54.66 C 178.16 54.73 175.48 54.74 172.80 54.83 C 173.77 55.97 174.33 57.99 176.20 57.79 C 177.83 57.37 179.26 56.41 180.80 55.76 C 179.85 58.00 177.72 60.00 175.10 59.18 M 172.66 53.16 C 174.95 53.25 177.26 53.27 179.56 53.19 C 178.44 51.97 176.94 49.87 175.03 50.91 C 174.43 51.47 173.25 52.59 172.66 53.16 Z" />
<path fill="#9aba2f" opacity="1.00" d=" M 191.00 59.28 C 185.55 59.17 185.56 49.32 191.00 49.26 C 193.15 48.90 195.02 50.80 194.83 52.93 C 193.56 52.15 192.46 50.89 190.95 50.66 C 187.04 51.53 187.85 58.13 191.96 58.04 C 193.02 57.00 194.11 55.98 195.23 55.00 C 195.08 57.19 193.51 59.66 191.00 59.28 Z" />
<path fill="#9aba2f" opacity="1.00" d=" M 198.49 49.59 C 201.41 48.24 204.94 50.80 204.51 54.01 C 205.05 56.87 202.44 59.78 199.53 59.22 C 195.13 58.59 194.68 51.28 198.49 49.59 M 198.38 51.35 C 196.44 53.62 197.43 58.46 201.07 57.79 C 205.02 56.25 202.60 48.28 198.38 51.35 Z" />
<path fill="#9aba2f" opacity="1.00" d=" M 206.30 49.30 C 206.78 49.42 207.75 49.65 208.23 49.77 C 209.90 49.24 211.62 49.26 213.12 50.28 C 214.79 49.44 217.21 48.44 218.43 50.54 C 218.99 53.32 218.67 56.19 218.74 59.00 C 218.37 59.00 217.64 59.00 217.28 59.00 C 217.25 56.33 217.48 53.63 216.92 51.00 C 215.64 50.46 214.53 50.68 213.59 51.67 C 213.06 54.08 213.29 56.57 213.24 59.02 C 212.87 59.01 212.12 58.99 211.75 58.98 C 211.77 56.19 211.72 53.39 211.54 50.60 C 206.48 50.03 207.87 55.90 207.71 59.00 C 207.35 59.00 206.63 59.00 206.27 59.00 C 206.26 55.77 206.27 52.53 206.30 49.30 Z" />
<path fill="#9aba2f" opacity="1.00" d=" M 182.53 57.19 C 183.78 55.65 185.72 58.12 184.42 59.28 C 183.09 60.60 181.26 58.41 182.53 57.19 Z" />
</svg>
