<?xml version="1.0" encoding="UTF-8" ?>
<!DOCTYPE svg PUBLIC "-//W3C//DTD SVG 1.1//EN" "http://www.w3.org/Graphics/SVG/1.1/DTD/svg11.dtd">
<svg width="724pt" height="548pt" viewBox="0 0 724 548" version="1.1" xmlns="http://www.w3.org/2000/svg">
<g id="#970816ff">
<path fill="#970816" opacity="1.00" d=" M 357.89 67.66 C 359.28 64.73 361.39 61.59 364.91 61.20 C 370.63 60.80 376.39 60.97 382.12 61.08 C 386.04 61.09 388.67 64.38 390.11 67.66 C 387.82 65.80 385.15 64.21 382.12 64.12 C 376.72 63.76 371.28 63.77 365.88 64.11 C 362.84 64.19 360.18 65.80 357.89 67.66 Z" />
<path fill="#970816" opacity="1.00" d=" M 98.76 73.85 C 99.71 70.32 101.99 66.65 105.95 66.19 C 111.66 65.80 117.42 65.96 123.14 66.08 C 127.47 66.13 130.32 69.99 131.24 73.86 C 128.95 71.85 126.18 70.19 123.05 70.11 C 117.68 69.77 112.27 69.76 106.90 70.11 C 103.78 70.20 101.04 71.85 98.76 73.85 Z" />
<path fill="#970816" opacity="1.00" d=" M 392.00 202.93 C 407.38 202.32 422.75 201.57 438.14 201.04 C 444.29 200.61 449.45 205.57 450.37 211.48 C 444.28 210.75 438.22 209.83 432.11 209.33 C 424.73 208.71 417.33 209.28 409.95 209.53 C 313.15 213.12 216.35 216.68 119.55 220.26 C 111.42 220.62 103.28 220.69 95.16 221.30 C 83.39 222.10 71.69 220.30 60.01 219.23 C 56.48 218.83 51.63 219.36 50.51 223.42 C 49.29 229.75 50.32 236.25 50.29 242.66 C 51.28 292.45 52.22 342.25 53.07 392.04 C 53.19 395.19 53.62 398.65 55.97 400.99 C 59.26 404.36 64.02 405.47 68.33 406.92 C 62.93 406.04 57.48 405.53 52.11 404.54 C 47.91 403.67 45.87 399.01 46.01 395.07 C 46.12 340.03 46.39 285.00 46.51 229.96 C 46.53 226.23 46.18 221.88 49.06 219.02 C 50.51 217.31 52.86 217.07 54.96 217.01 C 68.97 216.45 82.99 215.85 97.01 215.27 C 109.01 214.76 121.00 214.26 133.00 213.76 C 207.34 210.65 281.67 207.54 356.00 204.43 C 368.00 203.93 380.00 203.43 392.00 202.93 Z" />
<path fill="#970816" opacity="1.00" d=" M 587.58 228.36 C 614.76 227.67 641.92 226.01 669.09 225.03 C 673.97 224.57 678.41 229.00 677.99 233.88 C 678.02 293.61 677.99 353.35 678.00 413.08 C 678.48 418.64 673.69 423.60 668.18 423.63 C 565.49 432.55 462.79 441.46 360.10 450.37 C 322.16 453.56 284.25 457.18 246.30 460.09 C 243.90 458.86 241.09 457.65 239.92 455.03 C 239.01 452.82 239.03 450.37 238.95 448.03 C 239.58 383.33 239.79 318.61 240.38 253.90 C 240.14 248.88 244.05 245.12 248.46 243.49 C 337.30 239.42 426.16 235.69 515.01 231.75 C 539.20 230.56 563.41 229.89 587.58 228.36 M 616.35 255.54 C 612.05 256.94 610.77 261.93 610.99 265.97 C 611.40 303.65 611.75 341.34 612.07 379.02 C 612.10 382.42 612.59 386.31 615.51 388.52 C 618.51 390.92 622.59 389.51 626.01 389.09 C 630.24 388.11 635.40 388.06 638.30 384.31 C 641.16 380.90 641.07 376.21 640.97 372.02 C 639.94 336.50 639.16 300.97 638.22 265.45 C 638.25 261.30 636.08 256.54 631.62 255.71 C 626.59 255.03 621.37 254.59 616.35 255.54 M 572.23 256.17 C 489.45 259.72 406.65 263.03 323.87 266.48 C 321.48 266.55 318.94 267.30 317.54 269.38 C 314.33 273.53 315.07 279.07 315.00 283.98 C 315.28 326.63 315.41 369.28 315.60 411.92 C 315.65 415.81 316.50 420.58 320.39 422.45 C 324.49 423.49 328.78 422.45 332.95 422.24 C 414.31 415.61 495.69 409.04 577.05 402.44 C 582.90 402.48 585.29 395.97 585.00 391.03 C 584.80 349.70 584.56 308.36 584.41 267.02 C 584.32 263.32 583.82 258.82 580.34 256.69 C 577.77 255.67 574.91 256.17 572.23 256.17 M 297.41 314.38 C 294.21 315.23 293.61 320.11 296.28 321.92 C 298.80 323.74 303.09 322.29 303.28 318.96 C 303.92 315.73 300.31 313.27 297.41 314.38 M 653.36 315.40 C 645.04 317.96 642.86 329.36 648.10 335.75 C 652.61 341.44 661.77 341.61 667.31 337.35 C 673.17 332.74 673.16 323.08 668.10 317.90 C 664.27 314.16 658.22 313.67 653.36 315.40 M 297.39 332.36 C 294.23 333.22 293.59 337.99 296.17 339.86 C 298.66 341.78 303.08 340.39 303.30 337.00 C 303.96 333.74 300.33 331.22 297.39 332.36 M 265.30 342.39 C 256.87 344.59 254.24 356.10 259.30 362.63 C 263.60 368.24 272.44 368.97 278.14 365.12 C 284.61 360.65 284.99 349.97 279.17 344.82 C 275.40 341.62 269.93 341.03 265.30 342.39 M 297.38 350.39 C 294.19 351.27 293.62 356.15 296.30 357.94 C 298.83 359.73 303.09 358.27 303.28 354.96 C 303.92 351.71 300.28 349.26 297.38 350.39 M 297.39 368.32 C 294.78 369.02 293.75 372.50 295.11 374.70 C 296.75 377.79 302.24 377.35 303.14 373.86 C 304.58 370.42 300.72 366.98 297.39 368.32 M 296.64 385.95 C 296.42 387.32 296.49 388.69 296.84 390.04 C 297.62 390.12 299.18 390.28 299.96 390.36 C 301.51 389.24 301.27 386.95 302.00 385.36 C 300.20 385.52 298.40 385.59 296.64 385.95 Z" />
</g>
<g id="#2a2e33ff">
<path fill="#2a2e33" opacity="1.00" d=" M 357.89 67.66 C 360.18 65.80 362.84 64.19 365.88 64.11 C 371.28 63.77 376.72 63.76 382.12 64.12 C 385.15 64.21 387.82 65.80 390.11 67.66 C 391.39 69.88 392.02 72.43 392.00 75.00 C 392.00 117.64 392.00 160.28 392.00 202.93 C 380.00 203.43 368.00 203.93 356.00 204.43 C 355.99 163.29 356.02 122.15 355.99 81.01 C 356.03 76.53 355.44 71.67 357.89 67.66 Z" />
<path fill="#2a2e33" opacity="1.00" d=" M 98.76 73.85 C 101.04 71.85 103.78 70.20 106.90 70.11 C 112.27 69.76 117.68 69.77 123.05 70.11 C 126.18 70.19 128.95 71.85 131.24 73.86 C 133.56 77.84 132.95 82.58 133.01 86.98 C 132.98 129.24 133.00 171.50 133.00 213.76 C 121.00 214.26 109.01 214.76 97.01 215.27 C 96.98 170.83 97.03 126.39 96.98 81.95 C 96.92 79.15 97.38 76.31 98.76 73.85 Z" />
<path fill="#2a2e33" opacity="1.00" d=" M 616.35 255.54 C 621.37 254.59 626.59 255.03 631.62 255.71 C 636.08 256.54 638.25 261.30 638.22 265.45 C 639.16 300.97 639.94 336.50 640.97 372.02 C 641.07 376.21 641.16 380.90 638.30 384.31 C 635.40 388.06 630.24 388.11 626.01 389.09 C 622.59 389.51 618.51 390.92 615.51 388.52 C 612.59 386.31 612.10 382.42 612.07 379.02 C 611.75 341.34 611.40 303.65 610.99 265.97 C 610.77 261.93 612.05 256.94 616.35 255.54 M 622.40 272.43 C 619.26 273.51 618.89 277.16 618.96 279.99 C 619.03 302.68 619.00 325.36 618.99 348.04 C 619.05 352.33 618.65 356.66 619.31 360.93 C 619.93 364.67 625.02 366.23 627.86 363.86 C 630.04 362.32 629.92 359.39 630.03 357.02 C 629.98 331.34 629.98 305.67 630.03 279.99 C 629.92 278.23 630.00 276.37 629.23 274.74 C 627.98 272.38 624.82 271.38 622.40 272.43 Z" />
<path fill="#2a2e33" opacity="1.00" d=" M 572.23 256.17 C 574.91 256.17 577.77 255.67 580.34 256.69 C 583.82 258.82 584.32 263.32 584.41 267.02 C 584.56 308.36 584.80 349.70 585.00 391.03 C 585.29 395.97 582.90 402.48 577.05 402.44 C 495.69 409.04 414.31 415.61 332.95 422.24 C 328.78 422.45 324.49 423.49 320.39 422.45 C 316.50 420.58 315.65 415.81 315.60 411.92 C 315.41 369.28 315.28 326.63 315.00 283.98 C 315.07 279.07 314.33 273.53 317.54 269.38 C 318.94 267.30 321.48 266.55 323.87 266.48 C 406.65 263.03 489.45 259.72 572.23 256.17 M 547.01 275.28 C 547.15 277.42 547.29 279.56 547.44 281.70 C 545.04 281.34 542.60 280.54 540.16 280.96 C 534.17 283.10 534.92 293.55 540.91 295.15 C 544.80 295.38 548.69 294.56 552.60 294.81 C 552.18 288.22 551.77 281.63 551.28 275.04 C 549.85 275.11 548.43 275.19 547.01 275.28 M 509.22 276.27 C 509.37 278.41 509.53 280.57 509.70 282.72 C 506.62 282.34 502.82 280.67 500.28 283.26 C 496.83 286.87 497.92 294.42 502.89 296.11 C 506.86 296.46 510.84 295.55 514.83 295.80 C 514.46 289.22 514.00 282.65 513.54 276.07 C 512.10 276.13 510.65 276.20 509.22 276.27 M 489.43 277.09 C 489.63 279.30 489.84 281.51 490.05 283.72 C 487.25 283.13 484.01 281.53 481.35 283.35 C 476.89 286.54 477.87 295.06 483.14 296.87 C 487.10 296.97 491.05 296.23 495.01 296.65 C 494.73 290.00 494.29 283.37 493.74 276.74 C 492.30 276.85 490.86 276.97 489.43 277.09 M 441.02 278.43 C 441.35 285.10 441.81 291.77 442.34 298.43 C 446.41 297.66 450.57 298.25 454.64 297.65 C 459.10 295.19 458.76 287.94 455.18 284.84 C 452.45 282.49 448.83 284.07 445.82 284.81 C 445.58 282.69 445.36 280.57 445.12 278.46 C 443.75 278.44 442.38 278.43 441.02 278.43 M 430.74 280.85 C 429.80 282.49 428.86 284.14 427.93 285.80 C 430.56 289.10 430.66 293.39 431.79 297.27 C 433.68 298.64 436.23 298.45 438.44 298.91 C 438.57 298.27 438.82 297.00 438.94 296.37 C 437.68 295.76 436.41 295.15 435.16 294.55 C 435.02 292.45 434.90 290.35 434.79 288.26 C 435.89 287.55 436.98 286.81 438.06 286.06 C 436.58 284.07 434.68 282.43 432.94 280.67 C 432.39 280.72 431.29 280.81 430.74 280.85 M 521.77 281.81 C 516.17 284.46 517.15 294.22 523.23 295.66 C 527.59 297.18 531.93 294.94 534.49 291.40 C 531.34 291.79 528.24 292.68 525.06 292.76 C 523.80 291.98 522.73 290.92 521.61 289.99 C 525.78 289.51 529.97 289.26 534.16 288.99 C 533.27 286.89 532.73 284.54 531.20 282.79 C 528.65 280.60 524.76 280.55 521.77 281.81 M 460.82 288.03 C 459.43 292.70 463.03 297.96 468.01 297.80 C 471.80 298.47 474.71 295.81 476.88 293.10 C 473.73 293.52 470.64 294.52 467.44 294.47 C 466.22 293.66 465.18 292.62 464.10 291.64 C 468.25 291.24 472.42 291.03 476.59 290.80 C 475.53 288.30 475.13 284.95 472.40 283.65 C 468.31 281.54 461.75 282.94 460.82 288.03 M 415.19 284.93 C 415.48 289.72 415.80 294.52 416.17 299.31 C 417.55 299.18 418.95 299.06 420.35 298.94 C 420.19 295.72 419.84 292.47 420.29 289.26 C 422.01 288.33 423.89 287.77 425.72 287.08 C 425.61 286.14 425.51 285.21 425.42 284.28 C 422.04 284.89 418.61 285.09 415.19 284.93 M 383.27 286.94 C 378.72 285.95 374.05 286.17 369.44 286.40 C 369.74 291.20 370.06 296.00 370.40 300.80 C 371.81 300.69 373.21 300.58 374.63 300.49 C 374.46 296.85 374.29 293.21 374.13 289.57 C 375.65 289.45 377.18 289.29 378.71 289.39 C 380.19 292.81 379.98 296.63 380.31 300.26 C 381.62 300.27 382.95 300.28 384.28 300.28 C 384.08 296.85 383.69 293.41 384.03 289.98 C 385.50 289.11 387.24 288.92 388.88 288.48 C 389.30 292.31 389.65 296.14 389.96 299.97 C 391.37 299.99 392.79 300.00 394.22 300.02 C 393.84 295.81 394.32 291.32 392.64 287.35 C 390.36 284.11 386.23 285.95 383.27 286.94 M 396.23 289.34 C 399.49 288.91 402.73 288.34 405.96 287.74 C 406.36 288.62 406.76 289.50 407.17 290.39 C 404.25 290.97 401.10 291.05 398.44 292.51 C 395.65 294.25 397.17 299.14 400.33 299.41 C 404.15 299.54 407.96 298.94 411.78 299.02 C 411.49 295.13 411.62 291.12 410.39 287.39 C 409.01 284.81 405.54 284.55 402.95 284.79 C 399.96 284.83 398.09 287.39 396.23 289.34 M 352.89 293.15 C 356.01 295.29 360.41 295.06 363.02 298.13 C 359.09 298.02 355.19 297.51 351.27 297.22 C 353.00 298.72 354.52 300.90 356.98 301.20 C 360.01 301.56 363.82 301.36 365.80 298.68 C 366.90 297.30 366.76 294.88 365.13 293.99 C 362.01 292.39 358.54 291.68 355.27 290.50 C 356.40 290.05 357.53 289.60 358.67 289.16 C 361.29 289.77 363.95 290.28 366.63 290.57 C 364.50 288.01 361.64 285.46 358.01 286.25 C 354.52 286.03 350.23 289.68 352.89 293.15 M 550.28 308.35 C 545.18 310.62 544.61 317.59 546.93 322.05 C 549.21 326.62 556.12 327.12 559.54 323.64 C 562.49 320.13 562.50 314.69 560.15 310.87 C 558.12 307.66 553.60 306.86 550.28 308.35 M 513.97 309.46 C 514.04 315.32 514.24 321.19 514.47 327.05 C 515.66 326.94 516.86 326.83 518.06 326.72 C 517.98 325.08 517.89 323.44 517.81 321.81 C 520.04 321.41 522.36 321.27 524.46 320.35 C 528.09 317.95 527.55 311.25 523.33 309.78 C 520.26 309.10 517.08 309.47 513.97 309.46 M 529.97 309.03 C 530.04 314.91 530.23 320.79 530.49 326.66 C 531.67 326.51 532.86 326.36 534.06 326.21 C 533.96 324.13 533.86 322.05 533.77 319.98 C 534.48 320.00 535.92 320.03 536.64 320.04 C 537.69 322.02 538.74 324.01 539.80 325.99 C 541.20 325.99 542.61 326.00 544.03 326.01 C 542.84 323.94 541.67 321.88 540.50 319.82 C 542.85 317.13 544.38 312.61 541.06 310.00 C 537.72 308.19 533.63 309.23 529.97 309.03 M 456.36 314.23 C 457.24 313.89 459.00 313.19 459.87 312.85 C 459.19 311.44 458.75 309.63 456.92 309.39 C 455.12 310.59 456.15 312.56 456.36 314.23 M 471.03 310.00 C 471.13 312.10 471.23 314.19 471.35 316.29 C 469.27 315.70 466.87 314.28 464.83 315.78 C 461.22 318.48 461.43 324.57 464.41 327.65 C 466.40 329.62 469.17 328.32 471.41 327.62 C 472.62 327.94 473.81 328.25 475.04 328.58 C 474.95 322.38 474.70 316.19 474.53 310.00 C 473.36 310.00 472.19 310.00 471.03 310.00 M 430.16 311.76 C 430.24 318.00 430.51 324.24 430.79 330.48 C 432.04 329.96 433.30 329.42 434.53 328.84 C 436.92 329.80 440.23 330.62 441.90 328.00 C 443.79 324.62 443.75 319.10 440.23 316.77 C 438.05 315.30 435.73 316.97 433.75 317.92 C 433.68 315.71 433.60 313.51 433.53 311.32 C 432.40 311.46 431.28 311.61 430.16 311.76 M 493.91 316.90 C 491.63 320.94 493.55 328.02 498.99 327.84 C 502.05 328.27 504.10 325.74 505.88 323.69 C 505.16 323.66 503.72 323.59 503.01 323.56 C 501.51 324.08 500.05 325.15 498.40 324.88 C 497.47 323.96 496.60 323.00 495.79 321.99 C 499.09 321.81 502.40 321.67 505.70 321.45 C 504.83 319.13 504.69 316.08 502.32 314.70 C 499.52 313.19 495.46 313.96 493.91 316.90 M 392.36 314.71 C 392.42 315.36 392.52 316.66 392.58 317.30 C 391.69 318.27 390.82 319.25 389.98 320.26 C 390.64 320.48 391.95 320.91 392.61 321.13 C 392.87 323.98 392.78 326.90 393.52 329.69 C 394.78 331.39 397.32 330.77 399.15 331.33 C 399.08 330.75 398.95 329.59 398.89 329.01 C 395.96 327.57 396.33 324.44 396.20 321.71 C 397.39 320.69 398.55 319.62 399.64 318.48 C 398.73 318.32 396.91 318.01 396.00 317.85 C 396.00 317.06 395.99 315.46 395.99 314.66 C 395.08 314.67 393.27 314.70 392.36 314.71 M 455.96 315.68 C 456.11 320.14 456.22 324.60 456.42 329.07 C 457.56 328.95 458.70 328.85 459.84 328.74 C 459.72 324.38 459.57 320.02 459.47 315.67 C 458.30 315.67 457.13 315.67 455.96 315.68 M 479.73 315.71 C 476.82 318.64 477.00 324.19 480.04 326.97 C 482.49 328.94 485.48 326.97 487.94 326.09 C 487.26 327.48 486.82 329.03 485.82 330.23 C 483.07 330.05 480.39 329.40 477.66 329.17 C 479.20 330.64 480.54 332.98 482.98 332.97 C 485.88 333.40 489.87 332.33 490.43 329.00 C 490.86 324.04 490.24 319.05 490.07 314.09 C 488.85 314.52 487.67 314.97 486.47 315.42 C 484.26 315.01 481.61 313.81 479.73 315.71 M 445.65 315.83 C 445.82 320.67 445.93 325.53 446.45 330.36 C 451.15 329.37 448.87 324.45 449.55 321.14 C 449.79 319.03 452.55 319.21 454.00 318.35 C 453.81 317.31 453.63 316.27 453.45 315.23 C 452.18 315.77 450.92 316.31 449.65 316.85 C 448.31 316.50 446.98 316.16 445.65 315.83 M 401.66 320.63 C 399.80 324.65 401.70 331.30 406.96 331.04 C 410.17 331.54 412.34 328.96 413.89 326.56 C 411.34 327.01 408.87 327.89 406.29 328.03 C 405.40 327.18 404.57 326.28 403.81 325.32 C 407.09 325.03 410.39 324.87 413.69 324.68 C 412.96 322.68 412.76 320.36 411.30 318.72 C 408.52 315.96 403.17 317.00 401.66 320.63 M 418.38 317.47 C 413.15 320.35 414.59 330.33 420.98 330.61 C 425.24 331.22 428.61 327.10 427.84 323.03 C 428.11 318.24 422.44 314.96 418.38 317.47 M 381.35 331.54 C 385.06 332.91 388.62 330.41 390.14 327.09 C 387.93 327.53 385.81 328.27 383.79 329.27 C 382.48 328.25 381.19 327.20 379.91 326.16 C 383.24 325.80 386.60 325.65 389.95 325.44 C 389.15 322.28 388.07 317.87 383.96 317.98 C 376.39 316.95 374.72 329.36 381.35 331.54 M 359.42 320.26 C 358.17 319.84 356.92 319.43 355.67 319.01 C 355.79 323.66 356.01 328.30 356.25 332.95 C 357.37 332.77 358.49 332.61 359.62 332.44 C 359.65 329.10 358.69 325.53 360.10 322.36 C 361.30 321.60 362.95 321.88 363.24 323.42 C 363.90 326.43 363.67 329.55 363.82 332.61 C 364.62 332.51 366.21 332.32 367.01 332.22 C 367.01 329.20 366.70 326.16 367.10 323.16 C 367.82 321.69 369.43 321.11 370.70 322.32 C 371.43 325.55 371.27 328.89 371.47 332.18 C 372.61 332.07 373.75 331.96 374.89 331.85 C 374.57 328.03 375.28 323.91 373.75 320.32 C 371.97 317.54 368.63 318.91 366.50 320.37 C 364.26 318.90 361.69 318.82 359.42 320.26 M 546.45 346.59 C 541.24 348.57 541.17 355.51 542.86 359.95 C 544.47 364.55 551.53 365.30 554.10 361.21 C 556.15 357.75 556.05 353.18 554.28 349.62 C 552.89 346.83 549.35 345.51 546.45 346.59 M 512.61 350.67 C 512.64 351.58 512.68 353.42 512.70 354.34 C 514.14 353.29 515.59 352.25 517.04 351.21 C 517.22 355.68 517.38 360.15 517.49 364.63 C 518.74 364.57 520.01 364.53 521.28 364.49 C 520.90 358.73 520.87 352.96 520.47 347.20 C 517.61 347.75 515.00 349.03 512.61 350.67 M 529.36 347.35 C 524.65 349.68 524.65 356.30 526.41 360.56 C 527.95 364.60 533.69 365.65 536.74 362.74 C 539.58 359.79 539.38 355.15 538.40 351.46 C 537.35 347.74 532.87 345.59 529.36 347.35 M 489.41 353.85 C 490.25 353.87 491.92 353.91 492.76 353.93 C 494.07 352.58 495.39 350.57 497.55 351.50 C 499.13 351.34 498.48 353.52 498.58 354.47 C 496.54 357.85 493.34 360.32 490.65 363.14 C 490.66 363.80 490.68 365.10 490.69 365.75 C 494.79 365.57 498.90 365.42 503.01 365.26 C 503.00 364.49 502.99 362.95 502.99 362.18 C 500.50 362.30 498.02 362.41 495.55 362.49 C 497.97 359.81 501.25 357.53 502.31 353.93 C 503.12 349.92 498.52 347.42 495.08 348.38 C 492.05 348.59 490.64 351.50 489.41 353.85 M 477.48 352.02 C 477.45 352.96 477.39 354.85 477.36 355.79 C 478.84 354.80 480.34 353.81 481.84 352.83 C 482.02 357.22 482.17 361.61 482.25 366.01 C 483.49 366.00 484.73 365.98 485.98 365.97 C 485.74 360.21 485.63 354.45 485.24 348.70 C 482.43 349.23 479.84 350.44 477.48 352.02 M 447.43 350.52 C 441.74 352.47 441.65 360.38 444.10 364.90 C 446.74 369.71 454.99 368.39 455.87 362.90 C 457.91 357.42 454.47 348.39 447.43 350.52 M 465.13 352.72 C 465.16 353.61 465.21 355.40 465.23 356.29 C 466.65 355.29 468.06 354.28 469.49 353.29 C 469.70 357.73 469.93 362.18 470.09 366.63 C 471.32 366.59 472.55 366.54 473.79 366.51 C 473.50 360.72 473.47 354.91 472.81 349.15 C 470.03 349.83 467.46 351.08 465.13 352.72 M 430.41 351.46 C 425.45 353.62 425.35 360.47 427.17 364.81 C 428.79 369.22 435.45 370.00 438.15 366.23 C 440.42 362.80 440.32 358.08 438.57 354.46 C 437.14 351.50 433.40 350.24 430.41 351.46 M 391.35 357.23 C 390.69 360.55 390.54 364.47 392.65 367.34 C 395.41 371.11 402.35 370.65 404.21 366.23 C 405.64 363.23 403.88 359.23 400.59 358.48 C 398.02 357.63 395.77 359.57 393.61 360.61 C 394.56 358.02 395.85 355.42 398.77 354.67 C 399.22 355.23 400.13 356.34 400.59 356.90 C 401.95 356.78 403.31 356.66 404.68 356.53 C 403.17 354.91 401.84 352.68 399.47 352.34 C 396.04 351.58 392.15 353.71 391.35 357.23 M 413.35 354.95 C 413.38 355.86 413.42 357.68 413.45 358.58 C 414.89 357.54 416.35 356.51 417.80 355.48 C 418.02 359.93 418.17 364.38 418.26 368.83 C 419.50 368.80 420.74 368.78 421.99 368.76 C 421.74 363.00 421.63 357.24 421.25 351.50 C 418.36 351.99 415.73 353.27 413.35 354.95 M 374.88 355.88 C 373.09 358.58 374.06 362.92 377.23 364.10 C 379.98 365.59 382.68 363.42 385.15 362.42 C 384.18 364.02 383.77 366.08 382.30 367.33 C 380.55 368.27 378.86 366.60 377.28 366.06 C 376.13 366.25 374.99 366.44 373.85 366.64 C 376.02 369.12 379.03 371.61 382.58 370.42 C 388.36 368.81 388.95 361.01 386.56 356.44 C 384.44 352.04 377.46 351.91 374.88 355.88 M 361.36 356.96 C 361.38 357.85 361.41 359.64 361.42 360.53 C 362.88 359.55 364.35 358.58 365.82 357.61 C 366.03 362.01 366.17 366.42 366.26 370.83 C 367.50 370.80 368.74 370.78 369.99 370.76 C 369.74 365.00 369.63 359.24 369.25 353.50 C 366.36 353.99 363.73 355.27 361.36 356.96 M 507.47 361.70 C 506.47 362.40 505.78 363.38 506.86 364.40 C 507.90 366.43 510.07 365.24 511.12 363.86 C 510.49 362.16 509.42 360.44 507.47 361.70 M 458.18 363.67 C 458.98 364.92 459.62 366.39 460.82 367.37 C 462.91 367.35 464.06 365.02 462.68 363.42 C 461.17 363.35 459.66 363.53 458.18 363.67 M 406.83 366.49 C 407.13 367.28 407.73 368.84 408.04 369.63 C 409.32 369.18 410.61 368.72 411.89 368.24 C 411.63 367.49 411.11 365.99 410.85 365.24 C 409.50 365.64 408.16 366.05 406.83 366.49 Z" />
<path fill="#2a2e33" opacity="1.00" d=" M 542.37 284.20 C 546.03 282.00 549.34 287.32 547.39 290.43 C 546.37 292.89 542.63 292.81 541.35 290.64 C 540.11 288.69 540.05 285.37 542.37 284.20 Z" />
<path fill="#2a2e33" opacity="1.00" d=" M 504.36 285.34 C 509.18 282.18 512.67 291.12 507.91 293.09 C 503.51 294.70 500.79 287.69 504.36 285.34 Z" />
<path fill="#2a2e33" opacity="1.00" d=" M 463.82 288.30 C 465.78 287.18 467.79 286.16 469.81 285.15 C 470.58 286.34 471.37 287.55 472.14 288.75 C 469.36 288.67 466.59 288.53 463.82 288.30 Z" />
<path fill="#2a2e33" opacity="1.00" d=" M 484.36 286.27 C 485.93 284.93 488.92 285.35 489.73 287.37 C 491.18 289.72 490.27 293.97 487.05 294.04 C 483.24 294.21 481.57 288.53 484.36 286.27 Z" />
<path fill="#2a2e33" opacity="1.00" d=" M 448.17 287.04 C 450.74 285.77 453.67 288.33 453.43 291.04 C 453.80 293.45 451.55 295.83 449.10 295.16 C 445.53 294.41 444.84 288.56 448.17 287.04 Z" />
<path fill="#2a2e33" opacity="1.00" d=" M 401.18 295.92 C 400.92 292.52 405.94 293.90 408.00 293.00 C 406.86 295.80 404.06 298.07 401.18 295.92 Z" />
<path fill="#2a2e33" opacity="1.00" d=" M 552.25 311.15 C 557.01 309.57 559.42 316.13 557.69 319.72 C 556.90 322.69 552.63 323.73 550.72 321.25 C 548.59 318.29 548.60 312.90 552.25 311.15 Z" />
<path fill="#2a2e33" opacity="1.00" d=" M 533.50 311.65 C 535.21 311.87 536.95 312.00 538.64 312.44 C 539.42 313.74 539.86 315.29 538.59 316.48 C 537.04 317.01 535.41 317.26 533.82 317.61 C 533.70 315.62 533.59 313.63 533.50 311.65 Z" />
<path fill="#2a2e33" opacity="1.00" d=" M 517.53 312.19 C 519.34 312.81 523.29 312.20 523.22 314.97 C 524.02 318.21 519.89 318.10 517.87 318.90 C 517.73 316.66 517.61 314.43 517.53 312.19 Z" />
<path fill="#2a2e33" opacity="1.00" d=" M 495.64 319.23 C 496.92 318.32 497.94 316.33 499.81 316.87 C 500.78 317.59 501.66 318.46 502.55 319.29 C 500.24 319.35 497.94 319.33 495.64 319.23 Z" />
<path fill="#2a2e33" opacity="1.00" d=" M 467.42 318.34 C 471.81 316.19 473.34 325.64 468.80 325.68 C 465.31 325.77 464.70 319.89 467.42 318.34 Z" />
<path fill="#2a2e33" opacity="1.00" d=" M 482.20 317.97 C 486.76 315.45 488.89 323.31 484.86 325.11 C 481.06 325.43 480.48 320.43 482.20 317.97 Z" />
<path fill="#2a2e33" opacity="1.00" d=" M 435.48 319.44 C 440.58 317.63 441.22 327.69 436.12 327.05 C 433.41 325.60 433.15 321.35 435.48 319.44 Z" />
<path fill="#2a2e33" opacity="1.00" d=" M 404.19 322.72 C 404.71 321.89 405.76 320.22 406.28 319.39 C 407.75 320.34 409.20 321.34 410.61 322.39 C 408.46 322.54 406.33 322.64 404.19 322.72 Z" />
<path fill="#2a2e33" opacity="1.00" d=" M 420.16 319.94 C 424.69 317.96 426.10 326.71 421.91 327.84 C 418.27 327.34 417.84 322.13 420.16 319.94 Z" />
<path fill="#2a2e33" opacity="1.00" d=" M 380.48 323.41 C 380.84 322.76 381.55 321.46 381.90 320.80 C 382.66 320.82 384.19 320.87 384.95 320.89 C 385.38 321.72 385.81 322.57 386.24 323.41 C 384.32 323.41 382.40 323.42 380.48 323.41 Z" />
<path fill="#2a2e33" opacity="1.00" d=" M 547.50 349.52 C 549.89 348.40 551.47 351.03 551.65 353.10 C 552.05 355.71 552.21 359.17 549.79 360.87 C 546.96 361.92 545.74 358.14 545.63 355.99 C 545.52 353.88 545.42 350.56 547.50 349.52 Z" />
<path fill="#2a2e33" opacity="1.00" d=" M 530.38 350.38 C 531.88 348.65 534.32 350.28 534.79 352.09 C 535.64 355.03 535.82 358.60 533.83 361.15 C 532.15 362.16 530.36 361.03 529.80 359.35 C 528.78 356.49 528.52 352.95 530.38 350.38 Z" />
<path fill="#2a2e33" opacity="1.00" d=" M 448.37 353.28 C 450.23 352.89 451.86 354.20 452.16 356.03 C 452.79 358.91 453.16 362.63 450.74 364.81 C 448.60 365.92 446.95 363.47 446.65 361.62 C 446.15 358.85 445.83 355.18 448.37 353.28 Z" />
<path fill="#2a2e33" opacity="1.00" d=" M 431.45 354.41 C 432.60 353.21 434.69 354.34 435.25 355.68 C 436.40 358.57 436.72 362.24 434.88 364.93 C 433.53 366.64 430.88 365.37 430.49 363.48 C 429.56 360.60 429.14 356.74 431.45 354.41 Z" />
<path fill="#2a2e33" opacity="1.00" d=" M 379.38 356.22 C 381.54 355.11 384.34 357.27 383.57 359.65 C 383.34 361.60 380.95 361.94 379.38 361.59 C 377.00 360.94 376.89 356.80 379.38 356.22 Z" />
<path fill="#2a2e33" opacity="1.00" d=" M 396.45 361.44 C 399.67 359.15 403.29 364.82 399.58 366.52 C 396.49 368.71 392.88 363.26 396.45 361.44 Z" />
</g>
<g id="#3e3d3dff">
<path fill="#3e3d3d" opacity="1.00" d=" M 119.55 220.26 C 216.35 216.68 313.15 213.12 409.95 209.53 C 417.33 209.28 424.73 208.71 432.11 209.33 C 438.22 209.83 444.28 210.75 450.37 211.48 C 496.10 217.10 541.85 222.64 587.58 228.36 C 563.41 229.89 539.20 230.56 515.01 231.75 C 426.16 235.69 337.30 239.42 248.46 243.49 C 245.51 241.05 242.45 238.44 238.62 237.56 C 232.71 236.22 226.62 236.13 220.62 235.46 C 185.74 231.93 150.87 228.41 115.99 224.89 C 107.73 224.03 99.41 223.55 91.24 221.93 C 92.55 221.70 93.85 221.49 95.16 221.30 C 103.28 220.69 111.42 220.62 119.55 220.26 Z" />
</g>
<g id="#515151ff">
<path fill="#515151" opacity="1.00" d=" M 50.51 223.42 C 51.63 219.36 56.48 218.83 60.01 219.23 C 71.69 220.30 83.39 222.10 95.16 221.30 C 93.85 221.49 92.55 221.70 91.24 221.93 C 99.41 223.55 107.73 224.03 115.99 224.89 C 150.87 228.41 185.74 231.93 220.62 235.46 C 226.62 236.13 232.71 236.22 238.62 237.56 C 242.45 238.44 245.51 241.05 248.46 243.49 C 244.05 245.12 240.14 248.88 240.38 253.90 C 239.79 318.61 239.58 383.33 238.95 448.03 C 239.03 450.37 239.01 452.82 239.92 455.03 C 241.09 457.65 243.90 458.86 246.30 460.09 C 240.27 462.39 234.26 459.26 228.53 457.60 C 175.12 440.74 121.80 423.58 68.33 406.92 C 64.02 405.47 59.26 404.36 55.97 400.99 C 53.62 398.65 53.19 395.19 53.07 392.04 C 52.22 342.25 51.28 292.45 50.29 242.66 C 50.32 236.25 49.29 229.75 50.51 223.42 Z" />
<path fill="#515151" opacity="1.00" d=" M 547.01 275.28 C 548.43 275.19 549.85 275.11 551.28 275.04 C 551.77 281.63 552.18 288.22 552.60 294.81 C 548.69 294.56 544.80 295.38 540.91 295.15 C 534.92 293.55 534.17 283.10 540.16 280.96 C 542.60 280.54 545.04 281.34 547.44 281.70 C 547.29 279.56 547.15 277.42 547.01 275.28 M 542.37 284.20 C 540.05 285.37 540.11 288.69 541.35 290.64 C 542.63 292.81 546.37 292.89 547.39 290.43 C 549.34 287.32 546.03 282.00 542.37 284.20 Z" />
<path fill="#515151" opacity="1.00" d=" M 509.22 276.27 C 510.65 276.20 512.10 276.13 513.54 276.07 C 514.00 282.65 514.46 289.22 514.83 295.80 C 510.84 295.55 506.86 296.46 502.89 296.11 C 497.92 294.42 496.83 286.87 500.28 283.26 C 502.82 280.67 506.62 282.34 509.70 282.72 C 509.53 280.57 509.37 278.41 509.22 276.27 M 504.36 285.34 C 500.79 287.69 503.51 294.70 507.91 293.09 C 512.67 291.12 509.18 282.18 504.36 285.34 Z" />
<path fill="#515151" opacity="1.00" d=" M 489.43 277.09 C 490.86 276.97 492.30 276.85 493.74 276.74 C 494.29 283.37 494.73 290.00 495.01 296.65 C 491.05 296.23 487.10 296.97 483.14 296.87 C 477.87 295.06 476.89 286.54 481.35 283.35 C 484.01 281.53 487.25 283.13 490.05 283.72 C 489.84 281.51 489.63 279.30 489.43 277.09 M 484.36 286.27 C 481.57 288.53 483.24 294.21 487.05 294.04 C 490.27 293.97 491.18 289.72 489.73 287.37 C 488.92 285.35 485.93 284.93 484.36 286.27 Z" />
<path fill="#515151" opacity="1.00" d=" M 441.02 278.43 C 442.38 278.43 443.75 278.44 445.12 278.46 C 445.36 280.57 445.58 282.69 445.82 284.81 C 448.83 284.07 452.45 282.49 455.18 284.84 C 458.76 287.94 459.10 295.19 454.64 297.65 C 450.57 298.25 446.41 297.66 442.34 298.43 C 441.81 291.77 441.35 285.10 441.02 278.43 M 448.17 287.04 C 444.84 288.56 445.53 294.41 449.10 295.16 C 451.55 295.83 453.80 293.45 453.43 291.04 C 453.67 288.33 450.74 285.77 448.17 287.04 Z" />
<path fill="#515151" opacity="1.00" d=" M 430.74 280.85 C 431.29 280.81 432.39 280.72 432.94 280.67 C 434.68 282.43 436.58 284.07 438.06 286.06 C 436.98 286.81 435.89 287.55 434.79 288.26 C 434.90 290.35 435.02 292.45 435.16 294.55 C 436.41 295.15 437.68 295.76 438.94 296.37 C 438.82 297.00 438.57 298.27 438.44 298.91 C 436.23 298.45 433.68 298.64 431.79 297.27 C 430.66 293.39 430.56 289.10 427.93 285.80 C 428.86 284.14 429.80 282.49 430.74 280.85 Z" />
<path fill="#515151" opacity="1.00" d=" M 521.77 281.81 C 524.76 280.55 528.65 280.60 531.20 282.79 C 532.73 284.54 533.27 286.89 534.16 288.99 C 529.97 289.26 525.78 289.51 521.61 289.99 C 522.73 290.92 523.80 291.98 525.06 292.76 C 528.24 292.68 531.34 291.79 534.49 291.40 C 531.93 294.94 527.59 297.18 523.23 295.66 C 517.15 294.22 516.17 284.46 521.77 281.81 M 524.41 283.31 C 523.54 284.54 522.69 285.78 521.84 287.02 C 524.65 286.96 527.46 286.84 530.27 286.63 C 528.35 285.46 526.40 284.35 524.41 283.31 Z" />
<path fill="#515151" opacity="1.00" d=" M 460.82 288.03 C 461.75 282.94 468.31 281.54 472.40 283.65 C 475.13 284.95 475.53 288.30 476.59 290.80 C 472.42 291.03 468.25 291.24 464.10 291.64 C 465.18 292.62 466.22 293.66 467.44 294.47 C 470.64 294.52 473.73 293.52 476.88 293.10 C 474.71 295.81 471.80 298.47 468.01 297.80 C 463.03 297.96 459.43 292.70 460.82 288.03 M 463.82 288.30 C 466.59 288.53 469.36 288.67 472.14 288.75 C 471.37 287.55 470.58 286.34 469.81 285.15 C 467.79 286.16 465.78 287.18 463.82 288.30 Z" />
<path fill="#515151" opacity="1.00" d=" M 415.19 284.93 C 418.61 285.09 422.04 284.89 425.42 284.28 C 425.51 285.21 425.61 286.14 425.72 287.08 C 423.89 287.77 422.01 288.33 420.29 289.26 C 419.84 292.47 420.19 295.72 420.35 298.94 C 418.95 299.06 417.55 299.18 416.17 299.31 C 415.80 294.52 415.48 289.72 415.19 284.93 Z" />
<path fill="#515151" opacity="1.00" d=" M 383.27 286.94 C 386.23 285.95 390.36 284.11 392.64 287.35 C 394.32 291.32 393.84 295.81 394.22 300.02 C 392.79 300.00 391.37 299.99 389.96 299.97 C 389.65 296.14 389.30 292.31 388.88 288.48 C 387.24 288.92 385.50 289.11 384.03 289.98 C 383.69 293.41 384.08 296.85 384.28 300.28 C 382.95 300.28 381.62 300.27 380.31 300.26 C 379.98 296.63 380.19 292.81 378.71 289.39 C 377.18 289.29 375.65 289.45 374.13 289.57 C 374.29 293.21 374.46 296.85 374.63 300.49 C 373.21 300.58 371.81 300.69 370.40 300.80 C 370.06 296.00 369.74 291.20 369.44 286.40 C 374.05 286.17 378.72 285.95 383.27 286.94 Z" />
<path fill="#515151" opacity="1.00" d=" M 396.23 289.34 C 398.09 287.39 399.96 284.83 402.95 284.79 C 405.54 284.55 409.01 284.81 410.39 287.39 C 411.62 291.12 411.49 295.13 411.78 299.02 C 407.96 298.94 404.15 299.54 400.33 299.41 C 397.17 299.14 395.65 294.25 398.44 292.51 C 401.10 291.05 404.25 290.97 407.17 290.39 C 406.76 289.50 406.36 288.62 405.96 287.74 C 402.73 288.34 399.49 288.91 396.23 289.34 M 401.18 295.92 C 404.06 298.07 406.86 295.80 408.00 293.00 C 405.94 293.90 400.92 292.52 401.18 295.92 Z" />
<path fill="#515151" opacity="1.00" d=" M 352.89 293.15 C 350.23 289.68 354.52 286.03 358.01 286.25 C 361.64 285.46 364.50 288.01 366.63 290.57 C 363.95 290.28 361.29 289.77 358.67 289.16 C 357.53 289.60 356.40 290.05 355.27 290.50 C 358.54 291.68 362.01 292.39 365.13 293.99 C 366.76 294.88 366.90 297.30 365.80 298.68 C 363.82 301.36 360.01 301.56 356.98 301.20 C 354.52 300.90 353.00 298.72 351.27 297.22 C 355.19 297.51 359.09 298.02 363.02 298.13 C 360.41 295.06 356.01 295.29 352.89 293.15 Z" />
<path fill="#515151" opacity="1.00" d=" M 297.41 314.38 C 300.31 313.27 303.92 315.73 303.28 318.96 C 303.09 322.29 298.80 323.74 296.28 321.92 C 293.61 320.11 294.21 315.23 297.41 314.38 Z" />
<path fill="#515151" opacity="1.00" d=" M 653.36 315.40 C 658.22 313.67 664.27 314.16 668.10 317.90 C 673.16 323.08 673.17 332.74 667.31 337.35 C 661.77 341.61 652.61 341.44 648.10 335.75 C 642.86 329.36 645.04 317.96 653.36 315.40 Z" />
<path fill="#515151" opacity="1.00" d=" M 265.30 342.39 C 269.93 341.03 275.40 341.62 279.17 344.82 C 284.99 349.97 284.61 360.65 278.14 365.12 C 272.44 368.97 263.60 368.24 259.30 362.63 C 254.24 356.10 256.87 344.59 265.30 342.39 Z" />
<path fill="#515151" opacity="1.00" d=" M 297.38 350.39 C 300.28 349.26 303.92 351.71 303.28 354.96 C 303.09 358.27 298.83 359.73 296.30 357.94 C 293.62 356.15 294.19 351.27 297.38 350.39 Z" />
<path fill="#515151" opacity="1.00" d=" M 296.64 385.95 C 298.40 385.59 300.20 385.52 302.00 385.36 C 301.27 386.95 301.51 389.24 299.96 390.36 C 299.18 390.28 297.62 390.12 296.84 390.04 C 296.49 388.69 296.42 387.32 296.64 385.95 Z" />
</g>
<g id="#797b7eff">
<path fill="#797b7e" opacity="1.00" d=" M 622.40 272.43 C 624.82 271.38 627.98 272.38 629.23 274.74 C 630.00 276.37 629.92 278.23 630.03 279.99 C 629.98 305.67 629.98 331.34 630.03 357.02 C 629.92 359.39 630.04 362.32 627.86 363.86 C 625.02 366.23 619.93 364.67 619.31 360.93 C 618.65 356.66 619.05 352.33 618.99 348.04 C 619.00 325.36 619.03 302.68 618.96 279.99 C 618.89 277.16 619.26 273.51 622.40 272.43 Z" />
</g>
<g id="#2d3035ff">
<path fill="#2d3035" opacity="1.00" d=" M 524.41 283.31 C 526.40 284.35 528.35 285.46 530.27 286.63 C 527.46 286.84 524.65 286.96 521.84 287.02 C 522.69 285.78 523.54 284.54 524.41 283.31 Z" />
</g>
<g id="#a1a1a1ff">
<path fill="#a1a1a1" opacity="1.00" d=" M 550.28 308.35 C 553.60 306.86 558.12 307.66 560.15 310.87 C 562.50 314.69 562.49 320.13 559.54 323.64 C 556.12 327.12 549.21 326.62 546.93 322.05 C 544.61 317.59 545.18 310.62 550.28 308.35 M 552.25 311.15 C 548.60 312.90 548.59 318.29 550.72 321.25 C 552.63 323.73 556.90 322.69 557.69 319.72 C 559.42 316.13 557.01 309.57 552.25 311.15 Z" />
<path fill="#a1a1a1" opacity="1.00" d=" M 513.97 309.46 C 517.08 309.47 520.26 309.10 523.33 309.78 C 527.55 311.25 528.09 317.95 524.46 320.35 C 522.36 321.27 520.04 321.41 517.81 321.81 C 517.89 323.44 517.98 325.08 518.06 326.72 C 516.86 326.83 515.66 326.94 514.47 327.05 C 514.24 321.19 514.04 315.32 513.97 309.46 M 517.53 312.19 C 517.61 314.43 517.73 316.66 517.87 318.90 C 519.89 318.10 524.02 318.21 523.22 314.97 C 523.29 312.20 519.34 312.81 517.53 312.19 Z" />
<path fill="#a1a1a1" opacity="1.00" d=" M 529.97 309.03 C 533.63 309.23 537.72 308.19 541.06 310.00 C 544.38 312.61 542.85 317.13 540.50 319.82 C 541.67 321.88 542.84 323.94 544.03 326.01 C 542.61 326.00 541.20 325.99 539.80 325.99 C 538.74 324.01 537.69 322.02 536.64 320.04 C 535.92 320.03 534.48 320.00 533.77 319.98 C 533.86 322.05 533.96 324.13 534.06 326.21 C 532.86 326.36 531.67 326.51 530.49 326.66 C 530.23 320.79 530.04 314.91 529.97 309.03 M 533.50 311.65 C 533.59 313.63 533.70 315.62 533.82 317.61 C 535.41 317.26 537.04 317.01 538.59 316.48 C 539.86 315.29 539.42 313.74 538.64 312.44 C 536.95 312.00 535.21 311.87 533.50 311.65 Z" />
<path fill="#a1a1a1" opacity="1.00" d=" M 456.36 314.23 C 456.15 312.56 455.12 310.59 456.92 309.39 C 458.75 309.63 459.19 311.44 459.87 312.85 C 459.00 313.19 457.24 313.89 456.36 314.23 Z" />
<path fill="#a1a1a1" opacity="1.00" d=" M 471.03 310.00 C 472.19 310.00 473.36 310.00 474.53 310.00 C 474.70 316.19 474.95 322.38 475.04 328.58 C 473.81 328.25 472.62 327.94 471.41 327.62 C 469.17 328.32 466.40 329.62 464.41 327.65 C 461.43 324.57 461.22 318.48 464.83 315.78 C 466.87 314.28 469.27 315.70 471.35 316.29 C 471.23 314.19 471.13 312.10 471.03 310.00 M 467.42 318.34 C 464.70 319.89 465.31 325.77 468.80 325.68 C 473.34 325.64 471.81 316.19 467.42 318.34 Z" />
<path fill="#a1a1a1" opacity="1.00" d=" M 430.16 311.76 C 431.28 311.61 432.40 311.46 433.53 311.32 C 433.60 313.51 433.68 315.71 433.75 317.92 C 435.73 316.97 438.05 315.30 440.23 316.77 C 443.75 319.10 443.79 324.62 441.90 328.00 C 440.23 330.62 436.92 329.80 434.53 328.84 C 433.30 329.42 432.04 329.96 430.79 330.48 C 430.51 324.24 430.24 318.00 430.16 311.76 M 435.48 319.44 C 433.15 321.35 433.41 325.60 436.12 327.05 C 441.22 327.69 440.58 317.63 435.48 319.44 Z" />
<path fill="#a1a1a1" opacity="1.00" d=" M 493.91 316.90 C 495.46 313.96 499.52 313.19 502.32 314.70 C 504.69 316.08 504.83 319.13 505.70 321.45 C 502.40 321.67 499.09 321.81 495.79 321.99 C 496.60 323.00 497.47 323.96 498.40 324.88 C 500.05 325.15 501.51 324.08 503.01 323.56 C 503.72 323.59 505.16 323.66 505.88 323.69 C 504.10 325.74 502.05 328.27 498.99 327.84 C 493.55 328.02 491.63 320.94 493.91 316.90 M 495.64 319.23 C 497.94 319.33 500.24 319.35 502.55 319.29 C 501.66 318.46 500.78 317.59 499.81 316.87 C 497.94 316.33 496.92 318.32 495.64 319.23 Z" />
<path fill="#a1a1a1" opacity="1.00" d=" M 392.36 314.71 C 393.27 314.70 395.08 314.67 395.99 314.66 C 395.99 315.46 396.00 317.06 396.00 317.85 C 396.91 318.01 398.73 318.32 399.64 318.48 C 398.55 319.62 397.39 320.69 396.20 321.71 C 396.33 324.44 395.96 327.57 398.89 329.01 C 398.95 329.59 399.08 330.75 399.15 331.33 C 397.32 330.77 394.78 331.39 393.52 329.69 C 392.78 326.90 392.87 323.98 392.61 321.13 C 391.95 320.91 390.64 320.48 389.98 320.26 C 390.82 319.25 391.69 318.27 392.58 317.30 C 392.52 316.66 392.42 315.36 392.36 314.71 Z" />
<path fill="#a1a1a1" opacity="1.00" d=" M 455.96 315.68 C 457.13 315.67 458.30 315.67 459.47 315.67 C 459.57 320.02 459.72 324.38 459.84 328.74 C 458.70 328.85 457.56 328.95 456.42 329.07 C 456.22 324.60 456.11 320.14 455.96 315.68 Z" />
<path fill="#a1a1a1" opacity="1.00" d=" M 479.73 315.71 C 481.61 313.81 484.26 315.01 486.47 315.42 C 487.67 314.97 488.85 314.52 490.07 314.09 C 490.24 319.05 490.86 324.04 490.43 329.00 C 489.87 332.33 485.88 333.40 482.98 332.97 C 480.54 332.98 479.20 330.64 477.66 329.17 C 480.39 329.40 483.07 330.05 485.82 330.23 C 486.82 329.03 487.26 327.48 487.94 326.09 C 485.48 326.97 482.49 328.94 480.04 326.97 C 477.00 324.19 476.82 318.64 479.73 315.71 M 482.20 317.97 C 480.48 320.43 481.06 325.43 484.86 325.11 C 488.89 323.31 486.76 315.45 482.20 317.97 Z" />
<path fill="#a1a1a1" opacity="1.00" d=" M 445.65 315.83 C 446.98 316.16 448.31 316.50 449.65 316.85 C 450.92 316.31 452.18 315.77 453.45 315.23 C 453.63 316.27 453.81 317.31 454.00 318.35 C 452.55 319.21 449.79 319.03 449.55 321.14 C 448.87 324.45 451.15 329.37 446.45 330.36 C 445.93 325.53 445.82 320.67 445.65 315.83 Z" />
<path fill="#a1a1a1" opacity="1.00" d=" M 401.66 320.63 C 403.17 317.00 408.52 315.96 411.30 318.72 C 412.76 320.36 412.96 322.68 413.69 324.68 C 410.39 324.87 407.09 325.03 403.81 325.32 C 404.57 326.28 405.40 327.18 406.29 328.03 C 408.87 327.89 411.34 327.01 413.89 326.56 C 412.34 328.96 410.17 331.54 406.96 331.04 C 401.70 331.30 399.80 324.65 401.66 320.63 M 404.19 322.72 C 406.33 322.64 408.46 322.54 410.61 322.39 C 409.20 321.34 407.75 320.34 406.28 319.39 C 405.76 320.22 404.71 321.89 404.19 322.72 Z" />
<path fill="#a1a1a1" opacity="1.00" d=" M 418.38 317.47 C 422.44 314.96 428.11 318.24 427.84 323.03 C 428.61 327.10 425.24 331.22 420.98 330.61 C 414.59 330.33 413.15 320.35 418.38 317.47 M 420.16 319.94 C 417.84 322.13 418.27 327.34 421.91 327.84 C 426.10 326.71 424.69 317.96 420.16 319.94 Z" />
<path fill="#a1a1a1" opacity="1.00" d=" M 381.35 331.54 C 374.72 329.36 376.39 316.95 383.96 317.98 C 388.07 317.87 389.15 322.28 389.95 325.44 C 386.60 325.65 383.24 325.80 379.91 326.16 C 381.19 327.20 382.48 328.25 383.79 329.27 C 385.81 328.27 387.93 327.53 390.14 327.09 C 388.62 330.41 385.06 332.91 381.35 331.54 M 380.48 323.41 C 382.40 323.42 384.32 323.41 386.24 323.41 C 385.81 322.57 385.38 321.72 384.95 320.89 C 384.19 320.87 382.66 320.82 381.90 320.80 C 381.55 321.46 380.84 322.76 380.48 323.41 Z" />
<path fill="#a1a1a1" opacity="1.00" d=" M 359.42 320.26 C 361.69 318.82 364.26 318.90 366.50 320.37 C 368.63 318.91 371.97 317.54 373.75 320.32 C 375.28 323.91 374.57 328.03 374.89 331.85 C 373.75 331.96 372.61 332.07 371.47 332.18 C 371.27 328.89 371.43 325.55 370.70 322.32 C 369.43 321.11 367.82 321.69 367.10 323.16 C 366.70 326.16 367.01 329.20 367.01 332.22 C 366.21 332.32 364.62 332.51 363.82 332.61 C 363.67 329.55 363.90 326.43 363.24 323.42 C 362.95 321.88 361.30 321.60 360.10 322.36 C 358.69 325.53 359.65 329.10 359.62 332.44 C 358.49 332.61 357.37 332.77 356.25 332.95 C 356.01 328.30 355.79 323.66 355.67 319.01 C 356.92 319.43 358.17 319.84 359.42 320.26 Z" />
<path fill="#a1a1a1" opacity="1.00" d=" M 546.45 346.59 C 549.35 345.51 552.89 346.83 554.28 349.62 C 556.05 353.18 556.15 357.75 554.10 361.21 C 551.53 365.30 544.47 364.55 542.86 359.95 C 541.17 355.51 541.24 348.57 546.45 346.59 M 547.50 349.52 C 545.42 350.56 545.52 353.88 545.63 355.99 C 545.74 358.14 546.96 361.92 549.79 360.87 C 552.21 359.17 552.05 355.71 551.65 353.10 C 551.47 351.03 549.89 348.40 547.50 349.52 Z" />
<path fill="#a1a1a1" opacity="1.00" d=" M 512.61 350.67 C 515.00 349.03 517.61 347.75 520.47 347.20 C 520.87 352.96 520.90 358.73 521.28 364.49 C 520.01 364.53 518.74 364.57 517.49 364.63 C 517.38 360.15 517.22 355.68 517.04 351.21 C 515.59 352.25 514.14 353.29 512.70 354.34 C 512.68 353.42 512.64 351.58 512.61 350.67 Z" />
<path fill="#a1a1a1" opacity="1.00" d=" M 529.36 347.35 C 532.87 345.59 537.35 347.74 538.40 351.46 C 539.38 355.15 539.58 359.79 536.74 362.74 C 533.69 365.65 527.95 364.60 526.41 360.56 C 524.65 356.30 524.65 349.68 529.36 347.35 M 530.38 350.38 C 528.52 352.95 528.78 356.49 529.80 359.35 C 530.36 361.03 532.15 362.16 533.83 361.15 C 535.82 358.60 535.64 355.03 534.79 352.09 C 534.32 350.28 531.88 348.65 530.38 350.38 Z" />
<path fill="#a1a1a1" opacity="1.00" d=" M 489.41 353.85 C 490.64 351.50 492.05 348.59 495.08 348.38 C 498.52 347.42 503.12 349.92 502.31 353.93 C 501.25 357.53 497.97 359.81 495.55 362.49 C 498.02 362.41 500.50 362.30 502.99 362.18 C 502.99 362.95 503.00 364.49 503.01 365.26 C 498.90 365.42 494.79 365.57 490.69 365.75 C 490.68 365.10 490.66 363.80 490.65 363.14 C 493.34 360.32 496.54 357.85 498.58 354.47 C 498.48 353.52 499.13 351.34 497.55 351.50 C 495.39 350.57 494.07 352.58 492.76 353.93 C 491.92 353.91 490.25 353.87 489.41 353.85 Z" />
<path fill="#a1a1a1" opacity="1.00" d=" M 477.48 352.02 C 479.84 350.44 482.43 349.23 485.24 348.70 C 485.63 354.45 485.74 360.21 485.98 365.97 C 484.73 365.98 483.49 366.00 482.25 366.01 C 482.17 361.61 482.02 357.22 481.84 352.83 C 480.34 353.81 478.84 354.80 477.36 355.79 C 477.39 354.85 477.45 352.96 477.48 352.02 Z" />
<path fill="#a1a1a1" opacity="1.00" d=" M 447.43 350.52 C 454.47 348.39 457.91 357.42 455.87 362.90 C 454.99 368.39 446.74 369.71 444.10 364.90 C 441.65 360.38 441.74 352.47 447.43 350.52 M 448.37 353.28 C 445.83 355.18 446.15 358.85 446.65 361.62 C 446.95 363.47 448.60 365.92 450.74 364.81 C 453.16 362.63 452.79 358.91 452.16 356.03 C 451.86 354.20 450.23 352.89 448.37 353.28 Z" />
<path fill="#a1a1a1" opacity="1.00" d=" M 465.13 352.72 C 467.46 351.08 470.03 349.83 472.81 349.15 C 473.47 354.91 473.50 360.72 473.79 366.51 C 472.55 366.54 471.32 366.59 470.09 366.63 C 469.93 362.18 469.70 357.73 469.49 353.29 C 468.06 354.28 466.65 355.29 465.23 356.29 C 465.21 355.40 465.16 353.61 465.13 352.72 Z" />
<path fill="#a1a1a1" opacity="1.00" d=" M 430.41 351.46 C 433.40 350.24 437.14 351.50 438.57 354.46 C 440.32 358.08 440.42 362.80 438.15 366.23 C 435.45 370.00 428.79 369.22 427.17 364.81 C 425.35 360.47 425.45 353.62 430.41 351.46 M 431.45 354.41 C 429.14 356.74 429.56 360.60 430.49 363.48 C 430.88 365.37 433.53 366.64 434.88 364.93 C 436.72 362.24 436.40 358.57 435.25 355.68 C 434.69 354.34 432.60 353.21 431.45 354.41 Z" />
<path fill="#a1a1a1" opacity="1.00" d=" M 391.35 357.23 C 392.15 353.71 396.04 351.58 399.47 352.34 C 401.84 352.68 403.17 354.91 404.68 356.53 C 403.31 356.66 401.95 356.78 400.59 356.90 C 400.13 356.34 399.22 355.23 398.77 354.67 C 395.85 355.42 394.56 358.02 393.61 360.61 C 395.77 359.57 398.02 357.63 400.59 358.48 C 403.88 359.23 405.64 363.23 404.21 366.23 C 402.35 370.65 395.41 371.11 392.65 367.34 C 390.54 364.47 390.69 360.55 391.35 357.23 M 396.45 361.44 C 392.88 363.26 396.49 368.71 399.58 366.52 C 403.29 364.82 399.67 359.15 396.45 361.44 Z" />
<path fill="#a1a1a1" opacity="1.00" d=" M 413.35 354.95 C 415.73 353.27 418.36 351.99 421.25 351.50 C 421.63 357.24 421.74 363.00 421.99 368.76 C 420.74 368.78 419.50 368.80 418.26 368.83 C 418.17 364.38 418.02 359.93 417.80 355.48 C 416.35 356.51 414.89 357.54 413.45 358.58 C 413.42 357.68 413.38 355.86 413.35 354.95 Z" />
<path fill="#a1a1a1" opacity="1.00" d=" M 374.88 355.88 C 377.46 351.91 384.44 352.04 386.56 356.44 C 388.95 361.01 388.36 368.81 382.58 370.42 C 379.03 371.61 376.02 369.12 373.85 366.64 C 374.99 366.44 376.13 366.25 377.28 366.06 C 378.86 366.60 380.55 368.27 382.30 367.33 C 383.77 366.08 384.18 364.02 385.15 362.42 C 382.68 363.42 379.98 365.59 377.23 364.10 C 374.06 362.92 373.09 358.58 374.88 355.88 M 379.38 356.22 C 376.89 356.80 377.00 360.94 379.38 361.59 C 380.95 361.94 383.34 361.60 383.57 359.65 C 384.34 357.27 381.54 355.11 379.38 356.22 Z" />
<path fill="#a1a1a1" opacity="1.00" d=" M 361.36 356.96 C 363.73 355.27 366.36 353.99 369.25 353.50 C 369.63 359.24 369.74 365.00 369.99 370.76 C 368.74 370.78 367.50 370.80 366.26 370.83 C 366.17 366.42 366.03 362.01 365.82 357.61 C 364.35 358.58 362.88 359.55 361.42 360.53 C 361.41 359.64 361.38 357.85 361.36 356.96 Z" />
<path fill="#a1a1a1" opacity="1.00" d=" M 507.47 361.70 C 509.42 360.44 510.49 362.16 511.12 363.86 C 510.07 365.24 507.90 366.43 506.86 364.40 C 505.78 363.38 506.47 362.40 507.47 361.70 Z" />
<path fill="#a1a1a1" opacity="1.00" d=" M 458.18 363.67 C 459.66 363.53 461.17 363.35 462.68 363.42 C 464.06 365.02 462.91 367.35 460.82 367.37 C 459.62 366.39 458.98 364.92 458.18 363.67 Z" />
<path fill="#a1a1a1" opacity="1.00" d=" M 406.83 366.49 C 408.16 366.05 409.50 365.64 410.85 365.24 C 411.11 365.99 411.63 367.49 411.89 368.24 C 410.61 368.72 409.32 369.18 408.04 369.63 C 407.73 368.84 407.13 367.28 406.83 366.49 Z" />
</g>
<g id="#f26c4fff">
<path fill="#f26c4f" opacity="1.00" d=" M 297.39 332.36 C 300.33 331.22 303.96 333.74 303.30 337.00 C 303.08 340.39 298.66 341.78 296.17 339.86 C 293.59 337.99 294.23 333.22 297.39 332.36 Z" />
</g>
<g id="#9aba2fff">
<path fill="#9aba2f" opacity="1.00" d=" M 297.39 368.32 C 300.72 366.98 304.58 370.42 303.14 373.86 C 302.24 377.35 296.75 377.79 295.11 374.70 C 293.75 372.50 294.78 369.02 297.39 368.32 Z" />
</g>
</svg>
