<svg xmlns="http://www.w3.org/2000/svg" viewBox="0 0 881 416"><g fill="#362f2d"><path d="M149.74 33.06c40.29 0 80.59-.02 120.88.01-.01 4.71-.01 9.42-.01 14.13.12 14.19-.17 28.38.18 42.57h-.47c-12.79.09-25.58-.03-38.37.07-.23-2.04-.98-3.94-1.98-5.71.5-.56 1.01-1.12 1.52-1.68-2.58.03-5.15.03-7.71.04 0 2.42.09 4.85.68 7.21.26-2.13.41-4.28.56-6.43 3.47.51 5.88 3.03 5.93 6.59-4.67-.08-9.34-.09-14.02.03-.07-3.29 2.48-5.38 4.61-7.48-3.71.59-5.74 3.78-5.65 7.37-4.17.01-8.35.02-12.52.08-.05-1.93-.08-3.85-.22-5.78l-.92-.64c-.26-.17-.76-.52-1.01-.69 1.06-1.76 2.7-3.55 2.09-5.78-.26-1.71-1.92-2.62-3.06-3.7-.64.37-1.92 1.12-2.56 1.5-.52 1.85-1.04 3.7-1.55 5.56-.58.28-1.74.83-2.32 1.11-1.9-2.78-.26-5.35 1.38-7.75-1.6.98-3.73 2.11-3.58 4.33-.29 2.15 1.64 3.49 3.04 4.72.59-.41 1.78-1.25 2.38-1.67.69-2.43 1.58-4.81 2.86-7 1.28 1.39 3.14 2.82 2.48 4.99-1.82 2.84-5.46 4.54-5.78 8.24l-.36 1.64c-.69.22-2.07.67-2.76.9-.15-1.23-.29-2.46-.42-3.68.92-1.25 1.83-2.51 2.71-3.78-1.24.54-2.41 1.19-3.52 1.95-.94 1.67-.47 3.7-.59 5.53-13.95-.13-27.9-.03-41.85-.05-.19-14.21-.06-28.41-.06-42.61-.02-4.71-.02-9.43-.01-14.14m43.02 20.89c-.16.7-.46 2.11-.62 2.81l-3.43.04-.04.86c1.7-.14 3.05.45 3.7 2.06.77-.3 1.26-.94 1.46-1.9 2.98-.02 5.95.01 8.93-.07.03-1.28.06-2.56.11-3.84-.83 4.7-6.13 2.37-9.36 2.9l-.75-2.86M188 60.4c-.45 1.6.16 2.11 1.82 1.54.43-1.61-.18-2.12-1.82-1.54m4.16.7l-.72.49 4.22.44c-1.59 1.04-3.74 1.86-4.06 4-.69 1.78.62 3.41 1.21 5.01-1.81-.05-3.62-.07-5.42-.07.17.42.52 1.26.69 1.68 5.04.35 10.1-.07 15.15.1-.26-.72-.51-1.45-.76-2.17.56-1.53 1.63-3.19.87-4.86-.47-1.93-2.51-2.68-3.91-3.79l3.7.12-.04-1.72c-3.63.2-7.5-.8-10.93.77m24.81 9.88c-1.23 3-.47 6.41-.64 9.58 5.04-.03 10.08-.02 15.12-.01-.25-3.53.97-7.63-1.3-10.69-2.11-2.3-5.2-.93-6.94 1.04-1.65-1.69-4.97-2.47-6.24.08z"/><path d="M193.05 67.99c-.78-4.03 4.15-4.4 6.96-3.99.71.64 1.42 1.29 2.13 1.95 1.33 5.61-7.86 7.04-9.09 2.04zM217.38 79.23c.18-3.05-1.21-9.19 3.7-8.61 3.03 1.76 2.02 5.71 2.23 8.6-1.98.01-3.96.01-5.93.01zM224.58 70.49c1.95-.23 4.64-.91 5.56 1.5.32 2.4.19 4.82.2 7.24-2.08 0-4.16 0-6.23.01-.04-2.92.07-5.85.47-8.75zM189.49 141.83c3.4-3.54 6.8-7.09 10.24-10.59 2.05 1.96 4.14 3.88 6.27 5.75.95.86 1.89 1.75 2.8 2.66 1.5 1.51 2.99 3.03 4.53 4.49.46.43 1.37 1.29 1.82 1.72 1.97 1.94 4.04 3.76 6.1 5.6.26.26.78.79 1.04 1.06 1.69 1.72 3.41 3.39 5.17 5.05 3.23 3.09 6.42 6.24 9.73 9.26 1.76 1.67 3.49 3.38 5.25 5.05 1.01.95 2.02 1.91 3.03 2.86 1.31 1.24 2.65 2.47 3.98 3.7.74.7 1.48 1.4 2.21 2.12 1.55 1.51 3.09 3.03 4.67 4.52.43.41 1.29 1.22 1.72 1.62 1.92 1.86 3.88 3.67 5.87 5.44.68.62 1.35 1.25 2 1.9 1.68 1.69 3.38 3.37 5.14 4.99.84.77 1.68 1.56 2.5 2.37 1.56 1.54 3.15 3.05 4.76 4.54.44.42 1.32 1.25 1.76 1.67 2.16 2.13 4.32 4.27 6.52 6.35-3.4 3.56-6.75 7.17-10.29 10.59-1.01 1-1.98 2.03-2.95 3.08-1.2 1.28-2.39 2.58-3.61 3.86-.92.94-1.84 1.89-2.74 2.85-1.8 1.9-3.69 3.69-5.55 5.53-.42.46-1.26 1.39-1.68 1.85-1.37 1.58-2.77 3.13-4.25 4.61-.52.54-1.57 1.61-2.09 2.15a66.326 66.326 0 0 1-6.32 6 26.1 26.1 0 0 1-9.18 4.41c-34.19 9.85-72.68 6.28-103.39-12.14-3.92-2.5-6.67-6.32-10.39-9.04-2.49-1.84-4.31-4.39-6.4-6.63-2.31-2.35-4.76-4.55-7.12-6.85 2.73-2.78 5.41-5.61 8.05-8.47.5-.53 1.5-1.58 2-2.11 1.61-1.67 3.25-3.32 4.87-4.98.52-.54 1.56-1.62 2.08-2.17 1.56-1.64 3.13-3.28 4.69-4.93.57-.6 1.72-1.8 2.3-2.4 1.48-1.53 2.98-3.05 4.46-4.59l2.39-2.54c1.49-1.57 3.02-3.1 4.54-4.63.82-.84 1.62-1.69 2.42-2.55 1.29-1.41 2.59-2.83 3.91-4.21.77-.8 1.55-1.6 2.32-2.39.48-.5.96-.99 1.44-1.49 1.29-1.32 2.58-2.65 3.84-4 .45-.48 1.34-1.45 1.78-1.93.66-.72 1.33-1.43 2.02-2.12 1-1.03 2.03-2.03 3.04-3.05.91-.94 1.82-1.89 2.71-2.84 1.11-1.18 2.22-2.38 3.33-3.57.28-.3.56-.61.85-.91.46-.49 1.39-1.46 1.86-1.95 1.61-1.65 3.23-3.29 4.86-4.92.53-.54 1.6-1.62 2.13-2.17 1.52-1.62 2.99-3.28 4.51-4.91.81-.86 1.63-1.72 2.45-2.57z"/><path d="M152.06 263.64c2.43.1 4.86.43 7.18 1.2 13.76 4.5 28.27 6.8 42.77 6.42 11.66.18 23.12-2.27 34.43-4.8-.66.6-1.31 1.21-1.94 1.84-.48.5-1.46 1.51-1.95 2.01-1.61 1.71-3.25 3.38-4.89 5.05-.78.83-1.56 1.65-2.33 2.49-1.52 1.6-3.12 3.11-4.69 4.66-.9.94-1.75 1.94-2.62 2.91-1.26 1.38-2.56 2.72-3.88 4.05-.79.82-1.57 1.64-2.34 2.48-1.5 1.62-3.08 3.16-4.68 4.69-.78.75-1.54 1.53-2.26 2.35-2.35 2.77-4.79 5.45-7.41 7.97-1.67-1.61-3.34-3.22-5-4.84-.85-.83-1.71-1.64-2.57-2.44-1.42-1.32-2.85-2.63-4.26-3.94-.74-.71-1.47-1.42-2.19-2.14-1.77-1.75-3.55-3.48-5.35-5.19-.83-.78-1.67-1.56-2.49-2.33-1.69-1.59-3.32-3.22-4.94-4.87-.47-.46-1.41-1.39-1.88-1.86-1.74-1.54-3.52-3.04-5.25-4.6-.88-.81-1.74-1.66-2.59-2.5-1.46-1.46-2.94-2.92-4.42-4.36-.87-.84-1.74-1.68-2.61-2.51-.46-.44-1.38-1.31-1.84-1.74zM155.75 346.71c52.85-.11 105.71-.15 158.57.02.1 13.37.28 26.75-.08 40.12-52.82-.03-105.63.01-158.45-.03-.25-13.37-.15-26.74-.04-40.11m20.05 15.54c0 1.48 0 2.96.01 4.45 1.17.01 2.34.02 3.52.04v-4.53c-1.18.01-2.36.02-3.53.04m20.08.04c.03 1.47.06 2.94.11 4.42 1.16.01 2.33.01 3.49.02-.01-1.52-.01-3.03-.01-4.54-1.2.03-2.4.06-3.59.1m20.83-.08c0 1.5-.01 3.01-.01 4.52 1.17-.01 2.35-.01 3.53-.01-.01-1.5-.01-2.99 0-4.48l-3.52-.03m20.06.11c.02 1.45.05 2.91.08 4.38 1.17.01 2.34.02 3.51.04 0-1.52-.01-3.04 0-4.55-1.21.02-2.4.06-3.59.13m20.82-.11v4.53c1.18-.02 2.36-.04 3.55-.05-.01-1.48-.01-2.95-.01-4.42-1.18-.03-2.36-.05-3.54-.06m20.14.01v4.51c1.17-.01 2.34-.01 3.52 0v-4.5c-1.18-.01-2.35-.01-3.52-.01z"/></g><path fill="#4d5c26" d="M49.03 47.21c33.58-.03 67.15 0 100.72-.01 0 14.2-.13 28.4.06 42.61-26.61-.01-53.23 0-79.84-.01-4.15.01-8.33.18-12.46-.28-1.51-.2-3.01-.46-4.51-.72-.75 10.19-.73 20.43-.21 30.63-.25 5.86-.3 11.72-.23 17.58 0 68.29.01 136.57 0 204.86 97.76-.01 195.52 0 293.28 0V221.04c-.14-32.8.29-65.6-.24-98.39 1.37-10.49.68-21.04.05-31.54l-.04-1.35c-3.6-.02-7.21.02-10.81.21-18.78.37-37.59.34-56.38.02-2.54-.13-5.09-.2-7.63-.22-.35-14.19-.06-28.38-.18-42.57 26.45.02 52.9-.02 79.36.02-.05 114.57-.02 229.14-.02 343.71-100.3.02-200.6.02-300.9.01 0-114.58.03-229.15-.02-343.73m106.72 299.5c-.11 13.37-.21 26.74.04 40.11 52.82.04 105.63 0 158.45.03.36-13.37.18-26.75.08-40.12-52.86-.17-105.72-.13-158.57-.02m-67.03 8.17c-.01 7.69-.02 15.39.01 23.08 11.04-.07 22.09-.02 33.13-.03 0-7.68.01-15.36-.01-23.05-11.04-.02-22.09-.01-33.13 0z"/><g fill="#cbcbcb"><path d="M192.76 53.95l.75 2.86c3.23-.53 8.53 1.8 9.36-2.9-.05 1.28-.08 2.56-.11 3.84-2.98.08-5.95.05-8.93.07-.2.96-.69 1.6-1.46 1.9-.65-1.61-2-2.2-3.7-2.06l.04-.86 3.43-.04c.16-.7.46-2.11.62-2.81zM216.97 70.98c1.27-2.55 4.59-1.77 6.24-.08 1.74-1.97 4.83-3.34 6.94-1.04 2.27 3.06 1.05 7.16 1.3 10.69-5.04-.01-10.08-.02-15.12.01.17-3.17-.59-6.58.64-9.58m.41 8.25c1.97 0 3.95 0 5.93-.01-.21-2.89.8-6.84-2.23-8.6-4.91-.58-3.52 5.56-3.7 8.61m7.2-8.74c-.4 2.9-.51 5.83-.47 8.75 2.07-.01 4.15-.01 6.23-.01-.01-2.42.12-4.84-.2-7.24-.92-2.41-3.61-1.73-5.56-1.5zM191.62 78.02c-.15-2.22 1.98-3.35 3.58-4.33-1.64 2.4-3.28 4.97-1.38 7.75.58-.28 1.74-.83 2.32-1.11.51-1.86 1.03-3.71 1.55-5.56.64-.38 1.92-1.13 2.56-1.5 1.14 1.08 2.8 1.99 3.06 3.7.61 2.23-1.03 4.02-2.09 5.78.25.17.75.52 1.01.69l-1.19-.2c-2.33.75-2.97 3.08-3.7 5.13l-.74-1.07c.32-3.7 3.96-5.4 5.78-8.24.66-2.17-1.2-3.6-2.48-4.99-1.28 2.19-2.17 4.57-2.86 7-.6.42-1.79 1.26-2.38 1.67-1.4-1.23-3.33-2.57-3.04-4.72zM223.78 82.49c2.56-.01 5.13-.01 7.71-.04-.51.56-1.02 1.12-1.52 1.68 1 1.77 1.75 3.67 1.98 5.71-1 2.13-2.06 4.63-4.45 5.5-2.53.73-5.36.74-7.83-.21-2.19-.91-2.9-3.38-3.78-5.35-.09-3.59 1.94-6.78 5.65-7.37-2.13 2.1-4.68 4.19-4.61 7.48 1.53 6.66 12.41 6.53 14.02-.03-.05-3.56-2.46-6.08-5.93-6.59-.15 2.15-.3 4.3-.56 6.43-.59-2.36-.68-4.79-.68-7.21zM198.97 90.47c.68-.28 2.05-.85 2.74-1.14-.14.86-.29 1.71-.43 2.56.56.61 1.13 1.21 1.69 1.82-3.32-.12-6.65-.14-9.96.06 2.79 2.69 7.11 2.92 10.5 4.63-2.94 1.47-6.02 2.66-9.16 3.64 2.76 1.07 5.57 2.02 8.41 2.83l-.12 1.38c-3.53 1.18-7.38 1.82-10.47 4.02-2.17 1.8-4.67 4.59-3.29 7.61.6 1.96 2.84 1.62 4.43 2.02.91-2.94 1.51-6.03 2.93-8.79.87-.95 2.46-1.99 3.75-1.23 3.68 1.07 3.97 6.02 2.62 8.99-.67 2.06-3.14 2.26-4.81 3.1 1.21-1.19 2.47-2.33 3.6-3.6 2.46-2.43.63-8.05-3.23-7.3-2.79 2.4-2.05 6.91-4.54 9.59-4.65 1.88-7.54-3.92-5.46-7.54 2.84-4.54 8.25-6 12.97-7.71-3.29-1.01-6.54-2.13-9.75-3.38 3.22-1.18 6.43-2.37 9.59-3.69-2.85-1.1-5.83-1.99-8.92-1.82l-.12-4.24c2.92.22 5.85.32 8.79.39l-1.76-2.2zM217.22 104.88c-2.02-2.72-.02-7.27 3.46-7.26 4.91.55 5.53 6.68 9.68 8.5.06-2.65.05-5.29 0-7.94.28.01.82.02 1.1.03-.02 2.93-.01 5.86-.01 8.79-5.39.09-5.83-6.98-10.46-8.42-2.64-.05-4.49 2.97-3.23 5.32 1.36 1.1 2.85 2.02 4.29 3.02-1.69-.38-3.84-.32-4.83-2.04zM277.73 362.22c1.17 0 2.34 0 3.52.01v4.5c-1.18-.01-2.35-.01-3.52 0v-4.51z"/></g><path fill="#8b8988" d="M188 60.4c1.64-.58 2.25-.07 1.82 1.54-1.66.57-2.27.06-1.82-1.54z"/><path fill="#918f8e" d="M192.16 61.1c3.43-1.57 7.3-.57 10.93-.77l.04 1.72-3.7-.12c1.4 1.11 3.44 1.86 3.91 3.79.76 1.67-.31 3.33-.87 4.86.25.72.5 1.45.76 2.17-5.05-.17-10.11.25-15.15-.1-.17-.42-.52-1.26-.69-1.68 1.8 0 3.61.02 5.42.07-.59-1.6-1.9-3.23-1.21-5.01.32-2.14 2.47-2.96 4.06-4l-4.22-.44.72-.49m.89 6.89c1.23 5 10.42 3.57 9.09-2.04-.71-.66-1.42-1.31-2.13-1.95-2.81-.41-7.74-.04-6.96 3.99z"/><g fill="#999797"><path d="M192.25 84.33c1.11-.76 2.28-1.41 3.52-1.95-.88 1.27-1.79 2.53-2.71 3.78.13 1.22.27 2.45.42 3.68-.3 3 4.79 1.54 2.76-.9l.36-1.64.74 1.07c.4.52 1.22 1.57 1.63 2.1l1.76 2.2c-2.94-.07-5.87-.17-8.79-.39l.12 4.24c3.09-.17 6.07.72 8.92 1.82-3.16 1.32-6.37 2.51-9.59 3.69 3.21 1.25 6.46 2.37 9.75 3.38-4.72 1.71-10.13 3.17-12.97 7.71-2.08 3.62.81 9.42 5.46 7.54 2.49-2.68 1.75-7.19 4.54-9.59 3.86-.75 5.69 4.87 3.23 7.3-1.13 1.27-2.39 2.41-3.6 3.6 1.67-.84 4.14-1.04 4.81-3.1 1.35-2.97 1.06-7.92-2.62-8.99-1.29-.76-2.88.28-3.75 1.23-1.42 2.76-2.02 5.85-2.93 8.79-1.59-.4-3.83-.06-4.43-2.02-1.38-3.02 1.12-5.81 3.29-7.61 3.09-2.2 6.94-2.84 10.47-4.02l.12-1.38c-2.84-.81-5.65-1.76-8.41-2.83 3.14-.98 6.22-2.17 9.16-3.64-3.39-1.71-7.71-1.94-10.5-4.63 3.31-.2 6.64-.18 9.96-.06-.56-.61-1.13-1.21-1.69-1.82.14-.85.29-1.7.43-2.56.47-2.06-.07-4.12-.67-6.09l1.19.2.92.64c.14 1.93.17 3.85.22 5.78 4.17-.06 8.35-.07 12.52-.08.88 1.97 1.59 4.44 3.78 5.35 2.47.95 5.3.94 7.83.21 2.39-.87 3.45-3.37 4.45-5.5 12.79-.1 25.58.02 38.37-.07.93 7.05.5 14.16.53 21.25-.05 6.48.21 12.96-.09 19.44-1.48.46-2.96.92-4.43 1.38-.02 2.41-.79 5.05.39 7.3 1.38.39 2.81.59 4.23.83.31 7.66 0 15.33.2 22.99-.05 2.87.21 5.84-.61 8.62-2.77 4.21-7.28 6.81-10.84 10.29-1.14 1.05-2.26 2.13-3.37 3.21-1.58-1.49-3.12-3.01-4.67-4.52.7-1.05 1.39-2.09 2.09-3.13-.85-.53-1.7-1.05-2.54-1.56-.59.85-1.18 1.71-1.76 2.57-1.33-1.23-2.67-2.46-3.98-3.7.26-1.76.53-3.52.72-5.28-.07-3.36-.32-6.72-.37-10.07-2.41-.04-4.81-.07-7.22-.11l.16 3.18c-1.06.02-2.13.05-3.19.08-.11-.97-.21-1.93-.32-2.9-.91-.2-1.81-.4-2.72-.59-.5-1.56-1.02-3.11-1.54-4.65-1.19 1.04-2.36 2.1-3.53 3.17-1.76-1.66-3.48-3.33-5.17-5.05.98-.8 1.96-1.59 2.95-2.38-.38-.51-1.14-1.52-1.52-2.02l-1.99.72-.48 2.62c-2.06-1.84-4.13-3.66-6.1-5.6 1.15-.78 2.26-1.61 3.38-2.45-.61-.54-1.83-1.64-2.43-2.19-.93.97-1.85 1.94-2.77 2.92-1.54-1.46-3.03-2.98-4.53-4.49.4-1.24.8-2.48 1.21-3.71-.52-.57-1.04-1.14-1.56-1.7-.82.91-1.64 1.83-2.45 2.75-2.13-1.87-4.22-3.79-6.27-5.75-3.44 3.5-6.84 7.05-10.24 10.59-.89-.77-1.77-1.54-2.65-2.3-.75.77-1.5 1.55-2.24 2.33.81.85 1.63 1.69 2.44 2.54-1.52 1.63-2.99 3.29-4.51 4.91-.75-.92-1.48-1.85-2.19-2.81-.54.6-1.64 1.78-2.19 2.38.56.65 1.69 1.95 2.25 2.6a563.65 563.65 0 0 0-4.86 4.92c-.62-.8-1.24-1.6-1.85-2.4-.91.64-1.81 1.28-2.72 1.92.9.81 1.8 1.62 2.71 2.43-.29.3-.57.61-.85.91-1.92-.24-3.84-.47-5.76-.69-.25.5-.73 1.51-.97 2.02-.32.66-.97 1.99-1.29 2.65.66.81 1.32 1.61 1.98 2.43-1.01 1.02-2.04 2.02-3.04 3.05-.24-3.32-.37-6.65-.45-9.98-2.39.02-4.77.04-7.16.07-.03 5.99-.29 11.98-.03 17.96-.48.5-.96.99-1.44 1.49-.71-1.85-2.5-1.98-4.21-1.62-.71-8.27-.59-16.62-.01-24.9 1.76-.4 3.53-.8 5.3-1.2.24-12.72.19-25.45.09-38.17-1.92-.28-3.84-.57-5.75-.85-.39-7.24 0-14.48-.28-21.71 13.95.02 27.9-.08 41.85.05.12-1.83-.35-3.86.59-5.53m24.97 20.55c.99 1.72 3.14 1.66 4.83 2.04-1.44-1-2.93-1.92-4.29-3.02-1.26-2.35.59-5.37 3.23-5.32 4.63 1.44 5.07 8.51 10.46 8.42 0-2.93-.01-5.86.01-8.79-.28-.01-.82-.02-1.1-.03.05 2.65.06 5.29 0 7.94-4.15-1.82-4.77-7.95-9.68-8.5-3.48-.01-5.48 4.54-3.46 7.26m32.97 41.26c-.51 8.56-.38 17.17-.04 25.74 2.5-.01 5-.09 7.5-.26.97-8.43.42-16.96.31-25.42-2.59-.06-5.18-.08-7.77-.06z"/><path d="M216.93 89.89c4.68-.12 9.35-.11 14.02-.03-1.61 6.56-12.49 6.69-14.02.03z"/></g><path fill="#342c2a" d="M197.34 88.37c.73-2.05 1.37-4.38 3.7-5.13.6 1.97 1.14 4.03.67 6.09-.69.29-2.06.86-2.74 1.14-.41-.53-1.23-1.58-1.63-2.1z"/><path fill="#3e3c39" d="M53 88.8c1.5.26 3 .52 4.51.72C51.74 143.24 73.4 200.03 116 233.89c.46.32 1.38.97 1.84 1.3 1.51.28 3.17.43 4.16 1.78 3.18 4.34 8.27 6.68 12.55 9.78 30.71 18.42 69.2 21.99 103.39 12.14a26.1 26.1 0 0 0 9.18-4.41c-.24.49-.73 1.48-.97 1.98 3.04-1.46 6.03-3.04 9.08-4.49 26.03-12.14 47.8-32.59 62.7-57.05 15.71-26.02 24.31-56.45 23.93-86.89.05-5.83-.29-11.65-.58-17.48l4.37.56c.63 10.5 1.32 21.05-.05 31.54-2.4 31.27-13.06 62.01-31.36 87.55-18.86 26.55-46.33 47.28-77.8 56.26-11.31 2.53-22.77 4.98-34.43 4.8-14.5.38-29.01-1.92-42.77-6.42-2.32-.77-4.75-1.1-7.18-1.2-1.19-1.01-2.42-1.99-3.79-2.76-26.08-10.69-48.26-29.82-64.38-52.79-18.29-25.96-28.68-57.08-31.1-88.66-.52-10.2-.54-20.44.21-30.63z"/><path fill="#b0b0af" d="M193.48 89.84c.69-.23 2.07-.68 2.76-.9 2.03 2.44-3.06 3.9-2.76.9z"/><g fill="#a0a495"><path d="M57.51 89.52c4.13.46 8.31.29 12.46.28 26.61.01 53.23 0 79.84.01.28 7.23-.11 14.47.28 21.71 1.91.28 3.83.57 5.75.85.1 12.72.15 25.45-.09 38.17-1.77.4-3.54.8-5.3 1.2-.58 8.28-.7 16.63.01 24.9.59 1.35 1.24 2.68 1.89 4.01-1.32 1.38-2.62 2.8-3.91 4.21-.83-.69-1.66-1.39-2.48-2.08-.76.72-1.51 1.44-2.26 2.17.77.82 1.54 1.64 2.32 2.46-1.52 1.53-3.05 3.06-4.54 4.63-.92-.76-1.84-1.51-2.76-2.26-.65.91-1.33 1.8-2.05 2.67.61.53 1.82 1.6 2.42 2.13-1.48 1.54-2.98 3.06-4.46 4.59-1.1-.74-2.19-1.47-3.29-2.19-.49.58-1.48 1.72-1.97 2.3.99.74 1.98 1.51 2.96 2.29-1.56 1.65-3.13 3.29-4.69 4.93-.8-.84-1.6-1.67-2.4-2.5-.78.74-1.55 1.49-2.32 2.24.87.82 1.75 1.63 2.64 2.43-1.62 1.66-3.26 3.31-4.87 4.98l-2.69-2.57c-.72.9-1.43 1.8-2.13 2.71.94.66 1.88 1.31 2.82 1.97a378.21 378.21 0 0 1-8.05 8.47c2.36 2.3 4.81 4.5 7.12 6.85-.59.93-1.18 1.86-1.76 2.81-42.6-33.86-64.26-90.65-58.49-144.37m12.65 1.6c.01 9.26-.39 18.53.07 27.77.05 2.55 3.12 1.89 4.8 2.06 11.94-.14 23.88.16 35.81-.2.43-9.86.31-19.74.04-29.6-13.56-.39-27.16-.35-40.72-.03zM270.32 89.77h.47c2.54.02 5.09.09 7.63.22-.25 8.02-.09 16.05-.12 24.08 18.96.08 37.91.03 56.87.03-.12-8.05.4-16.11-.37-24.13 3.6-.19 7.21-.23 10.81-.21l.04 1.35-4.37-.56c.29 5.83.63 11.65.58 17.48.38 30.44-8.22 60.87-23.93 86.89-14.9 24.46-36.67 44.91-62.7 57.05-3.05 1.45-6.04 3.03-9.08 4.49.24-.5.73-1.49.97-1.98 2.23-1.86 4.35-3.86 6.32-6 .8.69 1.61 1.38 2.43 2.07.57-.5 1.71-1.5 2.28-1.99-.88-.74-1.75-1.49-2.62-2.23 1.48-1.48 2.88-3.03 4.25-4.61 1.19.54 2.39 1.07 3.6 1.58.2-1.51.63-4.69-1.92-3.43 1.86-1.84 3.75-3.63 5.55-5.53 1.07.7 2.16 1.4 3.25 2.09.44-1.68.16-3.36-.51-4.94 1.22-1.28 2.41-2.58 3.61-3.86l2.67 1.23c.44-.26 1.31-.79 1.75-1.06-.47-1.1-.96-2.18-1.47-3.25 3.54-3.42 6.89-7.03 10.29-10.59-2.2-2.08-4.36-4.22-6.52-6.35.97-.89 1.93-1.78 2.87-2.7-.84-.65-1.68-1.31-2.51-1.95-.71.99-1.42 1.98-2.12 2.98-1.61-1.49-3.2-3-4.76-4.54.63-1 1.26-1.99 1.9-2.98-.56-.7-1.12-1.39-1.68-2.08-.91.89-1.82 1.78-2.72 2.69-1.76-1.62-3.46-3.3-5.14-4.99.77-.74 1.54-1.47 2.31-2.2-.54-.89-1.07-1.78-1.6-2.67-.91.99-1.81 1.98-2.71 2.97-1.99-1.77-3.95-3.58-5.87-5.44 1.26-.66 2.5-1.37 3.75-2.08-.53-.69-1.57-2.07-2.1-2.75 3.56-3.48 8.07-6.08 10.84-10.29.82-2.78.56-5.75.61-8.62-.2-7.66.11-15.33-.2-22.99-1.42-.24-2.85-.44-4.23-.83-1.18-2.25-.41-4.89-.39-7.3 1.47-.46 2.95-.92 4.43-1.38.3-6.48.04-12.96.09-19.44-.03-7.09.4-14.2-.53-21.25z"/><path d="M52.79 119.43c2.42 31.58 12.81 62.7 31.1 88.66 16.12 22.97 38.3 42.1 64.38 52.79 1.37.77 2.6 1.75 3.79 2.76.46.43 1.38 1.3 1.84 1.74-.78.85-1.56 1.71-2.34 2.57.47.54 1.42 1.6 1.9 2.14 1.02-.73 2.03-1.46 3.05-2.2 1.48 1.44 2.96 2.9 4.42 4.36-1.34 1.59-1.96 3.37-.29 4.96.96-.83 1.92-1.64 2.88-2.46 1.73 1.56 3.51 3.06 5.25 4.6-.6.47-1.79 1.39-2.38 1.86.84.9 1.68 1.81 2.54 2.72l1.72-2.72c1.62 1.65 3.25 3.28 4.94 4.87-1.19 1.5-1.5 3.22-.28 4.84.69-.63 2.08-1.88 2.77-2.51 1.8 1.71 3.58 3.44 5.35 5.19-.82.54-1.64 1.08-2.45 1.62.28.6.85 1.8 1.13 2.4 1.17-.63 2.34-1.26 3.51-1.88 1.41 1.31 2.84 2.62 4.26 3.94-.72.82-1.44 1.64-2.15 2.47.73.8 1.47 1.6 2.22 2.4.83-.81 1.66-1.62 2.5-2.43 1.66 1.62 3.33 3.23 5 4.84 2.62-2.52 5.06-5.2 7.41-7.97.83.66 1.67 1.33 2.51 1.99.69-.86 1.37-1.74 2.04-2.61l-2.29-1.73c1.6-1.53 3.18-3.07 4.68-4.69.98.62 1.97 1.25 2.96 1.87.56-.87 1.11-1.74 1.68-2.61-.58-.43-1.72-1.3-2.3-1.74 1.32-1.33 2.62-2.67 3.88-4.05 1.76.07 3.52 0 5.27-.21-.88-.91-1.76-1.81-2.65-2.7 1.57-1.55 3.17-3.06 4.69-4.66.91.39 1.83.78 2.75 1.17l2.01-1.33c-.81-.78-1.63-1.55-2.43-2.33 1.64-1.67 3.28-3.34 4.89-5.05.84.76 1.69 1.52 2.54 2.28.81-.84 1.59-1.71 2.33-2.61-.97-.58-1.94-1.14-2.92-1.68.63-.63 1.28-1.24 1.94-1.84 31.47-8.98 58.94-29.71 77.8-56.26 18.3-25.54 28.96-56.28 31.36-87.55.53 32.79.1 65.59.24 98.39v120.83c-97.76 0-195.52-.01-293.28 0 .01-68.29 0-136.57 0-204.86-.07-5.86-.02-11.72.23-17.58m92.51 141.56c-.89 1.31 1.39 2.77 2.36 1.65.92-1.34-1.37-2.81-2.36-1.65m104.99 59.54c4.27 1.43 9.05-1.3 10.07-5.67h-3.27c-1.27 1.98-3.31 3.78-5.83 2.82-4.21-2.17-4.06-10.27.83-11.49 2.37-.59 3.79 1.49 4.93 3.17.83-.01 2.48-.01 3.3-.02-1.04-3.66-4.33-6.63-8.33-6-8.75.2-9.71 14.94-1.7 17.19m71.9-11.85c.71-.05 2.12-.14 2.83-.19 1.51-2.72 5.19-3.5 6.79-.39-1.96 4.96-8.21 6.92-9.29 12.26 4.16.05 8.32.02 12.48.02v-2.76c-2.6 0-5.2-.02-7.8-.05 2.56-2.75 6.23-4.87 7.33-8.66.72-3.7-3.22-6.22-6.54-5.57-3.13-.15-4.95 2.72-5.8 5.34m-108.59-5.1c2.02 5.54 3.92 11.13 5.66 16.76 1.45.02 2.9.03 4.36.05 1.79-5.61 3.68-11.18 5.57-16.76-.92-.02-2.75-.05-3.66-.07-1.32 4.3-2.43 8.67-3.93 12.91-1.72-4.13-2.76-8.49-4-12.77-1.33-.05-2.67-.09-4-.12m20.82 4.01c-6.05 1.25-6.1 11.61-.03 12.87 4.09 1.34 8.66-2.01 8.04-6.43.57-4.36-3.96-7.7-8.01-6.44m54.31 10.6c2.59 3.97 9.84 3.18 11.15-1.57-2.33.33-4.51 1.31-6.84 1.57-1.65-.42-1.83-2.2-2.38-3.51 3.05-.05 6.12-.04 9.18-.05.32-3.85-2.42-7.92-6.65-7.23-5.23.12-6.93 6.98-4.46 10.79m-23.39-10.03c-4.83 2.88-3.57 12.37 2.64 12.47 4.81.96 8.23-4.37 6.78-8.65-.76-4.16-5.98-5.71-9.42-3.82m12.66-.72c-.01 4.32 0 8.63 0 12.95h3.18c.06-2.88-.3-5.83.41-8.65 1.02-1.55 3.06-1.23 4.63-1.54-.02-.71-.05-2.12-.07-2.83-1.57.25-3.08.7-4.56 1.27-1.05-.79-2.25-1.19-3.59-1.2m29.68.15c1.5 4.25 3 8.51 4.4 12.79 1.27 0 2.56.01 3.84 0 1.4-4.28 2.89-8.54 4.4-12.79-.86.01-2.58.02-3.44.03-.92 3.28-1.79 6.57-2.78 9.84-1.15-3.23-2.05-6.53-2.89-9.84-.88-.01-2.64-.02-3.53-.03z"/><path d="M235.15 310.18c4.5-1.46 5.41 6.6 1.82 7.81-4.29.88-5.06-6.27-1.82-7.81zM267.28 310.38c5.26-2.5 6.21 8.69.71 7.63-2.9-1.11-3.03-5.92-.71-7.63zM290.61 312.78c.81-1.32 1.45-3.27 3.43-2.81 1.72-.4 2.14 1.74 2.97 2.75-2.14.07-4.27.09-6.4.06z"/></g><g fill="#00a4b4"><path d="M278.42 89.99c18.79.32 37.6.35 56.38-.02.77 8.02.25 16.08.37 24.13-18.96 0-37.91.05-56.87-.03.03-8.03-.13-16.06.12-24.08zM88.72 354.88c11.04-.01 22.09-.02 33.13 0 .02 7.69.01 15.37.01 23.05-11.04.01-22.09-.04-33.13.03-.03-7.69-.02-15.39-.01-23.08z"/></g><g fill="#a1a1a1"><path d="M70.16 91.12c13.56-.32 27.16-.36 40.72.03.27 9.86.39 19.74-.04 29.6-11.93.36-23.87.06-35.81.2-1.68-.17-4.75.49-4.8-2.06-.46-9.24-.06-18.51-.07-27.77m17.22 5.52c-4.2 1.01-7.7 4.9-7.61 9.33.12 4.51 3.89 8.33 8.24 9.07 5.69 1.38 12.42-2.87 12.56-8.97.25-6.58-7.17-11.23-13.19-9.43zM250.19 146.14c2.59-.02 5.18 0 7.77.06.11 8.46.66 16.99-.31 25.42-2.5.17-5 .25-7.5.26-.34-8.57-.47-17.18.04-25.74z"/></g><path fill="#ab7500" d="M87.38 96.64c6.02-1.8 13.44 2.85 13.19 9.43-.14 6.1-6.87 10.35-12.56 8.97-4.35-.74-8.12-4.56-8.24-9.07-.09-4.43 3.41-8.32 7.61-9.33m1.2 6.67c-.01 1.19-.01 2.39 0 3.58.97 0 1.94-.01 2.92-.02v-3.55c-.98 0-1.95-.01-2.92-.01z"/><g fill="#f1f6ff"><path d="M88.58 103.31c.97 0 1.94.01 2.92.01v3.55c-.98.01-1.95.02-2.92.02-.01-1.19-.01-2.39 0-3.58zM208.45 134.24c.52.56 1.04 1.13 1.56 1.7-.41 1.23-.81 2.47-1.21 3.71-.91-.91-1.85-1.8-2.8-2.66.81-.92 1.63-1.84 2.45-2.75zM221.73 148.84l1.99-.72c.38.5 1.14 1.51 1.52 2.02-.99.79-1.97 1.58-2.95 2.38-.26-.27-.78-.8-1.04-1.06l.48-2.62zM170.97 155.92c.91-.64 1.81-1.28 2.72-1.92.61.8 1.23 1.6 1.85 2.4-.47.49-1.4 1.46-1.86 1.95-.91-.81-1.81-1.62-2.71-2.43zM150.46 176.64c1.71-.36 3.5-.23 4.21 1.62-.77.79-1.55 1.59-2.32 2.39-.65-1.33-1.3-2.66-1.89-4.01zM251.21 175.87c.84.51 1.69 1.03 2.54 1.56-.7 1.04-1.39 2.08-2.09 3.13-.73-.72-1.47-1.42-2.21-2.12.58-.86 1.17-1.72 1.76-2.57zM266.63 189.17c.53.89 1.06 1.78 1.6 2.67-.77.73-1.54 1.46-2.31 2.2-.65-.65-1.32-1.28-2-1.9.9-.99 1.8-1.98 2.71-2.97zM271.06 199.03c.9-.91 1.81-1.8 2.72-2.69.56.69 1.12 1.38 1.68 2.08-.64.99-1.27 1.98-1.9 2.98-.82-.81-1.66-1.6-2.5-2.37zM280.44 202.96c.83.64 1.67 1.3 2.51 1.95-.94.92-1.9 1.81-2.87 2.7-.44-.42-1.32-1.25-1.76-1.67.7-1 1.41-1.99 2.12-2.98zM273.36 227.63c.97-1.05 1.94-2.08 2.95-3.08.51 1.07 1 2.15 1.47 3.25-.44.27-1.31.8-1.75 1.06l-2.67-1.23zM117.76 231.08c2.09 2.24 3.91 4.79 6.4 6.63 3.72 2.72 6.47 6.54 10.39 9.04-4.28-3.1-9.37-5.44-12.55-9.78-.99-1.35-2.65-1.5-4.16-1.78-.46-.33-1.38-.98-1.84-1.3.58-.95 1.17-1.88 1.76-2.81zM267.01 234.34c.9-.96 1.82-1.91 2.74-2.85.67 1.58.95 3.26.51 4.94-1.09-.69-2.18-1.39-3.25-2.09zM259.78 241.72c.42-.46 1.26-1.39 1.68-1.85 2.55-1.26 2.12 1.92 1.92 3.43-1.21-.51-2.41-1.04-3.6-1.58zM160.64 277.21c-1.67-1.59-1.05-3.37.29-4.96.85.84 1.71 1.69 2.59 2.5-.96.82-1.92 1.63-2.88 2.46zM225.33 277.85c.77-.84 1.55-1.66 2.33-2.49.8.78 1.62 1.55 2.43 2.33l-2.01 1.33c-.92-.39-1.84-.78-2.75-1.17zM218.02 285.42c.87-.97 1.72-1.97 2.62-2.91.89.89 1.77 1.79 2.65 2.7-1.75.21-3.51.28-5.27.21zM175.59 286.08c.82.77 1.66 1.55 2.49 2.33-.69.63-2.08 1.88-2.77 2.51-1.22-1.62-.91-3.34.28-4.84zM180.98 295.22c.81-.54 1.63-1.08 2.45-1.62.72.72 1.45 1.43 2.19 2.14-1.17.62-2.34 1.25-3.51 1.88-.28-.6-.85-1.8-1.13-2.4z"/></g><g fill="#959595"><path d="M512.32 139.44c3.67-1.86 8.39 1.52 8 5.57.26 4.72-6.22 7.55-9.53 4.2-3.23-2.6-2.35-8.3 1.53-9.77zM691 141.75h10.25v53.5h-9.98c-.02-2.11-.04-4.22-.09-6.33-3.88 6.54-12.72 8.77-19.4 5.35-5.25-2.61-7.81-8.5-8.51-14.05-.81-6.68-.09-14.17 4.39-19.51 4.21-5.04 12-6.23 17.74-3.27 2.49 1.25 4 3.67 5.61 5.83-.02-7.17-.01-14.35-.01-21.52m-12.69 23.58c-3.21 1.62-4.43 5.42-4.76 8.76-.3 3.71.21 7.81 2.71 10.75 3.41 3.77 10.47 3.17 12.99-1.35 2.43-4.72 2.53-10.85-.21-15.45-2.09-3.66-7.16-4.51-10.73-2.71zM372.75 144.51c7.24.03 14.49-.1 21.74.05 7.35.26 14.98 3.71 18.57 10.42 4.17 7.83 4.21 17.44 1.66 25.79-2.32 7.79-9.67 13.43-17.69 14.18-8.07.67-16.19.13-24.28.3v-50.74m10.47 41.71c4.44-.01 9 .41 13.31-.86 4.95-1.55 8.2-6.43 8.74-11.45.82-6.04.21-13.25-4.88-17.35-4.82-3.86-11.37-2.94-17.12-3.07-.06 10.91.02 21.82-.05 32.73zM433.41 157.47c7.42-3.24 17.55-2.43 22.85 4.27 3.74 4.6 4.18 10.81 4.01 16.51-8.89.01-17.79-.02-26.68.01.19 3.16 1.01 6.67 3.84 8.52 4.13 2.65 10.47 1.8 13.19-2.5 3.15-.05 6.31-.05 9.48.03-1.35 5.04-5.25 9.22-10.31 10.65-6.77 2-14.95 1.59-20.45-3.26-5.27-4.93-6.53-12.77-5.59-19.64.69-6 4-12.01 9.66-14.59m2.63 8.56c-1.53 1.52-1.88 3.73-2.49 5.7 5.62.04 11.24.02 16.87.01-.52-1.83-.77-3.82-1.98-5.35-2.85-3.85-9.28-3.88-12.4-.36zM471.56 159.54c5.3-4.47 12.96-4.47 19.39-3.03 5.04 1.17 8.89 5.54 9.28 10.72-3.07.03-6.14.03-9.2-.01-2-4.4-7.83-5.11-11.69-2.9-2.08 1.12-2.45 4.43-.11 5.51 5.95 2.78 13.34 1.95 18.66 6.19 5.2 4.39 3.54 13.49-2.02 16.85-6.25 3.99-14.5 4.03-21.35 1.64-4.35-1.48-7.16-5.57-7.89-9.99 3.3-.03 6.59-.04 9.89.01 1.45 2.76 4.42 4.28 7.52 4.02 2.52.07 6.34-.59 6.7-3.64.45-1.57-.8-2.92-2.18-3.4-5.67-2.22-12.37-1.86-17.33-5.76-4.92-3.97-4.49-12.32.33-16.21zM529.07 167.99c1.45-6.46 7.06-12 13.89-12.1 5.58-.64 10.65 2.67 13.46 7.31.05-2.24.07-4.47.11-6.7 3.23 0 6.48 0 9.72.01-.03 13.17.04 26.34-.02 39.51.05 5.79-4.47 10.72-9.78 12.45-6.71 2.24-14.45 2.14-20.81-1.11-3.46-1.69-5.62-5.12-6.42-8.8 3.32-.08 6.65-.08 9.98-.03 2.7 4.79 9.55 4.85 13.96 2.62 4.52-2.74 2.33-8.79 2.86-13.09-4.61 8.1-17.09 8.82-23.11 2.03-5.23-5.97-5.53-14.72-3.84-22.1m14.26-2.64c-2.41 1.39-3.91 3.97-4.33 6.68-.67 4.23-.47 9.11 2.6 12.42 3.63 3.41 10.62 2.74 12.98-1.87 2.24-4.35 2.28-9.88-.07-14.19-2.08-3.87-7.43-4.98-11.18-3.04zM586.59 163.19c3.24-7.46 13.15-9.64 19.79-5.55 4.14 2.57 5.48 7.73 5.54 12.32.19 8.43.02 16.86.08 25.29h-10.25c-.04-7.43.07-14.85-.03-22.27-.12-2.96-.67-6.67-3.79-7.9-4.45-2.08-10.52.72-10.86 5.86-.72 8.07-.14 16.21-.32 24.31h-10V156.5h9.72c.03 2.23.04 4.46.12 6.69zM628.96 157.84c7.22-3.6 17.32-3.04 22.96 3.21 4.22 4.62 4.8 11.22 4.6 17.2h-26.68c.25 2.58.61 5.37 2.47 7.34 3.86 4.07 11.53 3.5 14.56-1.32 3.15-.03 6.3-.03 9.46.02-1.07 3.51-3.05 6.89-6.29 8.81-5.6 3.4-12.77 3.73-18.94 1.82-6.42-2.03-10.42-8.43-11.12-14.89-1.15-8.16 1.14-18.08 8.98-22.19m3.21 8.32c-1.44 1.52-1.79 3.65-2.36 5.58 5.62.01 11.23.02 16.85-.01-.5-1.8-.75-3.77-1.93-5.29-2.87-3.96-9.45-3.93-12.56-.28zM509.5 156.5h10.25c-.01 12.92 0 25.83 0 38.75H509.5V156.5zM630.53 215.71c7.89-1.47 16.87.23 22.58 6.2 5.04 4.96 6.88 12.24 7.15 19.11.09 7.28-1.64 15.02-6.73 20.48-9.99 10.45-29.98 9.36-37.86-3.12-4.82-7.88-5.21-17.87-2.87-26.62 2.22-8.18 9.28-14.8 17.73-16.05m-.14 9.96c-5.03 2.34-7.54 7.94-7.97 13.23-.62 6.33.49 13.79 5.86 17.92 5.75 4.49 15.2 2.56 18.56-3.99 3.33-6.41 3.36-14.57.41-21.12-2.72-6.25-10.79-9-16.86-6.04zM483.01 216.49c3.41.01 6.82.01 10.24.02v50.74h-8.89c-8.04-10.72-15.73-21.71-23.99-32.24-.27 10.74-.05 21.49-.12 32.23-3.35.02-6.69.02-10.03-.03.05-16.89.06-33.78 0-50.67 2.92-.04 5.83-.04 8.76-.05 8.02 10.71 15.79 21.62 23.95 32.23.17-10.74.01-21.49.08-32.23zM519.65 216.49c4.15.01 8.3.01 12.46.01 5.88 16.92 11.78 33.83 17.6 50.76-3.83-.02-7.66 0-11.49-.03-1.24-3.99-2.54-7.96-3.73-11.96-6-.03-11.99-.03-17.98-.01-1.2 4.02-2.57 7.98-3.81 11.98-3.55.01-7.11 0-10.66.02 5.84-16.93 11.76-33.84 17.61-50.77m5.77 10.09c-2.23 6.79-4.39 13.6-6.52 20.42h13.29c-2.36-6.77-3.99-13.81-6.77-20.42zM558.5 216.5c2.9 0 5.8 0 8.7-.02 8.05 10.71 15.83 21.61 23.96 32.25.2-10.74.05-21.48.08-32.21 3.41-.03 6.83-.02 10.26-.02v50.75c-2.95-.01-5.89-.01-8.83.02-8.07-10.7-15.82-21.65-23.98-32.28-.43 10.74-.07 21.51-.19 32.26h-10V216.5z"/></g><path fill="#dcdbdb" d="M184.6 141.86c.74-.78 1.49-1.56 2.24-2.33.88.76 1.76 1.53 2.65 2.3-.82.85-1.64 1.71-2.45 2.57-.81-.85-1.63-1.69-2.44-2.54z"/><g fill="#e4e4e3"><path d="M213.33 144.14c.92-.98 1.84-1.95 2.77-2.92.6.55 1.82 1.65 2.43 2.19-1.12.84-2.23 1.67-3.38 2.45-.45-.43-1.36-1.29-1.82-1.72zM253.44 248.48c.52-.54 1.57-1.61 2.09-2.15.87.74 1.74 1.49 2.62 2.23-.57.49-1.71 1.49-2.28 1.99-.82-.69-1.63-1.38-2.43-2.07z"/></g><g fill="#f26c4f"><path d="M731.51 195.25c-.02-16.92-.01-33.83-.01-50.75 11.06-.04 22.12.07 33.17-.06.09 3.02.09 6.05.06 9.07-7.56-.04-15.12.04-22.68-.04-.09 4.42-.05 8.85-.04 13.28h20.74c-.01 2.92-.01 5.83 0 8.75-6.9-.02-13.79.06-20.68-.05-.15 6.6-.04 13.2-.07 19.8h-10.49zM785.17 156.24c5.86-1.16 12.52-.7 17.42 3.05 4.57 3.44 6.77 9.21 7.01 14.79.5 7.14-1.69 15.37-8.21 19.23-7.12 4.01-16.92 3.86-23.43-1.29-6.49-5.54-7.57-15.16-5.64-23.03 1.45-6.24 6.52-11.46 12.85-12.75m2.25 8.34c-2.96 1.19-4.56 4.3-5.07 7.29-.68 3.85-.53 8 1.15 11.58 1.72 3.79 6.72 5.38 10.42 3.59 2.8-1.12 4.3-4.08 4.83-6.91.72-4.11.67-8.65-1.44-12.37-1.84-3.39-6.43-4.67-9.89-3.18zM832.53 157.59c2.97-2.08 6.76-1.77 10.18-1.43.04 3.13.03 6.26.06 9.4-3.88-.74-8.38-1.08-11.6 1.65-2.33 1.82-2.85 4.91-2.9 7.69-.08 6.78.01 13.56-.02 20.35h-10c0-12.92.01-25.83 0-38.75h9.72c.01 2.27.05 4.54.13 6.81 1.22-2.06 2.25-4.46 4.43-5.72zM673.41 220.42c4.09-3.94 10.02-5.3 15.56-5.19 5.86.09 12.1 2.12 15.86 6.85 1.95 2.36 2.67 5.41 3.12 8.38-3.3.05-6.59.05-9.88.02-1.65-6.98-11.12-8.48-16.3-4.63-2.95 2.1-2.74 7.22.75 8.66 6.7 3.14 14.8 2.44 21.04 6.78 6.2 4.13 6.52 13.37 2.88 19.31-3.69 5.72-10.9 7.86-17.38 7.92-6.47.18-13.71-1.36-17.97-6.62-2.13-2.38-2.9-5.56-3.32-8.64 3.39-.02 6.78-.02 10.18.01.97 3.65 4.37 6.01 8.02 6.39 4.1.62 9.4.07 11.64-3.94 1.52-2.55-.06-5.79-2.59-6.94-6.73-3.13-14.93-2.29-21.04-6.92-6.66-4.98-6.44-15.93-.57-21.44zM719 216.5c7 .03 14-.06 21 .03 6.54.18 13.51 2.5 17.58 7.9 4.52 5.75 5.49 13.46 4.94 20.55-.48 6.26-2.62 12.79-7.53 16.97-4.34 3.87-10.3 5.27-15.98 5.31-6.67 0-13.34-.02-20.01-.01V216.5m10.5 9v32.75c4.59-.08 9.36.45 13.79-1.06 4.67-1.72 7.65-6.42 8.23-11.24.82-6.11.2-13.46-5.05-17.53-4.84-3.71-11.28-2.81-16.97-2.92zM574.39 292.71c6.86-2 15.36.32 18.88 6.91 3.52 6.93 3.32 16.06-1.35 22.43-4.59 5.94-13.45 6.82-20.02 4.04-6.75-3.05-9.38-11.15-8.7-18.08.11-6.76 4.39-13.61 11.19-15.3m2.99 5.79c-7.35 1.92-8.37 11.61-5.83 17.62 1.87 5.76 10.38 7.12 14.14 2.51 3.34-4.38 3.55-10.72 1.28-15.63-1.6-3.54-5.85-5.52-9.59-4.5zM725.11 295.13c6.01-4.49 15.3-4.09 20.86.98 2.21 1.98 3.16 4.85 3.95 7.61-2.33.03-4.65.03-6.97.04-1.89-5.77-10.15-7.4-14.11-2.88-3.5 4.54-3.59 11.27-1.03 16.28 2.52 5.02 10.33 5.63 13.92 1.49.97-1.36 1.21-3.07 1.74-4.63-2.58-.03-5.15-.02-7.72-.02-.01-1.75-.01-3.5 0-5.25h14.26c-.01 4.11.35 8.57-1.9 12.23-5.94 9.94-23.48 8.5-27.63-2.4-2.94-7.7-2.27-18.04 4.63-23.45zM429.25 293h8.51c3.15 7.72 6.18 15.49 9.54 23.12 3.2-7.7 6.35-15.42 9.53-23.12h8.42v33.75c-2.25-.01-4.49 0-6.73.01-.08-7.63.08-15.27-.09-22.91-3.08 6.99-5.88 14.1-8.83 21.14-1.55 0-3.09 0-4.63.01-3.03-7.06-5.81-14.23-8.92-21.25-.11 7.67-.02 15.33-.06 23-2.25-.01-4.49-.01-6.74 0 0-11.25.01-22.5 0-33.75zM473.25 293h22.5c-.01 2-.01 3.99 0 5.99-5.09.01-10.17 0-15.26.02v7.98c4.84.01 9.69.01 14.54.01-.04 1.85-.06 3.7-.11 5.55-4.81-.09-9.62-.05-14.42-.05-.01 2.75-.01 5.5 0 8.26 5.06-.02 10.13.01 15.2-.04.03 2 .03 4.01.07 6.03h-22.52c0-11.25.01-22.5 0-33.75zM501.25 293c9.08-.01 18.16 0 27.25 0-.01 2-.01 4 0 6-3.34 0-6.68 0-10.01.01.01 9.25 0 18.49 0 27.74-2.42-.01-4.83 0-7.24 0V299c-3.34 0-6.67 0-10-.01V293zM534.75 293h22.5c-.01 2-.01 4 0 6H542v8h14.5c-.01 1.83-.01 3.66 0 5.5-4.84-.01-9.67 0-14.49-.01-.02 2.75-.02 5.51-.01 8.27 5.08-.01 10.17-.01 15.25-.01-.01 2-.01 4-.01 6-7.49 0-14.98-.01-22.47.01-.04-11.25-.01-22.51-.02-33.76zM602.51 293c5.55.06 11.11-.11 16.67.05 4.25.14 8.87 3.33 8.61 7.97.4 3.87-2.83 6.89-6.32 7.8 3.8.49 7.52 3.16 7.96 7.2.86 5.18-3.43 9.95-8.49 10.46-6.12.61-12.29.1-18.43.27-.01-11.25-.01-22.5 0-33.75m7.24 5.24c-.01 2.92-.01 5.85 0 8.77 3.24-.22 7.02.71 9.81-1.41 2.45-1.81 1.41-6.31-1.59-6.91-2.7-.63-5.49-.43-8.22-.45m0 13.51c-.01 3.16-.01 6.33 0 9.49 3.29-.16 6.78.56 9.95-.6 3.13-1.28 3.57-6.25.55-7.89-3.22-1.69-7.03-.8-10.5-1zM635.75 293c6.71.47 13.74-1.08 20.23 1.04 8.18 3.15 7.92 16.13.02 19.53 2.33 4.39 4.69 8.78 7.03 13.17-2.67 0-5.34.01-8 .01-2.01-4.08-4.3-8.02-6.16-12.17-1.97-.06-3.92-.09-5.87-.11-.01 4.09 0 8.19 0 12.28-2.42-.01-4.84-.01-7.25 0V293m7.25 5.75V309c2.85-.07 5.77.29 8.59-.32 4.12-1.31 4.27-7.95.29-9.52-2.9-.76-5.93-.33-8.88-.41zM669 293h7.25v33.75c-2.42-.01-4.84-.01-7.24 0-.02-11.25-.01-22.5-.01-33.75zM684.25 293c6.11.24 12.32-.56 18.38.52 5.51 1.11 9.66 5.98 10.46 11.46 1.35 7.14-.09 16.23-7.13 19.92-6.76 3.24-14.5 1.34-21.71 1.85 0-11.25.01-22.5 0-33.75m7.25 5.99c-.01 7.25.01 14.5-.02 21.74 4.38.06 9.9.62 12.79-3.48 2.81-4.43 2.88-10.91-.31-15.17-2.97-3.81-8.22-3.06-12.46-3.09zM756.75 293h22.5c-.01 2-.01 4 0 6H764c-.01 2.66-.01 5.33 0 8h14.5c-.01 1.83-.02 3.66 0 5.5-4.83-.01-9.65.01-14.46-.03-.05 2.76-.05 5.52-.04 8.28h15.25c-.01 2-.01 4 0 6h-22.5V293z"/></g><path fill="#dedddd" d="M180.34 146.5c.71.96 1.44 1.89 2.19 2.81-.53.55-1.6 1.63-2.13 2.17-.56-.65-1.69-1.95-2.25-2.6.55-.6 1.65-1.78 2.19-2.38z"/><path fill="#d7c7b4" d="M227.46 157.57c1.17-1.07 2.34-2.13 3.53-3.17.52 1.54 1.04 3.09 1.54 4.65.91.19 1.81.39 2.72.59.11.97.21 1.93.32 2.9 1.06-.03 2.13-.06 3.19-.08 0 .53.01 1.6.01 2.14-.39.55-1.18 1.67-1.58 2.23-3.31-3.02-6.5-6.17-9.73-9.26z"/><g fill="#d3c3b1"><path d="M156.14 158.81c2.39-.03 4.77-.05 7.16-.07.08 3.33.21 6.66.45 9.98-.69.69-1.36 1.4-2.02 2.12-.59-1.01-1.19-2-1.8-2.99-.82.73-1.65 1.45-2.47 2.18.83.92 1.66 1.83 2.49 2.74-1.26 1.35-2.55 2.68-3.84 4-.26-5.98 0-11.97.03-17.96zM238.6 159.28c2.41.04 4.81.07 7.22.11.05 3.35.3 6.71.37 10.07-.97-.17-1.94-.34-2.9-.5-.21.73-.64 2.19-.85 2.92-1.76-1.67-3.49-3.38-5.25-5.05.4-.56 1.19-1.68 1.58-2.23 0-.54-.01-1.61-.01-2.14l-.16-3.18z"/></g><path fill="#c8b9a9" d="M166.1 160.59c.24-.51.72-1.52.97-2.02 1.92.22 3.84.45 5.76.69-1.11 1.19-2.22 2.39-3.33 3.57-1.13-.75-2.27-1.5-3.4-2.24z"/><path fill="#e2e0dd" d="M166.1 160.59c1.13.74 2.27 1.49 3.4 2.24-.89.95-1.8 1.9-2.71 2.84-.66-.82-1.32-1.62-1.98-2.43.32-.66.97-1.99 1.29-2.65z"/><path fill="#e9e8e6" d="M157.46 170.03c.82-.73 1.65-1.45 2.47-2.18.61.99 1.21 1.98 1.8 2.99-.44.48-1.33 1.45-1.78 1.93-.83-.91-1.66-1.82-2.49-2.74z"/><path fill="#dfdad5" d="M243.29 168.96c.96.16 1.93.33 2.9.5-.19 1.76-.46 3.52-.72 5.28-1.01-.95-2.02-1.91-3.03-2.86.21-.73.64-2.19.85-2.92z"/><path fill="#dbdbd8" d="M256.33 185.08c1.11-1.08 2.23-2.16 3.37-3.21.53.68 1.57 2.06 2.1 2.75-1.25.71-2.49 1.42-3.75 2.08-.43-.4-1.29-1.21-1.72-1.62z"/><g fill="#dddedb"><path d="M143.7 184.95c.75-.73 1.5-1.45 2.26-2.17.82.69 1.65 1.39 2.48 2.08-.8.86-1.6 1.71-2.42 2.55-.78-.82-1.55-1.64-2.32-2.46zM125.24 204c.8.83 1.6 1.66 2.4 2.5-.52.55-1.56 1.63-2.08 2.17-.89-.8-1.77-1.61-2.64-2.43.77-.75 1.54-1.5 2.32-2.24z"/></g><path fill="#dededc" d="M136.67 192.45c.72-.87 1.4-1.76 2.05-2.67.92.75 1.84 1.5 2.76 2.26l-2.39 2.54c-.6-.53-1.81-1.6-2.42-2.13z"/><path fill="#d9d9d7" d="M131.34 196.98c1.1.72 2.19 1.45 3.29 2.19-.58.6-1.73 1.8-2.3 2.4-.98-.78-1.97-1.55-2.96-2.29.49-.58 1.48-1.72 1.97-2.3z"/><path fill="#e1e2e0" d="M115.87 213.79c.7-.91 1.41-1.81 2.13-2.71l2.69 2.57c-.5.53-1.5 1.58-2 2.11-.94-.66-1.88-1.31-2.82-1.97z"/><path fill="#e8e8e7" d="M145.3 260.99c.99-1.16 3.28.31 2.36 1.65-.97 1.12-3.25-.34-2.36-1.65z"/><path fill="#dddddb" d="M151.56 267.95c.78-.86 1.56-1.72 2.34-2.57.87.83 1.74 1.67 2.61 2.51-1.02.74-2.03 1.47-3.05 2.2-.48-.54-1.43-1.6-1.9-2.14z"/><path fill="#e3e3e2" d="M232.55 270.31c.49-.5 1.47-1.51 1.95-2.01.98.54 1.95 1.1 2.92 1.68-.74.9-1.52 1.77-2.33 2.61-.85-.76-1.7-1.52-2.54-2.28z"/><path fill="#e4e4e2" d="M166.39 281.21c.59-.47 1.78-1.39 2.38-1.86.47.47 1.41 1.4 1.88 1.86l-1.72 2.72c-.86-.91-1.7-1.82-2.54-2.72z"/><path fill="#e1e1df" d="M211.8 291.95c.77-.84 1.55-1.66 2.34-2.48.58.44 1.72 1.31 2.3 1.74-.57.87-1.12 1.74-1.68 2.61-.99-.62-1.98-1.25-2.96-1.87z"/><path fill="#e0e1df" d="M204.86 298.99c.72-.82 1.48-1.6 2.26-2.35l2.29 1.73c-.67.87-1.35 1.75-2.04 2.61-.84-.66-1.68-1.33-2.51-1.99z"/><path fill="#dcdcda" d="M187.73 302.15c.71-.83 1.43-1.65 2.15-2.47.86.8 1.72 1.61 2.57 2.44-.84.81-1.67 1.62-2.5 2.43-.75-.8-1.49-1.6-2.22-2.4z"/><g fill="#121212"><path d="M250.29 320.53c-8.01-2.25-7.05-16.99 1.7-17.19 4-.63 7.29 2.34 8.33 6-.82.01-2.47.01-3.3.02-1.14-1.68-2.56-3.76-4.93-3.17-4.89 1.22-5.04 9.32-.83 11.49 2.52.96 4.56-.84 5.83-2.82h3.27c-1.02 4.37-5.8 7.1-10.07 5.67zM322.19 308.68c.85-2.62 2.67-5.49 5.8-5.34 3.32-.65 7.26 1.87 6.54 5.57-1.1 3.79-4.77 5.91-7.33 8.66 2.6.03 5.2.05 7.8.05v2.76c-4.16 0-8.32.03-12.48-.02 1.08-5.34 7.33-7.3 9.29-12.26-1.6-3.11-5.28-2.33-6.79.39-.71.05-2.12.14-2.83.19zM213.6 303.58c1.33.03 2.67.07 4 .12 1.24 4.28 2.28 8.64 4 12.77 1.5-4.24 2.61-8.61 3.93-12.91.91.02 2.74.05 3.66.07-1.89 5.58-3.78 11.15-5.57 16.76-1.46-.02-2.91-.03-4.36-.05-1.74-5.63-3.64-11.22-5.66-16.76zM234.42 307.59c4.05-1.26 8.58 2.08 8.01 6.44.62 4.42-3.95 7.77-8.04 6.43-6.07-1.26-6.02-11.62.03-12.87m.73 2.59c-3.24 1.54-2.47 8.69 1.82 7.81 3.59-1.21 2.68-9.27-1.82-7.81zM288.73 318.19c-2.47-3.81-.77-10.67 4.46-10.79 4.23-.69 6.97 3.38 6.65 7.23-3.06.01-6.13 0-9.18.05.55 1.31.73 3.09 2.38 3.51 2.33-.26 4.51-1.24 6.84-1.57-1.31 4.75-8.56 5.54-11.15 1.57m1.88-5.41c2.13.03 4.26.01 6.4-.06-.83-1.01-1.25-3.15-2.97-2.75-1.98-.46-2.62 1.49-3.43 2.81zM265.34 308.16c3.44-1.89 8.66-.34 9.42 3.82 1.45 4.28-1.97 9.61-6.78 8.65-6.21-.1-7.47-9.59-2.64-12.47m1.94 2.22c-2.32 1.71-2.19 6.52.71 7.63 5.5 1.06 4.55-10.13-.71-7.63zM278 307.44c1.34.01 2.54.41 3.59 1.2 1.48-.57 2.99-1.02 4.56-1.27.02.71.05 2.12.07 2.83-1.57.31-3.61-.01-4.63 1.54-.71 2.82-.35 5.77-.41 8.65H278c0-4.32-.01-8.63 0-12.95zM307.68 307.59c.89.01 2.65.02 3.53.03.84 3.31 1.74 6.61 2.89 9.84.99-3.27 1.86-6.56 2.78-9.84.86-.01 2.58-.02 3.44-.03-1.51 4.25-3 8.51-4.4 12.79-1.28.01-2.57 0-3.84 0-1.4-4.28-2.9-8.54-4.4-12.79z"/></g><g fill="#ccc"><path d="M175.8 362.25c1.17-.02 2.35-.03 3.53-.04v4.53c-1.18-.02-2.35-.03-3.52-.04-.01-1.49-.01-2.97-.01-4.45zM195.88 362.29c1.19-.04 2.39-.07 3.59-.1 0 1.51 0 3.02.01 4.54-1.16-.01-2.33-.01-3.49-.02-.05-1.48-.08-2.95-.11-4.42z"/></g><g fill="#cbcccc"><path d="M216.71 362.21l3.52.03c-.01 1.49-.01 2.98 0 4.48-1.18 0-2.36 0-3.53.01 0-1.51.01-3.02.01-4.52zM236.77 362.32c1.19-.07 2.38-.11 3.59-.13-.01 1.51 0 3.03 0 4.55-1.17-.02-2.34-.03-3.51-.04-.03-1.47-.06-2.93-.08-4.38z"/></g><path fill="#cccdcd" d="M257.59 362.21c1.18.01 2.36.03 3.54.06 0 1.47 0 2.94.01 4.42-1.19.01-2.37.03-3.55.05v-4.53z"/></svg>