<?xml version="1.0" encoding="UTF-8" standalone="no"?>
<svg
   xmlns:dc="http://purl.org/dc/elements/1.1/"
   xmlns:cc="http://creativecommons.org/ns#"
   xmlns:rdf="http://www.w3.org/1999/02/22-rdf-syntax-ns#"
   xmlns:svg="http://www.w3.org/2000/svg"
   xmlns="http://www.w3.org/2000/svg"
   xmlns:sodipodi="http://sodipodi.sourceforge.net/DTD/sodipodi-0.dtd"
   xmlns:inkscape="http://www.inkscape.org/namespaces/inkscape"
   version="1.1"
   width="200"
   height="200"
   viewBox="0 0 200 200"
   overflow="visible"
   enable-background="new 0 0 200 200"
   xml:space="preserve"
   id="svg4202"
   inkscape:version="0.91 r13725"
   sodipodi:docname="metoffice.svg"><metadata
     id="metadata4212"><rdf:RDF><cc:Work
         rdf:about=""><dc:format>image/svg+xml</dc:format><dc:type
           rdf:resource="http://purl.org/dc/dcmitype/StillImage" /></cc:Work></rdf:RDF></metadata><defs
     id="defs4210" /><sodipodi:namedview
     pagecolor="#ffffff"
     bordercolor="#666666"
     borderopacity="1"
     objecttolerance="10"
     gridtolerance="10"
     guidetolerance="10"
     inkscape:pageopacity="0"
     inkscape:pageshadow="2"
     inkscape:window-width="1872"
     inkscape:window-height="1028"
     id="namedview4208"
     showgrid="false"
     inkscape:zoom="4.255"
     inkscape:cx="100"
     inkscape:cy="100"
     inkscape:window-x="48"
     inkscape:window-y="24"
     inkscape:window-maximized="1"
     inkscape:current-layer="svg4202" /><path
     fill="#231F20"
     d="M137.526,161.605h-8.083v-1.911c0-2.688,1.893-3.216,2.44-3.216c1.609-0.285,2.682,0.528,2.682,0.528  l-1.072-4.571c0,0-1.085-0.275-2.704-0.275c-3.507,0-7.284,2.708-7.284,8.36v1.085h-3.508l0.82,4.033h2.688v19.391h5.938v-19.391  h7.81v19.391h6.217v-19.391h6.449v19.391h6.213v-23.424h-12.662v-1.911c0-2.688,1.879-3.216,2.409-3.216  c1.63-0.285,2.719,0.528,2.719,0.528l-1.089-4.571c0,0-1.096-0.275-2.709-0.275c-3.488,0-7.273,2.708-7.273,8.36V161.605z   M23.478,174.523c0-0.529-6.478-22.897-6.478-22.897H8.924l-3.242,33.685h6.197l1.902-23.45h0.254l6.486,23.45h5.92l6.478-23.45  h0.279l1.868,23.45h6.207l-2.954-33.685h-8.355C29.963,151.626,23.765,173.994,23.478,174.523 M76.854,181.543  c-1.609,0-2.428-1.9-2.428-5.131v-10.773h5.403l-1.073-4.033h-4.33v-5.412h-6.197v5.412H64.73l0.822,4.033h2.676v12.396  c0,5.131,2.173,7.826,6.757,7.826c3.492,0,5.917-1.639,5.917-1.639l-1.075-3.752C79.829,180.471,78.478,181.543,76.854,181.543   M172.03,180.715c-3.765,0-6.188-3.214-6.188-7.791c0-5.127,3.24-7.285,6.188-7.285c2.161,0,4.043,1.064,4.043,1.064l-1.338-5.373  c0,0-1.588-0.536-3.231-0.536c-7.81,0-12.116,6.201-12.116,12.405c0,4.302,2.675,12.385,11.859,12.385  c3.488,0,6.188-2.154,6.188-2.154l-1.361-4.036C176.073,179.394,174.456,180.715,172.03,180.715 M103.573,151.879  c-8.382,0-14.856,7.029-14.856,16.447c0,10.26,6.214,17.535,14.856,17.535c8.59,0,14.805-7.275,14.805-17.535  C118.377,158.908,111.922,151.879,103.573,151.879 M103.573,157.007c5.918,0,7.811,6.199,7.811,11.319  c0,2.974-0.563,12.145-7.811,12.145c-7.557,0-8.099-9.171-8.099-12.145C95.474,163.206,97.623,157.007,103.573,157.007   M60.689,163.469c-1.623-1.608-3.506-2.418-5.942-2.418c-6.454,0-11.054,4.859-11.054,11.873c0,7.547,4.873,12.938,11.35,12.938  c4.849,0,8.61-2.971,8.61-2.971l-1.868-3.776c0,0-2.436,2.167-5.681,2.167c-1.613,0-2.962-0.811-4.051-1.639  c-1.086-1.332-1.596-2.953-1.596-5.119h13.195C63.653,174.523,64.476,167.258,60.689,163.469 M54.747,165.095  c0.85,0,1.628,0.269,2.155,0.815c0.825,0.793,1.088,2.174,1.088,4.042v0.538h-7.532c0-1.9,0.51-3.495,1.31-4.305  C52.59,165.363,53.412,165.095,54.747,165.095 M194.952,163.469c-1.612-1.608-3.496-2.418-5.936-2.418  c-6.456,0-11.045,4.859-11.045,11.873c0,7.547,4.871,12.938,11.326,12.938c4.848,0,8.631-2.971,8.631-2.971l-1.873-3.776  c0,0-2.451,2.167-5.686,2.167c-1.612,0-2.956-0.811-4.041-1.639c-1.074-1.332-1.621-2.953-1.621-5.119h13.221  C197.928,174.523,198.735,167.258,194.952,163.469 M189.016,165.095c0.83,0,1.627,0.269,2.162,0.815  c0.819,0.793,1.102,2.174,1.102,4.042v0.538h-7.572c0-1.9,0.547-3.495,1.373-4.305C186.875,165.363,187.67,165.095,189.016,165.095"
     id="path4204"
     style="fill:#ffffff;fill-opacity:1" /><path
     fill="#D6DF23"
     d="M115.502,112.283c-25.856,5.862-49.545-16.595-81.018-13.197c-10.253,1.002-19.769,5.868-28.803,11.975  v27.563c7.571-8.529,23.187-22.938,46.632-24.877c31.483-2.686,55.144,19.268,81.253,13.185  c20.747-4.638,38.57-28.309,64.438-29.778V85.193C161.639,72.759,140.897,106.66,115.502,112.283 M105.503,103.736  c26.358-5.851,47.833-42.455,87.111-25.142c1.723,0.984,3.44,1.47,5.39,2.207v-8.544c-7.824-1.226-15.62-3.17-23.192-6.592  c-39.303-17.564-60.782,19.292-87.125,24.891c-25.871,6.109-49.542-16.351-80.768-12.92H5.681v18.778  c5.863-2.926,12.206-5.123,19.054-5.858C55.96,87.146,79.632,109.594,105.503,103.736 M77.678,80.543  c26.37-5.833,47.586-42.445,86.893-24.876c10.975,4.887,22.455,6.837,33.434,7.565V49.571c-15.391,1.467-33.934,0.723-51.252-7.074  c-39.295-17.341-60.515,19.27-86.866,25.129C41.808,71.77,24.735,62.012,5.681,56.892v10.247  C32.528,68.108,54.253,85.931,77.678,80.543 M43.993,57.379c-12.916,2.917-25.378-0.971-38.312-5.368v-7.817  c6.591,1.467,13.421,1.702,20.257,0.259c26.608-5.884,47.853-42.473,87.127-24.888c37.107,16.33,79.55,1.446,84.939-0.508v18.062  c-17.097,3.665-43.212,5.864-67.121-4.628C91.592,14.924,70.352,51.52,43.993,57.379"
     id="path4206" /></svg>