<?xml version="1.0" encoding="UTF-8" ?>
<!DOCTYPE svg PUBLIC "-//W3C//DTD SVG 1.1//EN" "http://www.w3.org/Graphics/SVG/1.1/DTD/svg11.dtd">
<svg width="539pt" height="633pt" viewBox="0 0 539 633" version="1.1" xmlns="http://www.w3.org/2000/svg">
<path fill="#362f2d" opacity="1.00" d=" M 189.01 17.01 C 257.00 17.00 325.00 17.00 392.99 17.00 C 393.00 25.01 393.00 33.01 392.99 41.01 C 393.02 65.01 393.00 89.00 393.01 113.00 C 371.17 113.01 349.34 112.98 327.51 113.01 C 327.90 108.76 326.11 104.50 322.24 102.43 C 323.96 102.03 327.11 103.41 327.32 100.63 C 322.90 100.51 318.48 100.58 314.06 100.56 C 314.46 104.39 313.08 108.67 314.98 112.18 C 316.84 109.37 315.60 105.73 315.94 102.57 C 321.72 102.05 326.49 107.36 325.57 113.02 C 317.93 112.98 310.29 113.00 302.65 113.01 C 302.11 108.51 304.89 104.38 309.09 102.91 C 309.16 102.37 309.30 101.30 309.37 100.77 C 303.51 101.53 300.14 107.46 300.67 113.01 C 293.28 112.87 285.88 113.26 278.50 112.80 C 280.49 108.64 279.72 102.65 275.15 100.57 C 279.66 99.02 280.31 93.21 278.81 89.31 C 277.88 86.36 274.05 84.55 271.39 86.48 C 267.43 89.04 269.63 95.28 265.84 97.89 C 262.22 98.86 260.84 93.81 262.15 91.22 C 262.56 88.78 267.17 89.32 265.63 86.20 C 258.71 87.11 257.88 96.80 263.17 100.31 L 264.13 99.13 C 264.12 100.38 264.11 101.63 264.10 102.88 L 263.24 101.74 C 259.38 104.17 258.96 109.21 260.79 113.05 C 236.86 112.94 212.92 113.03 188.98 113.00 C 189.00 89.00 189.00 65.01 189.01 41.01 C 188.99 33.01 189.03 25.01 189.01 17.01 M 277.50 53.15 C 277.34 54.39 277.18 55.64 277.03 56.89 C 272.25 57.71 267.37 57.05 262.55 57.28 C 262.50 56.03 262.46 54.77 262.44 53.51 L 260.57 53.50 C 260.53 54.76 260.49 56.03 260.43 57.30 C 258.58 57.75 253.65 55.76 254.74 59.45 C 256.65 59.46 258.57 59.47 260.49 59.49 C 260.80 60.83 259.61 63.84 262.40 62.89 C 262.43 61.76 262.47 60.62 262.51 59.49 C 267.33 59.38 272.15 59.59 276.96 59.40 C 279.32 58.59 278.98 55.81 279.07 53.84 C 278.68 53.67 277.90 53.32 277.50 53.15 M 253.23 63.52 C 253.24 64.07 253.26 65.16 253.26 65.71 C 254.52 65.72 255.77 65.73 257.03 65.74 C 257.00 65.18 256.94 64.06 256.91 63.50 C 255.68 63.51 254.46 63.51 253.23 63.52 M 260.54 63.52 L 260.41 65.44 C 266.50 66.14 272.80 65.52 278.97 65.74 C 278.98 65.19 279.00 64.10 279.01 63.55 C 272.85 63.51 266.69 63.56 260.54 63.52 M 263.24 68.17 C 258.50 71.07 258.60 78.70 263.31 81.62 C 259.96 81.50 256.60 81.54 253.25 81.51 C 253.25 82.06 253.25 83.16 253.25 83.71 C 261.82 83.78 270.39 83.71 278.97 83.74 C 278.98 83.23 279.01 82.21 279.02 81.70 C 278.13 81.75 276.35 81.84 275.46 81.89 C 279.79 79.43 280.97 73.03 277.49 69.37 C 273.77 65.79 267.57 65.67 263.24 68.17 M 313.37 82.13 C 311.64 78.20 306.08 76.81 303.03 80.02 C 299.87 85.27 301.74 91.74 301.32 97.54 C 309.88 97.37 318.43 97.52 326.99 97.46 C 326.57 91.77 328.12 85.67 325.64 80.31 C 322.88 75.59 314.36 76.40 313.37 82.13 Z" />
<path fill="#4d5c26" opacity="1.00" d=" M 19.00 41.00 C 75.67 41.00 132.34 40.99 189.01 41.01 C 189.00 65.01 189.00 89.00 188.98 113.00 C 137.15 112.92 85.31 113.16 33.48 112.88 C 32.05 110.23 28.77 111.14 26.34 111.30 C 26.21 111.56 25.94 112.09 25.81 112.36 C 24.32 116.76 25.72 121.65 25.28 126.25 C 24.80 136.06 24.86 145.91 25.30 155.73 C 24.75 190.47 25.10 225.23 25.00 259.98 C 25.01 352.98 24.98 445.99 25.01 538.99 C 190.01 539.01 355.00 539.01 519.99 538.99 C 520.01 422.31 519.99 305.64 520.00 188.97 C 520.16 180.12 519.43 171.28 519.90 162.43 C 521.39 156.76 520.76 150.85 520.99 145.06 C 520.80 138.32 521.42 131.48 519.98 124.83 C 519.59 120.90 519.75 116.94 519.96 113.00 C 477.64 113.00 435.32 113.00 393.01 113.00 C 393.00 89.00 393.02 65.01 392.99 41.01 C 437.66 40.99 482.33 41.00 527.00 41.00 C 527.00 234.67 527.00 428.33 527.00 621.99 C 357.67 622.00 188.34 622.00 19.00 622.00 C 19.00 428.33 19.00 234.67 19.00 41.00 M 199.07 547.05 C 198.96 569.67 198.96 592.31 199.06 614.94 C 288.34 615.05 377.63 615.01 466.91 614.97 C 467.07 592.34 467.04 569.70 466.94 547.07 C 377.65 546.94 288.36 546.99 199.07 547.05 M 86.01 561.01 C 85.99 574.00 85.99 587.00 86.01 599.99 C 104.67 600.01 123.33 600.00 141.99 599.99 C 142.01 587.00 142.01 574.00 141.99 561.01 C 123.33 560.99 104.67 560.99 86.01 561.01 Z" />
<path fill="#b7b7b7" opacity="1.00" d=" M 277.50 53.15 C 277.90 53.32 278.68 53.67 279.07 53.84 C 278.98 55.81 279.32 58.59 276.96 59.40 C 272.15 59.59 267.33 59.38 262.51 59.49 C 262.47 60.62 262.43 61.76 262.40 62.89 C 259.61 63.84 260.80 60.83 260.49 59.49 C 258.57 59.47 256.65 59.46 254.74 59.45 C 253.65 55.76 258.58 57.75 260.43 57.30 C 260.49 56.03 260.53 54.76 260.57 53.50 L 262.44 53.51 C 262.46 54.77 262.50 56.03 262.55 57.28 C 267.37 57.05 272.25 57.71 277.03 56.89 C 277.18 55.64 277.34 54.39 277.50 53.15 Z" />
<path fill="#b7b7b7" opacity="1.00" d=" M 253.23 63.52 C 254.46 63.51 255.68 63.51 256.91 63.50 C 256.94 64.06 257.00 65.18 257.03 65.74 C 255.77 65.73 254.52 65.72 253.26 65.71 C 253.26 65.16 253.24 64.07 253.23 63.52 Z" />
<path fill="#b7b7b7" opacity="1.00" d=" M 260.54 63.52 C 266.69 63.56 272.85 63.51 279.01 63.55 C 279.00 64.10 278.98 65.19 278.97 65.74 C 272.80 65.52 266.50 66.14 260.41 65.44 L 260.54 63.52 Z" />
<path fill="#b7b7b7" opacity="1.00" d=" M 263.24 68.17 C 267.57 65.67 273.77 65.79 277.49 69.37 C 280.97 73.03 279.79 79.43 275.46 81.89 C 276.35 81.84 278.13 81.75 279.02 81.70 C 279.01 82.21 278.98 83.23 278.97 83.74 C 270.39 83.71 261.82 83.78 253.25 83.71 C 253.25 83.16 253.25 82.06 253.25 81.51 C 256.60 81.54 259.96 81.50 263.31 81.62 C 258.60 78.70 258.50 71.07 263.24 68.17 M 266.21 69.28 C 262.99 70.08 260.73 73.70 262.04 76.90 C 263.31 81.35 269.10 82.28 272.98 81.07 C 276.92 80.37 279.03 75.36 277.00 71.98 C 274.63 68.65 269.87 68.10 266.21 69.28 Z" />
<path fill="#362f2d" opacity="1.00" d=" M 266.21 69.28 C 269.87 68.10 274.63 68.65 277.00 71.98 C 279.03 75.36 276.92 80.37 272.98 81.07 C 269.10 82.28 263.31 81.35 262.04 76.90 C 260.73 73.70 262.99 70.08 266.21 69.28 Z" />
<path fill="#b7b7b7" opacity="1.00" d=" M 313.37 82.13 C 314.36 76.40 322.88 75.59 325.64 80.31 C 328.12 85.67 326.57 91.77 326.99 97.46 C 318.43 97.52 309.88 97.37 301.32 97.54 C 301.74 91.74 299.87 85.27 303.03 80.02 C 306.08 76.81 311.64 78.20 313.37 82.13 M 316.03 81.03 C 313.36 85.17 314.86 90.32 314.43 94.93 C 317.95 95.05 321.47 94.99 324.99 94.99 C 324.84 91.12 325.42 87.16 324.58 83.34 C 323.77 79.65 318.63 78.51 316.03 81.03 M 303.54 84.09 C 302.94 87.68 303.40 91.35 303.26 94.98 C 306.36 95.01 309.46 95.03 312.56 94.94 C 312.15 90.78 313.50 86.25 311.43 82.40 C 309.47 79.43 304.13 80.56 303.54 84.09 Z" />
<path fill="#362f2d" opacity="1.00" d=" M 316.03 81.03 C 318.63 78.51 323.77 79.65 324.58 83.34 C 325.42 87.16 324.84 91.12 324.99 94.99 C 321.47 94.99 317.95 95.05 314.43 94.93 C 314.86 90.32 313.36 85.17 316.03 81.03 Z" />
<path fill="#362f2d" opacity="1.00" d=" M 303.54 84.09 C 304.13 80.56 309.47 79.43 311.43 82.40 C 313.50 86.25 312.15 90.78 312.56 94.94 C 309.46 95.03 306.36 95.01 303.26 94.98 C 303.40 91.35 302.94 87.68 303.54 84.09 Z" />
<path fill="#b7b7b7" opacity="1.00" d=" M 271.39 86.48 C 274.05 84.55 277.88 86.36 278.81 89.31 C 280.31 93.21 279.66 99.02 275.15 100.57 C 279.72 102.65 280.49 108.64 278.50 112.80 C 277.37 115.04 275.12 116.04 272.71 116.22 C 273.04 115.15 273.39 114.08 273.79 113.03 C 274.31 113.00 275.34 112.94 275.86 112.91 C 278.53 110.30 278.62 104.70 274.91 103.00 C 269.80 102.85 270.86 109.73 269.15 113.02 C 267.17 116.05 262.82 115.98 260.79 113.05 C 258.96 109.21 259.38 104.17 263.24 101.74 L 264.10 102.88 C 264.11 101.63 264.12 100.38 264.13 99.13 L 263.17 100.31 C 257.88 96.80 258.71 87.11 265.63 86.20 C 267.17 89.32 262.56 88.78 262.15 91.22 C 260.84 93.81 262.22 98.86 265.84 97.89 C 269.63 95.28 267.43 89.04 271.39 86.48 M 271.99 89.00 C 269.79 92.55 270.72 97.71 266.83 100.29 L 265.90 99.13 C 265.90 100.59 265.83 102.04 265.76 103.50 C 260.47 103.73 260.19 113.73 265.82 112.91 C 269.29 110.54 267.76 105.37 270.35 102.35 C 271.50 101.30 273.39 100.88 273.19 98.95 C 276.85 98.37 278.59 94.41 277.49 91.06 C 277.14 88.61 273.75 86.68 271.99 89.00 Z" />
<path fill="#362f2d" opacity="1.00" d=" M 271.99 89.00 C 273.75 86.68 277.14 88.61 277.49 91.06 C 278.59 94.41 276.85 98.37 273.19 98.95 C 273.39 100.88 271.50 101.30 270.35 102.35 C 267.76 105.37 269.29 110.54 265.82 112.91 C 260.19 113.73 260.47 103.73 265.76 103.50 C 265.83 102.04 265.90 100.59 265.90 99.13 L 266.83 100.29 C 270.72 97.71 269.79 92.55 271.99 89.00 Z" />
<path fill="#bfbfbf" opacity="1.00" d=" M 300.67 113.01 C 300.14 107.46 303.51 101.53 309.37 100.77 C 309.30 101.30 309.16 102.37 309.09 102.91 C 304.89 104.38 302.11 108.51 302.65 113.01 C 304.61 124.04 323.64 124.10 325.57 113.02 C 326.49 107.36 321.72 102.05 315.94 102.57 C 315.60 105.73 316.84 109.37 314.98 112.18 C 313.08 108.67 314.46 104.39 314.06 100.56 C 318.48 100.58 322.90 100.51 327.32 100.63 C 327.11 103.41 323.96 102.03 322.24 102.43 C 326.11 104.50 327.90 108.76 327.51 113.01 C 326.96 116.56 325.15 119.99 321.95 121.80 C 317.01 124.55 310.43 124.48 305.68 121.36 C 302.81 119.50 301.35 116.25 300.67 113.01 Z" />
<path fill="#362f2d" opacity="1.00" d=" M 269.15 113.02 C 270.86 109.73 269.80 102.85 274.91 103.00 C 278.62 104.70 278.53 110.30 275.86 112.91 C 275.34 112.94 274.31 113.00 273.79 113.03 C 272.24 113.05 270.69 113.03 269.15 113.02 Z" />
<path fill="#3e3c39" opacity="1.00" d=" M 26.34 111.30 C 28.77 111.14 32.05 110.23 33.48 112.88 C 32.02 117.56 32.80 122.51 32.32 127.31 C 30.66 140.19 32.57 153.12 32.73 166.02 C 37.53 215.69 54.42 264.59 83.74 305.17 C 88.31 312.15 93.77 318.49 99.10 324.89 C 104.72 330.90 109.91 337.36 116.28 342.61 C 121.26 347.26 125.93 352.28 131.65 356.05 C 132.59 356.84 133.50 357.65 134.40 358.49 C 137.23 361.13 140.84 362.78 143.58 365.52 C 146.87 369.43 152.09 370.54 156.03 373.59 C 158.69 375.33 160.86 377.99 164.14 378.60 C 167.42 379.39 170.19 381.35 173.14 382.90 C 198.96 396.35 227.64 403.94 256.57 406.61 C 263.66 407.62 270.82 407.01 277.95 407.16 C 285.74 407.51 293.45 406.13 301.20 405.52 C 312.71 403.89 324.24 401.97 335.38 398.55 C 340.88 397.25 346.02 394.75 351.55 393.58 C 353.48 393.67 355.40 393.35 356.97 392.15 C 360.52 389.69 364.67 388.39 368.50 386.46 C 401.83 370.31 431.35 346.43 454.24 317.33 C 486.55 276.57 506.25 226.32 511.91 174.73 C 512.92 168.76 512.20 162.64 513.20 156.65 C 513.70 148.76 513.32 140.83 513.41 132.92 C 512.77 126.81 512.40 120.67 512.31 114.52 C 514.65 114.52 517.00 114.54 519.35 114.59 C 519.43 118.01 519.34 121.46 519.98 124.83 C 521.42 131.48 520.80 138.32 520.99 145.06 C 520.76 150.85 521.39 156.76 519.90 162.43 C 519.87 162.07 519.80 161.36 519.76 161.00 C 518.66 195.40 510.51 229.44 497.34 261.19 C 471.65 323.31 422.75 376.96 360.08 402.79 C 353.33 406.05 345.98 407.61 339.07 410.41 C 337.07 410.99 335.05 411.68 333.55 413.19 C 327.11 412.81 321.19 415.85 314.87 416.57 C 301.99 418.43 289.04 420.55 275.98 420.09 C 251.28 420.78 226.63 416.41 203.16 408.88 C 199.28 407.75 195.64 405.47 191.49 405.56 C 188.17 402.55 184.30 400.33 179.88 399.40 C 151.82 386.60 126.51 368.07 105.06 345.96 C 56.23 295.25 28.00 225.89 25.30 155.73 C 24.86 145.91 24.80 136.06 25.28 126.25 C 25.65 121.62 25.87 116.99 25.81 112.36 C 25.94 112.09 26.21 111.56 26.34 111.30 Z" />
<path fill="#999797" opacity="1.00" d=" M 272.71 116.22 C 275.12 116.04 277.37 115.04 278.50 112.80 C 285.88 113.26 293.28 112.87 300.67 113.01 C 301.35 116.25 302.81 119.50 305.68 121.36 C 310.43 124.48 317.01 124.55 321.95 121.80 C 325.15 119.99 326.96 116.56 327.51 113.01 C 349.34 112.98 371.17 113.01 393.01 113.00 C 393.05 134.32 392.87 155.65 393.05 176.97 C 393.03 178.90 392.92 180.82 392.79 182.75 C 390.59 182.92 388.39 183.10 386.19 183.28 C 385.77 187.75 385.78 192.25 386.22 196.71 C 388.76 196.89 391.30 197.07 393.85 197.25 C 394.24 212.82 393.82 228.40 394.03 243.98 C 394.00 246.52 394.20 249.11 393.65 251.62 C 391.65 254.59 388.29 256.24 385.82 258.77 C 382.19 262.43 377.97 265.43 374.27 269.02 C 373.01 270.17 371.74 271.30 370.46 272.42 C 369.88 272.92 369.30 273.42 368.73 273.93 C 365.93 271.20 362.95 268.65 360.37 265.71 C 361.98 264.56 363.42 263.20 364.74 261.73 C 363.53 260.46 362.30 259.20 361.07 257.95 C 359.58 259.37 358.25 260.94 357.19 262.70 C 354.88 260.85 352.78 258.76 350.64 256.71 C 350.96 255.12 351.18 253.52 351.39 251.92 C 351.61 251.36 352.05 250.24 352.27 249.68 C 351.90 248.76 351.54 247.84 351.21 246.92 C 351.46 241.45 351.49 235.97 351.37 230.49 C 347.24 230.31 343.10 230.28 338.97 230.53 C 338.81 232.39 338.68 234.26 338.51 236.13 L 337.11 235.13 C 336.42 235.80 335.03 237.14 334.34 237.81 C 333.67 235.39 333.55 232.89 333.56 230.41 C 330.99 230.47 328.40 230.38 325.94 229.57 C 326.64 228.85 328.03 227.40 328.72 226.68 C 327.51 225.43 326.29 224.20 325.07 222.97 C 323.77 224.31 322.49 225.68 321.24 227.07 C 322.32 228.09 323.41 229.11 324.49 230.15 L 323.59 230.93 C 306.84 214.94 290.14 198.90 273.28 183.03 C 267.43 189.15 261.63 195.32 255.70 201.37 C 254.47 199.91 253.16 198.53 251.79 197.21 C 250.49 198.44 249.20 199.69 247.94 200.96 C 249.38 202.30 250.88 203.58 252.44 204.79 C 249.84 207.64 247.09 210.36 244.54 213.26 C 243.37 211.83 242.11 210.48 240.78 209.21 C 239.48 210.44 238.21 211.69 236.94 212.95 C 238.33 214.25 239.79 215.49 241.30 216.67 C 238.33 219.47 235.63 222.54 232.71 225.39 C 231.48 223.92 230.16 222.53 228.78 221.21 C 227.48 222.44 226.21 223.69 224.94 224.94 C 226.38 226.31 227.91 227.60 229.52 228.79 C 229.02 229.35 228.52 229.91 228.01 230.47 C 224.52 229.26 220.74 229.34 217.17 230.11 C 217.20 230.87 217.27 232.40 217.31 233.17 C 216.26 234.44 215.19 235.69 214.12 236.94 C 215.41 238.30 216.70 239.67 217.97 241.05 C 215.98 243.01 214.01 244.98 212.11 247.02 C 212.14 241.25 212.25 235.48 212.12 229.72 C 207.99 229.49 203.86 229.48 199.72 229.66 C 199.66 239.71 199.19 249.80 199.88 259.83 C 199.12 260.64 198.36 261.47 197.60 262.29 C 196.42 260.87 195.15 259.53 193.84 258.25 C 192.63 259.30 191.45 260.38 190.25 261.44 C 189.80 246.71 189.99 231.94 190.13 217.20 C 193.03 217.07 195.93 216.94 198.84 216.82 C 199.25 203.89 198.83 190.93 199.01 177.99 C 198.90 168.73 199.23 159.45 198.82 150.19 C 195.61 150.09 192.41 149.99 189.21 149.82 C 188.74 137.56 189.10 125.27 188.98 113.00 C 212.92 113.03 236.86 112.94 260.79 113.05 C 262.82 115.98 267.17 116.05 269.15 113.02 C 270.69 113.03 272.24 113.05 273.79 113.03 C 273.39 114.08 273.04 115.15 272.71 116.22 M 253.14 117.28 C 253.12 117.93 253.08 119.22 253.06 119.87 C 254.39 119.93 255.72 120.00 257.06 120.05 C 257.01 119.34 256.90 117.92 256.85 117.22 C 255.61 117.24 254.37 117.26 253.14 117.28 M 260.58 117.63 C 260.64 118.17 260.77 119.24 260.83 119.78 C 266.82 119.90 272.83 119.85 278.82 119.83 C 278.91 119.30 279.08 118.25 279.16 117.72 C 272.98 117.28 266.77 117.50 260.58 117.63 M 260.05 121.23 C 260.17 122.27 260.71 122.95 261.66 123.28 C 266.07 124.91 270.67 125.99 275.16 127.37 C 274.96 127.60 274.57 128.06 274.38 128.28 C 269.86 130.06 264.97 130.72 260.47 132.56 C 260.44 133.08 260.39 134.13 260.37 134.65 C 265.27 136.64 270.51 137.56 275.49 139.33 C 270.77 141.94 265.19 142.35 260.29 144.58 C 260.39 145.06 260.59 146.03 260.68 146.52 C 266.86 144.90 272.85 142.66 278.94 140.77 C 278.93 140.12 278.90 138.84 278.89 138.20 C 273.88 136.57 268.65 135.60 263.79 133.54 C 268.88 131.97 274.05 130.70 279.08 128.94 C 278.99 128.32 278.81 127.07 278.72 126.45 C 272.45 124.91 266.53 121.58 260.05 121.23 M 301.48 133.15 C 300.56 138.34 305.85 143.05 310.90 141.68 C 310.84 139.64 308.35 139.85 306.99 139.06 C 302.17 137.85 302.43 129.99 307.07 128.74 C 310.10 127.65 313.12 129.72 314.77 132.15 C 317.92 136.51 320.72 142.45 326.83 142.91 C 327.07 137.36 327.21 131.78 326.78 126.24 C 326.38 126.20 325.58 126.10 325.17 126.05 C 324.78 130.77 325.17 135.51 324.91 140.24 C 318.34 137.67 317.73 128.34 310.63 126.46 C 306.22 125.02 301.52 128.58 301.48 133.15 M 267.99 148.07 C 264.27 151.97 265.24 158.02 262.51 162.42 C 260.60 164.40 256.90 163.68 255.75 161.23 C 253.03 156.77 255.59 150.48 260.82 149.57 C 260.75 149.01 260.59 147.89 260.52 147.33 C 255.20 147.52 252.13 153.03 252.73 157.90 C 252.59 162.32 256.37 166.83 261.06 165.96 C 265.71 165.30 266.25 159.81 267.17 156.14 C 267.76 153.08 268.99 148.44 273.03 149.03 C 277.61 150.16 278.28 156.15 276.94 159.94 C 276.24 162.95 273.11 163.97 270.50 164.70 C 270.48 165.17 270.43 166.10 270.40 166.57 C 274.19 167.53 278.03 164.63 278.88 160.98 C 279.98 156.95 279.89 152.20 277.30 148.74 C 275.00 146.18 270.55 145.50 267.99 148.07 M 284.23 192.13 C 285.46 193.17 286.53 194.47 287.99 195.22 C 289.58 194.57 290.43 192.87 291.66 191.74 C 290.55 190.42 289.35 189.16 288.07 188.00 C 286.72 189.32 285.44 190.69 284.23 192.13 M 297.24 204.13 C 298.52 205.27 299.79 206.42 301.06 207.59 C 302.29 206.32 303.50 205.01 304.69 203.70 C 303.53 202.42 302.33 201.18 301.08 200.00 C 299.73 201.31 298.44 202.69 297.24 204.13 M 358.17 209.13 C 357.56 214.06 358.01 219.04 357.94 224.00 C 358.14 232.97 357.68 241.95 358.12 250.91 C 362.06 251.16 366.03 251.33 369.97 250.96 C 372.45 250.81 372.05 247.81 372.14 246.08 C 371.91 233.77 372.48 221.44 371.92 209.14 C 367.35 208.64 362.74 208.69 358.17 209.13 M 309.24 215.11 C 310.51 216.26 311.78 217.42 313.05 218.59 C 314.28 217.32 315.49 216.03 316.69 214.72 C 315.54 213.42 314.33 212.18 313.07 211.00 C 311.73 212.31 310.45 213.68 309.24 215.11 Z" />
<path fill="#999797" opacity="1.00" d=" M 25.28 126.25 C 25.72 121.65 24.32 116.76 25.81 112.36 C 25.87 116.99 25.65 121.62 25.28 126.25 Z" />
<path fill="#a0a495" opacity="1.00" d=" M 33.48 112.88 C 85.31 113.16 137.15 112.92 188.98 113.00 C 189.10 125.27 188.74 137.56 189.21 149.82 C 192.41 149.99 195.61 150.09 198.82 150.19 C 199.23 159.45 198.90 168.73 199.01 177.99 C 198.83 190.93 199.25 203.89 198.84 216.82 C 195.93 216.94 193.03 217.07 190.13 217.20 C 189.99 231.94 189.80 246.71 190.25 261.44 C 190.88 263.43 192.87 264.40 194.36 265.67 C 191.65 268.35 188.98 271.06 186.56 274.02 C 185.32 272.76 184.09 271.50 182.84 270.26 C 181.49 271.44 180.17 272.65 178.93 273.94 C 180.31 275.22 181.75 276.45 183.27 277.57 C 180.11 280.21 177.42 283.35 174.59 286.33 C 173.42 284.87 172.14 283.50 170.79 282.21 C 169.49 283.43 168.20 284.68 166.93 285.93 C 168.34 287.27 169.83 288.53 171.39 289.69 C 168.47 292.58 165.74 295.68 162.74 298.50 C 161.52 296.98 160.20 295.55 158.80 294.21 C 157.49 295.43 156.20 296.68 154.93 297.94 C 156.39 299.33 157.94 300.63 159.57 301.82 C 157.03 304.76 154.26 307.48 151.61 310.33 C 150.42 308.86 149.13 307.49 147.76 306.20 C 146.47 307.44 145.20 308.69 143.94 309.96 C 145.36 311.29 146.85 312.54 148.42 313.70 C 145.49 316.62 142.76 319.73 139.73 322.55 C 138.54 320.98 137.20 319.53 135.77 318.20 C 134.48 319.43 133.20 320.68 131.94 321.94 C 133.40 323.34 134.96 324.64 136.61 325.82 C 132.26 330.77 127.51 335.36 123.04 340.20 C 127.04 344.10 131.15 347.88 135.13 351.80 C 133.93 353.18 132.77 354.60 131.65 356.05 C 125.93 352.28 121.26 347.26 116.28 342.61 C 109.91 337.36 104.72 330.90 99.10 324.89 C 93.77 318.49 88.31 312.15 83.74 305.17 C 54.42 264.59 37.53 215.69 32.73 166.02 C 32.57 153.12 30.66 140.19 32.32 127.31 C 32.80 122.51 32.02 117.56 33.48 112.88 M 55.21 115.17 C 54.72 122.78 55.17 130.40 55.00 138.01 C 55.06 146.93 54.73 155.87 55.26 164.78 C 57.52 164.98 59.80 165.06 62.07 165.02 C 82.66 164.88 103.27 165.25 123.86 164.83 C 124.08 148.30 124.13 131.74 123.87 115.21 C 115.93 114.73 107.98 115.17 100.04 114.99 C 85.10 115.15 70.15 114.75 55.21 115.17 Z" />
<path fill="#999797" opacity="1.00" d=" M 302.65 113.01 C 310.29 113.00 317.93 112.98 325.57 113.02 C 323.64 124.10 304.61 124.04 302.65 113.01 Z" />
<path fill="#a0a495" opacity="1.00" d=" M 393.01 113.00 C 435.32 113.00 477.64 113.00 519.96 113.00 C 519.75 116.94 519.59 120.90 519.98 124.83 C 519.34 121.46 519.43 118.01 519.35 114.59 C 517.00 114.54 514.65 114.52 512.31 114.52 C 512.40 120.67 512.77 126.81 513.41 132.92 C 513.32 140.83 513.70 148.76 513.20 156.65 C 512.20 162.64 512.92 168.76 511.91 174.73 C 506.25 226.32 486.55 276.57 454.24 317.33 C 431.35 346.43 401.83 370.31 368.50 386.46 C 364.67 388.39 360.52 389.69 356.97 392.15 C 355.40 393.35 353.48 393.67 351.55 393.58 C 352.52 392.24 353.40 390.74 354.85 389.84 C 358.65 387.59 361.49 384.10 364.22 380.70 C 365.30 382.22 366.62 383.53 368.06 384.72 C 369.27 383.47 370.47 382.22 371.67 380.97 C 370.35 379.71 368.99 378.49 367.59 377.33 C 370.37 374.63 373.49 372.11 375.33 368.63 C 376.36 370.21 377.67 371.56 379.11 372.78 C 380.29 371.50 381.47 370.22 382.66 368.94 C 381.37 367.70 380.02 366.54 378.60 365.48 C 381.91 363.02 384.66 359.90 387.22 356.69 C 388.29 358.24 389.66 359.56 391.12 360.76 C 392.30 359.49 393.47 358.22 394.65 356.96 C 393.33 355.69 391.98 354.47 390.57 353.31 C 393.34 350.61 396.42 348.07 398.33 344.65 C 399.36 346.21 400.67 347.56 402.10 348.79 C 403.29 347.50 404.47 346.22 405.66 344.94 C 404.37 343.70 403.01 342.53 401.59 341.47 C 408.23 335.80 413.78 328.96 419.96 322.80 C 412.40 315.36 404.42 308.32 397.06 300.68 C 398.89 299.71 400.39 298.28 401.74 296.73 C 400.53 295.45 399.31 294.20 398.08 292.95 C 396.51 294.40 395.15 296.06 394.17 297.97 C 385.48 290.19 377.24 281.90 368.73 273.93 C 369.30 273.42 369.88 272.92 370.46 272.42 C 371.12 274.20 372.69 275.36 374.05 276.60 C 375.28 275.31 376.49 274.00 377.70 272.70 C 376.56 271.46 375.40 270.25 374.27 269.02 C 377.97 265.43 382.19 262.43 385.82 258.77 C 388.29 256.24 391.65 254.59 393.65 251.62 C 394.20 249.11 394.00 246.52 394.03 243.98 C 393.82 228.40 394.24 212.82 393.85 197.25 C 391.30 197.07 388.76 196.89 386.22 196.71 C 385.78 192.25 385.77 187.75 386.19 183.28 C 388.39 183.10 390.59 182.92 392.79 182.75 C 392.92 180.82 393.03 178.90 393.05 176.97 C 392.87 155.65 393.05 134.32 393.01 113.00 M 406.01 114.01 C 405.99 127.34 405.99 140.66 406.01 153.99 C 438.00 154.01 470.00 154.01 501.99 153.99 C 502.00 140.66 502.01 127.34 501.99 114.01 C 470.00 113.99 438.00 113.99 406.01 114.01 M 382.24 285.10 C 383.51 286.25 384.77 287.41 386.03 288.58 C 387.28 287.32 388.50 286.02 389.69 284.70 C 388.54 283.42 387.34 282.18 386.09 280.99 C 384.74 282.30 383.46 283.67 382.24 285.10 M 406.25 308.10 C 407.52 309.26 408.78 310.42 410.06 311.59 C 411.28 310.32 412.48 309.03 413.68 307.73 C 412.55 306.42 411.35 305.17 410.09 303.99 C 408.75 305.30 407.46 306.67 406.25 308.10 Z" />
<path fill="#00a4b4" opacity="1.00" d=" M 406.01 114.01 C 438.00 113.99 470.00 113.99 501.99 114.01 C 502.01 127.34 502.00 140.66 501.99 153.99 C 470.00 154.01 438.00 154.01 406.01 153.99 C 405.99 140.66 405.99 127.34 406.01 114.01 Z" />
<path fill="#a1a1a1" opacity="1.00" d=" M 55.21 115.17 C 70.15 114.75 85.10 115.15 100.04 114.99 C 107.98 115.17 115.93 114.73 123.87 115.21 C 124.13 131.74 124.08 148.30 123.86 164.83 C 103.27 165.25 82.66 164.88 62.07 165.02 C 59.80 165.06 57.52 164.98 55.26 164.78 C 54.73 155.87 55.06 146.93 55.00 138.01 C 55.17 130.40 54.72 122.78 55.21 115.17 M 83.45 124.69 C 76.24 126.49 70.35 133.50 71.05 141.11 C 71.59 149.57 79.73 155.97 87.94 155.98 C 97.29 156.62 106.88 148.62 105.95 138.87 C 105.27 128.29 93.13 121.63 83.45 124.69 Z" />
<path fill="#b3b3b2" opacity="1.00" d=" M 253.14 117.28 C 254.37 117.26 255.61 117.24 256.85 117.22 C 256.90 117.92 257.01 119.34 257.06 120.05 C 255.72 120.00 254.39 119.93 253.06 119.87 C 253.08 119.22 253.12 117.93 253.14 117.28 Z" />
<path fill="#bababa" opacity="1.00" d=" M 260.58 117.63 C 266.77 117.50 272.98 117.28 279.16 117.72 C 279.08 118.25 278.91 119.30 278.82 119.83 C 272.83 119.85 266.82 119.90 260.83 119.78 C 260.77 119.24 260.64 118.17 260.58 117.63 Z" />
<path fill="#bfbfbf" opacity="1.00" d=" M 260.05 121.23 C 266.53 121.58 272.45 124.91 278.72 126.45 C 278.81 127.07 278.99 128.32 279.08 128.94 C 274.05 130.70 268.88 131.97 263.79 133.54 C 268.65 135.60 273.88 136.57 278.89 138.20 C 278.90 138.84 278.93 140.12 278.94 140.77 C 272.85 142.66 266.86 144.90 260.68 146.52 C 260.59 146.03 260.39 145.06 260.29 144.58 C 265.19 142.35 270.77 141.94 275.49 139.33 C 270.51 137.56 265.27 136.64 260.37 134.65 C 260.39 134.13 260.44 133.08 260.47 132.56 C 264.97 130.72 269.86 130.06 274.38 128.28 C 274.57 128.06 274.96 127.60 275.16 127.37 C 270.67 125.99 266.07 124.91 261.66 123.28 C 260.71 122.95 260.17 122.27 260.05 121.23 Z" />
<path fill="#ab7500" opacity="1.00" d=" M 83.45 124.69 C 93.13 121.63 105.27 128.29 105.95 138.87 C 106.88 148.62 97.29 156.62 87.94 155.98 C 79.73 155.97 71.59 149.57 71.05 141.11 C 70.35 133.50 76.24 126.49 83.45 124.69 M 85.74 135.75 C 85.73 137.83 85.73 139.91 85.74 142.00 C 87.40 142.00 89.07 141.99 90.74 141.99 C 90.74 139.90 90.74 137.81 90.72 135.73 C 89.06 135.73 87.40 135.73 85.74 135.75 Z" />
<path fill="#bfbfbf" opacity="1.00" d=" M 301.48 133.15 C 301.52 128.58 306.22 125.02 310.63 126.46 C 317.73 128.34 318.34 137.67 324.91 140.24 C 325.17 135.51 324.78 130.77 325.17 126.05 C 325.58 126.10 326.38 126.20 326.78 126.24 C 327.21 131.78 327.07 137.36 326.83 142.91 C 320.72 142.45 317.92 136.51 314.77 132.15 C 313.12 129.72 310.10 127.65 307.07 128.74 C 302.43 129.99 302.17 137.85 306.99 139.06 C 308.35 139.85 310.84 139.64 310.90 141.68 C 305.85 143.05 300.56 138.34 301.48 133.15 Z" />
<path fill="#ebebeb" opacity="1.00" d=" M 85.74 135.75 C 87.40 135.73 89.06 135.73 90.72 135.73 C 90.74 137.81 90.74 139.90 90.74 141.99 C 89.07 141.99 87.40 142.00 85.74 142.00 C 85.73 139.91 85.73 137.83 85.74 135.75 Z" />
<path fill="#bfbfbf" opacity="1.00" d=" M 267.99 148.07 C 270.55 145.50 275.00 146.18 277.30 148.74 C 279.89 152.20 279.98 156.95 278.88 160.98 C 278.03 164.63 274.19 167.53 270.40 166.57 C 270.43 166.10 270.48 165.17 270.50 164.70 C 273.11 163.97 276.24 162.95 276.94 159.94 C 278.28 156.15 277.61 150.16 273.03 149.03 C 268.99 148.44 267.76 153.08 267.17 156.14 C 266.25 159.81 265.71 165.30 261.06 165.96 C 256.37 166.83 252.59 162.32 252.73 157.90 C 252.13 153.03 255.20 147.52 260.52 147.33 C 260.59 147.89 260.75 149.01 260.82 149.57 C 255.59 150.48 253.03 156.77 255.75 161.23 C 256.90 163.68 260.60 164.40 262.51 162.42 C 265.24 158.02 264.27 151.97 267.99 148.07 Z" />
<path fill="#a0a495" opacity="1.00" d=" M 25.30 155.73 C 28.00 225.89 56.23 295.25 105.06 345.96 C 126.51 368.07 151.82 386.60 179.88 399.40 C 184.30 400.33 188.17 402.55 191.49 405.56 C 193.13 407.04 194.75 408.54 196.36 410.06 C 194.84 411.25 193.45 412.60 192.22 414.10 C 193.51 415.26 194.80 416.44 196.09 417.61 C 197.35 416.23 198.58 414.81 199.77 413.38 C 202.73 416.26 205.82 419.02 208.68 422.01 C 206.92 423.06 205.49 424.52 204.23 426.11 C 205.52 427.28 206.81 428.45 208.10 429.62 C 209.43 428.16 210.69 426.65 211.89 425.09 C 215.15 427.70 217.72 431.13 221.33 433.30 C 219.77 434.34 218.41 435.64 217.21 437.08 C 218.50 438.26 219.79 439.44 221.09 440.62 C 222.28 439.30 223.44 437.95 224.56 436.57 C 227.13 439.78 230.24 442.50 233.35 445.18 C 231.77 446.25 230.43 447.62 229.23 449.10 C 230.51 450.26 231.79 451.44 233.08 452.61 C 234.32 451.25 235.53 449.88 236.73 448.49 C 239.55 451.43 242.61 454.14 245.49 457.03 C 243.88 458.18 242.47 459.57 241.22 461.10 C 242.51 462.26 243.80 463.44 245.09 464.62 C 246.38 463.20 247.63 461.75 248.84 460.27 C 251.71 462.83 254.41 465.57 257.32 468.10 C 255.81 469.27 254.44 470.61 253.22 472.08 C 254.51 473.25 255.79 474.43 257.09 475.61 C 258.33 474.24 259.55 472.85 260.76 471.45 C 263.67 474.35 266.66 477.19 269.67 479.99 C 273.18 476.37 276.61 472.68 280.15 469.09 C 281.19 468.13 281.79 466.85 282.37 465.59 C 283.37 467.18 284.66 468.56 286.09 469.79 C 287.28 468.51 288.47 467.23 289.66 465.95 C 288.40 464.69 287.05 463.54 285.57 462.57 C 289.10 460.34 291.82 457.00 294.28 453.68 C 295.33 455.24 296.67 456.56 298.11 457.77 C 299.29 456.49 300.47 455.22 301.66 453.95 C 300.35 452.70 299.00 451.51 297.58 450.41 C 300.45 447.76 303.75 445.26 305.36 441.60 C 306.37 443.18 307.66 444.56 309.09 445.79 C 310.28 444.51 311.47 443.23 312.66 441.95 C 311.39 440.70 310.04 439.55 308.59 438.54 C 312.05 436.23 314.83 432.99 317.28 429.66 C 318.30 431.25 319.67 432.56 321.12 433.77 C 322.30 432.49 323.47 431.22 324.66 429.95 C 323.35 428.70 322.00 427.51 320.59 426.38 C 323.70 423.76 326.40 420.70 329.10 417.68 C 330.28 419.19 331.64 420.54 333.13 421.76 C 334.30 420.49 335.47 419.22 336.65 417.95 C 335.29 416.66 333.91 415.41 332.50 414.20 C 332.76 413.95 333.29 413.44 333.55 413.19 C 335.05 411.68 337.07 410.99 339.07 410.41 C 345.98 407.61 353.33 406.05 360.08 402.79 C 422.75 376.96 471.65 323.31 497.34 261.19 C 510.51 229.44 518.66 195.40 519.76 161.00 C 519.80 161.36 519.87 162.07 519.90 162.43 C 519.43 171.28 520.16 180.12 520.00 188.97 C 519.99 305.64 520.01 422.31 519.99 538.99 C 355.00 539.01 190.01 539.01 25.01 538.99 C 24.98 445.99 25.01 352.98 25.00 259.98 C 25.10 225.23 24.75 190.47 25.30 155.73 M 180.21 403.04 C 181.46 404.26 182.75 405.46 184.05 406.65 C 185.00 405.65 185.94 404.65 186.87 403.64 C 185.01 402.11 181.88 400.07 180.21 403.04 M 327.00 467.18 C 329.74 475.85 333.32 484.25 336.23 492.87 C 336.93 492.91 338.34 493.00 339.05 493.04 C 342.28 484.49 345.30 475.86 348.66 467.36 C 348.03 467.34 346.79 467.31 346.16 467.29 C 343.31 474.92 340.68 482.62 337.84 490.26 C 334.70 482.78 332.23 475.02 329.39 467.43 C 328.79 467.36 327.60 467.24 327.00 467.18 M 375.34 467.42 C 365.15 470.86 364.55 487.29 373.78 492.20 C 376.58 493.64 379.97 493.74 382.99 492.95 C 387.19 491.77 389.96 487.36 389.87 483.11 C 389.37 483.21 388.36 483.40 387.86 483.50 C 387.22 488.52 382.30 493.02 377.09 491.34 C 369.75 489.63 368.19 480.04 370.94 474.03 C 373.04 468.60 380.94 466.78 385.10 470.90 C 386.97 472.17 386.59 475.76 389.59 475.15 C 389.31 468.44 381.01 465.18 375.34 467.42 M 472.08 470.00 C 470.44 471.68 470.30 474.16 469.85 476.34 C 471.67 476.77 472.54 476.03 472.44 474.12 C 472.78 470.26 477.56 468.09 480.80 470.09 C 484.46 471.77 484.33 477.05 481.49 479.47 C 477.08 483.60 469.46 485.88 469.25 493.00 C 474.79 492.90 480.35 493.21 485.89 492.82 C 485.85 492.42 485.76 491.62 485.72 491.22 C 481.04 490.69 476.31 491.18 471.62 490.96 C 473.90 484.90 481.67 484.11 484.64 478.61 C 485.96 476.38 486.07 473.44 484.90 471.13 C 482.40 466.73 475.35 466.27 472.08 470.00 M 353.19 474.21 C 346.73 476.42 345.64 485.61 349.55 490.54 C 351.88 493.63 356.43 494.13 359.81 492.68 C 364.81 490.09 365.86 483.13 363.52 478.40 C 361.86 474.59 357.01 472.83 353.19 474.21 M 399.21 474.21 C 392.75 476.39 391.64 485.57 395.52 490.51 C 397.84 493.62 402.40 494.13 405.79 492.69 C 410.82 490.10 411.88 483.08 409.49 478.34 C 407.82 474.57 403.01 472.85 399.21 474.21 M 414.42 474.30 C 414.21 480.50 414.42 486.69 414.30 492.89 C 414.82 492.94 415.86 493.02 416.38 493.06 C 417.05 488.07 414.60 481.73 418.81 477.86 C 420.15 476.02 424.29 477.49 423.56 474.25 C 420.24 473.91 417.78 476.20 416.08 478.75 C 416.13 477.77 416.21 475.81 416.26 474.83 C 415.80 474.70 414.88 474.44 414.42 474.30 M 424.91 490.03 C 428.41 495.78 439.45 494.11 439.51 486.78 C 439.04 486.91 438.11 487.17 437.64 487.31 C 436.70 489.69 434.79 491.97 431.98 491.81 C 427.80 492.25 425.51 487.86 425.21 484.29 C 430.03 484.13 434.86 484.24 439.69 484.22 C 440.41 478.72 435.96 472.41 429.93 473.89 C 422.99 475.41 421.78 484.69 424.91 490.03 M 451.16 474.44 C 453.43 480.66 455.98 486.77 458.23 492.99 C 458.85 492.97 460.08 492.94 460.70 492.92 C 462.85 486.77 465.25 480.71 467.50 474.59 C 466.92 474.66 465.75 474.80 465.16 474.87 C 463.30 480.21 461.40 485.54 459.54 490.88 C 457.36 485.68 455.72 480.27 453.72 475.01 C 453.08 474.87 451.80 474.58 451.16 474.44 M 433.79 518.43 L 434.87 518.06 C 436.81 514.17 438.21 510.04 439.95 506.07 C 440.70 504.07 441.93 502.14 441.79 499.92 C 438.47 505.75 436.43 512.26 433.79 518.43 M 418.59 500.98 C 418.59 501.49 418.59 502.50 418.59 503.01 C 420.69 504.90 420.70 499.09 418.59 500.98 M 457.40 501.42 C 454.94 502.05 454.44 504.82 454.15 506.96 C 456.60 507.51 455.45 504.03 456.97 503.00 C 459.58 500.73 464.55 503.35 463.16 506.90 C 461.07 511.50 454.18 512.32 453.59 517.96 C 457.41 517.93 461.27 518.26 465.08 517.70 C 464.94 517.44 464.68 516.90 464.55 516.64 C 461.44 516.49 458.32 516.69 455.21 516.57 C 457.04 511.89 464.20 511.52 464.71 506.07 C 465.21 502.20 460.59 499.90 457.40 501.42 M 340.23 505.19 C 341.40 509.67 343.46 513.85 344.96 518.22 C 345.34 518.08 346.10 517.79 346.47 517.64 C 347.95 513.52 349.85 509.52 350.78 505.23 C 350.49 505.33 349.91 505.52 349.62 505.61 C 347.99 509.04 347.43 512.92 345.48 516.22 C 344.27 513.12 343.30 509.95 342.17 506.83 C 341.89 505.87 341.25 505.32 340.23 505.19 M 355.50 505.65 C 350.25 507.56 350.56 516.62 356.04 518.05 C 359.78 519.24 363.80 515.81 363.42 511.95 C 364.13 507.64 359.53 503.97 355.50 505.65 M 368.50 505.65 C 363.24 507.55 363.56 516.72 369.08 518.05 C 372.32 519.15 375.73 516.50 375.65 513.11 C 373.52 513.74 373.64 517.16 371.04 516.99 C 364.61 517.73 364.59 505.89 371.00 506.34 C 373.36 506.21 373.42 509.66 375.62 509.56 C 375.41 506.14 371.46 504.40 368.50 505.65 M 381.43 505.68 C 376.23 507.66 376.59 516.66 382.07 518.07 C 386.21 519.34 390.11 515.24 389.43 511.17 C 389.65 507.10 385.14 504.08 381.43 505.68 M 393.20 508.05 L 392.78 505.96 L 391.71 505.45 C 391.53 509.51 391.59 513.59 391.60 517.67 C 391.94 517.80 392.63 518.07 392.97 518.20 C 393.18 515.23 392.57 512.15 393.40 509.27 C 393.86 507.03 397.75 507.74 397.56 505.43 C 395.72 505.57 394.17 506.45 393.20 508.05 M 401.43 505.60 C 397.89 506.95 397.05 511.57 398.28 514.80 C 399.38 518.49 404.96 519.49 407.40 516.60 C 408.85 515.11 408.11 512.91 408.56 511.09 C 408.88 507.41 405.01 504.05 401.43 505.60 M 418.64 505.31 C 418.60 509.42 418.56 513.54 418.60 517.66 C 418.94 517.80 419.63 518.07 419.97 518.21 C 419.96 514.14 420.13 510.07 419.91 506.02 C 419.60 505.84 418.96 505.49 418.64 505.31 M 425.48 505.66 C 420.58 507.47 420.46 515.69 425.24 517.74 C 428.24 519.25 432.17 517.40 433.12 514.22 C 433.71 511.81 433.60 508.97 431.87 507.03 C 430.26 505.35 427.64 504.87 425.48 505.66 M 442.24 505.17 C 443.37 509.67 445.47 513.84 446.96 518.22 C 447.34 518.08 448.10 517.79 448.47 517.64 C 449.95 513.53 451.85 509.52 452.78 505.23 C 452.49 505.33 451.91 505.52 451.62 505.61 C 450.06 509.12 449.25 512.92 447.55 516.38 C 446.30 513.22 445.30 509.98 444.15 506.79 C 443.87 505.86 443.23 505.32 442.24 505.17 Z" />
<path fill="#362f2d" opacity="1.00" d=" M 273.28 183.03 C 290.14 198.90 306.84 214.94 323.59 230.93 C 326.93 233.92 329.95 237.26 333.46 240.06 C 334.48 240.84 335.46 241.69 336.39 242.59 C 340.78 247.65 345.88 252.01 350.64 256.71 C 352.78 258.76 354.88 260.85 357.19 262.70 C 358.33 263.61 359.39 264.61 360.37 265.71 C 362.95 268.65 365.93 271.20 368.73 273.93 C 377.24 281.90 385.48 290.19 394.17 297.97 C 395.25 298.75 396.21 299.65 397.06 300.68 C 404.42 308.32 412.40 315.36 419.96 322.80 C 413.78 328.96 408.23 335.80 401.59 341.47 C 400.40 342.43 399.32 343.49 398.33 344.65 C 396.42 348.07 393.34 350.61 390.57 353.31 C 389.40 354.39 388.28 355.51 387.22 356.69 C 384.66 359.90 381.91 363.02 378.60 365.48 C 377.41 366.43 376.32 367.48 375.33 368.63 C 373.49 372.11 370.37 374.63 367.59 377.33 C 366.41 378.39 365.28 379.52 364.22 380.70 C 361.49 384.10 358.65 387.59 354.85 389.84 C 353.40 390.74 352.52 392.24 351.55 393.58 C 346.02 394.75 340.88 397.25 335.38 398.55 C 324.24 401.97 312.71 403.89 301.20 405.52 C 293.45 406.13 285.74 407.51 277.95 407.16 C 270.82 407.01 263.66 407.62 256.57 406.61 C 227.64 403.94 198.96 396.35 173.14 382.90 C 170.19 381.35 167.42 379.39 164.14 378.60 C 160.06 375.15 155.76 371.99 152.18 367.97 C 150.71 366.44 149.20 364.96 147.60 363.58 C 144.61 360.89 141.80 358.03 138.82 355.33 C 137.57 354.16 136.35 352.99 135.13 351.80 C 131.15 347.88 127.04 344.10 123.04 340.20 C 127.51 335.36 132.26 330.77 136.61 325.82 C 137.60 324.68 138.64 323.59 139.73 322.55 C 142.76 319.73 145.49 316.62 148.42 313.70 C 149.48 312.57 150.54 311.44 151.61 310.33 C 154.26 307.48 157.03 304.76 159.57 301.82 C 160.58 300.67 161.64 299.56 162.74 298.50 C 165.74 295.68 168.47 292.58 171.39 289.69 C 172.45 288.57 173.52 287.44 174.59 286.33 C 177.42 283.35 180.11 280.21 183.27 277.57 C 184.41 276.43 185.51 275.24 186.56 274.02 C 188.98 271.06 191.65 268.35 194.36 265.67 C 195.44 264.54 196.52 263.41 197.60 262.29 C 198.36 261.47 199.12 260.64 199.88 259.83 C 202.13 257.43 204.44 255.08 206.70 252.68 C 207.66 251.66 208.62 250.65 209.60 249.65 C 210.44 248.77 211.27 247.89 212.11 247.02 C 214.01 244.98 215.98 243.01 217.97 241.05 C 219.26 239.75 220.50 238.41 221.73 237.06 C 223.75 234.79 225.88 232.63 228.01 230.47 C 228.52 229.91 229.02 229.35 229.52 228.79 C 230.54 227.62 231.61 226.48 232.71 225.39 C 235.63 222.54 238.33 219.47 241.30 216.67 C 242.39 215.54 243.47 214.41 244.54 213.26 C 247.09 210.36 249.84 207.64 252.44 204.79 C 253.50 203.62 254.59 202.48 255.70 201.37 C 261.63 195.32 267.43 189.15 273.28 183.03 Z" />
<path fill="#ebebeb" opacity="1.00" d=" M 284.23 192.13 C 285.44 190.69 286.72 189.32 288.07 188.00 C 289.35 189.16 290.55 190.42 291.66 191.74 C 290.43 192.87 289.58 194.57 287.99 195.22 C 286.53 194.47 285.46 193.17 284.23 192.13 Z" />
<path fill="#ebebeb" opacity="1.00" d=" M 247.94 200.96 C 249.20 199.69 250.49 198.44 251.79 197.21 C 253.16 198.53 254.47 199.91 255.70 201.37 C 254.59 202.48 253.50 203.62 252.44 204.79 C 250.88 203.58 249.38 202.30 247.94 200.96 Z" />
<path fill="#ebebeb" opacity="1.00" d=" M 297.24 204.13 C 298.44 202.69 299.73 201.31 301.08 200.00 C 302.33 201.18 303.53 202.42 304.69 203.70 C 303.50 205.01 302.29 206.32 301.06 207.59 C 299.79 206.42 298.52 205.27 297.24 204.13 Z" />
<path fill="#a1a1a1" opacity="1.00" d=" M 358.17 209.13 C 362.74 208.69 367.35 208.64 371.92 209.14 C 372.48 221.44 371.91 233.77 372.14 246.08 C 372.05 247.81 372.45 250.81 369.97 250.96 C 366.03 251.33 362.06 251.16 358.12 250.91 C 357.68 241.95 358.14 232.97 357.94 224.00 C 358.01 219.04 357.56 214.06 358.17 209.13 Z" />
<path fill="#ebebeb" opacity="1.00" d=" M 236.94 212.95 C 238.21 211.69 239.48 210.44 240.78 209.21 C 242.11 210.48 243.37 211.83 244.54 213.26 C 243.47 214.41 242.39 215.54 241.30 216.67 C 239.79 215.49 238.33 214.25 236.94 212.95 Z" />
<path fill="#ebebeb" opacity="1.00" d=" M 309.24 215.11 C 310.45 213.68 311.73 212.31 313.07 211.00 C 314.33 212.18 315.54 213.42 316.69 214.72 C 315.49 216.03 314.28 217.32 313.05 218.59 C 311.78 217.42 310.51 216.26 309.24 215.11 Z" />
<path fill="#ebebeb" opacity="1.00" d=" M 224.94 224.94 C 226.21 223.69 227.48 222.44 228.78 221.21 C 230.16 222.53 231.48 223.92 232.71 225.39 C 231.61 226.48 230.54 227.62 229.52 228.79 C 227.91 227.60 226.38 226.31 224.94 224.94 Z" />
<path fill="#ebebeb" opacity="1.00" d=" M 321.24 227.07 C 322.49 225.68 323.77 224.31 325.07 222.97 C 326.29 224.20 327.51 225.43 328.72 226.68 C 328.03 227.40 326.64 228.85 325.94 229.57 C 325.45 229.75 324.97 229.95 324.49 230.15 C 323.41 229.11 322.32 228.09 321.24 227.07 Z" />
<path fill="#d3c3b1" opacity="1.00" d=" M 324.49 230.15 C 324.97 229.95 325.45 229.75 325.94 229.57 C 328.40 230.38 330.99 230.47 333.56 230.41 C 333.55 232.89 333.67 235.39 334.34 237.81 C 334.03 238.55 333.74 239.30 333.46 240.06 C 329.95 237.26 326.93 233.92 323.59 230.93 L 324.49 230.15 Z" />
<path fill="#d3c3b1" opacity="1.00" d=" M 199.72 229.66 C 203.86 229.48 207.99 229.49 212.12 229.72 C 212.25 235.48 212.14 241.25 212.11 247.02 C 211.27 247.89 210.44 248.77 209.60 249.65 C 208.55 248.02 207.28 246.56 205.86 245.26 C 204.52 246.41 203.21 247.60 201.97 248.86 C 203.36 250.35 204.95 251.62 206.70 252.68 C 204.44 255.08 202.13 257.43 199.88 259.83 C 199.19 249.80 199.66 239.71 199.72 229.66 Z" />
<path fill="#d3c3b1" opacity="1.00" d=" M 217.17 230.11 C 220.74 229.34 224.52 229.26 228.01 230.47 C 225.88 232.63 223.75 234.79 221.73 237.06 C 220.29 235.73 218.81 234.43 217.31 233.17 C 217.27 232.40 217.20 230.87 217.17 230.11 Z" />
<path fill="#d3c3b1" opacity="1.00" d=" M 338.97 230.53 C 343.10 230.28 347.24 230.31 351.37 230.49 C 351.49 235.97 351.46 241.45 351.21 246.92 C 348.47 245.47 346.79 248.32 345.30 250.12 C 346.46 251.18 347.63 252.22 348.83 253.25 C 349.47 252.91 350.75 252.25 351.39 251.92 C 351.18 253.52 350.96 255.12 350.64 256.71 C 345.88 252.01 340.78 247.65 336.39 242.59 C 337.81 241.40 339.20 240.18 340.55 238.92 C 339.87 237.98 339.22 237.03 338.51 236.13 C 338.68 234.26 338.81 232.39 338.97 230.53 Z" />
<path fill="#ebebeb" opacity="1.00" d=" M 217.31 233.17 C 218.81 234.43 220.29 235.73 221.73 237.06 C 220.50 238.41 219.26 239.75 217.97 241.05 C 216.70 239.67 215.41 238.30 214.12 236.94 C 215.19 235.69 216.26 234.44 217.31 233.17 Z" />
<path fill="#ebebeb" opacity="1.00" d=" M 334.34 237.81 C 335.03 237.14 336.42 235.80 337.11 235.13 L 338.51 236.13 C 339.22 237.03 339.87 237.98 340.55 238.92 C 339.20 240.18 337.81 241.40 336.39 242.59 C 335.46 241.69 334.48 240.84 333.46 240.06 C 333.74 239.30 334.03 238.55 334.34 237.81 Z" />
<path fill="#ebebeb" opacity="1.00" d=" M 201.97 248.86 C 203.21 247.60 204.52 246.41 205.86 245.26 C 207.28 246.56 208.55 248.02 209.60 249.65 C 208.62 250.65 207.66 251.66 206.70 252.68 C 204.95 251.62 203.36 250.35 201.97 248.86 Z" />
<path fill="#ebebeb" opacity="1.00" d=" M 345.30 250.12 C 346.79 248.32 348.47 245.47 351.21 246.92 C 351.54 247.84 351.90 248.76 352.27 249.68 C 352.05 250.24 351.61 251.36 351.39 251.92 C 350.75 252.25 349.47 252.91 348.83 253.25 C 347.63 252.22 346.46 251.18 345.30 250.12 Z" />
<path fill="#ebebeb" opacity="1.00" d=" M 190.25 261.44 C 191.45 260.38 192.63 259.30 193.84 258.25 C 195.15 259.53 196.42 260.87 197.60 262.29 C 196.52 263.41 195.44 264.54 194.36 265.67 C 192.87 264.40 190.88 263.43 190.25 261.44 Z" />
<path fill="#ebebeb" opacity="1.00" d=" M 357.19 262.70 C 358.25 260.94 359.58 259.37 361.07 257.95 C 362.30 259.20 363.53 260.46 364.74 261.73 C 363.42 263.20 361.98 264.56 360.37 265.71 C 359.39 264.61 358.33 263.61 357.19 262.70 Z" />
<path fill="#ebebeb" opacity="1.00" d=" M 370.46 272.42 C 371.74 271.30 373.01 270.17 374.27 269.02 C 375.40 270.25 376.56 271.46 377.70 272.70 C 376.49 274.00 375.28 275.31 374.05 276.60 C 372.69 275.36 371.12 274.20 370.46 272.42 Z" />
<path fill="#ebebeb" opacity="1.00" d=" M 178.93 273.94 C 180.17 272.65 181.49 271.44 182.84 270.26 C 184.09 271.50 185.32 272.76 186.56 274.02 C 185.51 275.24 184.41 276.43 183.27 277.57 C 181.75 276.45 180.31 275.22 178.93 273.94 Z" />
<path fill="#ebebeb" opacity="1.00" d=" M 382.24 285.10 C 383.46 283.67 384.74 282.30 386.09 280.99 C 387.34 282.18 388.54 283.42 389.69 284.70 C 388.50 286.02 387.28 287.32 386.03 288.58 C 384.77 287.41 383.51 286.25 382.24 285.10 Z" />
<path fill="#ebebeb" opacity="1.00" d=" M 166.93 285.93 C 168.20 284.68 169.49 283.43 170.79 282.21 C 172.14 283.50 173.42 284.87 174.59 286.33 C 173.52 287.44 172.45 288.57 171.39 289.69 C 169.83 288.53 168.34 287.27 166.93 285.93 Z" />
<path fill="#ebebeb" opacity="1.00" d=" M 394.17 297.97 C 395.15 296.06 396.51 294.40 398.08 292.95 C 399.31 294.20 400.53 295.45 401.74 296.73 C 400.39 298.28 398.89 299.71 397.06 300.68 C 396.21 299.65 395.25 298.75 394.17 297.97 Z" />
<path fill="#ebebeb" opacity="1.00" d=" M 154.93 297.94 C 156.20 296.68 157.49 295.43 158.80 294.21 C 160.20 295.55 161.52 296.98 162.74 298.50 C 161.64 299.56 160.58 300.67 159.57 301.82 C 157.94 300.63 156.39 299.33 154.93 297.94 Z" />
<path fill="#ebebeb" opacity="1.00" d=" M 406.25 308.10 C 407.46 306.67 408.75 305.30 410.09 303.99 C 411.35 305.17 412.55 306.42 413.68 307.73 C 412.48 309.03 411.28 310.32 410.06 311.59 C 408.78 310.42 407.52 309.26 406.25 308.10 Z" />
<path fill="#ebebeb" opacity="1.00" d=" M 143.94 309.96 C 145.20 308.69 146.47 307.44 147.76 306.20 C 149.13 307.49 150.42 308.86 151.61 310.33 C 150.54 311.44 149.48 312.57 148.42 313.70 C 146.85 312.54 145.36 311.29 143.94 309.96 Z" />
<path fill="#ebebeb" opacity="1.00" d=" M 131.94 321.94 C 133.20 320.68 134.48 319.43 135.77 318.20 C 137.20 319.53 138.54 320.98 139.73 322.55 C 138.64 323.59 137.60 324.68 136.61 325.82 C 134.96 324.64 133.40 323.34 131.94 321.94 Z" />
<path fill="#ebebeb" opacity="1.00" d=" M 398.33 344.65 C 399.32 343.49 400.40 342.43 401.59 341.47 C 403.01 342.53 404.37 343.70 405.66 344.94 C 404.47 346.22 403.29 347.50 402.10 348.79 C 400.67 347.56 399.36 346.21 398.33 344.65 Z" />
<path fill="#ebebeb" opacity="1.00" d=" M 135.13 351.80 C 136.35 352.99 137.57 354.16 138.82 355.33 C 137.68 356.85 136.47 358.40 134.40 358.49 C 133.50 357.65 132.59 356.84 131.65 356.05 C 132.77 354.60 133.93 353.18 135.13 351.80 Z" />
<path fill="#ebebeb" opacity="1.00" d=" M 387.22 356.69 C 388.28 355.51 389.40 354.39 390.57 353.31 C 391.98 354.47 393.33 355.69 394.65 356.96 C 393.47 358.22 392.30 359.49 391.12 360.76 C 389.66 359.56 388.29 358.24 387.22 356.69 Z" />
<path fill="#a0a495" opacity="1.00" d=" M 138.82 355.33 C 141.80 358.03 144.61 360.89 147.60 363.58 C 147.20 364.57 146.78 365.57 146.38 366.57 C 147.57 367.25 148.74 367.96 149.93 368.65 C 150.49 368.48 151.62 368.14 152.18 367.97 C 155.76 371.99 160.06 375.15 164.14 378.60 C 160.86 377.99 158.69 375.33 156.03 373.59 C 152.09 370.54 146.87 369.43 143.58 365.52 C 140.84 362.78 137.23 361.13 134.40 358.49 C 136.47 358.40 137.68 356.85 138.82 355.33 Z" />
<path fill="#ebebeb" opacity="1.00" d=" M 147.60 363.58 C 149.20 364.96 150.71 366.44 152.18 367.97 C 151.62 368.14 150.49 368.48 149.93 368.65 C 148.74 367.96 147.57 367.25 146.38 366.57 C 146.78 365.57 147.20 364.57 147.60 363.58 Z" />
<path fill="#ebebeb" opacity="1.00" d=" M 375.33 368.63 C 376.32 367.48 377.41 366.43 378.60 365.48 C 380.02 366.54 381.37 367.70 382.66 368.94 C 381.47 370.22 380.29 371.50 379.11 372.78 C 377.67 371.56 376.36 370.21 375.33 368.63 Z" />
<path fill="#ebebeb" opacity="1.00" d=" M 364.22 380.70 C 365.28 379.52 366.41 378.39 367.59 377.33 C 368.99 378.49 370.35 379.71 371.67 380.97 C 370.47 382.22 369.27 383.47 368.06 384.72 C 366.62 383.53 365.30 382.22 364.22 380.70 Z" />
<path fill="#e5e5e5" opacity="1.00" d=" M 180.21 403.04 C 181.88 400.07 185.01 402.11 186.87 403.64 C 185.94 404.65 185.00 405.65 184.05 406.65 C 182.75 405.46 181.46 404.26 180.21 403.04 Z" />
<path fill="#362f2d" opacity="1.00" d=" M 191.49 405.56 C 195.64 405.47 199.28 407.75 203.16 408.88 C 226.63 416.41 251.28 420.78 275.98 420.09 C 289.04 420.55 301.99 418.43 314.87 416.57 C 321.19 415.85 327.11 412.81 333.55 413.19 C 333.29 413.44 332.76 413.95 332.50 414.20 C 331.35 415.34 330.21 416.50 329.10 417.68 C 326.40 420.70 323.70 423.76 320.59 426.38 C 319.42 427.40 318.31 428.49 317.28 429.66 C 314.83 432.99 312.05 436.23 308.59 438.54 C 307.40 439.44 306.32 440.46 305.36 441.60 C 303.75 445.26 300.45 447.76 297.58 450.41 C 296.40 451.42 295.30 452.51 294.28 453.68 C 291.82 457.00 289.10 460.34 285.57 462.57 C 284.38 463.44 283.32 464.45 282.37 465.59 C 281.79 466.85 281.19 468.13 280.15 469.09 C 276.61 472.68 273.18 476.37 269.67 479.99 C 266.66 477.19 263.67 474.35 260.76 471.45 C 259.62 470.31 258.47 469.19 257.32 468.10 C 254.41 465.57 251.71 462.83 248.84 460.27 C 247.70 459.21 246.58 458.13 245.49 457.03 C 242.61 454.14 239.55 451.43 236.73 448.49 C 235.62 447.35 234.50 446.25 233.35 445.18 C 230.24 442.50 227.13 439.78 224.56 436.57 C 223.56 435.39 222.48 434.30 221.33 433.30 C 217.72 431.13 215.15 427.70 211.89 425.09 C 210.78 424.09 209.71 423.06 208.68 422.01 C 205.82 419.02 202.73 416.26 199.77 413.38 C 198.64 412.27 197.50 411.16 196.36 410.06 C 194.75 408.54 193.13 407.04 191.49 405.56 Z" />
<path fill="#ebebeb" opacity="1.00" d=" M 192.22 414.10 C 193.45 412.60 194.84 411.25 196.36 410.06 C 197.50 411.16 198.64 412.27 199.77 413.38 C 198.58 414.81 197.35 416.23 196.09 417.61 C 194.80 416.44 193.51 415.26 192.22 414.10 Z" />
<path fill="#ebebeb" opacity="1.00" d=" M 329.10 417.68 C 330.21 416.50 331.35 415.34 332.50 414.20 C 333.91 415.41 335.29 416.66 336.65 417.95 C 335.47 419.22 334.30 420.49 333.13 421.76 C 331.64 420.54 330.28 419.19 329.10 417.68 Z" />
<path fill="#ebebeb" opacity="1.00" d=" M 204.23 426.11 C 205.49 424.52 206.92 423.06 208.68 422.01 C 209.71 423.06 210.78 424.09 211.89 425.09 C 210.69 426.65 209.43 428.16 208.10 429.62 C 206.81 428.45 205.52 427.28 204.23 426.11 Z" />
<path fill="#ebebeb" opacity="1.00" d=" M 317.28 429.66 C 318.31 428.49 319.42 427.40 320.59 426.38 C 322.00 427.51 323.35 428.70 324.66 429.95 C 323.47 431.22 322.30 432.49 321.12 433.77 C 319.67 432.56 318.30 431.25 317.28 429.66 Z" />
<path fill="#ebebeb" opacity="1.00" d=" M 217.21 437.08 C 218.41 435.64 219.77 434.34 221.33 433.30 C 222.48 434.30 223.56 435.39 224.56 436.57 C 223.44 437.95 222.28 439.30 221.09 440.62 C 219.79 439.44 218.50 438.26 217.21 437.08 Z" />
<path fill="#ebebeb" opacity="1.00" d=" M 305.36 441.60 C 306.32 440.46 307.40 439.44 308.59 438.54 C 310.04 439.55 311.39 440.70 312.66 441.95 C 311.47 443.23 310.28 444.51 309.09 445.79 C 307.66 444.56 306.37 443.18 305.36 441.60 Z" />
<path fill="#ebebeb" opacity="1.00" d=" M 229.23 449.10 C 230.43 447.62 231.77 446.25 233.35 445.18 C 234.50 446.25 235.62 447.35 236.73 448.49 C 235.53 449.88 234.32 451.25 233.08 452.61 C 231.79 451.44 230.51 450.26 229.23 449.10 Z" />
<path fill="#ebebeb" opacity="1.00" d=" M 294.28 453.68 C 295.30 452.51 296.40 451.42 297.58 450.41 C 299.00 451.51 300.35 452.70 301.66 453.95 C 300.47 455.22 299.29 456.49 298.11 457.77 C 296.67 456.56 295.33 455.24 294.28 453.68 Z" />
<path fill="#ebebeb" opacity="1.00" d=" M 241.22 461.10 C 242.47 459.57 243.88 458.18 245.49 457.03 C 246.58 458.13 247.70 459.21 248.84 460.27 C 247.63 461.75 246.38 463.20 245.09 464.62 C 243.80 463.44 242.51 462.26 241.22 461.10 Z" />
<path fill="#ebebeb" opacity="1.00" d=" M 282.37 465.59 C 283.32 464.45 284.38 463.44 285.57 462.57 C 287.05 463.54 288.40 464.69 289.66 465.95 C 288.47 467.23 287.28 468.51 286.09 469.79 C 284.66 468.56 283.37 467.18 282.37 465.59 Z" />
<path fill="#362f2d" opacity="1.00" d=" M 327.00 467.18 C 327.60 467.24 328.79 467.36 329.39 467.43 C 332.23 475.02 334.70 482.78 337.84 490.26 C 340.68 482.62 343.31 474.92 346.16 467.29 C 346.79 467.31 348.03 467.34 348.66 467.36 C 345.30 475.86 342.28 484.49 339.05 493.04 C 338.34 493.00 336.93 492.91 336.23 492.87 C 333.32 484.25 329.74 475.85 327.00 467.18 Z" />
<path fill="#362f2d" opacity="1.00" d=" M 375.34 467.42 C 381.01 465.18 389.31 468.44 389.59 475.15 C 386.59 475.76 386.97 472.17 385.10 470.90 C 380.94 466.78 373.04 468.60 370.94 474.03 C 368.19 480.04 369.75 489.63 377.09 491.34 C 382.30 493.02 387.22 488.52 387.86 483.50 C 388.36 483.40 389.37 483.21 389.87 483.11 C 389.96 487.36 387.19 491.77 382.99 492.95 C 379.97 493.74 376.58 493.64 373.78 492.20 C 364.55 487.29 365.15 470.86 375.34 467.42 Z" />
<path fill="#362f2d" opacity="1.00" d=" M 472.08 470.00 C 475.35 466.27 482.40 466.73 484.90 471.13 C 486.07 473.44 485.96 476.38 484.64 478.61 C 481.67 484.11 473.90 484.90 471.62 490.96 C 476.31 491.18 481.04 490.69 485.72 491.22 C 485.76 491.62 485.85 492.42 485.89 492.82 C 480.35 493.21 474.79 492.90 469.25 493.00 C 469.46 485.88 477.08 483.60 481.49 479.47 C 484.33 477.05 484.46 471.77 480.80 470.09 C 477.56 468.09 472.78 470.26 472.44 474.12 C 472.54 476.03 471.67 476.77 469.85 476.34 C 470.30 474.16 470.44 471.68 472.08 470.00 Z" />
<path fill="#ebebeb" opacity="1.00" d=" M 253.22 472.08 C 254.44 470.61 255.81 469.27 257.32 468.10 C 258.47 469.19 259.62 470.31 260.76 471.45 C 259.55 472.85 258.33 474.24 257.09 475.61 C 255.79 474.43 254.51 473.25 253.22 472.08 Z" />
<path fill="#362f2d" opacity="1.00" d=" M 353.19 474.21 C 357.01 472.83 361.86 474.59 363.52 478.40 C 365.86 483.13 364.81 490.09 359.81 492.68 C 356.43 494.13 351.88 493.63 349.55 490.54 C 345.64 485.61 346.73 476.42 353.19 474.21 M 353.25 476.30 C 347.96 479.45 348.09 488.56 353.63 491.40 C 357.60 493.12 361.85 489.87 362.36 485.86 C 364.08 480.62 359.04 473.30 353.25 476.30 Z" />
<path fill="#362f2d" opacity="1.00" d=" M 399.21 474.21 C 403.01 472.85 407.82 474.57 409.49 478.34 C 411.88 483.08 410.82 490.10 405.79 492.69 C 402.40 494.13 397.84 493.62 395.52 490.51 C 391.64 485.57 392.75 476.39 399.21 474.21 M 399.25 476.30 C 393.95 479.44 394.09 488.62 399.68 491.41 C 403.61 493.10 407.82 489.88 408.35 485.91 C 410.11 480.67 405.07 473.29 399.25 476.30 Z" />
<path fill="#362f2d" opacity="1.00" d=" M 414.42 474.30 C 414.88 474.44 415.80 474.70 416.26 474.83 C 416.21 475.81 416.13 477.77 416.08 478.75 C 417.78 476.20 420.24 473.91 423.56 474.25 C 424.29 477.49 420.15 476.02 418.81 477.86 C 414.60 481.73 417.05 488.07 416.38 493.06 C 415.86 493.02 414.82 492.94 414.30 492.89 C 414.42 486.69 414.21 480.50 414.42 474.30 Z" />
<path fill="#362f2d" opacity="1.00" d=" M 424.91 490.03 C 421.78 484.69 422.99 475.41 429.93 473.89 C 435.96 472.41 440.41 478.72 439.69 484.22 C 434.86 484.24 430.03 484.13 425.21 484.29 C 425.51 487.86 427.80 492.25 431.98 491.81 C 434.79 491.97 436.70 489.69 437.64 487.31 C 438.11 487.17 439.04 486.91 439.51 486.78 C 439.45 494.11 428.41 495.78 424.91 490.03 M 425.36 482.32 C 429.48 482.34 433.59 482.35 437.71 482.31 C 437.48 479.19 435.44 475.90 432.06 475.66 C 428.27 475.23 425.73 478.95 425.36 482.32 Z" />
<path fill="#362f2d" opacity="1.00" d=" M 451.16 474.44 C 451.80 474.58 453.08 474.87 453.72 475.01 C 455.72 480.27 457.36 485.68 459.54 490.88 C 461.40 485.54 463.30 480.21 465.16 474.87 C 465.75 474.80 466.92 474.66 467.50 474.59 C 465.25 480.71 462.85 486.77 460.70 492.92 C 460.08 492.94 458.85 492.97 458.23 492.99 C 455.98 486.77 453.43 480.66 451.16 474.44 Z" />
<path fill="#a0a495" opacity="1.00" d=" M 353.25 476.30 C 359.04 473.30 364.08 480.62 362.36 485.86 C 361.85 489.87 357.60 493.12 353.63 491.40 C 348.09 488.56 347.96 479.45 353.25 476.30 Z" />
<path fill="#a0a495" opacity="1.00" d=" M 399.25 476.30 C 405.07 473.29 410.11 480.67 408.35 485.91 C 407.82 489.88 403.61 493.10 399.68 491.41 C 394.09 488.62 393.95 479.44 399.25 476.30 Z" />
<path fill="#a0a495" opacity="1.00" d=" M 425.36 482.32 C 425.73 478.95 428.27 475.23 432.06 475.66 C 435.44 475.90 437.48 479.19 437.71 482.31 C 433.59 482.35 429.48 482.34 425.36 482.32 Z" />
<path fill="#362f2d" opacity="1.00" d=" M 433.79 518.43 C 436.43 512.26 438.47 505.75 441.79 499.92 C 441.93 502.14 440.70 504.07 439.95 506.07 C 438.21 510.04 436.81 514.17 434.87 518.06 L 433.79 518.43 Z" />
<path fill="#362f2d" opacity="1.00" d=" M 418.59 500.98 C 420.70 499.09 420.69 504.90 418.59 503.01 C 418.59 502.50 418.59 501.49 418.59 500.98 Z" />
<path fill="#362f2d" opacity="1.00" d=" M 457.40 501.42 C 460.59 499.90 465.21 502.20 464.71 506.07 C 464.20 511.52 457.04 511.89 455.21 516.57 C 458.32 516.69 461.44 516.49 464.55 516.64 C 464.68 516.90 464.94 517.44 465.08 517.70 C 461.27 518.26 457.41 517.93 453.59 517.96 C 454.18 512.32 461.07 511.50 463.16 506.90 C 464.55 503.35 459.58 500.73 456.97 503.00 C 455.45 504.03 456.60 507.51 454.15 506.96 C 454.44 504.82 454.94 502.05 457.40 501.42 Z" />
<path fill="#362f2d" opacity="1.00" d=" M 340.23 505.19 C 341.25 505.32 341.89 505.87 342.17 506.83 C 343.30 509.95 344.27 513.12 345.48 516.22 C 347.43 512.92 347.99 509.04 349.62 505.61 C 349.91 505.52 350.49 505.33 350.78 505.23 C 349.85 509.52 347.95 513.52 346.47 517.64 C 346.10 517.79 345.34 518.08 344.96 518.22 C 343.46 513.85 341.40 509.67 340.23 505.19 Z" />
<path fill="#362f2d" opacity="1.00" d=" M 355.50 505.65 C 359.53 503.97 364.13 507.64 363.42 511.95 C 363.80 515.81 359.78 519.24 356.04 518.05 C 350.56 516.62 350.25 507.56 355.50 505.65 M 355.30 507.10 C 351.60 509.62 352.85 517.49 357.95 517.02 C 361.90 516.82 362.95 511.56 361.29 508.65 C 360.37 506.41 357.18 505.62 355.30 507.10 Z" />
<path fill="#362f2d" opacity="1.00" d=" M 368.50 505.65 C 371.46 504.40 375.41 506.14 375.62 509.56 C 373.42 509.66 373.36 506.21 371.00 506.34 C 364.59 505.89 364.61 517.73 371.04 516.99 C 373.64 517.16 373.52 513.74 375.65 513.11 C 375.73 516.50 372.32 519.15 369.08 518.05 C 363.56 516.72 363.24 507.55 368.50 505.65 Z" />
<path fill="#362f2d" opacity="1.00" d=" M 381.43 505.68 C 385.14 504.08 389.65 507.10 389.43 511.17 C 390.11 515.24 386.21 519.34 382.07 518.07 C 376.59 516.66 376.23 507.66 381.43 505.68 M 381.30 507.11 C 377.60 509.61 378.85 517.48 383.94 517.02 C 387.36 516.94 388.64 512.75 387.81 509.95 C 387.36 507.05 383.72 505.21 381.30 507.11 Z" />
<path fill="#362f2d" opacity="1.00" d=" M 393.20 508.05 C 394.17 506.45 395.72 505.57 397.56 505.43 C 397.75 507.74 393.86 507.03 393.40 509.27 C 392.57 512.15 393.18 515.23 392.97 518.20 C 392.63 518.07 391.94 517.80 391.60 517.67 C 391.59 513.59 391.53 509.51 391.71 505.45 L 392.78 505.96 L 393.20 508.05 Z" />
<path fill="#362f2d" opacity="1.00" d=" M 401.43 505.60 C 405.01 504.05 408.88 507.41 408.56 511.09 C 408.11 512.91 408.85 515.11 407.40 516.60 C 404.96 519.49 399.38 518.49 398.28 514.80 C 397.05 511.57 397.89 506.95 401.43 505.60 M 398.99 510.89 C 401.83 511.03 404.68 511.03 407.53 510.98 C 406.93 509.10 406.21 506.75 403.93 506.41 C 401.19 505.89 399.60 508.66 398.99 510.89 M 399.09 512.25 C 399.07 514.90 401.21 517.66 404.10 516.97 C 406.66 516.99 407.24 513.96 408.37 512.26 C 405.27 512.19 402.18 512.19 399.09 512.25 Z" />
<path fill="#362f2d" opacity="1.00" d=" M 418.64 505.31 C 418.96 505.49 419.60 505.84 419.91 506.02 C 420.13 510.07 419.96 514.14 419.97 518.21 C 419.63 518.07 418.94 517.80 418.60 517.66 C 418.56 513.54 418.60 509.42 418.64 505.31 Z" />
<path fill="#362f2d" opacity="1.00" d=" M 425.48 505.66 C 427.64 504.87 430.26 505.35 431.87 507.03 C 433.60 508.97 433.71 511.81 433.12 514.22 C 432.17 517.40 428.24 519.25 425.24 517.74 C 420.46 515.69 420.58 507.47 425.48 505.66 M 425.27 507.12 C 421.60 509.66 422.87 517.50 427.97 517.02 C 431.87 516.82 432.92 511.65 431.34 508.74 C 430.45 506.43 427.19 505.58 425.27 507.12 Z" />
<path fill="#362f2d" opacity="1.00" d=" M 442.24 505.17 C 443.23 505.32 443.87 505.86 444.15 506.79 C 445.30 509.98 446.30 513.22 447.55 516.38 C 449.25 512.92 450.06 509.12 451.62 505.61 C 451.91 505.52 452.49 505.33 452.78 505.23 C 451.85 509.52 449.95 513.53 448.47 517.64 C 448.10 517.79 447.34 518.08 446.96 518.22 C 445.47 513.84 443.37 509.67 442.24 505.17 Z" />
<path fill="#a0a495" opacity="1.00" d=" M 355.30 507.10 C 357.18 505.62 360.37 506.41 361.29 508.65 C 362.95 511.56 361.90 516.82 357.95 517.02 C 352.85 517.49 351.60 509.62 355.30 507.10 Z" />
<path fill="#a0a495" opacity="1.00" d=" M 381.30 507.11 C 383.72 505.21 387.36 507.05 387.81 509.95 C 388.64 512.75 387.36 516.94 383.94 517.02 C 378.85 517.48 377.60 509.61 381.30 507.11 Z" />
<path fill="#a0a495" opacity="1.00" d=" M 398.99 510.89 C 399.60 508.66 401.19 505.89 403.93 506.41 C 406.21 506.75 406.93 509.10 407.53 510.98 C 404.68 511.03 401.83 511.03 398.99 510.89 Z" />
<path fill="#a0a495" opacity="1.00" d=" M 425.27 507.12 C 427.19 505.58 430.45 506.43 431.34 508.74 C 432.92 511.65 431.87 516.82 427.97 517.02 C 422.87 517.50 421.60 509.66 425.27 507.12 Z" />
<path fill="#a0a495" opacity="1.00" d=" M 399.09 512.25 C 402.18 512.19 405.27 512.19 408.37 512.26 C 407.24 513.96 406.66 516.99 404.10 516.97 C 401.21 517.66 399.07 514.90 399.09 512.25 Z" />
<path fill="#362f2d" opacity="1.00" d=" M 199.07 547.05 C 288.36 546.99 377.65 546.94 466.94 547.07 C 467.04 569.70 467.07 592.34 466.91 614.97 C 377.63 615.01 288.34 615.05 199.06 614.94 C 198.96 592.31 198.96 569.67 199.07 547.05 M 233.01 573.26 C 232.99 575.84 232.99 578.41 233.00 580.99 C 235.00 581.00 237.00 581.00 238.99 580.99 C 239.01 578.41 239.01 575.84 238.99 573.26 C 236.99 573.25 235.00 573.25 233.01 573.26 M 267.02 573.26 C 266.99 575.84 266.99 578.41 267.01 581.00 C 269.00 581.00 271.00 581.00 272.99 580.99 C 273.01 578.41 273.01 575.83 272.97 573.25 C 270.98 573.25 269.00 573.26 267.02 573.26 M 302.02 573.26 C 301.99 575.83 301.99 578.41 302.00 580.99 C 304.00 581.00 305.99 581.00 307.99 580.99 C 308.01 578.41 308.01 575.83 307.98 573.26 C 305.99 573.25 304.00 573.25 302.02 573.26 M 336.02 573.26 C 335.99 575.83 335.99 578.41 336.01 580.99 C 338.00 581.00 339.99 581.00 341.99 580.99 C 342.00 578.41 342.00 575.84 341.99 573.27 C 339.99 573.26 338.00 573.25 336.02 573.26 M 371.02 573.26 C 370.99 575.84 370.99 578.41 371.00 580.99 C 373.00 581.00 374.99 581.00 376.99 581.00 C 377.01 578.41 377.00 575.84 376.98 573.26 C 374.99 573.25 373.00 573.25 371.02 573.26 M 405.02 573.26 C 404.99 575.84 404.99 578.41 405.01 581.00 C 407.00 581.00 408.99 581.00 410.99 580.99 C 411.00 578.41 411.00 575.84 410.99 573.27 C 408.99 573.25 407.00 573.25 405.02 573.26 Z" />
<path fill="#00a4b4" opacity="1.00" d=" M 86.01 561.01 C 104.67 560.99 123.33 560.99 141.99 561.01 C 142.01 574.00 142.01 587.00 141.99 599.99 C 123.33 600.00 104.67 600.01 86.01 599.99 C 85.99 587.00 85.99 574.00 86.01 561.01 Z" />
<path fill="#c2c2c2" opacity="1.00" d=" M 233.01 573.26 C 235.00 573.25 236.99 573.25 238.99 573.26 C 239.01 575.84 239.01 578.41 238.99 580.99 C 237.00 581.00 235.00 581.00 233.00 580.99 C 232.99 578.41 232.99 575.84 233.01 573.26 Z" />
<path fill="#c2c2c2" opacity="1.00" d=" M 267.02 573.26 C 269.00 573.26 270.98 573.25 272.97 573.25 C 273.01 575.83 273.01 578.41 272.99 580.99 C 271.00 581.00 269.00 581.00 267.01 581.00 C 266.99 578.41 266.99 575.84 267.02 573.26 Z" />
<path fill="#c2c2c2" opacity="1.00" d=" M 302.02 573.26 C 304.00 573.25 305.99 573.25 307.98 573.26 C 308.01 575.83 308.01 578.41 307.99 580.99 C 305.99 581.00 304.00 581.00 302.00 580.99 C 301.99 578.41 301.99 575.83 302.02 573.26 Z" />
<path fill="#c2c2c2" opacity="1.00" d=" M 336.02 573.26 C 338.00 573.25 339.99 573.26 341.99 573.27 C 342.00 575.84 342.00 578.41 341.99 580.99 C 339.99 581.00 338.00 581.00 336.01 580.99 C 335.99 578.41 335.99 575.83 336.02 573.26 Z" />
<path fill="#c2c2c2" opacity="1.00" d=" M 371.02 573.26 C 373.00 573.25 374.99 573.25 376.98 573.26 C 377.00 575.84 377.01 578.41 376.99 581.00 C 374.99 581.00 373.00 581.00 371.00 580.99 C 370.99 578.41 370.99 575.84 371.02 573.26 Z" />
<path fill="#c2c2c2" opacity="1.00" d=" M 405.02 573.26 C 407.00 573.25 408.99 573.25 410.99 573.27 C 411.00 575.84 411.00 578.41 410.99 580.99 C 408.99 581.00 407.00 581.00 405.01 581.00 C 404.99 578.41 404.99 575.84 405.02 573.26 Z" />
</svg>
