<?xml version="1.0" encoding="UTF-8" ?>
<!DOCTYPE svg PUBLIC "-//W3C//DTD SVG 1.1//EN" "http://www.w3.org/Graphics/SVG/1.1/DTD/svg11.dtd">
<svg ID="weather34 designed pws logo " width="1200pt" height="818pt" viewBox="0 0 1200 818" version="1.1" xmlns="http://www.w3.org/2000/svg">
<path fill="#000000" stroke="#000000" stroke-width="0.09375" opacity="1.00" d=" M 509.51 74.01 C 619.33 73.99 729.16 74.00 838.99 74.00 C 796.48 148.34 753.96 222.66 711.46 296.99 C 520.09 297.02 328.72 296.98 137.36 297.01 C 130.40 303.87 120.83 308.06 111.01 307.98 C 99.66 307.97 88.29 308.10 76.94 307.92 C 60.86 307.28 46.21 294.87 42.93 279.12 C 40.61 269.11 42.75 258.15 48.74 249.80 C 55.40 240.00 67.12 234.01 78.94 234.01 C 89.97 234.02 101.01 233.93 112.05 234.06 C 121.02 234.21 129.70 237.97 136.29 243.98 C 228.29 244.02 320.29 243.99 412.29 244.00 C 444.70 187.34 477.11 130.68 509.51 74.01 Z" />
<path fill="#000000" stroke="#000000" stroke-width="0.09375" opacity="1.00" d=" M 925.46 323.77 C 945.29 321.07 965.84 321.96 984.99 328.07 C 1000.73 333.13 1015.54 342.05 1026.04 354.99 C 1035.53 366.51 1041.04 381.12 1041.87 396.01 C 1042.21 397.32 1041.85 399.46 1040.05 399.22 C 1023.69 399.29 1007.33 399.24 990.97 399.24 C 990.04 389.63 984.66 380.71 976.70 375.29 C 966.03 368.01 952.54 365.92 939.88 367.15 C 930.60 368.00 921.07 370.65 913.89 376.84 C 905.75 383.70 902.49 396.13 907.16 405.85 C 910.69 412.67 917.81 416.58 924.69 419.31 C 938.03 424.47 952.28 426.43 966.15 429.63 C 985.83 433.58 1006.14 438.45 1022.53 450.64 C 1034.16 459.06 1042.28 472.01 1044.86 486.13 C 1046.99 497.74 1046.83 509.84 1044.48 521.41 C 1041.13 537.41 1032.18 552.21 1019.34 562.37 C 1004.00 574.71 984.55 580.80 965.21 583.08 C 940.55 585.77 914.77 584.14 891.74 574.31 C 877.18 568.08 864.02 557.91 855.67 544.33 C 848.92 533.47 845.35 520.71 845.04 507.96 C 845.29 507.68 845.80 507.13 846.05 506.86 C 863.12 506.59 880.22 506.83 897.30 506.75 C 898.18 515.53 902.87 523.76 910.03 528.92 C 921.98 537.80 937.52 540.01 952.04 539.44 C 964.06 538.71 976.85 535.32 985.37 526.29 C 991.72 519.84 994.09 509.71 990.91 501.20 C 988.65 495.25 983.45 491.03 977.96 488.16 C 965.18 481.63 950.84 479.39 936.97 476.34 C 922.78 473.15 908.22 470.99 894.73 465.29 C 880.69 459.62 867.61 450.34 859.77 437.15 C 851.21 423.05 849.49 405.88 851.33 389.77 C 853.37 373.61 861.04 358.16 873.05 347.10 C 887.30 333.73 906.33 326.51 925.46 323.77 Z" />
<path fill="#000000" stroke="#000000" stroke-width="0.09375" opacity="1.00" d=" M 259.84 328.84 C 294.90 328.61 329.95 328.83 365.01 328.73 C 384.63 328.70 404.66 334.44 420.15 346.76 C 434.47 357.90 444.11 374.43 448.06 392.04 C 451.30 406.61 451.46 421.93 448.36 436.54 C 444.59 454.12 435.03 470.58 420.92 481.85 C 405.29 494.60 385.04 500.77 365.05 501.25 C 347.95 501.26 330.85 501.24 313.75 501.25 C 313.75 525.83 313.73 550.41 313.76 574.99 C 313.87 576.15 313.55 578.18 311.94 577.96 C 295.25 578.04 278.56 578.01 261.87 577.97 C 260.18 578.23 259.44 576.46 259.74 575.08 C 259.83 493.00 259.61 410.92 259.84 328.84 M 313.75 373.75 C 313.74 401.42 313.75 429.08 313.75 456.75 C 326.84 456.74 339.94 456.77 353.03 456.74 C 365.38 456.38 378.66 452.69 386.83 442.83 C 393.89 434.35 395.99 422.82 395.43 412.05 C 394.90 402.08 391.65 391.72 384.17 384.77 C 375.89 376.93 364.16 374.10 353.06 373.76 C 339.96 373.73 326.85 373.76 313.75 373.75 Z" />
<path fill="#000000" stroke="#000000" stroke-width="0.09375" opacity="1.00" d=" M 485.83 328.71 C 504.29 328.80 522.75 328.72 541.21 328.75 C 551.64 375.77 562.02 422.80 572.43 469.82 C 575.00 480.87 577.09 492.04 579.97 503.02 C 595.35 445.02 610.08 386.84 625.19 328.77 C 640.43 328.72 655.68 328.77 670.92 328.74 C 685.43 384.05 700.06 439.32 714.60 494.61 C 715.25 497.30 715.87 500.03 717.15 502.51 C 730.18 444.65 742.59 386.64 755.41 328.73 C 773.29 328.80 791.17 328.68 809.05 328.78 C 810.56 328.57 811.43 330.39 810.74 331.62 C 788.97 413.75 767.14 495.87 745.36 578.00 C 728.58 578.01 711.80 578.00 695.02 578.00 C 681.58 531.13 668.22 484.24 654.82 437.35 C 652.46 429.64 650.57 421.78 647.95 414.16 C 632.10 468.66 617.02 523.40 601.43 577.99 C 584.54 578.02 567.66 577.97 550.77 578.02 C 529.02 496.07 507.39 414.10 485.65 332.16 C 485.17 331.00 485.62 329.85 485.83 328.71 Z" />
<path fill="#000000" stroke="#000000" stroke-width="0.09375" opacity="1.00" d=" M 373.94 576.03 C 384.49 567.34 398.47 562.94 412.10 564.21 C 427.91 565.48 442.70 574.44 451.68 587.42 C 460.87 600.46 464.08 617.40 460.66 632.95 C 457.22 649.23 446.28 663.88 431.31 671.29 C 419.13 677.58 404.45 678.69 391.41 674.49 C 371.06 668.15 355.99 649.01 353.44 628.00 C 325.96 628.00 298.48 628.00 271.00 628.00 C 270.99 672.02 271.01 716.03 270.99 760.04 C 252.53 759.95 234.28 751.81 221.87 738.15 C 214.90 730.76 209.92 721.67 206.81 712.03 C 203.03 699.38 203.01 685.64 206.82 672.99 C 211.62 657.40 222.14 643.67 236.04 635.11 C 241.20 632.04 246.62 629.09 252.67 628.34 C 238.09 627.66 223.49 628.14 208.91 628.00 C 207.79 642.45 200.85 656.37 189.78 665.76 C 176.62 677.20 157.78 681.71 140.87 677.38 C 129.76 674.74 119.61 668.41 112.20 659.73 C 103.31 649.38 98.47 635.63 99.05 621.98 C 99.51 607.06 106.44 592.47 117.73 582.70 C 130.95 570.83 150.19 566.21 167.37 570.68 C 187.57 575.43 203.87 592.71 207.95 612.99 C 256.44 613.01 304.94 613.00 353.43 613.00 C 355.35 598.70 362.61 585.06 373.94 576.03 Z" />
<path fill="#000000" stroke="#000000" stroke-width="0.09375" opacity="1.00" d=" M 899.82 606.05 C 907.19 605.98 914.56 605.94 921.93 606.07 C 922.07 620.78 922.00 635.48 921.97 650.19 C 925.07 643.39 931.18 638.11 938.51 636.42 C 947.84 634.32 958.71 635.26 966.14 641.82 C 972.67 647.55 975.14 656.57 975.25 664.99 C 975.23 682.99 975.30 700.99 975.21 718.99 C 967.73 719.00 960.26 719.00 952.79 718.99 C 952.68 702.98 952.81 686.96 952.73 670.94 C 952.62 665.68 951.13 659.58 946.16 656.86 C 939.40 653.35 929.88 654.87 925.33 661.24 C 922.91 664.62 922.20 668.89 922.24 672.96 C 922.24 688.30 922.30 703.65 922.21 718.99 C 914.73 719.00 907.26 719.00 899.79 718.99 C 899.74 681.35 899.68 643.70 899.82 606.05 Z" />
<path fill="#000000" stroke="#000000" stroke-width="0.09375" opacity="1.00" d=" M 841.26 617.79 C 848.74 617.74 856.22 617.68 863.70 617.83 C 863.79 624.47 863.72 631.11 863.75 637.75 C 869.33 637.76 874.91 637.72 880.49 637.78 C 880.51 643.74 880.48 649.71 880.51 655.67 C 874.92 655.81 869.34 655.72 863.75 655.75 C 863.73 667.17 863.77 678.59 863.73 690.02 C 863.76 693.45 863.96 697.78 867.32 699.72 C 871.34 701.85 876.09 700.80 880.44 700.87 C 880.55 706.69 880.48 712.51 880.49 718.34 C 870.95 719.67 860.73 720.16 851.64 716.44 C 844.78 713.65 841.29 706.17 841.27 699.08 C 841.21 684.64 841.28 670.19 841.25 655.75 C 837.04 655.74 832.85 655.75 828.65 655.76 C 828.36 649.78 828.52 643.80 828.54 637.83 C 832.77 637.72 837.01 637.73 841.25 637.75 C 841.26 631.10 841.24 624.44 841.26 617.79 Z" />
<path fill="#000000" stroke="#000000" stroke-width="0.09375" opacity="1.00" d=" M 680.08 635.83 C 689.78 634.37 700.20 635.28 708.88 640.15 C 716.54 644.43 721.98 652.04 724.37 660.40 C 726.80 667.93 726.60 675.92 726.46 683.74 C 708.01 683.77 689.56 683.73 671.11 683.75 C 671.26 689.26 672.76 695.15 677.04 698.91 C 682.34 703.64 690.28 703.90 696.79 701.94 C 700.52 700.89 703.40 698.13 705.18 694.76 C 712.15 694.77 719.13 694.65 726.10 694.85 C 724.75 701.74 721.08 708.21 715.47 712.51 C 706.92 719.24 695.60 721.28 684.96 720.68 C 675.96 720.19 666.75 717.14 660.25 710.69 C 652.95 703.80 649.57 693.71 648.85 683.90 C 648.01 672.39 649.56 660.11 656.26 650.41 C 661.65 642.43 670.61 637.21 680.08 635.83 M 674.99 659.00 C 672.65 661.83 671.83 665.48 671.10 668.99 C 682.21 669.00 693.32 669.02 704.42 668.98 C 703.84 665.02 702.95 660.88 700.17 657.84 C 693.75 650.59 680.75 651.24 674.99 659.00 Z" />
<path fill="#000000" stroke="#000000" stroke-width="0.09375" opacity="1.00" d=" M 753.96 642.00 C 762.98 635.77 774.45 634.62 785.12 635.44 C 793.81 636.19 802.99 639.29 808.40 646.52 C 812.50 651.73 813.68 658.57 813.52 665.05 C 813.39 683.03 813.68 701.01 813.37 718.99 C 806.12 719.00 798.88 719.00 791.63 718.99 C 791.46 715.41 791.43 711.83 791.60 708.25 C 788.22 713.48 782.96 717.41 776.92 718.99 C 767.30 721.62 756.01 720.40 748.24 713.76 C 740.47 707.09 738.45 695.28 742.10 685.96 C 744.91 679.13 751.54 674.75 758.40 672.68 C 769.04 669.49 780.31 670.25 791.26 669.19 C 791.22 664.71 791.99 659.15 788.00 656.02 C 782.73 652.45 775.56 652.59 769.79 654.85 C 766.99 655.79 765.25 658.24 763.89 660.72 C 757.02 660.77 750.15 660.77 743.29 660.72 C 743.73 653.26 747.74 646.16 753.96 642.00 M 774.83 684.88 C 771.03 685.31 766.74 686.02 764.10 689.08 C 761.03 692.87 762.59 699.03 766.89 701.17 C 774.16 704.86 784.27 702.76 789.03 696.00 C 791.59 692.49 791.26 687.95 791.28 683.84 C 785.79 684.20 780.31 684.44 774.83 684.88 Z" />
<path fill="#000000" stroke="#000000" stroke-width="0.09375" opacity="1.00" d=" M 1024.01 635.84 C 1032.31 634.57 1041.04 635.08 1048.91 638.20 C 1057.04 641.40 1063.54 648.10 1066.88 656.13 C 1070.75 664.79 1070.72 674.43 1070.47 683.73 C 1052.01 683.79 1033.56 683.72 1015.11 683.76 C 1015.32 689.26 1016.77 695.13 1021.07 698.90 C 1026.34 703.64 1034.24 703.87 1040.75 701.97 C 1044.52 700.98 1047.42 698.17 1049.17 694.77 C 1056.17 694.77 1063.17 694.65 1070.17 694.86 C 1068.73 702.20 1064.59 709.03 1058.43 713.35 C 1049.66 719.61 1038.45 721.40 1027.90 720.60 C 1019.05 719.96 1010.11 716.70 1003.83 710.26 C 997.12 703.62 993.88 694.23 992.99 685.00 C 991.95 673.14 993.39 660.41 1000.33 650.40 C 1005.67 642.44 1014.61 637.28 1024.01 635.84 M 1019.10 658.93 C 1016.77 661.79 1015.87 665.44 1015.13 668.98 C 1026.23 669.01 1037.33 669.02 1048.44 668.97 C 1047.95 664.76 1046.75 660.40 1043.70 657.29 C 1037.11 650.65 1024.73 651.42 1019.10 658.93 Z" />
<path fill="#000000" stroke="#000000" stroke-width="0.09375" opacity="1.00" d=" M 1120.52 638.42 C 1126.75 634.99 1134.23 635.25 1141.01 636.65 C 1140.99 643.51 1141.01 650.37 1140.99 657.23 C 1133.92 655.95 1126.12 654.87 1119.58 658.58 C 1114.34 661.40 1111.37 667.27 1111.28 673.11 C 1111.17 688.40 1111.33 703.70 1111.21 718.99 C 1103.73 719.00 1096.26 719.00 1088.79 718.99 C 1088.72 691.66 1088.72 664.33 1088.79 637.01 C 1096.08 637.02 1103.37 636.94 1110.66 637.05 C 1110.79 641.32 1110.79 645.58 1110.65 649.86 C 1112.43 644.99 1115.85 640.76 1120.52 638.42 Z" />
<path fill="#000000" stroke="#000000" stroke-width="0.09375" opacity="1.00" d=" M 520.61 637.02 C 528.22 636.98 535.82 636.99 543.42 637.02 C 547.42 656.47 551.50 675.90 555.49 695.36 C 560.40 675.94 564.98 656.44 569.81 637.00 C 576.95 637.00 584.09 637.00 591.23 637.00 C 596.00 656.45 600.75 675.90 605.54 695.34 C 609.67 675.91 613.62 656.44 617.68 637.00 C 625.16 637.03 632.64 636.92 640.12 637.08 C 633.07 664.43 625.65 691.68 618.45 718.99 C 610.53 719.00 602.60 719.01 594.68 718.99 C 589.88 700.25 585.03 681.54 580.15 662.82 C 575.31 681.53 570.49 700.25 565.76 718.99 C 557.93 719.01 550.09 719.00 542.26 719.00 C 535.14 691.65 527.47 664.44 520.61 637.02 Z" />
</svg>
