<?xml version="1.0" standalone="no"?>
<!DOCTYPE svg PUBLIC "-//W3C//DTD SVG 20010904//EN"
 "http://www.w3.org/TR/2001/REC-SVG-20010904/DTD/svg10.dtd">
<svg version="1.0" xmlns="http://www.w3.org/2000/svg"
 width="900.000000pt" height="900.000000pt" viewBox="0 0 900.000000 900.000000"
 preserveAspectRatio="xMidYMid meet">
<metadata>
Created by potrace 1.11, written by Peter Selinger 2001-2013
</metadata>
<g transform="translate(0.000000,900.000000) scale(0.100000,-0.100000)"
fill="#000000" stroke="none">
<path d="M2520 6740 c-889 -93 -1614 -642 -1935 -1464 -103 -262 -149 -520
-149 -826 0 -288 33 -491 125 -756 113 -327 287 -602 543 -860 445 -446 997
-675 1626 -674 254 0 438 26 668 96 372 113 727 331 989 607 l81 86 99 -100
c188 -193 377 -330 624 -453 326 -163 645 -236 1022 -236 274 0 474 33 727
117 497 165 932 508 1215 958 128 202 245 489 295 720 68 316 68 690 -1 999
-52 236 -183 547 -316 751 -489 747 -1371 1146 -2256 1019 -494 -71 -952 -304
-1305 -664 l-103 -105 -132 130 c-139 138 -261 234 -417 330 -248 153 -557
264 -860 310 -127 19 -423 27 -540 15z m5097 -1242 c61 -58 157 -175 228 -278
61 -89 154 -275 176 -351 7 -24 16 -48 20 -54 12 -18 59 -232 74 -337 26 -193
8 -476 -44 -672 -57 -215 -177 -454 -304 -609 l-23 -27 -87 55 c-47 30 -90 55
-94 55 -5 0 -18 8 -30 18 l-22 17 30 35 c179 207 291 517 303 835 12 324 -65
635 -216 880 -87 142 -135 198 -253 299 -16 14 -25 26 -19 26 9 0 80 51 144
103 22 18 64 47 68 47 2 0 24 -19 49 -42z m-6497 -318 l0 -110 135 0 135 0 0
110 0 110 30 0 30 0 0 -265 0 -265 -30 0 -30 0 0 125 0 125 -135 0 -135 0 0
-125 0 -125 -30 0 -30 0 0 265 0 265 30 0 30 0 0 -110z m6051 -70 c143 -144
254 -362 304 -595 27 -122 30 -393 6 -515 -24 -124 -46 -198 -88 -290 -37 -83
-130 -230 -145 -230 -14 0 -56 23 -152 83 l-86 55 41 48 c51 61 121 206 148
304 102 378 -23 809 -296 1017 l-34 26 23 18 c104 82 194 149 201 149 5 0 40
-32 78 -70z m-5303 28 c89 -55 108 -232 35 -319 -76 -90 -244 -75 -297 26 -16
31 -21 58 -21 120 0 88 17 131 66 167 55 42 155 44 217 6z m449 22 c15 -6 37
-22 49 -36 l21 -25 37 25 c59 39 102 50 147 37 62 -19 69 -43 69 -236 l0 -165
-30 0 -30 0 0 154 c0 85 -3 162 -6 171 -17 42 -97 36 -154 -11 l-30 -26 0
-144 0 -144 -29 0 -30 0 -3 160 c-3 135 -6 162 -20 177 -27 26 -83 20 -132
-14 l-41 -29 -3 -147 -3 -147 -29 0 -30 0 0 200 0 200 30 0 c25 0 30 -4 30
-25 0 -29 7 -31 39 -8 25 17 87 42 108 43 6 0 24 -5 40 -10z m713 -15 c48 -25
74 -72 78 -142 l4 -63 -145 0 -145 0 8 -35 c21 -94 99 -121 206 -71 50 23 51
23 63 3 15 -24 11 -28 -67 -57 -97 -37 -172 -23 -226 40 -69 82 -54 251 27
310 55 40 137 46 197 15z m978 -408 l3 -158 40 35 c108 92 293 65 351 -51 22
-46 23 -59 26 -310 l3 -263 -55 0 -56 0 -1 213 c0 251 -6 299 -42 335 -23 22
-36 26 -84 27 -71 0 -130 -28 -158 -76 -18 -31 -21 -57 -25 -264 l-5 -230 -55
0 -55 0 -3 440 c-1 242 0 446 3 453 3 9 21 12 57 10 l53 -3 3 -158z m2751 -69
c69 -121 111 -277 111 -407 0 -120 -40 -277 -96 -377 -55 -97 -48 -91 -86 -71
-90 47 -163 96 -161 109 1 7 18 54 39 103 34 81 38 100 42 200 6 170 -33 300
-127 419 l-39 50 56 40 c54 39 68 49 114 88 19 16 21 15 68 -41 26 -32 62 -83
79 -113z m-3109 72 l0 -90 55 0 55 0 0 -45 0 -45 -55 0 -55 0 0 -222 c0 -123
4 -229 9 -237 6 -8 28 -15 53 -17 l43 -2 3 -45 3 -45 -53 -7 c-75 -9 -128 10
-150 55 -16 30 -18 67 -18 278 l0 242 -45 0 -45 0 0 45 0 45 45 0 45 0 0 90 0
90 55 0 55 0 0 -90z m2409 -96 c12 -54 9 -77 -8 -58 -11 12 -31 96 -25 106 12
19 22 5 33 -48z m-2915 12 c63 -15 98 -36 130 -80 19 -25 21 -45 26 -264 l5
-237 33 -3 c30 -3 32 -6 32 -42 0 -43 -10 -50 -72 -50 -30 0 -46 7 -69 29 -16
16 -29 37 -29 45 0 23 -13 20 -39 -8 -32 -34 -115 -67 -183 -73 -191 -18 -300
202 -164 333 49 47 85 59 241 79 122 15 135 24 135 87 0 71 -73 108 -186 95
-53 -6 -91 -36 -102 -81 -8 -29 -12 -31 -60 -34 -50 -3 -52 -2 -52 23 0 34 26
94 53 123 60 64 178 87 301 58z m-687 -24 c97 -50 153 -154 153 -283 l0 -59
-236 0 -237 0 6 -51 c13 -106 76 -169 170 -169 79 0 141 38 167 101 12 27 16
29 66 29 59 0 61 -3 39 -56 -55 -133 -211 -203 -357 -160 -72 21 -147 87 -179
158 -21 46 -24 68 -24 168 0 110 1 118 33 182 37 75 92 129 156 152 60 23 188
16 243 -12z m2546 8 c116 -43 177 -150 177 -306 l0 -44 -236 0 -237 0 5 -49
c10 -98 61 -159 141 -168 93 -11 157 20 191 92 16 34 19 35 71 35 30 0 55 -4
55 -9 0 -18 -30 -78 -58 -117 -65 -89 -219 -128 -332 -85 -64 24 -130 84 -159
145 -44 90 -45 248 -2 348 33 77 106 146 179 168 52 16 149 11 205 -10z m677
-37 l0 -58 -50 -1 c-62 -2 -108 -30 -138 -82 -21 -38 -22 -51 -22 -256 l0
-216 -60 0 -60 0 0 330 0 330 55 0 55 0 0 -45 c0 -25 2 -45 5 -45 3 0 19 15
35 34 39 43 85 65 138 66 l42 0 0 -57z m-4454 -178 c30 -121 56 -231 60 -245
9 -38 15 -18 79 238 l57 232 63 0 63 0 58 -237 c31 -131 60 -242 64 -246 4 -5
15 20 24 55 10 35 38 144 65 243 l47 180 56 3 57 3 -20 -68 c-10 -37 -53 -186
-95 -330 l-77 -263 -57 0 -57 0 -64 245 c-35 134 -67 241 -71 237 -4 -4 -33
-113 -66 -242 l-58 -235 -59 0 -58 0 -93 325 c-51 179 -94 326 -94 328 0 2 28
2 62 0 l61 -3 53 -220z m5138 203 c-30 -51 -67 -98 -74 -93 -12 8 50 105 67
105 9 0 11 -5 7 -12z m-516 -159 c23 -15 29 -29 11 -29 -16 0 -99 60 -99 71 0
10 23 -1 88 -42z m341 31 c82 -24 151 -100 167 -184 17 -92 -44 -208 -130
-247 -54 -24 -142 -24 -198 0 -79 34 -139 125 -138 212 2 146 158 260 299 219z
m352 -134 c-1 -3 -3 -6 -6 -7 -2 0 -27 -7 -55 -14 -27 -7 -52 -9 -55 -5 -8 12
4 17 55 25 25 4 47 9 49 11 5 5 13 -2 12 -10z m-715 -155 c-6 -9 -84 -31 -110
-31 -32 0 -15 17 27 27 55 14 90 15 83 4z m662 -160 c6 -18 -14 -12 -62 17
-66 39 -60 62 6 23 29 -16 54 -35 56 -40z m-532 -57 c-9 -13 -24 -36 -33 -51
-9 -16 -18 -30 -19 -32 -2 -1 -7 0 -13 3 -7 4 3 28 25 61 20 30 41 52 46 49 5
-3 2 -16 -6 -30z m260 -75 c7 -30 13 -55 14 -56 0 -2 -6 -3 -14 -3 -9 0 -18
19 -25 50 -14 64 -14 73 1 68 6 -2 17 -29 24 -59z m-1596 -10 c0 -27 -3 -30
-27 -27 -22 2 -29 9 -31 31 -3 24 0 27 27 27 28 0 31 -3 31 -31z m-1206 -9
c60 -19 65 -23 56 -40 -6 -11 -12 -20 -13 -20 -1 0 -24 7 -51 15 -27 8 -73 15
-103 15 -44 0 -58 -5 -78 -25 -56 -55 -19 -110 100 -150 138 -46 175 -81 175
-166 0 -33 -6 -47 -33 -74 -62 -62 -165 -68 -282 -16 -41 18 -45 23 -35 40 10
20 11 20 58 -2 34 -15 67 -21 120 -22 69 0 75 2 99 29 19 23 24 36 19 60 -8
42 -43 68 -137 101 -106 36 -141 61 -158 111 -13 37 -12 44 5 80 23 47 88 84
150 84 23 0 72 -9 108 -20z m946 -55 l0 -55 55 0 c48 0 55 -2 55 -20 0 -18 -7
-20 -55 -20 l-55 0 0 -134 c0 -110 3 -137 16 -151 9 -8 24 -13 33 -11 57 17
68 17 75 0 8 -22 -7 -32 -62 -40 -53 -8 -89 7 -102 42 -6 14 -10 86 -10 160
l0 134 -25 0 c-18 0 -25 5 -25 20 0 15 7 20 25 20 23 0 25 3 25 49 0 49 4 54
43 60 4 0 7 -24 7 -54z m-700 -5 l0 -50 55 0 c48 0 55 -2 55 -20 0 -18 -7 -20
-55 -20 l-55 0 0 -139 c0 -160 3 -167 74 -157 35 6 45 4 50 -9 7 -19 -32 -37
-87 -38 -31 -1 -44 4 -63 26 -23 27 -24 34 -24 173 l0 144 -25 0 c-18 0 -25 5
-25 20 0 15 7 20 25 20 23 0 25 4 25 43 0 48 5 57 32 57 15 0 18 -8 18 -50z
m445 -54 c56 -24 65 -55 65 -221 l0 -145 -25 0 c-20 0 -25 5 -25 25 l0 25 -41
-27 c-29 -19 -57 -28 -100 -31 -56 -4 -60 -3 -94 31 -30 30 -35 42 -35 80 0
89 70 134 178 116 88 -14 92 -13 92 20 0 87 -40 110 -149 87 -76 -16 -91 -15
-91 9 0 8 23 19 63 28 81 20 120 20 162 3z m895 -8 c56 -38 72 -69 78 -147 8
-120 -30 -187 -121 -212 -89 -24 -171 14 -208 96 -32 69 -19 186 26 235 48 53
166 68 225 28z m467 7 c33 -23 43 -76 43 -227 l0 -138 -30 0 -30 0 0 152 c0
127 -3 154 -17 170 -23 26 -79 22 -138 -10 l-50 -27 -3 -143 -3 -142 -24 0
-25 0 0 185 0 185 25 0 c20 0 25 -5 25 -23 l0 -24 56 29 c64 32 136 37 171 13z
m-847 -180 l0 -185 -25 0 -25 0 0 185 0 185 25 0 25 0 0 -185z"/>
<path d="M1725 5113 c-75 -19 -109 -145 -66 -240 23 -49 45 -63 101 -63 51 0
93 21 108 54 34 74 19 192 -28 228 -27 20 -82 30 -115 21z"/>
<path d="M2893 5110 c-26 -10 -50 -45 -63 -89 l-9 -31 115 0 c109 0 114 1 114
21 0 34 -29 85 -56 98 -29 13 -70 13 -101 1z"/>
<path d="M3120 4305 c-25 -7 -79 -18 -120 -25 -58 -10 -80 -19 -102 -41 -30
-29 -38 -82 -18 -120 35 -64 176 -65 251 -2 41 35 59 79 59 148 0 61 1 60 -70
40z"/>
<path d="M2272 4560 c-43 -10 -89 -54 -113 -105 -36 -78 -41 -75 160 -75 l179
0 -10 43 c-19 87 -63 130 -143 140 -22 3 -55 2 -73 -3z"/>
<path d="M4844 4560 c-18 -4 -45 -17 -62 -29 -33 -23 -72 -94 -72 -129 0 -22
2 -22 175 -22 200 0 194 -4 154 91 -32 73 -110 109 -195 89z"/>
<path d="M6290 4391 c0 -6 4 -13 10 -16 6 -3 7 1 4 9 -7 18 -14 21 -14 7z"/>
<path d="M3925 3585 c-33 -33 -33 -78 1 -112 22 -22 32 -25 73 -21 27 3 65 15
85 27 33 21 36 26 36 71 0 45 -1 48 -31 54 -17 3 -56 6 -86 6 -44 0 -58 -5
-78 -25z"/>
<path d="M4826 3728 c-25 -25 -34 -45 -39 -83 -12 -96 19 -167 82 -186 77 -23
144 22 157 106 10 69 -4 125 -41 162 -28 28 -40 33 -80 33 -40 0 -52 -5 -79
-32z"/>
</g>
</svg>
