<?xml version="1.0" encoding="UTF-8" ?>
<!DOCTYPE svg PUBLIC "-//W3C//DTD SVG 1.1//EN" "http://www.w3.org/Graphics/SVG/1.1/DTD/svg11.dtd">
<svg width="400pt" height="348pt" viewBox="0 0 400 348" version="1.1" xmlns="http://www.w3.org/2000/svg">
<g id="#545454fe">
<path fill="#545454" opacity="1.00" d=" M 13.03 9.02 C 16.70 6.17 21.62 7.17 25.93 6.99 C 144.28 7.03 262.64 7.00 380.99 7.01 C 384.86 6.80 390.03 8.92 390.69 12.98 L 390.36 12.62 C 388.12 9.78 384.80 7.73 381.08 8.02 C 262.40 7.97 143.73 8.03 25.05 7.99 C 21.23 8.11 16.98 7.40 13.62 9.67 C 10.91 11.42 9.95 14.84 10.01 17.91 C 9.98 120.94 10.02 223.97 9.99 327.00 C 9.93 330.16 10.39 333.76 13.00 335.89 C 16.39 338.68 21.00 337.90 25.04 338.01 C 128.04 337.98 231.04 338.01 334.04 338.00 C 351.33 338.13 368.63 337.73 385.92 338.22 C 381.38 339.41 376.66 338.93 372.03 339.00 C 254.68 338.99 137.34 338.99 19.99 339.00 C 13.90 339.63 8.38 334.12 9.01 328.03 C 9.00 224.70 9.02 121.37 9.00 18.04 C 8.81 14.60 10.17 11.05 13.03 9.02 Z" />
<path fill="#545454" opacity="1.00" d=" M 391.31 14.96 C 392.55 17.31 391.84 20.38 392.01 23.01 C 391.98 124.67 391.99 226.34 392.00 328.00 C 392.18 330.72 391.26 333.33 389.48 335.38 C 390.26 332.66 391.07 329.92 391.00 327.06 C 390.99 227.04 391.00 127.02 391.00 26.99 C 390.91 22.98 390.93 18.96 391.31 14.96 Z" />
</g>
<g id="#ffffffff">
<path fill="#ffffff" opacity="1.00" d=" M 13.62 9.67 C 16.98 7.40 21.23 8.11 25.05 7.99 C 143.73 8.03 262.40 7.97 381.08 8.02 C 384.80 7.73 388.12 9.78 390.36 12.62 L 390.69 12.98 C 390.85 13.48 391.15 14.47 391.31 14.96 C 390.93 18.96 390.91 22.98 391.00 26.99 C 391.00 127.02 390.99 227.04 391.00 327.06 C 391.07 329.92 390.26 332.66 389.48 335.38 L 389.41 335.66 L 388.42 335.37 L 388.52 336.13 C 388.10 336.46 387.26 337.13 386.84 337.46 C 386.47 337.39 385.73 337.25 385.36 337.19 C 385.50 337.44 385.78 337.96 385.92 338.22 C 368.63 337.73 351.33 338.13 334.04 338.00 C 231.04 338.01 128.04 337.98 25.04 338.01 C 21.00 337.90 16.39 338.68 13.00 335.89 C 10.39 333.76 9.93 330.16 9.99 327.00 C 10.02 223.97 9.98 120.94 10.01 17.91 C 9.95 14.84 10.91 11.42 13.62 9.67 M 31.77 36.38 C 28.93 33.60 26.11 30.78 23.29 27.96 C 23.29 29.87 23.30 31.78 23.30 33.70 C 26.27 36.54 29.29 39.34 32.19 42.26 C 29.23 42.29 26.27 42.30 23.30 42.30 C 23.30 43.87 23.29 45.43 23.29 47.00 C 30.43 47.00 37.57 47.00 44.71 47.00 C 44.71 45.43 44.70 43.86 44.70 42.29 C 42.45 42.30 40.21 42.30 37.97 42.31 C 37.01 41.37 36.05 40.43 35.09 39.49 C 38.29 37.42 41.48 35.33 44.67 33.25 C 44.69 31.25 44.71 29.26 44.74 27.26 C 40.43 30.32 36.09 33.34 31.77 36.38 M 23.00 50.76 C 23.00 52.25 23.00 53.74 23.00 55.24 C 27.79 55.24 32.58 55.22 37.38 55.28 C 32.61 58.31 27.80 61.25 23.00 64.22 C 23.00 65.81 23.00 67.40 23.00 69.00 C 30.14 69.00 37.28 69.00 44.42 69.00 C 44.43 67.52 44.44 66.04 44.45 64.56 C 39.60 64.58 34.75 64.59 29.90 64.53 C 34.69 61.51 39.52 58.55 44.37 55.63 C 44.40 54.01 44.42 52.38 44.45 50.76 C 37.30 50.76 30.15 50.76 23.00 50.76 M 23.02 73.29 C 23.01 74.86 23.00 76.43 22.99 78.00 C 30.12 78.00 37.25 78.00 44.38 78.00 C 44.43 76.45 44.48 74.90 44.54 73.35 C 37.37 73.24 30.19 73.32 23.02 73.29 M 40.58 79.76 C 40.58 83.28 40.57 86.79 40.53 90.31 C 34.69 90.29 28.85 90.30 23.01 90.29 C 23.00 91.86 23.00 93.43 22.99 95.00 C 30.14 95.00 37.28 95.00 44.42 95.00 C 44.43 89.92 44.43 84.84 44.43 79.76 C 43.47 79.76 41.54 79.76 40.58 79.76 M 34.55 99.28 C 34.57 102.24 34.57 105.21 34.58 108.18 C 35.49 108.26 37.32 108.41 38.24 108.49 C 38.24 105.43 38.24 102.37 38.24 99.31 C 37.32 99.30 35.47 99.28 34.55 99.28 M 23.25 115.23 C 22.34 119.42 22.84 123.75 22.78 128.00 C 29.94 128.00 37.10 128.00 44.26 128.00 C 44.23 126.42 44.21 124.84 44.19 123.27 C 41.63 123.29 39.08 123.30 36.52 123.32 C 36.38 120.29 36.79 117.13 35.74 114.24 C 33.50 109.08 24.59 109.68 23.25 115.23 M 22.77 129.99 C 22.76 135.78 22.77 141.56 22.74 147.35 C 24.06 147.40 25.38 147.45 26.70 147.51 C 26.71 145.42 26.71 143.33 26.71 141.24 C 32.55 141.24 38.39 141.24 44.23 141.23 C 44.23 139.68 44.24 138.12 44.24 136.57 C 38.38 136.57 32.52 136.61 26.67 136.50 C 26.69 134.34 26.70 132.17 26.73 130.01 C 25.40 130.00 24.08 130.00 22.77 129.99 M 182.81 146.81 C 182.81 158.21 182.81 169.60 182.81 181.00 C 184.96 181.00 187.12 181.00 189.27 180.99 C 189.19 180.26 189.03 178.80 188.95 178.07 C 192.61 181.76 199.01 182.78 203.15 179.31 C 207.52 175.63 208.02 169.19 206.90 163.95 C 205.91 159.39 201.86 155.31 196.97 155.61 C 193.94 155.39 191.47 157.28 189.31 159.12 C 189.37 155.01 189.34 150.91 189.35 146.80 C 187.17 146.81 184.99 146.81 182.81 146.81 M 257.00 146.81 C 257.00 150.89 256.99 154.96 257.02 159.03 C 253.53 154.97 246.92 154.38 242.88 157.94 C 237.12 163.06 237.19 173.18 242.42 178.64 C 246.51 182.67 253.71 182.23 257.49 177.96 C 257.46 178.72 257.40 180.24 257.37 181.00 C 259.44 181.00 261.52 181.00 263.60 181.00 C 263.60 169.60 263.60 158.20 263.60 146.80 C 261.40 146.81 259.20 146.81 257.00 146.81 M 287.00 146.81 C 287.00 150.89 286.99 154.96 287.02 159.04 C 283.55 154.99 276.99 154.38 272.94 157.89 C 267.14 162.97 267.18 173.06 272.34 178.57 C 276.42 182.67 283.68 182.26 287.49 177.97 C 287.46 178.73 287.40 180.24 287.37 181.00 C 289.44 181.00 291.52 181.00 293.60 181.00 C 293.60 169.60 293.60 158.20 293.60 146.80 C 291.40 146.81 289.20 146.81 287.00 146.81 M 343.00 146.81 C 343.00 150.89 342.99 154.96 343.01 159.03 C 339.54 154.98 332.96 154.38 328.91 157.91 C 323.12 163.03 323.18 173.17 328.42 178.64 C 332.52 182.67 339.71 182.23 343.50 177.96 C 343.46 178.72 343.40 180.24 343.36 181.00 C 345.44 181.00 347.52 181.00 349.60 181.00 C 349.60 169.60 349.60 158.20 349.60 146.80 C 347.40 146.81 345.20 146.81 343.00 146.81 M 167.62 148.78 C 167.61 151.30 167.61 153.82 167.61 156.33 C 166.35 156.34 165.09 156.35 163.83 156.36 C 163.90 157.80 163.97 159.24 164.05 160.68 C 164.93 160.66 166.69 160.63 167.57 160.61 C 167.87 166.37 167.10 172.22 167.99 177.93 C 169.86 182.16 175.48 181.04 179.21 181.17 C 179.21 179.49 179.21 177.81 179.22 176.14 C 177.60 175.98 175.98 175.83 174.37 175.65 C 174.13 170.67 174.22 165.68 174.21 160.69 C 175.90 160.65 177.60 160.61 179.29 160.57 C 179.26 159.51 179.20 157.40 179.17 156.34 C 177.53 156.35 175.88 156.36 174.24 156.37 C 174.22 153.84 174.21 151.32 174.20 148.79 C 172.00 148.79 169.81 148.79 167.62 148.78 M 54.42 156.62 C 50.23 158.02 48.43 164.12 51.64 167.32 C 55.36 170.43 60.80 169.72 64.77 172.28 C 67.38 174.55 63.43 177.62 60.96 177.03 C 58.11 177.45 56.59 174.89 55.35 172.81 C 53.30 172.80 51.24 172.80 49.19 172.82 C 50.05 175.33 50.79 178.30 53.38 179.61 C 57.61 181.96 62.94 181.90 67.45 180.43 C 72.09 178.92 74.41 171.92 70.50 168.53 C 67.25 166.01 62.91 166.03 59.15 164.70 C 57.76 164.42 56.83 163.30 56.34 162.03 C 58.53 158.44 64.42 159.63 65.86 163.37 C 67.94 163.38 70.01 163.37 72.09 163.35 C 71.02 160.85 69.99 157.93 67.26 156.79 C 63.25 155.07 58.50 155.21 54.42 156.62 M 76.76 156.33 C 76.82 164.55 76.78 172.78 76.79 181.00 C 78.99 181.00 81.19 181.00 83.39 181.00 C 83.56 175.52 82.99 169.99 83.65 164.54 C 84.22 160.41 91.74 159.34 92.12 164.07 C 92.69 169.68 92.21 175.35 92.34 180.99 C 94.56 180.99 96.78 181.00 99.00 181.00 C 99.17 175.37 98.58 169.68 99.33 164.08 C 99.98 160.04 107.37 159.69 107.79 163.98 C 108.31 169.63 107.87 175.33 108.00 181.00 C 110.22 181.00 112.43 181.00 114.65 180.99 C 114.38 174.26 115.24 167.42 114.17 160.75 C 111.92 154.01 102.12 154.21 98.11 159.23 C 96.30 157.16 93.91 155.33 90.98 155.56 C 87.82 155.25 85.34 157.44 83.23 159.46 C 83.19 158.73 83.11 157.26 83.06 156.53 C 80.97 156.30 78.86 156.35 76.76 156.33 M 118.98 163.60 C 121.16 163.62 123.35 163.63 125.53 163.61 C 126.46 162.57 127.03 161.05 128.32 160.39 C 130.23 159.95 132.22 160.18 134.17 160.17 C 134.58 161.69 135.07 163.24 134.92 164.85 C 130.79 167.27 125.50 165.99 121.40 168.53 C 117.20 171.20 117.70 178.63 122.32 180.62 C 126.48 182.32 131.27 181.47 135.04 179.18 C 136.42 181.98 139.88 180.72 142.35 181.09 C 141.03 174.02 142.25 166.78 141.28 159.72 C 138.40 155.00 131.86 155.27 127.05 155.92 C 122.93 156.41 119.93 159.67 118.98 163.60 M 147.61 156.00 C 147.61 164.33 147.61 172.67 147.62 181.00 C 149.82 181.00 152.02 181.00 154.22 181.00 C 154.43 175.91 153.60 170.69 154.80 165.70 C 155.88 161.88 160.18 161.59 163.47 161.50 C 163.37 159.43 163.28 157.36 163.19 155.29 C 159.52 155.50 156.22 157.16 153.99 160.09 C 153.99 158.72 153.99 157.36 153.99 156.00 C 151.86 156.00 149.74 156.00 147.61 156.00 M 218.03 157.07 C 210.15 161.05 209.39 173.54 216.12 178.94 C 220.30 181.98 226.29 182.22 230.80 179.76 C 233.30 178.45 234.47 175.74 235.83 173.43 C 233.94 173.41 232.05 173.40 230.16 173.42 C 228.15 175.89 224.84 177.64 221.67 176.23 C 219.02 175.52 218.47 172.56 217.81 170.30 C 223.99 170.07 230.18 170.24 236.36 170.18 C 236.10 166.12 235.33 161.70 232.27 158.75 C 228.63 155.05 222.47 154.68 218.03 157.07 M 304.15 157.02 C 296.17 160.92 295.35 173.52 302.12 178.94 C 306.30 181.98 312.29 182.22 316.80 179.76 C 319.30 178.45 320.47 175.74 321.83 173.43 C 319.94 173.41 318.05 173.40 316.17 173.42 C 314.16 175.87 310.88 177.63 307.72 176.25 C 305.04 175.56 304.47 172.57 303.81 170.30 C 309.99 170.07 316.17 170.24 322.36 170.18 C 322.10 166.34 321.44 162.22 318.76 159.26 C 315.23 155.17 308.78 154.56 304.15 157.02 M 376.01 205.00 C 376.01 226.00 376.01 247.00 376.01 267.99 C 380.00 268.00 384.00 268.00 387.99 267.99 C 387.99 247.00 387.98 226.01 388.00 205.01 C 384.00 205.01 380.00 205.01 376.01 205.00 M 71.00 311.00 C 71.00 317.33 71.00 323.67 71.00 330.00 C 121.67 330.00 172.33 330.00 223.00 330.00 C 223.00 323.67 223.00 317.33 223.00 311.00 C 172.33 311.00 121.67 311.00 71.00 311.00 M 229.00 311.00 C 229.00 317.00 229.00 323.00 229.00 329.00 C 259.67 329.00 290.33 329.00 321.00 329.00 C 321.00 323.00 321.00 317.00 321.00 311.00 C 290.33 311.00 259.67 311.00 229.00 311.00 Z" />
<path fill="#ffffff" opacity="1.00" d=" M 27.17 116.26 C 28.42 114.74 31.36 114.68 32.35 116.54 C 32.88 118.74 32.77 121.04 32.89 123.29 C 30.68 123.29 28.47 123.28 26.26 123.27 C 26.47 120.94 26.29 118.48 27.17 116.26 Z" />
<path fill="#ffffff" opacity="1.00" d=" M 192.39 161.32 C 195.36 159.34 199.37 161.52 200.26 164.73 C 201.42 168.59 201.20 174.15 197.12 176.19 C 194.18 177.76 190.57 175.53 189.74 172.53 C 188.64 168.80 188.78 163.66 192.39 161.32 Z" />
<path fill="#ffffff" opacity="1.00" d=" M 217.73 165.82 C 218.68 162.71 221.44 159.81 224.98 160.69 C 227.83 160.87 228.77 163.73 229.71 165.94 C 225.72 166.03 221.71 166.09 217.73 165.82 Z" />
<path fill="#ffffff" opacity="1.00" d=" M 248.27 161.40 C 251.54 159.31 256.18 161.34 256.92 165.13 C 258.43 169.55 256.86 176.82 251.09 176.69 C 244.16 175.86 243.10 165.01 248.27 161.40 Z" />
<path fill="#ffffff" opacity="1.00" d=" M 278.28 161.40 C 281.56 159.30 286.23 161.37 286.93 165.18 C 288.42 169.61 286.83 176.85 281.07 176.69 C 274.16 175.83 273.11 165.01 278.28 161.40 Z" />
<path fill="#ffffff" opacity="1.00" d=" M 303.72 165.82 C 304.68 162.72 307.41 159.81 310.95 160.68 C 313.82 160.86 314.77 163.72 315.71 165.93 C 311.71 166.03 307.71 166.09 303.72 165.82 Z" />
<path fill="#ffffff" opacity="1.00" d=" M 334.29 161.39 C 337.57 159.31 342.21 161.37 342.93 165.16 C 344.45 169.62 342.79 176.94 336.97 176.69 C 330.13 175.69 329.13 164.98 334.29 161.39 Z" />
<path fill="#ffffff" opacity="1.00" d=" M 127.04 171.01 C 129.63 169.95 132.47 169.76 135.19 169.15 C 135.00 170.96 135.02 172.83 134.50 174.59 C 133.22 177.40 129.63 177.33 127.07 176.78 C 124.67 175.87 124.62 171.94 127.04 171.01 Z" />
</g>
<g id="#969696ff">
<path fill="#969696" opacity="1.00" d=" M 31.77 36.38 C 36.09 33.34 40.43 30.32 44.74 27.26 C 44.71 29.26 44.69 31.25 44.67 33.25 C 41.48 35.33 38.29 37.42 35.09 39.49 C 36.05 40.43 37.01 41.37 37.97 42.31 C 40.21 42.30 42.45 42.30 44.70 42.29 C 44.70 43.86 44.71 45.43 44.71 47.00 C 37.57 47.00 30.43 47.00 23.29 47.00 C 23.29 45.43 23.30 43.87 23.30 42.30 C 26.27 42.30 29.23 42.29 32.19 42.26 C 29.29 39.34 26.27 36.54 23.30 33.70 C 23.30 31.78 23.29 29.87 23.29 27.96 C 26.11 30.78 28.93 33.60 31.77 36.38 Z" />
<path fill="#969696" opacity="1.00" d=" M 23.00 50.76 C 30.15 50.76 37.30 50.76 44.45 50.76 C 44.42 52.38 44.40 54.01 44.37 55.63 C 39.52 58.55 34.69 61.51 29.90 64.53 C 34.75 64.59 39.60 64.58 44.45 64.56 C 44.44 66.04 44.43 67.52 44.42 69.00 C 37.28 69.00 30.14 69.00 23.00 69.00 C 23.00 67.40 23.00 65.81 23.00 64.22 C 27.80 61.25 32.61 58.31 37.38 55.28 C 32.58 55.22 27.79 55.24 23.00 55.24 C 23.00 53.74 23.00 52.25 23.00 50.76 Z" />
<path fill="#969696" opacity="1.00" d=" M 23.02 73.29 C 30.19 73.32 37.37 73.24 44.54 73.35 C 44.48 74.90 44.43 76.45 44.38 78.00 C 37.25 78.00 30.12 78.00 22.99 78.00 C 23.00 76.43 23.01 74.86 23.02 73.29 Z" />
<path fill="#969696" opacity="1.00" d=" M 40.58 79.76 C 41.54 79.76 43.47 79.76 44.43 79.76 C 44.43 84.84 44.43 89.92 44.42 95.00 C 37.28 95.00 30.14 95.00 22.99 95.00 C 23.00 93.43 23.00 91.86 23.01 90.29 C 28.85 90.30 34.69 90.29 40.53 90.31 C 40.57 86.79 40.58 83.28 40.58 79.76 Z" />
<path fill="#969696" opacity="1.00" d=" M 34.55 99.28 C 35.47 99.28 37.32 99.30 38.24 99.31 C 38.24 102.37 38.24 105.43 38.24 108.49 C 37.32 108.41 35.49 108.26 34.58 108.18 C 34.57 105.21 34.57 102.24 34.55 99.28 Z" />
<path fill="#969696" opacity="1.00" d=" M 23.25 115.23 C 24.59 109.68 33.50 109.08 35.74 114.24 C 36.79 117.13 36.38 120.29 36.52 123.32 C 39.08 123.30 41.63 123.29 44.19 123.27 C 44.21 124.84 44.23 126.42 44.26 128.00 C 37.10 128.00 29.94 128.00 22.78 128.00 C 22.84 123.75 22.34 119.42 23.25 115.23 M 27.17 116.26 C 26.29 118.48 26.47 120.94 26.26 123.27 C 28.47 123.28 30.68 123.29 32.89 123.29 C 32.77 121.04 32.88 118.74 32.35 116.54 C 31.36 114.68 28.42 114.74 27.17 116.26 Z" />
<path fill="#969696" opacity="1.00" d=" M 22.77 129.99 C 24.08 130.00 25.40 130.00 26.73 130.01 C 26.70 132.17 26.69 134.34 26.67 136.50 C 32.52 136.61 38.38 136.57 44.24 136.57 C 44.24 138.12 44.23 139.68 44.23 141.23 C 38.39 141.24 32.55 141.24 26.71 141.24 C 26.71 143.33 26.71 145.42 26.70 147.51 C 25.38 147.45 24.06 147.40 22.74 147.35 C 22.77 141.56 22.76 135.78 22.77 129.99 Z" />
<path fill="#969696" opacity="1.00" d=" M 376.01 205.00 C 380.00 205.01 384.00 205.01 388.00 205.01 C 387.98 226.01 387.99 247.00 387.99 267.99 C 384.00 268.00 380.00 268.00 376.01 267.99 C 376.01 247.00 376.01 226.00 376.01 205.00 Z" />
</g>
<g id="#121212ff">
<path fill="#121212" opacity="1.00" d=" M 182.81 146.81 C 184.99 146.81 187.17 146.81 189.35 146.80 C 189.34 150.91 189.37 155.01 189.31 159.12 C 191.47 157.28 193.94 155.39 196.97 155.61 C 201.86 155.31 205.91 159.39 206.90 163.95 C 208.02 169.19 207.52 175.63 203.15 179.31 C 199.01 182.78 192.61 181.76 188.95 178.07 C 189.03 178.80 189.19 180.26 189.27 180.99 C 187.12 181.00 184.96 181.00 182.81 181.00 C 182.81 169.60 182.81 158.21 182.81 146.81 M 192.39 161.32 C 188.78 163.66 188.64 168.80 189.74 172.53 C 190.57 175.53 194.18 177.76 197.12 176.19 C 201.20 174.15 201.42 168.59 200.26 164.73 C 199.37 161.52 195.36 159.34 192.39 161.32 Z" />
<path fill="#121212" opacity="1.00" d=" M 257.00 146.81 C 259.20 146.81 261.40 146.81 263.60 146.80 C 263.60 158.20 263.60 169.60 263.60 181.00 C 261.52 181.00 259.44 181.00 257.37 181.00 C 257.40 180.24 257.46 178.72 257.49 177.96 C 253.71 182.23 246.51 182.67 242.42 178.64 C 237.19 173.18 237.12 163.06 242.88 157.94 C 246.92 154.38 253.53 154.97 257.02 159.03 C 256.99 154.96 257.00 150.89 257.00 146.81 M 248.27 161.40 C 243.10 165.01 244.16 175.86 251.09 176.69 C 256.86 176.82 258.43 169.55 256.92 165.13 C 256.18 161.34 251.54 159.31 248.27 161.40 Z" />
<path fill="#121212" opacity="1.00" d=" M 287.00 146.81 C 289.20 146.81 291.40 146.81 293.60 146.80 C 293.60 158.20 293.60 169.60 293.60 181.00 C 291.52 181.00 289.44 181.00 287.37 181.00 C 287.40 180.24 287.46 178.73 287.49 177.97 C 283.68 182.26 276.42 182.67 272.34 178.57 C 267.18 173.06 267.14 162.97 272.94 157.89 C 276.99 154.38 283.55 154.99 287.02 159.04 C 286.99 154.96 287.00 150.89 287.00 146.81 M 278.28 161.40 C 273.11 165.01 274.16 175.83 281.07 176.69 C 286.83 176.85 288.42 169.61 286.93 165.18 C 286.23 161.37 281.56 159.30 278.28 161.40 Z" />
<path fill="#121212" opacity="1.00" d=" M 343.00 146.81 C 345.20 146.81 347.40 146.81 349.60 146.80 C 349.60 158.20 349.60 169.60 349.60 181.00 C 347.52 181.00 345.44 181.00 343.36 181.00 C 343.40 180.24 343.46 178.72 343.50 177.96 C 339.71 182.23 332.52 182.67 328.42 178.64 C 323.18 173.17 323.12 163.03 328.91 157.91 C 332.96 154.38 339.54 154.98 343.01 159.03 C 342.99 154.96 343.00 150.89 343.00 146.81 M 334.29 161.39 C 329.13 164.98 330.13 175.69 336.97 176.69 C 342.79 176.94 344.45 169.62 342.93 165.16 C 342.21 161.37 337.57 159.31 334.29 161.39 Z" />
<path fill="#121212" opacity="1.00" d=" M 218.03 157.07 C 222.47 154.68 228.63 155.05 232.27 158.75 C 235.33 161.70 236.10 166.12 236.36 170.18 C 230.18 170.24 223.99 170.07 217.81 170.30 C 218.47 172.56 219.02 175.52 221.67 176.23 C 224.84 177.64 228.15 175.89 230.16 173.42 C 232.05 173.40 233.94 173.41 235.83 173.43 C 234.47 175.74 233.30 178.45 230.80 179.76 C 226.29 182.22 220.30 181.98 216.12 178.94 C 209.39 173.54 210.15 161.05 218.03 157.07 M 217.73 165.82 C 221.71 166.09 225.72 166.03 229.71 165.94 C 228.77 163.73 227.83 160.87 224.98 160.69 C 221.44 159.81 218.68 162.71 217.73 165.82 Z" />
<path fill="#121212" opacity="1.00" d=" M 304.15 157.02 C 308.78 154.56 315.23 155.17 318.76 159.26 C 321.44 162.22 322.10 166.34 322.36 170.18 C 316.17 170.24 309.99 170.07 303.81 170.30 C 304.47 172.57 305.04 175.56 307.72 176.25 C 310.88 177.63 314.16 175.87 316.17 173.42 C 318.05 173.40 319.94 173.41 321.83 173.43 C 320.47 175.74 319.30 178.45 316.80 179.76 C 312.29 182.22 306.30 181.98 302.12 178.94 C 295.35 173.52 296.17 160.92 304.15 157.02 M 303.72 165.82 C 307.71 166.09 311.71 166.03 315.71 165.93 C 314.77 163.72 313.82 160.86 310.95 160.68 C 307.41 159.81 304.68 162.72 303.72 165.82 Z" />
</g>
<g id="#9aba2fff">
<path fill="#9aba2f" opacity="1.00" d=" M 167.62 148.78 C 169.81 148.79 172.00 148.79 174.20 148.79 C 174.21 151.32 174.22 153.84 174.24 156.37 C 175.88 156.36 177.53 156.35 179.17 156.34 C 179.20 157.40 179.26 159.51 179.29 160.57 C 177.60 160.61 175.90 160.65 174.21 160.69 C 174.22 165.68 174.13 170.67 174.37 175.65 C 175.98 175.83 177.60 175.98 179.22 176.14 C 179.21 177.81 179.21 179.49 179.21 181.17 C 175.48 181.04 169.86 182.16 167.99 177.93 C 167.10 172.22 167.87 166.37 167.57 160.61 C 166.69 160.63 164.93 160.66 164.05 160.68 C 163.97 159.24 163.90 157.80 163.83 156.36 C 165.09 156.35 166.35 156.34 167.61 156.33 C 167.61 153.82 167.61 151.30 167.62 148.78 Z" />
<path fill="#9aba2f" opacity="1.00" d=" M 54.42 156.62 C 58.50 155.21 63.25 155.07 67.26 156.79 C 69.99 157.93 71.02 160.85 72.09 163.35 C 70.01 163.37 67.94 163.38 65.86 163.37 C 64.42 159.63 58.53 158.44 56.34 162.03 C 56.83 163.30 57.76 164.42 59.15 164.70 C 62.91 166.03 67.25 166.01 70.50 168.53 C 74.41 171.92 72.09 178.92 67.45 180.43 C 62.94 181.90 57.61 181.96 53.38 179.61 C 50.79 178.30 50.05 175.33 49.19 172.82 C 51.24 172.80 53.30 172.80 55.35 172.81 C 56.59 174.89 58.11 177.45 60.96 177.03 C 63.43 177.62 67.38 174.55 64.77 172.28 C 60.80 169.72 55.36 170.43 51.64 167.32 C 48.43 164.12 50.23 158.02 54.42 156.62 Z" />
<path fill="#9aba2f" opacity="1.00" d=" M 76.76 156.33 C 78.86 156.35 80.97 156.30 83.06 156.53 C 83.11 157.26 83.19 158.73 83.23 159.46 C 85.34 157.44 87.82 155.25 90.98 155.56 C 93.91 155.33 96.30 157.16 98.11 159.23 C 102.12 154.21 111.92 154.01 114.17 160.75 C 115.24 167.42 114.38 174.26 114.65 180.99 C 112.43 181.00 110.22 181.00 108.00 181.00 C 107.87 175.33 108.31 169.63 107.79 163.98 C 107.37 159.69 99.98 160.04 99.33 164.08 C 98.58 169.68 99.17 175.37 99.00 181.00 C 96.78 181.00 94.56 180.99 92.34 180.99 C 92.21 175.35 92.69 169.68 92.12 164.07 C 91.74 159.34 84.22 160.41 83.65 164.54 C 82.99 169.99 83.56 175.52 83.39 181.00 C 81.19 181.00 78.99 181.00 76.79 181.00 C 76.78 172.78 76.82 164.55 76.76 156.33 Z" />
<path fill="#9aba2f" opacity="1.00" d=" M 118.98 163.60 C 119.93 159.67 122.93 156.41 127.05 155.92 C 131.86 155.27 138.40 155.00 141.28 159.72 C 142.25 166.78 141.03 174.02 142.35 181.09 C 139.88 180.72 136.42 181.98 135.04 179.18 C 131.27 181.47 126.48 182.32 122.32 180.62 C 117.70 178.63 117.20 171.20 121.40 168.53 C 125.50 165.99 130.79 167.27 134.92 164.85 C 135.07 163.24 134.58 161.69 134.17 160.17 C 132.22 160.18 130.23 159.95 128.32 160.39 C 127.03 161.05 126.46 162.57 125.53 163.61 C 123.35 163.63 121.16 163.62 118.98 163.60 M 127.04 171.01 C 124.62 171.94 124.67 175.87 127.07 176.78 C 129.63 177.33 133.22 177.40 134.50 174.59 C 135.02 172.83 135.00 170.96 135.19 169.15 C 132.47 169.76 129.63 169.95 127.04 171.01 Z" />
<path fill="#9aba2f" opacity="1.00" d=" M 147.61 156.00 C 149.74 156.00 151.86 156.00 153.99 156.00 C 153.99 157.36 153.99 158.72 153.99 160.09 C 156.22 157.16 159.52 155.50 163.19 155.29 C 163.28 157.36 163.37 159.43 163.47 161.50 C 160.18 161.59 155.88 161.88 154.80 165.70 C 153.60 170.69 154.43 175.91 154.22 181.00 C 152.02 181.00 149.82 181.00 147.62 181.00 C 147.61 172.67 147.61 164.33 147.61 156.00 Z" />
<path fill="#9aba2f" opacity="1.00" d=" M 71.00 311.00 C 121.67 311.00 172.33 311.00 223.00 311.00 C 223.00 317.33 223.00 323.67 223.00 330.00 C 172.33 330.00 121.67 330.00 71.00 330.00 C 71.00 323.67 71.00 317.33 71.00 311.00 Z" />
<path fill="#9aba2f" opacity="1.00" d=" M 229.00 311.00 C 259.67 311.00 290.33 311.00 321.00 311.00 C 321.00 317.00 321.00 323.00 321.00 329.00 C 290.33 329.00 259.67 329.00 229.00 329.00 C 229.00 323.00 229.00 317.00 229.00 311.00 Z" />
</g>
</svg>
