<?xml version="1.0" encoding="UTF-8" ?>
<!DOCTYPE svg PUBLIC "-//W3C//DTD SVG 1.1//EN" "http://www.w3.org/Graphics/SVG/1.1/DTD/svg11.dtd">
<svg width="358pt" height="365pt" viewBox="0 0 358 365" version="1.1" xmlns="http://www.w3.org/2000/svg">
<path fill="#383f41" opacity="1.00" d=" M 96.84 4.72 C 101.01 1.01 106.79 0.71 112.08 0.88 C 115.87 1.07 120.37 0.23 123.38 3.15 C 123.30 6.33 121.37 9.02 120.03 11.80 C 114.23 22.70 108.53 33.65 102.83 44.61 C 101.59 46.37 100.73 49.46 98.05 49.10 C 81.80 49.18 65.55 49.08 49.30 49.12 C 49.38 55.08 49.18 61.04 48.94 67.00 C 58.64 67.11 68.35 66.81 78.05 67.09 C 79.91 66.98 81.06 68.57 82.21 69.76 C 98.57 88.88 115.17 107.78 131.49 126.93 C 133.33 126.96 135.16 126.98 137.00 127.00 C 139.01 127.01 141.01 127.01 143.02 127.00 C 143.52 127.00 144.50 127.00 145.00 126.99 C 145.00 135.67 145.00 144.34 145.00 153.01 C 144.51 153.01 143.52 153.01 143.03 153.01 C 138.69 153.00 134.34 153.00 130.00 153.00 C 129.50 153.00 128.50 153.00 128.00 153.00 C 127.99 145.45 128.03 137.89 127.97 130.34 C 110.82 110.60 93.75 90.80 76.66 71.01 C 67.42 70.99 58.18 71.00 48.94 71.00 C 49.00 74.00 49.12 77.00 49.30 80.00 C 48.41 80.01 46.62 80.02 45.73 80.03 C 46.16 80.98 46.58 81.93 47.01 82.88 C 50.17 82.28 54.09 81.69 56.30 84.66 C 60.03 88.50 57.32 95.69 52.02 96.19 C 48.06 97.06 45.29 93.72 43.71 90.59 C 40.76 91.23 37.18 91.75 34.98 89.16 C 32.28 86.76 33.08 83.02 33.83 79.96 C 33.04 79.97 31.46 79.99 30.67 80.01 C 30.80 69.72 30.69 59.43 30.74 49.14 C 23.81 49.08 16.88 49.15 9.94 49.16 C 10.01 45.67 10.01 42.19 9.94 38.70 C 16.57 38.45 23.20 38.81 29.82 38.52 C 33.45 34.51 39.24 35.86 44.02 35.77 C 46.49 35.56 48.50 37.03 50.22 38.60 C 54.53 38.95 59.18 38.46 62.46 35.34 C 74.07 25.30 85.37 14.90 96.84 4.72 M 66.36 40.94 C 65.83 42.60 65.32 44.27 64.84 45.95 C 66.64 45.91 68.45 45.84 70.16 45.21 C 71.60 45.58 73.06 45.89 74.52 46.21 C 75.01 44.90 75.60 43.63 76.19 42.36 C 76.40 43.41 76.82 45.51 77.03 46.56 C 78.60 45.13 79.80 43.36 81.15 41.74 C 80.88 42.95 80.32 45.37 80.04 46.58 C 80.69 45.58 81.97 43.57 82.61 42.57 C 83.58 43.36 84.56 44.14 85.51 44.96 C 84.72 44.72 83.15 44.24 82.37 44.00 L 82.81 46.31 C 84.55 45.96 86.29 45.48 87.65 44.28 C 86.54 43.62 85.42 42.97 84.30 42.32 C 85.02 42.39 86.46 42.53 87.18 42.60 L 87.04 41.13 C 83.96 41.81 79.82 40.06 77.82 43.25 L 77.68 41.36 C 76.21 41.29 74.74 41.20 73.27 41.09 C 73.40 42.57 73.52 44.05 73.64 45.54 C 71.61 43.45 69.66 40.63 66.36 40.94 M 71.91 41.58 C 70.49 44.73 75.25 41.50 71.91 41.58 M 88.87 41.31 C 88.46 42.81 88.07 44.31 87.69 45.82 C 90.74 45.69 93.79 45.39 96.85 45.39 C 97.83 44.06 98.74 42.69 99.83 41.46 C 96.19 41.97 92.52 41.46 88.87 41.31 Z" />
<path fill="#ff8841" opacity="1.00" d=" M 5.00 43.96 C 4.88 41.09 7.52 39.41 9.94 38.70 C 10.01 42.19 10.01 45.67 9.94 49.16 C 7.40 48.68 4.85 46.82 5.00 43.96 Z" />
<path fill="#ffffff" opacity="1.00" d=" M 66.36 40.94 C 69.66 40.63 71.61 43.45 73.64 45.54 C 73.52 44.05 73.40 42.57 73.27 41.09 C 74.74 41.20 76.21 41.29 77.68 41.36 L 77.82 43.25 C 79.82 40.06 83.96 41.81 87.04 41.13 L 87.18 42.60 C 86.46 42.53 85.02 42.39 84.30 42.32 C 85.42 42.97 86.54 43.62 87.65 44.28 C 86.29 45.48 84.55 45.96 82.81 46.31 L 82.37 44.00 C 83.15 44.24 84.72 44.72 85.51 44.96 C 84.56 44.14 83.58 43.36 82.61 42.57 C 81.97 43.57 80.69 45.58 80.04 46.58 C 80.32 45.37 80.88 42.95 81.15 41.74 C 79.80 43.36 78.60 45.13 77.03 46.56 C 76.82 45.51 76.40 43.41 76.19 42.36 C 75.60 43.63 75.01 44.90 74.52 46.21 C 73.06 45.89 71.60 45.58 70.16 45.21 C 68.45 45.84 66.64 45.91 64.84 45.95 C 65.32 44.27 65.83 42.60 66.36 40.94 M 68.14 42.33 C 66.80 42.26 66.28 44.68 67.82 44.75 C 69.16 44.81 69.69 42.39 68.14 42.33 Z" />
<path fill="#ebecec" opacity="1.00" d=" M 71.91 41.58 C 75.25 41.50 70.49 44.73 71.91 41.58 Z" />
<path fill="#ffffff" opacity="1.00" d=" M 88.87 41.31 C 92.52 41.46 96.19 41.97 99.83 41.46 C 98.74 42.69 97.83 44.06 96.85 45.39 C 93.79 45.39 90.74 45.69 87.69 45.82 C 88.07 44.31 88.46 42.81 88.87 41.31 M 90.37 41.80 C 90.09 42.69 89.54 44.45 89.27 45.34 C 92.36 44.63 95.80 44.74 98.44 42.73 C 95.77 42.21 93.04 42.31 90.37 41.80 Z" />
<path fill="#383f41" opacity="1.00" d=" M 68.14 42.33 C 69.69 42.39 69.16 44.81 67.82 44.75 C 66.28 44.68 66.80 42.26 68.14 42.33 Z" />
<path fill="#383f41" opacity="1.00" d=" M 90.37 41.80 C 93.04 42.31 95.77 42.21 98.44 42.73 C 95.80 44.74 92.36 44.63 89.27 45.34 C 89.54 44.45 90.09 42.69 90.37 41.80 Z" />
<path fill="#cbcbcb" opacity="1.00" d=" M 166.00 55.98 C 166.50 55.98 167.51 55.98 168.02 55.98 C 168.02 71.99 168.02 88.00 168.02 104.02 C 167.51 104.02 166.50 104.02 166.00 104.02 C 166.00 88.01 166.00 71.99 166.00 55.98 Z" />
<path fill="#cbcbcb" opacity="1.00" d=" M 182.98 55.98 C 183.49 55.98 184.51 55.98 185.02 55.98 C 185.02 71.99 185.02 88.01 185.02 104.02 C 184.51 104.02 183.49 104.02 182.98 104.02 C 182.98 88.01 182.98 71.99 182.98 55.98 Z" />
<path fill="#cbcbcb" opacity="1.00" d=" M 199.98 55.98 C 200.49 55.98 201.51 55.98 202.02 55.98 C 202.02 71.99 202.02 88.01 202.02 104.02 C 201.51 104.02 200.49 104.02 199.98 104.02 C 199.98 88.01 199.98 71.99 199.98 55.98 Z" />
<path fill="#cbcbcb" opacity="1.00" d=" M 216.98 55.98 C 217.49 55.98 218.51 55.98 219.02 55.98 C 219.02 71.99 219.02 88.01 219.02 104.02 C 218.51 104.02 217.49 104.02 216.98 104.02 C 216.98 88.01 216.98 71.99 216.98 55.98 Z" />
<path fill="#cbcbcb" opacity="1.00" d=" M 233.98 55.98 C 234.49 55.98 235.51 55.98 236.02 55.98 C 236.02 71.99 236.02 88.01 236.02 104.02 C 235.51 104.02 234.49 104.02 233.98 104.02 C 233.98 88.01 233.98 71.99 233.98 55.98 Z" />
<path fill="#cbcbcb" opacity="1.00" d=" M 250.98 55.98 C 251.49 55.98 252.51 55.98 253.02 55.98 C 253.02 71.99 253.02 88.01 253.02 104.02 C 252.51 104.02 251.49 104.02 250.98 104.02 C 250.98 88.01 250.98 71.99 250.98 55.98 Z" />
<path fill="#cbcbcb" opacity="1.00" d=" M 268.98 55.98 C 269.49 55.98 270.51 55.98 271.02 55.98 C 271.02 71.99 271.02 88.01 271.02 104.02 C 270.51 104.02 269.49 104.02 268.98 104.02 C 268.98 88.01 268.98 71.99 268.98 55.98 Z" />
<path fill="#cbcbcb" opacity="1.00" d=" M 285.98 55.98 C 286.49 55.98 287.51 55.98 288.02 55.98 C 288.02 71.99 288.02 88.01 288.02 104.02 C 287.51 104.02 286.49 104.02 285.98 104.02 C 285.98 88.01 285.98 71.99 285.98 55.98 Z" />
<path fill="#cbcbcb" opacity="1.00" d=" M 302.98 55.98 C 303.49 55.98 304.50 55.98 305.00 55.98 C 305.01 71.99 304.99 88.01 305.01 104.02 C 304.50 104.02 303.49 104.02 302.98 104.02 C 302.98 88.01 302.98 71.99 302.98 55.98 Z" />
<path fill="#383f42" opacity="1.00" d=" M 23.47 82.68 C 28.46 80.50 34.35 85.66 32.85 90.89 C 31.86 95.84 25.06 98.07 21.39 94.54 C 17.36 91.37 18.68 84.34 23.47 82.68 Z" />
<path fill="#414a4c" opacity="1.00" d=" M 319.00 102.00 C 328.23 102.00 337.45 102.00 346.67 102.00 C 348.10 117.00 349.56 132.00 351.00 147.00 C 348.69 147.00 346.39 147.00 344.09 147.00 C 336.73 146.99 329.37 146.99 322.01 147.00 C 319.67 147.00 317.33 147.00 315.00 147.00 C 316.34 132.00 317.67 117.00 319.00 102.00 Z" />
<path fill="#383f41" opacity="1.00" d=" M 162.42 150.39 C 159.36 136.05 155.52 121.40 157.49 106.63 C 207.32 106.62 257.15 106.67 306.98 106.60 C 308.45 106.72 310.18 106.45 311.34 107.62 C 312.26 109.61 311.94 111.90 311.89 114.03 C 310.65 137.02 305.53 160.18 294.32 180.46 C 289.28 189.92 283.00 198.81 275.01 206.01 C 273.97 207.38 271.52 208.51 272.31 210.53 C 280.35 214.20 288.24 218.33 295.47 223.48 C 300.66 227.12 305.16 231.61 309.90 235.79 C 310.13 208.85 309.94 181.90 310.00 154.96 C 313.99 154.79 317.99 154.62 321.99 154.53 C 321.99 152.02 322.00 149.51 322.01 147.00 C 329.37 146.99 336.73 146.99 344.09 147.00 C 344.16 149.49 344.18 151.98 344.21 154.47 C 346.47 154.57 348.74 154.69 351.01 154.86 C 351.00 157.26 351.00 159.66 350.99 162.06 C 340.18 162.37 329.36 162.23 318.54 162.25 C 317.38 186.47 318.33 210.75 317.95 234.99 C 317.91 238.29 317.88 241.64 318.76 244.85 C 319.58 250.86 317.97 257.11 319.96 262.95 C 320.04 268.29 320.21 273.65 319.91 278.99 L 319.35 280.87 C 318.53 287.87 319.21 294.96 319.00 302.00 C 316.78 302.00 314.57 302.01 312.36 302.02 C 312.11 302.02 311.63 302.02 311.38 302.02 C 260.22 301.97 209.07 302.01 157.91 302.00 L 156.46 302.00 C 151.97 302.00 147.48 302.00 143.00 302.00 C 139.00 302.00 135.00 302.00 131.00 302.00 C 128.66 302.00 126.33 302.00 124.00 302.00 C 124.00 282.67 124.00 263.33 124.00 244.00 C 126.00 244.00 128.00 244.00 130.00 244.00 C 134.34 244.00 138.68 244.00 143.03 244.00 C 146.29 244.00 149.54 243.99 152.80 243.98 C 163.46 228.08 180.20 217.51 197.50 210.06 C 191.86 204.21 185.84 198.66 181.30 191.87 C 172.78 179.22 166.06 165.24 162.42 150.39 M 197.40 263.43 C 195.05 264.41 194.72 267.28 193.74 269.32 C 195.97 269.28 198.20 269.19 200.43 269.08 C 201.17 265.74 208.07 264.82 207.04 269.11 C 203.66 270.36 199.91 270.20 196.56 271.57 C 193.39 273.06 191.91 276.71 191.66 280.02 C 191.47 282.83 194.22 285.22 196.98 284.83 C 201.25 284.41 205.52 284.32 209.79 284.83 C 210.77 278.56 212.77 272.47 213.30 266.14 C 213.41 264.02 211.30 263.05 209.59 262.61 C 205.58 261.71 201.21 261.81 197.40 263.43 M 246.22 263.31 C 242.86 264.45 241.33 268.61 242.25 271.85 C 244.43 276.28 250.73 274.97 253.31 279.01 C 250.53 280.15 246.52 280.75 245.64 276.99 C 243.72 277.00 241.81 277.05 239.90 277.11 C 239.92 279.89 240.38 283.40 243.54 284.29 C 248.00 285.36 253.66 285.78 257.07 282.07 C 259.38 279.88 260.28 275.63 257.74 273.29 C 255.09 271.19 251.50 271.02 248.67 269.27 C 247.43 267.82 249.82 266.86 251.02 267.03 C 252.56 266.83 253.50 268.33 254.64 269.06 C 256.58 269.11 258.52 269.13 260.47 269.14 C 260.20 267.00 259.93 264.29 257.62 263.36 C 254.04 261.90 249.81 261.85 246.22 263.31 M 271.84 265.02 C 272.79 265.36 274.67 266.03 275.62 266.37 C 275.77 265.86 276.08 264.84 276.23 264.32 C 276.59 264.36 277.31 264.44 277.66 264.47 L 276.62 266.59 C 277.34 266.74 278.78 267.04 279.50 267.19 C 279.66 266.40 279.98 264.81 280.13 264.02 C 280.94 265.70 281.48 267.60 283.04 268.79 C 283.56 266.80 284.00 264.78 284.45 262.77 C 283.84 262.81 282.61 262.87 282.00 262.90 L 282.01 264.86 C 281.49 264.19 280.96 263.53 280.44 262.87 C 278.59 263.40 276.91 262.67 275.49 261.59 L 278.09 263.68 C 275.30 262.11 273.22 262.56 271.84 265.02 M 286.25 262.95 C 285.85 264.92 285.38 266.89 285.12 268.89 C 285.58 268.93 286.49 269.01 286.94 269.04 C 287.60 266.99 287.97 264.85 288.44 262.75 C 287.71 262.81 286.98 262.88 286.25 262.95 M 290.52 263.19 C 290.55 265.60 287.82 269.03 290.60 270.61 C 291.31 267.96 291.89 265.28 292.43 262.60 C 291.79 262.79 291.15 262.99 290.52 263.19 M 173.84 262.87 C 172.19 270.13 170.74 277.44 168.93 284.67 C 173.26 284.64 177.59 284.90 181.91 284.55 C 189.52 283.54 194.21 274.23 191.69 267.32 C 188.34 260.79 179.74 263.38 173.84 262.87 M 214.26 262.87 C 215.28 270.11 215.63 277.42 216.55 284.68 C 219.01 284.69 221.46 284.70 223.92 284.71 C 227.39 277.42 230.85 270.12 234.22 262.78 C 231.96 262.85 229.70 262.88 227.45 262.93 C 225.54 267.04 223.90 271.28 221.77 275.28 C 221.48 271.11 220.98 266.97 220.46 262.84 C 218.39 262.85 216.32 262.86 214.26 262.87 M 235.32 262.89 C 233.45 270.10 232.14 277.45 230.30 284.66 C 232.55 284.69 234.81 284.70 237.06 284.71 C 238.64 277.41 240.14 270.10 241.90 262.84 C 239.70 262.85 237.51 262.87 235.32 262.89 M 261.73 284.72 C 263.44 284.71 265.15 284.70 266.86 284.70 L 267.01 283.15 C 267.50 283.81 267.98 284.47 268.48 285.14 C 269.29 284.97 270.93 284.62 271.74 284.45 C 272.01 282.98 272.29 281.52 272.56 280.06 C 271.14 280.69 269.32 280.90 268.58 282.51 C 267.96 282.33 266.73 281.97 266.11 281.79 C 269.62 277.70 269.08 271.91 270.88 267.06 C 270.32 266.28 269.78 265.50 269.23 264.73 C 269.74 264.76 270.76 264.83 271.27 264.87 L 271.62 262.85 C 269.95 262.85 268.29 262.85 266.63 262.86 C 264.92 270.13 263.45 277.45 261.73 284.72 M 292.98 271.52 C 296.29 270.02 295.41 265.38 296.39 262.40 C 293.16 264.07 293.97 268.53 292.98 271.52 M 297.23 272.55 C 300.47 270.39 299.86 265.51 300.49 262.00 C 298.00 264.91 297.96 268.96 297.23 272.55 M 302.63 269.84 C 301.64 275.01 300.23 280.09 299.36 285.28 C 301.23 284.19 301.28 281.91 301.78 280.05 C 302.91 274.08 304.53 268.20 305.49 262.20 C 303.36 264.17 303.29 267.21 302.63 269.84 M 307.47 264.47 C 306.78 266.15 308.85 267.11 309.83 268.08 C 310.37 267.78 311.46 267.17 312.00 266.87 C 311.95 265.48 311.90 264.10 311.85 262.73 C 310.30 263.09 307.73 262.23 307.47 264.47 M 271.44 269.00 C 270.79 272.14 270.06 275.27 269.66 278.45 C 270.79 277.11 272.10 275.76 272.20 273.90 C 272.24 272.26 273.89 269.76 271.44 269.00 M 294.40 284.64 C 294.73 284.71 295.37 284.86 295.70 284.93 C 296.74 281.14 297.75 277.33 298.21 273.42 C 295.16 276.29 295.63 280.92 294.40 284.64 M 290.03 285.37 C 293.33 283.11 292.67 278.25 293.68 274.73 C 290.35 277.02 291.02 281.86 290.03 285.37 M 287.61 276.58 C 286.90 279.55 286.21 282.54 286.12 285.60 C 288.91 283.36 288.50 279.35 289.49 276.22 C 289.02 276.31 288.08 276.49 287.61 276.58 M 283.27 277.47 C 282.62 279.87 282.05 282.30 281.47 284.72 C 282.01 284.71 283.09 284.68 283.63 284.67 C 284.16 282.20 284.70 279.73 285.30 277.28 C 284.79 277.32 283.78 277.42 283.27 277.47 M 277.19 284.63 C 277.81 284.66 279.05 284.70 279.67 284.73 C 280.14 282.43 280.63 280.15 281.02 277.84 C 277.70 278.47 277.97 282.08 277.19 284.63 M 274.21 279.91 C 273.80 281.49 273.36 283.06 272.91 284.64 C 273.61 284.67 275.02 284.74 275.72 284.78 C 276.15 282.91 276.63 281.05 277.13 279.20 C 276.15 279.43 275.18 279.67 274.21 279.91 Z" />
<path fill="#cbcbcb" opacity="1.00" d=" M 137.00 117.96 C 139.00 117.97 141.00 117.99 143.00 118.01 C 143.01 121.01 143.02 124.00 143.02 127.00 C 141.01 127.01 139.01 127.01 137.00 127.00 C 137.00 123.98 137.00 120.97 137.00 117.96 Z" />
<path fill="#cbcbcb" opacity="1.00" d=" M 130.00 153.00 C 134.34 153.00 138.69 153.00 143.03 153.01 C 143.01 183.34 143.02 213.67 143.03 244.00 C 138.68 244.00 134.34 244.00 130.00 244.00 C 130.00 213.67 130.00 183.33 130.00 153.00 Z" />
<path fill="#cbcbcb" opacity="1.00" d=" M 320.02 184.02 C 329.64 183.98 339.27 184.01 348.89 184.00 C 348.99 185.38 349.09 186.76 349.22 188.15 C 350.61 192.33 349.73 196.81 350.16 201.12 C 351.68 205.28 350.70 209.80 351.16 214.12 C 352.69 218.28 351.70 222.80 352.16 227.12 C 353.68 231.28 352.70 235.80 353.16 240.12 C 355.22 245.50 352.78 251.50 354.84 256.88 C 355.23 260.86 354.40 265.04 355.83 268.87 C 356.42 273.85 355.17 279.06 356.84 283.88 C 357.21 288.01 356.40 292.33 358.00 296.28 L 358.00 301.27 C 357.63 301.95 356.89 303.32 356.52 304.00 C 344.36 303.94 332.19 303.98 320.02 303.98 C 319.98 295.65 320.16 287.32 319.91 278.99 C 320.21 273.65 320.04 268.29 319.96 262.95 C 320.12 236.64 320.00 210.33 320.02 184.02 Z" />
<path fill="#ffffff" opacity="1.00" d=" M 197.40 263.43 C 201.21 261.81 205.58 261.71 209.59 262.61 C 211.30 263.05 213.41 264.02 213.30 266.14 C 212.77 272.47 210.77 278.56 209.79 284.83 C 205.52 284.32 201.25 284.41 196.98 284.83 C 194.22 285.22 191.47 282.83 191.66 280.02 C 191.91 276.71 193.39 273.06 196.56 271.57 C 199.91 270.20 203.66 270.36 207.04 269.11 C 208.07 264.82 201.17 265.74 200.43 269.08 C 198.20 269.19 195.97 269.28 193.74 269.32 C 194.72 267.28 195.05 264.41 197.40 263.43 M 198.53 278.03 C 198.61 280.32 201.37 280.41 202.96 279.58 C 205.03 278.71 205.16 276.07 206.01 274.29 C 203.33 274.61 198.89 274.39 198.53 278.03 Z" />
<path fill="#ffffff" opacity="1.00" d=" M 246.22 263.31 C 249.81 261.85 254.04 261.90 257.62 263.36 C 259.93 264.29 260.20 267.00 260.47 269.14 C 258.52 269.13 256.58 269.11 254.64 269.06 C 253.50 268.33 252.56 266.83 251.02 267.03 C 249.82 266.86 247.43 267.82 248.67 269.27 C 251.50 271.02 255.09 271.19 257.74 273.29 C 260.28 275.63 259.38 279.88 257.07 282.07 C 253.66 285.78 248.00 285.36 243.54 284.29 C 240.38 283.40 239.92 279.89 239.90 277.11 C 241.81 277.05 243.72 277.00 245.64 276.99 C 246.52 280.75 250.53 280.15 253.31 279.01 C 250.73 274.97 244.43 276.28 242.25 271.85 C 241.33 268.61 242.86 264.45 246.22 263.31 Z" />
<path fill="#ffffff" opacity="1.00" d=" M 271.84 265.02 C 273.22 262.56 275.30 262.11 278.09 263.68 L 275.49 261.59 C 276.91 262.67 278.59 263.40 280.44 262.87 C 280.96 263.53 281.49 264.19 282.01 264.86 L 282.00 262.90 C 282.61 262.87 283.84 262.81 284.45 262.77 C 284.00 264.78 283.56 266.80 283.04 268.79 C 281.48 267.60 280.94 265.70 280.13 264.02 C 279.98 264.81 279.66 266.40 279.50 267.19 C 278.78 267.04 277.34 266.74 276.62 266.59 L 277.66 264.47 C 277.31 264.44 276.59 264.36 276.23 264.32 C 276.08 264.84 275.77 265.86 275.62 266.37 C 274.67 266.03 272.79 265.36 271.84 265.02 Z" />
<path fill="#ffffff" opacity="1.00" d=" M 286.25 262.95 C 286.98 262.88 287.71 262.81 288.44 262.75 C 287.97 264.85 287.60 266.99 286.94 269.04 C 286.49 269.01 285.58 268.93 285.12 268.89 C 285.38 266.89 285.85 264.92 286.25 262.95 Z" />
<path fill="#ffffff" opacity="1.00" d=" M 290.52 263.19 C 291.15 262.99 291.79 262.79 292.43 262.60 C 291.89 265.28 291.31 267.96 290.60 270.61 C 287.82 269.03 290.55 265.60 290.52 263.19 Z" />
<path fill="#ffffff" opacity="1.00" d=" M 173.84 262.87 C 179.74 263.38 188.34 260.79 191.69 267.32 C 194.21 274.23 189.52 283.54 181.91 284.55 C 177.59 284.90 173.26 284.64 168.93 284.67 C 170.74 277.44 172.19 270.13 173.84 262.87 M 178.94 268.03 C 178.20 271.80 177.45 275.57 176.63 279.33 C 178.79 279.09 181.36 279.66 183.13 278.07 C 185.39 276.11 186.14 272.87 185.65 270.00 C 184.77 267.14 181.15 268.41 178.94 268.03 Z" />
<path fill="#ffffff" opacity="1.00" d=" M 214.26 262.87 C 216.32 262.86 218.39 262.85 220.46 262.84 C 220.98 266.97 221.48 271.11 221.77 275.28 C 223.90 271.28 225.54 267.04 227.45 262.93 C 229.70 262.88 231.96 262.85 234.22 262.78 C 230.85 270.12 227.39 277.42 223.92 284.71 C 221.46 284.70 219.01 284.69 216.55 284.68 C 215.63 277.42 215.28 270.11 214.26 262.87 Z" />
<path fill="#ffffff" opacity="1.00" d=" M 235.32 262.89 C 237.51 262.87 239.70 262.85 241.90 262.84 C 240.14 270.10 238.64 277.41 237.06 284.71 C 234.81 284.70 232.55 284.69 230.30 284.66 C 232.14 277.45 233.45 270.10 235.32 262.89 Z" />
<path fill="#ffffff" opacity="1.00" d=" M 261.73 284.72 C 263.45 277.45 264.92 270.13 266.63 262.86 C 268.29 262.85 269.95 262.85 271.62 262.85 L 271.27 264.87 C 270.76 264.83 269.74 264.76 269.23 264.73 C 269.78 265.50 270.32 266.28 270.88 267.06 C 269.08 271.91 269.62 277.70 266.11 281.79 C 266.73 281.97 267.96 282.33 268.58 282.51 C 269.32 280.90 271.14 280.69 272.56 280.06 C 272.29 281.52 272.01 282.98 271.74 284.45 C 270.93 284.62 269.29 284.97 268.48 285.14 C 267.98 284.47 267.50 283.81 267.01 283.15 L 266.86 284.70 C 265.15 284.70 263.44 284.71 261.73 284.72 Z" />
<path fill="#ffffff" opacity="1.00" d=" M 292.98 271.52 C 293.97 268.53 293.16 264.07 296.39 262.40 C 295.41 265.38 296.29 270.02 292.98 271.52 Z" />
<path fill="#ffffff" opacity="1.00" d=" M 297.23 272.55 C 297.96 268.96 298.00 264.91 300.49 262.00 C 299.86 265.51 300.47 270.39 297.23 272.55 Z" />
<path fill="#ffffff" opacity="1.00" d=" M 302.63 269.84 C 303.29 267.21 303.36 264.17 305.49 262.20 C 304.53 268.20 302.91 274.08 301.78 280.05 C 301.28 281.91 301.23 284.19 299.36 285.28 C 300.23 280.09 301.64 275.01 302.63 269.84 Z" />
<path fill="#8a8e8f" opacity="1.00" d=" M 307.47 264.47 C 307.73 262.23 310.30 263.09 311.85 262.73 C 311.90 264.10 311.95 265.48 312.00 266.87 C 311.46 267.17 310.37 267.78 309.83 268.08 C 308.85 267.11 306.78 266.15 307.47 264.47 Z" />
<path fill="#383f41" opacity="1.00" d=" M 178.94 268.03 C 181.15 268.41 184.77 267.14 185.65 270.00 C 186.14 272.87 185.39 276.11 183.13 278.07 C 181.36 279.66 178.79 279.09 176.63 279.33 C 177.45 275.57 178.20 271.80 178.94 268.03 Z" />
<path fill="#f4f4f4" opacity="1.00" d=" M 271.44 269.00 C 273.89 269.76 272.24 272.26 272.20 273.90 C 272.10 275.76 270.79 277.11 269.66 278.45 C 270.06 275.27 270.79 272.14 271.44 269.00 Z" />
<path fill="#ffffff" opacity="1.00" d=" M 294.40 284.64 C 295.63 280.92 295.16 276.29 298.21 273.42 C 297.75 277.33 296.74 281.14 295.70 284.93 C 295.37 284.86 294.73 284.71 294.40 284.64 Z" />
<path fill="#383f41" opacity="1.00" d=" M 198.53 278.03 C 198.89 274.39 203.33 274.61 206.01 274.29 C 205.16 276.07 205.03 278.71 202.96 279.58 C 201.37 280.41 198.61 280.32 198.53 278.03 Z" />
<path fill="#ffffff" opacity="1.00" d=" M 290.03 285.37 C 291.02 281.86 290.35 277.02 293.68 274.73 C 292.67 278.25 293.33 283.11 290.03 285.37 Z" />
<path fill="#ffffff" opacity="1.00" d=" M 287.61 276.58 C 288.08 276.49 289.02 276.31 289.49 276.22 C 288.50 279.35 288.91 283.36 286.12 285.60 C 286.21 282.54 286.90 279.55 287.61 276.58 Z" />
<path fill="#ffffff" opacity="1.00" d=" M 283.27 277.47 C 283.78 277.42 284.79 277.32 285.30 277.28 C 284.70 279.73 284.16 282.20 283.63 284.67 C 283.09 284.68 282.01 284.71 281.47 284.72 C 282.05 282.30 282.62 279.87 283.27 277.47 Z" />
<path fill="#ffffff" opacity="1.00" d=" M 277.19 284.63 C 277.97 282.08 277.70 278.47 281.02 277.84 C 280.63 280.15 280.14 282.43 279.67 284.73 C 279.05 284.70 277.81 284.66 277.19 284.63 Z" />
<path fill="#ffffff" opacity="1.00" d=" M 274.21 279.91 C 275.18 279.67 276.15 279.43 277.13 279.20 C 276.63 281.05 276.15 282.91 275.72 284.78 C 275.02 284.74 273.61 284.67 272.91 284.64 C 273.36 283.06 273.80 281.49 274.21 279.91 Z" />
<path fill="#cbcbcb" opacity="1.00" d=" M 131.00 302.00 C 135.00 302.00 139.00 302.00 143.00 302.00 C 143.00 323.00 143.00 344.00 143.00 365.00 L 131.00 365.00 C 131.00 344.00 130.99 323.00 131.00 302.00 Z" />
<path fill="#9f9f9f" opacity="1.00" d=" M 156.46 302.00 L 157.91 302.00 C 158.01 304.68 158.11 307.36 158.21 310.05 C 209.30 310.22 260.39 310.08 311.49 310.11 C 311.51 313.74 311.48 317.36 311.46 320.99 C 262.63 321.00 213.80 321.01 164.97 320.98 C 162.21 321.04 159.46 321.22 156.71 321.41 C 156.53 314.94 156.49 308.47 156.46 302.00 Z" />
<path fill="#8a8a89" opacity="1.00" d=" M 157.91 302.00 C 209.07 302.01 260.22 301.97 311.38 302.02 C 311.42 304.72 311.46 307.41 311.49 310.11 C 260.39 310.08 209.30 310.22 158.21 310.05 C 158.11 307.36 158.01 304.68 157.91 302.00 Z" />
<path fill="#cbcbcb" opacity="1.00" d=" M 311.38 302.02 C 311.63 302.02 312.11 302.02 312.36 302.02 C 312.37 315.35 311.92 328.67 311.99 342.00 C 260.33 341.96 208.67 341.95 157.01 342.00 C 156.93 335.14 157.07 328.27 156.71 321.41 C 159.46 321.22 162.21 321.04 164.97 320.98 C 213.80 321.01 262.63 321.00 311.46 320.99 C 311.48 317.36 311.51 313.74 311.49 310.11 C 311.46 307.41 311.42 304.72 311.38 302.02 M 158.03 332.04 C 157.97 335.03 157.92 338.03 157.88 341.02 C 165.90 341.45 173.92 341.20 181.95 341.26 C 217.31 341.30 252.66 341.26 288.02 341.25 C 295.73 341.19 303.44 341.51 311.14 341.02 C 311.11 338.03 311.05 335.04 310.99 332.05 C 260.00 331.96 209.01 331.99 158.03 332.04 Z" />
<path fill="#e8e8e9" opacity="1.00" d=" M 158.03 332.04 C 209.01 331.99 260.00 331.96 310.99 332.05 C 311.05 335.04 311.11 338.03 311.14 341.02 C 303.44 341.51 295.73 341.19 288.02 341.25 C 252.66 341.26 217.31 341.30 181.95 341.26 C 173.92 341.20 165.90 341.45 157.88 341.02 C 157.92 338.03 157.97 335.03 158.03 332.04 Z" />
</svg>
