<?xml version="1.0" encoding="UTF-8" ?>
<!DOCTYPE svg PUBLIC "-//W3C//DTD SVG 1.1//EN" "http://www.w3.org/Graphics/SVG/1.1/DTD/svg11.dtd">
<svg width="1024pt" height="448pt" viewBox="0 0 1024 448" version="1.1" xmlns="http://www.w3.org/2000/svg">
<path fill="#383f41" opacity="1.00" d=" M 124.32 78.20 C 129.99 73.91 134.38 67.02 141.99 66.10 C 147.77 65.81 153.62 65.65 159.35 66.66 C 159.70 68.01 160.80 69.51 159.94 70.90 C 156.55 78.00 152.79 84.92 149.03 91.84 C 144.95 99.19 141.89 107.23 136.85 113.97 C 120.01 114.33 103.14 114.01 86.29 114.12 C 86.42 120.08 86.15 126.04 85.95 132.00 C 95.65 132.06 105.37 131.89 115.07 132.05 C 116.71 131.90 117.79 133.20 118.77 134.28 C 133.71 151.64 148.73 168.93 163.68 186.28 C 165.38 188.17 166.85 190.33 168.89 191.88 C 170.58 192.06 172.29 192.03 174.00 192.03 C 176.01 192.02 178.01 192.00 180.02 191.99 C 180.51 191.99 181.50 191.99 182.00 191.98 C 182.00 200.66 182.00 209.34 182.00 218.01 C 181.51 218.01 180.52 218.01 180.03 218.01 C 175.69 218.00 171.34 218.00 167.00 218.00 C 166.50 218.00 165.50 218.00 165.00 218.00 C 164.81 210.46 165.38 202.87 164.74 195.36 C 147.99 175.39 130.62 155.90 113.73 136.04 C 104.47 135.95 95.22 136.02 85.96 136.00 C 85.97 139.00 86.09 142.01 86.33 145.00 C 85.43 145.01 83.63 145.01 82.74 145.02 C 83.18 146.02 83.62 147.02 84.05 148.02 C 87.18 147.03 91.13 146.78 93.33 149.70 C 97.03 153.56 94.29 160.71 88.99 161.19 C 85.05 162.01 82.10 158.77 80.77 155.46 C 77.81 156.42 74.18 156.73 71.94 154.12 C 69.32 151.71 69.89 147.96 70.98 144.97 C 70.15 144.98 68.50 145.00 67.67 145.01 C 67.80 134.72 67.69 124.43 67.74 114.14 C 60.80 114.16 53.86 113.99 46.93 114.24 C 47.01 110.71 47.01 107.17 46.94 103.63 C 53.64 103.60 60.34 103.69 67.04 103.57 C 69.21 100.14 73.56 100.78 77.04 100.69 C 80.52 100.74 84.82 100.21 86.99 103.62 C 91.13 103.88 95.64 103.69 98.91 100.78 C 107.51 93.41 115.91 85.80 124.32 78.20 M 103.39 105.84 C 102.84 107.55 102.31 109.28 101.81 111.02 C 103.61 110.95 105.42 110.78 107.17 110.31 C 108.61 110.64 110.05 110.94 111.50 111.22 C 112.03 109.97 112.56 108.72 113.12 107.49 C 113.37 108.52 113.87 110.59 114.12 111.63 C 115.53 110.10 116.80 108.44 118.11 106.82 C 117.84 108.03 117.30 110.45 117.02 111.67 C 117.69 110.66 119.03 108.66 119.70 107.65 C 120.62 108.43 121.55 109.21 122.46 110.00 C 121.69 109.74 120.13 109.21 119.35 108.95 L 119.82 111.36 C 121.53 110.96 123.22 110.42 124.69 109.44 C 123.62 108.71 122.56 107.98 121.49 107.27 C 122.16 107.36 123.50 107.55 124.18 107.65 L 124.04 106.09 C 121.19 106.79 117.42 105.20 115.29 107.69 C 114.29 105.78 111.91 106.44 110.27 105.87 C 110.39 107.40 110.51 108.93 110.64 110.47 C 108.55 108.44 106.68 105.63 103.39 105.84 M 108.93 106.55 C 107.53 109.75 112.19 106.57 108.93 106.55 M 125.88 106.26 C 125.46 107.78 125.07 109.30 124.68 110.83 C 128.30 110.53 132.55 111.24 135.02 107.78 L 134.54 110.70 C 134.89 109.12 135.54 107.65 136.68 106.48 C 133.08 106.93 129.47 106.41 125.88 106.26 Z" />
<path fill="#ff8841" opacity="1.00" d=" M 41.99 109.07 C 41.80 106.11 44.53 104.47 46.94 103.63 C 47.01 107.17 47.01 110.71 46.93 114.24 C 44.49 113.60 41.91 111.92 41.99 109.07 Z" />
<path fill="#f7f7f7" opacity="1.00" d=" M 103.39 105.84 C 106.68 105.63 108.55 108.44 110.64 110.47 C 110.51 108.93 110.39 107.40 110.27 105.87 C 111.91 106.44 114.29 105.78 115.29 107.69 C 117.42 105.20 121.19 106.79 124.04 106.09 L 124.18 107.65 C 123.50 107.55 122.16 107.36 121.49 107.27 C 122.56 107.98 123.62 108.71 124.69 109.44 C 123.22 110.42 121.53 110.96 119.82 111.36 L 119.35 108.95 C 120.13 109.21 121.69 109.74 122.46 110.00 C 121.55 109.21 120.62 108.43 119.70 107.65 C 119.03 108.66 117.69 110.66 117.02 111.67 C 117.30 110.45 117.84 108.03 118.11 106.82 C 116.80 108.44 115.53 110.10 114.12 111.63 C 113.87 110.59 113.37 108.52 113.12 107.49 C 112.56 108.72 112.03 109.97 111.50 111.22 C 110.05 110.94 108.61 110.64 107.17 110.31 C 105.42 110.78 103.61 110.95 101.81 111.02 C 102.31 109.28 102.84 107.55 103.39 105.84 M 105.14 107.33 C 103.79 107.26 103.30 109.69 104.83 109.75 C 106.18 109.80 106.67 107.39 105.14 107.33 Z" />
<path fill="#ebecec" opacity="1.00" d=" M 108.93 106.55 C 112.19 106.57 107.53 109.75 108.93 106.55 Z" />
<path fill="#f7f7f7" opacity="1.00" d=" M 125.88 106.26 C 129.47 106.41 133.08 106.93 136.68 106.48 C 135.54 107.65 134.89 109.12 134.54 110.70 L 135.02 107.78 C 132.55 111.24 128.30 110.53 124.68 110.83 C 125.07 109.30 125.46 107.78 125.88 106.26 M 127.37 106.65 C 127.13 107.54 126.64 109.33 126.40 110.22 C 128.72 109.33 132.28 110.49 133.80 108.25 C 131.71 107.50 129.52 107.14 127.37 106.65 Z" />
<path fill="#383f41" opacity="1.00" d=" M 105.14 107.33 C 106.67 107.39 106.18 109.80 104.83 109.75 C 103.30 109.69 103.79 107.26 105.14 107.33 Z" />
<path fill="#383f41" opacity="1.00" d=" M 127.37 106.65 C 129.52 107.14 131.71 107.50 133.80 108.25 C 132.28 110.49 128.72 109.33 126.40 110.22 C 126.64 109.33 127.13 107.54 127.37 106.65 Z" />
<path fill="#cbcbcb" opacity="1.00" d=" M 203.00 120.98 C 203.50 120.98 204.51 120.98 205.02 120.98 C 205.02 136.99 205.02 153.01 205.02 169.02 C 204.51 169.02 203.50 169.02 203.00 169.02 C 203.00 153.00 203.00 136.99 203.00 120.98 Z" />
<path fill="#cbcbcb" opacity="1.00" d=" M 219.98 120.98 C 220.49 120.98 221.51 120.98 222.02 120.98 C 222.02 136.99 222.02 153.01 222.02 169.02 C 221.51 169.02 220.49 169.02 219.98 169.02 C 219.98 153.00 219.98 136.99 219.98 120.98 Z" />
<path fill="#cbcbcb" opacity="1.00" d=" M 236.98 120.98 C 237.49 120.98 238.51 120.98 239.02 120.98 C 239.02 136.99 239.02 153.01 239.02 169.02 C 238.51 169.02 237.49 169.02 236.98 169.02 C 236.98 153.01 236.98 136.99 236.98 120.98 Z" />
<path fill="#cbcbcb" opacity="1.00" d=" M 253.98 120.98 C 254.49 120.98 255.51 120.98 256.02 120.98 C 256.02 136.99 256.02 153.01 256.02 169.02 C 255.51 169.02 254.49 169.02 253.98 169.02 C 253.98 153.01 253.98 136.99 253.98 120.98 Z" />
<path fill="#cbcbcb" opacity="1.00" d=" M 270.98 120.98 C 271.49 120.98 272.51 120.98 273.02 120.98 C 273.02 136.99 273.02 153.00 273.02 169.02 C 272.51 169.02 271.49 169.02 270.98 169.02 C 270.98 153.01 270.98 136.99 270.98 120.98 Z" />
<path fill="#cbcbcb" opacity="1.00" d=" M 287.98 120.98 C 288.49 120.98 289.51 120.98 290.02 120.98 C 290.02 136.99 290.02 153.01 290.02 169.02 C 289.51 169.02 288.49 169.02 287.98 169.02 C 287.98 153.00 287.98 136.99 287.98 120.98 Z" />
<path fill="#cbcbcb" opacity="1.00" d=" M 305.98 120.98 C 306.49 120.98 307.51 120.98 308.02 120.98 C 308.02 136.99 308.02 153.00 308.02 169.02 C 307.51 169.02 306.49 169.02 305.98 169.02 C 305.98 153.01 305.98 136.99 305.98 120.98 Z" />
<path fill="#cbcbcb" opacity="1.00" d=" M 322.98 120.98 C 323.49 120.98 324.51 120.98 325.02 120.98 C 325.02 136.99 325.02 153.00 325.02 169.02 C 324.51 169.02 323.49 169.02 322.98 169.02 C 322.98 153.01 322.98 136.99 322.98 120.98 Z" />
<path fill="#cbcbcb" opacity="1.00" d=" M 339.98 120.98 C 340.49 120.98 341.50 120.98 342.00 120.98 C 342.01 136.99 341.98 153.01 342.01 169.02 C 341.50 169.02 340.49 169.02 339.98 169.02 C 339.98 153.01 339.98 136.99 339.98 120.98 Z" />
<path fill="#a1a1a1" opacity="1.00" d=" M 625.33 139.56 C 626.71 138.25 629.70 139.05 630.13 141.02 C 631.20 143.42 628.32 146.17 625.99 144.92 C 623.73 144.24 623.37 140.83 625.33 139.56 Z" />
<path fill="#a1a1a1" opacity="1.00" d=" M 741.51 139.50 C 742.99 139.50 744.49 139.50 746.00 139.50 C 746.00 151.42 746.00 163.34 746.00 175.25 C 744.48 175.25 742.96 175.24 741.45 175.24 C 741.50 174.45 741.58 172.85 741.63 172.06 C 739.05 174.52 735.61 176.34 731.94 175.67 C 727.01 175.21 723.41 170.66 722.83 165.96 C 721.86 160.57 722.84 154.00 727.64 150.66 C 732.03 147.65 738.30 148.81 741.62 152.88 C 741.41 148.42 741.52 143.96 741.51 139.50 M 732.43 153.45 C 726.99 155.30 726.32 162.45 728.09 167.13 C 729.40 171.21 734.92 172.92 738.32 170.28 C 741.84 167.41 742.11 162.11 740.84 158.06 C 739.84 154.57 735.92 152.36 732.43 153.45 Z" />
<path fill="#a1a1a1" opacity="1.00" d=" M 536.00 141.00 C 541.63 141.21 547.34 140.49 552.92 141.46 C 558.38 142.67 562.65 147.38 563.64 152.84 C 565.18 159.98 563.81 168.99 557.05 173.06 C 550.64 176.68 542.99 174.78 536.00 175.25 C 536.00 163.83 536.00 152.42 536.00 141.00 M 540.75 145.25 C 540.74 153.83 540.75 162.42 540.75 171.00 C 545.42 170.85 550.73 171.75 554.76 168.81 C 560.40 164.26 560.61 155.01 556.69 149.30 C 552.98 144.28 546.19 145.28 540.75 145.25 Z" />
<path fill="#a1a1a1" opacity="1.00" d=" M 768.50 141.00 C 775.58 141.00 782.66 141.00 789.74 141.00 C 789.74 142.41 789.74 143.83 789.76 145.24 C 784.25 145.26 778.75 145.25 773.25 145.25 C 773.25 148.92 773.25 152.58 773.25 156.25 C 778.25 156.25 783.25 156.25 788.25 156.25 C 788.24 157.75 788.24 159.25 788.25 160.75 C 783.25 160.75 778.25 160.75 773.25 160.75 C 773.25 165.58 773.24 170.41 773.25 175.25 C 771.66 175.25 770.08 175.25 768.50 175.25 C 768.50 163.83 768.50 152.42 768.50 141.00 Z" />
<path fill="#383f42" opacity="1.00" d=" M 60.44 147.69 C 65.42 145.49 71.33 150.62 69.86 155.85 C 68.90 160.83 62.06 163.09 58.38 159.54 C 54.37 156.37 55.67 149.37 60.44 147.69 Z" />
<path fill="#a1a1a1" opacity="1.00" d=" M 573.80 151.69 C 578.37 147.74 586.38 147.98 590.12 152.99 C 592.47 156.03 592.60 160.03 592.89 163.71 C 586.67 163.80 580.45 163.69 574.23 163.78 C 575.01 166.34 575.60 169.51 578.27 170.81 C 581.69 172.60 585.82 171.20 588.12 168.27 C 589.61 168.27 591.10 168.28 592.60 168.30 C 590.02 177.65 575.13 178.39 571.25 169.72 C 568.71 163.97 569.09 156.25 573.80 151.69 M 578.58 153.68 C 576.09 154.81 575.09 157.51 574.28 159.91 C 578.90 160.05 583.52 160.08 588.15 159.86 C 587.52 158.23 587.08 156.45 585.98 155.06 C 584.13 153.07 581.00 152.74 578.58 153.68 Z" />
<path fill="#a1a1a1" opacity="1.00" d=" M 600.67 151.66 C 606.04 146.79 616.69 148.47 618.39 156.21 C 616.89 156.23 615.40 156.24 613.92 156.24 C 612.28 154.02 609.74 152.36 606.86 153.09 C 604.54 153.22 601.74 156.03 603.81 158.16 C 607.67 160.80 613.13 159.98 616.66 163.25 C 619.82 166.26 618.59 171.86 614.95 173.91 C 609.10 177.57 598.92 176.11 597.39 168.34 C 598.94 168.29 600.49 168.26 602.06 168.25 C 604.08 172.18 609.92 173.04 612.99 169.92 C 614.26 168.68 613.79 166.63 612.31 165.80 C 608.52 163.91 603.87 164.17 600.44 161.52 C 597.61 159.02 597.83 154.08 600.67 151.66 Z" />
<path fill="#a1a1a1" opacity="1.00" d=" M 638.30 153.33 C 641.95 147.68 650.89 147.63 655.04 152.78 C 655.02 151.96 654.99 150.32 654.97 149.50 C 656.47 149.50 657.98 149.50 659.50 149.50 C 659.45 158.35 659.58 167.19 659.46 176.03 C 659.49 180.60 655.51 184.13 651.19 184.69 C 645.50 186.03 638.06 183.97 636.71 177.55 C 638.25 177.51 639.81 177.49 641.37 177.46 C 643.60 181.37 648.98 181.81 652.61 179.69 C 655.50 177.88 654.59 174.12 654.88 171.27 C 650.94 175.79 643.35 176.29 639.22 171.81 C 635.01 166.75 634.93 158.84 638.30 153.33 M 645.40 153.57 C 638.09 156.50 639.28 170.98 647.96 170.78 C 654.26 170.70 656.38 162.68 654.22 157.78 C 653.07 154.20 648.90 152.28 645.40 153.57 Z" />
<path fill="#a1a1a1" opacity="1.00" d=" M 671.33 152.82 C 675.26 147.07 686.04 147.70 687.86 154.92 C 688.77 161.63 688.00 168.48 688.25 175.25 C 686.74 175.25 685.24 175.25 683.75 175.25 C 683.55 169.19 684.16 163.07 683.43 157.05 C 682.61 152.78 676.55 152.04 673.77 154.79 C 672.27 156.08 671.78 158.12 671.77 160.02 C 671.67 165.10 671.79 170.18 671.75 175.26 C 670.15 175.25 668.57 175.24 667.00 175.24 C 667.00 166.66 667.00 158.08 667.00 149.50 C 668.52 149.50 670.04 149.51 671.58 149.52 C 671.49 150.62 671.40 151.72 671.33 152.82 Z" />
<path fill="#a1a1a1" opacity="1.00" d=" M 697.63 152.63 C 701.94 147.64 711.03 147.63 714.91 153.15 C 717.24 156.15 717.34 160.10 717.63 163.72 C 711.39 163.79 705.16 163.69 698.93 163.79 C 699.70 166.18 700.21 169.02 702.47 170.50 C 705.24 172.23 709.18 171.88 711.53 169.55 C 712.98 167.76 715.38 168.36 717.39 168.20 C 714.96 177.17 700.94 178.50 696.47 170.58 C 693.48 165.13 693.63 157.56 697.63 152.63 M 698.95 159.89 C 703.58 160.06 708.21 160.06 712.84 159.90 C 712.18 156.55 709.96 152.83 706.04 153.21 C 702.08 152.79 699.98 156.70 698.95 159.89 Z" />
<path fill="#a1a1a1" opacity="1.00" d=" M 802.47 149.65 C 807.51 147.97 814.08 149.31 816.81 154.23 C 819.54 159.21 819.46 165.71 816.73 170.67 C 812.24 178.12 799.11 177.30 796.09 168.94 C 793.50 162.27 794.78 152.26 802.47 149.65 M 804.48 153.55 C 799.07 155.54 798.91 162.85 800.57 167.47 C 802.27 172.35 809.91 172.96 812.49 168.57 C 814.55 164.91 814.59 160.08 812.63 156.38 C 811.11 153.52 807.42 152.61 804.48 153.55 Z" />
<path fill="#a1a1a1" opacity="1.00" d=" M 829.26 152.62 C 831.54 149.57 835.30 148.70 838.94 148.87 C 838.96 150.43 838.99 151.98 839.02 153.54 C 835.51 153.09 830.77 153.90 829.93 157.99 C 829.48 163.72 829.87 169.50 829.75 175.25 C 828.24 175.25 826.74 175.25 825.25 175.25 C 825.24 166.68 825.27 158.10 825.24 149.53 C 826.68 149.51 828.14 149.51 829.61 149.51 C 829.52 150.28 829.35 151.84 829.26 152.62 Z" />
<path fill="#a1a1a1" opacity="1.00" d=" M 625.00 149.50 C 626.49 149.50 627.99 149.50 629.50 149.50 C 629.50 158.09 629.50 166.67 629.50 175.25 C 627.99 175.25 626.49 175.25 625.00 175.25 C 625.00 166.67 625.00 158.08 625.00 149.50 Z" />
<path fill="#414a4c" opacity="1.00" d=" M 356.01 167.00 C 365.23 167.00 374.45 166.99 383.67 167.01 C 385.10 182.00 386.56 197.00 388.00 212.00 C 385.69 212.00 383.37 212.00 381.07 212.00 C 373.72 211.98 366.37 212.01 359.02 212.00 C 356.67 212.00 354.33 212.00 352.00 212.00 C 353.34 197.00 354.67 182.00 356.01 167.00 Z" />
<path fill="#383f41" opacity="1.00" d=" M 195.88 198.97 C 194.51 189.96 193.08 180.74 194.53 171.65 C 244.69 171.62 294.84 171.65 345.00 171.63 C 346.51 171.46 348.57 171.93 348.75 173.74 C 349.46 177.79 348.39 181.90 348.41 185.97 C 346.10 212.81 337.73 239.70 321.13 261.23 C 317.62 265.99 313.03 269.77 309.07 274.11 C 309.13 274.49 309.26 275.26 309.32 275.65 C 317.26 278.95 324.78 283.21 331.88 288.06 C 337.33 291.74 341.93 296.49 346.90 300.76 C 347.13 273.84 346.94 246.90 347.00 219.97 C 350.98 219.78 354.97 219.60 358.96 219.56 C 358.99 217.04 359.00 214.52 359.02 212.00 C 366.37 212.01 373.72 211.98 381.07 212.00 C 381.20 214.49 381.20 216.98 381.19 219.48 C 383.46 219.57 385.73 219.68 388.01 219.87 C 388.00 222.25 388.00 224.64 388.00 227.03 C 377.17 227.42 366.34 227.21 355.52 227.25 C 354.44 251.13 355.26 275.06 354.99 298.97 C 355.14 302.55 354.41 306.33 355.82 309.75 C 356.21 315.23 355.82 320.74 356.12 326.23 L 356.99 327.78 C 357.12 333.26 357.12 338.73 356.99 344.21 L 356.12 345.77 C 355.86 352.84 356.06 359.92 356.00 366.99 C 353.78 367.00 351.56 367.01 349.35 367.02 C 349.10 367.02 348.61 367.02 348.36 367.02 C 297.22 366.97 246.07 367.02 194.93 367.00 L 193.47 367.00 C 188.98 367.00 184.49 367.00 180.00 367.00 C 176.00 367.00 172.00 367.00 168.00 367.00 C 165.66 367.00 163.33 367.00 161.00 367.00 C 161.00 347.67 161.00 328.33 161.00 309.00 C 163.00 309.00 165.00 309.00 167.00 309.00 C 171.34 309.00 175.68 309.00 180.03 309.00 C 183.30 309.00 186.57 309.00 189.85 308.98 C 200.42 293.08 217.18 282.55 234.42 275.10 C 231.96 272.08 228.94 269.60 226.34 266.74 C 216.71 256.55 209.96 244.02 204.53 231.20 C 200.12 220.90 198.30 209.82 195.88 198.97 M 234.42 328.42 C 232.06 329.40 231.72 332.27 230.73 334.32 C 232.95 334.28 235.17 334.20 237.40 334.08 C 238.52 331.46 241.53 330.45 244.00 331.91 C 244.44 333.49 243.97 334.67 242.23 334.66 C 238.38 335.68 233.44 335.24 230.82 338.83 C 228.79 341.74 227.24 346.77 230.85 349.14 C 233.68 350.55 236.98 349.60 239.97 349.25 C 242.22 349.64 244.50 349.72 246.78 349.83 C 247.79 343.53 249.79 337.39 250.30 331.02 C 250.32 328.94 248.24 328.05 246.55 327.60 C 242.56 326.72 238.22 326.82 234.42 328.42 M 281.42 329.33 C 279.00 331.47 277.78 336.06 280.46 338.48 C 283.37 341.05 288.04 340.60 290.36 344.01 C 287.55 345.16 283.55 345.72 282.57 341.98 C 280.66 342.02 278.75 342.07 276.85 342.16 C 277.19 344.25 276.91 346.87 278.83 348.30 C 281.44 350.30 285.01 349.97 288.12 349.91 C 292.85 349.71 297.53 344.90 295.95 340.03 C 294.08 335.46 287.39 337.05 285.11 333.10 C 287.19 331.21 290.02 332.10 291.68 334.07 C 293.61 334.11 295.55 334.13 297.49 334.13 C 297.15 332.03 296.95 329.32 294.66 328.38 C 290.46 326.71 285.24 326.73 281.42 329.33 M 308.98 330.08 C 309.88 330.41 311.67 331.07 312.57 331.40 C 312.76 330.84 313.14 329.73 313.34 329.18 C 314.12 329.97 314.57 330.98 314.71 332.23 C 316.57 332.25 317.40 331.19 317.18 329.05 C 317.84 330.51 318.37 332.03 319.07 333.49 C 321.23 332.52 320.77 329.67 321.49 327.76 C 320.86 327.80 319.62 327.87 319.00 327.91 L 319.02 329.83 C 318.48 329.17 317.95 328.52 317.41 327.88 C 315.89 328.02 314.39 327.89 312.98 327.32 C 310.89 326.91 309.62 328.21 308.98 330.08 M 323.25 327.95 C 322.84 329.94 322.36 331.93 322.15 333.95 C 322.60 333.97 323.48 334.00 323.93 334.02 C 324.61 331.97 324.98 329.84 325.45 327.74 C 324.71 327.81 323.98 327.88 323.25 327.95 M 327.51 328.20 C 327.47 330.64 324.97 333.87 327.51 335.70 C 328.30 333.03 328.89 330.31 329.44 327.59 C 328.79 327.79 328.15 327.99 327.51 328.20 M 210.84 327.87 C 209.19 335.13 207.74 342.44 205.93 349.67 C 209.98 349.67 214.03 349.83 218.08 349.63 C 226.15 349.23 231.38 339.41 228.65 332.24 C 225.25 325.80 216.73 328.38 210.84 327.87 M 251.26 327.86 C 252.29 335.10 252.63 342.42 253.55 349.68 C 256.01 349.69 258.46 349.70 260.92 349.71 C 264.39 342.42 267.85 335.12 271.21 327.78 C 268.95 327.84 266.69 327.87 264.43 327.94 C 262.57 332.07 260.83 336.26 258.81 340.32 C 258.43 336.15 258.01 331.99 257.48 327.85 C 255.40 327.85 253.33 327.85 251.26 327.86 M 272.32 327.89 C 270.44 335.10 269.14 342.45 267.30 349.67 C 269.56 349.69 271.81 349.70 274.07 349.71 C 275.63 342.41 277.15 335.10 278.90 327.84 C 276.70 327.85 274.51 327.86 272.32 327.89 M 298.72 349.64 C 300.40 349.68 302.08 349.71 303.77 349.77 L 304.02 348.15 C 304.50 348.81 304.99 349.48 305.49 350.16 C 306.30 349.98 307.92 349.63 308.73 349.45 C 309.01 347.99 309.28 346.53 309.56 345.08 C 308.13 345.69 306.39 345.95 305.55 347.47 C 304.95 347.31 303.74 346.98 303.13 346.82 C 306.59 342.68 306.10 336.89 307.89 332.01 C 307.55 331.57 306.85 330.70 306.50 330.26 C 307.41 329.49 308.30 328.71 309.19 327.92 C 307.40 327.83 305.62 327.83 303.85 327.94 C 301.59 335.01 300.66 342.46 298.72 349.64 M 330.02 336.69 C 330.40 336.39 331.16 335.80 331.54 335.50 C 332.18 332.79 333.87 329.99 333.21 327.17 C 330.53 329.57 330.73 333.45 330.02 336.69 M 334.19 337.06 C 334.59 337.08 335.38 337.12 335.77 337.14 C 336.39 333.76 337.39 330.43 337.48 326.98 C 335.03 329.75 335.15 333.67 334.19 337.06 M 339.63 334.76 C 338.62 339.99 337.15 345.13 336.39 350.40 C 338.41 348.89 338.44 346.20 339.02 343.97 C 340.09 338.34 341.69 332.81 342.46 327.12 C 340.40 329.13 340.27 332.12 339.63 334.76 M 344.38 329.97 C 344.03 332.72 347.24 332.54 349.10 332.42 C 348.99 330.82 348.88 329.23 348.78 327.65 C 347.03 327.93 344.39 327.50 344.38 329.97 M 308.55 333.88 C 307.80 337.06 307.06 340.26 306.64 343.51 C 308.83 341.21 311.15 336.46 308.55 333.88 M 331.40 349.62 C 331.72 349.70 332.37 349.86 332.69 349.94 C 333.76 346.14 334.75 342.29 335.21 338.36 C 332.22 341.30 332.61 345.87 331.40 349.62 M 327.11 350.55 C 330.23 347.92 329.77 343.22 330.61 339.54 C 327.54 342.23 327.83 346.84 327.11 350.55 M 324.59 341.61 C 323.93 344.54 323.28 347.48 322.94 350.47 C 326.10 348.58 325.38 344.30 326.50 341.23 C 326.02 341.33 325.06 341.51 324.59 341.61 M 318.48 349.70 C 319.02 349.69 320.11 349.67 320.65 349.67 C 321.22 347.03 321.76 344.39 322.27 341.74 C 319.00 342.96 319.35 346.90 318.48 349.70 M 314.20 349.67 C 314.81 349.68 316.05 349.70 316.66 349.71 C 317.16 347.41 317.65 345.11 318.00 342.79 C 314.72 343.56 314.96 347.06 314.20 349.67 M 311.22 344.90 C 310.80 346.48 310.36 348.06 309.91 349.63 C 310.61 349.67 312.01 349.74 312.70 349.78 C 313.16 347.91 313.65 346.06 314.13 344.21 C 313.16 344.43 312.18 344.66 311.22 344.90 Z" />
<path fill="#cbcbcb" opacity="1.00" d=" M 174.00 182.96 C 176.00 182.97 178.00 182.99 180.00 183.01 C 180.01 186.00 180.02 189.00 180.02 191.99 C 178.01 192.00 176.01 192.02 174.00 192.03 C 174.00 189.01 174.00 185.98 174.00 182.96 Z" />
<path fill="#009aab" opacity="1.00" d=" M 532.41 195.42 C 548.40 189.28 566.34 188.40 582.92 192.61 C 588.20 193.98 593.80 196.50 596.39 201.62 C 598.55 205.10 597.77 209.34 597.09 213.13 C 592.83 233.79 588.37 254.41 583.92 275.03 C 583.24 277.25 583.95 279.50 584.46 281.67 C 575.68 281.46 566.90 281.79 558.13 281.53 C 557.39 279.99 558.05 278.36 558.27 276.81 C 551.89 280.69 544.27 281.74 536.98 282.54 C 530.48 282.66 523.46 282.57 517.68 279.24 C 510.65 274.81 508.24 265.74 509.14 257.88 C 509.88 250.68 513.09 243.92 517.16 238.01 C 522.66 231.07 530.87 226.51 539.46 224.66 C 548.57 222.92 557.93 222.72 566.97 220.57 C 573.44 219.76 572.90 208.64 566.88 207.53 C 561.53 206.82 555.42 206.38 550.81 209.72 C 547.84 211.93 547.61 215.95 546.75 219.25 C 537.44 219.26 528.12 219.24 518.80 219.26 C 520.96 210.39 522.96 199.38 532.41 195.42 M 540.48 246.40 C 537.21 250.28 536.16 257.09 539.96 260.95 C 545.29 264.34 552.37 262.44 557.48 259.49 C 563.96 255.14 564.41 246.62 566.11 239.72 C 557.36 240.37 547.37 240.02 540.48 246.40 Z" />
<path fill="#009aab" opacity="1.00" d=" M 725.73 197.77 C 740.26 189.39 758.17 189.43 773.97 193.83 C 780.52 195.52 785.58 201.03 787.49 207.41 C 788.52 211.06 787.94 214.86 787.39 218.53 C 779.20 218.58 771.00 218.51 762.82 218.57 C 761.88 216.27 761.42 213.32 758.99 212.08 C 754.43 209.74 748.91 209.45 744.10 211.15 C 742.02 211.80 740.18 213.65 740.33 215.96 C 739.92 219.29 743.30 221.04 745.86 222.16 C 756.45 226.56 768.63 227.81 777.82 235.17 C 782.77 239.20 784.00 245.93 783.75 251.99 C 783.90 260.26 779.09 267.77 773.07 273.06 C 765.65 279.48 755.85 283.42 745.97 282.97 C 737.31 283.18 728.51 282.66 720.24 279.89 C 715.15 278.18 710.54 274.65 708.29 269.69 C 705.35 263.70 705.50 256.80 706.60 250.37 C 714.74 250.31 722.88 250.36 731.02 250.34 C 731.34 253.83 730.89 258.46 734.56 260.39 C 739.79 263.00 746.13 263.08 751.68 261.48 C 754.20 260.81 757.12 258.99 756.95 256.02 C 756.35 251.81 752.16 249.51 748.47 248.36 C 740.77 245.98 732.56 244.66 725.63 240.28 C 720.33 237.13 714.78 232.65 714.16 226.06 C 712.99 215.63 716.34 203.55 725.73 197.77 Z" />
<path fill="#009aab" opacity="1.00" d=" M 436.38 193.45 C 450.26 193.46 464.14 193.38 478.02 193.49 C 487.20 194.16 497.31 196.07 503.67 203.35 C 510.33 210.41 513.04 220.41 512.06 229.96 C 510.77 243.50 506.22 257.54 496.01 267.02 C 487.49 276.51 474.68 281.56 462.04 281.60 C 446.98 281.63 431.93 281.60 416.87 281.61 C 423.47 252.24 429.91 222.84 436.38 193.45 M 457.23 214.35 C 454.19 229.30 451.25 244.26 448.13 259.20 C 454.12 259.24 460.13 259.67 466.11 259.18 C 473.49 257.11 479.43 251.00 481.98 243.85 C 485.20 236.90 485.98 228.92 484.24 221.47 C 483.00 217.57 479.29 214.38 475.12 214.28 C 469.16 214.10 463.19 214.27 457.23 214.35 Z" />
<path fill="#009aab" opacity="1.00" d=" M 601.01 193.46 C 609.52 193.42 618.03 193.44 626.55 193.44 C 628.28 210.15 630.27 226.84 631.93 243.55 C 639.82 226.99 647.13 210.14 654.73 193.44 C 663.94 193.46 673.15 193.41 682.36 193.47 C 668.19 222.76 654.43 252.25 640.41 281.62 C 630.37 281.60 620.34 281.61 610.30 281.62 C 607.23 252.23 604.18 222.83 601.01 193.46 Z" />
<path fill="#009aab" opacity="1.00" d=" M 686.17 193.44 C 695.21 193.43 704.25 193.46 713.29 193.42 C 706.73 222.81 700.30 252.22 693.77 281.61 C 684.72 281.61 675.67 281.60 666.62 281.62 C 673.25 252.25 679.61 222.82 686.17 193.44 Z" />
<path fill="#009aab" opacity="1.00" d=" M 814.13 193.53 C 821.12 193.29 828.13 193.52 835.13 193.45 C 834.41 196.36 833.74 199.28 833.12 202.21 C 830.56 201.50 827.99 200.80 825.44 200.13 C 827.41 203.65 829.38 207.19 831.30 210.75 C 827.58 226.79 824.19 242.91 820.58 258.97 C 820.32 260.65 818.91 261.72 817.77 262.82 C 814.78 265.49 811.74 268.10 808.88 270.90 C 812.12 270.20 815.33 269.34 818.56 268.51 C 817.45 272.85 816.53 277.24 815.60 281.62 C 808.53 281.60 801.46 281.61 794.40 281.61 C 801.17 252.30 807.15 222.78 814.13 193.53 Z" />
<path fill="#009aab" opacity="1.00" d=" M 839.36 193.45 C 844.37 193.43 849.38 193.45 854.39 193.43 C 853.28 197.91 852.36 202.43 851.32 206.93 C 846.53 205.69 841.73 204.46 836.97 203.14 C 837.81 199.92 838.60 196.69 839.36 193.45 Z" />
<path fill="#009aab" opacity="1.00" d=" M 876.57 193.44 C 879.94 193.44 883.30 193.44 886.68 193.45 C 884.93 200.58 883.47 207.78 881.82 214.94 C 878.65 214.11 875.48 213.28 872.33 212.42 C 873.83 206.11 875.18 199.77 876.57 193.44 Z" />
<path fill="#009aab" opacity="1.00" d=" M 894.25 193.44 C 897.10 193.43 899.95 193.44 902.81 193.46 C 900.75 201.91 898.99 210.44 897.10 218.93 C 894.42 218.24 891.74 217.53 889.08 216.84 C 890.82 209.04 892.52 201.24 894.25 193.44 Z" />
<path fill="#009aab" opacity="1.00" d=" M 912.00 193.44 C 914.31 193.44 916.62 193.44 918.93 193.46 C 916.57 203.25 914.55 213.11 912.34 222.94 C 910.16 222.36 907.99 221.78 905.83 221.21 C 907.96 211.97 909.93 202.69 912.00 193.44 Z" />
<path fill="#009aab" opacity="1.00" d=" M 929.20 193.43 C 931.17 193.43 933.14 193.44 935.13 193.46 C 932.49 204.59 930.17 215.80 927.64 226.96 C 925.76 226.46 923.88 225.94 922.02 225.43 C 924.57 214.80 926.75 204.08 929.20 193.43 Z" />
<path fill="#009aab" opacity="1.00" d=" M 947.25 193.44 C 948.92 193.44 950.61 193.44 952.30 193.44 C 949.54 206.07 947.00 218.74 944.34 231.39 C 942.61 230.89 940.89 230.41 939.18 229.95 C 941.88 217.78 944.57 205.61 947.25 193.44 Z" />
<path fill="#009aab" opacity="1.00" d=" M 967.57 193.43 C 968.99 193.44 970.43 193.45 971.88 193.47 C 965.16 222.83 958.82 252.29 952.30 281.70 C 950.86 281.67 949.44 281.65 948.03 281.62 C 954.68 252.26 961.07 222.83 967.57 193.43 Z" />
<path fill="#009aab" opacity="1.00" d=" M 859.34 193.50 C 863.36 193.41 867.39 193.44 871.42 193.44 C 870.00 199.32 868.77 205.24 867.45 211.14 C 863.65 210.18 859.87 209.19 856.09 208.19 C 857.29 203.32 858.37 198.42 859.34 193.50 Z" />
<path fill="#e87b3b" opacity="0.91" d=" M 986.35 194.44 C 992.06 191.22 1000.04 196.49 999.06 203.02 C 999.31 210.00 989.73 214.13 984.66 209.39 C 979.62 205.62 980.67 197.03 986.35 194.44 M 988.39 195.49 C 984.09 196.62 981.72 202.17 984.11 205.98 C 986.36 210.98 995.05 211.06 996.70 205.58 C 999.41 200.41 994.07 193.56 988.39 195.49 Z" />
<path fill="#cf6e34" opacity="0.81" d=" M 986.84 197.13 C 989.26 197.30 993.04 196.30 994.22 199.12 C 995.29 201.08 993.37 202.60 992.08 203.73 C 992.68 205.04 994.43 206.17 993.77 207.77 C 991.49 207.28 990.71 204.28 988.99 202.86 C 988.57 204.86 988.73 207.11 987.24 208.72 C 986.40 204.91 986.64 200.99 986.84 197.13 M 988.40 199.12 C 988.46 199.85 988.58 201.31 988.64 202.04 C 990.10 201.69 991.57 201.36 993.04 200.96 C 992.77 200.47 992.22 199.49 991.95 199.00 C 990.75 199.03 989.57 199.07 988.40 199.12 Z" />
<path fill="#009aab" opacity="1.00" d=" M 834.29 216.43 C 835.98 219.25 837.52 222.16 839.12 225.04 C 837.24 232.62 835.88 240.33 833.81 247.86 C 831.43 250.83 828.28 253.08 825.52 255.68 C 828.65 242.65 831.38 229.52 834.29 216.43 Z" />
<path fill="#cbcbcb" opacity="1.00" d=" M 167.00 218.00 C 171.34 218.00 175.69 218.00 180.03 218.01 C 180.01 248.34 180.02 278.67 180.03 309.00 C 175.68 309.00 171.34 309.00 167.00 309.00 C 167.00 278.67 167.00 248.33 167.00 218.00 Z" />
<path fill="#009aab" opacity="1.00" d=" M 936.97 240.00 C 938.92 239.52 940.87 239.03 942.83 238.55 C 939.33 252.87 936.15 267.27 932.75 281.63 C 931.06 281.62 929.38 281.61 927.71 281.60 C 930.90 267.76 933.86 253.86 936.97 240.00 Z" />
<path fill="#009aab" opacity="1.00" d=" M 917.84 244.65 C 919.93 244.11 922.02 243.58 924.13 243.10 C 921.21 255.91 918.39 268.76 915.61 281.61 C 913.61 281.61 911.62 281.61 909.64 281.62 C 912.47 269.32 915.14 256.98 917.84 244.65 Z" />
<path fill="#009aab" opacity="1.00" d=" M 899.76 248.96 C 902.19 248.39 904.62 247.80 907.07 247.25 C 904.30 258.66 901.94 270.16 899.37 281.61 C 897.06 281.61 894.75 281.61 892.45 281.62 C 895.00 270.76 897.26 259.83 899.76 248.96 Z" />
<path fill="#cbcbcb" opacity="1.00" d=" M 357.02 249.02 C 366.66 248.98 376.31 249.01 385.96 249.00 C 385.99 250.41 386.03 251.83 386.09 253.26 C 388.58 257.68 385.40 263.34 387.93 267.75 C 388.52 272.04 386.92 276.79 388.93 280.75 C 389.06 284.58 388.94 288.42 389.07 292.25 C 391.08 296.21 389.47 300.96 390.07 305.25 C 392.14 309.87 390.41 315.30 391.07 320.25 C 393.54 324.33 390.45 329.67 392.93 333.75 C 393.58 338.70 391.86 344.13 393.93 348.75 C 394.04 352.25 393.95 355.75 394.06 359.25 C 395.63 361.31 394.83 363.97 394.97 366.34 C 394.62 367.01 393.90 368.34 393.54 369.01 C 381.37 368.93 369.19 368.98 357.02 368.98 C 357.03 360.72 357.06 352.47 356.99 344.21 C 357.12 338.73 357.12 333.26 356.99 327.78 C 357.07 301.53 357.02 275.28 357.02 249.02 Z" />
<path fill="#009aab" opacity="1.00" d=" M 881.02 253.49 C 884.01 252.77 887.01 252.04 890.02 251.34 C 887.61 261.39 885.49 271.51 883.27 281.60 C 880.41 281.61 877.56 281.61 874.72 281.62 C 876.91 272.26 878.86 262.85 881.02 253.49 Z" />
<path fill="#009aab" opacity="1.00" d=" M 862.33 258.01 C 865.88 257.15 869.43 256.28 873.00 255.46 C 870.86 264.14 869.09 272.91 867.11 281.62 C 863.74 281.61 860.39 281.61 857.04 281.59 C 858.92 273.76 860.55 265.87 862.33 258.01 Z" />
<path fill="#009aab" opacity="1.00" d=" M 844.17 262.44 C 848.39 261.34 852.64 260.34 856.89 259.32 C 855.08 266.72 853.57 274.19 851.86 281.61 C 847.86 281.61 843.87 281.62 839.88 281.60 C 841.41 275.24 842.76 268.83 844.17 262.44 Z" />
<path fill="#009aab" opacity="1.00" d=" M 823.04 267.50 C 828.28 266.23 833.55 265.04 838.80 263.80 C 837.45 269.73 836.17 275.68 834.82 281.61 C 829.82 281.61 824.82 281.60 819.82 281.62 C 820.99 276.94 821.98 272.21 823.04 267.50 Z" />
<path fill="#a1a1a1" opacity="1.00" d=" M 644.45 303.57 C 652.63 301.42 662.10 302.62 668.62 308.31 C 674.70 313.66 677.02 322.13 676.79 330.00 C 676.98 338.72 673.63 348.18 665.94 352.96 C 655.51 359.32 639.89 357.78 632.42 347.56 C 627.04 340.02 626.29 329.99 628.20 321.16 C 629.96 312.95 636.12 305.56 644.45 303.57 M 647.40 313.54 C 642.41 315.45 639.77 320.81 639.16 325.86 C 638.53 331.67 639.05 338.22 643.14 342.77 C 647.70 348.04 657.05 347.82 661.35 342.33 C 664.39 338.64 665.34 333.68 665.27 329.01 C 665.15 324.22 663.85 319.09 660.23 315.72 C 656.86 312.55 651.64 311.92 647.40 313.54 Z" />
<path fill="#9aba2f" opacity="1.00" d=" M 873.88 307.88 C 881.73 301.50 893.51 300.94 902.34 305.63 C 908.03 308.55 911.51 314.49 912.54 320.67 C 908.82 320.78 905.10 320.73 901.39 320.78 C 899.39 314.90 892.96 311.46 886.94 312.99 C 881.71 313.93 878.32 318.89 877.41 323.83 C 876.32 329.80 876.66 336.52 880.23 341.65 C 884.45 347.84 894.77 348.29 899.56 342.58 C 901.04 340.82 901.43 338.48 902.11 336.36 C 898.32 336.20 894.54 336.25 890.76 336.24 C 890.74 333.32 890.74 330.41 890.75 327.50 C 898.07 327.49 905.40 327.51 912.73 327.49 C 912.72 333.50 913.38 339.90 910.45 345.42 C 907.81 351.13 902.10 354.95 896.02 356.08 C 887.96 357.73 878.75 356.22 872.69 350.33 C 867.07 344.84 865.10 336.62 865.24 328.98 C 865.30 321.24 867.78 313.00 873.88 307.88 Z" />
<path fill="#a1a1a1" opacity="1.00" d=" M 422.75 304.00 C 427.13 304.00 431.52 304.00 435.90 304.00 C 440.54 315.40 445.18 326.80 449.91 338.16 C 454.61 326.78 459.24 315.37 463.97 304.00 C 468.31 304.00 472.65 304.00 477.00 304.00 C 477.00 321.08 477.00 338.17 477.00 355.25 C 473.50 355.25 470.00 355.25 466.50 355.25 C 466.49 344.10 466.53 332.95 466.48 321.80 C 462.21 332.11 457.96 342.43 453.68 352.74 C 451.17 352.74 448.66 352.75 446.16 352.77 C 441.83 342.43 437.59 332.06 433.26 321.72 C 433.24 332.90 433.25 344.07 433.25 355.25 C 429.75 355.25 426.25 355.25 422.75 355.25 C 422.75 338.17 422.75 321.08 422.75 304.00 Z" />
<path fill="#a1a1a1" opacity="1.00" d=" M 489.54 304.01 C 501.02 303.98 512.51 304.01 524.00 304.00 C 524.00 307.24 524.00 310.48 523.97 313.72 C 516.31 313.77 508.66 313.73 501.00 313.75 C 501.00 317.41 501.00 321.08 501.00 324.75 C 508.25 324.76 515.50 324.71 522.74 324.79 C 522.75 327.84 522.75 330.91 522.73 333.97 C 515.48 334.03 508.24 333.98 501.00 334.00 C 501.00 337.83 501.00 341.66 501.00 345.49 C 508.66 345.53 516.32 345.45 523.99 345.54 C 524.00 348.77 524.00 352.01 524.00 355.25 C 512.50 355.25 501.00 355.25 489.50 355.25 C 489.52 338.17 489.45 321.09 489.54 304.01 Z" />
<path fill="#a1a1a1" opacity="1.00" d=" M 532.49 304.01 C 546.41 303.99 560.33 304.01 574.25 304.00 C 574.25 307.24 574.25 310.48 574.22 313.73 C 569.15 313.76 564.07 313.74 559.00 313.75 C 559.00 327.58 559.00 341.41 559.00 355.25 C 555.25 355.25 551.50 355.25 547.75 355.25 C 547.75 341.42 547.74 327.58 547.76 313.75 C 542.67 313.74 537.58 313.75 532.50 313.75 C 532.50 310.50 532.50 307.25 532.49 304.01 Z" />
<path fill="#a1a1a1" opacity="1.00" d=" M 583.75 304.00 C 595.25 304.00 606.75 304.00 618.25 304.00 C 618.25 307.25 618.25 310.50 618.21 313.75 C 610.55 313.75 602.90 313.74 595.25 313.75 C 595.25 317.41 595.25 321.08 595.25 324.75 C 602.41 324.75 609.57 324.76 616.73 324.74 C 616.74 327.82 616.74 330.91 616.75 333.99 C 609.58 334.01 602.41 333.99 595.24 334.00 C 595.25 337.83 595.25 341.66 595.24 345.50 C 602.91 345.52 610.57 345.47 618.23 345.53 C 618.25 348.77 618.25 352.01 618.25 355.25 C 606.75 355.25 595.25 355.25 583.75 355.25 C 583.75 338.17 583.75 321.08 583.75 304.00 Z" />
<path fill="#9aba2f" opacity="1.00" d=" M 687.02 304.03 C 694.68 303.97 702.35 304.01 710.01 303.98 C 713.87 303.94 717.92 304.68 721.07 307.06 C 726.09 310.72 727.35 318.57 723.64 323.58 C 722.21 325.72 719.89 326.92 717.66 328.02 C 720.30 328.90 723.10 329.85 724.96 332.05 C 730.18 337.57 728.86 347.43 722.81 351.81 C 719.45 354.32 715.17 355.28 711.03 355.26 C 703.02 355.25 695.01 355.24 687.00 355.25 C 687.01 338.17 686.97 321.10 687.02 304.03 M 698.50 312.75 C 698.50 316.83 698.50 320.92 698.50 325.00 C 702.86 324.81 707.57 325.68 711.65 323.73 C 715.73 321.84 715.41 315.10 711.19 313.57 C 707.14 312.09 702.71 312.96 698.50 312.75 M 698.50 332.75 C 698.50 337.33 698.50 341.91 698.50 346.49 C 703.39 346.22 708.59 347.33 713.24 345.38 C 717.74 343.30 717.71 335.86 713.12 333.90 C 708.47 332.12 703.36 332.91 698.50 332.75 Z" />
<path fill="#9aba2f" opacity="1.00" d=" M 738.00 304.00 C 745.67 304.02 753.33 303.97 761.00 304.00 C 767.42 303.96 774.33 307.27 776.73 313.53 C 780.10 321.42 777.03 331.60 769.07 335.36 C 772.67 341.95 776.17 348.59 779.68 355.23 C 775.38 355.26 771.08 355.24 766.79 355.25 C 763.59 349.18 760.54 343.04 757.32 336.98 C 754.62 337.00 751.93 337.00 749.24 337.01 C 749.25 343.09 749.24 349.17 749.25 355.25 C 745.49 355.25 741.75 355.25 738.00 355.25 C 738.00 338.17 738.00 321.08 738.00 304.00 M 749.25 313.26 C 749.25 318.17 749.25 323.08 749.24 327.99 C 753.31 327.87 757.46 328.39 761.49 327.64 C 767.43 326.26 768.01 316.91 762.78 314.28 C 758.53 312.40 753.74 313.53 749.25 313.26 Z" />
<path fill="#9aba2f" opacity="1.00" d=" M 789.00 304.00 C 792.74 304.00 796.49 304.00 800.25 304.00 C 800.25 321.08 800.25 338.16 800.25 355.25 C 796.49 355.25 792.74 355.25 789.00 355.25 C 789.00 338.17 789.00 321.08 789.00 304.00 Z" />
<path fill="#9aba2f" opacity="1.00" d=" M 812.75 304.00 C 820.18 304.02 827.62 303.96 835.05 304.01 C 842.73 304.08 850.63 307.97 854.14 315.01 C 858.24 323.29 858.17 333.34 855.09 341.94 C 852.26 349.80 844.24 354.98 836.01 355.21 C 828.25 355.33 820.50 355.20 812.75 355.25 C 812.75 338.16 812.75 321.08 812.75 304.00 M 824.00 313.75 C 824.00 324.33 824.00 334.91 824.00 345.49 C 829.18 345.34 834.86 346.37 839.51 343.48 C 844.07 340.68 845.58 335.04 845.72 330.02 C 845.82 324.92 844.39 319.17 839.97 316.13 C 835.32 312.82 829.33 313.91 824.00 313.75 Z" />
<path fill="#9aba2f" opacity="1.00" d=" M 923.25 304.00 C 934.66 304.00 946.08 304.00 957.50 304.00 C 957.50 307.25 957.50 310.49 957.46 313.74 C 949.81 313.75 942.16 313.75 934.51 313.74 C 934.49 317.41 934.50 321.08 934.50 324.75 C 941.74 324.76 948.99 324.74 956.24 324.76 C 956.25 327.84 956.25 330.92 956.21 333.99 C 948.97 334.00 941.74 334.00 934.50 334.00 C 934.49 337.83 934.49 341.66 934.50 345.50 C 942.16 345.51 949.82 345.47 957.48 345.53 C 957.50 348.76 957.50 352.01 957.50 355.25 C 946.08 355.24 934.66 355.26 923.24 355.24 C 923.26 338.16 923.25 321.08 923.25 304.00 Z" />
<path fill="#ffffff" opacity="1.00" d=" M 234.42 328.42 C 238.22 326.82 242.56 326.72 246.55 327.60 C 248.24 328.05 250.32 328.94 250.30 331.02 C 249.79 337.39 247.79 343.53 246.78 349.83 C 244.50 349.72 242.22 349.64 239.97 349.25 C 236.98 349.60 233.68 350.55 230.85 349.14 C 227.24 346.77 228.79 341.74 230.82 338.83 C 233.44 335.24 238.38 335.68 242.23 334.66 C 243.97 334.67 244.44 333.49 244.00 331.91 C 241.53 330.45 238.52 331.46 237.40 334.08 C 235.17 334.20 232.95 334.28 230.73 334.32 C 231.72 332.27 232.06 329.40 234.42 328.42 M 236.15 341.22 C 234.96 342.75 235.76 345.53 238.02 344.97 C 241.31 345.29 242.24 341.72 243.00 339.29 C 240.68 339.63 237.91 339.37 236.15 341.22 Z" />
<path fill="#ffffff" opacity="1.00" d=" M 281.42 329.33 C 285.24 326.73 290.46 326.71 294.66 328.38 C 296.95 329.32 297.15 332.03 297.49 334.13 C 295.55 334.13 293.61 334.11 291.68 334.07 C 290.02 332.10 287.19 331.21 285.11 333.10 C 287.39 337.05 294.08 335.46 295.95 340.03 C 297.53 344.90 292.85 349.71 288.12 349.91 C 285.01 349.97 281.44 350.30 278.83 348.30 C 276.91 346.87 277.19 344.25 276.85 342.16 C 278.75 342.07 280.66 342.02 282.57 341.98 C 283.55 345.72 287.55 345.16 290.36 344.01 C 288.04 340.60 283.37 341.05 280.46 338.48 C 277.78 336.06 279.00 331.47 281.42 329.33 Z" />
<path fill="#ffffff" opacity="1.00" d=" M 308.98 330.08 C 309.62 328.21 310.89 326.91 312.98 327.32 C 314.39 327.89 315.89 328.02 317.41 327.88 C 317.95 328.52 318.48 329.17 319.02 329.83 L 319.00 327.91 C 319.62 327.87 320.86 327.80 321.49 327.76 C 320.77 329.67 321.23 332.52 319.07 333.49 C 318.37 332.03 317.84 330.51 317.18 329.05 C 317.40 331.19 316.57 332.25 314.71 332.23 C 314.57 330.98 314.12 329.97 313.34 329.18 C 313.14 329.73 312.76 330.84 312.57 331.40 C 311.67 331.07 309.88 330.41 308.98 330.08 Z" />
<path fill="#ffffff" opacity="1.00" d=" M 323.25 327.95 C 323.98 327.88 324.71 327.81 325.45 327.74 C 324.98 329.84 324.61 331.97 323.93 334.02 C 323.48 334.00 322.60 333.97 322.15 333.95 C 322.36 331.93 322.84 329.94 323.25 327.95 Z" />
<path fill="#ffffff" opacity="1.00" d=" M 327.51 328.20 C 328.15 327.99 328.79 327.79 329.44 327.59 C 328.89 330.31 328.30 333.03 327.51 335.70 C 324.97 333.87 327.47 330.64 327.51 328.20 Z" />
<path fill="#ffffff" opacity="1.00" d=" M 210.84 327.87 C 216.73 328.38 225.25 325.80 228.65 332.24 C 231.38 339.41 226.15 349.23 218.08 349.63 C 214.03 349.83 209.98 349.67 205.93 349.67 C 207.74 342.44 209.19 335.13 210.84 327.87 M 215.95 333.02 C 215.20 336.80 214.45 340.58 213.63 344.34 C 215.79 344.10 218.35 344.64 220.14 343.07 C 222.39 341.11 223.15 337.86 222.65 334.99 C 221.77 332.14 218.15 333.41 215.95 333.02 Z" />
<path fill="#ffffff" opacity="1.00" d=" M 251.26 327.86 C 253.33 327.85 255.40 327.85 257.48 327.85 C 258.01 331.99 258.43 336.15 258.81 340.32 C 260.83 336.26 262.57 332.07 264.43 327.94 C 266.69 327.87 268.95 327.84 271.21 327.78 C 267.85 335.12 264.39 342.42 260.92 349.71 C 258.46 349.70 256.01 349.69 253.55 349.68 C 252.63 342.42 252.29 335.10 251.26 327.86 Z" />
<path fill="#ffffff" opacity="1.00" d=" M 272.32 327.89 C 274.51 327.86 276.70 327.85 278.90 327.84 C 277.15 335.10 275.63 342.41 274.07 349.71 C 271.81 349.70 269.56 349.69 267.30 349.67 C 269.14 342.45 270.44 335.10 272.32 327.89 Z" />
<path fill="#ffffff" opacity="1.00" d=" M 298.72 349.64 C 300.66 342.46 301.59 335.01 303.85 327.94 C 305.62 327.83 307.40 327.83 309.19 327.92 C 308.30 328.71 307.41 329.49 306.50 330.26 C 306.85 330.70 307.55 331.57 307.89 332.01 C 306.10 336.89 306.59 342.68 303.13 346.82 C 303.74 346.98 304.95 347.31 305.55 347.47 C 306.39 345.95 308.13 345.69 309.56 345.08 C 309.28 346.53 309.01 347.99 308.73 349.45 C 307.92 349.63 306.30 349.98 305.49 350.16 C 304.99 349.48 304.50 348.81 304.02 348.15 L 303.77 349.77 C 302.08 349.71 300.40 349.68 298.72 349.64 Z" />
<path fill="#ffffff" opacity="1.00" d=" M 330.02 336.69 C 330.73 333.45 330.53 329.57 333.21 327.17 C 333.87 329.99 332.18 332.79 331.54 335.50 C 331.16 335.80 330.40 336.39 330.02 336.69 Z" />
<path fill="#ffffff" opacity="1.00" d=" M 334.19 337.06 C 335.15 333.67 335.03 329.75 337.48 326.98 C 337.39 330.43 336.39 333.76 335.77 337.14 C 335.38 337.12 334.59 337.08 334.19 337.06 Z" />
<path fill="#f7f7f7" opacity="1.00" d=" M 339.63 334.76 C 340.27 332.12 340.40 329.13 342.46 327.12 C 341.69 332.81 340.09 338.34 339.02 343.97 C 338.44 346.20 338.41 348.89 336.39 350.40 C 337.15 345.13 338.62 339.99 339.63 334.76 Z" />
<path fill="#8a8e8f" opacity="1.00" d=" M 344.38 329.97 C 344.39 327.50 347.03 327.93 348.78 327.65 C 348.88 329.23 348.99 330.82 349.10 332.42 C 347.24 332.54 344.03 332.72 344.38 329.97 Z" />
<path fill="#383f41" opacity="1.00" d=" M 215.95 333.02 C 218.15 333.41 221.77 332.14 222.65 334.99 C 223.15 337.86 222.39 341.11 220.14 343.07 C 218.35 344.64 215.79 344.10 213.63 344.34 C 214.45 340.58 215.20 336.80 215.95 333.02 Z" />
<path fill="#f4f4f4" opacity="1.00" d=" M 308.55 333.88 C 311.15 336.46 308.83 341.21 306.64 343.51 C 307.06 340.26 307.80 337.06 308.55 333.88 Z" />
<path fill="#ffffff" opacity="1.00" d=" M 331.40 349.62 C 332.61 345.87 332.22 341.30 335.21 338.36 C 334.75 342.29 333.76 346.14 332.69 349.94 C 332.37 349.86 331.72 349.70 331.40 349.62 Z" />
<path fill="#383f41" opacity="1.00" d=" M 236.15 341.22 C 237.91 339.37 240.68 339.63 243.00 339.29 C 242.24 341.72 241.31 345.29 238.02 344.97 C 235.76 345.53 234.96 342.75 236.15 341.22 Z" />
<path fill="#ffffff" opacity="1.00" d=" M 327.11 350.55 C 327.83 346.84 327.54 342.23 330.61 339.54 C 329.77 343.22 330.23 347.92 327.11 350.55 Z" />
<path fill="#ffffff" opacity="1.00" d=" M 324.59 341.61 C 325.06 341.51 326.02 341.33 326.50 341.23 C 325.38 344.30 326.10 348.58 322.94 350.47 C 323.28 347.48 323.93 344.54 324.59 341.61 Z" />
<path fill="#ffffff" opacity="1.00" d=" M 318.48 349.70 C 319.35 346.90 319.00 342.96 322.27 341.74 C 321.76 344.39 321.22 347.03 320.65 349.67 C 320.11 349.67 319.02 349.69 318.48 349.70 Z" />
<path fill="#ffffff" opacity="1.00" d=" M 314.20 349.67 C 314.96 347.06 314.72 343.56 318.00 342.79 C 317.65 345.11 317.16 347.41 316.66 349.71 C 316.05 349.70 314.81 349.68 314.20 349.67 Z" />
<path fill="#ffffff" opacity="1.00" d=" M 311.22 344.90 C 312.18 344.66 313.16 344.43 314.13 344.21 C 313.65 346.06 313.16 347.91 312.70 349.78 C 312.01 349.74 310.61 349.67 309.91 349.63 C 310.36 348.06 310.80 346.48 311.22 344.90 Z" />
<path fill="#00a4b4" opacity="1.00" d=" M 35.23 375.28 C 39.46 362.41 52.55 353.42 65.99 353.44 C 71.02 353.50 75.94 355.06 80.42 357.27 C 88.11 361.14 93.67 368.26 96.55 376.28 C 95.14 375.79 93.31 374.59 92.01 376.00 C 89.81 378.06 92.81 380.36 93.45 382.48 C 95.57 385.84 92.73 389.31 91.28 392.28 C 92.17 393.22 93.08 394.16 93.98 395.10 C 95.14 394.27 96.30 393.43 97.43 392.57 C 94.85 401.69 89.14 410.12 80.49 414.41 C 71.32 419.32 59.62 419.26 50.49 414.28 C 36.86 407.30 29.61 389.70 35.23 375.28 M 61.58 368.42 C 62.50 369.89 63.50 369.94 64.59 368.59 C 66.72 366.44 65.06 363.47 63.97 361.28 C 61.16 362.34 59.52 365.88 61.58 368.42 M 47.36 368.41 C 44.74 371.16 51.36 377.16 53.04 372.89 C 53.56 370.29 49.91 366.43 47.36 368.41 M 76.14 368.23 C 73.78 369.17 71.58 373.42 74.94 374.56 C 77.36 374.25 79.12 372.16 79.84 369.96 C 79.48 368.32 77.69 367.08 76.14 368.23 M 59.36 372.45 C 52.59 374.51 48.73 382.82 51.78 389.28 C 54.41 396.21 63.84 399.00 69.90 394.83 C 74.65 391.81 76.97 385.35 74.83 380.07 C 72.79 374.01 65.44 370.16 59.36 372.45 M 42.28 382.32 C 40.96 382.96 39.78 384.57 41.47 385.64 C 43.43 387.62 47.92 386.97 48.45 384.10 C 47.55 381.62 44.36 381.78 42.28 382.32 M 79.09 385.89 C 81.44 387.85 84.32 386.12 86.41 384.70 C 85.03 383.00 83.30 381.39 80.90 382.05 C 78.91 381.73 76.49 385.03 79.09 385.89 M 50.37 394.43 C 48.30 395.26 46.00 397.53 46.92 399.96 C 49.33 401.74 52.62 399.60 53.05 396.92 C 53.84 395.39 51.78 393.68 50.37 394.43 M 74.60 393.95 C 74.16 394.53 73.28 395.70 72.84 396.28 C 73.68 399.16 77.56 402.68 79.90 399.14 C 79.49 396.36 77.03 394.81 74.60 393.95 M 62.39 399.44 C 59.82 401.21 60.26 405.65 63.00 407.04 C 66.73 406.28 66.53 398.66 62.39 399.44 Z" />
<path fill="#9aba2f" opacity="1.00" d=" M 80.42 357.27 C 87.74 353.67 96.36 352.06 104.22 354.88 C 115.66 358.12 124.98 368.14 126.92 379.92 C 126.89 385.81 127.88 392.05 125.31 397.58 C 121.53 407.63 112.34 415.21 101.90 417.47 C 94.66 418.59 86.99 418.05 80.49 414.41 C 89.14 410.12 94.85 401.69 97.43 392.57 C 98.45 390.15 99.53 387.65 99.46 384.98 C 99.49 381.82 97.82 379.05 96.55 376.28 C 93.67 368.26 88.11 361.14 80.42 357.27 M 106.32 365.67 C 108.40 368.62 111.17 371.12 112.59 374.53 C 115.21 379.54 115.30 385.42 114.52 390.90 C 113.48 396.35 109.95 400.76 106.81 405.16 C 108.03 406.14 109.10 407.84 110.91 407.38 C 117.07 402.11 120.00 393.84 120.43 385.91 C 120.33 377.26 116.85 368.38 110.18 362.71 C 108.47 360.99 104.98 363.66 106.32 365.67 M 100.39 369.40 C 98.95 370.13 98.21 372.15 99.53 373.37 C 102.43 376.96 105.06 381.25 104.55 386.07 C 104.56 390.69 101.15 394.11 99.34 398.06 C 100.11 399.75 101.97 400.87 103.72 399.76 C 111.98 392.09 111.75 377.19 103.06 369.92 C 102.30 369.13 101.41 368.96 100.39 369.40 Z" />
<path fill="#fdf9f9" opacity="1.00" d=" M 61.58 368.42 C 59.52 365.88 61.16 362.34 63.97 361.28 C 65.06 363.47 66.72 366.44 64.59 368.59 C 63.50 369.94 62.50 369.89 61.58 368.42 Z" />
<path fill="#f7f7f7" opacity="1.00" d=" M 106.32 365.67 C 104.98 363.66 108.47 360.99 110.18 362.71 C 116.85 368.38 120.33 377.26 120.43 385.91 C 120.00 393.84 117.07 402.11 110.91 407.38 C 109.10 407.84 108.03 406.14 106.81 405.16 C 109.95 400.76 113.48 396.35 114.52 390.90 C 115.30 385.42 115.21 379.54 112.59 374.53 C 111.17 371.12 108.40 368.62 106.32 365.67 Z" />
<path fill="#a1a1a1" opacity="1.00" d=" M 475.75 366.50 C 477.24 366.50 478.74 366.50 480.25 366.50 C 480.22 371.00 480.35 375.50 480.11 380.00 C 482.19 377.85 484.81 375.90 487.96 375.98 C 492.93 375.54 497.36 379.36 498.55 384.04 C 500.12 389.89 499.38 397.43 494.03 401.17 C 489.61 404.08 483.60 402.80 480.11 399.03 C 480.16 399.83 480.26 401.44 480.30 402.25 C 478.78 402.24 477.26 402.24 475.75 402.25 C 475.75 390.33 475.75 378.42 475.75 366.50 M 485.41 380.50 C 480.05 382.28 479.34 389.35 481.03 393.97 C 482.31 398.10 487.82 399.97 491.29 397.30 C 494.86 394.47 495.09 389.11 493.84 385.07 C 492.85 381.58 488.91 379.25 485.41 380.50 Z" />
<path fill="#cbcbcb" opacity="1.00" d=" M 168.00 367.00 C 172.00 367.00 176.00 367.00 180.00 367.00 C 180.00 388.00 180.00 409.00 180.00 430.00 C 176.00 430.00 172.00 430.00 168.00 430.00 C 168.00 409.00 167.99 388.00 168.00 367.00 Z" />
<path fill="#9f9f9f" opacity="1.00" d=" M 193.47 367.00 L 194.93 367.00 C 195.03 369.67 195.12 372.34 195.22 375.01 C 246.30 375.23 297.39 375.06 348.48 375.12 C 348.50 378.74 348.46 382.37 348.42 385.99 C 299.59 386.01 250.76 386.00 201.93 385.99 C 199.17 386.04 196.42 386.21 193.67 386.39 C 193.60 379.93 193.44 373.46 193.47 367.00 Z" />
<path fill="#8a8a89" opacity="1.00" d=" M 194.93 367.00 C 246.07 367.02 297.22 366.97 348.36 367.02 C 348.41 369.72 348.46 372.42 348.48 375.12 C 297.39 375.06 246.30 375.23 195.22 375.01 C 195.12 372.34 195.03 369.67 194.93 367.00 Z" />
<path fill="#cbcbcb" opacity="1.00" d=" M 348.36 367.02 C 348.61 367.02 349.10 367.02 349.35 367.02 C 349.38 380.35 348.92 393.67 348.98 406.99 C 297.33 406.97 245.67 406.96 194.02 407.00 C 193.89 400.13 194.14 393.25 193.67 386.39 C 196.42 386.21 199.17 386.04 201.93 385.99 C 250.76 386.00 299.59 386.01 348.42 385.99 C 348.46 382.37 348.50 378.74 348.48 375.12 C 348.46 372.42 348.41 369.72 348.36 367.02 M 194.93 397.02 C 194.85 400.04 194.81 403.08 194.81 406.11 C 215.85 406.53 236.91 406.10 257.96 406.25 C 288.04 406.17 318.12 406.42 348.20 406.12 C 348.19 403.08 348.17 400.05 348.14 397.02 C 297.07 396.98 246.00 396.99 194.93 397.02 Z" />
<path fill="#a1a1a1" opacity="1.00" d=" M 655.75 366.50 C 657.32 366.50 658.91 366.50 660.50 366.50 C 660.48 370.89 660.57 375.29 660.39 379.68 C 664.51 374.02 675.19 374.83 676.91 382.15 C 677.69 388.80 677.04 395.56 677.25 402.25 C 675.74 402.24 674.24 402.24 672.75 402.25 C 672.71 397.14 672.81 392.03 672.74 386.93 C 672.70 384.90 672.37 382.56 670.64 381.25 C 667.10 378.69 661.04 380.85 660.63 385.43 C 660.29 391.03 660.60 396.64 660.50 402.25 C 658.91 402.24 657.33 402.24 655.75 402.25 C 655.75 390.33 655.75 378.42 655.75 366.50 Z" />
<path fill="#9aba2f" opacity="1.00" d=" M 735.53 369.50 C 740.87 365.57 750.04 366.17 753.45 372.36 C 755.70 376.80 753.50 382.26 749.08 384.30 C 754.80 385.59 757.26 392.57 754.41 397.46 C 750.71 403.60 741.75 404.52 735.85 401.24 C 732.79 399.67 731.59 396.30 730.85 393.17 C 732.37 393.08 733.91 393.01 735.45 392.97 C 736.68 398.86 744.72 400.72 748.88 396.80 C 751.53 394.49 751.10 389.71 748.08 387.92 C 745.28 386.21 741.84 386.87 738.74 386.72 C 738.74 385.32 738.74 383.93 738.75 382.55 C 742.18 382.51 746.51 383.03 748.66 379.66 C 750.99 376.17 747.98 371.39 743.97 371.38 C 740.10 370.72 736.82 373.59 736.06 377.25 C 734.51 377.24 732.97 377.23 731.44 377.21 C 732.19 374.40 732.96 371.23 735.53 369.50 Z" />
<path fill="#faf7f7" opacity="1.00" d=" M 47.36 368.41 C 49.91 366.43 53.56 370.29 53.04 372.89 C 51.36 377.16 44.74 371.16 47.36 368.41 Z" />
<path fill="#f7f6f6" opacity="1.00" d=" M 76.14 368.23 C 77.69 367.08 79.48 368.32 79.84 369.96 C 79.12 372.16 77.36 374.25 74.94 374.56 C 71.58 373.42 73.78 369.17 76.14 368.23 Z" />
<path fill="#9aba2f" opacity="1.00" d=" M 762.31 389.34 C 766.66 382.13 771.15 374.99 775.83 367.99 C 778.05 367.99 780.28 368.00 782.51 368.02 C 782.49 375.68 782.50 383.34 782.50 391.00 C 784.07 391.00 785.66 391.00 787.25 391.00 C 787.24 392.41 787.24 393.83 787.25 395.25 C 785.65 395.24 784.07 395.25 782.50 395.25 C 782.49 397.58 782.49 399.91 782.50 402.25 C 780.91 402.24 779.33 402.24 777.75 402.25 C 777.74 399.91 777.74 397.58 777.75 395.25 C 772.19 395.24 766.64 395.27 761.09 395.23 C 761.27 393.23 761.07 391.06 762.31 389.34 M 766.33 391.00 C 770.13 391.00 773.94 391.00 777.76 391.00 C 777.75 384.94 777.75 378.90 777.76 372.85 C 773.78 378.79 769.95 384.84 766.33 391.00 Z" />
<path fill="#f7f7f7" opacity="1.00" d=" M 100.39 369.40 C 101.41 368.96 102.30 369.13 103.06 369.92 C 111.75 377.19 111.98 392.09 103.72 399.76 C 101.97 400.87 100.11 399.75 99.34 398.06 C 101.15 394.11 104.56 390.69 104.55 386.07 C 105.06 381.25 102.43 376.96 99.53 373.37 C 98.21 372.15 98.95 370.13 100.39 369.40 Z" />
<path fill="#a1a1a1" opacity="1.00" d=" M 639.25 370.00 C 640.74 370.00 642.24 370.00 643.75 370.00 C 643.74 372.16 643.74 374.33 643.75 376.50 C 645.66 376.49 647.59 376.50 649.52 376.50 C 649.49 377.82 649.48 379.15 649.47 380.48 C 647.55 380.49 645.64 380.50 643.75 380.51 C 643.90 385.65 643.40 390.82 644.02 395.94 C 644.32 398.69 647.57 398.13 649.56 398.44 C 649.50 399.77 649.47 401.12 649.43 402.47 C 645.90 402.60 640.56 402.76 639.58 398.37 C 638.82 392.46 639.46 386.45 639.25 380.50 C 637.91 380.49 636.58 380.50 635.25 380.50 C 635.24 379.16 635.24 377.83 635.25 376.50 C 636.58 376.49 637.91 376.50 639.25 376.50 C 639.25 374.33 639.25 372.17 639.25 370.00 Z" />
<path fill="#f7f7f7" opacity="1.00" d=" M 59.36 372.45 C 65.44 370.16 72.79 374.01 74.83 380.07 C 76.97 385.35 74.65 391.81 69.90 394.83 C 63.84 399.00 54.41 396.21 51.78 389.28 C 48.73 382.82 52.59 374.51 59.36 372.45 M 60.37 377.48 C 55.37 379.24 53.86 386.55 58.22 389.85 C 61.99 393.73 68.93 391.45 70.43 386.47 C 72.49 380.87 65.70 374.84 60.37 377.48 Z" />
<path fill="#f7f7f7" opacity="1.00" d=" M 92.01 376.00 C 93.31 374.59 95.14 375.79 96.55 376.28 C 97.82 379.05 99.49 381.82 99.46 384.98 C 99.53 387.65 98.45 390.15 97.43 392.57 C 96.30 393.43 95.14 394.27 93.98 395.10 C 93.08 394.16 92.17 393.22 91.28 392.28 C 92.73 389.31 95.57 385.84 93.45 382.48 C 92.81 380.36 89.81 378.06 92.01 376.00 Z" />
<path fill="#a1a1a1" opacity="1.00" d=" M 521.15 376.48 C 522.78 376.49 524.42 376.49 526.07 376.50 C 522.69 385.68 519.30 394.87 515.93 404.05 C 515.04 406.29 514.07 408.71 512.05 410.18 C 510.00 411.64 507.37 411.41 505.00 411.43 C 504.99 410.10 504.99 408.78 505.00 407.47 C 508.52 408.05 511.54 405.62 511.63 402.02 C 508.79 393.44 505.40 385.04 502.34 376.53 C 504.01 376.51 505.68 376.49 507.36 376.48 C 509.67 383.34 511.90 390.22 514.26 397.06 C 516.58 390.21 518.83 383.33 521.15 376.48 Z" />
<path fill="#a1a1a1" opacity="1.00" d=" M 584.41 379.45 C 588.87 374.51 598.01 374.77 601.80 380.39 C 603.95 383.39 604.03 387.20 604.09 390.75 C 597.95 390.76 591.82 390.72 585.69 390.77 C 586.30 393.30 586.93 396.20 589.38 397.62 C 592.82 399.63 597.32 398.40 599.58 395.22 C 601.08 395.25 602.59 395.29 604.11 395.35 C 601.30 404.40 586.97 405.46 582.79 397.03 C 580.27 391.53 580.41 384.23 584.41 379.45 M 585.67 386.96 C 590.29 387.02 594.91 387.03 599.54 386.95 C 598.79 383.79 596.83 380.00 593.04 380.21 C 588.99 379.71 586.49 383.49 585.67 386.96 Z" />
<path fill="#a1a1a1" opacity="1.00" d=" M 609.57 383.21 C 611.22 376.22 620.03 374.36 625.82 377.16 C 628.32 378.40 629.96 381.09 629.96 383.88 C 630.09 390.00 629.95 396.13 630.00 402.25 C 628.55 402.24 627.11 402.24 625.67 402.24 C 625.74 401.41 625.88 399.76 625.94 398.93 C 622.76 402.44 617.54 403.97 613.15 401.80 C 608.22 399.72 607.32 391.87 611.92 388.98 C 616.05 386.41 621.16 387.30 625.77 386.61 C 625.30 384.76 625.56 382.34 623.75 381.16 C 620.57 379.16 616.16 380.19 614.02 383.24 C 612.53 383.23 611.05 383.22 609.57 383.21 M 615.77 391.73 C 613.43 392.50 613.04 395.68 614.70 397.34 C 617.31 399.36 621.30 398.79 623.70 396.68 C 625.34 395.12 625.30 392.67 625.81 390.63 C 622.47 390.88 618.96 390.54 615.77 391.73 Z" />
<path fill="#a1a1a1" opacity="1.00" d=" M 686.59 379.61 C 690.95 374.65 700.01 374.64 703.92 380.16 C 706.23 383.17 706.33 387.10 706.63 390.72 C 700.40 390.80 694.17 390.69 687.94 390.79 C 688.69 393.16 689.19 395.97 691.42 397.46 C 694.20 399.24 698.20 398.88 700.56 396.52 C 702.01 394.75 704.39 395.37 706.39 395.20 C 703.89 404.44 689.13 405.51 685.11 396.96 C 682.58 391.54 682.72 384.38 686.59 379.61 M 687.96 386.89 C 692.59 387.05 697.22 387.06 701.85 386.89 C 701.14 383.56 698.94 379.79 695.00 380.21 C 691.05 379.82 688.96 383.69 687.96 386.89 Z" />
<path fill="#a1a1a1" opacity="1.00" d=" M 712.75 376.50 C 714.27 376.50 715.80 376.50 717.34 376.51 C 717.26 377.19 717.12 378.56 717.05 379.25 C 719.52 376.66 722.95 375.65 726.48 375.88 C 726.49 377.42 726.51 378.98 726.55 380.53 C 723.20 380.25 718.77 380.71 717.69 384.53 C 717.20 390.41 717.64 396.34 717.50 402.25 C 715.91 402.24 714.32 402.24 712.75 402.25 C 712.75 393.67 712.75 385.08 712.75 376.50 Z" />
<path fill="#a1a1a1" opacity="1.00" d=" M 806.58 381.83 C 809.79 375.21 819.79 374.03 824.93 379.00 C 826.56 380.49 827.19 382.68 828.03 384.65 C 826.51 384.70 825.01 384.76 823.51 384.81 C 822.22 382.84 820.74 380.50 818.15 380.31 C 813.98 379.34 810.26 383.01 809.86 386.97 C 809.17 391.20 810.33 396.94 815.03 398.29 C 818.57 399.42 822.09 397.26 823.46 393.97 C 824.98 394.01 826.51 394.07 828.06 394.15 C 827.13 396.35 826.42 398.86 824.44 400.37 C 819.08 404.43 810.16 403.35 806.80 397.22 C 804.31 392.56 804.32 386.58 806.58 381.83 Z" />
<path fill="#a1a1a1" opacity="1.00" d=" M 840.43 376.54 C 845.70 374.86 852.49 376.79 854.83 382.14 C 856.88 386.93 856.91 392.82 854.37 397.44 C 850.17 405.00 837.10 404.45 833.79 396.36 C 830.86 389.54 832.26 378.86 840.43 376.54 M 841.45 380.75 C 836.73 383.10 836.48 389.57 837.94 393.99 C 839.25 399.11 846.94 400.14 849.83 395.89 C 852.01 392.56 851.96 388.11 850.70 384.45 C 849.49 380.74 844.85 379.27 841.45 380.75 Z" />
<path fill="#a1a1a1" opacity="1.00" d=" M 862.75 376.51 C 864.16 376.50 865.57 376.49 867.01 376.49 C 866.99 377.33 866.97 379.01 866.95 379.85 C 870.20 374.67 878.16 374.80 881.43 379.88 C 883.99 376.89 888.02 375.11 891.95 376.27 C 895.12 376.83 897.34 379.73 897.56 382.87 C 898.00 389.32 897.62 395.80 897.74 402.26 C 896.15 402.25 894.57 402.24 893.00 402.24 C 892.90 396.14 893.19 390.03 892.88 383.95 C 892.45 379.72 886.47 379.11 883.98 381.89 C 882.53 383.18 882.48 385.22 882.49 387.01 C 882.47 392.09 882.51 397.17 882.50 402.25 C 880.90 402.24 879.32 402.24 877.75 402.25 C 877.58 395.84 878.09 389.40 877.50 383.02 C 875.59 378.55 868.50 379.89 867.58 384.42 C 866.81 390.31 867.45 396.31 867.25 402.25 C 865.74 402.24 864.24 402.24 862.75 402.25 C 862.75 393.67 862.75 385.09 862.75 376.51 Z" />
<path fill="#00a4b4" opacity="1.00" d=" M 60.37 377.48 C 65.70 374.84 72.49 380.87 70.43 386.47 C 68.93 391.45 61.99 393.73 58.22 389.85 C 53.86 386.55 55.37 379.24 60.37 377.48 Z" />
<path fill="#a1a1a1" opacity="1.00" d=" M 543.23 376.49 C 544.79 376.49 546.36 376.50 547.94 376.51 C 549.61 383.09 551.21 389.69 552.83 396.29 C 554.80 389.74 556.56 383.12 558.40 376.52 C 559.87 376.51 561.35 376.50 562.83 376.50 C 564.66 383.16 566.53 389.80 568.42 396.44 C 569.98 389.78 571.65 383.15 573.30 376.51 C 574.85 376.50 576.40 376.50 577.96 376.50 C 575.64 385.10 573.14 393.65 570.81 402.24 C 569.26 402.23 567.71 402.23 566.17 402.23 C 564.28 395.82 562.49 389.38 560.56 382.99 C 558.77 389.43 556.84 395.82 555.04 402.26 C 553.48 402.24 551.94 402.23 550.40 402.22 C 548.06 393.63 545.60 385.07 543.23 376.49 Z" />
<path fill="#fffcfb" opacity="1.00" d=" M 42.28 382.32 C 44.36 381.78 47.55 381.62 48.45 384.10 C 47.92 386.97 43.43 387.62 41.47 385.64 C 39.78 384.57 40.96 382.96 42.28 382.32 Z" />
<path fill="#fffcfb" opacity="1.00" d=" M 79.09 385.89 C 76.49 385.03 78.91 381.73 80.90 382.05 C 83.30 381.39 85.03 383.00 86.41 384.70 C 84.32 386.12 81.44 387.85 79.09 385.89 Z" />
<path fill="#f6f6f6" opacity="1.00" d=" M 50.37 394.43 C 51.78 393.68 53.84 395.39 53.05 396.92 C 52.62 399.60 49.33 401.74 46.92 399.96 C 46.00 397.53 48.30 395.26 50.37 394.43 Z" />
<path fill="#fcf9f8" opacity="1.00" d=" M 74.60 393.95 C 77.03 394.81 79.49 396.36 79.90 399.14 C 77.56 402.68 73.68 399.16 72.84 396.28 C 73.28 395.70 74.16 394.53 74.60 393.95 Z" />
<path fill="#a1a1a1" opacity="1.00" d=" M 794.28 396.23 C 796.46 394.70 800.07 397.26 799.17 399.88 C 798.87 402.87 794.10 403.55 792.95 400.86 C 791.90 399.27 792.69 397.10 794.28 396.23 Z" />
<path fill="#e8e8e9" opacity="1.00" d=" M 194.93 397.02 C 246.00 396.99 297.07 396.98 348.14 397.02 C 348.17 400.05 348.19 403.08 348.20 406.12 C 318.12 406.42 288.04 406.17 257.96 406.25 C 236.91 406.10 215.85 406.53 194.81 406.11 C 194.81 403.08 194.85 400.04 194.93 397.02 Z" />
<path fill="#fdf9f8" opacity="1.00" d=" M 62.39 399.44 C 66.53 398.66 66.73 406.28 63.00 407.04 C 60.26 405.65 59.82 401.21 62.39 399.44 Z" />
</svg>
