<svg width="50" height="50" viewBox="0 0 431 306" xmlns="http://www.w3.org/2000/svg"><path fill="#00a4b4" stroke="#00a4b4" stroke-width=".1" d="M91 30c39-20 87.4-19.5 126 1 28.5 14.6 51.5 39.5 64 69 2.4 5.6 4 11.4 6 17.2-3.2-3.6-6.6-8.2-12-8.4-7-.7-13.3 6.2-12 13 .6 4.8 4.8 7.4 7.3 11 7.6 10 8 25 1 35.4-2.2 3.6-6 6.4-6.4 10.7-1 6.7 5 13.3 12 12.6 5.6-.2 8.8-5.5 12-9.3-5 23-15.5 45-31 62.7-11.5 13-25.4 24.2-41 32.3-25.3 13.2-54.7 18-83 14.2-28.8-3.8-56.2-17.2-77-37.4-22.2-21-37-49.7-41.3-80-3.7-25.7-.2-52.3 10.4-76 13-29.3 36.3-53.8 65-68m48.5 21.6C133 55 131 63.3 132 70c.6 5.6 3.7 12.3 10 13.2 4 .2 7.3-3 9-6.2 3.4-7 3-16-1.7-22.3-2.2-3-6.3-4.7-9.8-3M77.3 77.3C74 78.4 72 81.7 72 85c0 7 4.8 13 10.4 16.7 4 2.5 10 4 14 .8 4.2-3.5 3.3-9.6 1-13.8-3.8-7-11.8-13.2-20-11.3m124.8-.2c-7.4 1.6-13.7 7.7-16 15-1.2 3.6-.6 8.4 3 10.7 3.4 2.2 8 1.4 11.6-.4 5.4-2.6 10-7.6 11.7-13.5.8-3 1-6.6-1.3-9.2-2-2.6-5.8-3.3-9-2.6m-65 17c-10 1-20 5-27.8 11-11 8.7-18.5 21.8-20 35.7-2 14 2.2 28.5 11 39.6 8.8 11.4 22.4 19 36.8 20.2 17.4 2 35.4-5.5 46.5-19 9.4-11.2 14-26.4 12-41-1.7-14-9.3-27.3-20.7-36-10.6-8-24.5-12-38-10.6m-80.6 43.3c-5.7 1-12.4 6.4-9.8 12.8 4 7.7 14.4 9.2 22 7 4.4-1.3 9-4.4 9.6-9.3.2-3.4-2.2-6.5-5-8.2-5-3-11.2-3.8-16.8-2.3m160 .2c-4.3 1.2-9 4.3-9.6 9.2-.3 3.7 2.5 7 5.6 8.6 6.4 3.6 14.7 3.5 21 0 3.2-1.8 6-5 5.6-8.6-.2-3.3-2.7-6-5.5-7.5-5-3-11.4-3.5-17-1.8m-130 53.8C79 194 72.6 201 72 209c-.5 4.2 2.6 8.6 7 9 7.8.6 14.8-5 18.3-11.7 2-3.8 3.2-9 .2-12.8-2.7-3.2-7.5-3.4-11-2m103.8 0c-4.4 1.7-5.5 7.3-4 11.4 2.5 8 10 15 18.7 15 4.4.2 8.2-3.7 8-8 0-6.7-4.4-12.6-9.7-16.2-3.8-2.5-8.6-4.2-13-2.4m-51 21c-3.3 1.7-5.4 5.2-6.5 8.7-2 7-1.2 15 3.8 20.4 3 3.3 8.7 3.4 11.7 0 6-6.5 6.4-17 2-24.6-2-3.6-6.8-6.4-11-4.3z"/><path fill="#9aba2f" stroke="#9aba2f" stroke-width=".1" d="M217 31c25-13.2 54-18.2 82-14.5 29.5 3.7 57.4 17.3 78.6 38 22 21 36.5 49.4 40.8 79.4 3.7 26 0 53.4-11 77.4-13.8 30.8-39.4 56-70.3 69.6-37.7 17-83.2 15.5-120-3.8 15.6-8 29.5-19 41-32.2 15.5-17.8 26-39.7 31-62.7 6.5-9 10-20.2 10-31.3 0-12.2-4.4-24.2-12-33.8-2-5.8-3.6-11.6-6-17.2-12.5-29.5-35.5-54.4-64-69m119.4 21.4c-6 1.2-10 7.7-8.5 13.6.6 3.5 3.3 6 5.7 8.3 20.7 20.5 32.7 49.5 32.2 78.7 0 27.4-10.8 54.5-29.4 74.5-4.2 4-4.8 11.3-.8 15.7 4 5 12 5.6 16.2.8 28.7-29.3 41.7-72.7 35-113-4.6-28.8-19-56-40.3-75.8-2.7-2.6-6.7-3.6-10.3-2.8m-34 31.2c-7 3-8.4 13.6-2.6 18.5 13.5 13 21.3 31.4 21 50 0 14.3-5.3 28.4-14 40-2.6 3.4-6.7 6.3-7 11-1.2 7 5.3 13.7 12.2 12.8 6.4-.6 10-6.6 13.6-11.2 11-14.4 17-32.5 17.8-50.6 1-25.6-9.6-51.5-28.5-68.8-3.5-3-8.6-3.7-12.5-1.6z"/><path fill="#f7f7f7" stroke="#f7f7f7" stroke-width=".1" d="M139.5 51.6c3.5-1.6 7.6 0 9.8 3C154 61 154.3 70 151 77c-1.8 3.3-5 6.4-9 6.2-6.3-1-9.4-7.6-10-13.2-1-6.7 1-15 7.5-18.4zM336.4 52.4c3.6-.8 7.6.2 10.3 2.8 21.3 20 35.7 47 40.3 75.8 6.7 40.3-6.3 83.7-35 113-4.3 4.8-12.3 4-16.2-.8-4-4.4-3.4-11.6.8-15.7 18.6-20 29.4-47 29.3-74.5.4-29.2-11.6-58.2-32.3-78.7-2.4-2.4-5-4.8-5.8-8.3-1.6-6 2.4-12.4 8.4-13.6zM77.3 77.4c8.3-2 16.3 4.3 20 11.3 2.4 4.2 3.3 10.3-.8 13.8-4 3.2-10 1.7-14-.8C76.7 98 72 92 72 85c0-3.3 2-6.6 5.3-7.6zM202.2 77.2c3.2-.7 7 0 9 2.6 2.2 2.6 2 6.3 1.3 9.3-1.8 6-6.3 11-11.7 13.6-3.6 1.8-8.2 2.6-11.7.3-3.4-2.4-4-7.2-2.8-11 2.3-7 8.6-13.2 16-14.8z"/><path fill="#f7f7f7" stroke="#f7f7f7" stroke-width=".1" d="M302.5 83.6c4-2 9-1.4 12.4 1.6 18.8 17.3 29.4 43.2 28.4 68.8-.7 18-6.7 36.2-17.8 50.6-3.6 4.6-7.2 10.6-13.6 11.2-7 1-13.4-5.8-12.3-12.7.4-4.7 4.5-7.6 7.2-11 8.5-11.6 13.7-25.7 13.7-40 .4-18.6-7.4-37-21-50-5.7-4.8-4.3-15.4 2.8-18.4zM137 94.2c13.5-1.5 27.4 2.5 38 10.7 11.4 8.5 19 21.8 20.7 36 2 14.4-2.6 29.6-12 40.8-11 13.5-29 21-46.5 19-14.4-1.3-28-8.8-37-20.2-8.6-11-12.8-25.7-11-39.7 1.7-14 9.2-27 20.2-35.7 8-6.2 17.7-10.2 27.7-11m-3.6 22.3c-13 3.8-23 16.6-23 30.4-.5 12.5 7.4 24.8 19 29.8 11.5 5.5 26.2 3 35.3-6 10.6-9.8 13-27 5.7-39.2-7-12.7-23-19.3-37-15z"/><path fill="#f7f7f7" stroke="#f7f7f7" stroke-width=".1" d="M263 122c-1.3-7 5-14 12-13.2 5.4.2 8.8 4.8 12 8.4 7.6 9.6 12 21.6 12 33.8 0 11-3.5 22.2-10 31.3-3.2 3.8-6.4 9-12 9.3-7 .7-13-6-12-12.7.3-4.4 4-7.2 6.2-10.8 7-10.5 6.7-25.3-1-35.4-2.4-3.6-6.6-6.2-7-11z"/><path fill="#00a4b4" stroke="#00a4b4" stroke-width=".1" d="M133.4 116.6c14-4.3 30 2.3 37 15 7.4 12.3 5 29.4-5.7 39-9 9-23.8 11.7-35.4 6.2-11.5-5-19.4-17.3-19-29.8 0-13.8 10-26.7 23-30.4z"/><path fill="#f7f7f7" stroke="#f7f7f7" stroke-width=".1" d="M56.4 137.5c5.6-1.5 12-.8 16.8 2.3 2.8 1.7 5.2 4.8 5 8.2-.6 5-5.2 8-9.6 9.3-7.6 2.2-18 .7-22-7-2.6-6.4 4-11.7 9.8-12.8zM216.4 137.7c5.7-1.7 12-1 17 1.8 3 1.5 5.4 4.2 5.6 7.5.3 3.7-2.4 6.8-5.5 8.5-6.4 3.6-14.7 3.7-21 0-3.2-1.6-6-4.8-5.7-8.6.6-5 5.3-8 9.6-9.3zM86.4 191.5c3.6-1.4 8.4-1.2 11 2 3 3.7 2 9 0 12.8-3.6 6.6-10.7 12.3-18.5 11.6-4.4-.4-7.5-4.8-7-9 .7-8 7-15 14.4-17.5zM190.3 191.4c4.4-1.8 9.2 0 13 2.4 5.3 3.6 9.7 9.5 9.7 16 .2 4.5-3.6 8.4-8 8.2-8.6 0-16.2-7-18.7-15-1.5-4.2-.4-9.8 4-11.6zM139.4 212.5c4-2 8.8.7 10.8 4.3 4.5 7.5 4 18-2 24.6-3 3.4-8.6 3.3-11.6 0-5-5.3-6-13.5-3.8-20.3 1-3.4 3.2-7 6.6-8.5z"/></svg>