<?xml version="1.0" encoding="UTF-8" ?>
<svg id="weather34 Davis Meteobridge logo" width="1024pt" height="448pt" viewBox="0 0 1024 448" version="1.1" xmlns="http://www.w3.org/2000/svg">
<path fill="#383f41" opacity="1.00" d=" M 135.52 55.55 C 139.69 51.31 144.65 46.79 151.01 46.96 C 155.92 47.24 161.16 46.05 165.82 47.94 C 168.76 49.41 166.72 52.44 165.71 54.52 C 159.44 66.53 153.11 78.51 146.84 90.53 C 145.61 92.29 144.87 95.56 142.12 95.12 C 125.85 95.14 109.57 95.10 93.29 95.13 C 93.30 100.02 93.31 104.91 93.26 109.80 C 104.46 111.88 116.65 109.26 127.12 114.77 C 136.87 120.03 144.67 128.33 151.00 137.32 C 157.76 148.43 165.31 159.04 172.01 170.19 C 172.49 170.48 173.44 171.05 173.92 171.34 C 173.89 172.05 173.84 173.49 173.81 174.21 C 178.24 174.38 182.67 174.41 187.10 174.16 C 188.06 175.26 189.69 176.20 189.43 177.90 C 189.55 184.47 189.46 191.03 189.40 197.60 C 188.88 197.52 187.83 197.36 187.31 197.28 C 182.85 196.96 178.35 196.84 173.88 197.19 C 173.61 197.21 173.07 197.25 172.79 197.28 C 170.73 191.43 173.91 184.45 169.73 179.34 C 161.66 166.71 153.48 154.15 145.60 141.41 C 138.20 130.89 128.41 120.28 115.02 118.35 C 107.75 118.35 100.57 116.96 93.29 117.16 C 93.29 120.10 93.29 123.04 93.29 125.99 C 92.41 126.00 90.63 126.02 89.74 126.03 C 90.18 127.04 90.63 128.06 91.07 129.07 C 94.19 127.97 98.13 127.79 100.34 130.71 C 104.03 134.58 101.28 141.72 95.98 142.20 C 92.06 142.99 89.04 139.78 87.79 136.42 C 84.81 137.47 81.15 137.73 78.91 135.08 C 76.32 132.67 76.85 128.93 78.04 125.97 C 77.21 125.98 75.56 126.00 74.73 126.01 C 74.74 115.72 74.72 105.43 74.74 95.14 C 66.15 94.79 57.42 95.95 48.96 94.10 C 46.57 93.64 45.74 91.16 44.63 89.34 C 46.18 87.24 48.04 85.02 50.90 84.99 C 58.62 84.20 66.39 84.87 74.13 84.58 C 75.07 83.28 76.23 82.06 77.93 81.95 C 81.97 81.58 86.07 81.57 90.11 81.96 C 91.80 82.10 92.93 83.38 93.90 84.62 C 98.03 84.87 102.57 84.72 105.85 81.83 C 115.92 73.28 125.56 64.23 135.52 55.55 M 45.49 89.20 C 46.85 92.25 49.67 94.06 53.07 93.47 C 52.52 91.07 54.42 86.38 51.00 85.90 C 48.68 85.91 47.15 87.86 45.49 89.20 Z" />
<path fill="#9aba2f" opacity="1.00" d=" M 45.49 89.20 C 47.15 87.86 48.68 85.91 51.00 85.90 C 54.42 86.38 52.52 91.07 53.07 93.47 C 49.67 94.06 46.85 92.25 45.49 89.20 Z" />
<path fill="#cbcbcb" opacity="1.00" d=" M 209.98 101.98 C 210.49 101.98 211.51 101.98 212.02 101.98 C 212.02 117.99 212.02 134.01 212.02 150.02 C 211.51 150.02 210.49 150.02 209.98 150.02 C 209.98 134.01 209.98 117.99 209.98 101.98 Z" />
<path fill="#cbcbcb" opacity="1.00" d=" M 226.98 101.98 C 227.49 101.98 228.51 101.98 229.02 101.98 C 229.02 117.99 229.02 134.01 229.02 150.02 C 228.51 150.02 227.49 150.02 226.98 150.02 C 226.98 134.01 226.98 117.99 226.98 101.98 Z" />
<path fill="#cbcbcb" opacity="1.00" d=" M 243.98 101.98 C 244.49 101.98 245.51 101.98 246.02 101.98 C 246.02 117.99 246.02 134.00 246.02 150.02 C 245.51 150.02 244.49 150.02 243.98 150.02 C 243.98 134.01 243.98 117.99 243.98 101.98 Z" />
<path fill="#cbcbcb" opacity="1.00" d=" M 260.98 101.98 C 261.49 101.98 262.51 101.98 263.02 101.98 C 263.02 117.99 263.02 134.01 263.02 150.02 C 262.51 150.02 261.49 150.02 260.98 150.02 C 260.98 134.01 260.98 117.99 260.98 101.98 Z" />
<path fill="#cbcbcb" opacity="1.00" d=" M 277.98 101.98 C 278.49 101.98 279.51 101.98 280.02 101.98 C 280.02 117.99 280.02 134.01 280.02 150.02 C 279.51 150.02 278.49 150.02 277.98 150.02 C 277.98 134.01 277.98 117.99 277.98 101.98 Z" />
<path fill="#cbcbcb" opacity="1.00" d=" M 294.98 101.98 C 295.49 101.98 296.51 101.98 297.02 101.98 C 297.02 117.99 297.02 134.01 297.02 150.02 C 296.51 150.02 295.49 150.02 294.98 150.02 C 294.98 134.01 294.98 117.99 294.98 101.98 Z" />
<path fill="#cbcbcb" opacity="1.00" d=" M 312.98 101.98 C 313.49 101.98 314.51 101.98 315.02 101.98 C 315.02 117.99 315.02 134.01 315.02 150.02 C 314.51 150.02 313.49 150.02 312.98 150.02 C 312.98 134.00 312.98 117.99 312.98 101.98 Z" />
<path fill="#cbcbcb" opacity="1.00" d=" M 329.98 101.98 C 330.49 101.98 331.51 101.98 332.02 101.98 C 332.02 117.99 332.02 134.01 332.02 150.02 C 331.51 150.02 330.49 150.02 329.98 150.02 C 329.98 134.01 329.98 117.99 329.98 101.98 Z" />
<path fill="#cbcbcb" opacity="1.00" d=" M 346.98 101.98 C 347.49 101.98 348.50 101.98 349.00 101.98 C 349.01 117.99 348.98 134.01 349.01 150.02 C 348.50 150.02 347.49 150.02 346.98 150.02 C 346.98 134.01 346.98 117.99 346.98 101.98 Z" />
<path fill="#383f41" opacity="1.00" d=" M 67.52 128.66 C 72.50 126.54 78.34 131.67 76.85 136.87 C 75.88 141.83 69.07 144.08 65.40 140.55 C 61.33 137.37 62.69 130.29 67.52 128.66 Z" />
<path fill="#a1a1a1" opacity="1.00" d=" M 625.35 139.54 C 627.10 137.98 630.54 139.52 630.31 142.01 C 630.50 144.15 627.96 145.93 626.03 144.94 C 623.72 144.27 623.35 140.82 625.35 139.54 Z" />
<path fill="#a1a1a1" opacity="1.00" d=" M 741.51 139.50 C 742.99 139.50 744.49 139.50 746.00 139.50 C 746.00 151.42 746.00 163.33 746.00 175.25 C 744.48 175.25 742.97 175.25 741.47 175.25 C 741.50 174.43 741.56 172.79 741.60 171.97 C 739.11 174.55 735.63 176.31 731.97 175.67 C 727.06 175.23 723.45 170.73 722.84 166.04 C 721.86 160.65 722.80 154.06 727.60 150.69 C 731.98 147.65 738.33 148.78 741.62 152.92 C 741.41 148.45 741.52 143.97 741.51 139.50 M 732.37 153.47 C 726.09 155.86 725.70 165.50 729.98 169.88 C 734.05 173.80 741.04 170.32 741.29 164.93 C 742.92 159.43 739.00 151.44 732.37 153.47 Z" />
<path fill="#a1a1a1" opacity="1.00" d=" M 536.00 141.00 C 543.35 141.55 551.71 139.22 558.14 143.88 C 564.36 148.56 565.16 157.43 563.37 164.47 C 562.00 169.78 557.49 174.09 552.03 174.91 C 546.72 175.64 541.34 175.09 536.00 175.25 C 536.00 163.83 536.00 152.42 536.00 141.00 M 540.75 145.25 C 540.74 153.83 540.75 162.42 540.75 171.00 C 545.41 170.86 550.69 171.74 554.73 168.83 C 560.38 164.31 560.62 155.09 556.73 149.37 C 553.04 144.29 546.21 145.28 540.75 145.25 Z" />
<path fill="#a1a1a1" opacity="1.00" d=" M 768.50 141.00 C 775.58 141.00 782.67 140.99 789.75 141.00 C 789.74 142.42 789.74 143.83 789.75 145.25 C 784.24 145.25 778.75 145.25 773.25 145.25 C 773.25 148.92 773.25 152.58 773.25 156.25 C 778.25 156.25 783.25 156.25 788.26 156.26 C 788.24 157.75 788.24 159.25 788.25 160.75 C 783.25 160.75 778.25 160.75 773.25 160.75 C 773.25 165.58 773.25 170.41 773.25 175.25 C 771.66 175.25 770.08 175.25 768.50 175.25 C 768.50 163.83 768.50 152.42 768.50 141.00 Z" />
<path fill="#383f41" opacity="1.00" d=" M 364.84 149.00 C 373.31 149.04 381.79 148.88 390.26 149.01 C 390.87 156.38 391.96 163.69 392.52 171.06 C 392.53 172.85 393.47 174.40 394.34 175.89 C 394.53 181.65 394.43 187.42 394.39 193.18 C 392.38 193.18 390.38 193.19 388.39 193.17 C 388.30 195.64 388.19 198.11 388.15 200.59 C 390.00 200.57 391.84 200.55 393.70 200.49 L 393.24 201.78 L 394.47 201.27 C 394.45 203.39 394.44 205.51 394.46 207.63 C 391.99 207.98 389.50 208.36 387.00 208.32 C 378.82 208.01 370.64 208.46 362.46 208.24 C 362.42 220.51 362.46 232.78 362.41 245.05 C 361.71 260.49 362.35 275.95 362.10 291.39 C 359.37 290.13 359.65 294.55 362.21 293.06 C 362.43 294.19 362.60 295.32 362.72 296.47 C 362.86 312.08 362.61 327.70 362.80 343.31 C 360.98 343.93 359.14 344.47 357.28 344.88 L 356.30 344.76 C 349.92 344.00 343.48 344.40 337.07 344.34 C 298.05 344.33 259.03 344.33 220.01 344.34 C 213.72 344.44 207.39 343.91 201.14 344.82 C 196.48 345.30 191.73 345.29 187.11 344.50 C 183.05 343.68 178.89 343.84 174.82 344.46 C 173.12 344.75 171.40 344.42 169.71 344.30 C 169.26 342.24 168.79 340.17 168.81 338.06 C 168.85 326.05 168.85 314.03 168.81 302.02 C 168.78 299.92 169.23 297.88 169.69 295.86 C 171.15 295.60 172.60 295.33 174.06 295.05 L 174.11 295.93 C 178.45 296.21 182.84 296.31 187.13 295.52 C 189.41 295.09 191.74 294.91 194.05 294.71 C 204.01 276.22 222.56 264.25 241.38 256.14 C 239.20 253.20 236.27 250.97 233.82 248.28 C 223.68 237.62 216.56 224.45 211.02 210.92 C 206.90 201.01 205.26 190.40 202.87 180.02 C 201.58 170.98 199.97 161.72 201.60 152.63 C 252.58 152.59 303.56 152.76 354.53 152.54 C 357.44 156.53 355.32 161.49 355.45 165.98 C 353.55 190.53 346.51 215.01 332.85 235.67 C 328.34 243.02 322.11 249.02 316.09 255.09 C 316.13 255.47 316.22 256.24 316.27 256.63 C 329.46 262.32 342.16 269.89 352.05 280.47 C 352.90 280.69 353.75 280.92 354.62 281.15 C 354.42 254.58 354.62 228.01 354.51 201.44 C 358.55 200.68 362.67 200.47 366.79 200.55 C 366.74 198.09 366.64 195.62 366.58 193.16 C 364.61 193.18 362.65 193.19 360.69 193.19 C 360.65 187.43 360.52 181.66 360.77 175.90 C 361.53 174.28 362.26 172.61 362.49 170.82 C 363.10 163.53 363.80 156.24 364.84 149.00 M 255.51 314.73 C 252.68 315.15 251.89 318.08 250.98 320.33 C 252.88 320.27 254.79 320.19 256.70 320.09 C 257.89 318.24 259.82 317.57 261.93 317.72 C 262.12 318.29 262.50 319.42 262.69 319.99 C 259.45 321.14 255.89 321.29 252.75 322.70 C 249.81 324.93 247.68 330.25 250.93 333.11 C 253.31 334.67 256.30 333.65 258.91 333.39 C 260.86 333.59 262.81 333.75 264.77 333.94 C 265.80 328.35 267.45 322.84 267.86 317.17 C 265.58 312.93 259.48 313.78 255.51 314.73 M 295.40 315.32 C 292.86 316.37 292.25 319.47 292.23 321.92 C 293.38 325.63 297.94 325.67 300.82 327.35 C 302.63 330.68 295.47 330.21 295.40 327.01 C 293.82 326.96 292.23 326.92 290.66 326.89 C 290.82 328.45 290.47 330.19 291.26 331.64 C 293.07 334.06 296.41 334.06 299.14 334.04 C 303.41 334.20 307.86 330.30 306.97 325.82 C 305.81 322.13 301.25 322.22 298.39 320.58 C 296.57 318.48 299.60 318.65 300.98 318.16 C 301.47 318.68 302.44 319.71 302.92 320.23 C 304.69 320.20 306.47 320.16 308.25 320.11 C 307.78 318.36 307.65 316.06 305.72 315.23 C 302.50 313.81 298.60 313.84 295.40 315.32 M 317.33 316.42 C 319.17 317.46 321.09 317.21 322.98 316.52 L 321.93 317.90 C 323.78 318.35 325.63 318.90 327.52 319.20 C 327.95 317.57 328.20 315.90 328.47 314.23 C 326.52 314.92 325.76 316.82 324.94 318.57 C 325.52 316.61 325.07 315.12 323.59 314.12 L 323.35 315.41 C 322.55 314.95 321.73 314.53 320.91 314.14 L 320.31 314.17 C 319.56 314.73 318.08 315.86 317.33 316.42 M 328.76 319.96 C 329.27 320.01 330.27 320.11 330.77 320.15 C 331.18 318.22 331.62 316.30 332.01 314.37 C 329.35 314.79 329.53 317.95 328.76 319.96 M 332.35 320.80 C 332.75 320.90 333.53 321.11 333.92 321.22 C 334.50 318.86 335.03 316.49 335.32 314.08 C 332.92 315.48 332.95 318.40 332.35 320.80 M 337.13 314.83 C 336.65 317.42 336.02 319.99 335.91 322.64 C 338.27 320.72 338.05 317.43 338.90 314.77 C 338.31 314.79 337.72 314.81 337.13 314.83 M 341.06 314.97 C 340.43 317.51 339.87 320.08 339.26 322.63 C 339.63 322.72 340.38 322.90 340.75 322.99 C 341.34 320.16 341.91 317.33 342.42 314.49 C 342.08 314.61 341.40 314.85 341.06 314.97 M 234.08 314.80 C 232.67 321.11 231.37 327.44 229.86 333.73 C 233.78 333.71 237.73 334.06 241.63 333.50 C 246.89 332.51 249.77 326.98 250.08 322.04 C 250.36 318.94 248.16 315.70 245.05 315.10 C 241.43 314.48 237.73 314.82 234.08 314.80 M 268.64 314.75 C 269.16 321.08 269.89 327.39 270.49 333.72 C 272.61 333.76 274.73 333.78 276.86 333.80 C 279.83 327.48 282.81 321.17 285.59 314.77 C 283.68 314.76 281.77 314.76 279.87 314.75 C 278.25 318.25 276.81 321.82 275.15 325.30 C 274.73 321.80 274.37 318.30 273.98 314.80 C 272.20 314.77 270.42 314.76 268.64 314.75 M 286.69 314.73 C 284.88 320.98 283.72 327.38 282.32 333.73 C 284.24 333.76 286.17 333.77 288.10 333.79 C 289.37 327.43 290.71 321.08 292.25 314.78 C 290.39 314.76 288.54 314.75 286.69 314.73 M 313.19 314.78 C 311.87 321.15 310.37 327.48 309.10 333.86 C 311.23 333.83 313.74 334.12 314.62 331.61 C 314.11 331.51 313.08 331.33 312.56 331.24 C 313.71 329.99 314.98 328.74 315.07 326.95 C 315.41 323.58 317.19 320.26 316.30 316.87 C 316.72 316.36 317.54 315.34 317.95 314.83 C 316.36 314.80 314.78 314.79 313.19 314.78 M 343.91 320.94 C 343.06 325.41 341.80 329.79 341.14 334.30 C 343.02 333.13 343.01 330.81 343.52 328.90 C 344.45 324.00 345.75 319.16 346.58 314.24 C 344.51 315.83 344.51 318.63 343.91 320.94 M 348.27 318.42 C 349.47 318.50 350.68 318.58 351.89 318.67 C 351.53 317.13 352.46 314.32 349.97 314.66 C 348.02 314.90 348.61 317.05 348.27 318.42 M 315.66 328.37 C 318.16 326.43 318.63 323.20 318.49 320.25 C 315.80 321.64 316.64 325.83 315.66 328.37 M 336.95 334.40 C 339.91 331.83 339.56 327.39 340.31 323.85 C 337.51 326.57 337.66 330.82 336.95 334.40 M 333.13 334.27 C 336.35 332.52 335.69 327.94 336.35 324.80 C 333.77 327.23 333.85 331.04 333.13 334.27 M 329.82 334.56 C 332.37 332.37 332.28 328.78 332.80 325.73 C 329.87 327.55 330.28 331.58 329.82 334.56 M 327.18 327.88 C 326.74 330.02 326.24 332.14 325.87 334.29 C 329.13 333.60 328.35 329.46 329.25 327.03 C 328.73 327.24 327.69 327.67 327.18 327.88 M 322.77 332.91 C 322.24 331.62 321.92 330.26 321.70 328.90 C 321.17 329.08 320.10 329.42 319.57 329.60 C 319.66 331.27 317.63 334.28 320.81 334.27 L 320.91 332.23 C 321.55 332.97 322.19 333.72 322.83 334.48 C 325.35 333.14 325.06 330.12 325.56 327.73 C 323.25 328.51 322.65 330.56 322.77 332.91 M 314.83 330.86 C 314.82 331.68 314.80 333.32 314.78 334.14 C 317.61 334.34 318.20 332.07 318.53 329.76 C 317.29 330.12 316.06 330.49 314.83 330.86 Z" />
<path fill="#a1a1a1" opacity="1.00" d=" M 572.74 152.78 C 576.98 147.71 586.06 147.58 590.11 152.97 C 592.47 156.02 592.61 160.03 592.88 163.72 C 586.66 163.79 580.45 163.70 574.24 163.78 C 575.02 166.34 575.59 169.50 578.26 170.81 C 581.70 172.60 585.85 171.21 588.12 168.24 C 589.63 168.27 591.16 168.32 592.68 168.39 C 589.93 177.32 575.95 178.42 571.59 170.35 C 568.78 164.93 569.00 157.72 572.74 152.78 M 574.29 159.92 C 578.89 160.04 583.50 160.07 588.11 159.88 C 587.38 156.82 585.66 153.23 582.00 153.22 C 577.85 152.48 575.09 156.35 574.29 159.92 Z" />
<path fill="#a1a1a1" opacity="1.00" d=" M 600.13 152.20 C 605.25 146.68 616.67 148.18 618.35 156.22 C 616.85 156.23 615.36 156.24 613.87 156.23 C 612.31 153.98 609.77 152.42 606.95 153.07 C 604.58 153.16 601.67 156.08 603.86 158.19 C 607.73 160.81 613.20 159.98 616.71 163.30 C 619.83 166.33 618.56 171.91 614.90 173.94 C 609.08 177.57 598.78 176.10 597.45 168.28 C 599.00 168.27 600.57 168.27 602.13 168.30 C 604.11 172.25 610.05 173.03 613.04 169.84 C 614.30 168.59 613.72 166.54 612.24 165.76 C 608.68 164.03 604.46 164.12 601.07 161.99 C 597.85 159.94 597.61 154.90 600.13 152.20 Z" />
<path fill="#a1a1a1" opacity="1.00" d=" M 638.26 153.38 C 641.89 147.68 650.91 147.60 655.05 152.80 C 655.03 151.98 654.99 150.33 654.97 149.50 C 656.47 149.50 657.98 149.50 659.50 149.50 C 659.46 158.30 659.57 167.10 659.47 175.89 C 659.56 180.52 655.55 184.14 651.17 184.69 C 645.50 186.02 638.04 183.98 636.72 177.54 C 638.27 177.51 639.84 177.49 641.41 177.47 C 643.59 181.39 648.97 181.78 652.57 179.72 C 655.51 177.91 654.60 174.12 654.86 171.25 C 650.96 175.82 643.36 176.27 639.23 171.82 C 635.02 166.78 634.94 158.90 638.26 153.38 M 645.43 153.57 C 638.09 156.46 639.27 170.97 647.95 170.78 C 654.02 170.75 656.26 163.16 654.42 158.31 C 653.45 154.49 649.14 152.18 645.43 153.57 Z" />
<path fill="#a1a1a1" opacity="1.00" d=" M 671.34 152.90 C 675.17 147.02 686.06 147.71 687.86 154.92 C 688.77 161.63 688.00 168.48 688.25 175.25 C 686.74 175.25 685.24 175.25 683.75 175.25 C 683.56 169.21 684.15 163.13 683.45 157.13 C 682.69 152.79 676.51 152.01 673.73 154.83 C 671.96 156.36 671.72 158.85 671.73 161.04 C 671.71 165.78 671.77 170.52 671.74 175.26 C 670.15 175.25 668.57 175.24 667.00 175.24 C 667.00 166.66 667.00 158.08 667.00 149.50 C 668.51 149.50 670.03 149.50 671.56 149.51 C 671.51 150.36 671.39 152.05 671.34 152.90 Z" />
<path fill="#a1a1a1" opacity="1.00" d=" M 697.64 152.62 C 701.94 147.66 710.98 147.63 714.88 153.10 C 717.24 156.11 717.34 160.08 717.62 163.72 C 711.39 163.79 705.17 163.69 698.95 163.79 C 699.69 166.16 700.18 168.96 702.40 170.45 C 705.16 172.23 709.16 171.91 711.51 169.57 C 712.95 167.74 715.35 168.34 717.38 168.21 C 714.95 177.21 700.87 178.49 696.44 170.54 C 693.48 165.08 693.64 157.53 697.64 152.62 M 702.94 153.88 C 700.65 155.09 699.88 157.68 698.98 159.91 C 703.59 160.05 708.21 160.05 712.82 159.92 C 712.32 158.51 711.93 157.07 711.24 155.75 C 709.52 153.10 705.64 152.52 702.94 153.88 Z" />
<path fill="#a1a1a1" opacity="1.00" d=" M 802.47 149.65 C 807.52 147.96 814.10 149.33 816.83 154.26 C 819.53 159.24 819.45 165.72 816.74 170.67 C 812.24 178.13 799.08 177.30 796.07 168.92 C 793.52 162.24 794.79 152.25 802.47 149.65 M 804.44 153.56 C 799.26 155.45 799.05 162.26 800.29 166.76 C 801.53 171.85 808.92 173.19 812.08 169.18 C 814.49 165.70 814.57 160.90 812.99 157.06 C 811.67 153.78 807.65 152.45 804.44 153.56 Z" />
<path fill="#a1a1a1" opacity="1.00" d=" M 829.30 152.68 C 831.50 149.53 835.31 148.71 838.95 148.89 C 838.96 150.44 838.99 151.99 839.02 153.55 C 835.52 153.08 830.79 153.90 829.93 157.96 C 829.47 163.70 829.88 169.49 829.74 175.25 C 828.24 175.25 826.74 175.25 825.26 175.25 C 825.27 166.65 825.21 158.06 825.29 149.46 C 826.36 149.48 828.52 149.52 829.60 149.54 C 829.52 150.33 829.37 151.89 829.30 152.68 Z" />
<path fill="#a1a1a1" opacity="1.00" d=" M 625.00 149.50 C 626.49 149.50 627.99 149.50 629.50 149.50 C 629.50 158.08 629.50 166.67 629.50 175.25 C 627.99 175.25 626.49 175.25 625.00 175.25 C 625.00 166.67 625.00 158.09 625.00 149.50 Z" />
<path fill="#cbcbcb" opacity="1.00" d=" M 174.01 164.00 C 178.34 163.97 182.67 163.95 187.00 164.01 C 187.01 167.39 186.98 170.78 187.10 174.16 C 182.67 174.41 178.24 174.38 173.81 174.21 C 173.84 173.49 173.89 172.05 173.92 171.34 C 174.02 168.89 174.02 166.45 174.01 164.00 Z" />
<path fill="#009aab" opacity="1.00" d=" M 534.40 194.59 C 550.26 189.26 567.70 188.44 583.88 192.88 C 589.08 194.30 594.44 197.12 596.72 202.28 C 598.53 205.65 597.69 209.60 597.08 213.17 C 592.83 233.80 588.37 254.40 583.93 274.99 C 583.23 277.22 583.93 279.49 584.49 281.67 C 575.58 281.54 566.68 281.65 557.77 281.61 C 557.89 279.99 558.06 278.38 558.26 276.78 C 551.91 280.74 544.25 281.71 536.96 282.55 C 530.06 282.62 522.38 282.64 516.54 278.45 C 509.36 272.95 507.86 262.82 509.66 254.45 C 512.06 244.54 517.55 234.81 526.70 229.72 C 539.16 221.75 554.68 224.18 568.35 220.14 C 571.95 218.93 571.97 214.13 570.97 211.12 C 570.21 208.63 567.62 207.31 565.15 207.28 C 560.32 206.86 554.93 206.68 550.84 209.70 C 547.84 211.90 547.61 215.94 546.76 219.25 C 537.44 219.26 528.12 219.24 518.80 219.26 C 520.36 213.34 521.42 207.09 524.80 201.86 C 526.99 198.37 530.57 195.98 534.40 194.59 M 540.47 246.41 C 537.20 250.30 536.14 257.18 540.03 260.99 C 545.34 264.31 552.36 262.44 557.45 259.51 C 563.96 255.18 564.40 246.63 566.11 239.72 C 557.35 240.36 547.36 240.03 540.47 246.41 Z" />
<path fill="#009aab" opacity="1.00" d=" M 736.93 193.09 C 747.05 190.06 757.83 190.50 768.12 192.41 C 774.35 193.48 781.07 195.72 784.54 201.42 C 788.38 206.25 788.61 212.72 787.40 218.51 C 779.20 218.59 770.99 218.51 762.80 218.56 C 761.88 216.24 761.41 213.28 758.95 212.05 C 754.00 209.59 747.82 209.30 742.81 211.75 C 739.81 213.20 739.37 217.98 742.05 219.95 C 744.93 222.17 748.49 223.22 751.89 224.36 C 760.81 227.16 770.41 229.23 777.86 235.20 C 783.38 239.74 784.15 247.42 783.65 254.08 C 782.35 266.84 771.43 276.60 759.90 280.77 C 752.30 283.82 743.99 282.91 736.01 282.84 C 727.46 281.95 717.83 280.95 711.52 274.44 C 705.56 268.04 705.08 258.55 706.60 250.37 C 714.74 250.31 722.89 250.36 731.03 250.34 C 731.40 253.64 730.83 257.89 734.00 260.02 C 738.44 262.72 744.03 262.88 749.05 262.14 C 752.08 261.51 755.98 260.52 756.90 257.09 C 757.27 252.98 753.37 250.12 749.92 248.88 C 742.30 246.17 734.03 245.17 726.94 241.04 C 721.49 237.90 715.49 233.75 714.33 227.10 C 713.11 218.82 714.76 209.77 719.89 203.02 C 724.01 197.58 730.61 195.01 736.93 193.09 Z" />
<path fill="#009aab" opacity="1.00" d=" M 436.38 193.45 C 450.27 193.46 464.17 193.38 478.06 193.49 C 487.23 194.17 497.32 196.08 503.67 203.35 C 510.35 210.43 513.05 220.45 512.05 230.02 C 510.76 243.52 506.22 257.53 496.04 266.98 C 487.52 276.50 474.67 281.57 462.01 281.60 C 446.96 281.63 431.92 281.60 416.88 281.61 C 423.46 252.24 429.92 222.85 436.38 193.45 M 457.22 214.36 C 454.20 229.30 451.24 244.26 448.14 259.20 C 454.13 259.24 460.16 259.67 466.15 259.17 C 473.51 257.08 479.44 250.99 481.98 243.83 C 485.20 236.89 485.98 228.93 484.24 221.49 C 483.02 217.57 479.29 214.38 475.12 214.28 C 469.15 214.11 463.18 214.26 457.22 214.36 Z" />
<path fill="#009aab" opacity="1.00" d=" M 601.00 193.46 C 609.52 193.42 618.03 193.44 626.55 193.45 C 628.26 210.15 630.29 226.82 631.92 243.52 C 639.86 226.99 647.12 210.12 654.74 193.44 C 663.94 193.47 673.15 193.38 682.36 193.49 C 668.18 222.76 654.42 252.24 640.42 281.61 C 630.38 281.62 620.34 281.61 610.30 281.61 C 607.23 252.22 604.19 222.83 601.00 193.46 Z" />
<path fill="#009aab" opacity="1.00" d=" M 686.19 193.43 C 695.23 193.46 704.27 193.42 713.32 193.46 C 706.69 222.82 700.31 252.23 693.78 281.61 C 684.72 281.62 675.67 281.60 666.62 281.62 C 673.26 252.25 679.59 222.81 686.19 193.43 Z" />
<path fill="#009aab" opacity="1.00" d=" M 813.97 193.43 C 821.02 193.45 828.08 193.43 835.14 193.45 C 834.42 196.36 833.74 199.28 833.12 202.21 C 830.56 201.51 828.00 200.81 825.45 200.13 C 827.42 203.66 829.39 207.20 831.30 210.76 C 827.40 227.21 824.16 243.83 820.16 260.25 C 816.83 264.20 812.46 267.15 808.91 270.90 C 812.14 270.20 815.34 269.33 818.56 268.51 C 817.46 272.85 816.53 277.24 815.60 281.62 C 808.53 281.60 801.46 281.61 794.40 281.61 C 801.05 252.25 807.40 222.82 813.97 193.43 Z" />
<path fill="#009aab" opacity="1.00" d=" M 839.36 193.45 C 844.37 193.43 849.38 193.45 854.39 193.44 C 853.28 197.91 852.36 202.43 851.33 206.92 C 846.53 205.70 841.73 204.46 836.97 203.13 C 837.82 199.92 838.60 196.69 839.36 193.45 Z" />
<path fill="#009aab" opacity="1.00" d=" M 876.57 193.44 C 879.94 193.44 883.31 193.44 886.68 193.45 C 884.93 200.59 883.47 207.79 881.82 214.94 C 878.65 214.11 875.48 213.28 872.32 212.41 C 873.84 206.11 875.17 199.77 876.57 193.44 Z" />
<path fill="#009aab" opacity="1.00" d=" M 894.24 193.45 C 897.09 193.44 899.95 193.44 902.81 193.46 C 900.75 201.91 898.99 210.43 897.10 218.93 C 894.43 218.24 891.75 217.54 889.08 216.86 C 890.80 209.05 892.53 201.25 894.24 193.45 Z" />
<path fill="#009aab" opacity="1.00" d=" M 912.02 193.43 C 914.32 193.43 916.63 193.44 918.94 193.47 C 916.56 203.25 914.56 213.12 912.33 222.94 C 910.16 222.36 907.99 221.78 905.82 221.21 C 907.97 211.97 909.91 202.68 912.02 193.43 Z" />
<path fill="#009aab" opacity="1.00" d=" M 929.19 193.44 C 931.16 193.44 933.13 193.44 935.12 193.45 C 932.51 204.59 930.15 215.78 927.66 226.94 C 925.77 226.46 923.88 225.95 922.02 225.43 C 924.57 214.80 926.76 204.09 929.19 193.44 Z" />
<path fill="#009aab" opacity="1.00" d=" M 947.25 193.44 C 948.92 193.44 950.61 193.44 952.30 193.44 C 949.54 206.07 947.01 218.74 944.33 231.39 C 942.61 230.89 940.89 230.41 939.18 229.96 C 941.88 217.79 944.56 205.61 947.25 193.44 Z" />
<path fill="#009aab" opacity="1.00" d=" M 967.57 193.43 C 968.99 193.44 970.43 193.45 971.88 193.47 C 965.16 222.83 958.82 252.28 952.30 281.69 C 950.87 281.67 949.44 281.65 948.03 281.63 C 954.68 252.26 961.08 222.84 967.57 193.43 Z" />
<path fill="#009aab" opacity="1.00" d=" M 859.35 193.48 C 863.37 193.42 867.39 193.44 871.42 193.44 C 870.00 199.31 868.77 205.23 867.45 211.13 C 863.65 210.18 859.86 209.19 856.08 208.18 C 857.29 203.31 858.36 198.41 859.35 193.48 Z" />
<path fill="#9aba2f" opacity="1.00" d=" M 986.43 194.43 C 992.13 191.26 1000.01 196.55 999.06 203.05 C 999.24 209.99 989.76 214.09 984.69 209.39 C 979.62 205.62 980.70 196.97 986.43 194.43 M 988.37 195.48 C 983.50 196.73 981.48 203.36 984.83 207.13 C 988.16 211.72 996.39 209.83 997.20 204.13 C 998.64 199.11 993.41 193.77 988.37 195.48 Z" />
<path fill="#cbcbcb" opacity="1.00" d=" M 173.88 197.19 C 178.35 196.84 182.85 196.96 187.31 197.28 C 187.03 199.84 186.98 202.42 187.01 204.99 C 187.11 235.17 186.87 265.34 187.13 295.52 C 182.84 296.31 178.45 296.21 174.11 295.93 L 174.06 295.05 C 173.85 262.43 174.19 229.81 173.88 197.19 Z" />
<path fill="#9aba2f" opacity="1.00" d=" M 986.86 197.25 C 989.24 197.45 992.85 196.37 994.14 199.09 C 995.25 200.98 993.42 202.67 992.01 203.66 C 992.88 205.19 993.92 206.67 994.37 208.42 C 992.16 206.92 990.62 204.70 988.87 202.74 C 988.38 204.66 989.00 207.14 987.13 208.47 C 986.50 204.76 986.70 200.99 986.86 197.25 M 988.34 199.12 C 988.39 199.83 988.48 201.26 988.53 201.98 C 990.46 202.03 993.54 201.60 992.42 198.95 C 991.05 199.00 989.69 199.05 988.34 199.12 Z" />
<path fill="#009aab" opacity="1.00" d=" M 834.28 216.55 C 836.00 219.32 837.59 222.16 839.11 225.05 C 837.24 232.62 835.87 240.32 833.82 247.84 C 831.44 250.83 828.28 253.07 825.52 255.68 C 828.66 242.69 831.34 229.59 834.28 216.55 Z" />
<path fill="#cbcbcb" opacity="1.00" d=" M 364.00 230.00 C 373.65 230.00 383.31 230.00 392.96 230.00 C 392.99 231.44 393.03 232.88 393.10 234.32 C 395.07 238.29 393.46 243.03 394.08 247.32 C 396.59 251.68 393.41 257.31 395.92 261.68 C 396.55 265.97 394.91 270.72 396.92 274.68 C 397.08 278.56 396.91 282.44 397.09 286.32 C 399.68 291.33 396.32 297.67 398.92 302.68 C 399.50 306.64 397.96 311.05 399.91 314.68 C 400.62 319.62 398.83 325.07 400.92 329.68 C 401.51 333.63 399.95 338.05 401.92 341.68 C 402.00 343.78 402.00 345.89 402.02 348.00 C 389.35 348.00 376.69 348.00 364.02 348.00 C 364.00 346.87 363.98 345.74 363.96 344.61 L 362.80 343.31 C 362.61 327.70 362.86 312.08 362.72 296.47 C 363.02 295.94 363.63 294.89 363.94 294.36 C 364.08 272.91 363.96 251.45 364.00 230.00 Z" />
<path fill="#009aab" opacity="1.00" d=" M 936.97 240.00 C 938.93 239.52 940.87 239.03 942.84 238.55 C 939.33 252.87 936.15 267.27 932.76 281.62 C 931.06 281.62 929.38 281.61 927.71 281.60 C 930.91 267.75 933.86 253.86 936.97 240.00 Z" />
<path fill="#009aab" opacity="1.00" d=" M 917.85 244.64 C 919.93 244.11 922.03 243.59 924.13 243.10 C 921.20 255.92 918.40 268.77 915.60 281.61 C 913.60 281.62 911.62 281.62 909.64 281.61 C 912.47 269.31 915.13 256.97 917.85 244.64 Z" />
<path fill="#009aab" opacity="1.00" d=" M 899.76 248.95 C 902.20 248.39 904.62 247.81 907.07 247.25 C 904.29 258.66 901.94 270.16 899.37 281.61 C 897.06 281.61 894.75 281.61 892.45 281.62 C 895.00 270.76 897.26 259.83 899.76 248.95 Z" />
<path fill="#009aab" opacity="1.00" d=" M 880.99 253.51 C 884.00 252.78 887.00 252.04 890.03 251.36 C 887.60 261.40 885.50 271.51 883.26 281.60 C 880.41 281.61 877.57 281.61 874.73 281.64 C 876.88 272.28 878.89 262.88 880.99 253.51 Z" />
<path fill="#009aab" opacity="1.00" d=" M 862.33 258.01 C 865.88 257.15 869.43 256.28 873.00 255.45 C 870.86 264.13 869.08 272.90 867.11 281.62 C 863.75 281.61 860.39 281.62 857.04 281.59 C 858.92 273.76 860.55 265.87 862.33 258.01 Z" />
<path fill="#009aab" opacity="1.00" d=" M 844.17 262.44 C 848.39 261.34 852.64 260.34 856.89 259.32 C 855.07 266.72 853.57 274.19 851.86 281.61 C 847.86 281.61 843.87 281.62 839.89 281.60 C 841.40 275.23 842.76 268.83 844.17 262.44 Z" />
<path fill="#009aab" opacity="1.00" d=" M 823.06 267.49 C 828.30 266.23 833.58 265.06 838.82 263.76 C 837.45 269.70 836.17 275.67 834.82 281.61 C 829.82 281.61 824.83 281.60 819.84 281.62 C 820.98 276.93 821.97 272.20 823.06 267.49 Z" />
<path fill="#8a8a89" opacity="1.00" d=" M 362.21 293.06 C 359.65 294.55 359.37 290.13 362.10 291.39 C 362.13 291.80 362.18 292.64 362.21 293.06 Z" />
<path fill="#a1a1a1" opacity="1.00" d=" M 650.38 303.59 C 658.58 301.41 668.09 302.61 674.63 308.31 C 680.70 313.67 683.02 322.13 682.79 330.00 C 682.90 337.57 680.56 345.61 674.79 350.79 C 668.43 356.52 659.06 357.82 650.95 355.84 C 643.51 354.16 637.34 348.22 635.03 341.00 C 632.53 333.22 632.55 324.50 635.59 316.88 C 638.09 310.46 643.65 305.28 650.38 303.59 M 653.40 313.54 C 648.39 315.46 645.76 320.85 645.15 325.90 C 644.53 331.71 645.07 338.26 649.16 342.80 C 654.08 348.46 664.36 347.65 668.22 341.16 C 672.22 334.63 672.28 325.86 668.84 319.09 C 666.12 313.55 659.01 311.24 653.40 313.54 Z" />
<path fill="#9aba2f" opacity="1.00" d=" M 881.01 307.01 C 889.08 301.34 900.51 301.11 909.00 306.01 C 914.32 309.03 917.65 314.74 918.44 320.73 C 914.75 320.76 911.06 320.73 907.38 320.78 C 905.33 314.54 898.24 311.22 892.06 313.21 C 886.93 314.60 883.95 319.80 883.23 324.77 C 882.40 330.46 882.83 336.77 886.21 341.63 C 890.42 347.84 900.75 348.30 905.56 342.58 C 907.05 340.83 907.43 338.49 908.08 336.35 C 904.30 336.20 900.53 336.25 896.76 336.24 C 896.74 333.32 896.74 330.41 896.75 327.50 C 904.08 327.49 911.40 327.50 918.73 327.49 C 918.71 333.48 919.38 339.86 916.47 345.36 C 913.85 351.10 908.12 354.94 902.02 356.08 C 893.74 357.79 884.22 356.12 878.20 349.84 C 872.49 343.82 870.81 335.06 871.32 327.03 C 871.72 319.47 874.68 311.55 881.01 307.01 Z" />
<path fill="#a1a1a1" opacity="1.00" d=" M 428.75 304.00 C 433.13 304.00 437.52 304.00 441.90 304.00 C 446.53 315.43 451.22 326.82 455.91 338.23 C 460.56 326.81 465.24 315.39 469.97 304.00 C 474.31 304.00 478.65 304.00 483.00 304.00 C 483.00 321.08 483.00 338.17 483.00 355.25 C 479.50 355.25 476.00 355.25 472.50 355.25 C 472.49 344.09 472.53 332.94 472.48 321.79 C 468.22 332.11 463.95 342.43 459.68 352.74 C 457.17 352.74 454.67 352.75 452.17 352.77 C 447.83 342.43 443.58 332.05 439.25 321.70 C 439.24 332.88 439.25 344.06 439.25 355.25 C 435.75 355.25 432.25 355.25 428.75 355.25 C 428.75 338.17 428.75 321.08 428.75 304.00 Z" />
<path fill="#a1a1a1" opacity="1.00" d=" M 495.54 304.01 C 507.03 303.99 518.51 304.01 530.00 304.00 C 530.00 307.24 530.00 310.48 529.98 313.72 C 522.32 313.78 514.66 313.73 507.00 313.75 C 507.00 317.41 507.00 321.08 507.00 324.75 C 514.25 324.77 521.50 324.70 528.75 324.79 C 528.75 327.85 528.75 330.91 528.73 333.97 C 521.48 334.03 514.24 333.98 507.00 334.00 C 507.00 337.83 506.99 341.67 507.01 345.50 C 514.67 345.51 522.33 345.46 529.99 345.54 C 530.00 348.77 530.00 352.01 530.00 355.25 C 518.50 355.25 507.00 355.25 495.50 355.25 C 495.52 338.17 495.45 321.09 495.54 304.01 Z" />
<path fill="#a1a1a1" opacity="1.00" d=" M 538.48 304.03 C 552.40 303.96 566.32 304.03 580.24 304.00 C 580.25 307.25 580.26 310.50 580.19 313.75 C 575.13 313.74 570.06 313.74 565.00 313.75 C 565.00 327.58 565.00 341.41 565.00 355.25 C 561.25 355.25 557.50 355.25 553.75 355.25 C 553.75 341.41 553.75 327.58 553.75 313.75 C 548.67 313.75 543.58 313.75 538.50 313.75 C 538.50 310.51 538.50 307.27 538.48 304.03 Z" />
<path fill="#a1a1a1" opacity="1.00" d=" M 589.75 304.00 C 601.25 304.00 612.75 304.00 624.25 304.00 C 624.25 307.25 624.26 310.50 624.21 313.75 C 616.55 313.75 608.90 313.74 601.25 313.75 C 601.25 317.41 601.25 321.08 601.25 324.75 C 608.40 324.74 615.56 324.76 622.72 324.74 C 622.75 327.82 622.74 330.91 622.76 334.00 C 615.58 334.00 608.41 333.99 601.25 334.00 C 601.25 337.84 601.23 341.68 601.27 345.52 C 608.93 345.50 616.58 345.47 624.24 345.54 C 624.25 348.77 624.25 352.01 624.25 355.25 C 612.75 355.25 601.25 355.25 589.75 355.25 C 589.75 338.17 589.75 321.08 589.75 304.00 Z" />
<path fill="#9aba2f" opacity="1.00" d=" M 693.03 304.03 C 700.69 303.97 708.36 304.01 716.02 303.98 C 719.86 303.94 723.90 304.67 727.03 307.03 C 732.29 310.81 733.43 319.17 729.20 324.13 C 727.84 325.89 725.81 326.89 723.95 328.01 C 726.43 329.00 729.12 329.91 730.93 332.01 C 736.18 337.51 734.88 347.38 728.85 351.78 C 725.47 354.31 721.17 355.28 717.02 355.27 C 709.01 355.25 701.01 355.24 693.00 355.25 C 693.01 338.17 692.97 321.10 693.03 304.03 M 704.50 312.76 C 704.50 316.84 704.50 320.92 704.50 325.00 C 708.87 324.82 713.58 325.68 717.68 323.72 C 721.71 321.82 721.41 315.14 717.22 313.59 C 713.17 312.09 708.72 312.96 704.50 312.76 M 704.50 332.75 C 704.50 337.33 704.50 341.91 704.50 346.49 C 709.40 346.22 714.62 347.34 719.28 345.37 C 723.75 343.26 723.69 335.82 719.08 333.88 C 714.44 332.13 709.35 332.91 704.50 332.75 Z" />
<path fill="#9aba2f" opacity="1.00" d=" M 744.00 304.00 C 751.68 304.02 759.36 303.97 767.05 304.00 C 773.43 303.97 780.28 307.26 782.70 313.46 C 786.10 321.35 783.07 331.60 775.06 335.35 C 778.66 341.94 782.17 348.59 785.68 355.23 C 781.38 355.26 777.08 355.25 772.78 355.25 C 769.59 349.18 766.54 343.03 763.31 336.98 C 760.61 336.99 757.93 337.00 755.24 337.01 C 755.25 343.09 755.25 349.17 755.25 355.25 C 751.49 355.25 747.75 355.25 744.00 355.25 C 744.00 338.17 744.00 321.08 744.00 304.00 M 755.25 313.26 C 755.25 318.17 755.25 323.08 755.24 327.99 C 759.30 327.87 763.43 328.38 767.45 327.65 C 773.44 326.30 774.03 316.85 768.73 314.25 C 764.49 312.42 759.72 313.52 755.25 313.26 Z" />
<path fill="#9aba2f" opacity="1.00" d=" M 795.00 304.00 C 798.74 304.00 802.49 304.00 806.25 304.00 C 806.25 321.08 806.25 338.16 806.25 355.25 C 802.49 355.25 798.75 355.25 795.00 355.25 C 795.00 338.17 795.00 321.08 795.00 304.00 Z" />
<path fill="#9aba2f" opacity="1.00" d=" M 818.75 304.00 C 826.16 304.02 833.57 303.97 840.98 304.00 C 848.64 304.06 856.55 307.91 860.09 314.93 C 864.25 323.22 864.18 333.33 861.09 341.96 C 858.25 349.80 850.25 354.97 842.04 355.21 C 834.28 355.33 826.51 355.20 818.75 355.25 C 818.75 338.16 818.75 321.08 818.75 304.00 M 830.00 313.76 C 830.00 324.33 830.00 334.91 830.00 345.49 C 835.15 345.34 840.80 346.36 845.45 343.52 C 849.71 340.96 851.37 335.82 851.66 331.11 C 852.03 325.66 850.68 319.34 845.90 316.09 C 841.26 312.82 835.30 313.91 830.00 313.76 Z" />
<path fill="#9aba2f" opacity="1.00" d=" M 929.25 304.00 C 940.66 303.99 952.08 304.00 963.49 304.00 C 963.30 307.17 964.01 310.68 963.10 313.64 C 955.57 313.92 948.03 313.66 940.50 313.75 C 940.49 317.41 940.50 321.08 940.50 324.75 C 947.74 324.76 954.99 324.74 962.24 324.76 C 962.25 327.84 962.25 330.92 962.21 333.99 C 954.97 334.00 947.74 334.00 940.50 334.00 C 940.50 337.83 940.50 341.66 940.50 345.50 C 948.16 345.51 955.82 345.46 963.49 345.53 C 963.50 348.77 963.50 352.01 963.50 355.25 C 952.08 355.25 940.66 355.25 929.25 355.25 C 929.25 338.17 929.25 321.08 929.25 304.00 Z" />
<path fill="#ececec" opacity="1.00" d=" M 255.51 314.73 C 259.48 313.78 265.58 312.93 267.86 317.17 C 267.45 322.84 265.80 328.35 264.77 333.94 C 262.81 333.75 260.86 333.59 258.91 333.39 C 256.30 333.65 253.31 334.67 250.93 333.11 C 247.68 330.25 249.81 324.93 252.75 322.70 C 255.89 321.29 259.45 321.14 262.69 319.99 C 262.50 319.42 262.12 318.29 261.93 317.72 C 259.82 317.57 257.89 318.24 256.70 320.09 C 254.79 320.19 252.88 320.27 250.98 320.33 C 251.89 318.08 252.68 315.15 255.51 314.73 M 255.22 327.79 C 255.22 329.45 257.06 330.12 258.41 329.43 C 260.63 328.96 260.78 326.39 261.47 324.63 C 259.19 325.05 255.77 324.88 255.22 327.79 Z" />
<path fill="#ececec" opacity="1.00" d=" M 295.40 315.32 C 298.60 313.84 302.50 313.81 305.72 315.23 C 307.65 316.06 307.78 318.36 308.25 320.11 C 306.47 320.16 304.69 320.20 302.92 320.23 C 302.44 319.71 301.47 318.68 300.98 318.16 C 299.60 318.65 296.57 318.48 298.39 320.58 C 301.25 322.22 305.81 322.13 306.97 325.82 C 307.86 330.30 303.41 334.20 299.14 334.04 C 296.41 334.06 293.07 334.06 291.26 331.64 C 290.47 330.19 290.82 328.45 290.66 326.89 C 292.23 326.92 293.82 326.96 295.40 327.01 C 295.47 330.21 302.63 330.68 300.82 327.35 C 297.94 325.67 293.38 325.63 292.23 321.92 C 292.25 319.47 292.86 316.37 295.40 315.32 Z" />
<path fill="#ececec" opacity="1.00" d=" M 317.33 316.42 C 318.08 315.86 319.56 314.73 320.31 314.17 L 320.91 314.14 C 321.73 314.53 322.55 314.95 323.35 315.41 L 323.59 314.12 C 325.07 315.12 325.52 316.61 324.94 318.57 C 325.76 316.82 326.52 314.92 328.47 314.23 C 328.20 315.90 327.95 317.57 327.52 319.20 C 325.63 318.90 323.78 318.35 321.93 317.90 L 322.98 316.52 C 321.09 317.21 319.17 317.46 317.33 316.42 Z" />
<path fill="#ececec" opacity="1.00" d=" M 328.76 319.96 C 329.53 317.95 329.35 314.79 332.01 314.37 C 331.62 316.30 331.18 318.22 330.77 320.15 C 330.27 320.11 329.27 320.01 328.76 319.96 Z" />
<path fill="#ececec" opacity="1.00" d=" M 332.35 320.80 C 332.95 318.40 332.92 315.48 335.32 314.08 C 335.03 316.49 334.50 318.86 333.92 321.22 C 333.53 321.11 332.75 320.90 332.35 320.80 Z" />
<path fill="#ececec" opacity="1.00" d=" M 337.13 314.83 C 337.72 314.81 338.31 314.79 338.90 314.77 C 338.05 317.43 338.27 320.72 335.91 322.64 C 336.02 319.99 336.65 317.42 337.13 314.83 Z" />
<path fill="#ececec" opacity="1.00" d=" M 341.06 314.97 C 341.40 314.85 342.08 314.61 342.42 314.49 C 341.91 317.33 341.34 320.16 340.75 322.99 C 340.38 322.90 339.63 322.72 339.26 322.63 C 339.87 320.08 340.43 317.51 341.06 314.97 Z" />
<path fill="#ececec" opacity="1.00" d=" M 234.08 314.80 C 237.73 314.82 241.43 314.48 245.05 315.10 C 248.16 315.70 250.36 318.94 250.08 322.04 C 249.77 326.98 246.89 332.51 241.63 333.50 C 237.73 334.06 233.78 333.71 229.86 333.73 C 231.37 327.44 232.67 321.11 234.08 314.80 M 238.53 319.15 C 237.89 322.46 237.22 325.76 236.60 329.07 C 238.55 328.77 241.03 329.32 242.43 327.56 C 244.43 325.46 244.27 322.44 244.20 319.76 C 242.31 319.51 240.42 319.32 238.53 319.15 Z" />
<path fill="#ececec" opacity="1.00" d=" M 268.64 314.75 C 270.42 314.76 272.20 314.77 273.98 314.80 C 274.37 318.30 274.73 321.80 275.15 325.30 C 276.81 321.82 278.25 318.25 279.87 314.75 C 281.77 314.76 283.68 314.76 285.59 314.77 C 282.81 321.17 279.83 327.48 276.86 333.80 C 274.73 333.78 272.61 333.76 270.49 333.72 C 269.89 327.39 269.16 321.08 268.64 314.75 Z" />
<path fill="#ececec" opacity="1.00" d=" M 286.69 314.73 C 288.54 314.75 290.39 314.76 292.25 314.78 C 290.71 321.08 289.37 327.43 288.10 333.79 C 286.17 333.77 284.24 333.76 282.32 333.73 C 283.72 327.38 284.88 320.98 286.69 314.73 Z" />
<path fill="#ececec" opacity="1.00" d=" M 313.19 314.78 C 314.78 314.79 316.36 314.80 317.95 314.83 C 317.54 315.34 316.72 316.36 316.30 316.87 C 317.19 320.26 315.41 323.58 315.07 326.95 C 314.98 328.74 313.71 329.99 312.56 331.24 C 313.08 331.33 314.11 331.51 314.62 331.61 C 313.74 334.12 311.23 333.83 309.10 333.86 C 310.37 327.48 311.87 321.15 313.19 314.78 Z" />
<path fill="#ececec" opacity="1.00" d=" M 343.91 320.94 C 344.51 318.63 344.51 315.83 346.58 314.24 C 345.75 319.16 344.45 324.00 343.52 328.90 C 343.01 330.81 343.02 333.13 341.14 334.30 C 341.80 329.79 343.06 325.41 343.91 320.94 Z" />
<path fill="#a1a1a1" opacity="1.00" d=" M 348.27 318.42 C 348.61 317.05 348.02 314.90 349.97 314.66 C 352.46 314.32 351.53 317.13 351.89 318.67 C 350.68 318.58 349.47 318.50 348.27 318.42 Z" />
<path fill="#383f41" opacity="1.00" d=" M 238.53 319.15 C 240.42 319.32 242.31 319.51 244.20 319.76 C 244.27 322.44 244.43 325.46 242.43 327.56 C 241.03 329.32 238.55 328.77 236.60 329.07 C 237.22 325.76 237.89 322.46 238.53 319.15 Z" />
<path fill="#ececec" opacity="1.00" d=" M 315.66 328.37 C 316.64 325.83 315.80 321.64 318.49 320.25 C 318.63 323.20 318.16 326.43 315.66 328.37 Z" />
<path fill="#383f41" opacity="1.00" d=" M 255.22 327.79 C 255.77 324.88 259.19 325.05 261.47 324.63 C 260.78 326.39 260.63 328.96 258.41 329.43 C 257.06 330.12 255.22 329.45 255.22 327.79 Z" />
<path fill="#ececec" opacity="1.00" d=" M 336.95 334.40 C 337.66 330.82 337.51 326.57 340.31 323.85 C 339.56 327.39 339.91 331.83 336.95 334.40 Z" />
<path fill="#ececec" opacity="1.00" d=" M 333.13 334.27 C 333.85 331.04 333.77 327.23 336.35 324.80 C 335.69 327.94 336.35 332.52 333.13 334.27 Z" />
<path fill="#ececec" opacity="1.00" d=" M 329.82 334.56 C 330.28 331.58 329.87 327.55 332.80 325.73 C 332.28 328.78 332.37 332.37 329.82 334.56 Z" />
<path fill="#ececec" opacity="1.00" d=" M 327.18 327.88 C 327.69 327.67 328.73 327.24 329.25 327.03 C 328.35 329.46 329.13 333.60 325.87 334.29 C 326.24 332.14 326.74 330.02 327.18 327.88 Z" />
<path fill="#ececec" opacity="1.00" d=" M 322.77 332.91 C 322.65 330.56 323.25 328.51 325.56 327.73 C 325.06 330.12 325.35 333.14 322.83 334.48 C 322.19 333.72 321.55 332.97 320.91 332.23 L 320.81 334.27 C 317.63 334.28 319.66 331.27 319.57 329.60 C 320.10 329.42 321.17 329.08 321.70 328.90 C 321.92 330.26 322.24 331.62 322.77 332.91 Z" />
<path fill="#ececec" opacity="1.00" d=" M 314.83 330.86 C 316.06 330.49 317.29 330.12 318.53 329.76 C 318.20 332.07 317.61 334.34 314.78 334.14 C 314.80 333.32 314.82 331.68 314.83 330.86 Z" />
<path fill="#cbcbcb" opacity="1.00" d=" M 174.82 344.46 C 178.89 343.84 183.05 343.68 187.11 344.50 C 186.86 366.67 187.07 388.83 187.00 411.00 C 183.00 411.00 179.00 411.00 175.00 411.00 C 174.88 388.82 175.22 366.63 174.82 344.46 Z" />
<path fill="#8a8a89" opacity="1.00" d=" M 201.14 344.82 C 207.39 343.91 213.72 344.44 220.01 344.34 C 259.03 344.33 298.05 344.33 337.07 344.34 C 343.48 344.40 349.92 344.00 356.30 344.76 C 356.47 352.91 356.54 361.09 356.03 369.22 C 355.67 361.49 355.83 353.75 355.87 346.01 C 318.92 345.76 281.96 345.97 245.00 345.90 C 230.14 346.09 215.26 345.50 200.42 346.22 L 201.14 344.82 Z" />
<path fill="#cbcbcb" opacity="1.00" d=" M 200.42 346.22 C 215.26 345.50 230.14 346.09 245.00 345.90 C 281.96 345.97 318.92 345.76 355.87 346.01 C 355.83 353.75 355.67 361.49 356.03 369.22 C 356.13 375.48 355.93 381.74 356.00 388.00 C 304.33 387.96 252.67 387.96 201.01 388.00 C 200.91 381.15 201.13 374.29 200.67 367.45 C 208.43 366.69 216.23 367.08 224.01 367.01 C 267.73 366.99 311.45 367.02 355.18 367.00 C 355.23 363.37 355.28 359.75 355.28 356.13 C 355.28 353.09 355.28 350.05 355.29 347.01 C 304.12 346.88 252.94 347.22 201.78 346.85 L 200.38 346.22 L 200.42 346.22 M 201.96 378.16 C 201.88 381.12 201.85 384.09 201.87 387.06 C 226.59 387.36 251.31 387.13 276.03 387.20 C 302.39 387.10 328.75 387.41 355.11 387.09 C 355.17 384.10 355.16 381.11 355.11 378.13 C 304.06 378.12 253.01 378.05 201.96 378.16 Z" />
<path fill="#a1a1a1" opacity="1.00" d=" M 200.38 346.22 L 201.78 346.85 C 202.05 349.91 202.10 353.00 202.18 356.08 C 253.21 356.33 304.25 356.18 355.28 356.13 C 355.28 359.75 355.23 363.37 355.18 367.00 C 311.45 367.02 267.73 366.99 224.01 367.01 C 216.23 367.08 208.43 366.69 200.67 367.45 C 200.55 360.37 200.52 353.30 200.38 346.22 Z" />
<path fill="#8a8a89" opacity="1.00" d=" M 201.78 346.85 C 252.94 347.22 304.12 346.88 355.29 347.01 C 355.28 350.05 355.28 353.09 355.28 356.13 C 304.25 356.18 253.21 356.33 202.18 356.08 C 202.10 353.00 202.05 349.91 201.78 346.85 Z" />
<path fill="#a1a1a1" opacity="1.00" d=" M 475.75 366.51 C 477.24 366.50 478.74 366.50 480.25 366.50 C 480.22 371.02 480.35 375.55 480.11 380.08 C 482.33 377.51 485.50 375.60 489.01 375.99 C 493.93 376.03 497.86 380.23 498.76 384.87 C 500.03 390.53 499.15 397.63 494.03 401.17 C 489.63 404.06 483.56 402.85 480.14 398.98 C 480.18 399.80 480.25 401.43 480.29 402.25 C 478.77 402.24 477.26 402.24 475.75 402.25 C 475.75 390.33 475.75 378.42 475.75 366.51 M 485.35 380.52 C 477.41 383.34 478.71 399.04 488.00 398.51 C 493.89 398.00 495.43 390.79 494.13 386.02 C 493.47 382.10 489.25 379.07 485.35 380.52 Z" />
<path fill="#a1a1a1" opacity="1.00" d=" M 655.75 366.50 C 657.32 366.50 658.91 366.50 660.50 366.50 C 660.48 370.91 660.57 375.32 660.40 379.73 C 663.26 375.95 668.73 374.92 672.91 377.02 C 675.80 378.47 677.32 381.79 677.24 384.94 C 677.30 390.71 677.21 396.48 677.25 402.25 C 675.74 402.24 674.24 402.24 672.75 402.25 C 672.71 397.13 672.81 392.02 672.74 386.91 C 672.69 384.90 672.37 382.58 670.66 381.27 C 667.12 378.68 661.03 380.84 660.63 385.45 C 660.29 391.03 660.60 396.65 660.50 402.25 C 658.91 402.24 657.32 402.24 655.75 402.25 C 655.75 390.33 655.75 378.42 655.75 366.50 Z" />
<path fill="#9aba2f" opacity="1.00" d=" M 735.56 369.49 C 740.89 365.57 750.05 366.18 753.45 372.36 C 755.70 376.80 753.50 382.30 749.04 384.30 C 754.78 385.54 757.26 392.53 754.42 397.44 C 750.72 403.62 741.69 404.54 735.79 401.20 C 732.77 399.62 731.59 396.27 730.85 393.17 C 732.38 393.08 733.92 393.02 735.47 392.97 C 736.66 398.83 744.61 400.69 748.80 396.88 C 751.52 394.60 751.14 389.77 748.11 387.95 C 745.31 386.20 741.86 386.87 738.75 386.72 C 738.74 385.32 738.74 383.93 738.75 382.54 C 742.20 382.52 746.56 383.03 748.69 379.61 C 750.97 376.11 747.95 371.39 743.96 371.37 C 740.11 370.73 736.79 373.57 736.09 377.25 C 734.53 377.24 732.99 377.23 731.46 377.21 C 732.18 374.39 732.96 371.21 735.56 369.49 Z" />
<path fill="#9aba2f" opacity="1.00" d=" M 762.30 389.35 C 766.66 382.14 771.14 375.00 775.83 368.00 C 778.05 367.99 780.27 368.00 782.51 368.01 C 782.49 375.67 782.50 383.33 782.50 391.00 C 784.07 390.99 785.66 391.00 787.25 391.00 C 787.24 392.41 787.24 393.83 787.25 395.25 C 785.65 395.24 784.07 395.25 782.50 395.25 C 782.49 397.58 782.49 399.91 782.50 402.25 C 780.91 402.24 779.33 402.24 777.75 402.25 C 777.74 399.91 777.74 397.58 777.75 395.25 C 772.20 395.24 766.65 395.26 761.11 395.24 C 761.27 393.24 761.05 391.07 762.30 389.35 M 766.33 391.00 C 770.13 391.00 773.94 391.00 777.76 391.00 C 777.75 384.95 777.74 378.90 777.76 372.85 C 773.78 378.79 769.96 384.84 766.33 391.00 Z" />
<path fill="#a1a1a1" opacity="1.00" d=" M 639.25 370.00 C 640.74 370.00 642.24 370.00 643.75 370.00 C 643.74 372.16 643.74 374.33 643.75 376.50 C 645.66 376.49 647.59 376.50 649.52 376.50 C 649.49 377.82 649.48 379.15 649.47 380.48 C 647.55 380.49 645.64 380.50 643.75 380.51 C 643.97 385.92 643.22 391.42 644.21 396.77 C 645.25 398.74 647.72 398.06 649.54 398.41 C 649.50 399.75 649.47 401.10 649.44 402.46 C 646.66 402.45 643.54 402.78 641.17 401.03 C 639.40 399.61 639.27 397.13 639.24 395.06 C 639.22 390.20 639.27 385.35 639.25 380.50 C 637.91 380.50 636.58 380.50 635.25 380.50 C 635.24 379.16 635.24 377.83 635.25 376.50 C 636.58 376.49 637.91 376.50 639.25 376.50 C 639.24 374.33 639.25 372.17 639.25 370.00 Z" />
<path fill="#a1a1a1" opacity="1.00" d=" M 521.16 376.47 C 522.79 376.48 524.42 376.49 526.07 376.50 C 522.69 385.67 519.31 394.84 515.94 404.01 C 514.97 406.46 513.88 409.20 511.45 410.55 C 509.48 411.65 507.15 411.38 505.00 411.42 C 504.99 410.09 504.99 408.77 505.00 407.46 C 506.66 407.09 508.95 407.74 510.01 406.02 C 510.78 404.83 511.27 403.47 511.86 402.19 C 508.63 393.66 505.54 385.08 502.34 376.53 C 504.01 376.51 505.68 376.49 507.36 376.48 C 509.67 383.34 511.89 390.22 514.27 397.06 C 516.58 390.20 518.82 383.32 521.16 376.47 Z" />
<path fill="#a1a1a1" opacity="1.00" d=" M 584.87 378.98 C 589.45 374.54 598.09 374.96 601.76 380.35 C 603.95 383.34 604.04 387.19 604.08 390.75 C 597.95 390.76 591.82 390.72 585.70 390.77 C 586.30 393.07 586.72 395.71 588.81 397.20 C 592.14 399.76 597.21 398.63 599.53 395.24 C 601.04 395.26 602.56 395.29 604.09 395.34 C 601.34 404.41 586.97 405.46 582.79 397.04 C 580.20 391.37 580.39 383.67 584.87 378.98 M 585.68 386.96 C 590.29 387.02 594.91 387.02 599.53 386.96 C 598.80 383.77 596.81 379.98 593.00 380.21 C 588.97 379.74 586.46 383.50 585.68 386.96 Z" />
<path fill="#a1a1a1" opacity="1.00" d=" M 609.60 383.22 C 611.18 376.22 620.00 374.38 625.78 377.14 C 628.29 378.37 629.95 381.04 629.96 383.84 C 630.09 389.97 629.94 396.11 630.00 402.25 C 628.56 402.24 627.12 402.24 625.69 402.25 C 625.74 401.40 625.85 399.71 625.91 398.87 C 622.68 402.70 616.94 404.05 612.54 401.47 C 608.07 399.04 607.55 391.65 611.98 388.94 C 616.09 386.43 621.16 387.29 625.74 386.63 C 625.29 384.76 625.59 382.30 623.72 381.14 C 620.58 379.22 616.15 380.10 614.11 383.22 C 612.60 383.22 611.10 383.22 609.60 383.22 M 615.78 391.72 C 613.44 392.50 613.04 395.64 614.67 397.31 C 617.28 399.36 621.31 398.80 623.71 396.66 C 625.36 395.11 625.29 392.66 625.80 390.62 C 622.46 390.88 618.96 390.55 615.78 391.72 Z" />
<path fill="#a1a1a1" opacity="1.00" d=" M 686.57 379.63 C 690.92 374.66 699.98 374.63 703.90 380.14 C 706.23 383.14 706.33 387.10 706.63 390.72 C 700.40 390.79 694.17 390.68 687.94 390.80 C 688.69 393.15 689.18 395.95 691.39 397.44 C 694.17 399.24 698.20 398.90 700.56 396.52 C 701.98 394.72 704.38 395.37 706.38 395.21 C 703.89 404.46 689.09 405.50 685.09 396.94 C 682.60 391.53 682.72 384.39 686.57 379.63 M 687.98 386.91 C 692.59 387.05 697.21 387.05 701.82 386.91 C 701.17 383.54 698.92 379.78 694.96 380.21 C 691.03 379.85 688.94 383.70 687.98 386.91 Z" />
<path fill="#a1a1a1" opacity="1.00" d=" M 712.75 376.50 C 714.26 376.50 715.79 376.50 717.32 376.51 C 717.26 377.20 717.14 378.60 717.08 379.29 C 719.49 376.61 722.96 375.67 726.49 375.89 C 726.49 377.44 726.51 378.99 726.54 380.55 C 723.21 380.24 718.87 380.69 717.71 384.44 C 717.18 390.35 717.65 396.32 717.50 402.25 C 715.91 402.24 714.32 402.24 712.75 402.25 C 712.75 393.67 712.75 385.08 712.75 376.50 Z" />
<path fill="#a1a1a1" opacity="1.00" d=" M 806.59 381.81 C 809.94 374.94 820.62 373.95 825.52 379.63 C 826.77 381.06 827.28 382.95 828.01 384.67 C 826.49 384.71 824.98 384.75 823.49 384.80 C 821.95 381.43 818.22 379.12 814.54 380.58 C 808.74 383.11 808.41 391.60 811.81 396.19 C 814.97 400.22 821.84 398.77 823.42 393.99 C 824.95 394.01 826.48 394.05 828.03 394.12 C 826.69 402.69 815.05 405.47 809.05 399.96 C 804.16 395.46 803.92 387.55 806.59 381.81 Z" />
<path fill="#a1a1a1" opacity="1.00" d=" M 840.35 376.56 C 845.64 374.85 852.48 376.76 854.83 382.14 C 856.88 386.93 856.91 392.81 854.38 397.42 C 850.18 405.01 837.08 404.45 833.78 396.34 C 830.88 389.55 832.25 378.93 840.35 376.56 M 841.49 380.74 C 836.53 383.21 836.37 390.18 838.24 394.72 C 840.10 399.58 847.87 399.83 850.23 395.28 C 852.02 391.76 851.98 387.35 850.39 383.77 C 848.91 380.50 844.64 379.42 841.49 380.74 Z" />
<path fill="#a1a1a1" opacity="1.00" d=" M 862.75 376.52 C 864.15 376.50 865.56 376.48 866.99 376.47 C 866.98 377.33 866.96 379.04 866.95 379.90 C 870.15 374.65 878.19 374.79 881.44 379.90 C 885.18 374.47 895.67 374.37 897.32 381.57 C 898.26 388.40 897.51 395.36 897.75 402.25 C 896.15 402.25 894.57 402.25 893.00 402.25 C 892.90 396.17 893.18 390.09 892.89 384.02 C 892.53 379.73 886.44 379.07 883.95 381.92 C 882.55 383.18 882.48 385.15 882.49 386.90 C 882.47 392.02 882.52 397.13 882.50 402.25 C 880.90 402.24 879.32 402.24 877.75 402.25 C 877.66 396.13 877.92 390.00 877.65 383.88 C 877.37 380.78 873.25 379.34 870.72 380.74 C 868.31 381.75 867.15 384.49 867.26 386.98 C 867.18 392.07 867.28 397.16 867.25 402.25 C 865.74 402.24 864.24 402.24 862.75 402.25 C 862.75 393.67 862.75 385.09 862.75 376.52 Z" />
<path fill="#a1a1a1" opacity="1.00" d=" M 543.23 376.49 C 544.79 376.49 546.36 376.49 547.94 376.50 C 549.61 383.14 551.25 389.78 552.85 396.43 C 554.75 389.78 556.53 383.10 558.47 376.46 C 559.92 376.48 561.39 376.51 562.86 376.54 C 564.65 383.19 566.55 389.82 568.41 396.45 C 569.98 389.79 571.65 383.15 573.30 376.51 C 574.85 376.50 576.40 376.50 577.96 376.50 C 575.64 385.10 573.14 393.65 570.81 402.24 C 569.26 402.24 567.71 402.23 566.17 402.23 C 564.30 395.81 562.46 389.39 560.59 382.98 C 558.74 389.41 556.86 395.83 555.03 402.27 C 553.47 402.24 551.93 402.22 550.39 402.20 C 548.06 393.61 545.60 385.06 543.23 376.49 Z" />
<path fill="#ececec" opacity="1.00" d=" M 201.96 378.16 C 253.01 378.05 304.06 378.12 355.11 378.13 C 355.16 381.11 355.17 384.10 355.11 387.09 C 328.75 387.41 302.39 387.10 276.03 387.20 C 251.31 387.13 226.59 387.36 201.87 387.06 C 201.85 384.09 201.88 381.12 201.96 378.16 Z" />
<path fill="#a1a1a1" opacity="1.00" d=" M 794.34 396.19 C 796.57 394.75 800.12 397.33 799.15 399.95 C 798.81 402.88 794.16 403.52 792.98 400.91 C 791.87 399.30 792.70 397.06 794.34 396.19 Z" />
</svg>
