<svg id="weathercloud-icon" data-name="weathercloud-icon" xmlns="http://www.w3.org/2000/svg" viewBox="0 0 266.91 190.86">
<defs><style>.cls-1{fill:#fff;}</style></defs>
<title>wth_logo_icon_white</title>
<polygon class="cls-1" points="98.62 88.66 97.23 88.66 97.23 90.04 97.23 189.47 97.23 190.86 98.62 190.86 127.38 190.86 128.77 190.86 128.77 189.47 128.77 90.04 128.77 88.66 127.38 88.66 98.62 88.66"/>
<polygon class="cls-1" points="136.59 131.78 135.2 131.78 135.2 133.17 135.2 189.47 135.2 190.86 136.59 190.86 165.34 190.86 166.72 190.86 166.72 189.47 166.72 133.17 166.72 131.78 165.34 131.78 136.59 131.78"/>
<polygon class="cls-1" points="174.62 106.45 173.23 106.45 173.23 107.84 173.23 189.47 173.23 190.86 174.62 190.86 203.37 190.86 204.76 190.86 204.76 189.47 204.76 107.84 204.76 106.45 203.37 106.45 174.62 106.45"/>
<path class="cls-1" d="M249.73,76.31a58.19,58.19,0,0,0-37.6-17A84.72,84.72,0,0,0,47,76.55a50,50,0,0,0,3,99.85H90.83V160H50A33.53,33.53,0,1,1,64,96,69.32,69.32,0,0,1,63,84.72a68.28,68.28,0,0,1,136.07-8.14,42.2,42.2,0,1,1,12.06,83.29v16.46a58.63,58.63,0,0,0,38.56-100Z"/>
</svg>