<?xml version="1.0" encoding="UTF-8" ?>
<!DOCTYPE svg PUBLIC "-//W3C//DTD SVG 1.1//EN" "http://www.w3.org/Graphics/SVG/1.1/DTD/svg11.dtd">
<svg width="248pt" height="366pt" viewBox="0 0 248 366" version="1.1" xmlns="http://www.w3.org/2000/svg">
<g id="#ffffffff">
<path fill="#ffffff" opacity="1.00" d=" M 46.73 23.71 C 98.16 2.81 157.65 3.00 209.00 24.05 C 209.00 24.79 209.00 26.28 209.00 27.02 C 161.67 26.98 114.34 27.01 67.01 27.00 C 59.69 26.97 52.36 27.17 45.04 26.74 C 45.42 25.66 45.33 24.03 46.73 23.71 Z" />
<path fill="#ffffff" opacity="1.00" d=" M 50.79 80.85 C 70.94 77.44 91.03 73.74 111.19 70.39 L 111.96 70.55 C 117.25 71.45 122.64 70.85 127.97 70.99 C 132.94 70.89 137.97 71.39 142.90 70.60 L 143.83 70.42 C 163.84 73.74 183.79 77.44 203.79 80.84 C 205.90 81.21 208.09 81.48 209.98 82.56 C 193.75 114.93 182.80 149.97 178.33 185.92 C 174.13 216.02 176.06 246.47 175.02 276.74 C 174.90 291.15 174.95 305.56 174.93 319.97 C 143.28 320.03 111.64 319.98 80.00 320.00 C 79.88 288.35 79.43 256.70 79.25 225.04 C 78.79 175.74 67.15 126.52 44.79 82.53 C 46.65 81.55 48.73 81.18 50.79 80.85 M 124.19 270.33 C 127.40 268.22 130.97 271.67 129.15 274.92 C 125.57 282.29 117.62 285.89 110.88 289.79 C 118.67 289.02 126.01 285.63 132.39 281.20 C 132.88 284.53 131.16 287.57 128.90 289.86 C 124.31 294.47 118.52 297.58 112.81 300.56 C 117.68 300.31 122.28 298.49 126.72 296.63 C 131.24 294.60 135.89 291.87 138.20 287.29 C 139.90 283.65 138.75 279.18 135.40 276.93 C 135.78 274.41 136.35 271.56 134.71 269.34 C 132.36 265.61 124.98 265.11 124.19 270.33 Z" />
</g>
<g id="#ebebebff">
<path fill="#ebebeb" opacity="1.00" d=" M 45.04 26.74 C 52.36 27.17 59.69 26.97 67.01 27.00 C 114.34 27.01 161.67 26.98 209.00 27.02 C 209.00 37.91 209.00 48.79 209.00 59.68 C 203.77 59.68 198.55 59.75 193.33 59.79 C 187.44 59.90 181.56 59.93 175.68 59.90 C 164.77 59.82 153.85 60.13 142.95 59.93 L 142.86 58.98 C 141.13 59.00 139.41 59.04 137.69 59.06 C 131.32 58.98 124.96 59.01 118.59 59.00 C 116.44 59.00 114.28 58.99 112.13 58.99 L 112.05 59.94 C 101.49 60.12 90.91 59.83 80.34 59.91 C 74.47 59.93 68.60 59.91 62.74 59.80 C 56.83 59.74 50.91 59.68 45.00 59.68 C 45.02 48.70 44.95 37.72 45.04 26.74 Z" />
</g>
<g id="#515151ff">
<path fill="#515151" opacity="1.00" d=" M 112.13 58.99 C 114.28 58.99 116.44 59.00 118.59 59.00 C 119.32 59.67 120.06 60.33 120.80 61.00 C 126.36 60.30 132.93 62.84 137.69 59.06 C 139.41 59.04 141.13 59.00 142.86 58.98 L 142.95 59.93 C 143.12 63.48 143.01 67.04 142.90 70.60 C 137.97 71.39 132.94 70.89 127.97 70.99 C 122.64 70.85 117.25 71.45 111.96 70.55 C 112.05 67.01 111.87 63.47 112.05 59.94 L 112.13 58.99 Z" />
</g>
<g id="#ed6b4fff">
<path fill="#ed6b4f" opacity="1.00" d=" M 118.59 59.00 C 124.96 59.01 131.32 58.98 137.69 59.06 C 132.93 62.84 126.36 60.30 120.80 61.00 C 120.06 60.33 119.32 59.67 118.59 59.00 Z" />
</g>
<g id="#f26c4fff">
<path fill="#f26c4f" opacity="1.00" d=" M 62.74 59.80 C 68.60 59.91 74.47 59.93 80.34 59.91 C 79.70 60.97 79.53 62.87 77.93 62.88 C 73.64 63.11 69.33 63.11 65.04 62.87 C 63.38 62.86 63.31 60.90 62.74 59.80 Z" />
<path fill="#f26c4f" opacity="1.00" d=" M 175.68 59.90 C 181.56 59.93 187.44 59.90 193.33 59.79 C 192.72 60.89 192.62 62.78 191.00 62.87 C 186.70 63.11 182.36 63.11 178.05 62.87 C 176.46 62.85 176.31 60.95 175.68 59.90 Z" />
</g>
<g id="#00a4b4ff">
<path fill="#00a4b4" opacity="1.00" d=" M 124.19 270.33 C 124.98 265.11 132.36 265.61 134.71 269.34 C 136.35 271.56 135.78 274.41 135.40 276.93 C 138.75 279.18 139.90 283.65 138.20 287.29 C 135.89 291.87 131.24 294.60 126.72 296.63 C 122.28 298.49 117.68 300.31 112.81 300.56 C 118.52 297.58 124.31 294.47 128.90 289.86 C 131.16 287.57 132.88 284.53 132.39 281.20 C 126.01 285.63 118.67 289.02 110.88 289.79 C 117.62 285.89 125.57 282.29 129.15 274.92 C 130.97 271.67 127.40 268.22 124.19 270.33 Z" />
<path fill="#00a4b4" opacity="1.00" d=" M 80.00 320.00 C 111.64 319.98 143.28 320.03 174.93 319.97 C 175.09 327.65 174.96 335.32 175.00 343.00 C 143.33 343.00 111.67 343.00 80.00 343.00 C 80.00 335.33 80.00 327.67 80.00 320.00 Z" />
</g>
</svg>
