<?xml version="1.0" encoding="UTF-8" ?>
<svg width="309pt" height="70pt" id="weather34 weatherflow" viewBox="0 0 309 70" version="1.1" xmlns="http://www.w3.org/2000/svg">
<path fill="#00a4b4" opacity="1.00" d=" M 262.25 16.19 C 263.99 11.46 270.48 10.94 273.62 14.46 C 276.13 16.96 275.59 20.77 275.15 23.93 C 278.60 26.56 279.90 31.24 278.23 35.26 C 275.78 40.88 270.13 44.08 264.81 46.53 C 260.15 48.62 255.23 50.17 250.16 50.87 C 257.34 46.43 265.44 42.52 270.25 35.27 C 271.63 33.39 271.53 30.99 271.71 28.78 C 264.68 33.92 256.47 37.51 247.81 38.70 C 254.11 34.89 260.92 31.48 265.76 25.76 C 267.74 23.39 269.45 20.12 268.09 17.03 C 266.48 15.60 264.16 16.46 262.25 16.19 Z" />
<path fill="#00a4b4" opacity="1.00" d=" M 42.39 14.26 C 43.57 14.26 44.76 14.26 45.94 14.26 C 47.65 21.33 49.11 28.46 51.04 35.47 C 53.07 28.43 54.83 21.30 56.84 14.25 C 58.06 14.26 59.29 14.27 60.51 14.27 C 62.42 21.43 64.30 28.60 66.22 35.76 C 68.01 28.60 69.76 21.44 71.47 14.27 C 72.61 14.26 73.75 14.25 74.89 14.25 C 72.64 22.84 70.27 31.41 68.06 40.02 C 66.85 40.01 65.64 39.99 64.44 39.96 C 62.50 32.78 60.65 25.58 58.53 18.45 C 56.49 25.59 54.59 32.76 52.61 39.91 C 51.41 39.96 50.21 40.00 49.00 40.04 C 46.84 31.43 44.66 22.83 42.39 14.26 Z" />
<path fill="#00a4b4" opacity="1.00" d=" M 126.26 14.31 C 127.01 14.28 128.50 14.24 129.25 14.22 C 129.28 17.32 129.29 20.42 129.16 23.52 C 132.42 20.37 139.18 19.58 141.23 24.43 C 142.30 29.52 141.49 34.81 141.74 39.98 C 140.99 39.99 139.49 40.00 138.73 40.01 C 138.62 35.37 139.01 30.70 138.54 26.07 C 136.98 22.09 130.35 23.48 129.54 27.38 C 128.91 31.55 129.40 35.80 129.27 40.01 C 128.52 40.00 127.01 39.99 126.26 39.99 C 126.27 31.43 126.27 22.87 126.26 14.31 Z" />
<path fill="#aaaaaa" opacity="1.00" d=" M 198.49 14.27 C 199.49 14.26 200.50 14.25 201.50 14.25 C 201.44 22.83 201.49 31.42 201.47 40.00 C 200.74 40.00 199.26 40.00 198.53 40.00 C 198.51 31.42 198.57 22.84 198.49 14.27 Z" />
<path fill="#acacac" opacity="1.00" d=" M 177.73 14.27 C 183.40 14.27 189.06 14.27 194.73 14.27 C 194.73 15.02 194.73 16.52 194.73 17.27 C 190.24 17.26 185.75 17.26 181.26 17.27 C 181.26 19.94 181.26 22.61 181.28 25.28 C 185.18 25.26 189.08 25.27 192.98 25.26 C 192.99 26.01 193.00 27.51 193.01 28.26 C 189.09 28.26 185.18 28.26 181.27 28.27 C 181.26 32.18 181.26 36.09 181.26 40.00 C 180.38 40.00 178.62 40.00 177.74 40.00 C 177.74 31.42 177.74 22.85 177.73 14.27 Z" />
<path fill="#00a4b4" opacity="1.00" d=" M 115.55 15.73 C 116.28 15.73 117.74 15.73 118.47 15.73 C 118.46 17.58 118.47 19.42 118.47 21.27 C 119.73 21.27 121.00 21.27 122.27 21.27 C 122.27 21.95 122.27 23.31 122.27 23.98 C 120.99 23.99 119.72 24.01 118.45 24.04 C 118.48 28.41 118.40 32.78 118.58 37.15 C 119.82 37.21 121.06 37.26 122.30 37.32 C 122.28 38.27 122.26 39.21 122.24 40.15 C 120.08 39.77 116.57 40.64 115.72 37.90 C 115.26 33.31 115.63 28.67 115.56 24.06 C 114.44 24.02 113.32 23.97 112.20 23.93 C 112.23 23.25 112.29 21.90 112.32 21.23 C 113.12 21.25 114.71 21.28 115.51 21.30 C 115.52 19.44 115.53 17.59 115.55 15.73 Z" />
<path fill="#00a4b4" opacity="1.00" d=" M 76.68 23.77 C 79.62 20.43 85.60 19.83 88.69 23.27 C 90.96 25.45 91.30 28.75 91.74 31.69 C 86.85 31.78 81.96 31.67 77.08 31.80 C 77.69 34.75 79.53 37.89 82.95 37.76 C 85.61 38.28 87.37 36.22 88.68 34.27 C 89.41 34.29 90.88 34.32 91.61 34.34 C 90.50 36.20 89.74 38.59 87.62 39.55 C 83.79 41.37 78.48 40.74 76.01 37.01 C 73.52 33.05 73.60 27.40 76.68 23.77 M 77.05 28.88 C 80.92 29.05 84.80 29.05 88.67 28.91 C 87.68 26.10 85.42 23.09 82.03 23.75 C 79.22 23.95 78.17 26.76 77.05 28.88 Z" />
<path fill="#00a4b4" opacity="1.00" d=" M 94.56 27.21 C 95.52 20.54 105.45 18.75 109.42 23.50 C 110.68 27.80 109.68 32.45 110.06 36.89 C 110.93 37.96 111.80 39.03 112.53 40.21 C 110.26 40.57 107.69 40.73 106.56 38.30 C 103.70 40.42 99.64 41.43 96.41 39.52 C 93.61 37.94 93.65 33.80 95.54 31.54 C 98.62 29.13 102.87 29.80 106.29 28.23 C 107.22 26.83 106.78 24.48 104.95 24.11 C 102.02 22.79 98.75 24.27 97.69 27.25 C 96.91 27.24 95.34 27.22 94.56 27.21 M 98.06 33.15 C 95.88 35.74 99.35 38.63 102.02 37.70 C 105.78 37.73 107.25 33.88 106.96 30.68 C 104.03 31.55 100.46 31.06 98.06 33.15 Z" />
<path fill="#00a4b4" opacity="1.00" d=" M 147.89 38.06 C 142.57 32.61 145.52 20.83 153.99 20.97 C 159.80 20.56 162.61 26.75 162.74 31.69 C 157.85 31.78 152.96 31.67 148.07 31.80 C 148.68 34.80 150.60 37.96 154.07 37.77 C 156.68 38.24 158.37 36.17 159.67 34.28 C 160.41 34.29 161.87 34.30 162.60 34.31 C 161.50 36.18 160.76 38.59 158.62 39.55 C 155.20 41.12 150.59 40.94 147.89 38.06 M 148.06 28.89 C 151.93 29.05 155.80 29.05 159.67 28.91 C 158.67 26.08 156.37 23.04 152.95 23.76 C 150.18 24.01 149.16 26.79 148.06 28.89 Z" />
<path fill="#00a4b4" opacity="1.00" d=" M 165.25 21.52 C 165.92 21.51 167.26 21.48 167.93 21.47 C 167.96 22.64 167.98 23.82 168.00 24.99 C 169.71 22.70 172.01 20.98 174.95 20.71 C 174.96 21.52 175.00 23.14 175.01 23.96 C 172.61 24.51 169.55 25.05 168.82 27.85 C 167.77 31.80 168.42 35.97 168.27 40.01 C 167.52 40.00 166.01 39.99 165.26 39.99 C 165.27 33.83 165.28 27.68 165.25 21.52 Z" />
<path fill="#acacac" opacity="1.00" d=" M 209.53 21.72 C 213.66 19.97 219.20 21.33 221.32 25.48 C 223.06 29.25 223.05 34.09 220.44 37.46 C 216.55 42.11 207.87 41.39 205.25 35.76 C 203.09 30.97 204.25 23.90 209.53 21.72 M 210.45 24.51 C 205.51 27.59 206.70 37.36 213.02 37.74 C 217.94 38.21 220.43 32.23 218.94 28.17 C 218.17 24.54 213.62 22.45 210.45 24.51 Z" />
<path fill="#acacac" opacity="1.00" d=" M 224.62 21.49 C 225.47 21.51 227.18 21.55 228.04 21.56 C 229.40 26.57 230.74 31.59 232.24 36.56 C 233.59 31.58 234.79 26.57 235.99 21.55 C 236.83 21.54 238.52 21.51 239.37 21.50 C 240.66 26.55 241.95 31.60 243.29 36.64 C 244.85 31.72 245.83 26.63 247.59 21.78 C 248.37 21.64 249.93 21.38 250.71 21.24 C 248.80 27.52 246.72 33.76 244.71 40.01 C 243.64 39.99 242.57 39.98 241.50 39.96 C 240.18 35.05 239.01 30.10 237.64 25.20 C 236.37 30.13 235.18 35.07 233.91 40.00 C 233.09 40.00 231.46 40.01 230.64 40.01 C 228.59 33.85 226.59 27.68 224.62 21.49 Z" />
<path fill="#acacac" opacity="1.00" d=" M 154.02 59.04 C 154.61 54.56 152.63 49.31 155.23 45.35 C 155.35 47.00 155.43 48.65 155.45 50.31 C 157.33 49.58 160.58 48.71 161.32 51.41 C 161.32 54.14 162.38 57.53 160.27 59.75 C 159.28 56.81 161.65 51.96 158.08 50.45 C 154.21 51.47 155.75 56.00 155.45 58.93 C 155.09 58.95 154.38 59.01 154.02 59.04 Z" />
<path fill="#acacac" opacity="1.00" d=" M 214.47 46.23 C 216.07 45.74 216.59 46.31 216.04 47.95 C 214.45 48.45 213.93 47.88 214.47 46.23 Z" />
<path fill="#acacac" opacity="1.00" d=" M 100.29 47.00 L 101.47 47.00 C 101.46 47.68 101.43 49.03 101.42 49.71 C 101.95 49.73 103.00 49.75 103.52 49.76 L 103.44 50.96 L 101.46 50.98 C 101.45 53.14 101.46 55.30 101.45 57.46 C 102.19 57.69 103.69 58.15 104.43 58.38 C 103.28 58.66 102.12 58.90 100.94 59.08 C 99.10 56.55 100.65 53.04 99.39 50.22 C 98.01 50.74 96.64 51.28 95.26 51.84 C 94.80 54.20 94.67 56.60 94.63 59.00 C 94.29 59.00 93.62 59.01 93.29 59.01 C 93.30 55.86 93.20 52.71 93.38 49.57 C 93.80 49.79 94.65 50.22 95.07 50.44 C 97.25 49.72 100.81 50.43 100.29 47.00 Z" />
<path fill="#acacac" opacity="1.00" d=" M 149.09 46.24 C 149.63 47.30 150.14 48.37 150.62 49.46 C 151.39 49.85 152.16 50.22 152.94 50.58 C 152.26 50.73 150.91 51.03 150.23 51.17 C 150.25 53.22 150.25 55.27 150.24 57.32 C 151.20 57.85 152.16 58.40 153.11 58.94 C 151.76 58.96 150.41 58.89 149.07 58.75 C 148.08 55.76 150.12 51.70 146.80 49.83 L 148.58 49.77 C 148.71 48.89 148.96 47.12 149.09 46.24 Z" />
<path fill="#acacac" opacity="1.00" d=" M 194.38 46.99 L 195.47 46.99 C 195.46 47.68 195.44 49.04 195.42 49.72 C 195.95 49.73 196.99 49.75 197.52 49.76 L 197.44 50.96 L 195.42 50.98 C 195.44 53.41 195.48 55.84 195.66 58.27 C 197.46 57.38 198.92 56.01 199.94 54.28 C 201.82 53.79 203.71 53.33 205.57 52.76 C 204.10 49.11 200.65 51.44 198.34 52.77 C 199.15 49.66 202.44 48.89 205.19 49.83 C 207.52 51.61 206.08 55.02 206.46 57.54 C 206.88 57.97 207.70 58.82 208.11 59.25 C 207.25 59.08 205.51 58.75 204.65 58.58 C 203.40 58.82 202.13 59.50 200.86 58.96 C 198.66 57.95 196.36 58.89 194.08 58.72 C 193.41 56.01 195.53 51.78 192.34 50.36 C 193.66 49.65 194.06 48.38 194.38 46.99 M 200.09 55.92 C 200.12 60.01 206.27 57.62 205.39 54.24 C 203.60 54.69 201.56 54.67 200.09 55.92 Z" />
<path fill="#acacac" opacity="1.00" d=" M 209.37 47.25 C 209.78 47.17 210.59 47.01 211.00 46.92 C 211.00 47.63 211.01 49.04 211.01 49.75 C 211.51 49.75 212.50 49.74 213.00 49.74 L 213.00 50.96 C 212.49 50.97 211.47 50.99 210.95 51.01 C 211.43 53.45 209.60 57.42 212.90 58.31 L 213.04 59.07 C 212.21 59.00 210.54 58.86 209.71 58.79 C 209.53 56.25 209.53 53.71 209.55 51.16 L 207.50 50.76 C 208.04 50.37 209.13 49.59 209.68 49.20 C 209.60 48.72 209.45 47.74 209.37 47.25 Z" />
<path fill="#acacac" opacity="1.00" d=" M 59.01 52.99 C 58.25 48.22 66.39 48.37 66.55 52.85 C 64.53 51.70 61.83 49.25 59.92 52.11 C 62.02 53.40 64.75 53.64 66.53 55.43 C 67.21 58.86 62.84 60.14 60.33 58.81 C 59.31 57.99 58.86 56.68 58.20 55.60 C 60.21 56.83 64.41 60.04 65.24 56.00 C 63.22 54.88 60.47 54.96 59.01 52.99 Z" />
<path fill="#acacac" opacity="1.00" d=" M 68.62 49.25 C 69.17 49.65 69.73 50.04 70.28 50.43 C 72.00 49.37 73.86 49.45 75.60 50.35 C 77.36 49.60 80.90 48.64 81.36 51.41 C 81.32 54.15 82.36 57.51 80.27 59.74 C 79.94 56.91 80.17 54.04 79.76 51.22 C 78.39 50.08 76.93 50.79 75.87 51.93 C 75.60 54.28 75.71 56.64 75.70 59.00 C 75.35 59.00 74.65 59.00 74.30 59.01 C 73.80 56.35 75.53 52.17 72.90 50.61 C 68.53 50.87 70.36 56.16 69.96 59.06 C 69.60 59.02 68.88 58.94 68.52 58.90 C 68.55 55.68 68.52 52.46 68.62 49.25 Z" />
<path fill="#acacac" opacity="1.00" d=" M 82.85 52.68 C 84.06 49.45 88.85 48.12 91.08 51.00 C 91.39 53.87 91.01 56.84 92.14 59.59 C 91.48 59.31 90.16 58.75 89.51 58.48 C 87.87 58.90 86.01 59.76 84.40 58.74 C 83.20 57.78 83.47 56.21 83.78 54.91 C 86.00 53.77 88.50 53.28 90.72 52.12 C 88.28 49.44 85.40 51.58 82.85 52.68 M 84.74 57.04 C 87.01 59.48 90.23 57.13 90.20 54.28 C 88.34 54.96 84.96 54.26 84.74 57.04 Z" />
<path fill="#acacac" opacity="1.00" d=" M 114.29 49.55 C 114.76 49.63 115.70 49.80 116.18 49.88 C 116.35 51.04 116.52 52.21 116.68 53.38 C 117.15 53.78 118.08 54.57 118.55 54.97 C 119.18 52.84 119.87 50.71 121.05 48.82 C 122.19 51.59 122.90 54.50 123.71 57.38 C 124.34 54.99 124.96 52.60 125.59 50.22 C 126.01 50.00 126.85 49.58 127.27 49.37 C 125.99 52.75 126.09 57.19 123.00 59.53 C 122.28 57.03 121.61 54.51 120.74 52.06 C 120.55 53.12 120.18 55.23 120.00 56.29 C 118.92 55.54 117.78 54.91 116.64 54.27 C 117.69 55.72 118.75 57.18 119.57 58.79 C 119.00 58.80 117.86 58.82 117.29 58.84 C 116.13 55.79 115.29 52.64 114.29 49.55 Z" />
<path fill="#acacac" opacity="1.00" d=" M 131.84 59.15 C 126.94 58.04 127.62 49.38 132.81 49.50 C 135.75 49.20 136.72 52.44 137.34 54.66 C 134.68 54.71 132.02 54.71 129.36 54.81 C 130.24 56.49 131.48 57.94 133.44 58.28 C 134.71 57.26 136.02 56.28 137.44 55.46 C 136.78 57.89 134.45 60.01 131.84 59.15 M 129.49 53.50 C 131.72 53.57 133.95 53.51 136.18 53.35 C 135.01 52.46 133.92 49.87 132.06 50.84 C 130.78 51.19 130.33 52.61 129.49 53.50 Z" />
<path fill="#acacac" opacity="1.00" d=" M 166.81 59.15 C 161.93 58.00 162.64 49.36 167.82 49.50 C 170.76 49.21 171.72 52.44 172.34 54.65 C 169.68 54.71 167.02 54.71 164.36 54.81 C 165.23 56.49 166.48 57.93 168.43 58.28 C 169.71 57.26 171.02 56.28 172.44 55.46 C 171.77 57.91 169.43 60.02 166.81 59.15 M 164.49 53.51 C 166.72 53.57 168.96 53.51 171.19 53.35 C 170.01 52.46 168.97 49.94 167.11 50.82 C 165.79 51.14 165.34 52.61 164.49 53.51 Z" />
<path fill="#acacac" opacity="1.00" d=" M 173.38 49.51 C 173.83 49.80 174.74 50.37 175.19 50.66 C 176.02 50.18 176.86 49.70 177.69 49.22 C 177.79 49.62 178.00 50.42 178.10 50.82 C 177.41 51.04 176.03 51.49 175.34 51.71 C 174.79 54.11 174.66 56.56 174.63 59.01 C 174.29 59.00 173.62 58.99 173.29 58.99 C 173.29 55.83 173.21 52.67 173.38 49.51 Z" />
<path fill="#acacac" opacity="1.00" d=" M 184.03 52.98 C 183.19 48.24 191.45 48.34 191.50 52.86 C 189.49 51.65 186.86 49.30 184.90 52.09 C 187.01 53.40 189.78 53.62 191.55 55.47 C 192.08 58.31 188.99 59.78 186.59 59.22 C 184.64 59.11 184.07 56.98 183.19 55.60 C 185.21 56.83 189.39 60.03 190.25 56.00 C 188.24 54.87 185.46 54.98 184.03 52.98 Z" />
<path fill="#acacac" opacity="1.00" d=" M 214.59 49.49 C 214.94 49.59 215.63 49.78 215.98 49.88 C 215.98 53.17 216.08 56.46 215.75 59.74 C 213.34 56.94 215.00 52.84 214.59 49.49 Z" />
<path fill="#acacac" opacity="1.00" d=" M 221.47 49.54 C 225.86 48.53 228.35 54.52 225.76 57.64 C 223.99 60.21 219.42 59.68 218.43 56.67 C 217.22 54.04 218.38 50.15 221.47 49.54 M 221.10 50.94 C 218.23 52.81 219.20 58.49 223.02 58.09 C 226.91 56.70 225.46 49.23 221.10 50.94 Z" />
<path fill="#acacac" opacity="1.00" d=" M 229.02 49.40 C 229.35 49.64 230.03 50.13 230.37 50.37 C 232.29 49.66 235.69 48.56 236.33 51.48 C 236.31 54.19 237.38 57.56 235.27 59.75 C 234.27 56.82 236.64 51.91 233.07 50.46 C 228.46 51.59 232.06 57.17 229.25 59.74 C 228.90 56.31 229.03 52.85 229.02 49.40 Z" />
<path fill="#acacac" opacity="1.00" d=" M 137.51 51.88 C 139.13 49.97 141.50 48.96 143.99 49.68 C 146.98 50.87 145.25 54.84 145.72 57.31 C 146.10 57.78 146.85 58.73 147.23 59.20 C 146.33 59.05 144.53 58.77 143.63 58.62 C 143.90 57.16 144.17 55.69 144.44 54.23 C 142.50 54.84 139.58 54.49 139.15 57.09 C 140.74 57.71 142.44 58.11 143.91 59.00 C 142.10 59.14 140.09 59.58 138.47 58.47 C 137.90 57.22 137.79 55.75 138.63 54.60 C 140.45 53.80 142.44 53.54 144.34 52.95 C 144.51 49.33 140.10 50.74 138.61 52.50 L 137.51 51.88 Z" />
</svg>
