<?xml version="1.0" encoding="UTF-8" ?>
<!DOCTYPE svg PUBLIC "-//W3C//DTD SVG 1.1//EN" "http://www.w3.org/Graphics/SVG/1.1/DTD/svg11.dtd">
<svg width="1124pt" height="1124pt" viewBox="0 0 1124 1124" version="1.1" xmlns="http://www.w3.org/2000/svg">
<path fill="#a51e25" stroke="#a51e25" stroke-width="0.09375" opacity="1.00" d=" M 540.85 0.00 L 580.67 0.00 C 605.21 1.33 629.74 3.36 653.99 7.50 C 737.03 21.21 816.87 53.90 885.65 102.42 C 974.75 164.90 1044.82 253.97 1084.67 355.22 C 1101.28 397.21 1112.81 441.21 1118.90 485.95 C 1121.55 504.23 1122.64 522.67 1124.00 541.07 L 1124.00 580.92 C 1122.64 605.41 1120.62 629.89 1116.49 654.08 C 1102.49 738.83 1068.70 820.23 1018.51 889.95 C 975.05 950.62 919.28 1002.37 855.61 1041.32 C 781.77 1086.63 697.31 1114.48 610.99 1121.92 C 601.35 1122.90 591.66 1123.09 582.02 1124.00 L 542.68 1124.00 C 516.35 1122.53 490.03 1120.21 464.07 1115.48 C 375.62 1099.93 291.09 1062.74 219.90 1008.00 C 172.78 971.97 131.52 928.32 98.06 879.35 C 48.68 807.32 16.53 723.60 4.96 637.04 C 2.36 618.79 1.26 600.38 0.00 582.00 L 0.00 542.71 C 0.98 529.14 1.58 515.54 3.15 502.02 C 14.42 394.96 57.44 291.52 125.37 208.01 C 158.61 166.86 197.81 130.59 241.24 100.40 C 307.48 54.30 383.78 22.78 463.24 8.67 C 488.87 3.92 514.87 1.69 540.85 0.00 M 452.83 277.67 C 438.96 288.43 429.90 305.29 429.28 322.90 C 429.02 360.28 429.09 397.67 430.50 435.03 C 433.54 517.91 441.13 600.95 459.50 681.96 C 471.30 735.05 485.80 788.90 515.89 834.90 C 510.92 834.80 505.96 834.96 501.00 834.77 C 492.35 834.02 484.08 830.73 476.59 826.48 C 462.97 817.08 450.13 805.97 441.03 791.99 C 422.45 764.88 406.97 735.44 397.08 704.03 C 386.34 673.20 378.59 641.32 373.97 609.02 C 368.41 571.16 364.10 533.13 360.61 495.03 C 355.30 439.47 351.36 383.78 348.02 328.07 C 347.38 322.72 347.83 317.23 346.30 312.02 C 342.01 294.84 329.85 279.60 313.65 272.29 C 299.98 265.41 283.64 264.81 269.14 269.27 C 255.64 273.76 243.51 282.97 236.28 295.30 C 228.64 307.45 225.92 322.43 228.23 336.55 C 238.85 411.00 250.38 485.37 265.08 559.14 C 273.39 598.83 281.04 638.80 293.59 677.43 C 305.31 712.15 319.99 745.95 338.34 777.69 C 353.12 803.89 371.17 828.24 392.07 849.87 C 404.63 862.34 418.66 873.39 434.12 882.04 C 459.57 897.11 490.34 902.62 519.51 898.25 C 535.45 895.58 550.86 890.17 565.21 882.79 C 580.27 890.82 596.76 896.65 613.90 897.65 C 622.90 897.61 631.90 897.76 640.91 897.58 C 650.23 896.28 659.40 893.76 668.12 890.22 C 679.53 885.21 690.80 879.53 700.55 871.68 C 714.27 860.84 727.27 848.98 738.40 835.48 C 764.11 802.52 786.31 766.72 803.58 728.62 C 828.51 676.15 848.53 621.50 866.24 566.22 C 886.58 501.54 904.11 435.98 918.79 369.79 C 905.44 408.84 891.33 447.63 876.01 485.95 C 852.38 545.35 826.46 603.92 796.31 660.31 C 783.39 684.06 769.76 707.44 755.10 730.16 C 739.48 753.70 721.55 775.64 702.29 796.29 C 691.40 807.67 678.53 816.97 665.16 825.21 C 654.47 830.96 642.45 835.12 630.14 834.15 C 646.48 817.07 661.97 799.17 676.38 780.43 C 692.93 759.16 707.23 736.27 721.30 713.31 C 736.89 687.69 751.30 661.36 764.66 634.51 C 792.84 578.39 817.68 520.59 838.71 461.41 C 849.06 431.93 859.21 402.25 865.52 371.59 C 860.96 385.37 855.91 398.98 850.22 412.33 C 826.05 467.53 798.44 521.19 768.50 573.47 C 740.20 622.01 708.77 668.73 674.13 712.97 C 655.59 737.22 634.51 759.45 612.09 780.14 C 602.87 788.54 593.68 797.04 583.45 804.22 C 578.69 797.23 575.63 789.32 572.41 781.56 C 567.88 770.33 564.13 758.78 561.31 747.01 C 551.00 706.10 546.74 663.99 543.02 622.05 C 538.94 573.47 538.61 524.66 540.11 475.95 C 541.64 430.86 544.54 385.79 549.39 340.92 C 550.41 334.97 549.85 328.94 549.88 322.95 C 549.29 306.24 541.12 290.25 528.50 279.41 C 516.65 269.85 501.40 264.33 486.10 265.53 C 474.03 265.83 462.55 270.74 452.83 277.67 Z" />
<path fill="#ffffff" stroke="#ffffff" stroke-width="0.09375" opacity="1.00" d=" M 452.83 277.67 C 462.55 270.74 474.03 265.83 486.10 265.53 C 501.40 264.33 516.65 269.85 528.50 279.41 C 541.12 290.25 549.29 306.24 549.88 322.95 C 549.85 328.94 550.41 334.97 549.39 340.92 C 544.54 385.79 541.64 430.86 540.11 475.95 C 538.61 524.66 538.94 573.47 543.02 622.05 C 546.74 663.99 551.00 706.10 561.31 747.01 C 564.13 758.78 567.88 770.33 572.41 781.56 C 575.63 789.32 578.69 797.23 583.45 804.22 C 593.68 797.04 602.87 788.54 612.09 780.14 C 634.51 759.45 655.59 737.22 674.13 712.97 C 708.77 668.73 740.20 622.01 768.50 573.47 C 798.44 521.19 826.05 467.53 850.22 412.33 C 855.91 398.98 860.96 385.37 865.52 371.59 C 859.21 402.25 849.06 431.93 838.71 461.41 C 817.68 520.59 792.84 578.39 764.66 634.51 C 751.30 661.36 736.89 687.69 721.30 713.31 C 707.23 736.27 692.93 759.16 676.38 780.43 C 661.97 799.17 646.48 817.07 630.14 834.15 C 642.45 835.12 654.47 830.96 665.16 825.21 C 678.53 816.97 691.40 807.67 702.29 796.29 C 721.55 775.64 739.48 753.70 755.10 730.16 C 769.76 707.44 783.39 684.06 796.31 660.31 C 826.46 603.92 852.38 545.35 876.01 485.95 C 891.33 447.63 905.44 408.84 918.79 369.79 C 904.11 435.98 886.58 501.54 866.24 566.22 C 848.53 621.50 828.51 676.15 803.58 728.62 C 786.31 766.72 764.11 802.52 738.40 835.48 C 727.27 848.98 714.27 860.84 700.55 871.68 C 690.80 879.53 679.53 885.21 668.12 890.22 C 659.40 893.76 650.23 896.28 640.91 897.58 C 631.90 897.76 622.90 897.61 613.90 897.65 C 596.76 896.65 580.27 890.82 565.21 882.79 C 550.86 890.17 535.45 895.58 519.51 898.25 C 490.34 902.62 459.57 897.11 434.12 882.04 C 418.66 873.39 404.63 862.34 392.07 849.87 C 371.17 828.24 353.12 803.89 338.34 777.69 C 319.99 745.95 305.31 712.15 293.59 677.43 C 281.04 638.80 273.39 598.83 265.08 559.14 C 250.38 485.37 238.85 411.00 228.23 336.55 C 225.92 322.43 228.64 307.45 236.28 295.30 C 243.51 282.97 255.64 273.76 269.14 269.27 C 283.64 264.81 299.98 265.41 313.65 272.29 C 329.85 279.60 342.01 294.84 346.30 312.02 C 347.83 317.23 347.38 322.72 348.02 328.07 C 351.36 383.78 355.30 439.47 360.61 495.03 C 364.10 533.13 368.41 571.16 373.97 609.02 C 378.59 641.32 386.34 673.20 397.08 704.03 C 406.97 735.44 422.45 764.88 441.03 791.99 C 450.13 805.97 462.97 817.08 476.59 826.48 C 484.08 830.73 492.35 834.02 501.00 834.77 C 505.96 834.96 510.92 834.80 515.89 834.90 C 485.80 788.90 471.30 735.05 459.50 681.96 C 441.13 600.95 433.54 517.91 430.50 435.03 C 429.09 397.67 429.02 360.28 429.28 322.90 C 429.90 305.29 438.96 288.43 452.83 277.67 Z" />
</svg>
