<svg id="weather34 wu logo" xmlns="http://www.w3.org/2000/svg" viewBox="0 0 792.8 618.3"><path d="M629.7 2.7c.5-1 .8-2.2 1.9-2.7 14.9 36.4 30.1 72.6 45.1 109 3.2 7.2 5.8 14.9 5.8 22.9.4 12.3-4 24.6-11.8 34-9.6 11.6-24.7 18.1-39.6 18-12.7 0-25.5-4.7-34.9-13.3-15-13.7-20.4-36.7-12.9-55.6 15.3-37.5 31-74.9 46.4-112.3z" fill="#00a9dd"/><linearGradient id="a" gradientUnits="userSpaceOnUse" x1="63.548" y1="1104.295" x2="219.573" y2="1104.295" gradientTransform="matrix(3.0914 0 0 -3.0914 -196.412 3757.034)"><stop offset="0" stop-color="#d61c22"/><stop offset=".533" stop-color="#e25224"/><stop offset="1" stop-color="#e67d28"/></linearGradient><path d="M481 264.2c-2.5-9.6-6.9-18.9-14.1-25.8-7.6-8-17.9-13-28.6-15.4-17-3.1-35.3 2.4-47.6 14.6-4.1 3.6-7 8.3-9.9 12.9-2.4 4.4-4.1 9.1-5.9 13.8-2.8 6.4-5.7 12.9-7.9 19.5l-.3-.2c-3 7.9-6.4 15.6-9.6 23.5-.4 1.4-1.5 2.7-1.4 4.1-2.5 4.3-4 9.1-6 13.7-.3.8-.9 1.5-1.6 1.9-3.2-7.4-5.9-15.1-9.5-22.3l.2-.4c-8.9-21.1-17.5-42.4-26.4-63.5-1-2.3-1.7-4.8-3.2-6.8l.2-.4c-2.9-7.2-6-14.3-8.9-21.5-2.4-5.8-4.6-11.8-8.2-17-5.6-8.1-13.5-14.4-22.7-18-4.5-1.7-9.1-3.2-13.9-3.2l.1-.3c-16.9-1.7-34.8 4.3-45.8 17.4-5.7 6.3-8.7 14.4-11.9 22.2-15.8 38.3-31.8 76.4-47.5 114.7-2.3-4.3-3.6-9-5.8-13.3-7.8-19.6-16.2-39-24.1-58.6l-.6.5.4-.9c-7.3-17.2-14.3-34.5-21.5-51.7-5.6-13.2-17.2-23.6-30.8-28.2-12.8-4.5-27.5-3.7-39.7 2.4-10.4 5.1-19 14.2-23.8 25-5.9 12.9-6.3 28.2-.8 41.3 21.2 51.1 42.3 102.3 63.6 153.4 8.1 19.8 16.3 39.5 24.5 59.2 3.5 8.8 7.2 17.5 10.8 26.2 5.3 12.9 16.3 23.6 29.7 27.8l-.2.3c6.7 2 13.7 3.2 20.7 3 14.7-.7 29.3-7.4 38.4-19.2 5.1-6.3 7.8-14 10.9-21.4 15.7-38 31.5-75.9 47.1-113.9 2.9 5.3 4.7 11.1 7.2 16.5 9.6 23.5 19.4 47 29.2 70.4 3.8 9.1 7.4 18.3 11.4 27.3 3.2 8.7 6.8 17.7 13.4 24.4 8.2 8.5 19.5 14.3 31.3 15.2 18.3 2.9 38.2-5.2 48.9-20.5 3.2-4.4 5.3-9.4 7.3-14.4 23.3-56.4 46.6-112.8 70.3-169 4.6-10.7 9-21.5 13.6-32.3.7-4.3.4-8.8-1-13z" fill="url(#a)"/><linearGradient id="b" gradientUnits="userSpaceOnUse" x1="278.55" y1="1154.31" x2="298.7" y2="1067.034" gradientTransform="matrix(3.0914 0 0 -3.0914 -196.412 3757.034)"><stop offset="0" stop-color="#0e55a9"/><stop offset=".648" stop-color="#00a6dc"/></linearGradient><path d="M792.8 244.8c-.2-9.4.5-18.8-.5-28.2-2.7-20.1-18.4-37.6-38-42.5-12.4-3.1-26-1.8-37.3 4.3-14.2 7.4-24.6 21.8-26.9 37.7h-.2c-.8 9.5-.4 19.1-.5 28.7V338c-.1 8.8.1 17.6-.1 26.3-1.3 14.3-9.1 27.3-20.1 36.4-1.7.7-3 2-4.6 2.9-12.9 8.2-29.6 10.1-43.9 4.8-20-7-35-27.3-34.6-48.6-.7 16.8 3.7 33.7 11.3 48.6 5.2 9.8 11.8 18.8 19.7 26.5.8.7 1.5 1.4 2.3 2.1 8.1 7.6 17.5 13.7 27.6 18.3 9.9 4.3 20.3 7.3 31.1 8.4 1.8.2 3.6.3 5.4.5 4-.2 7.9-.2 11.9 0 6.2-.4 12.3-1.3 18.3-2.6 7.2-1.9 14.3-4.4 21.1-7.6 8.9-4.5 17.4-10 24.6-17l.4-.2c1.9-2.1 3.9-4.1 6-6 8.2-9.3 15.2-19.7 19.7-31.3 3.2-7.6 5.1-15.8 6.4-23.9.8-3.7.8-7.5 1-11.2.2-8.8.1-17.6.1-26.4v-41.3c-.2-17.4-.2-34.7-.2-51.9z" fill="url(#b)"/><linearGradient id="c" gradientUnits="userSpaceOnUse" x1="186.733" y1="1104.147" x2="319.639" y2="1104.147" gradientTransform="matrix(3.0914 0 0 -3.0914 -196.412 3757.034)"><stop offset="0" stop-color="#ffba13"/><stop offset=".228" stop-color="#fcba14"/><stop offset=".404" stop-color="#f2bb17"/><stop offset=".563" stop-color="#e2bd1b"/><stop offset=".711" stop-color="#cbbf22"/><stop offset=".852" stop-color="#adc22a"/><stop offset=".986" stop-color="#88c635"/><stop offset="1" stop-color="#84c636"/></linearGradient><path d="M785.3 399.4c-4.5 11.6-11.4 22.1-19.7 31.3-2.1 1.9-4.1 3.9-6 6l-.4.2c-7.2 7-15.7 12.5-24.6 17-6.7 3.3-13.8 5.7-21.1 7.6-6 1.3-12.2 2.2-18.3 2.6-4-.2-7.9-.2-11.9 0-1.8-.2-3.6-.3-5.4-.5-10.7-1.1-21.2-4.1-31.1-8.4-10.1-4.6-19.5-10.7-27.6-18.3-.8-.7-1.6-1.4-2.3-2.1-7.9-7.7-14.5-16.7-19.7-26.5-7.6-15-12-31.8-11.3-48.6-.3-25.2 0-50.3-.1-75.4.3-12-.4-24.1-3.8-35.7-3.9-13-9.8-25.8-18.6-36.1-3.3-5.2-8-9.5-12.5-13.7-14.8-13.4-33.7-22.3-53.5-25.2-17.5-2-35.7-.7-52.1 5.9-26.5 10-48.8 31.2-59.3 57.6-1.7 4.5-4 8.7-5.2 13.3 2.9-4.6 5.8-9.2 9.9-12.9 12.3-12.1 30.6-17.6 47.6-14.6 10.7 2.4 21 7.4 28.6 15.4 7.3 6.9 11.6 16.2 14.1 25.8 1.4 4.2 1.7 8.7 1 13 .4 1 .6 2.1.6 3.3v66.8c.1 10.1-.3 20.2 1.1 30.2 4.1 35.5 21.2 69 47 93.7 9.6 9.1 20.2 17.5 32 23.6v.3c10.9 6.1 22.5 10.9 34.5 14.2 6.5 1.8 13.1 3.2 19.8 4.1 9.9 1.3 19.9 1.8 29.8 1.1 11.1-.4 21.9-2.7 32.6-5.4l-.3-.7.9.3c12.1-3.3 23.6-8.5 34.5-14.6l-.1-.3c7.8-4.1 14.9-9.4 21.8-14.9l-.1-.3c4.8-3.2 8.7-7.5 12.9-11.5 12.8-13.2 23.4-28.6 30.8-45.5 6.3-14.6 11.1-30.2 11.9-46.2-1.3 8.4-3.2 16.5-6.4 24.1z" fill="url(#c)"/><path d="M.4 580.5c-1.4-2.7 1.4-5.7 4.1-4.8 2.4.5 2.6 3.1 3.3 5 3 9.4 5.6 19 9.1 28.2 3.4-10.3 6.6-20.8 10.2-31 .9-3.2 6.5-3 7.1.4 3.5 10.2 6.8 20.6 10.4 30.8 3.4-10.3 6.3-20.8 9.7-31.2.7-3 5.8-3 6.7 0 .5 1.4-.3 2.8-.6 4.2-3.6 10.8-7.2 21.7-10.8 32.5-.4 1.9-2 3.1-3.7 3.7h-2.7c-3.8-1.4-4.1-5.8-5.4-9-2.5-6.8-4.5-13.7-7.3-20.3-2.8 8.4-5.7 16.8-8.5 25.2-.5 1.8-1.8 3.2-3.4 4.1H15c-1.4-1.1-2.8-2.3-3.2-4.1C7.9 602.9 4 591.8.4 580.5zm64.8-.8c-.3-2.3 2.1-3.8 4.1-3.5 8.8 0 17.6-.1 26.4 0 3.3-.1 3.9 5.3.7 5.9-8.1.4-16.2 0-24.3.2 0 4.8-.1 9.5 0 14.3 6.6 0 13.3-.1 19.9.1 2.3-.1 3.6 3 2.2 4.7-.8 1.5-2.7 1.2-4.1 1.3-6-.1-11.9.1-17.9-.1-.3 3-.2 6-.2 9.1 7.9.1 15.8-.1 23.7.1 2.8-.1 3.6 3.7 1.7 5.4-5.2 1.1-10.6.3-15.9.5-4.7-.2-9.4.3-14-.1-1.8-.3-2.5-2.3-2.4-3.9 0-11.4 0-22.7.1-34zm72.2 33.3c-4.4-11.6-8.7-23.2-13.3-34.7-1.4-3.8-7.8-3.6-8.9.4-4.5 11.4-8.8 22.9-13.3 34.4-1 1.9-.4 4 1.3 5.2h2.9c3-2.3 3.3-6.5 4.7-9.7 5.9-.2 11.8-.2 17.6 0 1.4 3.3 1.8 7.5 4.8 9.7h2.9c1.6-1.4 2.3-3.3 1.3-5.3zm-24.6-10.1c2.2-6 4.6-12 6.7-18.1 2.9 5.8 4.7 12.1 7.1 18.1h-13.8zm22.6-26.6c9.9-.2 19.9-.1 29.8 0 3.1-.3 4.3 4.4 1.5 5.7-4.2.8-8.5.2-12.7.4 0 10.8.1 21.5 0 32.3.2 1.6-1 2.6-1.9 3.7h-2.7c-1.2-1-2.5-2.1-2.2-3.8v-32c-4.2-.4-8.4.2-12.6-.4-2.8-1.2-2.2-5.8.8-5.9zm36.6 2.4c-.1-3.6 5.7-4.3 6.6-.9.5 6.2.1 12.4.2 18.6 8.1.1 16.1 0 24.2.1.3-6.2-.3-12.5.3-18.7.9-3.3 6.7-2.7 6.6 1 .2 11.9.1 23.8 0 35.7.3 1.7-1 2.9-2.3 3.8h-1.9c-1.1-.7-2.7-1.2-2.6-2.7-.3-4.3.1-8.7-.3-13-8 .1-16.1 0-24.1 0-.1 4.3.2 8.6-.1 12.9.1 1.4-1.4 2-2.1 2.8h-2.8c-.9-1.1-2.1-2.2-1.9-3.7.1-12 0-23.9.2-35.9zm45.9.9c-.2-2.1 1.9-3.7 3.9-3.4 9 0 18-.2 27 .1 3.1.3 3.2 5.5.1 5.9-8 .3-16.1-.1-24.1.2v14.2c6.5.1 13.1-.1 19.6.1 3.5-.6 4.2 5.3.9 5.9-6.8.2-13.6 0-20.5.1 0 3 0 6-.1 9 7.8.2 15.7-.1 23.5.1 3-.2 4 4.1 1.6 5.6-3 .6-6.2.2-9.3.3-6.6-.1-13.2.2-19.8-.1-2.1.1-3.2-2.1-2.9-3.9.1-11.4 0-22.8.1-34.1zm64.7 22c3-1.6 6.1-3.7 7.4-7 2.3-6.1.7-14.5-5.9-17.1-6.4-2.1-13.3-.8-20-1.2-2 .1-5.5-.5-5.7 2.5-.3 11.9-.1 23.8-.1 35.8-.4 1.7.8 2.8 2 3.7h2.7c.6-.9 1.8-1.6 1.8-2.7.3-4.3 0-8.7.1-13 2.8 0 5.7-.4 8.5.1 3.4 2.3 6.7 5.1 9.3 8.3 1.9 2.1 1.5 5.6 3.9 7.3h2.8c2.4-2.3 1.6-5.9.1-8.5-1.7-3.2-4.5-5.5-6.9-8.2zm-3-5.6c-4.8 1-9.8.3-14.6.5V582c4.7.1 9.5-.5 14.2.4 6.4 1.3 6.7 12 .4 13.6zm43.1-19.6c1.9-1.9 5.9-.4 5.7 2.4.2 7.7-.1 15.4.1 23.1.1 4 2.6 8 6.5 9.2 4.4 1.3 9.9.8 12.9-3.1 2.9-3.8 2.1-8.8 2.2-13.3.1-5.6-.3-11.3.2-16.9.9-3.5 6.8-2.8 6.7.8 0 8.3.2 16.6-.1 25-.3 7.5-7.1 14.8-14.9 13.7-4.3-.6-8.9 1.1-12.8-1.4-4.7-2.4-7.5-7.6-7.7-12.8-.2-7.5 0-15-.1-22.5.2-1.4 0-3.2 1.3-4.2zm41.8 2.4c-.4-3.6 5.7-4.4 6.2-.9.7 4.9 4.7 8.1 8.3 11 6 4.8 12.2 9.3 17.6 14.8.2-8.3-.1-16.7.1-25-.2-2.6 3.3-4.1 5.3-2.5 1.5 1 1.2 2.9 1.3 4.4-.1 11.3 0 22.6-.1 33.9.2 1.6-.9 2.7-1.9 3.7h-1.9c-1.4-.5-2.5-1.5-2.7-3-1-4.9-5.3-7.9-8.8-10.9-5.8-4.4-11.6-8.9-16.9-14-.3 8.3.1 16.7-.2 25 0 1.5-1.4 2.2-2.5 2.9h-1.8c-1.2-1-2.4-2.1-2.1-3.8.1-11.8 0-23.7.1-35.6zm79 3.1c-4.5-4.6-11.3-5.9-17.6-5.8-4.3.1-8.6-.3-12.8.2-1.8.6-2.3 2.6-2.2 4.3v33c-.3 2.1 1.4 4.3 3.6 4 6.7-.1 13.6.7 20.2-1 6.4-1.6 11.9-6.7 13.4-13.2 1.9-7.3 1-16.1-4.6-21.5zm-9 28.1c-5.2 2.4-11.3 2.1-16.8 1.5.2-9.9.1-19.7.1-29.6 5.7.1 11.9-.8 17.2 1.9 9.7 5 9.5 21.6-.5 26.2zm19.6-30.4c-.2-2 1.7-3.7 3.6-3.5 8.8 0 17.7-.1 26.5 0 2.3-.3 4 2.5 2.9 4.5-.8 1.9-3.1 1.6-4.8 1.6-7-.1-14.1.1-21.1-.1-.6 4.7-.1 9.6-.3 14.4 6.8.2 13.7-.2 20.5.1 3 .4 2.9 5.5 0 5.8-6.8.3-13.7 0-20.5.1v9c8.1.2 16.2-.1 24.2.1 2.5.3 3.2 4.3 1 5.5-2.8.8-5.7.5-8.5.6-6.9-.2-13.8.2-20.7-.2-1.9-.1-3.1-2.1-2.8-3.8v-34.1zm72.9 31.5c-1.7-3.8-4.8-6.7-7.9-9.3 3.5-1.9 7.2-4.6 8.1-8.8.7-4.3.6-9.2-2.5-12.6-2.8-3.4-7.4-4.1-11.5-4.1-5.3 0-10.6-.2-15.9.1-2.1.1-2.6 2.5-2.5 4.2.1 11.6-.1 23.2.1 34.8-.2 1.5 1.4 2.2 2.4 2.9h1.7c.9-.8 2.5-1.4 2.4-2.8.3-4.3.1-8.7 0-13 2.9-.1 5.8-.5 8.6.1 3.3 2.2 6.4 4.9 9 7.9 2.2 2.2 1.5 6.2 4.6 7.7h1.7c3.1-1.2 2.6-4.7 1.7-7.1zm-10.6-15.2c-4.8 1-9.9.5-14.8.4.2-4.8.1-9.6.1-14.4 4.8.2 9.8-.5 14.6.5 6.1 1.6 6.2 11.9.1 13.5zm21.2-13.6c7.2-7.5 19.3-8.5 28.5-4.4 2 .8 2.9 3.5 1.4 5.2-1.3 1.6-3.6 1-5.3.3-6.1-2.8-14-2.1-18.8 2.8-6.7 6.4-5.5 19.1 2.8 23.7 7.2 4.3 19.2 2.1 21.1-7.1-3.9-.3-7.9.2-11.8-.3-2.8-.8-2.7-5.5.3-5.9 5.7-.2 11.4-.3 17 .1 2.2 1 1.9 3.7 1.6 5.7-.9 8.5-9.1 16-17.7 14.9-4.7-.3-9.8 1-14.1-1.7-12.2-5.8-14.2-24.1-5-33.3zm66.5 19.5c3.2-2 6.8-4.4 7.9-8.3 1.1-4.8.8-10.7-3.2-14.2-3.4-3.1-8.3-3.2-12.6-3.2-4.7.1-9.3-.2-14 .2-2.1.1-2.4 2.5-2.3 4.3v33.8c-.3 1.7.9 3 2.3 3.8h1.7c1-.8 2.6-1.4 2.5-2.9.3-4.3 0-8.7.1-13 2.8.1 5.7-.3 8.5.2 4.8 3.5 10.3 7.4 11.6 13.6.7 3 6.2 2.5 5.9-.8.3-5.7-4.5-9.9-8.4-13.5zM601 596c-4.8 1-9.8.5-14.6.4.1-4.8.1-9.6 0-14.4 4.8.2 9.8-.5 14.5.4 6.4 1.5 6.4 12 .1 13.6zm52.7-14.6c-5.2-4.9-12.9-6.9-19.9-5.4-9.3 1.7-16.9 10.1-17.2 19.7-.8 9.6 6 19.1 15.4 21.5 4 .3 8.1 0 12.1.2 8.2-1.5 14.9-8.7 16.1-16.9 1.2-6.9-1.2-14.3-6.5-19.1zm-12.2 30.2c-7.6 1.8-15.8-3.6-17.3-11.2-1.7-7 2.2-14.8 9-17.3 7.4-3 16.8 1.2 19.1 8.9 3.1 8-2.1 18.2-10.8 19.6zm25.4-35.4c2-1.6 5.6-.1 5.4 2.5.2 7.9-.2 15.7.2 23.6.2 3.9 2.7 7.8 6.7 8.9 4.4 1.2 10 .6 12.9-3.3 2.6-3.6 2-8.2 2.1-12.3.1-5.9-.2-11.7.1-17.6.6-3.4 6.1-3.3 6.7.1.3 7.1 0 14.2.1 21.2.1 4.5-.5 9.4-3.5 13-2.7 3.2-6.9 5.6-11.2 5-4.5-.6-9.4 1-13.4-1.6-4.9-2.6-7.4-8.2-7.4-13.6-.1-7.2 0-14.4-.1-21.6.1-1.4-.1-3.4 1.4-4.3zm41.6 2.6c-.2-2.9 3.8-4.4 5.6-2.3 1.2 2.1 1.2 4.7 2.8 6.5 3.3 4 7.5 6.9 11.5 10.1 4.3 3.3 8.3 6.8 12.3 10.4v-22.9c.1-1.6-.2-3.7 1.4-4.5 2-1.5 5.3.1 5.1 2.6.1 11.9.1 23.9 0 35.8.2 1.8-1.1 3.1-2.6 3.7H743c-2.7-1.8-2.1-5.7-4.4-7.9-7-7.7-16.5-12.6-23.5-20.3-.1 8.5.2 16.9-.1 25.4.1 1.4-1.3 2-2.2 2.8H711c-1.4-.8-2.7-2-2.5-3.7 0-11.9-.1-23.8 0-35.7zm78.5 2.9c-4.6-4.6-11.5-5.8-17.8-5.6-4.2.2-8.6-.4-12.7.4-1.6.7-1.9 2.6-1.8 4.2.1 11.3-.1 22.6.1 33.9-.1 2.2 2.2 3.2 4.1 3 7.5-.1 15.4 1 22.6-2 5.8-2.3 10-7.9 11-14.1 1.1-6.9-.1-14.9-5.5-19.8zm-9.2 28.4c-5.2 2.4-11.1 1.9-16.7 1.6.1-9.9 0-19.9.1-29.8 5.7.2 11.9-.7 17.2 2 9.6 5 9.3 21.6-.6 26.2z" fill="#1d2022"/></svg>