<?xml version="1.0" encoding="UTF-8" ?>
<!DOCTYPE svg PUBLIC "-//W3C//DTD SVG 1.1//EN" "http://www.w3.org/Graphics/SVG/1.1/DTD/svg11.dtd">
<svg width="770pt" height="180pt" viewBox="0 0 770 180" version="1.1" xmlns="http://www.w3.org/2000/svg">
<g id="#178cc8ff">
<path fill="#178cc8" opacity="1.00" d=" M 199.45 7.67 L 200.04 7.29 C 205.06 19.45 210.16 31.59 215.10 43.79 C 218.14 51.79 213.41 61.69 205.17 64.15 C 197.32 66.95 187.63 62.85 184.79 54.87 C 183.29 50.84 183.38 46.17 185.22 42.25 C 189.89 30.70 194.80 19.24 199.45 7.67 Z" />
<path fill="#178cc8" opacity="1.00" d=" M 226.41 63.44 C 229.83 61.22 234.11 61.62 237.97 61.90 C 244.85 63.25 250.64 69.88 250.13 77.03 C 249.97 93.63 250.38 110.25 249.92 126.84 C 248.52 135.77 243.01 143.82 235.21 148.36 C 224.25 155.27 209.24 154.51 198.88 146.78 C 191.65 141.38 186.42 132.90 185.90 123.79 C 188.08 130.33 193.84 135.92 200.98 136.19 C 209.95 136.91 218.24 128.85 218.06 119.92 C 218.12 105.57 218.08 91.23 218.17 76.89 C 218.30 71.40 221.51 65.98 226.41 63.44 Z" />
</g>
<g id="#da3a2cff">
<path fill="#da3a2c" opacity="1.00" d=" M 12.38 62.45 C 20.10 59.22 29.90 63.20 33.14 70.93 C 38.66 83.86 43.77 96.97 49.39 109.86 C 54.96 96.56 60.34 83.18 65.98 69.91 C 69.72 62.53 79.41 59.58 86.87 62.80 C 90.68 64.28 93.80 67.43 95.31 71.23 C 92.66 75.71 91.33 80.75 89.56 85.59 C 80.77 109.23 72.43 133.05 63.55 156.66 C 63.51 157.69 63.59 158.72 63.79 159.74 C 59.90 168.69 47.12 171.15 39.55 165.37 C 36.98 163.54 35.08 160.89 33.99 157.94 C 23.75 132.96 13.30 108.07 3.11 83.08 C 0.08 75.20 4.43 65.37 12.38 62.45 Z" />
</g>
<g id="#f1ba32ff">
<path fill="#f1ba32" opacity="1.00" d=" M 141.49 63.57 C 147.01 61.23 153.17 61.56 159.03 61.91 C 173.33 64.09 184.73 77.28 185.62 91.59 C 186.01 102.31 185.45 113.07 185.90 123.79 C 186.42 132.90 191.65 141.38 198.88 146.78 C 209.24 154.51 224.25 155.27 235.21 148.36 C 243.01 143.82 248.52 135.77 249.92 126.84 C 248.32 140.02 240.47 152.08 229.71 159.70 C 218.16 168.04 202.80 170.93 189.07 166.99 C 169.87 161.84 154.96 143.97 153.44 124.13 C 152.91 114.38 153.46 104.60 153.13 94.83 C 154.25 87.75 149.44 80.69 143.01 78.02 C 139.90 76.48 136.32 76.89 132.97 77.02 C 128.30 77.68 124.48 80.94 121.85 84.70 C 124.81 75.17 132.11 67.09 141.49 63.57 Z" />
</g>
<g id="#ffffffff">
<path fill="#ffffff" opacity="1.00" d=" M 283.11 63.22 C 284.56 60.63 289.19 61.08 289.76 64.14 C 293.13 74.77 296.41 85.44 299.78 96.08 C 303.82 85.37 306.82 74.24 310.70 63.46 C 312.01 60.58 317.25 60.90 317.87 64.16 C 321.49 74.90 325.04 85.66 328.63 96.41 C 332.00 85.56 335.23 74.68 338.61 63.84 C 339.40 60.89 344.24 60.73 345.40 63.48 C 346.09 64.65 345.53 66.02 345.20 67.21 C 341.24 78.99 337.45 90.82 333.44 102.58 C 332.08 106.79 325.11 106.79 323.73 102.59 C 320.45 93.45 317.31 84.25 314.12 75.08 C 310.93 84.22 307.89 93.40 304.69 102.53 C 303.45 106.63 296.72 106.87 295.15 102.92 C 291.10 91.30 287.32 79.58 283.35 67.94 C 282.88 66.43 282.04 64.69 283.11 63.22 Z" />
<path fill="#ffffff" opacity="1.00" d=" M 349.94 65.95 C 349.61 63.69 351.78 61.77 353.97 62.11 C 363.28 62.14 372.59 62.07 381.90 62.15 C 385.12 62.53 385.27 67.74 382.09 68.34 C 373.75 68.43 365.41 68.35 357.08 68.37 C 357.05 73.33 357.07 78.29 357.07 83.26 C 364.04 83.26 371.01 83.19 377.99 83.28 C 381.16 83.57 381.41 88.70 378.34 89.42 C 371.25 89.63 364.16 89.42 357.07 89.52 C 357.06 92.61 357.05 95.71 357.07 98.81 C 365.36 98.85 373.65 98.75 381.94 98.85 C 385.20 99.26 385.21 104.58 381.97 105.06 C 372.65 105.21 363.33 105.10 354.00 105.11 C 351.70 105.46 349.52 103.35 349.94 101.03 C 349.94 89.34 349.93 77.65 349.94 65.95 Z" />
<path fill="#ffffff" opacity="1.00" d=" M 401.94 64.15 C 403.53 60.25 410.06 60.70 411.22 64.73 C 415.73 76.49 420.18 88.28 424.67 100.06 C 425.24 101.50 425.63 103.26 424.54 104.58 C 422.91 106.40 419.22 106.11 418.40 103.63 C 417.29 100.92 416.30 98.17 415.23 95.45 C 409.27 95.43 403.31 95.43 397.36 95.45 C 396.09 98.52 395.19 101.76 393.65 104.70 C 392.02 106.30 388.78 106.08 387.71 103.92 C 387.01 102.16 388.01 100.46 388.57 98.83 C 393.06 87.28 397.38 75.67 401.94 64.15 M 399.22 89.69 C 403.97 89.68 408.72 89.70 413.48 89.68 C 411.19 83.37 408.73 77.11 406.50 70.78 C 403.80 76.97 401.68 83.40 399.22 89.69 Z" />
<path fill="#ffffff" opacity="1.00" d=" M 422.11 62.20 C 432.69 62.03 443.28 62.13 453.86 62.15 C 457.34 62.24 457.53 68.04 454.04 68.34 C 449.96 68.48 445.87 68.27 441.79 68.43 C 441.81 79.93 441.87 91.42 441.77 102.91 C 441.27 106.55 435.34 106.64 434.77 102.98 C 434.57 91.45 434.75 79.91 434.69 68.37 C 430.47 68.33 426.26 68.47 422.05 68.31 C 419.21 67.44 419.29 63.01 422.11 62.20 Z" />
<path fill="#ffffff" opacity="1.00" d=" M 460.45 64.34 C 460.93 60.82 466.60 60.57 467.41 64.05 C 467.64 70.43 467.41 76.81 467.52 83.19 C 475.83 83.20 484.14 83.15 492.45 83.21 C 492.77 76.83 492.36 70.42 492.65 64.04 C 493.61 60.23 499.98 61.08 499.66 65.07 C 499.68 77.63 499.76 90.19 499.62 102.75 C 499.34 106.50 493.28 106.71 492.63 103.04 C 492.46 98.51 492.61 93.98 492.55 89.45 C 484.20 89.43 475.85 89.44 467.49 89.44 C 467.46 93.94 467.60 98.44 467.43 102.93 C 466.89 106.75 460.56 106.52 460.42 102.62 C 460.36 89.86 460.30 77.09 460.45 64.34 Z" />
<path fill="#ffffff" opacity="1.00" d=" M 507.88 65.92 C 507.54 63.63 509.80 61.76 511.99 62.11 C 521.28 62.16 530.57 62.04 539.86 62.17 C 543.06 62.57 543.20 67.80 539.99 68.34 C 531.66 68.43 523.34 68.35 515.01 68.37 C 514.98 73.33 515.00 78.28 515.00 83.24 C 522.13 83.33 529.28 83.08 536.40 83.35 C 539.50 84.24 538.91 89.48 535.65 89.48 C 528.77 89.54 521.88 89.48 515.00 89.50 C 515.00 92.61 514.99 95.71 515.01 98.81 C 523.35 98.85 531.69 98.73 540.02 98.87 C 543.09 99.48 543.10 104.30 540.10 105.02 C 530.70 105.26 521.29 105.07 511.88 105.12 C 510.06 105.32 508.01 104.01 507.91 102.09 C 507.83 90.03 507.89 77.97 507.88 65.92 Z" />
<path fill="#ffffff" opacity="1.00" d=" M 549.49 66.13 C 549.19 63.72 551.52 61.64 553.88 62.11 C 560.42 62.33 567.04 61.63 573.53 62.61 C 579.09 63.43 583.32 68.45 583.58 74.00 C 584.52 80.24 580.51 86.47 574.58 88.45 C 578.77 92.26 583.75 96.73 583.70 102.87 C 583.37 106.15 578.55 106.67 577.22 103.80 C 576.53 97.18 570.23 93.46 565.59 89.57 C 562.73 88.79 559.54 89.48 556.57 89.24 C 556.41 93.99 556.85 98.79 556.35 103.51 C 555.26 106.84 549.72 106.18 549.54 102.65 C 549.43 90.47 549.54 78.30 549.49 66.13 M 556.56 68.14 C 556.57 73.18 556.55 78.22 556.57 83.26 C 561.68 83.00 566.92 83.81 571.93 82.59 C 578.18 80.75 577.95 70.13 571.55 68.65 C 566.63 67.65 561.54 68.31 556.56 68.14 Z" />
<path fill="#ffffff" opacity="1.00" d=" M 284.25 125.08 C 286.39 123.59 289.90 125.32 289.68 128.01 C 289.76 135.66 289.59 143.31 289.75 150.95 C 289.75 154.86 291.46 159.12 295.19 160.85 C 299.02 162.59 303.80 162.56 307.49 160.46 C 310.75 158.53 312.19 154.59 312.19 150.95 C 312.37 143.02 312.10 135.09 312.32 127.17 C 313.03 123.82 318.41 123.69 319.23 127.04 C 319.57 134.69 319.28 142.36 319.38 150.02 C 319.53 155.17 318.30 160.79 314.27 164.32 C 309.09 168.93 301.44 169.49 294.92 168.07 C 288.64 166.77 283.58 161.34 282.88 154.94 C 282.19 146.99 282.74 138.99 282.55 131.02 C 282.62 128.99 282.07 126.24 284.25 125.08 Z" />
<path fill="#ffffff" opacity="1.00" d=" M 327.06 126.99 C 327.81 123.83 333.03 123.75 333.62 127.01 C 333.82 131.00 336.93 133.81 339.67 136.32 C 346.54 142.27 354.33 147.23 360.43 154.05 C 360.46 145.15 360.38 136.25 360.47 127.35 C 360.71 124.63 364.63 123.58 366.34 125.61 C 367.59 126.72 367.07 128.53 367.20 129.98 C 367.15 141.99 367.24 154.00 367.15 166.00 C 366.80 169.34 361.64 169.68 360.65 166.58 C 360.44 163.39 358.53 160.76 356.26 158.66 C 349.16 151.81 340.34 146.92 333.81 139.45 C 333.78 148.22 333.89 157.00 333.76 165.78 C 333.63 169.58 327.44 169.70 327.04 165.98 C 326.98 152.98 326.95 139.98 327.06 126.99 Z" />
<path fill="#ffffff" opacity="1.00" d=" M 378.15 125.17 C 387.46 125.50 397.84 123.42 406.08 128.93 C 414.13 134.22 415.94 145.21 413.44 153.94 C 411.77 159.98 406.82 164.83 400.88 166.69 C 393.82 168.95 386.30 167.88 379.03 168.12 C 376.76 168.44 374.72 166.37 375.05 164.12 C 375.06 152.38 375.04 140.64 375.06 128.90 C 374.86 127.08 376.30 125.27 378.15 125.17 M 382.18 131.13 C 382.20 141.45 382.18 151.78 382.19 162.11 C 388.08 161.94 394.43 162.94 399.85 160.04 C 409.98 154.88 409.80 137.40 399.29 132.77 C 393.90 130.37 387.89 131.32 382.18 131.13 Z" />
<path fill="#ffffff" opacity="1.00" d=" M 419.68 128.96 C 419.30 126.56 421.72 124.76 423.95 125.11 C 433.27 125.18 442.60 125.00 451.91 125.21 C 454.78 125.95 454.91 130.49 452.03 131.34 C 443.61 131.60 435.17 131.33 426.74 131.47 C 426.77 136.39 426.74 141.31 426.76 146.24 C 433.77 146.30 440.78 146.14 447.79 146.31 C 451.10 146.75 450.98 152.23 447.65 152.51 C 440.69 152.65 433.72 152.52 426.75 152.56 C 426.76 155.65 426.75 158.73 426.76 161.81 C 435.16 161.89 443.58 161.67 451.98 161.92 C 454.84 162.71 454.84 167.27 451.97 168.04 C 442.64 168.24 433.29 168.06 423.96 168.13 C 422.01 168.44 419.63 167.07 419.72 164.92 C 419.64 152.93 419.71 140.94 419.68 128.96 Z" />
<path fill="#ffffff" opacity="1.00" d=" M 461.78 128.93 C 461.58 126.67 463.78 124.81 465.97 125.13 C 472.59 125.30 479.28 124.64 485.85 125.65 C 491.35 126.45 495.54 131.39 495.87 136.87 C 496.86 143.12 492.90 149.48 486.91 151.44 C 491.08 155.35 496.15 159.83 496.01 166.06 C 495.48 169.30 490.57 169.63 489.47 166.63 C 488.72 159.98 482.26 156.43 477.73 152.38 C 474.78 152.26 471.82 152.33 468.87 152.32 C 468.84 156.87 468.97 161.43 468.82 165.98 C 468.24 169.62 462.43 169.59 461.83 165.95 C 461.66 153.62 461.78 141.27 461.78 128.93 M 468.89 131.19 C 468.87 136.21 468.89 141.22 468.88 146.24 C 473.88 146.03 478.99 146.75 483.92 145.72 C 490.29 144.18 490.45 133.62 484.21 131.78 C 479.21 130.61 473.99 131.43 468.89 131.19 Z" />
<path fill="#ffffff" opacity="1.00" d=" M 506.81 130.83 C 514.44 123.66 526.57 122.88 535.82 127.16 C 538.24 128.22 538.45 132.08 535.93 133.16 C 534.23 134.13 532.43 132.97 530.83 132.40 C 524.36 129.65 516.01 130.86 511.32 136.35 C 504.97 143.38 506.83 156.19 515.47 160.52 C 522.85 164.60 535.08 162.11 536.67 152.70 C 532.61 152.57 528.53 152.90 524.49 152.55 C 521.61 151.74 521.68 147.09 524.62 146.41 C 530.03 146.17 535.47 146.36 540.90 146.32 C 542.46 146.17 544.06 147.29 544.20 148.92 C 544.74 156.26 540.34 163.58 533.60 166.55 C 525.67 170.09 515.75 169.44 508.54 164.49 C 497.93 156.97 497.25 139.48 506.81 130.83 Z" />
<path fill="#ffffff" opacity="1.00" d=" M 549.63 127.67 C 550.81 124.05 555.20 125.33 558.07 125.12 C 565.03 125.52 572.94 123.71 579.02 128.04 C 586.81 134.26 584.42 148.55 574.65 151.44 C 578.73 155.40 583.82 159.74 583.70 165.96 C 583.31 169.23 578.51 169.66 577.23 166.82 C 576.49 160.14 570.13 156.45 565.48 152.49 C 562.56 152.05 559.56 152.46 556.62 152.29 C 556.46 156.81 556.65 161.33 556.53 165.85 C 556.25 168.36 552.90 169.63 550.96 168.10 C 549.21 167.00 549.49 164.78 549.49 163.03 C 549.60 151.24 549.31 139.44 549.63 127.67 M 556.56 131.20 C 556.57 136.22 556.55 141.24 556.57 146.26 C 561.68 145.97 566.93 146.85 571.94 145.61 C 578.19 143.78 577.95 133.08 571.51 131.68 C 566.61 130.69 561.53 131.39 556.56 131.20 Z" />
<path fill="#ffffff" opacity="1.00" d=" M 603.36 125.63 C 611.62 123.00 621.35 125.30 627.27 131.73 C 634.61 139.29 635.07 152.31 628.36 160.42 C 621.90 168.57 609.67 171.00 600.38 166.55 C 593.18 163.30 588.07 155.92 587.79 148.00 C 586.95 138.07 593.82 128.35 603.36 125.63 M 606.53 131.74 C 600.16 133.30 595.44 139.44 595.26 145.95 C 594.50 154.61 602.27 162.76 611.01 162.11 C 619.70 162.14 626.70 153.51 625.47 145.02 C 624.94 135.97 615.24 129.12 606.53 131.74 Z" />
<path fill="#ffffff" opacity="1.00" d=" M 639.46 125.53 C 641.32 123.60 645.04 124.66 645.46 127.35 C 645.61 135.22 645.38 143.10 645.57 150.98 C 645.58 154.90 647.32 159.18 651.08 160.89 C 654.70 162.52 659.11 162.50 662.72 160.79 C 665.97 159.17 667.74 155.57 667.95 152.05 C 668.28 143.72 667.82 135.38 668.18 127.06 C 668.98 123.76 674.27 123.77 675.08 127.08 C 675.33 135.05 675.12 143.05 675.18 151.03 C 675.34 156.76 673.06 162.92 667.94 165.97 C 661.93 169.42 654.28 169.59 647.89 167.12 C 642.15 164.91 638.63 158.93 638.48 152.92 C 638.36 145.29 638.48 137.66 638.42 130.02 C 638.46 128.50 638.14 126.66 639.46 125.53 Z" />
<path fill="#ffffff" opacity="1.00" d=" M 682.83 127.99 C 682.52 125.38 685.83 123.64 687.96 124.99 C 690.13 126.09 689.25 128.89 690.45 130.63 C 693.37 135.26 698.01 138.37 702.20 141.73 C 707.04 145.63 712.12 149.34 716.24 154.03 C 716.28 145.06 716.17 136.09 716.30 127.13 C 716.91 123.84 722.22 123.71 722.96 127.00 C 723.21 139.34 722.98 151.69 723.07 164.04 C 723.24 165.74 722.79 167.92 720.94 168.51 C 719.03 169.39 716.49 167.97 716.33 165.87 C 716.01 162.25 713.17 159.68 710.70 157.33 C 703.80 151.22 695.76 146.41 689.62 139.45 C 689.60 148.21 689.68 156.98 689.59 165.75 C 689.46 169.54 683.28 169.73 682.87 166.00 C 682.75 153.33 682.83 140.66 682.83 127.99 Z" />
<path fill="#ffffff" opacity="1.00" d=" M 730.70 127.96 C 730.98 125.42 733.88 124.87 735.97 125.10 C 744.02 125.42 752.70 123.92 760.09 127.98 C 766.10 131.15 769.63 137.74 770.00 144.41 L 770.00 149.08 C 769.42 155.52 766.06 161.90 760.22 165.01 C 752.51 169.38 743.35 167.84 734.89 168.12 C 732.52 168.54 730.19 166.48 730.62 164.04 C 730.67 152.01 730.51 139.98 730.70 127.96 M 737.25 131.14 C 737.24 141.46 737.25 151.79 737.25 162.11 C 743.13 161.94 749.46 162.95 754.88 160.06 C 763.95 155.42 764.76 141.11 757.35 134.65 C 751.70 130.05 744.00 131.28 737.25 131.14 Z" />
</g>
<g id="#e87033ff">
<path fill="#e87033" opacity="1.00" d=" M 89.56 85.59 C 91.33 80.75 92.66 75.71 95.31 71.23 C 100.71 84.14 105.91 97.13 111.43 109.98 C 114.64 101.45 118.29 93.09 121.85 84.70 C 124.48 80.94 128.30 77.68 132.97 77.02 C 136.32 76.89 139.90 76.48 143.01 78.02 C 149.44 80.69 154.25 87.75 153.13 94.83 C 144.63 113.97 136.89 133.44 128.80 152.75 C 126.92 156.99 125.74 161.91 121.85 164.84 C 114.31 171.39 100.77 168.90 96.73 159.54 C 91.25 146.46 85.85 133.35 80.47 120.23 C 74.46 133.17 69.62 146.69 63.79 159.74 C 63.59 158.72 63.51 157.69 63.55 156.66 C 72.43 133.05 80.77 109.23 89.56 85.59 Z" />
</g>
</svg>
