<?xml version="1.0" encoding="UTF-8" ?>
<!DOCTYPE svg PUBLIC "-//W3C//DTD SVG 1.1//EN" "http://www.w3.org/Graphics/SVG/1.1/DTD/svg11.dtd">
<svg width="770pt" height="180pt" viewBox="0 0 770 180" version="1.1" xmlns="http://www.w3.org/2000/svg">
<g id="#18aadbff">
<path fill="#18aadb" opacity="1.00" d=" M 199.50 7.32 C 199.73 7.56 200.18 8.05 200.41 8.29 C 205.23 19.90 210.06 31.52 214.82 43.16 C 217.68 50.00 214.98 58.66 208.60 62.50 C 202.28 66.49 193.08 65.56 188.02 59.94 C 184.01 55.79 182.73 49.31 184.62 43.90 C 189.40 31.63 194.86 19.64 199.50 7.32 Z" />
</g>
<g id="#d4202aff">
<path fill="#d4202a" opacity="1.00" d=" M 6.99 65.97 C 12.78 59.88 23.32 59.88 29.33 65.63 C 32.41 68.22 33.68 72.14 35.20 75.72 C 37.06 80.40 39.07 85.02 40.93 89.70 C 36.94 99.34 33.76 109.28 30.06 119.03 C 28.07 123.89 27.05 129.20 23.94 133.55 C 17.05 117.01 10.21 100.47 3.41 83.90 C 0.79 77.94 2.35 70.50 6.99 65.97 Z" />
</g>
<g id="#de4b2eff">
<path fill="#de4b2e" opacity="1.00" d=" M 72.17 63.66 C 80.07 58.88 92.03 62.36 95.33 71.28 C 93.63 74.42 92.28 77.73 91.18 81.12 C 81.97 106.30 72.92 131.54 63.63 156.68 C 63.62 157.67 63.66 158.66 63.76 159.65 C 59.38 170.25 43.08 171.37 36.34 162.37 C 48.26 129.46 60.32 96.60 72.17 63.66 Z" />
</g>
<g id="#fdb931ff">
<path fill="#fdb931" opacity="1.00" d=" M 141.41 63.60 C 146.94 61.25 153.11 61.54 158.98 61.92 C 173.28 64.06 184.70 77.24 185.60 91.54 C 186.01 102.29 185.42 113.06 185.90 123.81 C 186.06 125.41 186.27 127.00 186.48 128.60 C 184.87 140.93 186.63 153.43 185.39 165.78 C 168.50 159.73 155.72 143.71 153.64 125.89 C 152.77 115.59 153.49 105.23 153.20 94.91 C 154.66 85.36 145.60 75.90 136.00 76.88 C 130.20 76.33 125.01 80.02 121.88 84.63 C 124.85 75.16 132.09 67.14 141.41 63.60 Z" />
</g>
<g id="#1666b0ff">
<path fill="#1666b0" opacity="1.00" d=" M 223.45 65.40 C 229.76 59.82 240.73 60.25 246.34 66.67 C 248.67 69.17 250.23 72.54 250.13 76.01 C 250.13 82.97 250.12 89.94 250.12 96.91 C 239.90 97.37 229.66 96.62 219.45 97.20 C 218.98 98.90 218.48 100.60 218.10 102.32 C 217.96 94.21 218.08 86.08 218.07 77.96 C 217.92 73.25 219.98 68.58 223.45 65.40 Z" />
</g>
<g id="#2a2e33ff">
<path fill="#2a2e33" opacity="1.00" d=" M 283.12 63.20 C 284.58 60.64 289.17 61.08 289.75 64.12 C 293.14 74.74 296.40 85.41 299.76 96.04 C 303.87 85.37 306.79 74.25 310.70 63.50 C 311.95 60.59 317.20 60.87 317.84 64.12 C 321.45 74.83 325.07 85.55 328.53 96.31 C 332.20 85.51 335.17 74.47 338.70 63.63 C 340.03 59.76 347.02 61.71 345.57 65.83 C 341.67 78.05 337.59 90.23 333.50 102.40 C 332.24 106.88 324.85 106.83 323.63 102.33 C 320.51 93.55 317.43 84.75 314.45 75.91 C 313.29 76.37 313.25 77.76 312.81 78.76 C 310.11 86.74 307.44 94.75 304.61 102.69 C 303.15 106.99 295.85 106.67 294.86 102.17 C 290.96 90.70 287.17 79.20 283.28 67.72 C 282.85 66.26 282.07 64.60 283.12 63.20 Z" />
<path fill="#2a2e33" opacity="1.00" d=" M 349.95 66.01 C 349.60 63.72 351.74 61.78 353.96 62.12 C 363.01 62.11 372.05 62.11 381.10 62.13 C 383.57 61.76 385.39 64.92 383.98 66.93 C 383.26 68.46 381.44 68.42 380.02 68.39 C 372.38 68.35 364.74 68.40 357.10 68.36 C 357.02 73.32 357.07 78.28 357.07 83.25 C 364.03 83.29 371.00 83.15 377.97 83.31 C 381.34 83.48 381.36 89.28 377.96 89.44 C 371.02 89.59 364.07 89.48 357.13 89.48 C 357.02 92.59 357.04 95.70 357.08 98.81 C 365.40 98.87 373.72 98.71 382.03 98.88 C 385.23 99.35 385.17 104.63 381.96 105.03 C 372.60 105.23 363.22 105.10 353.86 105.10 C 351.60 105.39 349.57 103.32 349.94 101.07 C 349.93 89.38 349.93 77.69 349.95 66.01 Z" />
<path fill="#2a2e33" opacity="1.00" d=" M 401.73 64.64 C 402.97 60.34 409.97 60.46 411.20 64.70 C 415.70 76.34 420.06 88.02 424.53 99.67 C 424.94 101.02 425.70 102.59 424.90 103.96 C 423.74 106.48 419.27 106.33 418.41 103.62 C 417.27 100.95 416.33 98.19 415.25 95.49 C 409.30 95.38 403.34 95.46 397.38 95.44 C 396.09 98.48 395.22 101.71 393.68 104.64 C 392.13 106.31 388.81 106.10 387.75 103.97 C 387.03 102.40 387.88 100.80 388.38 99.33 C 392.86 87.77 397.22 76.17 401.73 64.64 M 399.22 89.67 C 403.96 89.70 408.70 89.68 413.45 89.69 C 411.21 83.35 408.74 77.10 406.47 70.78 C 403.83 76.99 401.67 83.39 399.22 89.67 Z" />
<path fill="#2a2e33" opacity="1.00" d=" M 422.06 68.29 C 418.76 67.40 419.57 61.89 423.00 62.15 C 433.31 62.12 443.62 62.05 453.92 62.18 C 457.34 62.29 457.51 68.06 454.06 68.31 C 450.04 68.48 446.01 68.36 441.99 68.33 C 441.53 79.84 442.03 91.39 441.74 102.91 C 441.31 106.53 435.37 106.65 434.80 103.02 C 434.53 91.48 434.77 79.92 434.68 68.38 C 430.47 68.31 426.26 68.51 422.06 68.29 Z" />
<path fill="#2a2e33" opacity="1.00" d=" M 460.40 65.06 C 460.08 61.12 466.48 60.19 467.39 64.03 C 467.76 70.42 467.22 76.84 467.65 83.23 C 475.89 83.16 484.13 83.15 492.37 83.24 C 492.89 76.88 492.28 70.47 492.66 64.10 C 493.26 61.60 496.75 60.66 498.57 62.45 C 499.93 63.53 499.62 65.44 499.70 66.96 C 499.60 78.97 499.84 90.98 499.58 102.98 C 499.08 106.53 493.25 106.61 492.65 103.05 C 492.42 98.52 492.64 93.98 492.55 89.45 C 484.20 89.43 475.85 89.44 467.50 89.44 C 467.43 93.98 467.64 98.53 467.41 103.06 C 466.77 106.65 460.90 106.52 460.47 102.92 C 460.27 90.30 460.39 77.67 460.40 65.06 Z" />
<path fill="#2a2e33" opacity="1.00" d=" M 507.89 66.02 C 507.52 63.73 509.68 61.79 511.90 62.12 C 521.24 62.16 530.59 62.01 539.93 62.20 C 543.09 62.62 543.16 67.90 539.95 68.31 C 531.66 68.45 523.36 68.37 515.07 68.34 C 514.93 73.30 515.02 78.27 515.01 83.24 C 521.99 83.31 528.99 83.14 535.97 83.31 C 539.21 83.61 539.28 89.09 536.00 89.44 C 529.04 89.58 522.06 89.51 515.10 89.45 C 514.94 92.57 514.98 95.70 515.03 98.83 C 523.36 98.86 531.71 98.70 540.04 98.90 C 543.13 99.47 543.08 104.47 540.01 105.01 C 530.66 105.27 521.30 105.07 511.94 105.11 C 509.64 105.42 507.48 103.40 507.88 101.06 C 507.88 89.38 507.86 77.70 507.89 66.02 Z" />
<path fill="#2a2e33" opacity="1.00" d=" M 549.50 65.95 C 549.31 64.00 551.01 62.01 553.02 62.14 C 558.03 62.07 563.05 62.14 568.08 62.12 C 572.10 62.12 576.47 62.71 579.58 65.49 C 583.52 69.07 584.47 75.07 583.00 80.02 C 581.83 84.00 578.44 86.90 574.70 88.42 C 578.53 92.24 583.30 96.23 583.68 102.03 C 584.16 104.66 580.89 106.72 578.69 105.27 C 576.39 104.09 577.23 101.03 575.78 99.24 C 573.13 95.32 569.28 92.41 565.57 89.57 C 562.72 88.79 559.60 89.47 556.66 89.21 C 556.31 93.96 556.90 98.75 556.36 103.47 C 555.35 106.63 550.19 106.34 549.59 103.04 C 549.38 90.68 549.55 78.31 549.50 65.95 M 556.58 68.12 C 556.55 73.16 556.56 78.20 556.57 83.24 C 561.61 83.05 566.76 83.74 571.73 82.66 C 577.99 81.03 578.11 70.56 571.90 68.76 C 566.90 67.53 561.67 68.37 556.58 68.12 Z" />
<path fill="#2a2e33" opacity="1.00" d=" M 284.23 125.09 C 286.39 123.58 289.92 125.32 289.67 128.04 C 289.81 136.00 289.49 143.98 289.82 151.94 C 289.96 155.80 292.12 159.77 295.88 161.16 C 299.78 162.59 304.52 162.48 308.03 160.10 C 310.94 158.06 312.16 154.40 312.19 150.97 C 312.39 143.04 312.06 135.10 312.34 127.18 C 312.99 123.79 318.48 123.70 319.23 127.08 C 319.58 132.73 319.27 138.40 319.38 144.06 C 319.28 149.52 320.00 155.38 317.31 160.39 C 314.95 165.06 309.94 167.82 304.87 168.48 C 298.73 169.30 291.72 168.41 287.16 163.83 C 283.76 160.52 282.57 155.61 282.58 151.00 C 282.54 143.68 282.56 136.36 282.56 129.04 C 282.50 127.57 282.76 125.82 284.23 125.09 Z" />
<path fill="#2a2e33" opacity="1.00" d=" M 327.01 127.95 C 326.76 125.45 329.85 123.75 331.96 124.89 C 334.13 125.91 333.57 128.64 334.53 130.45 C 336.19 133.36 338.79 135.57 341.30 137.72 C 347.78 143.01 354.74 147.81 360.44 153.99 C 360.48 145.12 360.34 136.24 360.50 127.37 C 360.70 123.87 366.52 123.59 367.11 127.04 C 367.29 139.67 367.14 152.32 367.18 164.96 C 368.01 169.29 360.88 170.13 360.53 165.90 C 359.91 161.25 355.89 158.30 352.65 155.39 C 346.25 150.32 339.54 145.59 333.86 139.68 C 333.69 148.43 333.97 157.19 333.72 165.93 C 333.53 168.54 329.99 169.64 328.15 167.95 C 326.92 167.03 326.98 165.40 326.99 164.04 C 327.03 152.01 326.97 139.98 327.01 127.95 Z" />
<path fill="#2a2e33" opacity="1.00" d=" M 377.26 125.37 C 383.29 124.87 389.43 125.07 395.48 125.32 C 402.59 125.82 409.64 129.92 412.52 136.61 C 415.07 142.65 415.11 149.74 412.77 155.85 C 410.35 162.05 404.33 166.33 397.88 167.48 C 391.62 168.59 385.23 167.98 378.92 168.11 C 376.69 168.38 374.72 166.32 375.06 164.11 C 375.05 152.39 375.04 140.67 375.07 128.96 C 374.91 127.43 375.81 125.91 377.26 125.37 M 382.18 131.13 C 382.20 141.46 382.18 151.78 382.19 162.10 C 387.91 161.96 393.99 162.88 399.33 160.31 C 409.97 155.49 410.00 137.41 399.22 132.75 C 393.85 130.38 387.86 131.30 382.18 131.13 Z" />
<path fill="#2a2e33" opacity="1.00" d=" M 419.69 128.96 C 419.31 126.55 421.72 124.77 423.95 125.12 C 433.26 125.18 442.58 124.98 451.88 125.22 C 454.82 125.88 454.92 130.63 451.93 131.34 C 443.54 131.65 435.12 131.23 426.72 131.54 C 426.79 136.44 426.73 141.33 426.77 146.23 C 433.75 146.33 440.75 146.10 447.74 146.33 C 451.14 146.64 450.98 152.38 447.57 152.50 C 440.63 152.68 433.69 152.49 426.76 152.57 C 426.74 155.65 426.73 158.73 426.80 161.82 C 435.20 161.89 443.61 161.65 452.01 161.93 C 454.84 162.74 454.83 167.29 451.97 168.02 C 442.63 168.27 433.27 168.06 423.93 168.12 C 422.03 168.39 419.67 167.12 419.74 165.00 C 419.62 152.99 419.71 140.97 419.69 128.96 Z" />
<path fill="#2a2e33" opacity="1.00" d=" M 461.75 129.97 C 461.43 127.86 462.62 125.26 465.00 125.19 C 469.99 125.01 474.98 125.16 479.97 125.13 C 485.11 125.03 491.16 126.18 493.95 131.00 C 498.43 138.09 495.30 148.82 487.02 151.39 C 490.75 155.29 495.57 159.18 495.99 164.98 C 496.54 167.70 493.12 169.77 490.90 168.24 C 488.85 167.10 489.42 164.39 488.30 162.63 C 485.66 158.37 481.43 155.48 477.64 152.34 C 474.74 152.30 471.85 152.31 468.97 152.30 C 468.71 156.84 469.06 161.39 468.80 165.93 C 468.33 169.60 462.44 169.62 461.86 165.99 C 461.61 153.99 461.83 141.97 461.75 129.97 M 468.90 131.19 C 468.87 136.21 468.88 141.22 468.89 146.24 C 473.86 146.06 478.92 146.72 483.83 145.74 C 490.37 144.27 490.46 133.37 484.00 131.72 C 479.05 130.64 473.92 131.42 468.90 131.19 Z" />
<path fill="#2a2e33" opacity="1.00" d=" M 506.83 130.82 C 514.45 123.68 526.56 122.87 535.79 127.15 C 539.19 128.54 537.73 134.14 534.02 133.52 C 530.12 132.10 526.12 130.48 521.88 131.08 C 514.24 131.52 507.60 138.25 507.57 145.96 C 507.00 153.08 511.86 160.32 518.96 161.84 C 525.95 163.84 535.42 160.70 536.67 152.70 C 532.58 152.55 528.47 152.94 524.40 152.52 C 521.39 151.58 521.85 146.53 525.06 146.37 C 530.40 146.24 535.75 146.30 541.09 146.34 C 542.62 146.21 544.08 147.40 544.20 148.96 C 544.72 156.29 540.33 163.58 533.61 166.55 C 525.88 170.01 516.29 169.46 509.13 164.89 C 497.98 157.63 497.07 139.61 506.83 130.82 Z" />
<path fill="#2a2e33" opacity="1.00" d=" M 549.52 128.96 C 549.29 127.01 550.96 125.09 552.94 125.17 C 559.30 125.17 565.69 124.87 572.04 125.39 C 577.55 125.75 582.56 129.90 583.35 135.47 C 584.97 142.01 581.24 149.13 574.87 151.37 C 578.37 155.44 583.33 159.14 583.67 164.96 C 584.21 167.59 581.01 169.72 578.75 168.34 C 576.44 167.18 577.19 164.12 575.79 162.30 C 573.14 158.33 569.23 155.43 565.51 152.55 C 562.57 151.99 559.49 152.37 556.51 152.45 C 556.55 156.95 556.66 161.45 556.50 165.95 C 556.04 169.53 550.20 169.66 549.59 166.07 C 549.39 153.71 549.53 141.33 549.52 128.96 M 556.61 131.17 C 556.51 136.19 556.57 141.22 556.57 146.24 C 561.69 146.00 566.95 146.84 571.98 145.60 C 578.02 143.79 578.01 133.52 571.90 131.80 C 566.92 130.55 561.69 131.47 556.61 131.17 Z" />
<path fill="#2a2e33" opacity="1.00" d=" M 603.47 125.59 C 611.49 123.11 620.83 125.19 626.76 131.21 C 635.49 139.51 635.13 155.08 625.97 162.93 C 616.52 171.67 599.83 170.38 592.14 159.94 C 586.85 153.14 586.32 143.12 590.64 135.70 C 593.39 130.83 598.14 127.21 603.47 125.59 M 606.53 131.74 C 598.01 133.74 593.07 143.78 596.08 151.86 C 598.51 159.90 608.26 164.31 615.96 161.12 C 624.00 158.25 627.73 148.11 624.33 140.47 C 621.65 133.63 613.57 129.74 606.53 131.74 Z" />
<path fill="#2a2e33" opacity="1.00" d=" M 640.16 125.02 C 642.38 123.59 645.73 125.43 645.49 128.12 C 645.57 135.73 645.39 143.34 645.57 150.94 C 645.53 155.13 647.60 159.69 651.76 161.20 C 656.48 162.90 662.78 162.35 665.93 158.02 C 668.62 154.24 667.97 149.36 668.06 145.00 C 668.14 139.00 667.86 133.00 668.19 127.01 C 669.10 123.34 675.33 124.06 675.14 127.93 C 675.19 136.28 675.28 144.64 675.09 152.99 C 674.95 159.35 670.90 165.58 664.70 167.49 C 657.57 169.78 648.73 169.27 643.06 163.93 C 639.62 160.61 638.37 155.68 638.43 151.03 C 638.46 143.40 638.40 135.76 638.45 128.13 C 638.37 126.88 639.00 125.60 640.16 125.02 Z" />
<path fill="#2a2e33" opacity="1.00" d=" M 683.65 125.65 C 685.33 123.59 689.36 124.57 689.47 127.35 C 689.97 131.70 693.57 134.60 696.63 137.30 C 703.23 142.77 710.40 147.63 716.24 153.97 C 716.32 144.99 716.12 136.01 716.33 127.05 C 717.07 123.35 723.34 124.04 723.02 127.91 C 723.10 140.30 723.07 152.69 723.03 165.08 C 723.37 167.53 720.61 169.53 718.40 168.51 C 715.65 167.48 716.57 163.97 714.96 162.03 C 711.78 157.58 707.21 154.41 702.95 151.09 C 698.25 147.65 693.89 143.80 689.67 139.80 C 689.51 148.51 689.76 157.22 689.55 165.92 C 689.28 169.60 683.21 169.65 682.89 165.98 C 682.69 154.00 682.89 142.02 682.80 130.05 C 682.91 128.58 682.46 126.80 683.65 125.65 Z" />
<path fill="#2a2e33" opacity="1.00" d=" M 730.66 128.98 C 730.29 126.54 732.68 124.79 734.94 125.13 C 743.50 125.44 752.84 123.74 760.61 128.28 C 766.11 131.38 769.25 137.39 770.00 143.52 L 770.00 149.47 C 769.25 155.32 766.46 161.16 761.32 164.34 C 753.51 169.46 743.77 167.88 734.96 168.12 C 732.54 168.53 730.18 166.51 730.64 164.01 C 730.62 152.33 730.59 140.65 730.66 128.98 M 737.25 131.14 C 737.23 141.44 737.27 151.74 737.23 162.04 C 743.16 162.04 749.53 162.91 754.98 160.01 C 763.97 155.30 764.73 141.08 757.35 134.64 C 751.69 130.06 743.99 131.27 737.25 131.14 Z" />
</g>
<g id="#d9342bff">
<path fill="#d9342b" opacity="1.00" d=" M 65.43 71.12 C 66.73 67.96 69.15 65.27 72.17 63.66 C 60.32 96.60 48.26 129.46 36.34 162.37 C 31.42 153.15 28.15 143.11 23.94 133.55 C 27.05 129.20 28.07 123.89 30.06 119.03 C 33.76 109.28 36.94 99.34 40.93 89.70 C 43.78 96.42 46.42 103.23 49.39 109.90 C 54.74 96.97 60.05 84.04 65.43 71.12 Z" />
</g>
<g id="#e66231ff">
<path fill="#e66231" opacity="1.00" d=" M 91.18 81.12 C 92.28 77.73 93.63 74.42 95.33 71.28 C 100.50 84.21 106.32 96.92 111.07 109.99 C 109.61 112.09 108.62 114.45 107.90 116.89 C 103.46 129.30 98.81 141.63 94.45 154.06 C 89.70 142.75 85.07 131.39 80.36 120.06 C 74.67 133.19 69.64 146.61 63.76 159.65 C 63.66 158.66 63.62 157.67 63.63 156.68 C 72.92 131.54 81.97 106.30 91.18 81.12 Z" />
</g>
<g id="#d66d2fff">
<path fill="#d66d2f" opacity="1.00" d=" M 121.88 84.63 C 125.01 80.02 130.20 76.33 136.00 76.88 C 145.60 75.90 154.66 85.36 153.20 94.91 C 152.33 96.51 151.52 98.14 150.84 99.83 C 148.14 100.14 145.42 99.31 142.76 100.03 C 140.72 100.51 138.62 100.47 136.55 100.21 C 136.93 99.38 137.31 98.55 137.70 97.72 C 131.01 96.08 123.62 98.86 117.44 95.05 C 118.96 91.59 120.25 88.03 121.88 84.63 Z" />
</g>
<g id="#ee7a35ff">
<path fill="#ee7a35" opacity="1.00" d=" M 117.44 95.05 C 123.62 98.86 131.01 96.08 137.70 97.72 C 137.31 98.55 136.93 99.38 136.55 100.21 C 138.62 100.47 140.72 100.51 142.76 100.03 C 145.42 99.31 148.14 100.14 150.84 99.83 C 142.37 119.77 134.21 139.84 125.82 159.81 C 121.64 168.96 108.53 171.20 100.96 164.97 C 97.45 162.31 95.99 158.00 94.45 154.06 C 98.81 141.63 103.46 129.30 107.90 116.89 C 108.62 114.45 109.61 112.09 111.07 109.99 C 113.53 105.17 115.32 100.03 117.44 95.05 Z" />
</g>
<g id="#177fc0ff">
<path fill="#177fc0" opacity="1.00" d=" M 219.45 97.20 C 229.66 96.62 239.90 97.37 250.12 96.91 C 250.12 104.59 250.12 112.28 250.12 119.97 C 239.45 119.84 228.77 119.85 218.10 120.02 C 218.05 114.12 218.00 108.22 218.10 102.32 C 218.48 100.60 218.98 98.90 219.45 97.20 Z" />
</g>
<g id="#1690cbff">
<path fill="#1690cb" opacity="1.00" d=" M 218.10 120.02 C 228.77 119.85 239.45 119.84 250.12 119.97 C 250.10 122.25 250.18 124.54 249.91 126.82 C 249.46 128.60 248.95 130.37 248.36 132.11 C 236.51 131.95 224.67 132.08 212.82 131.98 C 215.98 128.79 218.02 124.54 218.10 120.02 Z" />
</g>
<g id="#1699d1ff">
<path fill="#1699d1" opacity="1.00" d=" M 185.90 123.81 C 187.69 128.62 190.94 133.18 195.92 135.02 C 201.55 137.58 208.28 135.94 212.82 131.98 C 224.67 132.08 236.51 131.95 248.36 132.11 C 247.27 135.27 245.55 138.16 243.45 140.74 C 239.40 139.61 235.19 140.06 231.05 140.02 C 218.86 140.03 206.68 139.98 194.50 140.02 C 194.63 141.09 194.76 142.15 194.89 143.22 C 190.86 139.16 188.21 134.00 186.48 128.60 C 186.27 127.00 186.06 125.41 185.90 123.81 Z" />
</g>
<g id="#8cc33fff">
<path fill="#8cc33f" opacity="1.00" d=" M 248.36 132.11 C 248.95 130.37 249.46 128.60 249.91 126.82 C 248.23 141.60 238.64 155.13 225.67 162.26 C 225.22 159.11 226.17 155.72 224.86 152.74 L 224.04 152.00 C 224.74 151.99 226.14 151.96 226.84 151.95 C 227.41 151.72 228.56 151.27 229.13 151.05 C 234.68 148.90 239.73 145.41 243.45 140.74 C 245.55 138.16 247.27 135.27 248.36 132.11 Z" />
</g>
<g id="#d9be35ff">
<path fill="#d9be35" opacity="1.00" d=" M 186.48 128.60 C 188.21 134.00 190.86 139.16 194.89 143.22 C 197.38 145.73 200.23 147.89 203.41 149.47 C 203.45 149.49 203.54 149.53 203.58 149.55 C 204.00 149.74 204.84 150.12 205.26 150.31 C 204.51 156.42 204.79 162.59 204.82 168.73 C 198.23 168.95 191.59 168.15 185.38 165.85 L 185.39 165.78 C 186.63 153.43 184.87 140.93 186.48 128.60 Z" />
</g>
<g id="#17a2d6ff">
<path fill="#17a2d6" opacity="1.00" d=" M 194.50 140.02 C 206.68 139.98 218.86 140.03 231.05 140.02 C 235.19 140.06 239.40 139.61 243.45 140.74 C 239.73 145.41 234.68 148.90 229.13 151.05 C 228.56 151.27 227.41 151.72 226.84 151.95 C 226.14 151.96 224.74 151.99 224.04 152.00 C 219.57 152.10 215.10 152.10 210.62 152.09 L 210.05 151.99 C 209.47 151.78 208.32 151.36 207.75 151.15 C 207.13 150.94 205.88 150.52 205.26 150.31 C 204.84 150.12 204.00 149.74 203.58 149.55 C 203.54 149.53 203.45 149.49 203.41 149.47 C 200.23 147.89 197.38 145.73 194.89 143.22 C 194.76 142.15 194.63 141.09 194.50 140.02 Z" />
</g>
<g id="#5d887ac6">
<path fill="#5d887a" opacity="0.78" d=" M 203.41 149.47 C 203.45 149.49 203.54 149.53 203.58 149.55 C 203.54 149.53 203.45 149.49 203.41 149.47 Z" />
</g>
<g id="#bbc139ff">
<path fill="#bbc139" opacity="1.00" d=" M 205.26 150.31 C 205.88 150.52 207.13 150.94 207.75 151.15 C 208.32 151.36 209.47 151.78 210.05 151.99 L 210.62 152.09 C 212.08 152.43 213.54 152.78 215.02 153.03 C 215.05 157.37 214.80 161.74 215.43 166.06 L 215.52 166.82 C 211.99 167.67 208.44 168.43 204.82 168.73 C 204.79 162.59 204.51 156.42 205.26 150.31 Z" />
</g>
<g id="#48878ecd">
<path fill="#48878e" opacity="0.80" d=" M 207.75 151.15 C 208.32 151.36 209.47 151.78 210.05 151.99 C 209.47 151.78 208.32 151.36 207.75 151.15 Z" />
</g>
<g id="#5b9268d0">
<path fill="#5b9268" opacity="0.82" d=" M 226.84 151.95 C 227.41 151.72 228.56 151.27 229.13 151.05 C 228.56 151.27 227.41 151.72 226.84 151.95 Z" />
</g>
<g id="#498284c2">
<path fill="#498284" opacity="0.76" d=" M 210.62 152.09 C 215.10 152.10 219.57 152.10 224.04 152.00 L 224.86 152.74 C 221.59 152.96 218.30 153.10 215.02 153.03 C 213.54 152.78 212.08 152.43 210.62 152.09 Z" />
</g>
<g id="#a8c23bff">
<path fill="#a8c23b" opacity="1.00" d=" M 215.02 153.03 C 218.30 153.10 221.59 152.96 224.86 152.74 C 226.17 155.72 225.22 159.11 225.67 162.26 L 225.68 162.48 C 222.38 164.10 219.04 165.66 215.54 166.82 L 215.43 166.06 C 214.80 161.74 215.05 157.37 215.02 153.03 Z" />
</g>
</svg>
