<?xml version="1.0" encoding="UTF-8" standalone="no"?>
<!DOCTYPE svg PUBLIC "-//W3C//DTD SVG 1.1//EN" "http://www.w3.org/Graphics/SVG/1.1/DTD/svg11.dtd">
<svg version="1.1" xmlns="http://www.w3.org/2000/svg" xmlns:xlink="http://www.w3.org/1999/xlink" preserveAspectRatio="xMidYMid meet" viewBox="46.203285420944724 62.73100616016427 155.80903490759746 103.32648870636567" width="156" height="103"><defs><path d="M96.69 62.73C105.44 62.73 112.53 69.82 112.53 78.56C112.53 96.06 112.53 132.73 112.53 150.22C112.53 158.97 105.44 166.06 96.69 166.06C86.6 166.06 72.13 166.06 62.04 166.06C53.29 166.06 46.2 158.97 46.2 150.22C46.2 132.73 46.2 96.06 46.2 78.56C46.2 69.82 53.29 62.73 62.04 62.73C72.13 62.73 86.6 62.73 96.69 62.73Z" id="b19z6ax6ua"></path><path d="M187.35 62.73C195.45 62.73 202.01 69.3 202.01 77.4C202.01 95.13 202.01 133.66 202.01 151.39C202.01 159.49 195.45 166.06 187.35 166.06C177.99 166.06 164.6 166.06 155.24 166.06C147.14 166.06 140.57 159.49 140.57 151.39C140.57 133.66 140.57 95.13 140.57 77.4C140.57 69.3 147.14 62.73 155.24 62.73C164.6 62.73 177.99 62.73 187.35 62.73Z" id="c137qKvXc2"></path><path d="M96.82 62.73L151.97 62.73L151.97 166.06L96.82 166.06L96.82 62.73Z" id="b2xQWsEWS"></path></defs><g><g><use xlink:href="#b19z6ax6ua" opacity="1" fill="#000000" fill-opacity="1"></use><g><use xlink:href="#b19z6ax6ua" opacity="1" fill-opacity="0" stroke="#060109" stroke-width="0" stroke-opacity="1"></use></g></g><g><use xlink:href="#c137qKvXc2" opacity="1" fill="#ff0000" fill-opacity="1"></use><g><use xlink:href="#c137qKvXc2" opacity="1" fill-opacity="0" stroke="#060109" stroke-width="0" stroke-opacity="1"></use></g></g><g><use xlink:href="#b2xQWsEWS" opacity="1" fill="#fff100" fill-opacity="1"></use></g></g></svg>