<?xml version="1.0" encoding="UTF-8" standalone="no"?><!DOCTYPE svg PUBLIC "-//W3C//DTD SVG 1.1//EN" "http://www.w3.org/Graphics/SVG/1.1/DTD/svg11.dtd"><svg width="100%" height="100%" viewBox="0 0 70 47" version="1.1" xmlns="http://www.w3.org/2000/svg" xmlns:xlink="http://www.w3.org/1999/xlink" xml:space="preserve" style="fill-rule:evenodd;clip-rule:evenodd;stroke-linejoin:round;stroke-miterlimit:1.41421;"><g id="_-ed5565ff"><path d="M5.23,0l17.77,0c0,15.67 0,31.33 0,47l-17.4,0c-2.77,-0.49 -4.76,-2.57 -5.6,-5.18l0,-36.39c0.65,-2.65 2.6,-4.67 5.23,-5.43Z" style="fill:#ed5565;fill-rule:nonzero;"/><path d="M46,0l18.39,0c2.79,0.51 4.82,2.58 5.61,5.25l0,36.34c-0.67,2.65 -2.61,4.7 -5.27,5.41l-18.73,0c0,-15.67 0,-31.33 0,-47Z" style="fill:#ed5565;fill-rule:nonzero;"/><path d="M30.93,17.13c1.36,-0.81 2.55,-1.86 3.56,-3.06c1.07,1.19 2.25,2.28 3.63,3.1c-0.25,1.46 -0.52,2.92 -0.79,4.38c1.86,-1.15 4.03,-1.49 6.17,-1.2c0.02,1.51 0.1,3.01 0.13,4.51c-1.34,1.08 -2.66,2.18 -3.99,3.28c-0.04,0.48 -0.13,1.43 -0.17,1.91c-1.49,-0.12 -2.99,-0.23 -4.48,-0.35c-0.22,1.99 -0.36,3.99 -0.6,5.97c-0.13,-1.99 -0.2,-3.99 -0.24,-5.98c-1.36,0.09 -2.72,0.19 -4.08,0.28c-1.22,-2.01 -2.82,-3.75 -4.67,-5.21c0.06,-1.4 0.1,-2.8 0.13,-4.19c1.27,-0.16 2.55,-0.33 3.82,-0.48c0.53,0.42 1.6,1.28 2.14,1.7c-0.19,-1.55 -0.37,-3.11 -0.56,-4.66Z" style="fill:#ed5565;fill-rule:nonzero;"/></g><path id="_-f5f7faff" d="M23,0l23,0c0,15.67 0,31.33 0,47l-23,0c0,-15.67 0,-31.33 0,-47m7.93,17.13c0.19,1.55 0.37,3.11 0.56,4.66c-0.54,-0.42 -1.61,-1.28 -2.14,-1.7c-1.27,0.15 -2.55,0.32 -3.82,0.48c-0.03,1.39 -0.07,2.79 -0.13,4.19c1.85,1.46 3.45,3.2 4.67,5.21c1.36,-0.09 2.72,-0.19 4.08,-0.28c0.04,1.99 0.11,3.99 0.24,5.98c0.24,-1.98 0.38,-3.98 0.6,-5.97c1.49,0.12 2.99,0.23 4.48,0.35c0.04,-0.48 0.13,-1.43 0.17,-1.91c1.33,-1.1 2.65,-2.2 3.99,-3.28c-0.03,-1.5 -0.11,-3 -0.13,-4.51c-2.14,-0.29 -4.31,0.05 -6.17,1.2c0.27,-1.46 0.54,-2.92 0.79,-4.38c-1.38,-0.82 -2.56,-1.91 -3.63,-3.1c-1.01,1.2 -2.2,2.25 -3.56,3.06Z" style="fill:#f5f7fa;fill-rule:nonzero;"/></svg>