<?xml version="1.0" standalone="no"?>
<!DOCTYPE svg PUBLIC "-//W3C//DTD SVG 1.1//EN" "http://www.w3.org/Graphics/SVG/1.1/DTD/svg11.dtd" >
<svg xmlns="http://www.w3.org/2000/svg">
<metadata></metadata>
<defs>
<font id="larke_neueregular" horiz-adv-x="1255" >
<font-face units-per-em="2048" ascent="1565" descent="-483" />
<missing-glyph horiz-adv-x="600" />
<glyph unicode="&#xfb01;" horiz-adv-x="1117" d="M20 875v134h133v175q0 121 70 191t188 70q112 0 213 -80l-79 -98q-55 51 -115 51q-54 0 -86 -32q-31 -32 -31 -86v-191h624v-1009h-160v875h-464v-875h-160v875h-133zM737 1258q1 -50 35 -84q35 -35 85 -35q48 0 84 34t36 85q-1 48 -35 82q-37 36 -85 36q-50 0 -85 -35 q-34 -34 -35 -83z" />
<glyph unicode="&#xfb02;" horiz-adv-x="1023" d="M20 875v134h133v175q0 121 70 191t188 70q112 0 213 -80l-79 -98q-55 51 -115 51q-54 0 -86 -32q-31 -32 -31 -86v-191h184v-134h-184v-875h-160v875h-133zM777 0v1418h159v-1418h-159z" />
<glyph unicode="&#xfb03;" horiz-adv-x="1768" d="M20 875v134h133v175q0 121 70 191t188 70q112 0 213 -80l-79 -98q-55 51 -115 51q-54 0 -86 -32q-31 -32 -31 -86v-191h464v175q0 121 70 191t188 70q112 0 213 -80l-79 -98q-55 51 -115 51q-54 0 -86 -32q-31 -32 -31 -86v-191h624v-1009h-160v875h-464v-875h-160v875 h-464v-875h-160v875h-133zM1361 1258q1 -50 35 -84q35 -35 85 -35q48 0 84 34t36 85q-1 48 -35 82q-37 36 -85 36q-50 0 -85 -35q-34 -34 -35 -83z" />
<glyph unicode="&#xfb04;" horiz-adv-x="1647" d="M20 875v134h133v175q0 121 70 191t188 70q112 0 213 -80l-79 -98q-55 51 -115 51q-54 0 -86 -32q-31 -32 -31 -86v-191h464v175q0 121 70 191t188 70q112 0 213 -80l-79 -98q-55 51 -115 51q-54 0 -86 -32q-31 -32 -31 -86v-191h184v-134h-184v-875h-160v875h-464v-875 h-160v875h-133zM1401 0v1418h159v-1418h-159z" />
<glyph horiz-adv-x="0" />
<glyph unicode="&#xd;" horiz-adv-x="120" />
<glyph unicode=" "  horiz-adv-x="600" />
<glyph unicode="&#x09;" horiz-adv-x="600" />
<glyph unicode="&#xa0;" horiz-adv-x="600" />
<glyph unicode="!" horiz-adv-x="466" d="M100 111q1 -54 39 -92q38 -39 94 -39q54 0 93 38q40 38 40 93q-1 54 -39 92q-40 39 -94 39q-56 0 -94 -38t-39 -93zM126 1418h215l-50 -1019h-115z" />
<glyph unicode="&#x22;" horiz-adv-x="726" d="M100 1418h172l-24 -555h-124zM454 1418h172l-24 -555h-124z" />
<glyph unicode="#" horiz-adv-x="1221" d="M30 408l36 133h240l89 334h-240l36 133h240l110 410h143l-110 -410h234l110 410h143l-110 -410h240l-36 -133h-240l-89 -334h240l-36 -133h-240l-109 -408h-143l109 408h-234l-109 -408h-143l109 408h-240zM449 541h234l89 334h-234z" />
<glyph unicode="$" horiz-adv-x="1237" d="M100 182l109 135q198 -170 432 -170q147 0 230 64q87 68 87 176t-87 167q-63 44 -246 96q-212 60 -295 115q-162 105 -162 281q0 170 127 278q100 84 253 103v272h144v-269q231 -16 416 -169l-109 -135q-162 144 -362 144q-147 0 -220 -64q-67 -57 -67 -160 q0 -95 83 -147q64 -38 249 -92q208 -62 298 -123q157 -105 157 -296q0 -183 -147 -295q-119 -90 -298 -106v-268h-144v268q-239 26 -448 195z" />
<glyph unicode="%" horiz-adv-x="1730" d="M100 1088q0 73 27.5 138t75.5 113t112.5 76t139.5 28q73 0 138.5 -28t114 -76t77.5 -113t29 -138q0 -75 -29 -140.5t-77.5 -114t-114 -76.5t-138.5 -28q-75 0 -139.5 28t-112.5 76.5t-75.5 114t-27.5 140.5zM211 1088q0 -51 19 -96t52 -78t77.5 -52t95.5 -19 q50 0 94.5 19t77.5 52t52.5 78t19.5 96q0 50 -19.5 94.5t-52.5 77.5t-77.5 52.5t-94.5 19.5q-51 0 -95.5 -19.5t-77.5 -52.5t-52 -77.5t-19 -94.5zM346 0l916 1418h117l-916 -1418h-117zM916 334q0 73 27.5 138t75.5 113t112.5 76t139.5 28q73 0 138.5 -28t114 -76 t77.5 -113t29 -138q0 -75 -29 -140.5t-77.5 -114t-114 -76.5t-138.5 -28q-75 0 -139.5 28t-112.5 76.5t-75.5 114t-27.5 140.5zM1027 334q0 -51 19 -96t52 -78t77.5 -52t95.5 -19q50 0 94.5 19t77.5 52t52.5 78t19.5 96q0 50 -19.5 94.5t-52.5 77.5t-77.5 52.5t-94.5 19.5 q-51 0 -95.5 -19.5t-77.5 -52.5t-52 -77.5t-19 -94.5z" />
<glyph unicode="&#x26;" horiz-adv-x="1282" d="M100 368q0 128 70 230q55 84 209 189q-93 173 -93 298q0 166 99 259t246 93q154 0 239 -80t85 -202q0 -161 -159 -272q-64 -45 -219 -131q112 -192 310 -390q23 35 50 153.5t30 178.5h215v-115h-83q-29 -179 -106 -329q74 -77 259 -250h-214q-48 42 -141 134 q-147 -147 -368 -147q-189 0 -309 102.5t-120 278.5zM260 368q0 -116 73 -184q74 -69 190 -69q169 0 275 122q-192 201 -352 438q-186 -127 -186 -307zM439 1091q0 -108 80 -240q146 74 204 125q84 75 84 179q0 76 -44 120q-45 44 -119 44q-93 0 -149 -61t-56 -167z" />
<glyph unicode="'" horiz-adv-x="372" d="M100 1418h172l-24 -555h-124z" />
<glyph unicode="(" horiz-adv-x="799" d="M100 519q0 316 171 567.5t435 351.5l63 -112q-223 -107 -359 -325t-136 -481.5t136 -483t359 -326.5l-63 -109q-264 99 -435 350.5t-171 567.5z" />
<glyph unicode=")" horiz-adv-x="799" d="M30 -288q223 107 359 325t136 481.5t-136 483t-359 326.5l63 109q264 -99 435 -350.5t171 -567.5t-171 -567.5t-435 -351.5z" />
<glyph unicode="*" horiz-adv-x="1005" d="M100 874l304 133l-304 129l86 153l267 -200l-39 329h174l-36 -329l264 200l89 -153l-307 -129l307 -133l-89 -149l-264 196l36 -328h-174l39 328l-267 -196z" />
<glyph unicode="+" horiz-adv-x="1200" d="M100 642v133h421v434h158l1 -434h420v-133h-420l-1 -433h-158v433h-421z" />
<glyph unicode="," horiz-adv-x="477" d="M100 111q0 53 39 91.5t95 38.5q65 0 104 -45.5t39 -118.5q0 -207 -197 -391l-75 65q131 130 148 230q-6 -1 -21 -1q-55 0 -94 37q-38 38 -38 94z" />
<glyph unicode="-" horiz-adv-x="677" d="M100 509h477v133h-477v-133z" />
<glyph unicode="." horiz-adv-x="466" d="M100 111q1 -54 39 -92q38 -39 94 -39q54 0 93 38q40 38 40 93q-1 54 -39 92q-40 39 -94 39q-56 0 -94 -38t-39 -93z" />
<glyph unicode="/" horiz-adv-x="978" d="M30 -411l775 2240h143l-775 -2240h-143z" />
<glyph unicode="0" horiz-adv-x="1299" d="M100 708.5q0 317.5 156 525t394 207.5t393 -209q156 -206 156 -523.5t-155.5 -525.5t-393.5 -208t-394 208t-156 525.5zM275 705q0 -257 103 -419t271.5 -162t273 162t104.5 419t-104.5 420.5t-273 163.5t-269.5 -165q-105 -162 -105 -419z" />
<glyph unicode="1" horiz-adv-x="713" d="M100 1240l333 178h140v-1418h-165v1247l-245 -127z" />
<glyph unicode="2" horiz-adv-x="1079" d="M100 0v130l429 454q152 159 206 238q67 99 67 200q0 115 -80 194q-76 76 -203 76q-181 0 -321 -139l-95 123q181 165 416 165q206 0 340 -127q120 -114 120 -292q0 -136 -89 -273q-41 -66 -222 -257l-327 -346h638v-146h-879z" />
<glyph unicode="3" horiz-adv-x="1158" d="M80 97l100 121q146 -93 342 -93q167 0 267 68q99 69 99 199t-102 211.5t-248 81.5h-162v146h162q124 0 215 62q87 59 87 171t-81 168q-82 56 -236 56q-158 0 -287 -59l-97 118q174 94 399 94q213 0 342 -94q134 -96 134 -264q0 -240 -261 -324q146 -50 224 -149 q81 -107 81 -243q0 -199 -148 -297q-147 -95 -378 -95q-278 0 -452 122z" />
<glyph unicode="4" horiz-adv-x="1229" d="M100 367v114l711 937h143v-911h175v-140h-175v-367h-165v367h-689zM290 507h499v654z" />
<glyph unicode="5" horiz-adv-x="1197" d="M100 204l105 124q154 -203 384 -203q147 0 241 88q96 90 96 229q0 141 -88 229q-88 89 -224 89q-206 0 -285 -178l-175 70l70 766h797v-137h-645l-51 -518q131 146 321.5 146t320.5 -133.5t130 -333.5q0 -203 -142 -335t-366 -132q-292 0 -489 229z" />
<glyph unicode="6" horiz-adv-x="1235" d="M100 692q0 375 171 572q156 177 391 177q168 0 308 -95q41 -28 95 -82l-99 -131q-70 70 -104 96q-83 60 -200 60q-150 0 -251 -117q-134 -156 -140 -489q148 225 384 225q190 0 334 -127q146 -130 146 -343q0 -209 -140 -340q-133 -123 -346 -123q-238 0 -381 158 q-168 188 -168 559zM309 441q0 -130 95.5 -223.5t232 -93.5t231.5 93.5t95 223.5t-95 224t-231.5 94t-232.5 -95q-95 -93 -95 -223z" />
<glyph unicode="7" horiz-adv-x="1168" d="M100 1278v140h968v-111l-619 -1307h-184l622 1278h-787z" />
<glyph unicode="8" horiz-adv-x="1219" d="M100 365q0 143 79.5 244.5t212.5 149.5q-247 86 -247 324q0 174 130 266t333 92t333 -92q131 -92 131 -266q0 -238 -248 -324q137 -48 216 -149.5t79 -244.5q0 -190 -142.5 -290t-368 -100t-367 100t-141.5 290zM272 391q0 -131 95 -199t241 -68t241.5 68t95.5 199 q0 133 -97 214t-240 81t-241 -83q-95 -79 -95 -212zM316 1063.5q0 -111.5 82.5 -171.5t209.5 -60t209.5 60t82.5 171.5t-81 168.5t-211 57t-213 -57q-79 -57 -79 -168.5z" />
<glyph unicode="9" horiz-adv-x="1235" d="M100 975q0 209 139 339q137 127 347 127q238 0 380 -161q169 -188 169 -559q0 -375 -172 -572q-152 -174 -390 -174q-172 0 -308 92q-41 28 -99 85l102 127q70 -69 105 -95q82 -60 200 -60q149 0 251 117q133 156 139 489q-148 -225 -384 -225q-190 0 -333 127 q-146 130 -146 343zM270 970q0 -130 95.5 -223.5t232 -93.5t231.5 93.5t95 223.5t-95 224t-231.5 94t-232.5 -95q-95 -93 -95 -223z" />
<glyph unicode=":" horiz-adv-x="466" d="M100 111q1 -54 39 -92q38 -39 94 -39q54 0 93 38q40 38 40 93q-1 54 -39 92q-40 39 -94 39q-56 0 -94 -38t-39 -93zM100 898q1 -54 39 -92q38 -39 94 -39q54 0 93 38q40 38 40 93q-1 54 -39 92q-40 39 -94 39q-56 0 -94 -38t-39 -93z" />
<glyph unicode=";" horiz-adv-x="477" d="M100 111q0 53 39 91.5t95 38.5q65 0 104 -45.5t39 -118.5q0 -207 -197 -391l-75 65q131 130 148 230q-6 -1 -21 -1q-55 0 -94 37q-38 38 -38 94zM101 898q1 -54 39 -92q38 -39 94 -39q54 0 93 38q40 38 40 93q-1 54 -39 92q-40 39 -94 39q-56 0 -94 -38t-39 -93z" />
<glyph unicode="&#x3c;" horiz-adv-x="1200" d="M100 654v110l1000 420v-143l-834 -332l834 -334v-141z" />
<glyph unicode="=" horiz-adv-x="1200" d="M100 408h1000v133h-1000v-133zM100 875h1000v133h-1000v-133z" />
<glyph unicode="&#x3e;" horiz-adv-x="1200" d="M100 234v143l834 332l-834 334v141l1000 -420v-110z" />
<glyph unicode="?" horiz-adv-x="1006" d="M100 1360q158 80 308 80q220 0 359 -127q139 -128 139 -336q0 -193 -134 -309.5t-351 -141.5l-13 -128h-140l-12 246l158 19q324 59 324 314q0 137 -92 225.5t-238 88.5q-143 0 -242 -68zM205 111q1 -54 39 -92q38 -39 94 -39q54 0 93 38q40 38 40 93q-1 54 -39 92 q-40 39 -94 39q-56 0 -94 -38t-39 -93z" />
<glyph unicode="@" horiz-adv-x="2066" d="M100 504q0 -376 275 -643.5t662 -267.5q333 0 590 204l-58 54q-230 -186 -532 -186q-349 0 -597.5 246.5t-248.5 592.5t249 588t602 242q349 0 591.5 -240t242.5 -586q0 -186 -64.5 -283t-148.5 -97q-60 0 -102.5 48.5t-42.5 128.5v702h-163v-135q-44 52 -145.5 106 t-228.5 54q-219 0 -360.5 -149t-141.5 -378.5t141.5 -379.5t360.5 -150q127 0 228.5 53.5t145.5 104.5q33 -69 97 -109t140 -40q147 -3 260.5 134.5t113.5 389.5q0 376 -268 638q-269 261 -657 261t-664.5 -263.5t-276.5 -639.5zM648 504.5q0 174.5 100 285.5 q101 110 261.5 110t261.5 -110.5t101 -285t-101 -287t-261.5 -112.5t-261 112.5t-100.5 287z" />
<glyph unicode="A" horiz-adv-x="1402" d="M30 0l594 1418h156l592 -1418h-178l-153 372h-680l-150 -372h-181zM418 512h569l-286 696z" />
<glyph unicode="B" horiz-adv-x="1315" d="M140 0v1418h662q149 0 255.5 -105t106.5 -254q0 -102 -50.5 -188t-136.5 -130q108 -45 173 -140t65 -216q0 -159 -111 -272t-270 -113h-694zM306 137h474q108 0 186 77.5t78 189.5q0 108 -78 186t-186 78h-474v-531zM306 804h445q99 0 169 70t70 168.5t-70 168.5t-169 70 h-445v-477z" />
<glyph unicode="C" horiz-adv-x="1472" d="M100 707.5q0 318.5 199 527.5t503 209q388 0 590 -321l-159 -72q-145 228 -431 228q-234 0 -380 -163q-143 -159 -143 -409q0 -253 145 -412t378 -159q286 0 431 228l159 -72q-198 -318 -590 -318q-304 0 -503 207.5t-199 526z" />
<glyph unicode="D" horiz-adv-x="1455" d="M140 0v1418h506q305 0 507 -192.5t202 -516.5t-202 -516.5t-507 -192.5h-506zM306 137h302q245 0 408.5 157t163.5 415t-163.5 415t-408.5 157h-302v-1144z" />
<glyph unicode="E" horiz-adv-x="1169" d="M140 0v1418h929v-137h-763v-477h699v-136h-699v-531h763v-137h-929z" />
<glyph unicode="F" horiz-adv-x="1149" d="M140 0v1418h929v-137h-763v-477h635v-136h-635v-668h-166z" />
<glyph unicode="G" horiz-adv-x="1567" d="M100 710q0 318 199.5 525t503.5 207q191 0 340 -88t233 -240l-159 -71q-132 237 -414 237q-234 0 -379 -160t-145 -413.5t145 -412t379 -158.5q217 0 348 138.5t148 364.5h-532v139h697q3 -37 3 -68q0 -324 -181 -529q-182 -206 -483 -206q-304 0 -503.5 208.5 t-199.5 526.5z" />
<glyph unicode="H" horiz-adv-x="1403" d="M140 0v1418h166v-614h791v614h166v-1418h-166v668h-791v-668h-166z" />
<glyph unicode="I" horiz-adv-x="446" d="M140 0v1418h166v-1418h-166z" />
<glyph unicode="J" horiz-adv-x="903" d="M50 139l104 125q87 -125 217 -125q114 0 175 76q61 77 61 197v1006h166v-1027q0 -174 -104.5 -287.5t-297.5 -113.5q-210 0 -321 149z" />
<glyph unicode="K" horiz-adv-x="1185" d="M140 0v1418h166v-668l611 668h226l-608 -645l620 -773h-209l-516 658l-124 -133v-525h-166z" />
<glyph unicode="L" horiz-adv-x="1054" d="M140 0v1418h166v-1281h668v-137h-834z" />
<glyph unicode="M" horiz-adv-x="1747" d="M140 0v1418h217l518 -1176l515 1176h217v-1418h-166v1154l-505 -1154h-124l-506 1154v-1154h-166z" />
<glyph unicode="N" horiz-adv-x="1432" d="M140 0v1418h166l820 -1154v1154h166v-1418h-166l-820 1157v-1157h-166z" />
<glyph unicode="O" horiz-adv-x="1608" d="M100 708q0 318 200 527.5t504.5 209.5t505.5 -211q198 -208 198 -526t-199.5 -525.5t-504 -207.5t-504.5 207.5t-200 525.5zM279 708q0 -253 146 -412q145 -159 379 -159t379.5 159t145.5 412t-145 412t-380 159q-239 0 -382 -159t-143 -412z" />
<glyph unicode="P" horiz-adv-x="1201" d="M140 0v1418h557q172 0 288 -108t116 -292.5t-116 -292.5t-288 -108h-391v-617h-166zM306 754h356q114 0 189 71.5t75 192t-75 192t-189 71.5h-356v-527z" />
<glyph unicode="Q" horiz-adv-x="1594" d="M100 716q0 315 197.5 522t499.5 207t501 -209q196 -205 196 -520q0 -353 -280 -578h328v-138h-745h-28q-283 0 -471 196q-198 205 -198 520zM277 716q0 -250 144 -408q145 -158 376 -158t375.5 158t144.5 408.5t-144 408t-376 157.5q-236 0 -378 -157.5t-142 -408.5z" />
<glyph unicode="R" horiz-adv-x="1201" d="M140 0v1418h557q172 0 288 -108t116 -293q0 -182 -116 -286q-94 -86 -225 -105l391 -626h-204l-375 617h-266v-617h-166zM306 754h356q114 0 189 71.5t75 192t-75 192t-189 71.5h-356v-527z" />
<glyph unicode="S" horiz-adv-x="1252" d="M100 177l111 133q197 -177 437 -177q153 0 234 61q87 69 87 182q-1 107 -90 168q-70 47 -246 98q-216 61 -299 116q-165 114 -165 294q0 174 129 283q130 110 344 110h8q251 0 472 -179l-111 -133q-165 155 -366 155q-149 0 -223 -66q-69 -58 -69 -162q0 -97 85 -149 q74 -46 253 -98q206 -57 298 -122q163 -118 163 -306t-150 -303q-143 -107 -360 -107q-302 0 -542 202z" />
<glyph unicode="T" horiz-adv-x="1257" d="M80 1281v137h1097v-137h-467v-1281h-165v1281h-465z" />
<glyph unicode="U" horiz-adv-x="1398" d="M130 532v886h165v-893q0 -181 109.5 -292t291 -111t292.5 111t111 292v893h169v-886q0 -261 -154 -409t-418 -148t-415 148t-151 409z" />
<glyph unicode="V" horiz-adv-x="1402" d="M30 1418h181l490 -1205l493 1205h178l-592 -1418h-155z" />
<glyph unicode="W" horiz-adv-x="2047" d="M30 1418h174l369 -1202l356 1202h188l359 -1202l369 1202h172l-436 -1418h-194l-362 1227l-366 -1227h-194z" />
<glyph unicode="X" horiz-adv-x="1379" d="M30 0l560 734l-525 684h210l416 -550l417 550h206l-524 -684l559 -734h-206l-452 598l-451 -598h-210z" />
<glyph unicode="Y" horiz-adv-x="1313" d="M30 1418h201l426 -639l426 639h200l-544 -788v-630h-165v630z" />
<glyph unicode="Z" horiz-adv-x="1306" d="M100 0v121l861 1148h-826v149h1055v-118l-865 -1151h881v-149h-1106z" />
<glyph unicode="[" horiz-adv-x="478" d="M140 -411h308v115h-171v2040h171v115h-308v-2270z" />
<glyph unicode="\" horiz-adv-x="978" d="M30 1829h143l775 -2240h-143z" />
<glyph unicode="]" horiz-adv-x="478" d="M30 -296h171v2040h-171v115h308v-2270h-308v115z" />
<glyph unicode="^" horiz-adv-x="789" d="M30 724l299 694h131l299 -694h-153l-212 504l-211 -504h-153z" />
<glyph unicode="_" horiz-adv-x="1700" d="M100 -91v-133h1500v133h-1500z" />
<glyph unicode="`" horiz-adv-x="625" d="M100 1418l173 75l252 -286h-144z" />
<glyph unicode="a" d="M100 503q0 229 138.5 380t351.5 151t366 -159v134h159v-1009h-159v134q-153 -159 -366 -159t-351 149q-139 150 -139 379zM265 503q0 -178 99 -288t255 -110t254.5 110t98.5 288t-98.5 289.5t-254.5 111.5t-255 -112q-99 -111 -99 -289z" />
<glyph unicode="b" d="M140 0v1418h159v-543q153 159 366 159t351 -151q139 -151 139 -380t-138.5 -378.5t-351.5 -149.5t-366 159v-134h-159zM283 503q0 -178 98.5 -288t254.5 -110t255 110t99 288t-99 289.5t-255 111.5t-254 -112q-99 -111 -99 -289z" />
<glyph unicode="c" horiz-adv-x="1112" d="M100 503q0 226 143 378.5t363 152.5q284 0 426 -232l-140 -64q-92 166 -286 166q-153 0 -247 -111.5t-94 -289.5t94 -288t247 -110q194 0 286 166l140 -67q-143 -229 -426 -229q-220 0 -363 149.5t-143 378.5z" />
<glyph unicode="d" d="M100 503q0 229 138.5 380t351.5 151t366 -159v543h159v-1418h-159v134q-153 -159 -366 -159t-351 149q-139 150 -139 379zM265 503q0 -178 99 -288t255 -110t254.5 110t98.5 288t-98.5 289.5t-254.5 111.5t-255 -112q-99 -111 -99 -289z" />
<glyph unicode="e" horiz-adv-x="1193" d="M100 507q0 226 143 377t363 151q218 0 352 -148q135 -148 135 -380v-58h-827q3 -19 9 -51q29 -133 127.5 -212.5t235.5 -79.5q165 0 274 117l143 -66q-140 -182 -417 -182q-232 0 -385 151.5t-153 380.5zM266 561h681q-16 153 -108.5 248t-232.5 95t-232 -95t-108 -248z " />
<glyph unicode="f" horiz-adv-x="724" d="M60 875v134h133v175q0 121 70 191t188 70q112 0 213 -80l-79 -98q-55 51 -115 51q-54 0 -86 -32q-31 -32 -31 -86v-191h184v-134h-184v-875h-160v875h-133z" />
<glyph unicode="g" horiz-adv-x="1259" d="M100 507q0 229 140 378.5t354 149.5t366 -159v134h159v-1022q0 -191 -137 -307t-367 -116q-255 0 -448 114l73 134q199 -105 379 -105q165 0 253 71q88 72 88 190v165q-152 -159 -366 -159t-354 151q-140 152 -140 381zM266 507q0 -179 100 -290t256 -111t254.5 111 t98.5 289.5t-98.5 288t-254.5 109.5q-159 0 -257.5 -111t-98.5 -286z" />
<glyph unicode="h" horiz-adv-x="1172" d="M140 0v1418h160v-549q153 165 359 165q163 0 273 -108q110 -109 110 -293v-633h-160v624q0 124 -67 202t-188 78q-130 0 -228.5 -92.5t-98.5 -251.5v-560h-160z" />
<glyph unicode="i" horiz-adv-x="520" d="M140 1258q1 -50 35 -84q35 -35 85 -35q48 0 84 34t36 85q-1 48 -35 82q-37 36 -85 36q-50 0 -85 -35q-34 -34 -35 -83zM180 0v1009h160v-1009h-160z" />
<glyph unicode="j" horiz-adv-x="702" d="M50 -356l80 95q54 -48 114 -48q54 0 86 32t32 83v1203h159v-1184q0 -121 -70 -191t-188 -70q-111 0 -213 80zM322 1258q1 -50 35 -84q35 -35 85 -35q48 0 84 34t36 85q-1 48 -35 82q-37 36 -85 36q-50 0 -85 -35q-34 -34 -35 -83z" />
<glyph unicode="k" horiz-adv-x="1035" d="M140 0v1418h159v-902l484 493h219l-458 -452l461 -557h-203l-363 452l-140 -140v-312h-159z" />
<glyph unicode="l" horiz-adv-x="439" d="M140 0v1418h159v-1418h-159z" />
<glyph unicode="m" horiz-adv-x="1807" d="M140 0v1009h159v-140q146 165 331 165q213 0 321 -194q175 194 369 194q156 0 256.5 -106.5t100.5 -294.5v-633h-160v624q0 280 -225 280q-118 0 -210.5 -92.5t-92.5 -251.5v-560h-159v624q0 280 -226 280q-121 0 -213 -92.5t-92 -251.5v-560h-159z" />
<glyph unicode="n" horiz-adv-x="1170" d="M140 0v1009h159v-140q152 165 358 165q164 0 274 -108q109 -109 109 -293v-633h-159v624q0 124 -66.5 202t-187.5 78q-131 0 -229.5 -92.5t-98.5 -251.5v-560h-159z" />
<glyph unicode="o" horiz-adv-x="1215" d="M100 503q0 229 143 380t362.5 151t366.5 -152q143 -150 143 -379t-145 -378.5t-364.5 -149.5t-362.5 149.5t-143 378.5zM265 503q0 -178 94 -288t246.5 -110t248 110t95.5 288t-95.5 289.5t-248 111.5t-244.5 -112q-96 -111 -96 -289z" />
<glyph unicode="p" d="M140 -411v1420h159v-134q153 159 366 159t351 -151q139 -151 139 -380t-138.5 -378.5t-351.5 -149.5t-366 159v-545h-159zM283 503q0 -178 99 -288t254.5 -110t254.5 110t99 288t-99 289.5t-254.5 111.5t-254.5 -112q-99 -111 -99 -289z" />
<glyph unicode="q" d="M100 503q0 229 138.5 380t351.5 151t366 -159v134h159v-1420h-159v545q-153 -159 -366 -159t-351 149q-139 150 -139 379zM265 503q0 -178 99 -288t254.5 -110t254.5 110t99 288t-99 289q-99 112 -254.5 112t-254.5 -111.5t-99 -289.5z" />
<glyph unicode="r" horiz-adv-x="715" d="M140 0v1009h159v-121q133 146 350 146h6v-181q-57 19 -127 19q-96 0 -162 -52q-67 -53 -67 -164v-656h-159z" />
<glyph unicode="s" horiz-adv-x="1002" d="M100 134l93 114q140 -140 318 -140q108 0 169 45q63 48 63 121q0 76 -63 114q-38 23 -182 67q-178 54 -226 83q-127 76 -127 210q0 130 99 207q105 79 267 79q204 0 372 -140l-89 -114q-127 121 -283 121q-99 0 -156 -45q-48 -38 -48 -105q0 -64 61 -102q44 -25 184 -67 q160 -47 226 -89q124 -79 124 -219q0 -134 -114 -220q-108 -79 -277 -79q-235 0 -411 159z" />
<glyph unicode="t" horiz-adv-x="725" d="M80 875v134h134v321h159v-321h185v-134h-185v-659q0 -51 32 -82.5t86 -31.5q60 0 114 48l80 -99q-99 -76 -213 -76q-118 0 -188 70t-70 191v639h-134z" />
<glyph unicode="u" horiz-adv-x="1170" d="M130 376v633h159v-624q0 -124 67 -202t187 -78q131 0 229.5 92.5t98.5 251.5v560h159v-1009h-159v140q-152 -165 -358 -165q-163 0 -273 108q-110 109 -110 293z" />
<glyph unicode="v" horiz-adv-x="1047" d="M30 1009h172l322 -805l324 805h169l-407 -1009h-172z" />
<glyph unicode="w" horiz-adv-x="1553" d="M30 1009h166l245 -799l258 799h156l257 -799l246 799h165l-312 -1009h-169l-264 824l-264 -824h-172z" />
<glyph unicode="x" horiz-adv-x="1047" d="M30 0l401 522l-376 487h195l273 -363l274 363h194l-375 -487l401 -522h-195l-299 395l-299 -395h-194z" />
<glyph unicode="y" horiz-adv-x="1171" d="M130 -321l73 130q169 -102 341 -102q153 0 240 73q88 74 88 188v172q-147 -165 -357 -165q-162 0 -273.5 108t-111.5 293v633h159v-624q0 -127 65.5 -203.5t186.5 -76.5q130 0 230.5 92.5t100.5 251.5v560h159v-1022q0 -191 -136 -307q-137 -116 -353 -116 q-232 0 -412 115z" />
<glyph unicode="z" horiz-adv-x="1024" d="M100 0v112l598 763h-569v134h783v-115l-599 -760h611v-134h-824z" />
<glyph unicode="{" horiz-adv-x="549" d="M29 645v156h82q102 0 102 132v595q-1 216 157 294q74 36 148 36v-138q-44 0 -85 -21q-82 -43 -82 -171v-548q0 -118 -59 -191q-34 -40 -93 -65q56 -23 93 -69q59 -69 59 -190v-544q0 -130 82 -174q42 -22 85 -22v-138q-79 0 -148 36q-66 35 -111.5 111t-45.5 187v591 q0 133 -102 133h-82z" />
<glyph unicode="|" horiz-adv-x="418" d="M140 -411v2240h138v-2240h-138z" />
<glyph unicode="}" horiz-adv-x="549" d="M30 -274q44 0 85 21q82 43 82 171v548q0 118 59 191q34 40 93 65q-56 23 -93 69q-59 69 -59 190v544q0 130 -82 174q-42 22 -85 22v138q79 0 148 -36q66 -35 111.5 -111t45.5 -187v-591q0 -133 102 -133h82v-156h-82q-102 0 -102 -132v-595q1 -216 -157 -294 q-74 -36 -148 -36v138z" />
<glyph unicode="~" horiz-adv-x="1010" d="M100 1251q50 99 110.5 147.5t134.5 48.5q80 0 192 -94q84 -72 128 -72q38 0 76 38t75 96l94 -51q-51 -99 -111.5 -148.5t-134.5 -49.5t-189 96q-82 68 -130 68q-38 0 -77 -36t-75 -96z" />
<glyph unicode="&#xa1;" horiz-adv-x="466" d="M100 898q1 -54 39 -92q40 -39 94 -39q56 0 94 38t39 93q-1 54 -39 92q-38 39 -94 39q-54 0 -93 -38q-40 -38 -40 -93zM125 -409l50 1019h115l50 -1019h-215z" />
<glyph unicode="&#xa2;" horiz-adv-x="1111" d="M100 504.5q0 209.5 120.5 354.5t311.5 170v280h153v-283q228 -35 346 -223l-140 -66q-92 165 -283 165q-152 0 -247.5 -109.5t-95.5 -287.5t95.5 -289.5t247.5 -111.5q191 0 283 165l140 -63q-121 -191 -346 -226v-279h-153v279q-191 26 -311.5 170.5t-120.5 354z" />
<glyph unicode="&#xa3;" horiz-adv-x="1260" d="M100 63q103 119 257 149v422h-168v127h168v273q0 178 106.5 293t300.5 115q214 0 329 -153l-108 -127q-84 129 -221 129q-115 0 -177.5 -79t-62.5 -202v-249h367v-127h-367v-420q65 -9 168 -45q132 -46 199 -46q111 0 199 60l70 -132q-122 -76 -269 -76q-103 0 -249 50 q-132 46 -201 46q-120 0 -224 -104z" />
<glyph unicode="&#xa4;" horiz-adv-x="1002" d="M100 399l100 100q-19 29 -32 62q-28 68 -28 146q0 75 27 141q14 34 34 64l-100 100l94 94l97 -97q31 21 67 37q67 29 143 29q75 0 141 -29q36 -16 67 -38l97 98l94 -94l-99 -99q21 -30 36 -64q30 -67 30 -142q0 -78 -29 -146q-15 -34 -35 -64l98 -98l-94 -94l-97 97 q-32 -21 -68 -37q-66 -29 -141 -29q-76 0 -142 28q-37 16 -68 39l-98 -98zM262 709q0 -100 69.5 -169t170.5 -69q99 0 170 69t71 169q0 99 -71 171.5t-170 72.5q-101 0 -170.5 -72.5t-69.5 -171.5z" />
<glyph unicode="&#xa5;" horiz-adv-x="1312" d="M30 1418h200l426 -639l426 639h200l-356 -519h239v-133h-334l-92 -137v-76h426v-137h-426v-416h-165v416h-429v137h429v76l-96 137h-333v133h241z" />
<glyph unicode="&#xa6;" horiz-adv-x="418" d="M140 0v597h138v-597h-138zM140 821v597h138v-597h-138z" />
<glyph unicode="&#xa7;" horiz-adv-x="1001" d="M100 737q0 131 115 216q19 13 22 16q-92 77 -92 188q0 127 98 203q108 83 267 83q203 0 372 -140l-92 -114q-127 120 -280 120q-102 0 -156 -44q-47 -38 -47 -105q0 -70 57 -105q44 -25 184 -67q165 -47 229 -89q124 -79 124 -216q0 -133 -114 -219q-19 -13 -23 -16 q96 -79 96 -184q0 -131 -102 -207q-105 -79 -264 -79q-206 0 -375 140l92 114q128 -121 280 -121q105 0 156 41.5t51 108.5q0 63 -61 101q-44 26 -184 67q-165 48 -229 89q-124 79 -124 219zM261.5 737.5q-0.5 -76.5 61.5 -114.5q34 -22 184 -67l95 -28q45 9 77 34 q63 48 61.5 118t-61.5 114q-36 26 -182 70l-98 29q-45 -10 -76 -35q-61 -44 -61.5 -120.5z" />
<glyph unicode="&#xa8;" horiz-adv-x="794" d="M100 1622q1 -43 31 -74q31 -31 76 -31q43 0 74 30q32 31 32 75q-1 43 -31 73q-32 32 -75 32q-45 0 -76 -31q-30 -30 -31 -74zM481 1622q1 -43 31 -74q31 -31 76 -31q43 0 74 30q32 31 32 75q-1 43 -31 73q-32 32 -75 32q-45 0 -76 -31q-30 -30 -31 -74z" />
<glyph unicode="&#xa9;" horiz-adv-x="1258" d="M100 505q0 215 156 372t375 158q218 0 372 -154q155 -155 155 -376.5t-154.5 -376t-373 -154.5t-374.5 156t-156 375zM175 505q0 -187 134.5 -319.5t321.5 -132.5t319.5 132.5t132.5 319.5t-132.5 319.5t-319.5 132.5t-322 -134q-134 -131 -134 -318zM316 504.5 q0 143.5 90.5 239t227.5 95.5q178 0 268 -147l-72 -31q-63 102 -196 102q-106 0 -173 -74q-65 -73 -65 -184q0 -116 66 -187.5t172 -71.5q133 0 196 103l72 -31q-90 -147 -268 -147q-137 0 -227.5 95t-90.5 238.5z" />
<glyph unicode="&#xaa;" horiz-adv-x="754" d="M100 989.5q0 94.5 61.5 151t170.5 56.5q129 0 227 -73v69q0 72 -53 116t-135 44q-94 0 -161 -38l-45 75q95 43 206 43q129 0 206 -65t77 -179v-390h-95v57q-98 -71 -227 -71q-112 0 -172 55t-60 149.5zM201 989.5q0 -56.5 41 -92t115 -35.5q81 0 146.5 40.5t65.5 87 t-65.5 88t-146.5 41.5q-74 0 -115 -36.5t-41 -93z" />
<glyph unicode="&#xab;" horiz-adv-x="1090" d="M100 505l328 387h193l-332 -387l332 -387h-193zM469 505l328 387h193l-332 -387l332 -387h-193z" />
<glyph unicode="&#xac;" horiz-adv-x="1200" d="M100 776v133h1000v-399h-138v266h-862z" />
<glyph unicode="&#xad;" horiz-adv-x="677" d="M100 509h477v133h-477v-133z" />
<glyph unicode="&#xae;" horiz-adv-x="1257" d="M100 504q0 215 155.5 372.5t372.5 157.5q219 0 374 -157q155 -155 155 -373t-155.5 -373.5t-373 -155.5t-373 155.5t-155.5 373.5zM177 504.5q0 -186.5 133 -318.5t318.5 -132t318.5 132t133 318.5t-133 318.5t-318.5 132t-317.5 -134q-134 -130 -134 -316.5zM412 182 v655h257q79 0 133 -49q54 -50 54 -136q0 -84 -54 -132q-43 -40 -104 -48l181 -290h-95l-173 285h-123v-285h-76zM488 531h165q52 0 87 33t35 88.5t-35 88.5t-87 33h-165v-243z" />
<glyph unicode="&#xaf;" horiz-adv-x="929" d="M100 1443h729v134h-729v-134z" />
<glyph unicode="&#xb0;" horiz-adv-x="660" d="M100 1200q0 48 17.5 90t48.5 74t73 50.5t90 18.5q47 0 89 -18.5t73.5 -50.5t50 -74t18.5 -90q0 -49 -18.5 -92t-50 -74.5t-73.5 -49.5t-89 -18q-48 0 -90 18t-73 49.5t-48.5 74.5t-17.5 92zM203 1200q0 -52 36.5 -88.5t89.5 -36.5q52 0 89 36.5t37 88.5t-37 90t-89 38 q-53 0 -89.5 -38t-36.5 -90z" />
<glyph unicode="&#xb1;" horiz-adv-x="1200" d="M100 209h1000v133h-421l1 300h420v133h-420l-1 434h-158v-434h-421v-133h421v-300h-421v-133z" />
<glyph unicode="&#xb2;" horiz-adv-x="728" d="M100 578v78l258 272q91 96 123 143q40 60 40 120q0 69 -48 117q-45 45 -121 45q-109 0 -193 -83l-57 74q109 99 250 99q123 0 204 -77q72 -68 72 -175q0 -81 -54 -164q-24 -39 -133 -154l-196 -207h383v-88h-528z" />
<glyph unicode="&#xb3;" horiz-adv-x="768" d="M100 635l60 72q70 -56 196 -56q91 0 149 41q58 42 58 120t-59.5 126.5t-147.5 48.5h-97v88h97q74 0 129 37q52 36 52 103t-48.5 100.5t-127.5 33.5q-96 0 -167 -32l-58 68q101 56 220 56q127 0 205 -56q81 -58 81 -159q0 -144 -157 -194q88 -30 134 -90q49 -63 49 -145 q0 -116 -88 -176t-228 -60q-166 0 -252 74z" />
<glyph unicode="&#xb4;" horiz-adv-x="425" d="M0 1443l252 286l173 -75l-281 -211h-144z" />
<glyph unicode="&#xb5;" horiz-adv-x="1180" d="M140 -411v1420h1h-1h159v-633q3 -118 67 -193q67 -78 187 -78q131 0 229 92q99 93 99 252v560h159v-1009h-159v140q-152 -165 -358 -165q-128 0 -224 67v-453h-159z" />
<glyph unicode="&#xb6;" horiz-adv-x="1221" d="M100 1017.5q0 184.5 116 292.5t288 108h245v-1829h-166v1028h-79q-172 0 -288 108t-116 292.5zM915 -411v1829h166v-1829h-166z" />
<glyph unicode="&#xb7;" horiz-adv-x="266" d="M0 505q1 -54 39 -92q38 -39 94 -39q54 0 93 38q40 38 40 93q-1 54 -39 92q-40 39 -94 39q-56 0 -94 -38t-39 -93z" />
<glyph unicode="&#xb8;" horiz-adv-x="371" d="M0 -248l125 248h104l-91 -181q33 14 72 14q68 0 114 -43q47 -44 47 -117q0 -78 -60.5 -132t-158.5 -54q-85 0 -149 33l45 91q52 -26 104 -26q54 0 84 25q31 25 31 63q0 34 -28.5 58t-68.5 24q-58 0 -99 -36z" />
<glyph unicode="&#xb9;" horiz-adv-x="504" d="M80 1311l200 107h84v-851h-99v748l-147 -76z" />
<glyph unicode="&#xba;" horiz-adv-x="820" d="M100 1107.5q0 139.5 87 232t221.5 92.5t223.5 -93q88 -92 88 -231.5t-88.5 -231t-223 -91.5t-221.5 91.5t-87 231zM200 1107.5q0 -108.5 57.5 -176t151 -67.5t151.5 67.5t58 176t-58 177t-151.5 68.5t-149.5 -69q-59 -68 -59 -176.5z" />
<glyph unicode="&#xbb;" horiz-adv-x="1090" d="M100 118l332 387l-332 387h193l328 -387l-328 -387h-193zM469 118l332 387l-332 387h193l328 -387l-328 -387h-193z" />
<glyph unicode="&#xbc;" horiz-adv-x="1554" d="M100 1311l200 107h84v-851h-99v748l-147 -76zM222 0l916 1418h117l-916 -1418h-117zM836 220v69l427 562h86v-547h105v-84h-105v-220h-99v220h-414zM950 304h300v393z" />
<glyph unicode="&#xbd;" horiz-adv-x="1581" d="M100 1311l200 107h84v-851h-99v748l-147 -76zM189 0l916 1418h117l-916 -1418h-117zM953 0v78l258 272q91 96 123 143q40 60 40 120q0 69 -48 117q-45 45 -121 45q-109 0 -193 -83l-57 74q109 99 250 99q123 0 204 -77q72 -68 72 -175q0 -81 -54 -164q-24 -39 -133 -154 l-196 -207h383v-88h-528z" />
<glyph unicode="&#xbe;" horiz-adv-x="1648" d="M100 635l60 72q70 -56 196 -56q91 0 149 41q58 42 58 120t-59.5 126.5t-147.5 48.5h-97v88h97q74 0 129 37q52 36 52 103t-48.5 100.5t-127.5 33.5q-96 0 -167 -32l-58 68q101 56 220 56q127 0 205 -56q81 -58 81 -159q0 -144 -157 -194q88 -30 134 -90q49 -63 49 -145 q0 -116 -88 -176t-228 -60q-166 0 -252 74zM394 0l916 1418h117l-916 -1418h-117zM930 220v69l427 562h86v-547h105v-84h-105v-220h-99v220h-414zM1044 304h300v393z" />
<glyph unicode="&#xbf;" horiz-adv-x="1006" d="M100 32q0 193 134 309.5t351 141.5l13 128h140l12 -246l-158 -19q-324 -59 -324 -314q0 -137 92 -225.5t238 -88.5q143 0 242 68l66 -137q-158 -80 -308 -80q-220 0 -359 127q-139 128 -139 336zM535 898q1 -54 39 -92q40 -39 94 -39q56 0 94 38t39 93q-1 54 -39 92 q-38 39 -94 39q-54 0 -93 -38q-40 -38 -40 -93z" />
<glyph unicode="&#xc0;" horiz-adv-x="1402" d="M30 0l594 1418h156l592 -1418h-178l-153 372h-680l-150 -372h-181zM418 512h569l-286 696zM489 1731l173 75l252 -286h-144z" />
<glyph unicode="&#xc1;" horiz-adv-x="1402" d="M30 0l594 1418h156l592 -1418h-178l-153 372h-680l-150 -372h-181zM418 512h569l-286 696zM489 1520l252 286l173 -75l-281 -211h-144z" />
<glyph unicode="&#xc2;" horiz-adv-x="1402" d="M30 0l594 1418h156l592 -1418h-178l-153 372h-680l-150 -372h-181zM349 1520l251 285h203l251 -285h-142l-210 158l-210 -158h-143zM418 512h569l-286 696z" />
<glyph unicode="&#xc3;" horiz-adv-x="1402" d="M30 0l594 1418h156l592 -1418h-178l-153 372h-680l-150 -372h-181zM363 1621q47 59 99 91t115 31q66 0 159 -56q60 -36 92 -36q58 0 102 62l110 -71q-45 -60 -97.5 -91t-114.5 -31q-69 0 -159 54q-62 38 -92 38q-58 0 -103 -62zM418 512h569l-286 696z" />
<glyph unicode="&#xc4;" horiz-adv-x="1402" d="M30 0l594 1418h156l592 -1418h-178l-153 372h-680l-150 -372h-181zM404 1625q1 -43 31 -74q31 -31 76 -31q43 0 74 30q32 31 32 75q-1 43 -31 73q-32 32 -75 32q-45 0 -76 -31q-30 -30 -31 -74zM418 512h569l-286 696zM785 1625q1 -43 31 -74q31 -31 76 -31q43 0 74 30 q32 31 32 75q-1 43 -31 73q-32 32 -75 32q-45 0 -76 -31q-30 -30 -31 -74z" />
<glyph unicode="&#xc5;" horiz-adv-x="1402" d="M30 0l594 1418h156l592 -1418h-178l-153 372h-680l-150 -372h-181zM418 512h569l-286 696zM470 1726q0 48 17.5 90t48.5 74t73 50.5t90 18.5q47 0 89 -18.5t73.5 -50.5t50 -74t18.5 -90q0 -49 -18.5 -92t-50 -74.5t-73.5 -49.5t-89 -18q-48 0 -90 18t-73 49.5t-48.5 74.5 t-17.5 92zM584 1726q0 -48 33.5 -81t81.5 -33t81.5 33t33.5 81q0 47 -33.5 82t-81.5 35t-81.5 -35t-33.5 -82z" />
<glyph unicode="&#xc6;" horiz-adv-x="2094" d="M30 0l1036 1418h928v-136h-763v-481h699v-137h-699v-527h763v-137h-928v372h-563l-270 -372h-203zM602 508h464v647z" />
<glyph unicode="&#xc7;" horiz-adv-x="1472" d="M100 708q0 318 199 527t503 209q388 0 590 -321l-159 -72q-145 228 -431 228q-234 0 -380 -163q-143 -159 -143 -409q0 -253 145 -412t378 -159q286 0 431 228l159 -72q-193 -310 -569 -318l-80 -159q33 14 72 14q68 0 114 -43q47 -44 47 -117q0 -78 -61 -132 q-60 -54 -158 -54q-85 0 -149 33l45 91q52 -26 104 -26q54 0 84 25q31 25 31 63q0 34 -29 58q-28 24 -68 24q-58 0 -99 -36l-71 33l116 230q-250 24 -422 204q-199 207 -199 526z" />
<glyph unicode="&#xc8;" horiz-adv-x="1169" d="M140 0v1418h929v-137h-763v-477h699v-136h-699v-531h763v-137h-929zM392 1731l173 75l252 -286h-144z" />
<glyph unicode="&#xc9;" horiz-adv-x="1169" d="M140 0v1418h929v-137h-763v-477h699v-136h-699v-531h763v-137h-929zM392 1520l252 286l173 -75l-281 -211h-144z" />
<glyph unicode="&#xca;" horiz-adv-x="1169" d="M140 0v1418h929v-137h-763v-477h699v-136h-699v-531h763v-137h-929zM252 1520l251 285h203l251 -285h-142l-210 158l-210 -158h-143z" />
<glyph unicode="&#xcb;" horiz-adv-x="1169" d="M140 0v1418h929v-137h-763v-477h699v-136h-699v-531h763v-137h-929zM307 1625q1 -43 31 -74q31 -31 76 -31q43 0 74 30q32 31 32 75q-1 43 -31 73q-32 32 -75 32q-45 0 -76 -31q-30 -30 -31 -74zM688 1625q1 -43 31 -74q31 -31 76 -31q43 0 74 30q32 31 32 75 q-1 43 -31 73q-32 32 -75 32q-45 0 -76 -31q-30 -30 -31 -74z" />
<glyph unicode="&#xcc;" horiz-adv-x="425" d="M11 1731l173 75l252 -286h-144zM140 0v1418h166v-1418h-166z" />
<glyph unicode="&#xcd;" horiz-adv-x="447" d="M11 1520l252 286l173 -75l-281 -211h-144zM140 0v1418h166v-1418h-166z" />
<glyph unicode="&#xce;" horiz-adv-x="447" d="M-129 1520l251 285h203l251 -285h-142l-210 158l-210 -158h-143zM140 0v1418h166v-1418h-166z" />
<glyph unicode="&#xcf;" horiz-adv-x="446" d="M-74 1625q1 -43 31 -74q31 -31 76 -31q43 0 74 30q32 31 32 75q-1 43 -31 73q-32 32 -75 32q-45 0 -76 -31q-30 -30 -31 -74zM140 0v1418h166v-1418h-166zM307 1625q1 -43 31 -74q31 -31 76 -31q43 0 74 30q32 31 32 75q-1 43 -31 73q-32 32 -75 32q-45 0 -76 -31 q-30 -30 -31 -74z" />
<glyph unicode="&#xd0;" horiz-adv-x="1529" d="M50 640v136h165v642h506q305 0 506.5 -192t201.5 -516.5t-201.5 -517t-506.5 -192.5h-506v640h-165zM381 137h305q244 0 408 157.5t164 415t-164 415t-408 157.5h-305v-506h330v-136h-330v-503z" />
<glyph unicode="&#xd1;" horiz-adv-x="1432" d="M140 0v1418h166l820 -1154v1154h166v-1418h-166l-820 1157v-1157h-166zM378 1621q47 59 99 91t115 31q66 0 159 -56q60 -36 92 -36q58 0 102 62l110 -71q-45 -60 -97.5 -91t-114.5 -31q-69 0 -159 54q-62 38 -92 38q-58 0 -103 -62z" />
<glyph unicode="&#xd2;" horiz-adv-x="1608" d="M100 708q0 318 200 527.5t504.5 209.5t505.5 -211q198 -208 198 -526t-199.5 -525.5t-504 -207.5t-504.5 207.5t-200 525.5zM279 708q0 -253 146 -412q145 -159 379 -159t379.5 159t145.5 412t-145 412t-380 159q-239 0 -382 -159t-143 -412zM592 1758l173 75l252 -286 h-144z" />
<glyph unicode="&#xd3;" horiz-adv-x="1608" d="M100 708q0 318 200 527.5t504.5 209.5t505.5 -211q198 -208 198 -526t-199.5 -525.5t-504 -207.5t-504.5 207.5t-200 525.5zM279 708q0 -253 146 -412q145 -159 379 -159t379.5 159t145.5 412t-145 412t-380 159q-239 0 -382 -159t-143 -412zM592 1547l252 286l173 -75 l-281 -211h-144z" />
<glyph unicode="&#xd4;" horiz-adv-x="1608" d="M100 708q0 318 200 527.5t504.5 209.5t505.5 -211q198 -208 198 -526t-199.5 -525.5t-504 -207.5t-504.5 207.5t-200 525.5zM279 708q0 -253 146 -412q145 -159 379 -159t379.5 159t145.5 412t-145 412t-380 159q-239 0 -382 -159t-143 -412zM452 1547l251 285h203 l251 -285h-142l-210 158l-210 -158h-143z" />
<glyph unicode="&#xd5;" horiz-adv-x="1608" d="M100 708q0 318 200 527.5t504.5 209.5t505.5 -211q198 -208 198 -526t-199.5 -525.5t-504 -207.5t-504.5 207.5t-200 525.5zM279 708q0 -253 146 -412q145 -159 379 -159t379.5 159t145.5 412t-145 412t-380 159q-239 0 -382 -159t-143 -412zM466 1648q47 59 99 91 t115 31q66 0 159 -56q60 -36 92 -36q58 0 102 62l110 -71q-45 -60 -97.5 -91t-114.5 -31q-69 0 -159 54q-62 38 -92 38q-58 0 -103 -62z" />
<glyph unicode="&#xd6;" horiz-adv-x="1608" d="M100 708q0 318 200 527.5t504.5 209.5t505.5 -211q198 -208 198 -526t-199.5 -525.5t-504 -207.5t-504.5 207.5t-200 525.5zM279 708q0 -253 146 -412q145 -159 379 -159t379.5 159t145.5 412t-145 412t-380 159q-239 0 -382 -159t-143 -412zM507 1652q1 -43 31 -74 q31 -31 76 -31q43 0 74 30q32 31 32 75q-1 43 -31 73q-32 32 -75 32q-45 0 -76 -31q-30 -30 -31 -74zM888 1652q1 -43 31 -74q31 -31 76 -31q43 0 74 30q32 31 32 75q-1 43 -31 73q-32 32 -75 32q-45 0 -76 -31q-30 -30 -31 -74z" />
<glyph unicode="&#xd7;" horiz-adv-x="1002" d="M100 403l308 308l-307 305l94 94l307 -306l305 306l94 -94l-305 -305l306 -308l-94 -94l-306 307l-308 -307z" />
<glyph unicode="&#xd8;" horiz-adv-x="1605" d="M80 59l174 175q-155 201 -155 476q0 318 199.5 525.5t503.5 207.5q289 0 480 -182l172 172l71 -75l-175 -174q156 -201 156 -474q0 -318 -199.5 -527t-504.5 -209q-285 0 -479 185l-172 -172zM287 696q0 -204 99 -347l769 769q-143 137 -353 137q-229 0 -372 -155.5 t-143 -403.5zM443 279q146 -140 359 -140q234 0 379.5 159t145.5 412q0 208 -100 353z" />
<glyph unicode="&#xd9;" horiz-adv-x="1398" d="M130 532v886h165v-893q0 -181 109.5 -292t291 -111t292.5 111t111 292v893h169v-886q0 -261 -154 -409t-418 -148t-415 148t-151 409zM487 1731l173 75l252 -286h-144z" />
<glyph unicode="&#xda;" horiz-adv-x="1398" d="M130 532v886h165v-893q0 -181 109.5 -292t291 -111t292.5 111t111 292v893h169v-886q0 -261 -154 -409t-418 -148t-415 148t-151 409zM487 1520l252 286l173 -75l-281 -211h-144z" />
<glyph unicode="&#xdb;" horiz-adv-x="1398" d="M130 532v886h165v-893q0 -181 109.5 -292t291 -111t292.5 111t111 292v893h169v-886q0 -261 -154 -409t-418 -148t-415 148t-151 409zM347 1520l251 285h203l251 -285h-142l-210 158l-210 -158h-143z" />
<glyph unicode="&#xdc;" horiz-adv-x="1398" d="M130 532v886h165v-893q0 -181 109.5 -292t291 -111t292.5 111t111 292v893h169v-886q0 -261 -154 -409t-418 -148t-415 148t-151 409zM402 1625q1 -43 31 -74q31 -31 76 -31q43 0 74 30q32 31 32 75q-1 43 -31 73q-32 32 -75 32q-45 0 -76 -31q-30 -30 -31 -74zM783 1625 q1 -43 31 -74q31 -31 76 -31q43 0 74 30q32 31 32 75q-1 43 -31 73q-32 32 -75 32q-45 0 -76 -31q-30 -30 -31 -74z" />
<glyph unicode="&#xdd;" horiz-adv-x="1313" d="M30 1418h201l426 -639l426 639h200l-544 -788v-630h-165v630zM444 1520l252 286l173 -75l-281 -211h-144z" />
<glyph unicode="&#xde;" horiz-adv-x="1201" d="M140 0v1418h166v-309h391q172 0 288 -108t116 -292q0 -185 -116 -293t-288 -108h-391v-308h-166zM306 445h356q114 0 189 71.5t75 192t-75 192t-189 71.5h-356v-527z" />
<glyph unicode="&#xdf;" horiz-adv-x="1099" d="M140 0v1095q0 143 113.5 245t275.5 102q165 0 282 -102t117 -245q0 -106 -67.5 -192.5t-175.5 -125.5q314 -84 314 -381q0 -175 -124.5 -285.5t-308.5 -110.5h-141v130h109q138 0 220.5 79t82.5 211t-82.5 211t-220.5 79h-109v130h96q112 0 178 67t66 169q0 104 -68 170 t-168 66q-91 0 -158 -63t-76 -154v-1095h-155z" />
<glyph unicode="&#xe0;" d="M100 503q0 229 138.5 380t351.5 151t366 -159v134h159v-1009h-159v134q-153 -159 -366 -159t-351 149q-139 150 -139 379zM265 503q0 -178 99 -288t255 -110t254.5 110t98.5 288t-98.5 289.5t-254.5 111.5t-255 -112q-99 -111 -99 -289zM406 1346l173 75l252 -286h-144z " />
<glyph unicode="&#xe1;" d="M100 503q0 229 138.5 380t351.5 151t366 -159v134h159v-1009h-159v134q-153 -159 -366 -159t-351 149q-139 150 -139 379zM265 503q0 -178 99 -288t255 -110t254.5 110t98.5 288t-98.5 289.5t-254.5 111.5t-255 -112q-99 -111 -99 -289zM418 1135l252 286l173 -75 l-281 -211h-144z" />
<glyph unicode="&#xe2;" d="M100 503q0 229 138.5 380t351.5 151t366 -159v134h159v-1009h-159v134q-153 -159 -366 -159t-351 149q-139 150 -139 379zM256 1135l251 285h203l251 -285h-142l-210 158l-210 -158h-143zM265 503q0 -178 99 -288t255 -110t254.5 110t98.5 288t-98.5 289.5t-254.5 111.5 t-255 -112q-99 -111 -99 -289z" />
<glyph unicode="&#xe3;" d="M100 503q0 229 138.5 380t351.5 151t366 -159v134h159v-1009h-159v134q-153 -159 -366 -159t-351 149q-139 150 -139 379zM265 503q0 -178 99 -288t255 -110t254.5 110t98.5 288t-98.5 289.5t-254.5 111.5t-255 -112q-99 -111 -99 -289zM286 1236q47 59 99 91t115 31 q66 0 159 -56q60 -36 92 -36q58 0 102 62l110 -71q-45 -60 -97.5 -91t-114.5 -31q-69 0 -159 54q-62 38 -92 38q-58 0 -103 -62z" />
<glyph unicode="&#xe4;" d="M100 503q0 229 138.5 380t351.5 151t366 -159v134h159v-1009h-159v134q-153 -159 -366 -159t-351 149q-139 150 -139 379zM265 503q0 -178 99 -288t255 -110t254.5 110t98.5 288t-98.5 289.5t-254.5 111.5t-255 -112q-99 -111 -99 -289zM315 1240q1 -43 31 -74 q31 -31 76 -31q43 0 74 30q32 31 32 75q-1 43 -31 73q-32 32 -75 32q-45 0 -76 -31q-30 -30 -31 -74zM696 1240q1 -43 31 -74q31 -31 76 -31q43 0 74 30q32 31 32 75q-1 43 -31 73q-32 32 -75 32q-45 0 -76 -31q-30 -30 -31 -74z" />
<glyph unicode="&#xe5;" d="M100 503q0 229 138.5 380t351.5 151t366 -159v134h159v-1009h-159v134q-153 -159 -366 -159t-351 149q-139 150 -139 379zM265 503q0 -178 99 -288t255 -110t254.5 110t98.5 288t-98.5 289.5t-254.5 111.5t-255 -112q-99 -111 -99 -289zM377 1369q0 48 17.5 90t48.5 74 t73 50.5t90 18.5q47 0 89 -18.5t73.5 -50.5t50 -74t18.5 -90q0 -49 -18.5 -92t-50 -74.5t-73.5 -49.5t-89 -18q-48 0 -90 18t-73 49.5t-48.5 74.5t-17.5 92zM491 1369q0 -48 33.5 -81t81.5 -33t81.5 33t33.5 81q0 47 -33.5 82t-81.5 35t-81.5 -35t-33.5 -82z" />
<glyph unicode="&#xe6;" horiz-adv-x="1941" d="M100 308.5q0 152.5 100 245t278 92.5q210 0 369 -118v111q0 118 -86 189.5t-220 71.5q-152 0 -260 -60l-76 120q156 70 336 70q296 0 410 -194q182 198 401 198q216 0 353 -148q136 -148 136 -380q0 -38 -3 -57h-823q3 -19 10 -51q28 -134 125 -213t234 -79 q168 0 276 117l140 -67q-140 -181 -416 -181q-283 0 -436 210q-38 -48 -101 -92q-159 -118 -369 -118q-181 0 -279.5 90.5t-98.5 243zM265 315q0 -92 66.5 -149t187.5 -57q131 0 237 65t106 141.5t-106 141.5t-237 65q-121 0 -187.5 -57.5t-66.5 -149.5zM1015 560h677 q-16 153 -108 248t-232 95t-232 -95q-89 -95 -105 -248z" />
<glyph unicode="&#xe7;" horiz-adv-x="1112" d="M100 503q0 226 143 379q143 152 363 152q284 0 426 -232l-140 -64q-92 166 -286 166q-153 0 -247 -112q-94 -111 -94 -289t94 -288t247 -110q194 0 286 166l140 -67q-140 -225 -416 -229l-62 -122q33 14 72 14q68 0 114 -43q47 -44 47 -117q0 -78 -61 -132 q-60 -54 -158 -54q-85 0 -149 33l45 91q52 -26 104 -26q54 0 84 25q31 25 31 63q0 34 -29 58q-28 24 -68 24q-58 0 -99 -36l-71 33l99 196q-160 26 -272 143q-143 149 -143 378z" />
<glyph unicode="&#xe8;" horiz-adv-x="1193" d="M100 507q0 226 143 377t363 151q218 0 352 -148q135 -148 135 -380v-58h-827q3 -19 9 -51q29 -133 127.5 -212.5t235.5 -79.5q165 0 274 117l143 -66q-140 -182 -417 -182q-232 0 -385 151.5t-153 380.5zM266 561h681q-16 153 -108.5 248t-232.5 95t-232 -95t-108 -248z M384 1348l173 75l252 -286h-144z" />
<glyph unicode="&#xe9;" horiz-adv-x="1193" d="M100 507q0 226 143 377t363 151q218 0 352 -148q135 -148 135 -380v-58h-827q3 -19 9 -51q29 -133 127.5 -212.5t235.5 -79.5q165 0 274 117l143 -66q-140 -182 -417 -182q-232 0 -385 151.5t-153 380.5zM266 561h681q-16 153 -108.5 248t-232.5 95t-232 -95t-108 -248z M384 1137l252 286l173 -75l-281 -211h-144z" />
<glyph unicode="&#xea;" horiz-adv-x="1193" d="M100 507q0 226 143 377t363 151q218 0 352 -148q135 -148 135 -380v-58h-827q3 -19 9 -51q29 -133 127.5 -212.5t235.5 -79.5q165 0 274 117l143 -66q-140 -182 -417 -182q-232 0 -385 151.5t-153 380.5zM244 1137l251 285h203l251 -285h-142l-210 158l-210 -158h-143z M266 561h681q-16 153 -108.5 248t-232.5 95t-232 -95t-108 -248z" />
<glyph unicode="&#xeb;" horiz-adv-x="1193" d="M100 507q0 226 143 377t363 151q218 0 352 -148q135 -148 135 -380v-58h-827q3 -19 9 -51q29 -133 127.5 -212.5t235.5 -79.5q165 0 274 117l143 -66q-140 -182 -417 -182q-232 0 -385 151.5t-153 380.5zM266 561h681q-16 153 -108.5 248t-232.5 95t-232 -95t-108 -248z M311 1242q1 -43 31 -74q31 -31 76 -31q43 0 74 30q32 31 32 75q-1 43 -31 73q-32 32 -75 32q-45 0 -76 -31q-30 -30 -31 -74zM692 1242q1 -43 31 -74q31 -31 76 -31q43 0 74 30q32 31 32 75q-1 43 -31 73q-32 32 -75 32q-45 0 -76 -31q-30 -30 -31 -74z" />
<glyph unicode="&#xec;" horiz-adv-x="445" d="M10 1323l173 75l252 -286h-144zM142 0v1009h160v-1009h-160z" />
<glyph unicode="&#xed;" horiz-adv-x="445" d="M10 1111l252 286l173 -75l-281 -211h-144zM142 0v1009h160v-1009h-160z" />
<glyph unicode="&#xee;" horiz-adv-x="441" d="M-132 1111l251 285h203l251 -285h-142l-210 158l-210 -158h-143zM140 0v1009h160v-1009h-160z" />
<glyph unicode="&#xef;" horiz-adv-x="440" d="M-77 1216q1 -43 31 -74q31 -31 76 -31q43 0 74 30q32 31 32 75q-1 43 -31 73q-32 32 -75 32q-45 0 -76 -31q-30 -30 -31 -74zM140 0v1009h160v-1009h-160zM304 1216q1 -43 31 -74q31 -31 76 -31q43 0 74 30q32 31 32 75q-1 43 -31 73q-32 32 -75 32q-45 0 -76 -31 q-30 -30 -31 -74z" />
<glyph unicode="&#xf0;" horiz-adv-x="1198" d="M100 506q0 229 134.5 378.5t334.5 149.5q210 0 329 -156q-69 184 -216 357l-239 -156l-57 89l223 146q-35 35 -118 105l92 105q76 -67 143 -133l220 146l57 -89l-204 -134q299 -340 299 -773q0 -248 -135 -407t-358 -159q-219 0 -362 151t-143 380zM262 506 q0 -178 95.5 -289.5t248 -111.5t246.5 111.5t94 289.5t-94 288t-246.5 110t-248.5 -111q-95 -109 -95 -287z" />
<glyph unicode="&#xf1;" horiz-adv-x="1170" d="M140 0v1009h159v-140q152 165 358 165q164 0 274 -108q109 -109 109 -293v-633h-159v624q0 124 -66.5 202t-187.5 78q-131 0 -229.5 -92.5t-98.5 -251.5v-560h-159zM252 1237q47 59 99 91t115 31q66 0 159 -56q60 -36 92 -36q58 0 102 62l110 -71q-45 -60 -97.5 -91 t-114.5 -31q-69 0 -159 54q-62 38 -92 38q-58 0 -103 -62z" />
<glyph unicode="&#xf2;" horiz-adv-x="1215" d="M100 503q0 229 143 380t362.5 151t366.5 -152q143 -150 143 -379t-145 -378.5t-364.5 -149.5t-362.5 149.5t-143 378.5zM265 503q0 -178 94 -288t246.5 -110t248 110t95.5 288t-95.5 289.5t-248 111.5t-244.5 -112q-96 -111 -96 -289zM396 1347l173 75l252 -286h-144z " />
<glyph unicode="&#xf3;" horiz-adv-x="1215" d="M100 503q0 229 143 380t362.5 151t366.5 -152q143 -150 143 -379t-145 -378.5t-364.5 -149.5t-362.5 149.5t-143 378.5zM265 503q0 -178 94 -288t246.5 -110t248 110t95.5 288t-95.5 289.5t-248 111.5t-244.5 -112q-96 -111 -96 -289zM396 1136l252 286l173 -75 l-281 -211h-144z" />
<glyph unicode="&#xf4;" horiz-adv-x="1215" d="M100 503q0 229 143 380t362.5 151t366.5 -152q143 -150 143 -379t-145 -378.5t-364.5 -149.5t-362.5 149.5t-143 378.5zM256 1136l251 285h203l251 -285h-142l-210 158l-210 -158h-143zM265 503q0 -178 94 -288t246.5 -110t248 110t95.5 288t-95.5 289.5t-248 111.5 t-244.5 -112q-96 -111 -96 -289z" />
<glyph unicode="&#xf5;" horiz-adv-x="1215" d="M100 503q0 229 143 380t362.5 151t366.5 -152q143 -150 143 -379t-145 -378.5t-364.5 -149.5t-362.5 149.5t-143 378.5zM265 503q0 -178 94 -288t246.5 -110t248 110t95.5 288t-95.5 289.5t-248 111.5t-244.5 -112q-96 -111 -96 -289zM270 1237q47 59 99 91t115 31 q66 0 159 -56q60 -36 92 -36q58 0 102 62l110 -71q-45 -60 -97.5 -91t-114.5 -31q-69 0 -159 54q-62 38 -92 38q-58 0 -103 -62z" />
<glyph unicode="&#xf6;" horiz-adv-x="1215" d="M100 503q0 229 143 380t362.5 151t366.5 -152q143 -150 143 -379t-145 -378.5t-364.5 -149.5t-362.5 149.5t-143 378.5zM265 503q0 -178 94 -288t246.5 -110t248 110t95.5 288t-95.5 289.5t-248 111.5t-244.5 -112q-96 -111 -96 -289zM311 1241q1 -43 31 -74 q31 -31 76 -31q43 0 74 30q32 31 32 75q-1 43 -31 73q-32 32 -75 32q-45 0 -76 -31q-30 -30 -31 -74zM692 1241q1 -43 31 -74q31 -31 76 -31q43 0 74 30q32 31 32 75q-1 43 -31 73q-32 32 -75 32q-45 0 -76 -31q-30 -30 -31 -74z" />
<glyph unicode="&#xf7;" horiz-adv-x="1200" d="M100 643h1000v133h-1000v-133zM493 367q1 -43 31 -74q31 -31 76 -31q43 0 74 30q32 31 32 75q-1 43 -31 73q-32 32 -75 32q-45 0 -76 -31q-30 -30 -31 -74zM493 1052q1 -43 31 -74q31 -31 76 -31q43 0 74 30q32 31 32 75q-1 43 -31 73q-32 32 -75 32q-45 0 -76 -31 q-30 -30 -31 -74z" />
<glyph unicode="&#xf8;" horiz-adv-x="1207" d="M97 506q0 229 143 378.5t362 149.5q197 0 337 -121l95 95l73 -70l-101 -102q104 -139 104 -330q0 -229 -144.5 -380t-363.5 -151q-188 0 -334 124l-98 -98l-70 73l102 98q-105 140 -105 334zM262 506q0 -130 48 -222l524 524q-95 95 -232 95q-153 0 -246.5 -109.5 t-93.5 -287.5zM370 201q95 -95 232 -95q152 0 247.5 111t95.5 289q0 124 -51 219z" />
<glyph unicode="&#xf9;" horiz-adv-x="1170" d="M130 376v633h159v-624q0 -124 67 -202t187 -78q131 0 229.5 92.5t98.5 251.5v560h159v-1009h-159v140q-152 -165 -358 -165q-163 0 -273 108q-110 109 -110 293zM368 1322l173 75l252 -286h-144z" />
<glyph unicode="&#xfa;" horiz-adv-x="1170" d="M130 376v633h159v-624q0 -124 67 -202t187 -78q131 0 229.5 92.5t98.5 251.5v560h159v-1009h-159v140q-152 -165 -358 -165q-163 0 -273 108q-110 109 -110 293zM368 1111l252 286l173 -75l-281 -211h-144z" />
<glyph unicode="&#xfb;" horiz-adv-x="1170" d="M130 376v633h159v-624q0 -124 67 -202t187 -78q131 0 229.5 92.5t98.5 251.5v560h159v-1009h-159v140q-152 -165 -358 -165q-163 0 -273 108q-110 109 -110 293zM228 1111l251 285h203l251 -285h-142l-210 158l-210 -158h-143z" />
<glyph unicode="&#xfc;" horiz-adv-x="1170" d="M130 376v633h159v-624q0 -124 67 -202t187 -78q131 0 229.5 92.5t98.5 251.5v560h159v-1009h-159v140q-152 -165 -358 -165q-163 0 -273 108q-110 109 -110 293zM283 1216q1 -43 31 -74q31 -31 76 -31q43 0 74 30q32 31 32 75q-1 43 -31 73q-32 32 -75 32q-45 0 -76 -31 q-30 -30 -31 -74zM664 1216q1 -43 31 -74q31 -31 76 -31q43 0 74 30q32 31 32 75q-1 43 -31 73q-32 32 -75 32q-45 0 -76 -31q-30 -30 -31 -74z" />
<glyph unicode="&#xfd;" horiz-adv-x="1171" d="M130 -321l73 130q169 -102 341 -102q153 0 240 73q88 74 88 188v172q-147 -165 -357 -165q-162 0 -273.5 108t-111.5 293v633h159v-624q0 -127 65.5 -203.5t186.5 -76.5q130 0 230.5 92.5t100.5 251.5v560h159v-1022q0 -191 -136 -307q-137 -116 -353 -116 q-232 0 -412 115zM368 1111l252 286l173 -75l-281 -211h-144z" />
<glyph unicode="&#xfe;" d="M140 -411v1829h159v-543q153 159 366 159t351 -151q139 -151 139 -380t-138.5 -378.5t-351.5 -149.5t-366 159v-545h-159zM283 503q0 -178 99 -288t254.5 -110t254.5 110t99 288t-99 289.5t-254.5 111.5t-254.5 -112q-99 -111 -99 -289z" />
<glyph unicode="&#xff;" horiz-adv-x="1171" d="M130 -321l73 130q169 -102 341 -102q153 0 240 73q88 74 88 188v172q-147 -165 -357 -165q-162 0 -273.5 108t-111.5 293v633h159v-624q0 -127 65.5 -203.5t186.5 -76.5q130 0 230.5 92.5t100.5 251.5v560h159v-1022q0 -191 -136 -307q-137 -116 -353 -116 q-232 0 -412 115zM283 1216q1 -43 31 -74q31 -31 76 -31q43 0 74 30q32 31 32 75q-1 43 -31 73q-32 32 -75 32q-45 0 -76 -31q-30 -30 -31 -74zM664 1216q1 -43 31 -74q31 -31 76 -31q43 0 74 30q32 31 32 75q-1 43 -31 73q-32 32 -75 32q-45 0 -76 -31q-30 -30 -31 -74z " />
<glyph unicode="&#x152;" horiz-adv-x="2357" d="M100 708q0 318 200 527q200 210 504 210q305 0 506 -211q9 -10 18 -21v205h929v-137h-763v-477h699v-136h-699v-531h763v-137h-929v206q-9 -12 -19 -23q-200 -208 -504 -208q-305 0 -505 207q-200 208 -200 526zM279 708q0 -253 146 -412q145 -159 379 -159t379.5 159 t145.5 412t-145 412t-380 159q-239 0 -382 -159t-143 -412z" />
<glyph unicode="&#x153;" horiz-adv-x="2045" d="M100 503q0 229 143 380t362 151q220 0 367 -152q35 -37 61 -78q27 43 62 80q143 151 363 151q218 0 352 -148q135 -148 135 -380v-58h-827q3 -19 9 -51q29 -133 127 -212q99 -80 236 -80q165 0 274 117l143 -66q-140 -182 -417 -182q-232 0 -385 151q-39 39 -68 83 q-29 -45 -67 -84q-145 -150 -364 -150q-220 0 -363 149q-143 150 -143 379zM265 503q0 -178 94 -288t246.5 -110t248 110t95.5 288t-95.5 289.5t-248 111.5t-244.5 -112q-96 -111 -96 -289zM1118 561h681q-16 153 -108.5 248t-232.5 95t-232 -95t-108 -248z" />
<glyph unicode="&#x178;" horiz-adv-x="1313" d="M30 1418h201l426 -639l426 639h200l-544 -788v-630h-165v630zM359 1625q1 -43 31 -74q31 -31 76 -31q43 0 74 30q32 31 32 75q-1 43 -31 73q-32 32 -75 32q-45 0 -76 -31q-30 -30 -31 -74zM740 1625q1 -43 31 -74q31 -31 76 -31q43 0 74 30q32 31 32 75q-1 43 -31 73 q-32 32 -75 32q-45 0 -76 -31q-30 -30 -31 -74z" />
<glyph unicode="&#x2c6;" horiz-adv-x="705" d="M0 1443l251 285h203l251 -285h-142l-210 158l-210 -158h-143z" />
<glyph unicode="&#x2dc;" horiz-adv-x="677" d="M0 1544q47 59 99 91t115 31q66 0 159 -56q60 -36 92 -36q58 0 102 62l110 -71q-45 -60 -97.5 -91t-114.5 -31q-69 0 -159 54q-62 38 -92 38q-58 0 -103 -62z" />
<glyph unicode="&#x2000;" horiz-adv-x="979" />
<glyph unicode="&#x2001;" horiz-adv-x="1959" />
<glyph unicode="&#x2002;" horiz-adv-x="979" />
<glyph unicode="&#x2003;" horiz-adv-x="1959" />
<glyph unicode="&#x2004;" horiz-adv-x="653" />
<glyph unicode="&#x2005;" horiz-adv-x="489" />
<glyph unicode="&#x2006;" horiz-adv-x="326" />
<glyph unicode="&#x2007;" horiz-adv-x="326" />
<glyph unicode="&#x2008;" horiz-adv-x="244" />
<glyph unicode="&#x2009;" horiz-adv-x="391" />
<glyph unicode="&#x200a;" horiz-adv-x="108" />
<glyph unicode="&#x2010;" horiz-adv-x="677" d="M100 509h477v133h-477v-133z" />
<glyph unicode="&#x2011;" horiz-adv-x="677" d="M100 509h477v133h-477v-133z" />
<glyph unicode="&#x2012;" horiz-adv-x="677" d="M100 509h477v133h-477v-133z" />
<glyph unicode="&#x2013;" horiz-adv-x="1140" d="M120 509h900v133h-900v-133z" />
<glyph unicode="&#x2014;" horiz-adv-x="1709" d="M120 509h1469v133h-1469v-133z" />
<glyph unicode="&#x201a;" horiz-adv-x="437" d="M80 111q0 53 39 91.5t95 38.5q65 0 104 -45.5t39 -118.5q0 -207 -197 -391l-75 65q131 130 148 230q-6 -1 -21 -1q-55 0 -94 37q-38 38 -38 94z" />
<glyph unicode="&#x201c;" horiz-adv-x="809" d="M80 1025q0 207 197 391l75 -65q-131 -130 -148 -230q6 1 21 1q55 0 94 -37q38 -38 38 -94q0 -53 -39 -91.5t-95 -38.5q-65 0 -104 45.5t-39 118.5zM452 1025q0 207 197 391l75 -65q-131 -130 -148 -230q6 1 21 1q55 0 94 -37q38 -38 38 -94q0 -53 -39 -91.5t-95 -38.5 q-65 0 -104 45.5t-39 118.5z" />
<glyph unicode="&#x201d;" horiz-adv-x="809" d="M80 1287q0 53 39 91.5t95 38.5q65 0 104 -45.5t39 -118.5q0 -207 -197 -391l-75 65q131 130 148 230q-6 -1 -21 -1q-55 0 -94 37q-38 38 -38 94zM452 1287q0 53 39 91.5t95 38.5q65 0 104 -45.5t39 -118.5q0 -207 -197 -391l-75 65q131 130 148 230q-6 -1 -21 -1 q-55 0 -94 37q-38 38 -38 94z" />
<glyph unicode="&#x201e;" horiz-adv-x="809" d="M80 111q0 53 39 91.5t95 38.5q65 0 104 -45.5t39 -118.5q0 -207 -197 -391l-75 65q131 130 148 230q-6 -1 -21 -1q-55 0 -94 37q-38 38 -38 94zM452 111q0 53 39 91.5t95 38.5q65 0 104 -45.5t39 -118.5q0 -207 -197 -391l-75 65q131 130 148 230q-6 -1 -21 -1 q-55 0 -94 37q-38 38 -38 94z" />
<glyph unicode="&#x2022;" horiz-adv-x="692" d="M80 709q2 -108 78 -184q76 -78 188 -78q108 0 186 76q80 76 80 186q-2 108 -78 184q-80 78 -188 78q-112 0 -188 -76t-78 -186z" />
<glyph unicode="&#x2026;" horiz-adv-x="1858" d="M80 111q1 -54 39 -92q38 -39 94 -39q54 0 93 38q40 38 40 93q-1 54 -39 92q-40 39 -94 39q-56 0 -94 -38t-39 -93zM796 111q1 -54 39 -92q38 -39 94 -39q54 0 93 38q40 38 40 93q-1 54 -39 92q-40 39 -94 39q-56 0 -94 -38t-39 -93zM1512 111q1 -54 39 -92q38 -39 94 -39 q54 0 93 38q40 38 40 93q-1 54 -39 92q-40 39 -94 39q-56 0 -94 -38t-39 -93z" />
<glyph unicode="&#x202f;" horiz-adv-x="391" />
<glyph unicode="&#x2039;" horiz-adv-x="681" d="M80 505l328 387h193l-332 -387l332 -387h-193z" />
<glyph unicode="&#x203a;" horiz-adv-x="681" d="M80 118l332 387l-332 387h193l328 -387l-328 -387h-193z" />
<glyph unicode="&#x205f;" horiz-adv-x="489" />
<glyph unicode="&#x20ac;" horiz-adv-x="1570" d="M40 468h210q49 -163 167 -286q199 -208 503 -208q392 0 590 318l-159 72q-145 -228 -431 -228q-233 0 -378 159q-69 76 -105 173h603v133h-636q-7 51 -7 106q0 56 7 108h636v133h-603q36 94 103 168q146 163 380 163q286 0 431 -228l159 72q-202 321 -590 321 q-304 0 -503 -209q-118 -124 -166 -287h-211v-133h185q-7 -52 -7 -107t6 -107h-184v-133z" />
<glyph unicode="&#x2122;" horiz-adv-x="1250" d="M40 1360v58h439v-58h-184v-509h-72v509h-183zM543 851v567h90l204 -467l203 467h90v-567h-70v458l-199 -458h-49l-200 458v-458h-69z" />
<glyph unicode="&#x25fc;" horiz-adv-x="1010" d="M0 0v1010h1010v-1010h-1010z" />
</font>
</defs>
</svg>
