<?xml version="1.0" encoding="UTF-8" standalone="no"?>
<svg
   id="weather34 partly cloudy day icon"
   width="302pt"
   height="290pt"
   viewBox="0 0 302 290"
   version="1.1"
   sodipodi:docname="10.svg"
   inkscape:version="1.1 (c4e8f9e, 2021-05-24)"
   xmlns:inkscape="http://www.inkscape.org/namespaces/inkscape"
   xmlns:sodipodi="http://sodipodi.sourceforge.net/DTD/sodipodi-0.dtd"
   xmlns="http://www.w3.org/2000/svg"
   xmlns:svg="http://www.w3.org/2000/svg"
   xmlns:rdf="http://www.w3.org/1999/02/22-rdf-syntax-ns#"
   xmlns:cc="http://creativecommons.org/ns#"
   xmlns:dc="http://purl.org/dc/elements/1.1/">
  <metadata
     id="metadata842">
    <rdf:RDF>
      <cc:Work
         rdf:about="">
        <dc:format>image/svg+xml</dc:format>
        <dc:type
           rdf:resource="http://purl.org/dc/dcmitype/StillImage" />
        <dc:title />
      </cc:Work>
    </rdf:RDF>
  </metadata>
  <defs
     id="defs840" />
  <sodipodi:namedview
     pagecolor="#ffffff"
     bordercolor="#666666"
     borderopacity="1"
     objecttolerance="10"
     gridtolerance="10"
     guidetolerance="10"
     inkscape:pageopacity="0"
     inkscape:pageshadow="2"
     inkscape:window-width="2240"
     inkscape:window-height="1123"
     id="namedview838"
     showgrid="false"
     inkscape:zoom="1.6589404"
     inkscape:cx="205.2515"
     inkscape:cy="190.78443"
     inkscape:window-x="0"
     inkscape:window-y="25"
     inkscape:window-maximized="1"
     inkscape:current-layer="weather34 partly cloudy day icon"
     inkscape:document-rotation="0"
     inkscape:pagecheckerboard="0"
     inkscape:document-units="pt" />
  <path
     fill="#d05f2d"
     opacity="1"
     d="m 32.76,69.9 c 8.42,-12.8 22.61,-21.59 37.82,-23.39 12.27,-1.45 25.31,1.1 35.6,8.1 -7.3,3.03 -14.23,7.13 -20,12.57 -6.74,6.53 -11.56,15.01 -13.78,24.12 -0.97,3.85 -0.95,7.84 -1.66,11.73 -2.45,1.64 -5.34,2.4 -7.97,3.7 -11.91,5.59 -21.75,16.45 -24.38,29.56 -7.02,-7.31 -11.84,-16.7 -13.64,-26.68 -2.6,-13.6 0.24,-28.22 8.01,-39.71 z"
     id="path833" />
  <path
     fill="#e6e8ef"
     opacity="1"
     stroke-width="1"
     stroke="#e6e8ef"
     d="m 121.62,51.15 c 19.72,-2.53 40.57,5.63 52.99,21.23 1.29,1.56 2.21,3.4 3.65,4.84 13.07,-8.06 30.61,-8.47 43.67,-0.21 8.73,5.4 14.74,14.71 16.23,24.84 13.21,2.26 26.07,9.17 33.48,20.61 7.94,11.47 9.09,27.35 2.58,39.73 -6.37,12.25 -18.76,20.79 -32.13,23.62 -5.11,1.16 -10.38,1.23 -15.59,1.21 -47.01,0 -94.01,0.05 -141.02,0.05 -13.29,0.21 -26.7,-4.96 -35.99,-14.54 -5.15,-5.63 -9.32,-12.36 -10.9,-19.89 -1.62,-5.32 -1.01,-10.95 -0.2,-16.35 2.63,-13.11 12.47,-23.97 24.38,-29.56 2.63,-1.3 5.52,-2.06 7.97,-3.7 0.71,-3.89 0.69,-7.88 1.66,-11.73 2.22,-9.11 7.04,-17.59 13.78,-24.12 5.77,-5.44 12.7,-9.54 20,-12.57 5.04,-1.55 10.12,-3.23 15.44,-3.46 z"
     id="path835" />
  <path
     fill="#00a4b4"
     stroke="#00a4b4"
     stroke-width="0.1"
     d="m 90.26559,186.94734 17.29997,-0.0198 c 8.01894,15.59027 15.73816,31.38089 23.8571,46.97104 -5.80024,-0.19275 -11.99927,0.61458 -17.70059,-0.47849 -7.81871,-15.39054 -15.73767,-30.98092 -23.35635,-46.37165 z m 47.99995,-0.0584 17.3,-0.0198 c 8.01894,15.59027 15.83801,31.28077 23.75709,46.97116 l -16.99999,0.0198 -0.7006,-0.49916 z m 47.99997,-0.0584 17.39996,-0.0198 21.55187,42.77389 c 0.7014,1.19923 0.7033,2.69915 1.00485,3.99881 -5.39971,0.20636 -10.69959,0.31297 -15.99993,0.0198 -1.20064,-0.49856 -1.40247,-1.99831 -2.00367,-2.99758 -7.31764,-14.59117 -14.83514,-28.98204 -22.05323,-43.77322 z"
     id="path848-7"
     sodipodi:nodetypes="cccccccccccccccccccc" />
</svg>
