<?xml version="1.0" encoding="UTF-8" standalone="no"?>
<svg
   xmlns:dc="http://purl.org/dc/elements/1.1/"
   xmlns:cc="http://creativecommons.org/ns#"
   xmlns:rdf="http://www.w3.org/1999/02/22-rdf-syntax-ns#"
   xmlns:svg="http://www.w3.org/2000/svg"
   xmlns="http://www.w3.org/2000/svg"
   xmlns:sodipodi="http://sodipodi.sourceforge.net/DTD/sodipodi-0.dtd"
   xmlns:inkscape="http://www.inkscape.org/namespaces/inkscape"
   width="302pt"
   height="290pt"
   viewBox="0 0 302 290"
   version="1.1"
   id="svg842"
   sodipodi:docname="14.svg"
   inkscape:version="1.0.1 (3bc2e813f5, 2020-09-07)">
  <metadata
     id="metadata848">
    <rdf:RDF>
      <cc:Work
         rdf:about="">
        <dc:format>image/svg+xml</dc:format>
        <dc:type
           rdf:resource="http://purl.org/dc/dcmitype/StillImage" />
        <dc:title></dc:title>
      </cc:Work>
    </rdf:RDF>
  </metadata>
  <defs
     id="defs846" />
  <sodipodi:namedview
     pagecolor="#ffffff"
     bordercolor="#666666"
     borderopacity="1"
     objecttolerance="10"
     gridtolerance="10"
     guidetolerance="10"
     inkscape:pageopacity="0"
     inkscape:pageshadow="2"
     inkscape:window-width="1920"
     inkscape:window-height="1051"
     id="namedview844"
     showgrid="false"
     inkscape:zoom="1.6589404"
     inkscape:cx="201.33333"
     inkscape:cy="170"
     inkscape:window-x="-9"
     inkscape:window-y="-9"
     inkscape:window-maximized="1"
     inkscape:current-layer="svg842"
     inkscape:document-rotation="0" />
  <g
     id="g843"
     transform="translate(3,36)">
    <g
       id="#e4e3e3ff">
      <path
         fill="#e6e8ef"
         opacity="1"
         d="m 68.14,41.82 c 9.31,-14.48 25.67,-24.01 42.76,-25.5 21.93,-2.56 45.2,7.66 56.94,26.61 8.65,-5.39 19.28,-7.6 29.32,-5.65 12.55,2.07 24.2,10.72 28.57,22.85 1.1,2.5 1.11,5.35 2.17,7.84 13.58,1.91 26.57,9.42 33.93,21.14 7.13,10.96 8.14,25.63 2.58,37.45 -6.07,12.84 -18.55,22.03 -32.28,25.14 -4.61,1.15 -9.4,1.27 -14.13,1.35 -47.65,-0.02 -95.3,0.03 -142.96,-0.02 -12.72,0.12 -25.53,-4.54 -34.84,-13.28 -7.6,-7.14 -12.89,-17.12 -13.13,-27.68 -0.45,-7.96 1.81,-15.91 5.94,-22.69 6.05,-10.01 16.39,-16.62 27.34,-20.15 0.28,-9.6 2.59,-19.25 7.79,-27.41 m 118.14,44.47 c -5.32,2.54 -8.15,8.17 -9.01,13.76 -3.7,2.92 -8.57,5.04 -10.08,9.98 -0.45,3.76 -1,8.15 1.49,11.35 2.64,3.61 6.74,6.67 11.38,6.65 16.99,-0.03 33.97,-0.07 50.95,0.01 4.71,0.21 9.02,-2.74 11.82,-6.32 4.4,-5.76 2.38,-14.91 -3.75,-18.64 -2.55,-1.95 -6.79,-1.72 -7.73,-5.36 -2.79,-7.1 -12.12,-9.27 -18.5,-5.74 -3.12,-3.63 -7.02,-6.87 -11.83,-7.84 -4.97,-0.45 -10.4,-0.81 -14.74,2.15 z"
         id="path833" />
    </g>
    <g
       id="#ff8841ff">
      <path
         fill="#d05f2d"
         opacity="1"
         d="M 33.01,89.38 C 33.8,68.36 48.36,48.84 68.14,41.82 62.94,49.98 60.63,59.63 60.35,69.23 49.4,72.76 39.06,79.37 33.01,89.38 Z"
         id="path836" />
    </g>
    <g
       id="#aca6a6ff">
      <path
         fill="#777777"
         opacity="1"
         d="m 186.28,86.29 c 4.34,-2.96 9.77,-2.6 14.74,-2.15 4.81,0.97 8.71,4.21 11.83,7.84 6.38,-3.53 15.71,-1.36 18.5,5.74 0.94,3.64 5.18,3.41 7.73,5.36 6.13,3.73 8.15,12.88 3.75,18.64 -2.8,3.58 -7.11,6.53 -11.82,6.32 -16.98,-0.08 -33.96,-0.04 -50.95,-0.01 -4.64,0.02 -8.74,-3.04 -11.38,-6.65 -2.49,-3.2 -1.94,-7.59 -1.49,-11.35 1.51,-4.94 6.38,-7.06 10.08,-9.98 0.86,-5.59 3.69,-11.22 9.01,-13.76 z"
         id="path839" />
    </g>
    <path
       fill="#00a4b4"
       stroke="#00a4b4"
       stroke-width="0.1"
       d="m 80.522636,152.408 h 17.3 c 8.000004,15.6 15.700004,31.4 23.800004,47 -5.8,-0.2 -12,0.6 -17.7,-0.5 -7.800004,-15.4 -15.700004,-31 -23.300004,-46.4 z m 24.000004,0 h 17.3 c 8,15.6 15.7,31.4 23.8,47 -5.8,-0.2 -12,0.5 -17.7,-0.4 -7.7,-15.5 -15.7,-31 -23.3,-46.5 z m 24,0 h 17.3 c 8,15.6 15.8,31.3 23.7,47 h -17 l -0.7,-0.5 z m 24,0 h 17.3 c 8,15.6 15.8,31.3 23.7,47 -5.8,-0.2 -12,0.6 -17.7,-0.4 z m 24,0 h 17.4 l 21.5,42.8 c 0.7,1.2 0.7,2.7 1,4 -5.4,0.2 -10.7,0.3 -16,0 -1.2,-0.5 -1.4,-2 -2,-3 -7.3,-14.6 -14.8,-29 -22,-43.8 z m 24,0 c 5.8,0 11.6,0 17.3,-0.2 l 21.7,43 c 0.7,1.3 0.7,2.8 1,4 -5.4,0.2 -10.8,0.3 -16,0 -1.2,-0.6 -1.4,-2 -2,-3 -7.3,-14.6 -14.8,-29 -22,-43.8 z"
       id="path848" />
  </g>
</svg>
