<?xml version="1.0" encoding="UTF-8" standalone="no"?>
<svg
   xmlns:dc="http://purl.org/dc/elements/1.1/"
   xmlns:cc="http://creativecommons.org/ns#"
   xmlns:rdf="http://www.w3.org/1999/02/22-rdf-syntax-ns#"
   xmlns:svg="http://www.w3.org/2000/svg"
   xmlns="http://www.w3.org/2000/svg"
   xmlns:sodipodi="http://sodipodi.sourceforge.net/DTD/sodipodi-0.dtd"
   xmlns:inkscape="http://www.inkscape.org/namespaces/inkscape"
   id="rain"
   width="302pt"
   height="340"
   viewBox="0 0 302 255"
   version="1.1"
   sodipodi:docname="15.svg"
   inkscape:version="1.0.1 (3bc2e813f5, 2020-09-07)">
  <metadata
     id="metadata13">
    <rdf:RDF>
      <cc:Work
         rdf:about="">
        <dc:format>image/svg+xml</dc:format>
        <dc:type
           rdf:resource="http://purl.org/dc/dcmitype/StillImage" />
        <dc:title></dc:title>
      </cc:Work>
    </rdf:RDF>
  </metadata>
  <defs
     id="defs11" />
  <sodipodi:namedview
     pagecolor="#ffffff"
     bordercolor="#666666"
     borderopacity="1"
     objecttolerance="10"
     gridtolerance="10"
     guidetolerance="10"
     inkscape:pageopacity="0"
     inkscape:pageshadow="2"
     inkscape:window-width="1920"
     inkscape:window-height="1051"
     id="namedview9"
     showgrid="false"
     width="302px"
     inkscape:zoom="1.8301587"
     inkscape:cx="201.33333"
     inkscape:cy="170"
     inkscape:window-x="-9"
     inkscape:window-y="-9"
     inkscape:window-maximized="1"
     inkscape:current-layer="rain" />
  <g
     id="g841"
     transform="translate(3,18)">
    <path
       fill="#e6e8ef"
       stroke="#e6e8ef"
       stroke-width="0.1"
       d="m 82.2,27.2 c 22,-16 54.8,-14.7 75,3.4 4.2,3.5 7.6,7.7 10.5,12.3 15,-9.8 36.3,-8.3 49.3,4 5.8,5.5 9.7,13 10.6,20.8 14.2,2 27.8,10 35,22.6 6.8,11.4 7.2,26.3 1,38 -7.6,14.4 -23.3,23.4 -39.3,24.4 -5.7,0.3 -11.5,0 -17.3,0.2 H 86.8 c -8,-0.2 -16,0.6 -23.7,-1.2 -13.2,-2.8 -25.5,-11.3 -31.8,-23.4 -5.5,-10.4 -6,-23.3 -1,-34 5.4,-12.6 17,-21.6 30,-25.2 -0.5,-16.5 8.2,-32.6 21.7,-42 m 106,58.7 c -6,2.6 -10.2,8.7 -10.2,15.2 -5.7,2 -10.8,6.7 -10.8,13 -0.3,8 7.4,14 15,14 h 47 c 3.7,0 7.6,-1 10.6,-3.3 4.8,-3.4 7,-10.2 4.3,-15.6 -2.2,-4.7 -7,-7.4 -11.8,-8.4 -1,-2.8 -2,-5.6 -4.5,-7.3 -4.3,-3.4 -10.4,-3.4 -15,-0.8 -5.3,-7.8 -16.3,-10.7 -24.8,-6.7 z"
       id="path2" />
    <path
       fill="#777777"
       stroke="#777777"
       stroke-width="0.1"
       d="m 188,85.8 c 8.4,-4 19.3,-1 24.6,6.7 4.7,-2.6 10.8,-2.6 15,0.8 2.5,1.7 3.6,4.5 4.6,7.3 4.8,1 9.6,3.7 11.7,8.5 2.5,5.5 0.4,12.3 -4.4,15.7 -3,2.4 -7,3.4 -10.6,3.3 h -47 c -7.6,0 -15.3,-6 -15,-14 0,-6.3 5,-11 10.8,-13 0,-6.5 4.2,-12.6 10,-15.2 z"
       id="path4" />
    <path
       fill="#00a4b4"
       stroke="#00a4b4"
       stroke-width="0.1"
       d="m 87,153 h 17.3 c 8,15.6 15.7,31.4 23.8,47 -5.8,-0.2 -12,0.6 -17.7,-0.5 -7.8,-15.4 -15.7,-31 -23.3,-46.4 z m 24,0 h 17.3 c 8,15.6 15.7,31.4 23.8,47 -5.8,-0.2 -12,0.5 -17.7,-0.4 -7.7,-15.5 -15.7,-31 -23.3,-46.5 z m 24,0 h 17.3 c 8,15.6 15.8,31.3 23.7,47 h -17 l -0.7,-0.5 z m 24,0 h 17.3 c 8,15.6 15.8,31.3 23.7,47 -5.8,-0.2 -12,0.6 -17.7,-0.4 z m 24,0 h 17.4 l 21.5,42.8 c 0.7,1.2 0.7,2.7 1,4 -5.4,0.2 -10.7,0.3 -16,0 -1.2,-0.5 -1.4,-2 -2,-3 -7.3,-14.6 -14.8,-29 -22,-43.8 z m 24,0 c 5.8,0 11.6,0 17.3,-0.2 l 21.7,43 c 0.7,1.3 0.7,2.8 1,4 -5.4,0.2 -10.8,0.3 -16,0 -1.2,-0.6 -1.4,-2 -2,-3 -7.3,-14.6 -14.8,-29 -22,-43.8 z"
       id="path6" />
  </g>
</svg>
