<?xml version="1.0" encoding="UTF-8" standalone="no"?>
<svg
   xmlns:dc="http://purl.org/dc/elements/1.1/"
   xmlns:cc="http://creativecommons.org/ns#"
   xmlns:rdf="http://www.w3.org/1999/02/22-rdf-syntax-ns#"
   xmlns:svg="http://www.w3.org/2000/svg"
   xmlns="http://www.w3.org/2000/svg"
   xmlns:sodipodi="http://sodipodi.sourceforge.net/DTD/sodipodi-0.dtd"
   xmlns:inkscape="http://www.inkscape.org/namespaces/inkscape"
   id="weather34 mostly cloudy night"
   width="302pt"
   height="290pt"
   viewBox="0 0 302 290"
   version="1.1"
   sodipodi:docname="16.svg"
   inkscape:version="1.0.1 (3bc2e813f5, 2020-09-07)">
  <metadata
     id="metadata11">
    <rdf:RDF>
      <cc:Work
         rdf:about="">
        <dc:format>image/svg+xml</dc:format>
        <dc:type
           rdf:resource="http://purl.org/dc/dcmitype/StillImage" />
        <dc:title></dc:title>
      </cc:Work>
    </rdf:RDF>
  </metadata>
  <defs
     id="defs9" />
  <sodipodi:namedview
     pagecolor="#ffffff"
     bordercolor="#666666"
     borderopacity="1"
     objecttolerance="10"
     gridtolerance="10"
     guidetolerance="10"
     inkscape:pageopacity="0"
     inkscape:pageshadow="2"
     inkscape:window-width="1920"
     inkscape:window-height="1051"
     id="namedview7"
     showgrid="false"
     inkscape:zoom="1.8301587"
     inkscape:cx="206.40232"
     inkscape:cy="170.27308"
     inkscape:window-x="-9"
     inkscape:window-y="-9"
     inkscape:window-maximized="1"
     inkscape:current-layer="weather34 mostly cloudy night"
     inkscape:document-rotation="0" />
  <g
     id="g863"
     transform="translate(18.801743,50.494608)">
    <g
       id="g1410"
       transform="translate(-17.98591,-39.688863)">
      <path
         fill="#f05e40"
         stroke="#f05e40"
         stroke-width="0.0562498"
         d="m 67.312295,32.745443 c 10.51875,4.5 19.518752,12.937499 24.187502,23.456245 4.387499,9.9 5.062499,21.54375 1.6875,31.95 -3.20625,9.73125 -9.787502,18.337492 -18.450002,23.849992 -7.48125,4.8375 -16.48125,7.425 -25.425,7.0875 -11.700003,-0.1125 -23.062503,-5.34375 -31.162503,-13.725 -1.40625,-1.40625 -2.5875,-3.09375 -3.9375,-4.5 0,-0.3375 0.16875,-0.56249 0.225,-0.84374 l 0.3375,0.56249 c 6.01875,2.1375 12.375,3.375 18.73125,2.7 12.15,-0.5625 23.906253,-6.749992 31.500003,-16.199992 5.34375,-6.35625 8.83125,-14.2875 9.9,-22.5 1.29375,-9.562496 -0.5625,-19.349995 -5.23125,-27.731245 -0.675,-1.40625 -1.8,-2.53125 -2.3625,-4.10625 z"
         id="path2-8" />
      <path
         fill="#e6e8ef"
         opacity="1"
         stroke-width="1"
         stroke="#e6e8ef"
         d="m 129.08591,56.348864 c 19.72,-2.53 40.57,5.63 52.99,21.229996 1.29,1.560003 2.21,3.400003 3.65,4.840003 13.07,-8.060003 30.61,-8.470003 43.67,-0.21 8.73,5.4 14.74,14.71 16.23,24.839997 13.21,2.26 26.07,9.17 33.48,20.61 7.94,11.47 9.09,27.35 2.58,39.73 -6.37,12.25 -18.76,20.79 -32.13,23.62 -5.11,1.16 -10.38,1.23 -15.59,1.21 -47.01,0 -94.01,0.05 -141.019999,0.05 -13.29,0.21 -26.7,-4.96 -35.99,-14.54 -5.15,-5.63 -9.32,-12.36 -10.9,-19.89 -1.62,-5.32 -1.01,-10.95 -0.2,-16.35 2.63,-13.11 12.47,-23.97 24.38,-29.56 2.63,-1.3 5.52,-2.06 7.97,-3.7 0.71,-3.89 0.69,-7.88 1.66,-11.729997 2.22,-9.11 7.04,-17.590003 13.78,-24.120003 5.77,-5.44 12.699999,-9.539996 19.999999,-12.569996 5.04,-1.55 10.12,-3.23 15.44,-3.46 z"
         id="path848" />
    </g>
    <g
       id="g2056"
       transform="matrix(2.8346457,0,0,2.8346457,-145.53775,-230.37105)">
      <path
         fill="#00a4b4"
         stroke="#00a4b4"
         stroke-width="0.0352777"
         d="m 80.0825,137.35126 c 1.41111,-1.41111 2.82222,-2.82222 4.33916,-4.16278 0.42334,0.35278 1.12889,0.70556 1.05834,1.30528 -0.70556,1.05833 -1.76389,1.86972 -2.64584,2.82222 -0.70555,0.635 -1.27,1.30528 -2.01083,1.83445 -1.19944,0.49389 -1.76389,-1.30528 -0.70556,-1.83445 z m 22.40139,0 c 1.48166,-1.41111 2.89277,-2.92806 4.51555,-4.23333 l 1.05833,1.41111 -2.82222,2.82222 c -0.70555,0.635 -1.27,1.41111 -2.11667,1.905 -1.12888,0.24694 -1.58749,-1.34056 -0.59972,-1.905 z m 22.47194,0 c 1.41111,-1.41111 2.82222,-2.82222 4.30389,-4.16278 0.42333,0.35278 1.05833,0.70556 1.05833,1.30528 -0.70556,1.05833 -1.76389,1.905 -2.64583,2.82222 -0.70556,0.635 -1.27,1.34056 -2.04611,1.86972 -1.23473,0.35278 -1.76389,-1.34055 -0.70556,-1.86972 z m -29.80972,5.39752 c 0.77611,-0.81139 2.11666,0.59972 1.27,1.34056 -1.30528,1.41111 -2.68111,2.71638 -4.05695,4.02166 -0.635,0.88194 -2.18722,-0.24694 -1.48166,-1.05833 1.34055,-1.51695 2.82222,-2.89278 4.30389,-4.23333 z m 22.47194,-0.0353 c 0.70556,-0.70556 2.01083,0.52917 1.30528,1.27 -1.41111,1.41111 -2.82222,2.82222 -4.33917,4.23333 -0.70555,0.70556 -2.01083,-0.56444 -1.30528,-1.27 1.41111,-1.41111 2.82223,-2.89277 4.30389,-4.23333 z"
         id="path6"
         sodipodi:nodetypes="ccccccccccccccccccccccccccccccscc" />
      <path
         fill="#3b9cac"
         fill-rule="nonzero"
         d="m 94.215507,131.44148 v 1.00013 l 0.666752,-0.64205 0.469193,0.48153 -1.135945,1.08657 v 1.44463 l 1.259417,-0.72851 0.358067,-1.51869 0.654403,0.16064 -0.209888,0.889 0.851959,-0.49389 0.333373,0.58032 -0.864304,0.50624 0.901348,0.2592 -0.185216,0.64205 -1.50636,-0.44453 -1.259416,0.71617 1.271763,0.72848 1.494013,-0.43216 0.185216,0.64205 -0.889001,0.25919 0.864305,0.49388 -0.345719,0.58032 -0.864308,-0.50622 0.22224,0.91368 -0.654403,0.16064 -0.358067,-1.53104 -1.259418,-0.72847 v 1.45695 l 1.135946,1.07421 -0.469194,0.49388 -0.666752,-0.64204 v 1.00013 h -0.679097 v -1.00013 l -0.666749,0.64204 -0.456848,-0.49388 1.123597,-1.06186 v -1.45695 l -1.247069,0.71612 -0.358067,1.53104 -0.654404,-0.16064 0.22224,-0.91368 -0.876652,0.50622 -0.333376,-0.58032 0.864307,-0.49388 -0.889002,-0.25919 0.185216,-0.64205 1.494013,0.43216 1.271763,-0.72848 -1.259414,-0.71617 -1.506362,0.44453 -0.185216,-0.64205 0.901348,-0.2592 -0.876653,-0.50624 0.333376,-0.58032 0.864304,0.49389 -0.209888,-0.889 0.654403,-0.16064 0.358067,1.51869 1.24707,0.71616 v -1.44464 l -1.123597,-1.07421 0.456847,-0.48153 0.66675,0.6297 v -0.98778 z"
         id="path1432"
         style="stroke-width:0.0123472" />
      <path
         fill="#3b9cac"
         fill-rule="nonzero"
         d="m 116.98305,131.41574 v 1.00013 l 0.66676,-0.64205 0.46919,0.48153 -1.13595,1.08657 v 1.44463 l 1.25942,-0.72851 0.35807,-1.51869 0.6544,0.16064 -0.20989,0.889 0.85196,-0.49389 0.33337,0.58032 -0.8643,0.50624 0.90135,0.2592 -0.18522,0.64205 -1.50636,-0.44453 -1.25941,0.71617 1.27176,0.72848 1.49401,-0.43216 0.18522,0.64205 -0.889,0.25919 0.8643,0.49388 -0.34572,0.58032 -0.8643,-0.50622 0.22223,0.91368 -0.6544,0.16064 -0.35806,-1.53104 -1.25942,-0.72847 v 1.45695 l 1.13594,1.07421 -0.46919,0.49388 -0.66675,-0.64204 v 1.00013 h -0.6791 v -1.00013 l -0.66675,0.64204 -0.45685,-0.49388 1.1236,-1.06186 v -1.45695 l -1.24707,0.71612 -0.35807,1.53104 -0.6544,-0.16064 0.22224,-0.91368 -0.87665,0.50622 -0.33338,-0.58032 0.86431,-0.49388 -0.889,-0.25919 0.18521,-0.64205 1.49402,0.43216 1.27176,-0.72848 -1.25941,-0.71617 -1.50637,0.44453 -0.18521,-0.64205 0.90135,-0.2592 -0.87666,-0.50624 0.33338,-0.58032 0.8643,0.49389 -0.20989,-0.889 0.65441,-0.16064 0.35806,1.51869 1.24707,0.71616 v -1.44464 l -1.12359,-1.07421 0.45684,-0.48153 0.66675,0.6297 v -0.98778 z"
         id="path1432-0"
         style="stroke-width:0.0123472" />
      <path
         fill="#3b9cac"
         fill-rule="nonzero"
         d="m 80.46173,140.6973 v 1.00013 l 0.66675,-0.64205 0.46919,0.48153 -1.13594,1.08657 v 1.44463 l 1.25941,-0.72851 0.35807,-1.51869 0.6544,0.16064 -0.20989,0.889 0.85196,-0.49389 0.33338,0.58032 -0.86431,0.50624 0.90135,0.2592 -0.18522,0.64205 -1.50636,-0.44453 -1.25941,0.71617 1.27176,0.72848 1.49401,-0.43216 0.18522,0.64205 -0.889,0.25919 0.8643,0.49388 -0.34571,0.58032 -0.86431,-0.50622 0.22224,0.91368 -0.65441,0.16064 -0.35806,-1.53104 -1.25942,-0.72847 v 1.45695 l 1.13595,1.07421 -0.4692,0.49388 -0.66675,-0.64204 v 1.00013 h -0.6791 v -1.00013 l -0.66675,0.64204 -0.45684,-0.49388 1.12359,-1.06186 v -1.45695 l -1.24707,0.71612 -0.35806,1.53104 -0.65441,-0.16064 0.22224,-0.91368 -0.87665,0.50622 -0.33338,-0.58032 0.86431,-0.49388 -0.889,-0.25919 0.18522,-0.64205 1.49401,0.43216 1.27176,-0.72848 -1.25941,-0.71617 -1.50636,0.44453 -0.18522,-0.64205 0.90135,-0.2592 -0.87666,-0.50624 0.33338,-0.58032 0.8643,0.49389 -0.20988,-0.889 0.6544,-0.16064 0.35807,1.51869 1.24707,0.71616 v -1.44464 l -1.1236,-1.07421 0.45685,-0.48153 0.66675,0.6297 v -0.98778 z"
         id="path1432-1"
         style="stroke-width:0.0123472" />
      <path
         fill="#3b9cac"
         fill-rule="nonzero"
         d="m 103.15944,140.73262 v 1.00013 l 0.66676,-0.64205 0.46919,0.48153 -1.13595,1.08657 v 1.44463 l 1.25942,-0.72851 0.35807,-1.51869 0.6544,0.16064 -0.20989,0.889 0.85196,-0.49389 0.33338,0.58032 -0.86431,0.50624 0.90135,0.2592 -0.18522,0.64205 -1.50636,-0.44453 -1.25941,0.71617 1.27176,0.72848 1.49401,-0.43216 0.18522,0.64205 -0.889,0.25919 0.8643,0.49388 -0.34572,0.58032 -0.8643,-0.50622 0.22224,0.91368 -0.65441,0.16064 -0.35806,-1.53104 -1.25942,-0.72847 v 1.45695 l 1.13594,1.07421 -0.46919,0.49388 -0.66675,-0.64204 v 1.00013 h -0.6791 v -1.00013 l -0.66675,0.64204 -0.45685,-0.49388 1.1236,-1.06186 v -1.45695 l -1.24707,0.71612 -0.35806,1.53104 -0.65441,-0.16064 0.22224,-0.91368 -0.87665,0.50622 -0.33338,-0.58032 0.86431,-0.49388 -0.889,-0.25919 0.18521,-0.64205 1.49402,0.43216 1.27176,-0.72848 -1.25941,-0.71617 -1.50637,0.44453 -0.18521,-0.64205 0.90135,-0.2592 -0.87666,-0.50624 0.33338,-0.58032 0.8643,0.49389 -0.20988,-0.889 0.6544,-0.16064 0.35807,1.51869 1.24707,0.71616 v -1.44464 l -1.1236,-1.07421 0.45685,-0.48153 0.66675,0.6297 v -0.98778 z"
         id="path1432-5"
         style="stroke-width:0.0123472" />
      <path
         fill="#3b9cac"
         fill-rule="nonzero"
         d="m 128.38658,140.31454 v 1.00013 l 0.66675,-0.64205 0.46919,0.48153 -1.13594,1.08657 v 1.44463 l 1.25942,-0.72851 0.35806,-1.51869 0.65441,0.16064 -0.20989,0.889 0.85196,-0.49389 0.33337,0.58032 -0.8643,0.50624 0.90134,0.2592 -0.18521,0.64205 -1.50636,-0.44453 -1.25942,0.71617 1.27177,0.72848 1.49401,-0.43216 0.18521,0.64205 -0.889,0.25919 0.86431,0.49388 -0.34572,0.58032 -0.86431,-0.50622 0.22224,0.91368 -0.6544,0.16064 -0.35807,-1.53104 -1.25942,-0.72847 v 1.45695 l 1.13595,1.07421 -0.46919,0.49388 -0.66676,-0.64204 v 1.00013 h -0.67909 v -1.00013 l -0.66675,0.64204 -0.45685,-0.49388 1.1236,-1.06186 v -1.45695 l -1.24707,0.71612 -0.35807,1.53104 -0.6544,-0.16064 0.22224,-0.91368 -0.87666,0.50622 -0.33337,-0.58032 0.86431,-0.49388 -0.88901,-0.25919 0.18522,-0.64205 1.49401,0.43216 1.27177,-0.72848 -1.25942,-0.71617 -1.50636,0.44453 -0.18522,-0.64205 0.90135,-0.2592 -0.87665,-0.50624 0.33337,-0.58032 0.86431,0.49389 -0.20989,-0.889 0.6544,-0.16064 0.35807,1.51869 1.24707,0.71616 v -1.44464 l -1.1236,-1.07421 0.45685,-0.48153 0.66675,0.6297 v -0.98778 z"
         id="path1432-03"
         style="stroke-width:0.0123472" />
    </g>
  </g>
  <g
     inkscape:groupmode="layer"
     id="layer1"
     inkscape:label="Layer 1"
     transform="translate(3.8017429,6.9946078)" />
</svg>
