<?xml version="1.0" encoding="UTF-8" standalone="no"?>
<svg
   xmlns:dc="http://purl.org/dc/elements/1.1/"
   xmlns:cc="http://creativecommons.org/ns#"
   xmlns:rdf="http://www.w3.org/1999/02/22-rdf-syntax-ns#"
   xmlns:svg="http://www.w3.org/2000/svg"
   xmlns="http://www.w3.org/2000/svg"
   xmlns:sodipodi="http://sodipodi.sourceforge.net/DTD/sodipodi-0.dtd"
   xmlns:inkscape="http://www.inkscape.org/namespaces/inkscape"
   width="302pt"
   height="290pt"
   viewBox="0 0 302 290"
   version="1.1"
   id="svg11"
   sodipodi:docname="17.svg"
   inkscape:version="1.0.1 (3bc2e813f5, 2020-09-07)">
  <metadata
     id="metadata17">
    <rdf:RDF>
      <cc:Work
         rdf:about="">
        <dc:format>image/svg+xml</dc:format>
        <dc:type
           rdf:resource="http://purl.org/dc/dcmitype/StillImage" />
        <dc:title></dc:title>
      </cc:Work>
    </rdf:RDF>
  </metadata>
  <defs
     id="defs15" />
  <sodipodi:namedview
     pagecolor="#ffffff"
     bordercolor="#666666"
     borderopacity="1"
     objecttolerance="10"
     gridtolerance="10"
     guidetolerance="10"
     inkscape:pageopacity="0"
     inkscape:pageshadow="2"
     inkscape:window-width="1920"
     inkscape:window-height="1051"
     id="namedview13"
     showgrid="false"
     inkscape:zoom="1.8301587"
     inkscape:cx="201.33333"
     inkscape:cy="170"
     inkscape:window-x="-9"
     inkscape:window-y="-9"
     inkscape:window-maximized="1"
     inkscape:current-layer="svg11"
     inkscape:document-rotation="0" />
  <g
     id="g855"
     transform="translate(4.5,39)">
    <g
       id="#e4e3e3ff">
      <path
         fill="#e6e8ef"
         opacity="1"
         d="m 68.14,41.82 c 9.31,-14.48 25.67,-24.01 42.76,-25.5 21.93,-2.56 45.2,7.66 56.94,26.61 8.65,-5.39 19.28,-7.6 29.32,-5.65 12.55,2.07 24.2,10.72 28.57,22.85 1.1,2.5 1.11,5.35 2.17,7.84 13.58,1.91 26.57,9.42 33.93,21.14 7.13,10.96 8.14,25.63 2.58,37.45 -6.07,12.84 -18.55,22.03 -32.28,25.14 -4.61,1.15 -9.4,1.27 -14.13,1.35 -47.65,-0.02 -95.3,0.03 -142.96,-0.02 -12.72,0.12 -25.53,-4.54 -34.84,-13.28 -7.6,-7.14 -12.89,-17.12 -13.13,-27.68 -0.45,-7.96 1.81,-15.91 5.94,-22.69 6.05,-10.01 16.39,-16.62 27.34,-20.15 0.28,-9.6 2.59,-19.25 7.79,-27.41 m 118.14,44.47 c -5.32,2.54 -8.15,8.17 -9.01,13.76 -3.7,2.92 -8.57,5.04 -10.08,9.98 -0.45,3.76 -1,8.15 1.49,11.35 2.64,3.61 6.74,6.67 11.38,6.65 16.99,-0.03 33.97,-0.07 50.95,0.01 4.71,0.21 9.02,-2.74 11.82,-6.32 4.4,-5.76 2.38,-14.91 -3.75,-18.64 -2.55,-1.95 -6.79,-1.72 -7.73,-5.36 -2.79,-7.1 -12.12,-9.27 -18.5,-5.74 -3.12,-3.63 -7.02,-6.87 -11.83,-7.84 -4.97,-0.45 -10.4,-0.81 -14.74,2.15 z"
         id="path2" />
    </g>
    <g
       id="#ff8841ff">
      <path
         fill="#d05f2d"
         opacity="1"
         d="M 33.01,89.38 C 33.8,68.36 48.36,48.84 68.14,41.82 62.94,49.98 60.63,59.63 60.35,69.23 49.4,72.76 39.06,79.37 33.01,89.38 Z"
         id="path5" />
    </g>
    <g
       id="#aca6a6ff">
      <path
         fill="#777777"
         opacity="1"
         d="m 186.28,86.29 c 4.34,-2.96 9.77,-2.6 14.74,-2.15 4.81,0.97 8.71,4.21 11.83,7.84 6.38,-3.53 15.71,-1.36 18.5,5.74 0.94,3.64 5.18,3.41 7.73,5.36 6.13,3.73 8.15,12.88 3.75,18.64 -2.8,3.58 -7.11,6.53 -11.82,6.32 -16.98,-0.08 -33.96,-0.04 -50.95,-0.01 -4.64,0.02 -8.74,-3.04 -11.38,-6.65 -2.49,-3.2 -1.94,-7.59 -1.49,-11.35 1.51,-4.94 6.38,-7.06 10.08,-9.98 0.86,-5.59 3.69,-11.22 9.01,-13.76 z"
         id="path8" />
    </g>
    <g
       id="g2056"
       transform="matrix(2.8346457,0,0,2.8346457,-144.37866,-230.37105)">
      <path
         fill="#00a4b4"
         stroke="#00a4b4"
         stroke-width="0.0352777"
         d="m 80.0825,137.35126 c 1.41111,-1.41111 2.82222,-2.82222 4.33916,-4.16278 0.42334,0.35278 1.12889,0.70556 1.05834,1.30528 -0.70556,1.05833 -1.76389,1.86972 -2.64584,2.82222 -0.70555,0.635 -1.27,1.30528 -2.01083,1.83445 -1.19944,0.49389 -1.76389,-1.30528 -0.70556,-1.83445 z m 22.40139,0 c 1.48166,-1.41111 2.89277,-2.92806 4.51555,-4.23333 l 1.05833,1.41111 -2.82222,2.82222 c -0.70555,0.635 -1.27,1.41111 -2.11667,1.905 -1.12888,0.24694 -1.58749,-1.34056 -0.59972,-1.905 z m 22.47194,0 c 1.41111,-1.41111 2.82222,-2.82222 4.30389,-4.16278 0.42333,0.35278 1.05833,0.70556 1.05833,1.30528 -0.70556,1.05833 -1.76389,1.905 -2.64583,2.82222 -0.70556,0.635 -1.27,1.34056 -2.04611,1.86972 -1.23473,0.35278 -1.76389,-1.34055 -0.70556,-1.86972 z m -29.80972,5.39752 c 0.77611,-0.81139 2.11666,0.59972 1.27,1.34056 -1.30528,1.41111 -2.68111,2.71638 -4.05695,4.02166 -0.635,0.88194 -2.18722,-0.24694 -1.48166,-1.05833 1.34055,-1.51695 2.82222,-2.89278 4.30389,-4.23333 z m 22.47194,-0.0353 c 0.70556,-0.70556 2.01083,0.52917 1.30528,1.27 -1.41111,1.41111 -2.82222,2.82222 -4.33917,4.23333 -0.70555,0.70556 -2.01083,-0.56444 -1.30528,-1.27 1.41111,-1.41111 2.82223,-2.89277 4.30389,-4.23333 z"
         id="path6"
         sodipodi:nodetypes="ccccccccccccccccccccccccccccccscc" />
      <path
         fill="#3b9cac"
         fill-rule="nonzero"
         d="m 94.215507,131.44148 v 1.00013 l 0.666752,-0.64205 0.469193,0.48153 -1.135945,1.08657 v 1.44463 l 1.259417,-0.72851 0.358067,-1.51869 0.654403,0.16064 -0.209888,0.889 0.851959,-0.49389 0.333373,0.58032 -0.864304,0.50624 0.901348,0.2592 -0.185216,0.64205 -1.50636,-0.44453 -1.259416,0.71617 1.271763,0.72848 1.494013,-0.43216 0.185216,0.64205 -0.889001,0.25919 0.864305,0.49388 -0.345719,0.58032 -0.864308,-0.50622 0.22224,0.91368 -0.654403,0.16064 -0.358067,-1.53104 -1.259418,-0.72847 v 1.45695 l 1.135946,1.07421 -0.469194,0.49388 -0.666752,-0.64204 v 1.00013 h -0.679097 v -1.00013 l -0.666749,0.64204 -0.456848,-0.49388 1.123597,-1.06186 v -1.45695 l -1.247069,0.71612 -0.358067,1.53104 -0.654404,-0.16064 0.22224,-0.91368 -0.876652,0.50622 -0.333376,-0.58032 0.864307,-0.49388 -0.889002,-0.25919 0.185216,-0.64205 1.494013,0.43216 1.271763,-0.72848 -1.259414,-0.71617 -1.506362,0.44453 -0.185216,-0.64205 0.901348,-0.2592 -0.876653,-0.50624 0.333376,-0.58032 0.864304,0.49389 -0.209888,-0.889 0.654403,-0.16064 0.358067,1.51869 1.24707,0.71616 v -1.44464 l -1.123597,-1.07421 0.456847,-0.48153 0.66675,0.6297 v -0.98778 z"
         id="path1432"
         style="stroke-width:0.0123472" />
      <path
         fill="#3b9cac"
         fill-rule="nonzero"
         d="m 116.98305,131.41574 v 1.00013 l 0.66676,-0.64205 0.46919,0.48153 -1.13595,1.08657 v 1.44463 l 1.25942,-0.72851 0.35807,-1.51869 0.6544,0.16064 -0.20989,0.889 0.85196,-0.49389 0.33337,0.58032 -0.8643,0.50624 0.90135,0.2592 -0.18522,0.64205 -1.50636,-0.44453 -1.25941,0.71617 1.27176,0.72848 1.49401,-0.43216 0.18522,0.64205 -0.889,0.25919 0.8643,0.49388 -0.34572,0.58032 -0.8643,-0.50622 0.22223,0.91368 -0.6544,0.16064 -0.35806,-1.53104 -1.25942,-0.72847 v 1.45695 l 1.13594,1.07421 -0.46919,0.49388 -0.66675,-0.64204 v 1.00013 h -0.6791 v -1.00013 l -0.66675,0.64204 -0.45685,-0.49388 1.1236,-1.06186 v -1.45695 l -1.24707,0.71612 -0.35807,1.53104 -0.6544,-0.16064 0.22224,-0.91368 -0.87665,0.50622 -0.33338,-0.58032 0.86431,-0.49388 -0.889,-0.25919 0.18521,-0.64205 1.49402,0.43216 1.27176,-0.72848 -1.25941,-0.71617 -1.50637,0.44453 -0.18521,-0.64205 0.90135,-0.2592 -0.87666,-0.50624 0.33338,-0.58032 0.8643,0.49389 -0.20989,-0.889 0.65441,-0.16064 0.35806,1.51869 1.24707,0.71616 v -1.44464 l -1.12359,-1.07421 0.45684,-0.48153 0.66675,0.6297 v -0.98778 z"
         id="path1432-0"
         style="stroke-width:0.0123472" />
      <path
         fill="#3b9cac"
         fill-rule="nonzero"
         d="m 80.46173,140.6973 v 1.00013 l 0.66675,-0.64205 0.46919,0.48153 -1.13594,1.08657 v 1.44463 l 1.25941,-0.72851 0.35807,-1.51869 0.6544,0.16064 -0.20989,0.889 0.85196,-0.49389 0.33338,0.58032 -0.86431,0.50624 0.90135,0.2592 -0.18522,0.64205 -1.50636,-0.44453 -1.25941,0.71617 1.27176,0.72848 1.49401,-0.43216 0.18522,0.64205 -0.889,0.25919 0.8643,0.49388 -0.34571,0.58032 -0.86431,-0.50622 0.22224,0.91368 -0.65441,0.16064 -0.35806,-1.53104 -1.25942,-0.72847 v 1.45695 l 1.13595,1.07421 -0.4692,0.49388 -0.66675,-0.64204 v 1.00013 h -0.6791 v -1.00013 l -0.66675,0.64204 -0.45684,-0.49388 1.12359,-1.06186 v -1.45695 l -1.24707,0.71612 -0.35806,1.53104 -0.65441,-0.16064 0.22224,-0.91368 -0.87665,0.50622 -0.33338,-0.58032 0.86431,-0.49388 -0.889,-0.25919 0.18522,-0.64205 1.49401,0.43216 1.27176,-0.72848 -1.25941,-0.71617 -1.50636,0.44453 -0.18522,-0.64205 0.90135,-0.2592 -0.87666,-0.50624 0.33338,-0.58032 0.8643,0.49389 -0.20988,-0.889 0.6544,-0.16064 0.35807,1.51869 1.24707,0.71616 v -1.44464 l -1.1236,-1.07421 0.45685,-0.48153 0.66675,0.6297 v -0.98778 z"
         id="path1432-1"
         style="stroke-width:0.0123472" />
      <path
         fill="#3b9cac"
         fill-rule="nonzero"
         d="m 103.15944,140.73262 v 1.00013 l 0.66676,-0.64205 0.46919,0.48153 -1.13595,1.08657 v 1.44463 l 1.25942,-0.72851 0.35807,-1.51869 0.6544,0.16064 -0.20989,0.889 0.85196,-0.49389 0.33338,0.58032 -0.86431,0.50624 0.90135,0.2592 -0.18522,0.64205 -1.50636,-0.44453 -1.25941,0.71617 1.27176,0.72848 1.49401,-0.43216 0.18522,0.64205 -0.889,0.25919 0.8643,0.49388 -0.34572,0.58032 -0.8643,-0.50622 0.22224,0.91368 -0.65441,0.16064 -0.35806,-1.53104 -1.25942,-0.72847 v 1.45695 l 1.13594,1.07421 -0.46919,0.49388 -0.66675,-0.64204 v 1.00013 h -0.6791 v -1.00013 l -0.66675,0.64204 -0.45685,-0.49388 1.1236,-1.06186 v -1.45695 l -1.24707,0.71612 -0.35806,1.53104 -0.65441,-0.16064 0.22224,-0.91368 -0.87665,0.50622 -0.33338,-0.58032 0.86431,-0.49388 -0.889,-0.25919 0.18521,-0.64205 1.49402,0.43216 1.27176,-0.72848 -1.25941,-0.71617 -1.50637,0.44453 -0.18521,-0.64205 0.90135,-0.2592 -0.87666,-0.50624 0.33338,-0.58032 0.8643,0.49389 -0.20988,-0.889 0.6544,-0.16064 0.35807,1.51869 1.24707,0.71616 v -1.44464 l -1.1236,-1.07421 0.45685,-0.48153 0.66675,0.6297 v -0.98778 z"
         id="path1432-5"
         style="stroke-width:0.0123472" />
      <path
         fill="#3b9cac"
         fill-rule="nonzero"
         d="m 128.38658,140.31454 v 1.00013 l 0.66675,-0.64205 0.46919,0.48153 -1.13594,1.08657 v 1.44463 l 1.25942,-0.72851 0.35806,-1.51869 0.65441,0.16064 -0.20989,0.889 0.85196,-0.49389 0.33337,0.58032 -0.8643,0.50624 0.90134,0.2592 -0.18521,0.64205 -1.50636,-0.44453 -1.25942,0.71617 1.27177,0.72848 1.49401,-0.43216 0.18521,0.64205 -0.889,0.25919 0.86431,0.49388 -0.34572,0.58032 -0.86431,-0.50622 0.22224,0.91368 -0.6544,0.16064 -0.35807,-1.53104 -1.25942,-0.72847 v 1.45695 l 1.13595,1.07421 -0.46919,0.49388 -0.66676,-0.64204 v 1.00013 h -0.67909 v -1.00013 l -0.66675,0.64204 -0.45685,-0.49388 1.1236,-1.06186 v -1.45695 l -1.24707,0.71612 -0.35807,1.53104 -0.6544,-0.16064 0.22224,-0.91368 -0.87666,0.50622 -0.33337,-0.58032 0.86431,-0.49388 -0.88901,-0.25919 0.18522,-0.64205 1.49401,0.43216 1.27177,-0.72848 -1.25942,-0.71617 -1.50636,0.44453 -0.18522,-0.64205 0.90135,-0.2592 -0.87665,-0.50624 0.33337,-0.58032 0.86431,0.49389 -0.20989,-0.889 0.6544,-0.16064 0.35807,1.51869 1.24707,0.71616 v -1.44464 l -1.1236,-1.07421 0.45685,-0.48153 0.66675,0.6297 v -0.98778 z"
         id="path1432-03"
         style="stroke-width:0.0123472" />
    </g>
  </g>
</svg>
