<?xml version="1.0" encoding="UTF-8" standalone="no"?>
<svg
   xmlns:dc="http://purl.org/dc/elements/1.1/"
   xmlns:cc="http://creativecommons.org/ns#"
   xmlns:rdf="http://www.w3.org/1999/02/22-rdf-syntax-ns#"
   xmlns:svg="http://www.w3.org/2000/svg"
   xmlns="http://www.w3.org/2000/svg"
   xmlns:sodipodi="http://sodipodi.sourceforge.net/DTD/sodipodi-0.dtd"
   xmlns:inkscape="http://www.inkscape.org/namespaces/inkscape"
   id="weather34 cloudy icon"
   width="302pt"
   height="340"
   viewBox="0 0 302 255"
   version="1.1"
   sodipodi:docname="18.svg"
   inkscape:version="1.0.1 (3bc2e813f5, 2020-09-07)">
  <metadata
     id="metadata11">
    <rdf:RDF>
      <cc:Work
         rdf:about="">
        <dc:format>image/svg+xml</dc:format>
        <dc:type
           rdf:resource="http://purl.org/dc/dcmitype/StillImage" />
        <dc:title></dc:title>
      </cc:Work>
    </rdf:RDF>
  </metadata>
  <defs
     id="defs9" />
  <sodipodi:namedview
     pagecolor="#ffffff"
     bordercolor="#666666"
     borderopacity="1"
     objecttolerance="10"
     gridtolerance="10"
     guidetolerance="10"
     inkscape:pageopacity="0"
     inkscape:pageshadow="2"
     inkscape:window-width="1920"
     inkscape:window-height="1051"
     id="namedview7"
     showgrid="false"
     inkscape:zoom="1.8301587"
     inkscape:cx="201.33333"
     inkscape:cy="170"
     inkscape:window-x="-9"
     inkscape:window-y="-9"
     inkscape:window-maximized="1"
     inkscape:current-layer="weather34 cloudy icon"
     inkscape:document-rotation="0"
     width="302px" />
  <g
     id="g847"
     transform="translate(3,21)">
    <path
       fill="#e6e8ef"
       stroke="#e6e8ef"
       stroke-width="0.1"
       d="m 73.2,35.2 c 12,-13.6 31,-20.4 49,-19 18,1 36,11 45.5,26.7 15.2,-10 36.8,-8.2 49.8,4.5 5.6,5.3 9.2,12.6 10,20.3 14.3,2 27.8,10 35,22.5 6.5,10.8 7.3,24.7 2,36 C 257,143 239,153 221,153 H 74 C 58.8,153 43.5,145.8 34.6,133.4 28,124.2 25.3,112 28,101 32,85.3 45.4,73.3 60.7,69.2 60.2,56.8 64.9,44.4 73.2,35.2 m 114,51 c -5.7,2.7 -9.2,8.6 -9.5,14.8 -3,1.3 -6,2.8 -8,5.5 -3.6,4.5 -3.5,11.3 0,15.7 3.4,4.2 9,6 14.2,5.8 h 45 c 3.6,0 7.2,-0.8 10,-3 5.2,-3.2 7.6,-10.3 5,-16 -2,-4.7 -7,-7.3 -11.8,-8.5 -1,-2.8 -2.3,-6 -5,-7.6 -4.3,-3.2 -10,-2.8 -14.6,-0.6 -5.5,-8 -17,-10.8 -25.4,-6.2 z"
       id="path2" />
    <path
       fill="#777777"
       stroke="#777777"
       stroke-width="0.1"
       d="m 187.2,86.2 c 8.5,-4.6 20,-1.8 25.4,6.2 4.5,-2.2 10.3,-2.6 14.5,0.5 3,1.6 4,4.7 5.2,7.5 4.8,1.2 9.7,3.8 11.7,8.6 2.6,5.7 0.2,12.8 -5,16 -2.8,2.2 -6.4,3 -10,3 h -45 c -5.3,0.3 -11,-1.6 -14.2,-5.8 -3.6,-4.4 -3.7,-11.2 -0.2,-15.7 2,-2.7 5,-4.2 8,-5.5 0.4,-6.2 4,-12 9.6,-14.8 z"
       id="path4" />
    <g
       id="g2056"
       transform="matrix(2.8346457,0,0,2.8346457,-147.56616,-230.37105)">
      <path
         fill="#00a4b4"
         stroke="#00a4b4"
         stroke-width="0.0352777"
         d="m 80.0825,137.35126 c 1.41111,-1.41111 2.82222,-2.82222 4.33916,-4.16278 0.42334,0.35278 1.12889,0.70556 1.05834,1.30528 -0.70556,1.05833 -1.76389,1.86972 -2.64584,2.82222 -0.70555,0.635 -1.27,1.30528 -2.01083,1.83445 -1.19944,0.49389 -1.76389,-1.30528 -0.70556,-1.83445 z m 22.40139,0 c 1.48166,-1.41111 2.89277,-2.92806 4.51555,-4.23333 l 1.05833,1.41111 -2.82222,2.82222 c -0.70555,0.635 -1.27,1.41111 -2.11667,1.905 -1.12888,0.24694 -1.58749,-1.34056 -0.59972,-1.905 z m 22.47194,0 c 1.41111,-1.41111 2.82222,-2.82222 4.30389,-4.16278 0.42333,0.35278 1.05833,0.70556 1.05833,1.30528 -0.70556,1.05833 -1.76389,1.905 -2.64583,2.82222 -0.70556,0.635 -1.27,1.34056 -2.04611,1.86972 -1.23473,0.35278 -1.76389,-1.34055 -0.70556,-1.86972 z m -29.80972,5.39752 c 0.77611,-0.81139 2.11666,0.59972 1.27,1.34056 -1.30528,1.41111 -2.68111,2.71638 -4.05695,4.02166 -0.635,0.88194 -2.18722,-0.24694 -1.48166,-1.05833 1.34055,-1.51695 2.82222,-2.89278 4.30389,-4.23333 z m 22.47194,-0.0353 c 0.70556,-0.70556 2.01083,0.52917 1.30528,1.27 -1.41111,1.41111 -2.82222,2.82222 -4.33917,4.23333 -0.70555,0.70556 -2.01083,-0.56444 -1.30528,-1.27 1.41111,-1.41111 2.82223,-2.89277 4.30389,-4.23333 z"
         id="path6"
         sodipodi:nodetypes="ccccccccccccccccccccccccccccccscc" />
      <path
         fill="#3b9cac"
         fill-rule="nonzero"
         d="m 94.215507,131.44148 v 1.00013 l 0.666752,-0.64205 0.469193,0.48153 -1.135945,1.08657 v 1.44463 l 1.259417,-0.72851 0.358067,-1.51869 0.654403,0.16064 -0.209888,0.889 0.851959,-0.49389 0.333373,0.58032 -0.864304,0.50624 0.901348,0.2592 -0.185216,0.64205 -1.50636,-0.44453 -1.259416,0.71617 1.271763,0.72848 1.494013,-0.43216 0.185216,0.64205 -0.889001,0.25919 0.864305,0.49388 -0.345719,0.58032 -0.864308,-0.50622 0.22224,0.91368 -0.654403,0.16064 -0.358067,-1.53104 -1.259418,-0.72847 v 1.45695 l 1.135946,1.07421 -0.469194,0.49388 -0.666752,-0.64204 v 1.00013 h -0.679097 v -1.00013 l -0.666749,0.64204 -0.456848,-0.49388 1.123597,-1.06186 v -1.45695 l -1.247069,0.71612 -0.358067,1.53104 -0.654404,-0.16064 0.22224,-0.91368 -0.876652,0.50622 -0.333376,-0.58032 0.864307,-0.49388 -0.889002,-0.25919 0.185216,-0.64205 1.494013,0.43216 1.271763,-0.72848 -1.259414,-0.71617 -1.506362,0.44453 -0.185216,-0.64205 0.901348,-0.2592 -0.876653,-0.50624 0.333376,-0.58032 0.864304,0.49389 -0.209888,-0.889 0.654403,-0.16064 0.358067,1.51869 1.24707,0.71616 v -1.44464 l -1.123597,-1.07421 0.456847,-0.48153 0.66675,0.6297 v -0.98778 z"
         id="path1432"
         style="stroke-width:0.0123472" />
      <path
         fill="#3b9cac"
         fill-rule="nonzero"
         d="m 116.98305,131.41574 v 1.00013 l 0.66676,-0.64205 0.46919,0.48153 -1.13595,1.08657 v 1.44463 l 1.25942,-0.72851 0.35807,-1.51869 0.6544,0.16064 -0.20989,0.889 0.85196,-0.49389 0.33337,0.58032 -0.8643,0.50624 0.90135,0.2592 -0.18522,0.64205 -1.50636,-0.44453 -1.25941,0.71617 1.27176,0.72848 1.49401,-0.43216 0.18522,0.64205 -0.889,0.25919 0.8643,0.49388 -0.34572,0.58032 -0.8643,-0.50622 0.22223,0.91368 -0.6544,0.16064 -0.35806,-1.53104 -1.25942,-0.72847 v 1.45695 l 1.13594,1.07421 -0.46919,0.49388 -0.66675,-0.64204 v 1.00013 h -0.6791 v -1.00013 l -0.66675,0.64204 -0.45685,-0.49388 1.1236,-1.06186 v -1.45695 l -1.24707,0.71612 -0.35807,1.53104 -0.6544,-0.16064 0.22224,-0.91368 -0.87665,0.50622 -0.33338,-0.58032 0.86431,-0.49388 -0.889,-0.25919 0.18521,-0.64205 1.49402,0.43216 1.27176,-0.72848 -1.25941,-0.71617 -1.50637,0.44453 -0.18521,-0.64205 0.90135,-0.2592 -0.87666,-0.50624 0.33338,-0.58032 0.8643,0.49389 -0.20989,-0.889 0.65441,-0.16064 0.35806,1.51869 1.24707,0.71616 v -1.44464 l -1.12359,-1.07421 0.45684,-0.48153 0.66675,0.6297 v -0.98778 z"
         id="path1432-0"
         style="stroke-width:0.0123472" />
      <path
         fill="#3b9cac"
         fill-rule="nonzero"
         d="m 80.46173,140.6973 v 1.00013 l 0.66675,-0.64205 0.46919,0.48153 -1.13594,1.08657 v 1.44463 l 1.25941,-0.72851 0.35807,-1.51869 0.6544,0.16064 -0.20989,0.889 0.85196,-0.49389 0.33338,0.58032 -0.86431,0.50624 0.90135,0.2592 -0.18522,0.64205 -1.50636,-0.44453 -1.25941,0.71617 1.27176,0.72848 1.49401,-0.43216 0.18522,0.64205 -0.889,0.25919 0.8643,0.49388 -0.34571,0.58032 -0.86431,-0.50622 0.22224,0.91368 -0.65441,0.16064 -0.35806,-1.53104 -1.25942,-0.72847 v 1.45695 l 1.13595,1.07421 -0.4692,0.49388 -0.66675,-0.64204 v 1.00013 h -0.6791 v -1.00013 l -0.66675,0.64204 -0.45684,-0.49388 1.12359,-1.06186 v -1.45695 l -1.24707,0.71612 -0.35806,1.53104 -0.65441,-0.16064 0.22224,-0.91368 -0.87665,0.50622 -0.33338,-0.58032 0.86431,-0.49388 -0.889,-0.25919 0.18522,-0.64205 1.49401,0.43216 1.27176,-0.72848 -1.25941,-0.71617 -1.50636,0.44453 -0.18522,-0.64205 0.90135,-0.2592 -0.87666,-0.50624 0.33338,-0.58032 0.8643,0.49389 -0.20988,-0.889 0.6544,-0.16064 0.35807,1.51869 1.24707,0.71616 v -1.44464 l -1.1236,-1.07421 0.45685,-0.48153 0.66675,0.6297 v -0.98778 z"
         id="path1432-1"
         style="stroke-width:0.0123472" />
      <path
         fill="#3b9cac"
         fill-rule="nonzero"
         d="m 103.15944,140.73262 v 1.00013 l 0.66676,-0.64205 0.46919,0.48153 -1.13595,1.08657 v 1.44463 l 1.25942,-0.72851 0.35807,-1.51869 0.6544,0.16064 -0.20989,0.889 0.85196,-0.49389 0.33338,0.58032 -0.86431,0.50624 0.90135,0.2592 -0.18522,0.64205 -1.50636,-0.44453 -1.25941,0.71617 1.27176,0.72848 1.49401,-0.43216 0.18522,0.64205 -0.889,0.25919 0.8643,0.49388 -0.34572,0.58032 -0.8643,-0.50622 0.22224,0.91368 -0.65441,0.16064 -0.35806,-1.53104 -1.25942,-0.72847 v 1.45695 l 1.13594,1.07421 -0.46919,0.49388 -0.66675,-0.64204 v 1.00013 h -0.6791 v -1.00013 l -0.66675,0.64204 -0.45685,-0.49388 1.1236,-1.06186 v -1.45695 l -1.24707,0.71612 -0.35806,1.53104 -0.65441,-0.16064 0.22224,-0.91368 -0.87665,0.50622 -0.33338,-0.58032 0.86431,-0.49388 -0.889,-0.25919 0.18521,-0.64205 1.49402,0.43216 1.27176,-0.72848 -1.25941,-0.71617 -1.50637,0.44453 -0.18521,-0.64205 0.90135,-0.2592 -0.87666,-0.50624 0.33338,-0.58032 0.8643,0.49389 -0.20988,-0.889 0.6544,-0.16064 0.35807,1.51869 1.24707,0.71616 v -1.44464 l -1.1236,-1.07421 0.45685,-0.48153 0.66675,0.6297 v -0.98778 z"
         id="path1432-5"
         style="stroke-width:0.0123472" />
      <path
         fill="#3b9cac"
         fill-rule="nonzero"
         d="m 128.38658,140.31454 v 1.00013 l 0.66675,-0.64205 0.46919,0.48153 -1.13594,1.08657 v 1.44463 l 1.25942,-0.72851 0.35806,-1.51869 0.65441,0.16064 -0.20989,0.889 0.85196,-0.49389 0.33337,0.58032 -0.8643,0.50624 0.90134,0.2592 -0.18521,0.64205 -1.50636,-0.44453 -1.25942,0.71617 1.27177,0.72848 1.49401,-0.43216 0.18521,0.64205 -0.889,0.25919 0.86431,0.49388 -0.34572,0.58032 -0.86431,-0.50622 0.22224,0.91368 -0.6544,0.16064 -0.35807,-1.53104 -1.25942,-0.72847 v 1.45695 l 1.13595,1.07421 -0.46919,0.49388 -0.66676,-0.64204 v 1.00013 h -0.67909 v -1.00013 l -0.66675,0.64204 -0.45685,-0.49388 1.1236,-1.06186 v -1.45695 l -1.24707,0.71612 -0.35807,1.53104 -0.6544,-0.16064 0.22224,-0.91368 -0.87666,0.50622 -0.33337,-0.58032 0.86431,-0.49388 -0.88901,-0.25919 0.18522,-0.64205 1.49401,0.43216 1.27177,-0.72848 -1.25942,-0.71617 -1.50636,0.44453 -0.18522,-0.64205 0.90135,-0.2592 -0.87665,-0.50624 0.33337,-0.58032 0.86431,0.49389 -0.20989,-0.889 0.6544,-0.16064 0.35807,1.51869 1.24707,0.71616 v -1.44464 l -1.1236,-1.07421 0.45685,-0.48153 0.66675,0.6297 v -0.98778 z"
         id="path1432-03"
         style="stroke-width:0.0123472" />
    </g>
  </g>
</svg>
