<?xml version="1.0" encoding="UTF-8" standalone="no"?>
<svg
   xmlns:dc="http://purl.org/dc/elements/1.1/"
   xmlns:cc="http://creativecommons.org/ns#"
   xmlns:rdf="http://www.w3.org/1999/02/22-rdf-syntax-ns#"
   xmlns:svg="http://www.w3.org/2000/svg"
   xmlns="http://www.w3.org/2000/svg"
   xmlns:sodipodi="http://sodipodi.sourceforge.net/DTD/sodipodi-0.dtd"
   xmlns:inkscape="http://www.inkscape.org/namespaces/inkscape"
   width="302"
   height="290"
   viewBox="0 0 226.5 217.5"
   version="1.1"
   id="svg8"
   sodipodi:docname="19.svg"
   inkscape:version="1.0.1 (3bc2e813f5, 2020-09-07)">
  <metadata
     id="metadata14">
    <rdf:RDF>
      <cc:Work
         rdf:about="">
        <dc:format>image/svg+xml</dc:format>
        <dc:type
           rdf:resource="http://purl.org/dc/dcmitype/StillImage" />
        <dc:title></dc:title>
      </cc:Work>
    </rdf:RDF>
  </metadata>
  <defs
     id="defs12" />
  <sodipodi:namedview
     pagecolor="#ffffff"
     bordercolor="#666666"
     borderopacity="1"
     objecttolerance="10"
     gridtolerance="10"
     guidetolerance="10"
     inkscape:pageopacity="0"
     inkscape:pageshadow="2"
     inkscape:window-width="1920"
     inkscape:window-height="1051"
     id="namedview10"
     showgrid="false"
     inkscape:zoom="1.8301587"
     inkscape:cx="206.45566"
     inkscape:cy="136.37221"
     inkscape:window-x="-9"
     inkscape:window-y="-9"
     inkscape:window-maximized="1"
     inkscape:current-layer="svg8"
     inkscape:document-rotation="0" />
  <g
     id="g878"
     transform="matrix(0.704,0,0,0.704,17.789233,38.139035)">
    <g
       id="g1410"
       transform="translate(-14.184167,-32.694255)">
      <path
         fill="#f05e40"
         stroke="#f05e40"
         stroke-width="0.0562498"
         d="m 67.312295,32.745443 c 10.51875,4.5 19.518752,12.937499 24.187502,23.456245 4.387499,9.9 5.062499,21.54375 1.6875,31.95 -3.20625,9.73125 -9.787502,18.337492 -18.450002,23.849992 -7.48125,4.8375 -16.48125,7.425 -25.425,7.0875 -11.700003,-0.1125 -23.062503,-5.34375 -31.162503,-13.725 -1.40625,-1.40625 -2.5875,-3.09375 -3.9375,-4.5 0,-0.3375 0.16875,-0.56249 0.225,-0.84374 l 0.3375,0.56249 c 6.01875,2.1375 12.375,3.375 18.73125,2.7 12.15,-0.5625 23.906253,-6.749992 31.500003,-16.199992 5.34375,-6.35625 8.83125,-14.2875 9.9,-22.5 1.29375,-9.562496 -0.5625,-19.349995 -5.23125,-27.731245 -0.675,-1.40625 -1.8,-2.53125 -2.3625,-4.10625 z"
         id="path2-9" />
      <path
         fill="#e6e8ef"
         opacity="1"
         stroke-width="1"
         stroke="#e6e8ef"
         d="m 129.08591,56.348864 c 19.72,-2.53 40.57,5.63 52.99,21.229996 1.29,1.560003 2.21,3.400003 3.65,4.840003 13.07,-8.060003 30.61,-8.470003 43.67,-0.21 8.73,5.4 14.74,14.71 16.23,24.839997 13.21,2.26 26.07,9.17 33.48,20.61 7.94,11.47 9.09,27.35 2.58,39.73 -6.37,12.25 -18.76,20.79 -32.13,23.62 -5.11,1.16 -10.38,1.23 -15.59,1.21 -47.01,0 -94.01,0.05 -141.019999,0.05 -13.29,0.21 -26.7,-4.96 -35.99,-14.54 -5.15,-5.63 -9.32,-12.36 -10.9,-19.89 -1.62,-5.32 -1.01,-10.95 -0.2,-16.35 2.63,-13.11 12.47,-23.97 24.38,-29.56 2.63,-1.3 5.52,-2.06 7.97,-3.7 0.71,-3.89 0.69,-7.88 1.66,-11.729997 2.22,-9.11 7.04,-17.590003 13.78,-24.120003 5.77,-5.44 12.699999,-9.539996 19.999999,-12.569996 5.04,-1.55 10.12,-3.23 15.44,-3.46 z"
         id="path848" />
    </g>
    <path
       fill="#00a4b4"
       stroke="#00a4b4"
       stroke-width="0.0999997"
       d="m 111.8966,162.82908 c -2,-6.8 3.7,-14.3 10.8,-13.8 7,0 12,7.2 10.2,13.8 -1.7,4.5 -6.3,7.8 -11.2,7.4 -4.4,-0.2 -8.3,-3.3 -9.8,-7.4 z m 65,0 c -2.2,-6.8 3.7,-14.4 10.8,-13.8 7,0 12,7.3 10,13.8 -1.6,4.5 -6.2,7.8 -11,7.4 -4.4,-0.2 -8.3,-3.3 -9.8,-7.4 z m -93.4,0 c 4,-4 8,-8 12.3,-11.8 1.2,1 3.2,2 3,3.7 -2,3 -5,5.3 -7.5,8 -2,1.8 -3.6,3.7 -5.7,5.2 -3.4,1.4 -5,-3.7 -2,-5.2 z m 63.5,0 c 4.19999,-4 8.2,-8.3 12.8,-12 l 3,4 -8.00001,8 c -1.99999,1.8 -3.6,4 -6,5.4 -3.19999,0.7 -4.49999,-3.8 -1.69999,-5.4 z m 63.7,0 c 4,-4 8,-8 12.2,-11.8 1.2,1 3,2 3,3.7 -2,3 -5,5.4 -7.5,8 -2,1.8 -3.6,3.8 -5.8,5.3 -3.5,1 -5,-3.8 -2,-5.3 z m -130.6,13.6 c 7.3,-3.7 16.8,3.3 15,11.4 -1,7.8 -11,11.6 -17,6.7 -6.6,-4.3 -5.3,-15.3 2,-18 z m 65,0 c 6,-2.8 13.59999,1 15,7.4 1.59999,6.3 -4,13 -10.40001,13 -5.59999,0.2 -10.69999,-4.4 -10.99999,-10 -0.4,-4.3 2.3,-8.7 6.4,-10.4 z m 70.1,0.1 c 6.2,-3.2 14.7,1.3 15.3,8.3 1,6.6 -5.4,12.8 -12,11.8 -6.3,-0.4 -11.2,-7.3 -9.2,-13.5 1,-3 3,-5.4 6,-6.6 z m -89,1.6 c 2.2,-2.3 6,1.7 3.6,3.8 -3.7,4 -7.6,7.7 -11.5,11.4 -1.8,2.5 -6.2,-0.7 -4.2,-3 3.8,-4.3 8,-8.2 12.2,-12 z m 63.7,-0.1 c 2,-2 5.7,1.5 3.7,3.6 -4,4 -8,8 -12.3,12 -2,2 -5.7,-1.6 -3.7,-3.6 4,-4 8,-8.2 12.2,-12 z"
       id="path6" />
  </g>
</svg>
