<?xml version="1.0" encoding="UTF-8" standalone="no"?>
<svg
   xmlns:dc="http://purl.org/dc/elements/1.1/"
   xmlns:cc="http://creativecommons.org/ns#"
   xmlns:rdf="http://www.w3.org/1999/02/22-rdf-syntax-ns#"
   xmlns:svg="http://www.w3.org/2000/svg"
   xmlns="http://www.w3.org/2000/svg"
   xmlns:sodipodi="http://sodipodi.sourceforge.net/DTD/sodipodi-0.dtd"
   xmlns:inkscape="http://www.inkscape.org/namespaces/inkscape"
   id="weather34 partly cloudy day icon"
   width="302pt"
   height="290pt"
   viewBox="0 0 302 290"
   version="1.1"
   sodipodi:docname="2.svg"
   inkscape:version="1.0.2 (e86c8708, 2021-01-15)">
  <metadata
     id="metadata11">
    <rdf:RDF>
      <cc:Work
         rdf:about="">
        <dc:format>image/svg+xml</dc:format>
        <dc:type
           rdf:resource="http://purl.org/dc/dcmitype/StillImage" />
        <dc:title></dc:title>
      </cc:Work>
    </rdf:RDF>
  </metadata>
  <defs
     id="defs9" />
  <sodipodi:namedview
     pagecolor="#ffffff"
     bordercolor="#666666"
     borderopacity="1"
     objecttolerance="10"
     gridtolerance="10"
     guidetolerance="10"
     inkscape:pageopacity="0"
     inkscape:pageshadow="2"
     inkscape:window-width="1920"
     inkscape:window-height="992"
     id="namedview7"
     showgrid="false"
     inkscape:zoom="1.8301587"
     inkscape:cx="169.09569"
     inkscape:cy="225.18647"
     inkscape:window-x="0"
     inkscape:window-y="0"
     inkscape:window-maximized="1"
     inkscape:current-layer="weather34 partly cloudy day icon"
     inkscape:document-rotation="0" />
  <g
     id="g2055"
     transform="translate(4.5,10.5)">
    <path
       fill="#f05e40"
       stroke="#f05e40"
       stroke-width="0.0675"
       d="m 71.60677,44.083323 c 12.6225,5.4 23.4225,15.524995 29.025,28.147495 5.26501,11.88 6.07501,25.852501 2.025,38.340002 -3.847501,11.67749 -11.745,22.00498 -22.14,28.61998 -8.9775,5.805 -19.7775,8.91 -30.510002,8.505 -14.04,-0.135 -27.675,-6.41249 -37.395,-16.47 -1.6875,-1.68749 -3.1049996,-3.71249 -4.7249996,-5.4 0,-0.405 0.2025,-0.67498 0.27,-1.01249 l 0.405,0.675 c 7.2224996,2.565 14.8499996,4.05 22.4774996,3.24 14.58,-0.675 28.687502,-8.1 37.800002,-19.43999 6.4125,-7.6275 10.5975,-17.145001 11.88,-27.000002 1.5525,-11.475 -0.675,-23.219995 -6.2775,-33.277495 -0.81,-1.6875 -2.16,-3.0375 -2.835,-4.9275 z"
       id="path2-7" />
    <path
       fill="#e6e8ef"
       opacity="1"
       stroke-width="1"
       stroke="#e6e8ef"
       d="m 128.35309,81.841714 c 19.72,-2.53 40.57,5.63 52.99,21.229996 1.29,1.56 2.21,3.4 3.65,4.84 13.07,-8.059996 30.61,-8.469996 43.67,-0.21 8.73,5.4 14.74,14.71 16.23,24.84 13.21,2.26 26.07,9.17 33.48,20.61 7.94,11.47 9.09,27.35 2.58,39.73 -6.37,12.25 -18.76,20.79 -32.13,23.62 -5.11,1.16 -10.38,1.23 -15.59,1.21 -47.01,0 -94.01,0.05 -141.020003,0.05 -13.29,0.21 -26.7,-4.96 -35.99,-14.54 -5.15,-5.63 -9.32,-12.36 -10.9,-19.89 -1.62,-5.32 -1.01,-10.95 -0.2,-16.35 2.63,-13.11 12.47,-23.97 24.38,-29.56 2.63,-1.3 5.52,-2.06 7.97,-3.7 0.71,-3.89 0.69,-7.88 1.66,-11.73 2.22,-9.11 7.04,-17.59 13.78,-24.119996 5.77,-5.44 12.700003,-9.54 20.000003,-12.57 5.04,-1.55 10.12,-3.23 15.44,-3.46 z"
       id="path4" />
  </g>
</svg>
