<?xml version="1.0" encoding="UTF-8" standalone="no"?>
<svg
   xmlns:dc="http://purl.org/dc/elements/1.1/"
   xmlns:cc="http://creativecommons.org/ns#"
   xmlns:rdf="http://www.w3.org/1999/02/22-rdf-syntax-ns#"
   xmlns:svg="http://www.w3.org/2000/svg"
   xmlns="http://www.w3.org/2000/svg"
   xmlns:sodipodi="http://sodipodi.sourceforge.net/DTD/sodipodi-0.dtd"
   xmlns:inkscape="http://www.inkscape.org/namespaces/inkscape"
   id="weather34 icon sleet"
   width="302pt"
   height="340"
   viewBox="0 0 302 255"
   version="1.1"
   sodipodi:docname="20.svg"
   inkscape:version="1.0.1 (3bc2e813f5, 2020-09-07)">
  <metadata
     id="metadata13">
    <rdf:RDF>
      <cc:Work
         rdf:about="">
        <dc:format>image/svg+xml</dc:format>
        <dc:type
           rdf:resource="http://purl.org/dc/dcmitype/StillImage" />
        <dc:title></dc:title>
      </cc:Work>
    </rdf:RDF>
  </metadata>
  <defs
     id="defs11" />
  <sodipodi:namedview
     pagecolor="#ffffff"
     bordercolor="#666666"
     borderopacity="1"
     objecttolerance="10"
     gridtolerance="10"
     guidetolerance="10"
     inkscape:pageopacity="0"
     inkscape:pageshadow="2"
     inkscape:window-width="1920"
     inkscape:window-height="1051"
     id="namedview9"
     showgrid="false"
     width="302px"
     inkscape:zoom="1.8301587"
     inkscape:cx="201.33333"
     inkscape:cy="170"
     inkscape:window-x="-9"
     inkscape:window-y="-9"
     inkscape:window-maximized="1"
     inkscape:current-layer="weather34 icon sleet"
     inkscape:document-rotation="0"
     inkscape:pagecheckerboard="false" />
  <g
     id="g4286"
     transform="translate(-12,-4.5)">
    <g
       id="g3640"
       transform="translate(11.920824,-2.3339894)">
      <path
         fill="#d05f2d"
         opacity="1"
         d="m 32.76,69.9 c 8.42,-12.8 22.61,-21.59 37.82,-23.39 12.27,-1.45 25.31,1.1 35.6,8.1 -7.3,3.03 -14.23,7.13 -20,12.57 -6.74,6.53 -11.56,15.01 -13.78,24.12 -0.97,3.85 -0.95,7.84 -1.66,11.73 -2.45,1.64 -5.34,2.4 -7.97,3.7 -11.91,5.59 -21.75,16.45 -24.38,29.56 -7.02,-7.31 -11.84,-16.7 -13.64,-26.68 -2.6,-13.6 0.24,-28.22 8.01,-39.71 z"
         id="path2" />
      <path
         fill="#e6e8ef"
         opacity="1"
         stroke-width="1"
         stroke="#e6e8ef"
         d="m 121.62,51.15 c 19.72,-2.53 40.57,5.63 52.99,21.23 1.29,1.56 2.21,3.4 3.65,4.84 13.07,-8.06 30.61,-8.47 43.67,-0.21 8.73,5.4 14.74,14.71 16.23,24.84 13.21,2.26 26.07,9.17 33.48,20.61 7.94,11.47 9.09,27.35 2.58,39.73 -6.37,12.25 -18.76,20.79 -32.13,23.62 -5.11,1.16 -10.38,1.23 -15.59,1.21 -47.01,0 -94.01,0.05 -141.02,0.05 -13.29,0.21 -26.7,-4.96 -35.99,-14.54 -5.15,-5.63 -9.32,-12.36 -10.9,-19.89 -1.62,-5.32 -1.01,-10.95 -0.2,-16.35 2.63,-13.11 12.47,-23.97 24.38,-29.56 2.63,-1.3 5.52,-2.06 7.97,-3.7 0.71,-3.89 0.69,-7.88 1.66,-11.73 2.22,-9.11 7.04,-17.59 13.78,-24.12 5.77,-5.44 12.7,-9.54 20,-12.57 5.04,-1.55 10.12,-3.23 15.44,-3.46 z"
         id="path4" />
    </g>
    <path
       fill="#00a4b4"
       stroke="#00a4b4"
       stroke-width="0.0999997"
       d="m 131.87411,187.34193 c -2.3,-6.7 3.6,-14.3 10.6,-13.8 6.8,0 12.2,7.2 10,13.8 -1.5,4.5 -6,7.8 -11,7.4 -4.4,-0.2 -8.3,-3.3 -9.7,-7.4 z m 68.4,-11.4 c 4.3,-3.7 11.7,-3 15.3,1.5 2.30001,2.8 2.8,6.6 2.00001,10 -1.60001,4.5 -6.20001,7.8 -11.00001,7.4 -4.4,-0.2 -8.3,-3.3 -9.8,-7.4 -1.2,-4 0,-8.7 3.5,-11.4 z m -96.9,11.4 c 4,-4 8,-8 12.2,-11.7 1.5,1 3.8,2.2 2.7,4.3 -2,2.8 -5,5 -7.3,7.4 -1.8,1.8 -3.5,3.7 -5.6,5.2 -3.3,1.4 -5,-3.6 -2,-5.2 z m 63.5,0 c 4.2,-4 8,-8.3 12.7,-11.8 1,1 2.7,2 2.7,3.8 -2.2,3 -5,5.3 -7.7,8 -2,1.8 -3.6,4 -6,5.4 -3.2,0.7 -4.6,-3.8 -1.7,-5.4 z m 74.4,-10.4 c 1.6,-2 5,0 4.5,2.4 -2,3 -5,5.4 -7.5,8 -2,1.8 -3.6,3.8 -5.8,5.3 -3.4,1 -4.99999,-3.8 -1.99999,-5.3 3.59999,-3.4 6.99999,-7 10.69999,-10.4 z m -141.3,24 c 6.3,-3 14.5,1.5 15.2,8.5 1,6 -4.5,12 -10.6,12 -6,0.2 -11.4,-5 -11,-11 0,-4 2.7,-7.8 6.4,-9.4 z m 65,0 c 6.6,-3.2 15.2,2 15.2,9.4 0.3,6.6 -6.4,12 -12.8,10.7 -6,-0.8 -10.6,-7.7 -8.4,-13.6 1,-2.8 3.2,-5.2 6,-6.4 z m 70.1,0.1 c 6.2,-3.2 14.6,1.3 15.3,8.3 1,6.6 -5.3,12.8 -12,11.8 -6.2,-0.3 -11.19999,-7.3 -9.2,-13.4 1.00001,-3 3,-5.5 6,-6.7 z m -89.1,1.7 c 2.2,-2.5 6,1.5 3.7,3.7 -4,4 -7.8,8 -12,11.8 -2,2 -5.5,-1.5 -3.7,-3.5 3.8,-4.2 8,-8 12,-12 z m 63.80001,-0.2 c 1.99999,-2 5.7,1.5 3.69999,3.6 -3.99999,4 -8,8 -12.3,12 -2,2 -5.79999,-1.7 -3.6,-3.7 4,-4 8.00001,-8 12.20001,-11.8 z"
       id="path6-2-6" />
  </g>
</svg>
