<?xml version="1.0" encoding="UTF-8" standalone="no"?>
<svg
   xmlns:dc="http://purl.org/dc/elements/1.1/"
   xmlns:cc="http://creativecommons.org/ns#"
   xmlns:rdf="http://www.w3.org/1999/02/22-rdf-syntax-ns#"
   xmlns:svg="http://www.w3.org/2000/svg"
   xmlns="http://www.w3.org/2000/svg"
   xmlns:sodipodi="http://sodipodi.sourceforge.net/DTD/sodipodi-0.dtd"
   xmlns:inkscape="http://www.inkscape.org/namespaces/inkscape"
   id="weather34 icon sleet"
   width="302pt"
   height="340"
   viewBox="0 0 302 255"
   version="1.1"
   sodipodi:docname="21.svg"
   inkscape:version="1.0.1 (3bc2e813f5, 2020-09-07)">
  <metadata
     id="metadata13">
    <rdf:RDF>
      <cc:Work
         rdf:about="">
        <dc:format>image/svg+xml</dc:format>
        <dc:type
           rdf:resource="http://purl.org/dc/dcmitype/StillImage" />
        <dc:title></dc:title>
      </cc:Work>
    </rdf:RDF>
  </metadata>
  <defs
     id="defs11" />
  <sodipodi:namedview
     pagecolor="#ffffff"
     bordercolor="#666666"
     borderopacity="1"
     objecttolerance="10"
     gridtolerance="10"
     guidetolerance="10"
     inkscape:pageopacity="0"
     inkscape:pageshadow="2"
     inkscape:window-width="1920"
     inkscape:window-height="1051"
     id="namedview9"
     showgrid="false"
     width="302px"
     inkscape:zoom="1.8301587"
     inkscape:cx="201.33333"
     inkscape:cy="170"
     inkscape:window-x="-9"
     inkscape:window-y="-9"
     inkscape:window-maximized="1"
     inkscape:current-layer="weather34 icon sleet" />
  <g
     id="g841"
     transform="translate(3,22.5)">
    <path
       fill="#e6e8ef"
       stroke="#e6e8ef"
       stroke-width="0.1"
       d="m 72.8,35.7 c 12,-14 31,-21 49.2,-19.5 18.3,1 36,11 45.7,26.7 11.5,-7.4 26.7,-8.5 39,-2.8 11,5 19.7,15.5 21,27.6 12.7,1.8 25,8.4 32.6,19 6.7,9 9.3,21 6.7,32.2 -2.8,12.5 -12,23 -23.4,28.6 -9.2,4.8 -19.7,5.8 -30,5.4 2.6,-2.6 5.6,-5 7.6,-8 0.5,-2.3 -3,-4.4 -4.5,-2.4 -3.8,3.3 -7,7 -10.7,10.4 h -13 c 0.8,-3.4 0.3,-7.2 -2,-10 -3.6,-4.4 -11,-5 -15.3,-1.4 -3.4,2.7 -4.7,7.3 -3.5,11.4 H 150 c 2.6,-2.7 5.5,-5 7.7,-8 0,-1.8 -1.6,-2.7 -2.7,-3.8 -4.6,3.5 -8.5,7.8 -12.7,11.8 h -14.2 c 2.2,-6.6 -3.2,-14 -10,-13.8 -7,-0.5 -13,7 -10.7,13.8 h -21 c 2.5,-2.5 5.3,-4.6 7.4,-7.4 1,-2 -1.2,-3.4 -2.7,-4.3 -4.2,3.7 -8.2,7.8 -12.2,11.7 -11.6,0.5 -23.5,-2 -33,-8.7 -9.8,-6.6 -17,-17.3 -18.5,-29.2 -1.2,-8.8 1,-18.2 5.8,-25.8 6.3,-10 16.5,-17 27.7,-20 -0.5,-12.2 4,-24.4 12,-33.5 m 116.5,49.6 c -6.6,2.3 -11.3,8.7 -11.5,15.7 -2.8,1.3 -5.7,2.6 -7.7,5 -3.3,4 -4,10 -1.4,14.3 2.8,5 8.7,8 14.3,7.7 h 47 c 8,0 16,-6.8 15,-15 -0.7,-6.7 -6.7,-11.2 -12.8,-12.5 -1,-3 -2.5,-6.3 -5.6,-8 -4.2,-2.7 -9.6,-2.2 -14,0 -5,-7.4 -15,-10.5 -23.4,-7.2 z"
       id="path2" />
    <path
       fill="#777777"
       stroke="#777777"
       stroke-width="0.1"
       d="m 189.2,85.3 c 8.3,-3.3 18.3,-0.2 23.4,7 4.4,-2 9.8,-2.5 14,0.2 3,1.7 4.5,5 5.6,8 6.2,1.3 12,5.8 12.7,12.4 1,8.2 -7,15 -15,15 h -47 c -5.7,0.2 -11.6,-2.6 -14.4,-7.7 -2.6,-4.4 -2,-10.4 1.4,-14.3 2,-2.4 5,-3.7 7.7,-5 0.2,-7 5,-13.5 11.5,-15.7 z"
       id="path4" />
    <path
       fill="#00a4b4"
       stroke="#00a4b4"
       stroke-width="0.1"
       d="m 107.3,153 c -2.3,-6.7 3.6,-14.3 10.6,-13.8 6.8,0 12.2,7.2 10,13.8 -1.5,4.5 -6,7.8 -11,7.4 -4.4,-0.2 -8.3,-3.3 -9.7,-7.4 z m 68.4,-11.4 c 4.3,-3.7 11.7,-3 15.3,1.5 2.3,2.8 2.8,6.6 2,10 -1.6,4.5 -6.2,7.8 -11,7.4 -4.4,-0.2 -8.3,-3.3 -9.8,-7.4 -1.2,-4 0,-8.7 3.5,-11.4 z M 78.8,153 c 4,-4 8,-8 12.2,-11.7 1.5,1 3.8,2.2 2.7,4.3 -2,2.8 -5,5 -7.3,7.4 -1.8,1.8 -3.5,3.7 -5.6,5.2 -3.3,1.4 -5,-3.6 -2,-5.2 z m 63.5,0 c 4.2,-4 8,-8.3 12.7,-11.8 1,1 2.7,2 2.7,3.8 -2.2,3 -5,5.3 -7.7,8 -2,1.8 -3.6,4 -6,5.4 -3.2,0.7 -4.6,-3.8 -1.7,-5.4 z m 74.4,-10.4 c 1.6,-2 5,0 4.5,2.4 -2,3 -5,5.4 -7.5,8 -2,1.8 -3.6,3.8 -5.8,5.3 -3.4,1 -5,-3.8 -2,-5.3 3.6,-3.4 7,-7 10.7,-10.4 z m -141.3,24 c 6.3,-3 14.5,1.5 15.2,8.5 1,6 -4.5,12 -10.6,12 -6,0.2 -11.4,-5 -11,-11 0,-4 2.7,-7.8 6.4,-9.4 z m 65,0 c 6.6,-3.2 15.2,2 15.2,9.4 0.3,6.6 -6.4,12 -12.8,10.7 -6,-0.8 -10.6,-7.7 -8.4,-13.6 1,-2.8 3.2,-5.2 6,-6.4 z m 70.1,0.1 c 6.2,-3.2 14.6,1.3 15.3,8.3 1,6.6 -5.3,12.8 -12,11.8 -6.2,-0.3 -11.2,-7.3 -9.2,-13.4 1,-3 3,-5.5 6,-6.7 z m -89.1,1.7 c 2.2,-2.5 6,1.5 3.7,3.7 -4,4 -7.8,8 -12,11.8 -2,2 -5.5,-1.5 -3.7,-3.5 3.8,-4.2 8,-8 12,-12 z m 63.8,-0.2 c 2,-2 5.7,1.5 3.7,3.6 -4,4 -8,8 -12.3,12 -2,2 -5.8,-1.7 -3.6,-3.7 4,-4 8,-8 12.2,-11.8 z"
       id="path6" />
  </g>
</svg>
