<?xml version="1.0" encoding="UTF-8" standalone="no"?>
<svg
   xmlns:dc="http://purl.org/dc/elements/1.1/"
   xmlns:cc="http://creativecommons.org/ns#"
   xmlns:rdf="http://www.w3.org/1999/02/22-rdf-syntax-ns#"
   xmlns:svg="http://www.w3.org/2000/svg"
   xmlns="http://www.w3.org/2000/svg"
   xmlns:sodipodi="http://sodipodi.sourceforge.net/DTD/sodipodi-0.dtd"
   xmlns:inkscape="http://www.inkscape.org/namespaces/inkscape"
   id="weather34 partly cloudy night"
   width="302pt"
   height="290pt"
   viewBox="0 0 302 290"
   version="1.1"
   sodipodi:docname="22.svg"
   inkscape:version="1.0.1 (3bc2e813f5, 2020-09-07)">
  <metadata
     id="metadata11">
    <rdf:RDF>
      <cc:Work
         rdf:about="">
        <dc:format>image/svg+xml</dc:format>
        <dc:type
           rdf:resource="http://purl.org/dc/dcmitype/StillImage" />
        <dc:title></dc:title>
      </cc:Work>
    </rdf:RDF>
  </metadata>
  <defs
     id="defs9" />
  <sodipodi:namedview
     pagecolor="#ffffff"
     bordercolor="#666666"
     borderopacity="1"
     objecttolerance="10"
     gridtolerance="10"
     guidetolerance="10"
     inkscape:pageopacity="0"
     inkscape:pageshadow="2"
     inkscape:window-width="1920"
     inkscape:window-height="1051"
     id="namedview7"
     showgrid="false"
     inkscape:zoom="1.8301587"
     inkscape:cx="201.33333"
     inkscape:cy="170"
     inkscape:window-x="-9"
     inkscape:window-y="-9"
     inkscape:window-maximized="1"
     inkscape:current-layer="weather34 partly cloudy night"
     inkscape:document-rotation="0" />
  <g
     id="g866"
     transform="translate(19.5,46.5)">
    <g
       id="g927"
       transform="translate(9.2252366,2.198313)">
      <path
         fill="#3b9cac"
         fill-rule="nonzero"
         d="m 83.539453,180.1875 v 1.99337 l 1.328905,-1.2797 0.935157,0.95976 -2.264062,2.16564 v 2.8793 l 2.510155,-1.45196 0.713672,-3.02694 1.304298,0.31991 -0.418361,1.77187 1.698048,-0.98437 0.664452,1.15665 -1.722657,1.00897 1.796486,0.5168 -0.369141,1.27969 -3.002342,-0.88594 -2.510155,1.42735 2.534764,1.45196 2.977733,-0.86133 0.369142,1.27969 -1.771875,0.51678 1.722656,0.98437 -0.689063,1.15664 -1.722655,-1.00898 0.442968,1.82109 -1.304298,0.31992 -0.71367,-3.05155 -2.510157,-1.45196 v 2.9039 l 2.264062,2.14101 -0.935155,0.98437 -1.328907,-1.27968 v 1.99337 h -1.353515 v -1.99337 l -1.328907,1.27968 -0.910545,-0.98437 2.239452,-2.1164 v -2.90389 l -2.485546,1.42734 -0.713672,3.05155 -1.304296,-0.31992 0.442969,-1.82109 -1.747264,1.00898 -0.664455,-1.15664 1.722657,-0.98437 -1.771875,-0.51678 0.369141,-1.2797 2.977734,0.86133 2.534764,-1.45195 -2.510157,-1.42736 -3.002341,0.88595 -0.369141,-1.2797 1.796482,-0.51679 -1.747264,-1.00898 0.664455,-1.15665 1.722654,0.98438 -0.418359,-1.77187 1.304296,-0.31991 0.713673,3.02694 2.485545,1.42734 v -2.87928 l -2.239452,-2.14104 0.910547,-0.95976 1.328905,1.25508 v -1.96875 z"
         id="path857"
         style="stroke-width:0.0246093" />
      <path
         fill="#3b9cac"
         fill-rule="nonzero"
         d="m 120.18242,129.08633 v 1.99337 l 1.32891,-1.2797 0.93515,0.95976 -2.26406,2.16564 v 2.8793 l 2.51016,-1.45196 0.71367,-3.02694 1.3043,0.31991 -0.41837,1.77187 1.69805,-0.98437 0.66445,1.15665 -1.72265,1.00897 1.79648,0.5168 -0.36914,1.27969 -3.00234,-0.88594 -2.51015,1.42735 2.53476,1.45196 2.97773,-0.86133 0.36914,1.27969 -1.77187,0.51678 1.72266,0.98437 -0.68907,1.15664 -1.72265,-1.00898 0.44296,1.82109 -1.30429,0.31992 -0.71367,-3.05155 -2.51016,-1.45196 v 2.9039 l 2.26406,2.14101 -0.93515,0.98437 -1.32891,-1.27968 v 1.99337 h -1.35352 v -1.99337 l -1.3289,1.27968 -0.91055,-0.98437 2.23945,-2.1164 v -2.90389 l -2.48554,1.42734 -0.71367,3.05155 -1.3043,-0.31992 0.44297,-1.82109 -1.74726,1.00898 -0.66446,-1.15664 1.72266,-0.98437 -1.77188,-0.51678 0.36914,-1.2797 2.97774,0.86133 2.53476,-1.45195 -2.51016,-1.42736 -3.00234,0.88595 -0.36914,-1.2797 1.79648,-0.51679 -1.74726,-1.00898 0.66446,-1.15665 1.72265,0.98438 -0.41836,-1.77187 1.3043,-0.31991 0.71367,3.02694 2.48554,1.42734 V 132.9008 L 116.58945,130.75976 117.5,129.8 l 1.3289,1.25508 v -1.96875 z"
         id="path857-9"
         style="stroke-width:0.0246093" />
      <path
         fill="#3b9cac"
         fill-rule="nonzero"
         d="m 142.69736,150.63852 v 1.99337 l 1.3289,-1.2797 0.93516,0.95976 -2.26406,2.16564 v 2.8793 l 2.51015,-1.45196 0.71367,-3.02694 1.3043,0.31991 -0.41836,1.77187 1.69805,-0.98437 0.66445,1.15665 -1.72266,1.00897 1.79649,0.5168 -0.36914,1.27969 -3.00234,-0.88594 -2.51016,1.42735 2.53476,1.45196 2.97774,-0.86133 0.36914,1.27969 -1.77188,0.51678 1.72266,0.98437 -0.68906,1.15664 -1.72266,-1.00898 0.44297,1.82109 -1.3043,0.31992 -0.71367,-3.05155 -2.51015,-1.45196 v 2.9039 l 2.26406,2.14101 -0.93516,0.98437 -1.3289,-1.27968 v 1.99337 h -1.35352 v -1.99337 l -1.32891,1.27968 -0.91054,-0.98437 2.23945,-2.1164 v -2.90389 l -2.48555,1.42734 -0.71367,3.05155 -1.30429,-0.31992 0.44297,-1.82109 -1.74727,1.00898 -0.66445,-1.15664 1.72265,-0.98437 -1.77187,-0.51678 0.36914,-1.2797 2.97773,0.86133 2.53477,-1.45195 -2.51016,-1.42736 -3.00234,0.88595 -0.36914,-1.2797 1.79648,-0.51679 -1.74726,-1.00898 0.66445,-1.15665 1.72266,0.98438 -0.41836,-1.77187 1.30429,-0.31991 0.71368,3.02694 2.48554,1.42734 v -2.87928 l -2.23945,-2.14104 0.91055,-0.95976 1.3289,1.25508 v -1.96875 z"
         id="path857-6"
         style="stroke-width:0.0246093" />
      <path
         fill="#3b9cac"
         fill-rule="nonzero"
         d="m 173.36133,130.52149 v 1.99337 l 1.3289,-1.2797 0.93516,0.95976 -2.26406,2.16564 v 2.8793 l 2.51015,-1.45196 0.71367,-3.02694 1.3043,0.31991 -0.41836,1.77187 1.69805,-0.98437 0.66445,1.15665 -1.72266,1.00897 1.79649,0.5168 -0.36914,1.27969 -3.00234,-0.88594 -2.51016,1.42735 2.53477,1.45196 2.97773,-0.86133 0.36914,1.27969 -1.77187,0.51678 1.72265,0.98437 -0.68906,1.15664 -1.72266,-1.00898 0.44297,1.82109 -1.3043,0.31992 -0.71367,-3.05155 -2.51015,-1.45196 v 2.9039 l 2.26406,2.14101 -0.93516,0.98437 -1.3289,-1.27968 v 1.99337 h -1.35352 v -1.99337 l -1.32891,1.27968 -0.91054,-0.98437 2.23945,-2.1164 v -2.90389 l -2.48554,1.42734 -0.71368,3.05155 -1.30429,-0.31992 0.44297,-1.82109 L 166.2,142.9 l -0.66445,-1.15664 1.72265,-0.98437 -1.77187,-0.51678 0.36914,-1.2797 2.97773,0.86133 2.53477,-1.45195 -2.51016,-1.42736 -3.00234,0.88595 -0.36914,-1.2797 1.79648,-0.51679 -1.74726,-1.00898 0.66445,-1.15665 1.72266,0.98438 -0.41836,-1.77187 1.30429,-0.31991 0.71368,3.02694 2.48554,1.42734 v -2.87928 l -2.23945,-2.14104 0.91055,-0.95976 1.3289,1.25508 v -1.96875 z"
         id="path857-2"
         style="stroke-width:0.0246093" />
      <path
         fill="#3b9cac"
         fill-rule="nonzero"
         d="m 190.2708,178.23605 v 1.99337 l 1.32891,-1.2797 0.93515,0.95976 -2.26406,2.16564 v 2.8793 l 2.51016,-1.45196 0.71367,-3.02694 1.3043,0.31991 -0.41837,1.77187 1.69805,-0.98437 0.66445,1.15665 -1.72265,1.00897 1.79648,0.5168 -0.36914,1.27969 -3.00234,-0.88594 -2.51015,1.42735 2.53476,1.45196 2.97773,-0.86133 0.36914,1.27969 -1.77187,0.51678 1.72266,0.98437 -0.68907,1.15664 -1.72265,-1.00898 0.44297,1.82109 -1.3043,0.31992 -0.71367,-3.05155 -2.51016,-1.45196 v 2.9039 l 2.26406,2.14101 -0.93515,0.98437 -1.32891,-1.27968 v 1.99337 h -1.35351 v -1.99337 l -1.32891,1.27968 -0.91055,-0.98437 2.23946,-2.1164 v -2.90389 l -2.48555,1.42734 -0.71367,3.05155 -1.3043,-0.31992 0.44297,-1.82109 -1.74726,1.00898 -0.66446,-1.15664 1.72266,-0.98437 -1.77188,-0.51678 0.36914,-1.2797 2.97774,0.86133 2.53476,-1.45195 -2.51015,-1.42736 -3.00235,0.88595 -0.36914,-1.2797 1.79649,-0.51679 -1.74727,-1.00898 0.66446,-1.15665 1.72265,0.98438 -0.41836,-1.77187 1.3043,-0.31991 0.71367,3.02694 2.48555,1.42734 v -2.87928 l -2.23946,-2.14104 0.91055,-0.95976 1.32891,1.25508 v -1.96875 z"
         id="path857-64"
         style="stroke-width:0.0246093" />
      <path
         fill="#3b9cac"
         fill-rule="nonzero"
         d="m 135.37186,179.97048 v 1.99337 l 1.3289,-1.2797 0.93516,0.95976 -2.26406,2.16564 v 2.8793 l 2.51015,-1.45196 0.71367,-3.02694 1.3043,0.31991 -0.41836,1.77187 1.69805,-0.98437 0.66445,1.15665 -1.72266,1.00897 1.79649,0.5168 -0.36914,1.27969 -3.00234,-0.88594 -2.51016,1.42735 2.53477,1.45196 2.97773,-0.86133 0.36914,1.27969 -1.77187,0.51678 1.72265,0.98437 -0.68906,1.15664 -1.72266,-1.00898 0.44297,1.82109 -1.3043,0.31992 -0.71367,-3.05155 -2.51015,-1.45196 v 2.9039 l 2.26406,2.14101 -0.93516,0.98437 -1.3289,-1.27968 v 1.99337 h -1.35352 v -1.99337 l -1.3289,1.27968 -0.91055,-0.98437 2.23945,-2.1164 v -2.90389 l -2.48554,1.42734 -0.71368,3.05155 -1.30429,-0.31992 0.44297,-1.82109 -1.74727,1.00898 -0.66445,-1.15664 1.72266,-0.98437 -1.77188,-0.51678 0.36914,-1.2797 2.97774,0.86133 2.53476,-1.45195 -2.51016,-1.42736 -3.00234,0.88595 -0.36914,-1.2797 1.79648,-0.51679 -1.74726,-1.00898 0.66445,-1.15665 1.72266,0.98438 -0.41836,-1.77187 1.30429,-0.31991 0.71368,3.02694 2.48554,1.42734 v -2.87928 l -2.23945,-2.14104 0.91055,-0.95976 1.3289,1.25508 v -1.96875 z"
         id="path857-20"
         style="stroke-width:0.0246093" />
    </g>
    <g
       id="g1410"
       transform="matrix(1.0059034,0,0,0.97627593,-19.415933,-37.159225)">
      <path
         fill="#f05e40"
         stroke="#f05e40"
         stroke-width="0.0562498"
         d="m 67.312295,32.745443 c 10.51875,4.5 19.518752,12.937499 24.187502,23.456245 4.387499,9.9 5.062499,21.54375 1.6875,31.95 -3.20625,9.73125 -9.787502,18.337492 -18.450002,23.849992 -7.48125,4.8375 -16.48125,7.425 -25.425,7.0875 -11.700003,-0.1125 -23.062503,-5.34375 -31.162503,-13.725 -1.40625,-1.40625 -2.5875,-3.09375 -3.9375,-4.5 0,-0.3375 0.16875,-0.56249 0.225,-0.84374 l 0.3375,0.56249 c 6.01875,2.1375 12.375,3.375 18.73125,2.7 12.15,-0.5625 23.906253,-6.749992 31.500003,-16.199992 5.34375,-6.35625 8.83125,-14.2875 9.9,-22.5 1.29375,-9.562496 -0.5625,-19.349995 -5.23125,-27.731245 -0.675,-1.40625 -1.8,-2.53125 -2.3625,-4.10625 z"
         id="path2-5" />
      <path
         fill="#e6e8ef"
         opacity="1"
         stroke-width="1"
         stroke="#e6e8ef"
         d="m 129.08591,56.348864 c 19.72,-2.53 40.57,5.63 52.99,21.229996 1.29,1.560003 2.21,3.400003 3.65,4.840003 13.07,-8.060003 30.61,-8.470003 43.67,-0.21 8.73,5.4 14.74,14.71 16.23,24.839997 13.21,2.26 26.07,9.17 33.48,20.61 7.94,11.47 9.09,27.35 2.58,39.73 -6.37,12.25 -18.76,20.79 -32.13,23.62 -5.11,1.16 -10.38,1.23 -15.59,1.21 -47.01,0 -94.01,0.05 -141.019999,0.05 -13.29,0.21 -26.7,-4.96 -35.99,-14.54 -5.15,-5.63 -9.32,-12.36 -10.9,-19.89 -1.62,-5.32 -1.01,-10.95 -0.2,-16.35 2.63,-13.11 12.47,-23.97 24.38,-29.56 2.63,-1.3 5.52,-2.06 7.97,-3.7 0.71,-3.89 0.69,-7.88 1.66,-11.729997 2.22,-9.11 7.04,-17.590003 13.78,-24.120003 5.77,-5.44 12.699999,-9.539996 19.999999,-12.569996 5.04,-1.55 10.12,-3.23 15.44,-3.46 z"
         id="path848" />
    </g>
  </g>
</svg>
