<?xml version="1.0" encoding="UTF-8" standalone="no"?>
<svg
   xmlns:dc="http://purl.org/dc/elements/1.1/"
   xmlns:cc="http://creativecommons.org/ns#"
   xmlns:rdf="http://www.w3.org/1999/02/22-rdf-syntax-ns#"
   xmlns:svg="http://www.w3.org/2000/svg"
   xmlns="http://www.w3.org/2000/svg"
   xmlns:sodipodi="http://sodipodi.sourceforge.net/DTD/sodipodi-0.dtd"
   xmlns:inkscape="http://www.inkscape.org/namespaces/inkscape"
   id="weather34 cloudy icon"
   width="302pt"
   height="340"
   viewBox="0 0 302 255"
   version="1.1"
   sodipodi:docname="24.svg"
   inkscape:version="1.0.1 (3bc2e813f5, 2020-09-07)">
  <metadata
     id="metadata11">
    <rdf:RDF>
      <cc:Work
         rdf:about="">
        <dc:format>image/svg+xml</dc:format>
        <dc:type
           rdf:resource="http://purl.org/dc/dcmitype/StillImage" />
        <dc:title></dc:title>
      </cc:Work>
    </rdf:RDF>
  </metadata>
  <defs
     id="defs9" />
  <sodipodi:namedview
     pagecolor="#ffffff"
     bordercolor="#666666"
     borderopacity="1"
     objecttolerance="10"
     gridtolerance="10"
     guidetolerance="10"
     inkscape:pageopacity="0"
     inkscape:pageshadow="2"
     inkscape:window-width="1920"
     inkscape:window-height="1051"
     id="namedview7"
     showgrid="false"
     inkscape:zoom="1.8301587"
     inkscape:cx="201.33333"
     inkscape:cy="170"
     inkscape:window-x="-9"
     inkscape:window-y="-9"
     inkscape:window-maximized="1"
     inkscape:current-layer="weather34 cloudy icon"
     inkscape:document-rotation="0"
     width="302px" />
  <g
     id="g847"
     transform="translate(3,18)">
    <path
       fill="#e6e8ef"
       stroke="#e6e8ef"
       stroke-width="0.1"
       d="m 73.2,35.2 c 12,-13.6 31,-20.4 49,-19 18,1 36,11 45.5,26.7 15.2,-10 36.8,-8.2 49.8,4.5 5.6,5.3 9.2,12.6 10,20.3 14.3,2 27.8,10 35,22.5 6.5,10.8 7.3,24.7 2,36 C 257,143 239,153 221,153 H 74 C 58.8,153 43.5,145.8 34.6,133.4 28,124.2 25.3,112 28,101 32,85.3 45.4,73.3 60.7,69.2 60.2,56.8 64.9,44.4 73.2,35.2 m 114,51 c -5.7,2.7 -9.2,8.6 -9.5,14.8 -3,1.3 -6,2.8 -8,5.5 -3.6,4.5 -3.5,11.3 0,15.7 3.4,4.2 9,6 14.2,5.8 h 45 c 3.6,0 7.2,-0.8 10,-3 5.2,-3.2 7.6,-10.3 5,-16 -2,-4.7 -7,-7.3 -11.8,-8.5 -1,-2.8 -2.3,-6 -5,-7.6 -4.3,-3.2 -10,-2.8 -14.6,-0.6 -5.5,-8 -17,-10.8 -25.4,-6.2 z"
       id="path2" />
    <path
       fill="#777777"
       stroke="#777777"
       stroke-width="0.1"
       d="m 187.2,86.2 c 8.5,-4.6 20,-1.8 25.4,6.2 4.5,-2.2 10.3,-2.6 14.5,0.5 3,1.6 4,4.7 5.2,7.5 4.8,1.2 9.7,3.8 11.7,8.6 2.6,5.7 0.2,12.8 -5,16 -2.8,2.2 -6.4,3 -10,3 h -45 c -5.3,0.3 -11,-1.6 -14.2,-5.8 -3.6,-4.4 -3.7,-11.2 -0.2,-15.7 2,-2.7 5,-4.2 8,-5.5 0.4,-6.2 4,-12 9.6,-14.8 z"
       id="path4" />
    <g
       id="g927"
       transform="translate(12.412739,1.908538)">
      <path
         fill="#3b9cac"
         fill-rule="nonzero"
         d="m 83.539453,180.1875 v 1.99337 l 1.328905,-1.2797 0.935157,0.95976 -2.264062,2.16564 v 2.8793 l 2.510155,-1.45196 0.713672,-3.02694 1.304298,0.31991 -0.418361,1.77187 1.698048,-0.98437 0.664452,1.15665 -1.722657,1.00897 1.796486,0.5168 -0.369141,1.27969 -3.002342,-0.88594 -2.510155,1.42735 2.534764,1.45196 2.977733,-0.86133 0.369142,1.27969 -1.771875,0.51678 1.722656,0.98437 -0.689063,1.15664 -1.722655,-1.00898 0.442968,1.82109 -1.304298,0.31992 -0.71367,-3.05155 -2.510157,-1.45196 v 2.9039 l 2.264062,2.14101 -0.935155,0.98437 -1.328907,-1.27968 v 1.99337 h -1.353515 v -1.99337 l -1.328907,1.27968 -0.910545,-0.98437 2.239452,-2.1164 v -2.90389 l -2.485546,1.42734 -0.713672,3.05155 -1.304296,-0.31992 0.442969,-1.82109 -1.747264,1.00898 -0.664455,-1.15664 1.722657,-0.98437 -1.771875,-0.51678 0.369141,-1.2797 2.977734,0.86133 2.534764,-1.45195 -2.510157,-1.42736 -3.002341,0.88595 -0.369141,-1.2797 1.796482,-0.51679 -1.747264,-1.00898 0.664455,-1.15665 1.722654,0.98438 -0.418359,-1.77187 1.304296,-0.31991 0.713673,3.02694 2.485545,1.42734 v -2.87928 l -2.239452,-2.14104 0.910547,-0.95976 1.328905,1.25508 v -1.96875 z"
         id="path857"
         style="stroke-width:0.0246093" />
      <path
         fill="#3b9cac"
         fill-rule="nonzero"
         d="m 120.18242,129.08633 v 1.99337 l 1.32891,-1.2797 0.93515,0.95976 -2.26406,2.16564 v 2.8793 l 2.51016,-1.45196 0.71367,-3.02694 1.3043,0.31991 -0.41837,1.77187 1.69805,-0.98437 0.66445,1.15665 -1.72265,1.00897 1.79648,0.5168 -0.36914,1.27969 -3.00234,-0.88594 -2.51015,1.42735 2.53476,1.45196 2.97773,-0.86133 0.36914,1.27969 -1.77187,0.51678 1.72266,0.98437 -0.68907,1.15664 -1.72265,-1.00898 0.44296,1.82109 -1.30429,0.31992 -0.71367,-3.05155 -2.51016,-1.45196 v 2.9039 l 2.26406,2.14101 -0.93515,0.98437 -1.32891,-1.27968 v 1.99337 h -1.35352 v -1.99337 l -1.3289,1.27968 -0.91055,-0.98437 2.23945,-2.1164 v -2.90389 l -2.48554,1.42734 -0.71367,3.05155 -1.3043,-0.31992 0.44297,-1.82109 -1.74726,1.00898 -0.66446,-1.15664 1.72266,-0.98437 -1.77188,-0.51678 0.36914,-1.2797 2.97774,0.86133 2.53476,-1.45195 -2.51016,-1.42736 -3.00234,0.88595 -0.36914,-1.2797 1.79648,-0.51679 -1.74726,-1.00898 0.66446,-1.15665 1.72265,0.98438 -0.41836,-1.77187 1.3043,-0.31991 0.71367,3.02694 2.48554,1.42734 V 132.9008 L 116.58945,130.75976 117.5,129.8 l 1.3289,1.25508 v -1.96875 z"
         id="path857-9"
         style="stroke-width:0.0246093" />
      <path
         fill="#3b9cac"
         fill-rule="nonzero"
         d="m 142.69736,150.63852 v 1.99337 l 1.3289,-1.2797 0.93516,0.95976 -2.26406,2.16564 v 2.8793 l 2.51015,-1.45196 0.71367,-3.02694 1.3043,0.31991 -0.41836,1.77187 1.69805,-0.98437 0.66445,1.15665 -1.72266,1.00897 1.79649,0.5168 -0.36914,1.27969 -3.00234,-0.88594 -2.51016,1.42735 2.53476,1.45196 2.97774,-0.86133 0.36914,1.27969 -1.77188,0.51678 1.72266,0.98437 -0.68906,1.15664 -1.72266,-1.00898 0.44297,1.82109 -1.3043,0.31992 -0.71367,-3.05155 -2.51015,-1.45196 v 2.9039 l 2.26406,2.14101 -0.93516,0.98437 -1.3289,-1.27968 v 1.99337 h -1.35352 v -1.99337 l -1.32891,1.27968 -0.91054,-0.98437 2.23945,-2.1164 v -2.90389 l -2.48555,1.42734 -0.71367,3.05155 -1.30429,-0.31992 0.44297,-1.82109 -1.74727,1.00898 -0.66445,-1.15664 1.72265,-0.98437 -1.77187,-0.51678 0.36914,-1.2797 2.97773,0.86133 2.53477,-1.45195 -2.51016,-1.42736 -3.00234,0.88595 -0.36914,-1.2797 1.79648,-0.51679 -1.74726,-1.00898 0.66445,-1.15665 1.72266,0.98438 -0.41836,-1.77187 1.30429,-0.31991 0.71368,3.02694 2.48554,1.42734 v -2.87928 l -2.23945,-2.14104 0.91055,-0.95976 1.3289,1.25508 v -1.96875 z"
         id="path857-6"
         style="stroke-width:0.0246093" />
      <path
         fill="#3b9cac"
         fill-rule="nonzero"
         d="m 173.36133,130.52149 v 1.99337 l 1.3289,-1.2797 0.93516,0.95976 -2.26406,2.16564 v 2.8793 l 2.51015,-1.45196 0.71367,-3.02694 1.3043,0.31991 -0.41836,1.77187 1.69805,-0.98437 0.66445,1.15665 -1.72266,1.00897 1.79649,0.5168 -0.36914,1.27969 -3.00234,-0.88594 -2.51016,1.42735 2.53477,1.45196 2.97773,-0.86133 0.36914,1.27969 -1.77187,0.51678 1.72265,0.98437 -0.68906,1.15664 -1.72266,-1.00898 0.44297,1.82109 -1.3043,0.31992 -0.71367,-3.05155 -2.51015,-1.45196 v 2.9039 l 2.26406,2.14101 -0.93516,0.98437 -1.3289,-1.27968 v 1.99337 h -1.35352 v -1.99337 l -1.32891,1.27968 -0.91054,-0.98437 2.23945,-2.1164 v -2.90389 l -2.48554,1.42734 -0.71368,3.05155 -1.30429,-0.31992 0.44297,-1.82109 L 166.2,142.9 l -0.66445,-1.15664 1.72265,-0.98437 -1.77187,-0.51678 0.36914,-1.2797 2.97773,0.86133 2.53477,-1.45195 -2.51016,-1.42736 -3.00234,0.88595 -0.36914,-1.2797 1.79648,-0.51679 -1.74726,-1.00898 0.66445,-1.15665 1.72266,0.98438 -0.41836,-1.77187 1.30429,-0.31991 0.71368,3.02694 2.48554,1.42734 v -2.87928 l -2.23945,-2.14104 0.91055,-0.95976 1.3289,1.25508 v -1.96875 z"
         id="path857-2"
         style="stroke-width:0.0246093" />
      <path
         fill="#3b9cac"
         fill-rule="nonzero"
         d="m 190.2708,178.23605 v 1.99337 l 1.32891,-1.2797 0.93515,0.95976 -2.26406,2.16564 v 2.8793 l 2.51016,-1.45196 0.71367,-3.02694 1.3043,0.31991 -0.41837,1.77187 1.69805,-0.98437 0.66445,1.15665 -1.72265,1.00897 1.79648,0.5168 -0.36914,1.27969 -3.00234,-0.88594 -2.51015,1.42735 2.53476,1.45196 2.97773,-0.86133 0.36914,1.27969 -1.77187,0.51678 1.72266,0.98437 -0.68907,1.15664 -1.72265,-1.00898 0.44297,1.82109 -1.3043,0.31992 -0.71367,-3.05155 -2.51016,-1.45196 v 2.9039 l 2.26406,2.14101 -0.93515,0.98437 -1.32891,-1.27968 v 1.99337 h -1.35351 v -1.99337 l -1.32891,1.27968 -0.91055,-0.98437 2.23946,-2.1164 v -2.90389 l -2.48555,1.42734 -0.71367,3.05155 -1.3043,-0.31992 0.44297,-1.82109 -1.74726,1.00898 -0.66446,-1.15664 1.72266,-0.98437 -1.77188,-0.51678 0.36914,-1.2797 2.97774,0.86133 2.53476,-1.45195 -2.51015,-1.42736 -3.00235,0.88595 -0.36914,-1.2797 1.79649,-0.51679 -1.74727,-1.00898 0.66446,-1.15665 1.72265,0.98438 -0.41836,-1.77187 1.3043,-0.31991 0.71367,3.02694 2.48555,1.42734 v -2.87928 l -2.23946,-2.14104 0.91055,-0.95976 1.32891,1.25508 v -1.96875 z"
         id="path857-64"
         style="stroke-width:0.0246093" />
      <path
         fill="#3b9cac"
         fill-rule="nonzero"
         d="m 135.37186,179.97048 v 1.99337 l 1.3289,-1.2797 0.93516,0.95976 -2.26406,2.16564 v 2.8793 l 2.51015,-1.45196 0.71367,-3.02694 1.3043,0.31991 -0.41836,1.77187 1.69805,-0.98437 0.66445,1.15665 -1.72266,1.00897 1.79649,0.5168 -0.36914,1.27969 -3.00234,-0.88594 -2.51016,1.42735 2.53477,1.45196 2.97773,-0.86133 0.36914,1.27969 -1.77187,0.51678 1.72265,0.98437 -0.68906,1.15664 -1.72266,-1.00898 0.44297,1.82109 -1.3043,0.31992 -0.71367,-3.05155 -2.51015,-1.45196 v 2.9039 l 2.26406,2.14101 -0.93516,0.98437 -1.3289,-1.27968 v 1.99337 h -1.35352 v -1.99337 l -1.3289,1.27968 -0.91055,-0.98437 2.23945,-2.1164 v -2.90389 l -2.48554,1.42734 -0.71368,3.05155 -1.30429,-0.31992 0.44297,-1.82109 -1.74727,1.00898 -0.66445,-1.15664 1.72266,-0.98437 -1.77188,-0.51678 0.36914,-1.2797 2.97774,0.86133 2.53476,-1.45195 -2.51016,-1.42736 -3.00234,0.88595 -0.36914,-1.2797 1.79648,-0.51679 -1.74726,-1.00898 0.66445,-1.15665 1.72266,0.98438 -0.41836,-1.77187 1.30429,-0.31991 0.71368,3.02694 2.48554,1.42734 v -2.87928 l -2.23945,-2.14104 0.91055,-0.95976 1.3289,1.25508 v -1.96875 z"
         id="path857-20"
         style="stroke-width:0.0246093" />
    </g>
  </g>
</svg>
