<?xml version="1.0" encoding="UTF-8" standalone="no"?>
<svg
   xmlns:dc="http://purl.org/dc/elements/1.1/"
   xmlns:cc="http://creativecommons.org/ns#"
   xmlns:rdf="http://www.w3.org/1999/02/22-rdf-syntax-ns#"
   xmlns:svg="http://www.w3.org/2000/svg"
   xmlns="http://www.w3.org/2000/svg"
   xmlns:sodipodi="http://sodipodi.sourceforge.net/DTD/sodipodi-0.dtd"
   xmlns:inkscape="http://www.inkscape.org/namespaces/inkscape"
   width="302pt"
   height="290pt"
   viewBox="0 0 302 290"
   version="1.1"
   id="svg11"
   sodipodi:docname="26.svg"
   inkscape:version="1.0.1 (3bc2e813f5, 2020-09-07)">
  <metadata
     id="metadata17">
    <rdf:RDF>
      <cc:Work
         rdf:about="">
        <dc:format>image/svg+xml</dc:format>
        <dc:type
           rdf:resource="http://purl.org/dc/dcmitype/StillImage" />
        <dc:title></dc:title>
      </cc:Work>
    </rdf:RDF>
  </metadata>
  <defs
     id="defs15" />
  <sodipodi:namedview
     pagecolor="#ffffff"
     bordercolor="#666666"
     borderopacity="1"
     objecttolerance="10"
     gridtolerance="10"
     guidetolerance="10"
     inkscape:pageopacity="0"
     inkscape:pageshadow="2"
     inkscape:window-width="1920"
     inkscape:window-height="1051"
     id="namedview13"
     showgrid="false"
     inkscape:zoom="1.8301587"
     inkscape:cx="201.33333"
     inkscape:cy="170"
     inkscape:window-x="-9"
     inkscape:window-y="-9"
     inkscape:window-maximized="1"
     inkscape:current-layer="svg11"
     inkscape:document-rotation="0" />
  <g
     id="g863"
     transform="translate(3,33)">
    <g
       id="#e4e3e3ff">
      <path
         fill="#e6e8ef"
         opacity="1"
         d="m 68.14,41.82 c 9.31,-14.48 25.67,-24.01 42.76,-25.5 21.93,-2.56 45.2,7.66 56.94,26.61 8.65,-5.39 19.28,-7.6 29.32,-5.65 12.55,2.07 24.2,10.72 28.57,22.85 1.1,2.5 1.11,5.35 2.17,7.84 13.58,1.91 26.57,9.42 33.93,21.14 7.13,10.96 8.14,25.63 2.58,37.45 -6.07,12.84 -18.55,22.03 -32.28,25.14 -4.61,1.15 -9.4,1.27 -14.13,1.35 -47.65,-0.02 -95.3,0.03 -142.96,-0.02 -12.72,0.12 -25.53,-4.54 -34.84,-13.28 -7.6,-7.14 -12.89,-17.12 -13.13,-27.68 -0.45,-7.96 1.81,-15.91 5.94,-22.69 6.05,-10.01 16.39,-16.62 27.34,-20.15 0.28,-9.6 2.59,-19.25 7.79,-27.41 m 118.14,44.47 c -5.32,2.54 -8.15,8.17 -9.01,13.76 -3.7,2.92 -8.57,5.04 -10.08,9.98 -0.45,3.76 -1,8.15 1.49,11.35 2.64,3.61 6.74,6.67 11.38,6.65 16.99,-0.03 33.97,-0.07 50.95,0.01 4.71,0.21 9.02,-2.74 11.82,-6.32 4.4,-5.76 2.38,-14.91 -3.75,-18.64 -2.55,-1.95 -6.79,-1.72 -7.73,-5.36 -2.79,-7.1 -12.12,-9.27 -18.5,-5.74 -3.12,-3.63 -7.02,-6.87 -11.83,-7.84 -4.97,-0.45 -10.4,-0.81 -14.74,2.15 z"
         id="path2" />
    </g>
    <g
       id="#ff8841ff">
      <path
         fill="#d05f2d"
         opacity="1"
         d="M 33.01,89.38 C 33.8,68.36 48.36,48.84 68.14,41.82 62.94,49.98 60.63,59.63 60.35,69.23 49.4,72.76 39.06,79.37 33.01,89.38 Z"
         id="path5" />
    </g>
    <g
       id="#aca6a6ff">
      <path
         fill="#777777"
         opacity="1"
         d="m 186.28,86.29 c 4.34,-2.96 9.77,-2.6 14.74,-2.15 4.81,0.97 8.71,4.21 11.83,7.84 6.38,-3.53 15.71,-1.36 18.5,5.74 0.94,3.64 5.18,3.41 7.73,5.36 6.13,3.73 8.15,12.88 3.75,18.64 -2.8,3.58 -7.11,6.53 -11.82,6.32 -16.98,-0.08 -33.96,-0.04 -50.95,-0.01 -4.64,0.02 -8.74,-3.04 -11.38,-6.65 -2.49,-3.2 -1.94,-7.59 -1.49,-11.35 1.51,-4.94 6.38,-7.06 10.08,-9.98 0.86,-5.59 3.69,-11.22 9.01,-13.76 z"
         id="path8" />
    </g>
    <g
       id="g1461"
       transform="translate(9.8191885,2.522179)">
      <path
         fill="#3b9cac"
         fill-rule="nonzero"
         d="m 83.539453,180.1875 v 1.99337 l 1.328905,-1.2797 0.935157,0.95976 -2.264062,2.16564 v 2.8793 l 2.510155,-1.45196 0.713672,-3.02694 1.304298,0.31991 -0.418361,1.77187 1.698048,-0.98437 0.664452,1.15665 -1.722657,1.00897 1.796486,0.5168 -0.369141,1.27969 -3.002342,-0.88594 -2.510155,1.42735 2.534764,1.45196 2.977733,-0.86133 0.369142,1.27969 -1.771875,0.51678 1.722656,0.98437 -0.689063,1.15664 -1.722655,-1.00898 0.442968,1.82109 -1.304298,0.31992 -0.71367,-3.05155 -2.510157,-1.45196 v 2.9039 l 2.264062,2.14101 -0.935155,0.98437 -1.328907,-1.27968 v 1.99337 h -1.353515 v -1.99337 l -1.328907,1.27968 -0.910545,-0.98437 2.239452,-2.1164 v -2.90389 l -2.485546,1.42734 -0.713672,3.05155 -1.304296,-0.31992 0.442969,-1.82109 -1.747264,1.00898 -0.664455,-1.15664 1.722657,-0.98437 -1.771875,-0.51678 0.369141,-1.2797 2.977734,0.86133 2.534764,-1.45195 -2.510157,-1.42736 -3.002341,0.88595 -0.369141,-1.2797 1.796482,-0.51679 -1.747264,-1.00898 0.664455,-1.15665 1.722654,0.98438 -0.418359,-1.77187 1.304296,-0.31991 0.713673,3.02694 2.485545,1.42734 v -2.87928 l -2.239452,-2.14104 0.910547,-0.95976 1.328905,1.25508 v -1.96875 z"
         id="path857"
         style="stroke-width:0.0246093" />
      <path
         fill="#3b9cac"
         fill-rule="nonzero"
         d="m 91.671875,152.00938 v 1.99337 l 1.328905,-1.2797 0.935157,0.95976 -2.264062,2.16564 v 2.8793 l 2.510155,-1.45196 0.713672,-3.02694 1.304298,0.31991 -0.418361,1.77187 1.698048,-0.98437 0.664452,1.15665 -1.722657,1.00897 1.796486,0.5168 -0.369141,1.27969 -3.002342,-0.88594 -2.510155,1.42735 2.534764,1.45196 2.977733,-0.86133 0.369142,1.27969 -1.771875,0.51678 1.722656,0.98437 -0.689063,1.15664 -1.722655,-1.00898 L 96.2,165.2 l -1.304298,0.31992 -0.71367,-3.05155 -2.510157,-1.45196 v 2.9039 l 2.264062,2.14101 -0.935155,0.98437 -1.328907,-1.27968 v 1.99337 H 90.31836 v -1.99337 l -1.328907,1.27968 -0.910545,-0.98437 2.239452,-2.1164 v -2.90389 l -2.485546,1.42734 -0.713672,3.05155 -1.304296,-0.31992 0.442969,-1.82109 -1.747264,1.00898 -0.664455,-1.15664 1.722657,-0.98437 -1.771875,-0.51678 0.369141,-1.2797 2.977734,0.86133 2.534764,-1.45195 -2.510157,-1.42736 -3.002341,0.88595 -0.369141,-1.2797 1.796482,-0.51679 -1.747264,-1.00898 0.664455,-1.15665 1.722654,0.98438 -0.418359,-1.77187 1.304296,-0.31991 0.713673,3.02694 2.485545,1.42734 v -2.87928 l -2.239452,-2.14104 0.910547,-0.95976 1.328905,1.25508 v -1.96875 z"
         id="path857-5"
         style="stroke-width:0.0246093" />
      <path
         fill="#3b9cac"
         fill-rule="nonzero"
         d="m 120.18242,129.08633 v 1.99337 l 1.32891,-1.2797 0.93515,0.95976 -2.26406,2.16564 v 2.8793 l 2.51016,-1.45196 0.71367,-3.02694 1.3043,0.31991 -0.41837,1.77187 1.69805,-0.98437 0.66445,1.15665 -1.72265,1.00897 1.79648,0.5168 -0.36914,1.27969 -3.00234,-0.88594 -2.51015,1.42735 2.53476,1.45196 2.97773,-0.86133 0.36914,1.27969 -1.77187,0.51678 1.72266,0.98437 -0.68907,1.15664 -1.72265,-1.00898 0.44296,1.82109 -1.30429,0.31992 -0.71367,-3.05155 -2.51016,-1.45196 v 2.9039 l 2.26406,2.14101 -0.93515,0.98437 -1.32891,-1.27968 v 1.99337 h -1.35352 v -1.99337 l -1.3289,1.27968 -0.91055,-0.98437 2.23945,-2.1164 v -2.90389 l -2.48554,1.42734 -0.71367,3.05155 -1.3043,-0.31992 0.44297,-1.82109 -1.74726,1.00898 -0.66446,-1.15664 1.72266,-0.98437 -1.77188,-0.51678 0.36914,-1.2797 2.97774,0.86133 2.53476,-1.45195 -2.51016,-1.42736 -3.00234,0.88595 -0.36914,-1.2797 1.79648,-0.51679 -1.74726,-1.00898 0.66446,-1.15665 1.72265,0.98438 -0.41836,-1.77187 1.3043,-0.31991 0.71367,3.02694 2.48554,1.42734 V 132.9008 L 116.58945,130.75976 117.5,129.8 l 1.3289,1.25508 v -1.96875 z"
         id="path857-9"
         style="stroke-width:0.0246093" />
      <path
         fill="#3b9cac"
         fill-rule="nonzero"
         d="m 142.69736,150.63852 v 1.99337 l 1.3289,-1.2797 0.93516,0.95976 -2.26406,2.16564 v 2.8793 l 2.51015,-1.45196 0.71367,-3.02694 1.3043,0.31991 -0.41836,1.77187 1.69805,-0.98437 0.66445,1.15665 -1.72266,1.00897 1.79649,0.5168 -0.36914,1.27969 -3.00234,-0.88594 -2.51016,1.42735 2.53476,1.45196 2.97774,-0.86133 0.36914,1.27969 -1.77188,0.51678 1.72266,0.98437 -0.68906,1.15664 -1.72266,-1.00898 0.44297,1.82109 -1.3043,0.31992 -0.71367,-3.05155 -2.51015,-1.45196 v 2.9039 l 2.26406,2.14101 -0.93516,0.98437 -1.3289,-1.27968 v 1.99337 h -1.35352 v -1.99337 l -1.32891,1.27968 -0.91054,-0.98437 2.23945,-2.1164 v -2.90389 l -2.48555,1.42734 -0.71367,3.05155 -1.30429,-0.31992 0.44297,-1.82109 -1.74727,1.00898 -0.66445,-1.15664 1.72265,-0.98437 -1.77187,-0.51678 0.36914,-1.2797 2.97773,0.86133 2.53477,-1.45195 -2.51016,-1.42736 -3.00234,0.88595 -0.36914,-1.2797 1.79648,-0.51679 -1.74726,-1.00898 0.66445,-1.15665 1.72266,0.98438 -0.41836,-1.77187 1.30429,-0.31991 0.71368,3.02694 2.48554,1.42734 v -2.87928 l -2.23945,-2.14104 0.91055,-0.95976 1.3289,1.25508 v -1.96875 z"
         id="path857-6"
         style="stroke-width:0.0246093" />
      <path
         fill="#3b9cac"
         fill-rule="nonzero"
         d="m 173.36133,130.52149 v 1.99337 l 1.3289,-1.2797 0.93516,0.95976 -2.26406,2.16564 v 2.8793 l 2.51015,-1.45196 0.71367,-3.02694 1.3043,0.31991 -0.41836,1.77187 1.69805,-0.98437 0.66445,1.15665 -1.72266,1.00897 1.79649,0.5168 -0.36914,1.27969 -3.00234,-0.88594 -2.51016,1.42735 2.53477,1.45196 2.97773,-0.86133 0.36914,1.27969 -1.77187,0.51678 1.72265,0.98437 -0.68906,1.15664 -1.72266,-1.00898 0.44297,1.82109 -1.3043,0.31992 -0.71367,-3.05155 -2.51015,-1.45196 v 2.9039 l 2.26406,2.14101 -0.93516,0.98437 -1.3289,-1.27968 v 1.99337 h -1.35352 v -1.99337 l -1.32891,1.27968 -0.91054,-0.98437 2.23945,-2.1164 v -2.90389 l -2.48554,1.42734 -0.71368,3.05155 -1.30429,-0.31992 0.44297,-1.82109 L 166.2,142.9 l -0.66445,-1.15664 1.72265,-0.98437 -1.77187,-0.51678 0.36914,-1.2797 2.97773,0.86133 2.53477,-1.45195 -2.51016,-1.42736 -3.00234,0.88595 -0.36914,-1.2797 1.79648,-0.51679 -1.74726,-1.00898 0.66445,-1.15665 1.72266,0.98438 -0.41836,-1.77187 1.30429,-0.31991 0.71368,3.02694 2.48554,1.42734 v -2.87928 l -2.23945,-2.14104 0.91055,-0.95976 1.3289,1.25508 v -1.96875 z"
         id="path857-2"
         style="stroke-width:0.0246093" />
      <path
         fill="#3b9cac"
         fill-rule="nonzero"
         d="m 197.77609,149.66378 v 1.99337 l 1.3289,-1.2797 0.93516,0.95976 -2.26406,2.16564 v 2.8793 l 2.51015,-1.45196 0.71367,-3.02694 1.3043,0.31991 -0.41836,1.77187 1.69805,-0.98437 0.66445,1.15665 -1.72266,1.00897 1.79649,0.5168 -0.36914,1.27969 -3.00234,-0.88594 -2.51016,1.42735 2.53477,1.45196 2.97773,-0.86133 0.36914,1.27969 -1.77187,0.51678 1.72265,0.98437 -0.68906,1.15664 -1.72266,-1.00898 0.44297,1.82109 -1.3043,0.31992 -0.71367,-3.05155 -2.51015,-1.45196 v 2.9039 l 2.26406,2.14101 -0.93515,0.98437 -1.32891,-1.27968 v 1.99337 h -1.35352 v -1.99337 l -1.3289,1.27968 -0.91055,-0.98437 2.23945,-2.1164 v -2.90389 l -2.48554,1.42734 -0.71368,3.05155 -1.30429,-0.31992 0.44297,-1.82109 -1.74727,1.00898 -0.66445,-1.15664 1.72266,-0.98437 -1.77188,-0.51678 0.36914,-1.2797 2.97774,0.86133 2.53476,-1.45195 -2.51016,-1.42736 -3.00234,0.88595 -0.36914,-1.2797 1.79648,-0.51679 -1.74726,-1.00898 0.66445,-1.15665 1.72266,0.98438 -0.41836,-1.77187 1.30429,-0.31991 0.71368,3.02694 2.48554,1.42734 v -2.87928 l -2.23945,-2.14104 0.91055,-0.95976 1.3289,1.25508 v -1.96875 z"
         id="path857-57"
         style="stroke-width:0.0246093" />
      <path
         fill="#3b9cac"
         fill-rule="nonzero"
         d="m 190.2708,178.23605 v 1.99337 l 1.32891,-1.2797 0.93515,0.95976 -2.26406,2.16564 v 2.8793 l 2.51016,-1.45196 0.71367,-3.02694 1.3043,0.31991 -0.41837,1.77187 1.69805,-0.98437 0.66445,1.15665 -1.72265,1.00897 1.79648,0.5168 -0.36914,1.27969 -3.00234,-0.88594 -2.51015,1.42735 2.53476,1.45196 2.97773,-0.86133 0.36914,1.27969 -1.77187,0.51678 1.72266,0.98437 -0.68907,1.15664 -1.72265,-1.00898 0.44297,1.82109 -1.3043,0.31992 -0.71367,-3.05155 -2.51016,-1.45196 v 2.9039 l 2.26406,2.14101 -0.93515,0.98437 -1.32891,-1.27968 v 1.99337 h -1.35351 v -1.99337 l -1.32891,1.27968 -0.91055,-0.98437 2.23946,-2.1164 v -2.90389 l -2.48555,1.42734 -0.71367,3.05155 -1.3043,-0.31992 0.44297,-1.82109 -1.74726,1.00898 -0.66446,-1.15664 1.72266,-0.98437 -1.77188,-0.51678 0.36914,-1.2797 2.97774,0.86133 2.53476,-1.45195 -2.51015,-1.42736 -3.00235,0.88595 -0.36914,-1.2797 1.79649,-0.51679 -1.74727,-1.00898 0.66446,-1.15665 1.72265,0.98438 -0.41836,-1.77187 1.3043,-0.31991 0.71367,3.02694 2.48555,1.42734 v -2.87928 l -2.23946,-2.14104 0.91055,-0.95976 1.32891,1.25508 v -1.96875 z"
         id="path857-64"
         style="stroke-width:0.0246093" />
      <path
         fill="#3b9cac"
         fill-rule="nonzero"
         d="m 135.37186,179.97048 v 1.99337 l 1.3289,-1.2797 0.93516,0.95976 -2.26406,2.16564 v 2.8793 l 2.51015,-1.45196 0.71367,-3.02694 1.3043,0.31991 -0.41836,1.77187 1.69805,-0.98437 0.66445,1.15665 -1.72266,1.00897 1.79649,0.5168 -0.36914,1.27969 -3.00234,-0.88594 -2.51016,1.42735 2.53477,1.45196 2.97773,-0.86133 0.36914,1.27969 -1.77187,0.51678 1.72265,0.98437 -0.68906,1.15664 -1.72266,-1.00898 0.44297,1.82109 -1.3043,0.31992 -0.71367,-3.05155 -2.51015,-1.45196 v 2.9039 l 2.26406,2.14101 -0.93516,0.98437 -1.3289,-1.27968 v 1.99337 h -1.35352 v -1.99337 l -1.3289,1.27968 -0.91055,-0.98437 2.23945,-2.1164 v -2.90389 l -2.48554,1.42734 -0.71368,3.05155 -1.30429,-0.31992 0.44297,-1.82109 -1.74727,1.00898 -0.66445,-1.15664 1.72266,-0.98437 -1.77188,-0.51678 0.36914,-1.2797 2.97774,0.86133 2.53476,-1.45195 -2.51016,-1.42736 -3.00234,0.88595 -0.36914,-1.2797 1.79648,-0.51679 -1.74726,-1.00898 0.66445,-1.15665 1.72266,0.98438 -0.41836,-1.77187 1.30429,-0.31991 0.71368,3.02694 2.48554,1.42734 v -2.87928 l -2.23945,-2.14104 0.91055,-0.95976 1.3289,1.25508 v -1.96875 z"
         id="path857-20"
         style="stroke-width:0.0246093" />
      <path
         fill="#3b9cac"
         fill-rule="nonzero"
         d="m 164.46763,157.26249 v 1.99337 l 1.3289,-1.2797 0.93516,0.95976 -2.26406,2.16564 v 2.8793 l 2.51015,-1.45196 0.71367,-3.02694 1.3043,0.31991 -0.41836,1.77187 1.69805,-0.98437 0.66445,1.15665 -1.72266,1.00897 1.79649,0.5168 -0.36914,1.27969 -3.00234,-0.88594 -2.51016,1.42735 2.53477,1.45196 2.97773,-0.86133 0.36914,1.27969 -1.77187,0.51678 1.72265,0.98437 -0.68906,1.15664 -1.72266,-1.00898 0.44297,1.82109 -1.3043,0.31992 -0.71367,-3.05155 -2.51015,-1.45196 v 2.9039 l 2.26406,2.14101 -0.93516,0.98437 -1.3289,-1.27968 v 1.99337 h -1.35352 v -1.99337 l -1.3289,1.27968 -0.91055,-0.98437 2.23945,-2.1164 v -2.90389 l -2.48554,1.42734 -0.71368,3.05155 -1.30429,-0.31992 0.44297,-1.82109 -1.74727,1.00898 -0.66445,-1.15664 1.72266,-0.98437 -1.77188,-0.51678 0.36914,-1.2797 2.97774,0.86133 2.53476,-1.45195 -2.51016,-1.42736 -3.00234,0.88595 -0.36914,-1.2797 1.79648,-0.51679 -1.74726,-1.00898 0.66445,-1.15665 1.72266,0.98438 -0.41836,-1.77187 1.30429,-0.31991 0.71368,3.02694 2.48554,1.42734 v -2.87928 l -2.23945,-2.14104 0.91055,-0.95976 1.3289,1.25508 v -1.96875 z"
         id="path857-7"
         style="stroke-width:0.0246093" />
      <path
         fill="#3b9cac"
         fill-rule="nonzero"
         d="m 113.91533,164.68317 v 1.99337 l 1.32891,-1.2797 0.93516,0.95976 -2.26407,2.16564 v 2.8793 l 2.51016,-1.45196 0.71367,-3.02694 1.3043,0.31991 -0.41836,1.77187 1.69805,-0.98437 0.66445,1.15665 -1.72266,1.00897 1.79649,0.5168 -0.36914,1.27969 -3.00235,-0.88594 -2.51015,1.42735 2.53476,1.45196 2.97774,-0.86133 0.36914,1.27969 -1.77188,0.51678 1.72266,0.98437 -0.68906,1.15664 -1.72266,-1.00898 0.44297,1.82109 -1.3043,0.31992 -0.71367,-3.05155 -2.51016,-1.45196 v 2.9039 l 2.26407,2.14101 -0.93516,0.98437 -1.32891,-1.27968 v 1.99337 h -1.35351 v -1.99337 l -1.32891,1.27968 -0.91054,-0.98437 2.23945,-2.1164 v -2.90389 l -2.48555,1.42734 -0.71367,3.05155 -1.3043,-0.31992 0.44297,-1.82109 -1.74726,1.00898 -0.66446,-1.15664 1.72266,-0.98437 -1.77187,-0.51678 0.36914,-1.2797 2.97773,0.86133 2.53477,-1.45195 -2.51016,-1.42736 -3.00234,0.88595 -0.36914,-1.2797 1.79648,-0.51679 -1.74727,-1.00898 0.66446,-1.15665 1.72265,0.98438 -0.41836,-1.77187 1.3043,-0.31991 0.71367,3.02694 2.48555,1.42734 v -2.87928 l -2.23945,-2.14104 0.91054,-0.95976 1.32891,1.25508 v -1.96875 z"
         id="path857-5-6"
         style="stroke-width:0.0246093" />
    </g>
  </g>
</svg>
