<?xml version="1.0" encoding="UTF-8" standalone="no"?>
<svg
   xmlns:dc="http://purl.org/dc/elements/1.1/"
   xmlns:cc="http://creativecommons.org/ns#"
   xmlns:rdf="http://www.w3.org/1999/02/22-rdf-syntax-ns#"
   xmlns:svg="http://www.w3.org/2000/svg"
   xmlns="http://www.w3.org/2000/svg"
   xmlns:sodipodi="http://sodipodi.sourceforge.net/DTD/sodipodi-0.dtd"
   xmlns:inkscape="http://www.inkscape.org/namespaces/inkscape"
   id="weather34 ligthning"
   width="302"
   height="290"
   viewBox="0 0 226.5 217.49999"
   version="1.1"
   sodipodi:docname="29.svg"
   inkscape:version="1.0.1 (3bc2e813f5, 2020-09-07)">
  <metadata
     id="metadata21">
    <rdf:RDF>
      <cc:Work
         rdf:about="">
        <dc:format>image/svg+xml</dc:format>
        <dc:type
           rdf:resource="http://purl.org/dc/dcmitype/StillImage" />
        <dc:title></dc:title>
      </cc:Work>
    </rdf:RDF>
  </metadata>
  <defs
     id="defs19" />
  <sodipodi:namedview
     pagecolor="#ffffff"
     bordercolor="#666666"
     borderopacity="1"
     objecttolerance="10"
     gridtolerance="10"
     guidetolerance="10"
     inkscape:pageopacity="0"
     inkscape:pageshadow="2"
     inkscape:window-width="1920"
     inkscape:window-height="1051"
     id="namedview17"
     showgrid="false"
     inkscape:zoom="2.5882353"
     inkscape:cx="198.45566"
     inkscape:cy="157.09948"
     inkscape:window-x="-9"
     inkscape:window-y="-9"
     inkscape:window-maximized="1"
     inkscape:current-layer="weather34 ligthning"
     inkscape:document-rotation="0" />
  <g
     id="g855"
     transform="matrix(0.704,0,0,0.704,11.477833,29.454545)">
    <path
       fill="#777777"
       stroke="#777777"
       stroke-width="0.1"
       d="m 183.14174,77.624608 c 8.5,-6 21.4,-3.6 27.2,5 4.2,-1.7 9.2,-2.6 13.4,-0.2 3.3,1.7 5,5.2 6.2,8.5 4.5,1.2 9,3.5 11.3,7.8 3,5.300002 1.3,12.300002 -3.3,16.000002 -3,2.6 -7.2,3.8 -11.2,3.7 h -46 c -5.4,0 -11,-2.3 -14,-7 -3,-4.3 -2.6,-10.4 0.7,-14.500002 2,-2.7 5,-4.2 8,-5.5 0.3,-5.5 3,-10.8 7.6,-13.7 z"
       id="path4" />
    <path
       fill="#00a4b4"
       stroke="#00a4b4"
       stroke-width="0.1"
       d="m 84.841743,143.32461 h 17.199997 c -3.199997,5.3 -6.699997,10.5 -9.699997,16 -2,-5.6 -5.2,-10.6 -7.5,-16 z"
       id="path6" />
    <path
       fill="#d05f2d"
       stroke="#d05f2d"
       stroke-width="0.1"
       d="m 102.04174,143.32461 h 26.8 l -1.6,2 -3,4.3 5.5,0.7 6.8,1 15.6,2 -9.8,9 -4.5,4.2 -12,11 -4.4,4 c -3,3 -6.3,6 -9.4,8.8 l -24.999997,22.7 17.999997,-29 c 3.4,-5 6.6,-10.3 10,-15.5 1,-2 2.3,-4 3.5,-6 l -7,-0.8 -18.699997,-2.4 h -0.5 c 3,-5.5 6.5,-10.7 9.699997,-16 z"
       id="path8" />
    <path
       fill="#00a4b4"
       stroke="#00a4b4"
       stroke-width="0.1"
       d="m 132.84174,143.32461 h 17.4 l 7.4,14.7 -1.7,2.8 c 1,0 2.5,0.3 3.3,0.4 3,5.5 5.8,11 8.6,16.8 l -8,12.3 c -1.2,-0.2 -3.4,0.5 -4,-1 l -13.4,-27 9.8,-9 -15.6,-2 -4,-8 z m 24,0 h 10 c -2,3 -3.8,6 -5.6,9 l -4.5,-9 z"
       id="path10" />
    <path
       fill="#d05f2d"
       stroke="#d05f2d"
       stroke-width="0.1"
       d="m 166.84174,143.32461 h 21.7 l -4.5,6.3 c -1,1 -1.7,2.3 -2.5,3.5 l 4.5,0.6 c 6,0.6 11.7,2 17.7,1.8 v 0.6 c -3.8,3.4 -7.7,6.8 -11.4,10.3 -1.5,1.5 -3,2.8 -4.5,4 -3.8,3.7 -7.8,7.2 -11.6,11 l -4.8,4.2 -5.3,4.8 -14.3,13 8,-13 8,-12.2 c 1,-2 2.3,-3.8 3.5,-5.7 l 5.7,-9 -11,-1.3 -7,-0.8 -3,-0.5 c 0.4,-1 1,-1.8 1.6,-2.8 l 3.6,-5.7 5.6,-9 z"
       id="path12" />
    <path
       fill="#00a4b4"
       stroke="#00a4b4"
       stroke-width="0.1"
       d="m 188.54174,143.32461 h 9.7 c 1.7,4 4.8,7.8 5.5,12.2 -6,0.2 -12,-1.2 -17.8,-1.8 l -2,-4 4.5,-6.4 z m 16.3,0 c 5.8,0 11.6,0 17.3,-0.2 6,12.2 12.3,24.3 18.4,36.5 1.6,3.4 4,6.7 4.4,10.6 h -16.3 c -8,-15.6 -16,-31.3 -23.7,-47 z m -80.6,6.3 3,-4.3 2.5,5 -5.6,-0.7 z m 79.6,6.5 h 0.7 c 5,9 9.2,18.4 14,27.4 1.2,2 2,4.4 2.4,6.7 -5.4,-0.3 -11.3,0.7 -16.6,-0.5 -4,-7.7 -7.8,-15.6 -11.8,-23.4 l 11.3,-10.3 z m -110.999997,3.2 c 6.2,1 12.399997,1.6 18.599997,2.4 l 3.5,6.8 -9.7,15.6 c -4,-8.3 -8.299997,-16.5 -12.299997,-24.7 z m 73.299997,2.7 c 3.6,0.5 7.3,1 11,1.3 -2,3 -4,6 -5.8,9 z m -40.3,15.5 12,-11 12,23.7 h -16 c -1.4,0.3 -2,-1.2 -2.4,-2.2 l -5.3,-10.6 z m 50.4,3.8 c 3.8,-3.8 7.8,-7.3 11.7,-11 l 10,20 c -5.8,-0.2 -12,0.6 -17.6,-0.4 -1.5,-3 -3.3,-5.6 -4,-8.7 z m -64.2,9 c 3,-3 6.3,-5.8 9.4,-8.7 l 4.5,8.6 h -13.8 z m 54.1,0 5.3,-4.8 2.4,4.7 h -7.7 z"
       id="path14" />
    <g
       id="g848"
       transform="translate(-2.298257,-9.705392)">
      <g
         id="#e4e3e3ff-8">
        <path
           fill="#e6e8ef"
           opacity="1"
           d="m 68.14,41.82 c 9.31,-14.48 25.67,-24.01 42.76,-25.5 21.93,-2.56 45.2,7.66 56.94,26.61 8.65,-5.39 19.28,-7.6 29.32,-5.65 12.55,2.07 24.2,10.72 28.57,22.85 1.1,2.5 1.11,5.35 2.17,7.84 13.58,1.91 26.57,9.42 33.93,21.14 7.13,10.96 8.14,25.63 2.58,37.45 -6.07,12.84 -18.55,22.03 -32.28,25.14 -4.61,1.15 -9.4,1.27 -14.13,1.35 -47.65,-0.02 -95.3,0.03 -142.96,-0.02 -12.72,0.12 -25.53,-4.54 -34.84,-13.28 -7.6,-7.14 -12.89,-17.12 -13.13,-27.68 -0.45,-7.96 1.81,-15.91 5.94,-22.69 6.05,-10.01 16.39,-16.62 27.34,-20.15 0.28,-9.6 2.59,-19.25 7.79,-27.41 m 118.14,44.47 c -5.32,2.54 -8.15,8.17 -9.01,13.76 -3.7,2.92 -8.57,5.04 -10.08,9.98 -0.45,3.76 -1,8.15 1.49,11.35 2.64,3.61 6.74,6.67 11.38,6.65 16.99,-0.03 33.97,-0.07 50.95,0.01 4.71,0.21 9.02,-2.74 11.82,-6.32 4.4,-5.76 2.38,-14.91 -3.75,-18.64 -2.55,-1.95 -6.79,-1.72 -7.73,-5.36 -2.79,-7.1 -12.12,-9.27 -18.5,-5.74 -3.12,-3.63 -7.02,-6.87 -11.83,-7.84 -4.97,-0.45 -10.4,-0.81 -14.74,2.15 z"
           id="path2" />
      </g>
      <g
         id="#ff8841ff">
        <path
           fill="#d05f2d"
           opacity="1"
           d="M 33.01,89.38 C 33.8,68.36 48.36,48.84 68.14,41.82 62.94,49.98 60.63,59.63 60.35,69.23 49.4,72.76 39.06,79.37 33.01,89.38 Z"
           id="path5" />
      </g>
      <g
         id="#aca6a6ff-7">
        <path
           fill="#777777"
           opacity="1"
           d="m 186.28,86.29 c 4.34,-2.96 9.77,-2.6 14.74,-2.15 4.81,0.97 8.71,4.21 11.83,7.84 6.38,-3.53 15.71,-1.36 18.5,5.74 0.94,3.64 5.18,3.41 7.73,5.36 6.13,3.73 8.15,12.88 3.75,18.64 -2.8,3.58 -7.11,6.53 -11.82,6.32 -16.98,-0.08 -33.96,-0.04 -50.95,-0.01 -4.64,0.02 -8.74,-3.04 -11.38,-6.65 -2.49,-3.2 -1.94,-7.59 -1.49,-11.35 1.51,-4.94 6.38,-7.06 10.08,-9.98 0.86,-5.59 3.69,-11.22 9.01,-13.76 z"
           id="path8-2" />
      </g>
    </g>
  </g>
</svg>
