<?xml version="1.0" encoding="UTF-8" standalone="no"?>
<svg
   xmlns:dc="http://purl.org/dc/elements/1.1/"
   xmlns:cc="http://creativecommons.org/ns#"
   xmlns:rdf="http://www.w3.org/1999/02/22-rdf-syntax-ns#"
   xmlns:svg="http://www.w3.org/2000/svg"
   xmlns="http://www.w3.org/2000/svg"
   xmlns:sodipodi="http://sodipodi.sourceforge.net/DTD/sodipodi-0.dtd"
   xmlns:inkscape="http://www.inkscape.org/namespaces/inkscape"
   id="weather34 partly cloudy day icon"
   width="302pt"
   height="290pt"
   viewBox="0 0 302 290"
   version="1.1"
   sodipodi:docname="3.svg"
   inkscape:version="1.0.1 (3bc2e813f5, 2020-09-07)">
  <metadata
     id="metadata11">
    <rdf:RDF>
      <cc:Work
         rdf:about="">
        <dc:format>image/svg+xml</dc:format>
        <dc:type
           rdf:resource="http://purl.org/dc/dcmitype/StillImage" />
        <dc:title></dc:title>
      </cc:Work>
    </rdf:RDF>
  </metadata>
  <defs
     id="defs9" />
  <sodipodi:namedview
     pagecolor="#ffffff"
     bordercolor="#666666"
     borderopacity="1"
     objecttolerance="10"
     gridtolerance="10"
     guidetolerance="10"
     inkscape:pageopacity="0"
     inkscape:pageshadow="2"
     inkscape:window-width="1920"
     inkscape:window-height="1051"
     id="namedview7"
     showgrid="false"
     inkscape:zoom="1.8301587"
     inkscape:cx="201.33333"
     inkscape:cy="213.71206"
     inkscape:window-x="-9"
     inkscape:window-y="-9"
     inkscape:window-maximized="1"
     inkscape:current-layer="weather34 partly cloudy day icon" />
  <g
     id="g838"
     transform="translate(10.220886,62.519121)">
    <path
       fill="#d05f2d"
       opacity="1"
       d="m 22.26,35.4 c 8.42,-12.8 22.61,-21.59 37.82,-23.39 12.27,-1.45 25.31,1.1 35.6,8.1 -7.3,3.03 -14.23,7.13 -20,12.57 -6.74,6.53 -11.56,15.01 -13.78,24.12 -0.97,3.85 -0.95,7.84 -1.66,11.73 -2.45,1.64 -5.34,2.4 -7.97,3.7 C 40.36,77.82 30.52,88.68 27.89,101.79 20.87,94.48 16.05,85.09 14.25,75.11 11.65,61.51 14.49,46.89 22.26,35.4 Z"
       id="path2" />
    <path
       fill="#e6e8ef"
       opacity="1"
       stroke-width="1"
       stroke="#e6e8ef"
       d="m 111.12,16.65 c 19.72,-2.53 40.57,5.63 52.99,21.23 1.29,1.56 2.21,3.4 3.65,4.84 13.07,-8.06 30.61,-8.47 43.67,-0.21 8.73,5.4 14.74,14.71 16.23,24.84 13.21,2.26 26.07,9.17 33.48,20.61 7.94,11.47 9.09,27.35 2.58,39.73 -6.37,12.25 -18.76,20.79 -32.13,23.62 -5.11,1.16 -10.38,1.23 -15.59,1.21 -47.01,0 -94.01,0.05 -141.02,0.05 -13.29,0.21 -26.7,-4.96 -35.99,-14.54 -5.15,-5.63 -9.32,-12.36 -10.9,-19.89 -1.62,-5.32 -1.01,-10.95 -0.2,-16.35 2.63,-13.11 12.47,-23.97 24.38,-29.56 2.63,-1.3 5.52,-2.06 7.97,-3.7 0.71,-3.89 0.69,-7.88 1.66,-11.73 2.22,-9.11 7.04,-17.59 13.78,-24.12 5.77,-5.44 12.7,-9.54 20,-12.57 5.04,-1.55 10.12,-3.23 15.44,-3.46 z"
       id="path4" />
  </g>
</svg>
