<?xml version="1.0" encoding="UTF-8" standalone="no"?>
<svg
   xmlns:dc="http://purl.org/dc/elements/1.1/"
   xmlns:cc="http://creativecommons.org/ns#"
   xmlns:rdf="http://www.w3.org/1999/02/22-rdf-syntax-ns#"
   xmlns:svg="http://www.w3.org/2000/svg"
   xmlns="http://www.w3.org/2000/svg"
   xmlns:sodipodi="http://sodipodi.sourceforge.net/DTD/sodipodi-0.dtd"
   xmlns:inkscape="http://www.inkscape.org/namespaces/inkscape"
   id="weather34 ligthning"
   width="302pt"
   height="340"
   viewBox="0 0 302 255"
   version="1.1"
   sodipodi:docname="30.svg"
   inkscape:version="1.0.1 (3bc2e813f5, 2020-09-07)">
  <metadata
     id="metadata21">
    <rdf:RDF>
      <cc:Work
         rdf:about="">
        <dc:format>image/svg+xml</dc:format>
        <dc:type
           rdf:resource="http://purl.org/dc/dcmitype/StillImage" />
        <dc:title></dc:title>
      </cc:Work>
    </rdf:RDF>
  </metadata>
  <defs
     id="defs19" />
  <sodipodi:namedview
     pagecolor="#ffffff"
     bordercolor="#666666"
     borderopacity="1"
     objecttolerance="10"
     gridtolerance="10"
     guidetolerance="10"
     inkscape:pageopacity="0"
     inkscape:pageshadow="2"
     inkscape:window-width="1920"
     inkscape:window-height="1051"
     id="namedview17"
     showgrid="false"
     inkscape:zoom="1.8301587"
     inkscape:cx="201.33333"
     inkscape:cy="170"
     inkscape:window-x="-9"
     inkscape:window-y="-9"
     inkscape:window-maximized="1"
     inkscape:current-layer="weather34 ligthning"
     inkscape:document-rotation="0"
     width="302px" />
  <g
     id="g843"
     transform="translate(4.5,7.5)">
    <path
       fill="#e6e8ef"
       stroke="#e6e8ef"
       stroke-width="0.1"
       d="m 82,27.2 c 22,-16 55,-14.7 75.4,3.4 4,3.5 7.4,7.8 10.3,12.3 15.2,-9.8 36.8,-8.3 49.8,4.5 5.6,5.3 9.2,12.6 10,20.3 14.7,2.1 28.5,10.3 35.5,23.3 6.6,11.6 6.6,26.5 0,38 -7.5,14 -23,22.8 -38.7,23.8 -5.7,0.3 -11.5,0.2 -17.3,0.2 H 87 c -8.4,-0.2 -17,0.6 -25,-1.5 -13.5,-3.3 -25.7,-12.3 -31.4,-25 -5,-10.7 -4.7,-23.7 0.8,-34.2 5.7,-11.5 17,-19.7 29.3,-23 -0.7,-16.6 8,-32.7 21.4,-42 m 103.3,60 c -4.7,3 -7.3,8.3 -7.6,13.7 -3,1.3 -6,2.8 -8,5.5 -3.3,4 -3.6,10.2 -0.7,14.5 3,4.7 8.6,7 14,7 h 46 c 4,0 8,-1 11.2,-3.7 4.6,-3.7 6.3,-10.7 3.3,-16 -2.2,-4.3 -6.8,-6.6 -11.3,-7.8 -1.2,-3.3 -3,-6.8 -6.3,-8.4 -4.3,-2.3 -9.3,-1.4 -13.5,0.3 -5.8,-8.6 -18.7,-11 -27.2,-5 z"
       id="path2" />
    <path
       fill="#777777"
       stroke="#777777"
       stroke-width="0.1"
       d="m 185.3,87.3 c 8.5,-6 21.4,-3.6 27.2,5 4.2,-1.7 9.2,-2.6 13.4,-0.2 3.3,1.7 5,5.2 6.2,8.5 4.5,1.2 9,3.5 11.3,7.8 3,5.3 1.3,12.3 -3.3,16 -3,2.6 -7.2,3.8 -11.2,3.7 h -46 c -5.4,0 -11,-2.3 -14,-7 -3,-4.3 -2.6,-10.4 0.7,-14.5 2,-2.7 5,-4.2 8,-5.5 0.3,-5.5 3,-10.8 7.6,-13.7 z"
       id="path4" />
    <path
       fill="#00a4b4"
       stroke="#00a4b4"
       stroke-width="0.1"
       d="m 87,153 h 17.2 c -3.2,5.3 -6.7,10.5 -9.7,16 -2,-5.6 -5.2,-10.6 -7.5,-16 z"
       id="path6" />
    <path
       fill="#d05f2d"
       stroke="#d05f2d"
       stroke-width="0.1"
       d="M 104.2,153 H 131 l -1.6,2 -3,4.3 5.5,0.7 6.8,1 15.6,2 -9.8,9 -4.5,4.2 -12,11 -4.4,4 c -3,3 -6.3,6 -9.4,8.8 l -25,22.7 18,-29 c 3.4,-5 6.6,-10.3 10,-15.5 1,-2 2.3,-4 3.5,-6 l -7,-0.8 L 95,169 h -0.5 c 3,-5.5 6.5,-10.7 9.7,-16 z"
       id="path8" />
    <path
       fill="#00a4b4"
       stroke="#00a4b4"
       stroke-width="0.1"
       d="m 135,153 h 17.4 l 7.4,14.7 -1.7,2.8 c 1,0 2.5,0.3 3.3,0.4 3,5.5 5.8,11 8.6,16.8 l -8,12.3 c -1.2,-0.2 -3.4,0.5 -4,-1 l -13.4,-27 9.8,-9 -15.6,-2 -4,-8 z m 24,0 h 10 c -2,3 -3.8,6 -5.6,9 l -4.5,-9 z"
       id="path10" />
    <path
       fill="#d05f2d"
       stroke="#d05f2d"
       stroke-width="0.1"
       d="m 169,153 h 21.7 l -4.5,6.3 c -1,1 -1.7,2.3 -2.5,3.5 l 4.5,0.6 c 6,0.6 11.7,2 17.7,1.8 v 0.6 c -3.8,3.4 -7.7,6.8 -11.4,10.3 -1.5,1.5 -3,2.8 -4.5,4 -3.8,3.7 -7.8,7.2 -11.6,11 l -4.8,4.2 -5.3,4.8 -14.3,13 8,-13 8,-12.2 c 1,-2 2.3,-3.8 3.5,-5.7 l 5.7,-9 -11,-1.3 -7,-0.8 -3,-0.5 c 0.4,-1 1,-1.8 1.6,-2.8 l 3.6,-5.7 5.6,-9 z"
       id="path12" />
    <path
       fill="#00a4b4"
       stroke="#00a4b4"
       stroke-width="0.1"
       d="m 190.7,153 h 9.7 c 1.7,4 4.8,7.8 5.5,12.2 -6,0.2 -12,-1.2 -17.8,-1.8 l -2,-4 4.5,-6.4 z m 16.3,0 c 5.8,0 11.6,0 17.3,-0.2 6,12.2 12.3,24.3 18.4,36.5 1.6,3.4 4,6.7 4.4,10.6 h -16.3 c -8,-15.6 -16,-31.3 -23.7,-47 z m -80.6,6.3 3,-4.3 2.5,5 -5.6,-0.7 z m 79.6,6.5 h 0.7 c 5,9 9.2,18.4 14,27.4 1.2,2 2,4.4 2.4,6.7 -5.4,-0.3 -11.3,0.7 -16.6,-0.5 -4,-7.7 -7.8,-15.6 -11.8,-23.4 L 206,165.7 Z M 95,169 c 6.2,1 12.4,1.6 18.6,2.4 l 3.5,6.8 -9.7,15.6 c -4,-8.3 -8.3,-16.5 -12.3,-24.7 z m 73.3,2.7 c 3.6,0.5 7.3,1 11,1.3 -2,3 -4,6 -5.8,9 z m -40.3,15.5 12,-11 12,23.7 h -16 c -1.4,0.3 -2,-1.2 -2.4,-2.2 l -5.3,-10.6 z m 50.4,3.8 c 3.8,-3.8 7.8,-7.3 11.7,-11 l 10,20 c -5.8,-0.2 -12,0.6 -17.6,-0.4 -1.5,-3 -3.3,-5.6 -4,-8.7 z m -64.2,9 c 3,-3 6.3,-5.8 9.4,-8.7 l 4.5,8.6 h -13.8 z m 54.1,0 5.3,-4.8 2.4,4.7 h -7.7 z"
       id="path14" />
  </g>
</svg>
