<?xml version="1.0" encoding="UTF-8" standalone="no"?>
<svg
   xmlns:dc="http://purl.org/dc/elements/1.1/"
   xmlns:cc="http://creativecommons.org/ns#"
   xmlns:rdf="http://www.w3.org/1999/02/22-rdf-syntax-ns#"
   xmlns:svg="http://www.w3.org/2000/svg"
   xmlns="http://www.w3.org/2000/svg"
   xmlns:sodipodi="http://sodipodi.sourceforge.net/DTD/sodipodi-0.dtd"
   xmlns:inkscape="http://www.inkscape.org/namespaces/inkscape"
   id="weather34 fog icon"
   width="302pt"
   height="340"
   viewBox="0 0 302 255"
   version="1.1"
   sodipodi:docname="5.svg"
   inkscape:version="1.0.1 (3bc2e813f5, 2020-09-07)">
  <metadata
     id="metadata2892">
    <rdf:RDF>
      <cc:Work
         rdf:about="">
        <dc:format>image/svg+xml</dc:format>
        <dc:type
           rdf:resource="http://purl.org/dc/dcmitype/StillImage" />
        <dc:title></dc:title>
      </cc:Work>
    </rdf:RDF>
  </metadata>
  <defs
     id="defs2890" />
  <sodipodi:namedview
     pagecolor="#ffffff"
     bordercolor="#666666"
     borderopacity="1"
     objecttolerance="10"
     gridtolerance="10"
     guidetolerance="10"
     inkscape:pageopacity="0"
     inkscape:pageshadow="2"
     inkscape:window-width="1920"
     inkscape:window-height="1051"
     id="namedview2888"
     showgrid="false"
     inkscape:zoom="2.4941176"
     inkscape:cx="201.33333"
     inkscape:cy="170"
     inkscape:window-x="-9"
     inkscape:window-y="-9"
     inkscape:window-maximized="1"
     inkscape:current-layer="weather34 fog icon"
     inkscape:document-rotation="0"
     width="302px" />
  <g
     id="g833">
    <path
       fill="#e6e8ef"
       stroke="#e6e8ef"
       stroke-width="0.1"
       d="m 108.8,54.5 c 23.2,-4.6 49.5,5.2 62,26 15.2,-10 37.2,-8.3 50.2,5 5.3,5.3 8.8,12.4 9.6,19.8 14.6,2 28.7,10.6 35.7,23.8 6.2,11.2 6.2,25.5 0.2,36.8 -8,15.4 -25.3,24.6 -42.4,24.6 H 77 c -15.7,0 -31.4,-7.6 -40.2,-20.7 -8,-11.6 -9,-27.6 -2.4,-40 5.8,-11.5 17,-19.7 29.2,-23 0,-9.4 2.2,-18.7 7,-26.6 C 79,66.5 93.5,57.5 109,54.5 m -22,49 v 10.3 H 219 V 103.5 H 87 m 0,20.6 v 10.4 H 219 V 124 H 87 m 0,20.5 v 10.4 H 219 V 144.5 H 87 m 0,20.7 v 10.3 h 132 v -10.3 z"
       id="path2883" />
    <path
       fill="#00a4b4"
       stroke="#00a4b4"
       stroke-width="0.1"
       d="m 87,103.5 h 132 v 10.3 H 87 Z m 0,20.6 h 132 v 10.4 H 87 V 124 Z m 0,20.4 h 132 v 10.4 H 87 Z m 0,20.7 h 132 v 10.3 H 87 Z"
       id="path2885" />
  </g>
</svg>
