<?xml version="1.0" encoding="UTF-8" standalone="no"?>
<svg
   xmlns:dc="http://purl.org/dc/elements/1.1/"
   xmlns:cc="http://creativecommons.org/ns#"
   xmlns:rdf="http://www.w3.org/1999/02/22-rdf-syntax-ns#"
   xmlns:svg="http://www.w3.org/2000/svg"
   xmlns="http://www.w3.org/2000/svg"
   xmlns:sodipodi="http://sodipodi.sourceforge.net/DTD/sodipodi-0.dtd"
   xmlns:inkscape="http://www.inkscape.org/namespaces/inkscape"
   id="weather34 cloudy icon"
   width="302pt"
   height="340"
   viewBox="0 0 302 255"
   version="1.1"
   sodipodi:docname="8.svg"
   inkscape:version="1.0.1 (3bc2e813f5, 2020-09-07)">
  <metadata
     id="metadata11">
    <rdf:RDF>
      <cc:Work
         rdf:about="">
        <dc:format>image/svg+xml</dc:format>
        <dc:type
           rdf:resource="http://purl.org/dc/dcmitype/StillImage" />
        <dc:title></dc:title>
      </cc:Work>
    </rdf:RDF>
  </metadata>
  <defs
     id="defs9" />
  <sodipodi:namedview
     pagecolor="#ffffff"
     bordercolor="#666666"
     borderopacity="1"
     objecttolerance="10"
     gridtolerance="10"
     guidetolerance="10"
     inkscape:pageopacity="0"
     inkscape:pageshadow="2"
     inkscape:window-width="1920"
     inkscape:window-height="1051"
     id="namedview7"
     showgrid="false"
     width="302px"
     inkscape:zoom="1.8301587"
     inkscape:cx="201.33333"
     inkscape:cy="170"
     inkscape:window-x="-9"
     inkscape:window-y="-9"
     inkscape:window-maximized="1"
     inkscape:current-layer="weather34 cloudy icon" />
  <g
     id="g838"
     transform="translate(3,40.5)">
    <path
       fill="#e6e8ef"
       stroke="#e6e8ef"
       stroke-width="0.1"
       d="m 73.2,35.2 c 12,-13.6 31,-20.4 49,-19 18,1 36,11 45.5,26.7 15.2,-10 36.8,-8.2 49.8,4.5 5.6,5.3 9.2,12.6 10,20.3 14.3,2 27.8,10 35,22.5 6.5,10.8 7.3,24.7 2,36 C 257,143 239,153 221,153 H 74 C 58.8,153 43.5,145.8 34.6,133.4 28,124.2 25.3,112 28,101 32,85.3 45.4,73.3 60.7,69.2 60.2,56.8 64.9,44.4 73.2,35.2 m 114,51 c -5.7,2.7 -9.2,8.6 -9.5,14.8 -3,1.3 -6,2.8 -8,5.5 -3.6,4.5 -3.5,11.3 0,15.7 3.4,4.2 9,6 14.2,5.8 h 45 c 3.6,0 7.2,-0.8 10,-3 5.2,-3.2 7.6,-10.3 5,-16 -2,-4.7 -7,-7.3 -11.8,-8.5 -1,-2.8 -2.3,-6 -5,-7.6 -4.3,-3.2 -10,-2.8 -14.6,-0.6 -5.5,-8 -17,-10.8 -25.4,-6.2 z"
       id="path2" />
    <path
       fill="#777777"
       stroke="#777777"
       stroke-width="0.1"
       d="m 187.2,86.2 c 8.5,-4.6 20,-1.8 25.4,6.2 4.5,-2.2 10.3,-2.6 14.5,0.5 3,1.6 4,4.7 5.2,7.5 4.8,1.2 9.7,3.8 11.7,8.6 2.6,5.7 0.2,12.8 -5,16 -2.8,2.2 -6.4,3 -10,3 h -45 c -5.3,0.3 -11,-1.6 -14.2,-5.8 -3.6,-4.4 -3.7,-11.2 -0.2,-15.7 2,-2.7 5,-4.2 8,-5.5 0.4,-6.2 4,-12 9.6,-14.8 z"
       id="path4" />
  </g>
</svg>
