<?xml version="1.0" encoding="UTF-8" standalone="no"?>
<svg
   xmlns:dc="http://purl.org/dc/elements/1.1/"
   xmlns:cc="http://creativecommons.org/ns#"
   xmlns:rdf="http://www.w3.org/1999/02/22-rdf-syntax-ns#"
   xmlns:svg="http://www.w3.org/2000/svg"
   xmlns="http://www.w3.org/2000/svg"
   xmlns:sodipodi="http://sodipodi.sourceforge.net/DTD/sodipodi-0.dtd"
   xmlns:inkscape="http://www.inkscape.org/namespaces/inkscape"
   id="weather34 partly cloudy night"
   width="302pt"
   height="290pt"
   viewBox="0 0 302 289.99999"
   version="1.1"
   sodipodi:docname="9.svg"
   inkscape:version="1.0.1 (3bc2e813f5, 2020-09-07)">
  <g
     id="g1437"
     transform="translate(17.281743,47.504608)">
    <path
       fill="#00a4b4"
       stroke="#00a4b4"
       stroke-width="0.1"
       d="m 86.143542,152.33639 17.299978,-0.0198 c 8.01894,15.59027 15.73816,31.38089 23.8571,46.97104 -5.80024,-0.19275 -11.99927,0.61458 -17.70059,-0.47849 -7.81871,-15.39054 -15.737668,-30.98092 -23.356358,-46.37165 z m 47.999958,-0.0584 17.3,-0.0198 c 8.01894,15.59027 15.83801,31.28077 23.75709,46.97116 L 158.2006,199.24916 157.5,198.75 Z m 47.99997,-0.0584 17.39996,-0.0198 21.55187,42.77389 c 0.7014,1.19923 0.7033,2.69915 1.00485,3.99881 -5.39971,0.20636 -10.69959,0.31297 -15.99993,0.0198 -1.20064,-0.49856 -1.40247,-1.99831 -2.00367,-2.99758 -7.31764,-14.59117 -14.83514,-28.98204 -22.05323,-43.77322 z"
       id="path848-7"
       sodipodi:nodetypes="cccccccccccccccccccc" />
    <g
       id="g1410"
       transform="translate(-17.96591,-39.698863)">
      <path
         fill="#f05e40"
         stroke="#f05e40"
         stroke-width="0.0562498"
         d="m 67.312295,32.745443 c 10.51875,4.5 19.518752,12.937499 24.187502,23.456245 4.387499,9.9 5.062499,21.54375 1.6875,31.95 -3.20625,9.73125 -9.787502,18.337492 -18.450002,23.849992 -7.48125,4.8375 -16.48125,7.425 -25.425,7.0875 -11.700003,-0.1125 -23.062503,-5.34375 -31.162503,-13.725 -1.40625,-1.40625 -2.5875,-3.09375 -3.9375,-4.5 0,-0.3375 0.16875,-0.56249 0.225,-0.84374 l 0.3375,0.56249 c 6.01875,2.1375 12.375,3.375 18.73125,2.7 12.15,-0.5625 23.906253,-6.749992 31.500003,-16.199992 5.34375,-6.35625 8.83125,-14.2875 9.9,-22.5 1.29375,-9.562496 -0.5625,-19.349995 -5.23125,-27.731245 -0.675,-1.40625 -1.8,-2.53125 -2.3625,-4.10625 z"
         id="path2" />
      <path
         fill="#e6e8ef"
         opacity="1"
         stroke-width="1"
         stroke="#e6e8ef"
         d="m 129.08591,56.348864 c 19.72,-2.53 40.57,5.63 52.99,21.229996 1.29,1.560003 2.21,3.400003 3.65,4.840003 13.07,-8.060003 30.61,-8.470003 43.67,-0.21 8.73,5.4 14.74,14.71 16.23,24.839997 13.21,2.26 26.07,9.17 33.48,20.61 7.94,11.47 9.09,27.35 2.58,39.73 -6.37,12.25 -18.76,20.79 -32.13,23.62 -5.11,1.16 -10.38,1.23 -15.59,1.21 -47.01,0 -94.01,0.05 -141.019999,0.05 -13.29,0.21 -26.7,-4.96 -35.99,-14.54 -5.15,-5.63 -9.32,-12.36 -10.9,-19.89 -1.62,-5.32 -1.01,-10.95 -0.2,-16.35 2.63,-13.11 12.47,-23.97 24.38,-29.56 2.63,-1.3 5.52,-2.06 7.97,-3.7 0.71,-3.89 0.69,-7.88 1.66,-11.729997 2.22,-9.11 7.04,-17.590003 13.78,-24.120003 5.77,-5.44 12.699999,-9.539996 19.999999,-12.569996 5.04,-1.55 10.12,-3.23 15.44,-3.46 z"
         id="path848" />
    </g>
  </g>
  <metadata
     id="metadata842">
    <rdf:RDF>
      <cc:Work
         rdf:about="">
        <dc:format>image/svg+xml</dc:format>
        <dc:type
           rdf:resource="http://purl.org/dc/dcmitype/StillImage" />
        <dc:title></dc:title>
      </cc:Work>
    </rdf:RDF>
  </metadata>
  <defs
     id="defs840" />
  <sodipodi:namedview
     pagecolor="#ffffff"
     bordercolor="#666666"
     borderopacity="1"
     objecttolerance="10"
     gridtolerance="10"
     guidetolerance="10"
     inkscape:pageopacity="0"
     inkscape:pageshadow="2"
     inkscape:window-width="1920"
     inkscape:window-height="1051"
     id="namedview838"
     showgrid="true"
     inkscape:zoom="1.4142136"
     inkscape:cx="181.48303"
     inkscape:cy="137.63379"
     inkscape:window-x="-9"
     inkscape:window-y="-9"
     inkscape:window-maximized="1"
     inkscape:current-layer="weather34 partly cloudy night"
     inkscape:document-rotation="0">
    <inkscape:grid
       type="xygrid"
       id="grid1438"
       originx="-12.208259"
       originy="-21.525393" />
  </sodipodi:namedview>
</svg>
