<?xml version="1.0" encoding="UTF-8" standalone="no"?>
<svg
   xmlns:dc="http://purl.org/dc/elements/1.1/"
   xmlns:cc="http://creativecommons.org/ns#"
   xmlns:rdf="http://www.w3.org/1999/02/22-rdf-syntax-ns#"
   xmlns:svg="http://www.w3.org/2000/svg"
   xmlns="http://www.w3.org/2000/svg"
   xmlns:sodipodi="http://sodipodi.sourceforge.net/DTD/sodipodi-0.dtd"
   xmlns:inkscape="http://www.inkscape.org/namespaces/inkscape"
   width="9.4660034mm"
   height="7.7955327mm"
   viewBox="0 0 9.4660034 7.7955327"
   version="1.1"
   id="svg86"
   inkscape:version="1.0.1 (3bc2e813f5, 2020-09-07)"
   sodipodi:docname="AW.RF.MD.svg">
  <defs
     id="defs80" />
  <sodipodi:namedview
     id="base"
     pagecolor="#ffffff"
     bordercolor="#666666"
     borderopacity="1.0"
     inkscape:pageopacity="0.0"
     inkscape:pageshadow="2"
     inkscape:zoom="20.795471"
     inkscape:cx="17.88851"
     inkscape:cy="10.884724"
     inkscape:document-units="mm"
     inkscape:current-layer="g1529"
     inkscape:document-rotation="0"
     showgrid="true"
     inkscape:window-width="1431"
     inkscape:window-height="1033"
     inkscape:window-x="128"
     inkscape:window-y="0"
     inkscape:window-maximized="0">
    <inkscape:grid
       type="xygrid"
       id="grid2589" />
  </sodipodi:namedview>
  <metadata
     id="metadata83">
    <rdf:RDF>
      <cc:Work
         rdf:about="">
        <dc:format>image/svg+xml</dc:format>
        <dc:type
           rdf:resource="http://purl.org/dc/dcmitype/StillImage" />
        <dc:title></dc:title>
      </cc:Work>
    </rdf:RDF>
  </metadata>
  <g
     inkscape:label="Layer 1"
     inkscape:groupmode="layer"
     id="layer1"
     transform="translate(-11.141998,-1.3325924)">
    <g
       id="g16"
       transform="matrix(0.01322917,0,0,0.01322917,8.2183279,-2.1202235)" />
    <g
       id="g18"
       transform="matrix(0.01322917,0,0,0.01322917,8.2183279,-2.1202235)" />
    <g
       id="g20"
       transform="matrix(0.01322917,0,0,0.01322917,8.2183279,-2.1202235)" />
    <g
       id="g22"
       transform="matrix(0.01322917,0,0,0.01322917,8.2183279,-2.1202235)" />
    <g
       id="g24"
       transform="matrix(0.01322917,0,0,0.01322917,8.2183279,-2.1202235)" />
    <g
       id="g26"
       transform="matrix(0.01322917,0,0,0.01322917,8.2183279,-2.1202235)" />
    <g
       id="g28"
       transform="matrix(0.01322917,0,0,0.01322917,8.2183279,-2.1202235)" />
    <g
       id="g30"
       transform="matrix(0.01322917,0,0,0.01322917,8.2183279,-2.1202235)" />
    <g
       id="g32"
       transform="matrix(0.01322917,0,0,0.01322917,8.2183279,-2.1202235)" />
    <g
       id="g34"
       transform="matrix(0.01322917,0,0,0.01322917,8.2183279,-2.1202235)" />
    <g
       id="g36"
       transform="matrix(0.01322917,0,0,0.01322917,8.2183279,-2.1202235)" />
    <g
       id="g38"
       transform="matrix(0.01322917,0,0,0.01322917,8.2183279,-2.1202235)" />
    <g
       id="g40"
       transform="matrix(0.01322917,0,0,0.01322917,8.2183279,-2.1202235)" />
    <g
       id="g42"
       transform="matrix(0.01322917,0,0,0.01322917,8.2183279,-2.1202235)" />
    <g
       id="g44"
       transform="matrix(0.01322917,0,0,0.01322917,8.2183279,-2.1202235)" />
    <g
       id="g1529"
       transform="translate(-0.52916667)">
      <path
         fill="#ff9900"
         stroke="#000000"
         stroke-miterlimit="10"
         d="m 11.935748,9.0055091 4.497917,-7.4083334 4.497916,7.4083334 z"
         id="path4"
         style="fill:#df4844;fill-opacity:1;stroke-width:0.264583" />
      <g
         id="g10"
         transform="matrix(0.01322917,0,0,0.01322917,14.449287,9.8365519)">
        <polygon
           style="fill:#ffffff"
           points="0.332,199.174 0.333,199.174 "
           id="polygon2" />
        <polygon
           style="fill:#ffffff"
           points="296.334,199.174 296.333,199.174 "
           id="polygon4" />
        <polygon
           style="fill:#ffffff"
           points="296.333,235.053 296.334,235.053 "
           id="polygon6" />
        <polygon
           style="fill:#ffffff"
           points="0.332,235.053 0.333,235.053 "
           id="polygon8" />
      </g>
      <path
         d="m 17.485841,7.571162 c 0.160459,0 0.242566,-0.053858 0.315832,-0.10137 0.0631,-0.040927 0.111673,-0.073252 0.220814,-0.073252 V 7.221912 c -0.163712,0 -0.241671,0.053857 -0.314937,0.10137 -0.0631,0.040928 -0.112022,0.073253 -0.220803,0.073253 -0.108791,0 -0.159999,-0.032325 -0.223094,-0.073253 C 17.248473,7.313452 17.236673,7.30334 17.214843,7.2935 V 6.8381949 h 0.407466 L 16.415816,5.5168831 15.916071,6.0573374 v -0.12501 h -0.316507 v 0.4683665 l -0.400219,0.437501 H 15.58865 V 7.300002 c -0.01091,0.00776 -0.02299,0.015607 -0.03484,0.023288 -0.0631,0.040927 -0.112011,0.073252 -0.22078,0.073252 -0.108759,0 -0.159957,-0.032325 -0.223029,-0.073252 -0.07325,-0.047528 -0.154369,-0.1013813 -0.31808,-0.1013813 V 7.396534 c 0.109141,0 0.160404,0.032325 0.223499,0.073252 0.07325,0.04752 0.15535,0.10137 0.315787,0.10137 0.119978,0 0.202871,-0.03012 0.257441,-0.06519 v 0.1856047 c -0.01091,0.00776 -0.02299,0.015607 -0.03484,0.023287 -0.0631,0.040928 -0.112011,0.073252 -0.220781,0.073252 -0.108759,0 -0.159956,-0.032325 -0.223029,-0.073252 -0.07326,-0.04752 -0.15437,-0.10137 -0.318081,-0.10137 V 7.788113 c 0.109141,0 0.160404,0.032325 0.223499,0.073252 0.07325,0.04752 0.157173,0.10137 0.31761,0.10137 0.160437,0 0.243919,-0.053858 0.317173,-0.10137 0.06308,-0.040928 0.113157,-0.073252 0.221905,-0.073252 0.10877,0 0.158723,0.032325 0.221818,0.073252 0.07325,0.04752 0.156344,0.10137 0.316781,0.10137 0.160436,0 0.243493,-0.053858 0.316748,-0.10137 0.06308,-0.040928 0.112938,-0.073252 0.221697,-0.073252 0.108781,0 0.158637,0.032325 0.22173,0.073252 0.07327,0.04752 0.156312,0.10137 0.31677,0.10137 0.160459,0 0.241659,-0.053858 0.314926,-0.10137 0.0631,-0.040928 0.110767,-0.073252 0.219908,-0.073252 V 7.6134912 c -0.163712,0 -0.241671,0.053865 -0.314937,0.10137 -0.0631,0.040927 -0.112022,0.073252 -0.220803,0.073252 -0.108791,0 -0.159999,-0.032325 -0.223094,-0.073252 -0.01518,-0.00983 -0.02698,-0.019942 -0.04881,-0.029797 V 7.4996555 c 0.06548,0.037665 0.143858,0.071497 0.270996,0.071497 z M 16.407194,7.0049295 c 0.138554,0 0.251034,0.1123162 0.251034,0.2508487 v 0.048675 c -0.01091,0.0063 -0.01801,0.012607 -0.02759,0.018825 -0.0631,0.040928 -0.112011,0.073253 -0.220781,0.073253 -0.10877,0 -0.159956,-0.032325 -0.223051,-0.073253 -0.0095,-0.00615 -0.01971,-0.012472 -0.03062,-0.018742 v -0.048766 c 0,-0.1385325 0.11248,-0.2508487 0.251013,-0.250848 z m 0.223443,0.7099377 c -0.0631,0.040927 -0.112011,0.073252 -0.220781,0.073252 -0.108769,0 -0.159956,-0.032325 -0.223051,-0.073252 -0.0095,-0.00615 -0.01971,-0.012473 -0.03062,-0.018743 V 7.51004 c 0.06548,0.033278 0.135673,0.061117 0.250947,0.061117 0.115373,0 0.19653,-0.027885 0.2511,-0.061192 v 0.1860847 c -0.01091,0.0063 -0.01801,0.012607 -0.02759,0.018817 z"
         id="path12"
         style="fill:none;fill-opacity:1;stroke:#000000;stroke-width:0.130969;stroke-miterlimit:4;stroke-dasharray:none;stroke-opacity:1" />
      <g
         id="g836"
         transform="matrix(0.605,0,0,0.605,6.8464315,0.71825326)">
        <path
           fill="#e6e8ef"
           opacity="1"
           d="m 14.797199,4.8274914 c 0.168487,-0.1769533 0.417971,-0.27178 0.661247,-0.2547055 0.263172,0.012841 0.520277,0.1531055 0.660259,0.3786011 0.126153,-0.078317 0.281658,-0.1085145 0.427425,-0.077329 0.209127,0.0381 0.392854,0.2118078 0.416701,0.4272844 0.196145,0.029492 0.385234,0.13843 0.488527,0.3110089 0.09088,0.1446389 0.104563,0.3321756 0.0429,0.4906433 -0.09821,0.2473678 -0.362938,0.4031545 -0.624558,0.4017434 -0.668161,0.00169 -1.336463,0 -2.004624,8.466e-4 -0.08608,1.412e-4 -0.173285,-0.00198 -0.25654,-0.026106 -0.165947,-0.044732 -0.316654,-0.1524 -0.403014,-0.30226 -0.09948,-0.1711677 -0.09708,-0.396381 0.0078,-0.5645855 0.08467,-0.1452033 0.234103,-0.2404533 0.391724,-0.2894189 1.41e-4,-0.1814688 0.06421,-0.3649133 0.192193,-0.4957233"
           id="path2"
           style="fill:none;stroke:#000000;stroke-width:0.153;stroke-miterlimit:4;stroke-dasharray:none;stroke-opacity:1"
           sodipodi:nodetypes="cccccccccccccc" />
        <path
           fill="#00a4b4"
           stroke="#00a4b4"
           stroke-width="0.1"
           d="m 14.76679,6.5655093 h 0.244122 c 0.112889,0.2201333 0.221544,0.4430888 0.335844,0.6632221 h -0.227189 c -0.01975,0.00564 -0.02822,-0.016933 -0.03528,-0.031044 -0.1016,-0.2116667 -0.211667,-0.4190999 -0.314678,-0.6307666 z m 0.338666,0 h 0.244122 c 0.112889,0.2201333 0.221545,0.4416777 0.335845,0.6632221 h -0.227189 c -0.01976,0.00423 -0.02822,-0.018344 -0.03528,-0.031044 -0.1016,-0.2116667 -0.211666,-0.4190999 -0.314678,-0.6307666 z m 0.338667,0 h 0.244122 c 0.112889,0.2187222 0.222956,0.4416777 0.334433,0.6632221 -0.08467,0 -0.169333,0.00706 -0.249766,-0.00564 z m 0.338666,0 h 0.239889 c 0.115711,0.2173111 0.222956,0.4416777 0.335845,0.6632221 -0.08467,0 -0.169334,0.00706 -0.249767,-0.00564 z m 0.338667,0 h 0.245533 l 0.3048,0.6067777 c 0.01129,0.014111 0.0099,0.036689 0.01411,0.056444 h -0.225778 l -0.0099,-0.00706 z m 0.338667,0 c 0.08184,0 0.163689,0.00282 0.244122,-0.00282 l 0.306211,0.6067776 c 0.01129,0.018345 0.0099,0.039511 0.01411,0.056445 -0.07902,0 -0.160866,0.011289 -0.235655,-0.00423 C 16.680256,7.0029536 16.567367,6.7842315 16.460123,6.5655093 Z"
           id="path8"
           style="fill:#000000;fill-opacity:1;stroke:#73c6d1;stroke-width:0;stroke-miterlimit:4;stroke-dasharray:none;stroke-opacity:1" />
      </g>
    </g>
  </g>
</svg>
