<?xml version="1.0" encoding="UTF-8" ?>
<!DOCTYPE svg PUBLIC "-//W3C//DTD SVG 1.1//EN" "http://www.w3.org/Graphics/SVG/1.1/DTD/svg11.dtd">
<svg width="302pt" height="340pt" viewBox="0 0 302 340" version="1.1" xmlns="http://www.w3.org/2000/svg">
<path fill="#ff8841" opacity="1.00" d=" M 47.87 56.64 C 65.58 46.26 89.17 47.49 105.79 59.49 C 115.06 66.78 122.67 76.59 125.69 88.13 C 132.63 110.38 122.79 136.58 102.65 148.44 C 102.58 148.48 102.44 148.56 102.38 148.60 C 89.99 156.38 74.26 158.48 60.21 154.49 C 48.68 151.29 38.38 144.08 31.28 134.46 C 22.81 123.40 19.67 108.76 21.64 95.07 C 23.88 79.13 33.88 64.57 47.87 56.64 M 95.02 69.03 C 89.99 72.17 86.40 77.09 81.67 80.62 C 70.31 80.13 59.29 76.31 47.95 75.40 C 46.18 75.21 44.80 76.45 43.59 77.55 C 42.47 78.72 40.69 79.83 41.28 81.72 C 49.42 87.05 58.94 90.21 66.84 95.91 C 62.87 100.24 58.47 104.14 54.44 108.42 C 53.18 109.63 51.92 111.19 50.06 111.38 C 45.35 111.15 40.51 109.52 35.85 110.72 C 33.40 112.62 31.15 114.82 29.18 117.21 C 28.63 118.59 29.49 119.90 30.97 120.01 C 36.36 121.22 41.72 122.56 47.07 123.96 C 48.28 124.23 49.31 125.01 50.05 125.98 C 51.70 132.28 52.37 138.89 54.85 144.93 C 58.24 144.77 60.01 141.37 62.25 139.27 C 67.00 133.94 58.81 125.36 64.90 120.79 C 68.76 117.02 72.58 113.21 76.38 109.39 C 77.18 108.57 78.28 107.34 79.39 108.46 C 83.61 116.69 87.67 125.03 92.29 133.03 C 95.76 131.78 99.40 128.03 98.44 124.04 C 96.57 113.73 94.40 103.38 93.35 92.98 C 96.75 88.54 101.08 84.85 104.47 80.38 C 106.34 77.23 107.93 72.84 105.49 69.56 C 102.98 66.40 98.10 67.21 95.02 69.03 Z" />
<path fill="#e4e3e3" opacity="1.00" d=" M 105.79 59.49 C 129.17 54.90 155.18 64.93 167.84 85.45 C 178.39 78.61 192.14 77.28 203.89 81.60 C 216.24 85.86 226.19 97.10 227.58 110.28 C 241.39 112.24 254.65 119.94 262.04 131.95 C 268.54 142.12 269.73 155.39 265.45 166.64 C 259.81 181.15 245.94 191.49 230.86 194.45 C 226.01 195.55 221.02 195.57 216.08 195.56 C 169.04 195.54 122.00 195.57 74.96 195.54 C 63.08 195.62 51.11 191.63 42.00 183.93 C 33.79 176.97 27.90 166.89 27.16 156.03 C 26.50 148.63 27.91 141.09 31.28 134.46 C 38.38 144.08 48.68 151.29 60.21 154.49 C 74.26 158.48 89.99 156.38 102.38 148.60 C 102.44 148.56 102.58 148.48 102.65 148.44 C 122.79 136.58 132.63 110.38 125.69 88.13 C 122.67 76.59 115.06 66.78 105.79 59.49 M 181.17 133.20 C 180.14 134.61 178.61 136.22 178.96 138.10 C 177.33 138.08 177.53 141.02 178.32 141.97 C 174.50 145.19 168.65 147.07 167.50 152.60 C 166.96 155.21 166.10 159.35 167.94 161.32 C 168.97 166.82 175.20 170.10 180.40 170.62 C 181.04 170.72 182.32 170.90 182.96 170.99 C 197.31 171.02 211.66 170.98 226.01 171.01 C 228.18 170.98 230.41 171.22 232.53 170.58 C 237.22 169.94 241.75 167.03 243.90 162.73 C 245.70 159.84 244.97 156.25 244.93 153.03 C 243.37 149.69 240.83 145.45 236.96 144.98 L 236.87 144.14 C 236.41 144.14 235.51 144.14 235.06 144.14 C 234.79 143.89 234.24 143.39 233.97 143.14 C 233.53 143.11 232.66 143.05 232.22 143.02 C 231.80 138.25 227.73 133.77 222.92 133.45 C 221.10 132.78 217.19 132.02 216.16 133.90 C 214.75 133.71 212.85 134.66 211.84 133.25 C 209.42 130.90 206.60 127.73 202.99 127.91 L 202.81 127.08 C 202.36 127.11 201.45 127.16 200.99 127.18 L 199.73 126.93 C 198.84 125.00 194.85 125.60 193.19 126.55 C 188.50 126.89 184.15 129.63 181.17 133.20 Z" />
<path fill="#773f1e" opacity="1.00" d=" M 95.02 69.03 C 98.10 67.21 102.98 66.40 105.49 69.56 C 107.93 72.84 106.34 77.23 104.47 80.38 C 101.08 84.85 96.75 88.54 93.35 92.98 C 94.40 103.38 96.57 113.73 98.44 124.04 C 99.40 128.03 95.76 131.78 92.29 133.03 C 87.67 125.03 83.61 116.69 79.39 108.46 C 78.28 107.34 77.18 108.57 76.38 109.39 C 72.58 113.21 68.76 117.02 64.90 120.79 C 58.81 125.36 67.00 133.94 62.25 139.27 C 60.01 141.37 58.24 144.77 54.85 144.93 C 52.37 138.89 51.70 132.28 50.05 125.98 C 49.31 125.01 48.28 124.23 47.07 123.96 C 41.72 122.56 36.36 121.22 30.97 120.01 C 29.49 119.90 28.63 118.59 29.18 117.21 C 31.15 114.82 33.40 112.62 35.85 110.72 C 40.51 109.52 45.35 111.15 50.06 111.38 C 51.92 111.19 53.18 109.63 54.44 108.42 C 58.47 104.14 62.87 100.24 66.84 95.91 C 58.94 90.21 49.42 87.05 41.28 81.72 C 40.69 79.83 42.47 78.72 43.59 77.55 C 44.80 76.45 46.18 75.21 47.95 75.40 C 59.29 76.31 70.31 80.13 81.67 80.62 C 86.40 77.09 89.99 72.17 95.02 69.03 Z" />
<path fill="#aca6a6" opacity="1.00" d=" M 181.17 133.20 C 184.15 129.63 188.50 126.89 193.19 126.55 C 195.31 127.27 197.54 127.36 199.73 126.93 L 200.99 127.18 C 201.49 127.37 202.49 127.73 202.99 127.91 C 206.60 127.73 209.42 130.90 211.84 133.25 C 212.85 134.66 214.75 133.71 216.16 133.90 C 218.42 134.27 220.78 134.43 222.92 133.45 C 227.73 133.77 231.80 138.25 232.22 143.02 C 232.65 144.49 233.23 144.53 233.97 143.14 C 234.24 143.39 234.79 143.89 235.06 144.14 C 235.53 144.35 236.49 144.77 236.96 144.98 C 240.83 145.45 243.37 149.69 244.93 153.03 C 244.97 156.25 245.70 159.84 243.90 162.73 C 241.75 167.03 237.22 169.94 232.53 170.58 C 223.07 169.47 213.51 170.41 204.01 170.07 C 196.14 170.40 188.21 169.46 180.40 170.62 C 175.20 170.10 168.97 166.82 167.94 161.32 C 168.00 158.40 167.84 155.49 167.50 152.60 C 168.65 147.07 174.50 145.19 178.32 141.97 C 179.48 141.04 179.15 139.37 178.96 138.10 C 178.61 136.22 180.14 134.61 181.17 133.20 Z" />
<path fill="#a4a1a1" opacity="0.82" d=" M 193.19 126.55 C 194.85 125.60 198.84 125.00 199.73 126.93 C 197.54 127.36 195.31 127.27 193.19 126.55 Z" />
<path fill="#959191" opacity="0.80" d=" M 200.99 127.18 C 201.45 127.16 202.36 127.11 202.81 127.08 L 202.99 127.91 C 202.49 127.73 201.49 127.37 200.99 127.18 Z" />
<path fill="#979393" opacity="0.82" d=" M 216.16 133.90 C 217.19 132.02 221.10 132.78 222.92 133.45 C 220.78 134.43 218.42 134.27 216.16 133.90 Z" />
<path fill="#969292" opacity="0.82" d=" M 178.32 141.97 C 177.53 141.02 177.33 138.08 178.96 138.10 C 179.15 139.37 179.48 141.04 178.32 141.97 Z" />
<path fill="#939090" opacity="0.80" d=" M 232.22 143.02 C 232.66 143.05 233.53 143.11 233.97 143.14 C 233.23 144.53 232.65 144.49 232.22 143.02 Z" />
<path fill="#959191" opacity="0.82" d=" M 235.06 144.14 C 235.51 144.14 236.41 144.14 236.87 144.14 L 236.96 144.98 C 236.49 144.77 235.53 144.35 235.06 144.14 Z" />
<path fill="#ba9b88" opacity="0.79" d=" M 102.38 148.60 C 102.44 148.56 102.58 148.48 102.65 148.44 C 102.58 148.48 102.44 148.56 102.38 148.60 Z" />
<path fill="#9b9696" opacity="0.86" d=" M 167.50 152.60 C 167.84 155.49 168.00 158.40 167.94 161.32 C 166.10 159.35 166.96 155.21 167.50 152.60 Z" />
<path fill="#979494" opacity="0.80" d=" M 180.40 170.62 C 188.21 169.46 196.14 170.40 204.01 170.07 C 213.51 170.41 223.07 169.47 232.53 170.58 C 230.41 171.22 228.18 170.98 226.01 171.01 C 211.66 170.98 197.31 171.02 182.96 170.99 C 182.32 170.90 181.04 170.72 180.40 170.62 Z" />
</svg>
