<svg id="weather34 breezy" width="302pt" height="255pt" viewBox="0 0 302 255" version="1.1" xmlns="http://www.w3.org/2000/svg">
<path fill="#d05f2d" opacity="1.00" d=" M 31.27 29.22 C 42.14 13.59 62.10 5.01 80.94 7.51 C 101.14 9.60 118.92 24.53 125.32 43.68 C 123.20 44.62 121.21 45.81 119.28 47.08 C 108.07 54.23 100.41 66.93 100.65 80.38 C 89.12 83.69 79.16 92.67 75.91 104.37 C 74.84 107.73 75.23 111.34 75.40 114.80 C 74.74 114.59 73.41 114.18 72.75 113.97 C 59.81 113.43 47.06 108.25 37.69 99.27 C 28.85 90.78 22.89 79.26 21.58 67.03 C 20.01 53.83 23.24 39.91 31.27 29.22 Z" />
<path fill="#e6e8ef" opacity="1.00" d=" M 119.28 47.08 C 129.58 40.75 142.34 38.52 154.15 41.22 C 165.66 43.49 176.07 50.52 182.41 60.40 C 191.51 54.84 203.42 54.09 213.02 58.83 C 221.14 62.58 226.97 70.51 228.23 79.37 C 236.75 80.80 245.07 84.63 250.85 91.20 C 257.65 98.41 260.62 109.22 257.89 118.82 C 255.45 128.62 247.82 136.62 238.67 140.60 C 232.84 143.24 226.37 144.09 220.02 144.00 C 187.00 144.00 153.98 144.00 120.95 143.99 C 111.88 144.13 102.33 144.25 94.06 139.95 C 84.57 135.39 76.62 126.36 75.52 115.63 C 75.77 111.88 75.03 108.08 75.91 104.37 C 79.16 92.67 89.12 83.69 100.65 80.38 C 100.41 66.93 108.07 54.23 119.28 47.08 M 211.70 90.51 C 204.47 90.37 197.24 90.47 190.01 90.48 C 188.38 90.33 187.05 91.36 185.62 91.93 C 186.89 92.87 188.22 93.96 189.92 93.72 C 197.20 93.77 204.48 93.71 211.76 93.69 C 210.20 95.63 206.96 97.64 209.87 100.08 C 212.51 97.43 215.10 94.74 217.72 92.07 C 215.28 89.20 212.59 86.54 209.66 84.16 C 207.28 86.43 210.50 88.61 211.70 90.51 M 225.84 99.77 C 224.94 102.34 227.21 104.14 228.53 106.02 C 214.76 106.21 200.93 105.64 187.19 106.39 C 184.58 108.35 188.23 109.53 190.01 109.29 C 202.86 109.36 215.72 109.28 228.57 109.31 C 227.44 110.78 226.28 112.23 225.14 113.70 C 225.60 114.16 226.52 115.08 226.98 115.54 C 229.75 113.10 232.26 110.39 234.50 107.45 C 231.93 104.57 229.43 101.44 225.84 99.77 M 208.16 116.80 C 209.05 118.88 210.28 120.78 211.74 122.50 C 203.84 122.46 195.92 122.28 188.03 122.71 C 185.97 122.54 186.10 125.69 188.07 125.53 C 195.98 125.77 203.91 125.58 211.82 125.68 C 210.56 127.16 209.27 128.61 208.03 130.10 C 208.55 130.44 209.59 131.14 210.11 131.48 C 212.88 129.46 215.56 127.14 217.35 124.18 C 215.23 120.97 212.42 116.84 208.16 116.80 Z" />
<path fill="#02a4b4" opacity="1.00" d=" M 211.70 90.51 C 210.50 88.61 207.28 86.43 209.66 84.16 C 212.59 86.54 215.28 89.20 217.72 92.07 C 215.10 94.74 212.51 97.43 209.87 100.08 C 206.96 97.64 210.20 95.63 211.76 93.69 C 204.48 93.71 197.20 93.77 189.92 93.72 C 188.22 93.96 186.89 92.87 185.62 91.93 C 187.05 91.36 188.38 90.33 190.01 90.48 C 197.24 90.47 204.47 90.37 211.70 90.51 Z" />
<path fill="#02a4b4" opacity="1.00" d=" M 225.84 99.77 C 229.43 101.44 231.93 104.57 234.50 107.45 C 232.26 110.39 229.75 113.10 226.98 115.54 C 226.52 115.08 225.60 114.16 225.14 113.70 C 226.28 112.23 227.44 110.78 228.57 109.31 C 215.72 109.28 202.86 109.36 190.01 109.29 C 188.23 109.53 184.58 108.35 187.19 106.39 C 200.93 105.64 214.76 106.21 228.53 106.02 C 227.21 104.14 224.94 102.34 225.84 99.77 Z" />
<path fill="#02a4b4" opacity="1.00" d=" M 208.16 116.80 C 212.42 116.84 215.23 120.97 217.35 124.18 C 215.56 127.14 212.88 129.46 210.11 131.48 C 209.59 131.14 208.55 130.44 208.03 130.10 C 209.27 128.61 210.56 127.16 211.82 125.68 C 203.91 125.58 195.98 125.77 188.07 125.53 C 186.10 125.69 185.97 122.54 188.03 122.71 C 195.92 122.28 203.84 122.46 211.74 122.50 C 210.28 120.78 209.05 118.88 208.16 116.80 Z" />
</svg>
