<svg id="weather34 chance ligthning" width="302pt" height="340" viewBox="0 0 302 255" xmlns="http://www.w3.org/2000/svg"><path fill="#e6e8ef" stroke="#e6e8ef" stroke-width=".1" d="M74.2 34.2c12.3-13.2 31-19.6 48.8-18 18 1.4 35.3 11.2 44.7 26.7C183 33 205 34.7 218 48c5.3 5.3 8.7 12.4 9.6 19.8 14.2 2 27.8 10 35 22.6 6.5 11 7.2 25 1.6 36.6-7.2 15.2-23.4 24.8-40 25.8-5.6.3-11.4.2-17.2.2H87c-8.2-.2-16.5.6-24.4-1.4-13.5-3-25.8-12-31.8-24.5-5.2-10.7-5-24 .5-34.6 5.8-11.6 17-19.8 29.3-23.2-.3-13 4.7-25.7 13.6-35m112.4 52.3c-5.4 2.8-8.6 8.5-9 14.5-3 1.4-6 2.8-8 5.6-3.2 4-3.4 10-.6 14.4 3 4.7 8.6 7 14 7h46c4 0 8-1 11.2-3.8 4.8-3.8 6.3-11.2 3-16.4-2.3-4-6.7-6-11-7.3-1.2-3-2.6-6.4-5.6-8-4.3-2.7-9.6-2-14 0-5.7-8.3-17.5-11-26-6z"/><path fill="#777" stroke="#777" stroke-width=".1" d="M186.6 86.5c8.5-5 20.3-2.3 26 6 4.4-2 9.7-2.7 14 0 3 1.6 4.4 5 5.6 8 4.3 1.2 8.7 3.2 11 7.3 3.3 5.2 1.8 12.6-3 16.4-3 2.7-7.2 4-11.3 3.8h-46c-5.4 0-11-2.3-14-7-2.8-4.3-2.6-10.3.6-14.4 2-2.8 5-4.2 8-5.6.4-6 3.6-11.7 9-14.5z"/><path fill="#00a4b4" stroke="#00a4b4" stroke-width=".1" d="M87 153h17.2c-3.2 5.3-6.7 10.5-9.7 16-2-5.6-5.2-10.6-7.5-16z"/><path fill="#d05f2d" stroke="#d05f2d" stroke-width=".1" d="M104.2 153H131l-1.6 2-3 4.3 5.5.7 6.8 1 15.6 2-9.8 9-4.5 4.2-12 11-4.4 4c-3 3-6.3 6-9.5 8.8l-25 23 18.3-29.2 9.8-15.6 3.7-6-7-.8-18.8-2.3h-.5c3-5.5 6.5-10.7 9.7-16z"/><path fill="#00a4b4" stroke="#00a4b4" stroke-width=".1" d="M135 153h17.4l7.4 14.7-1.7 2.8c1 0 2.2.2 3.3.4 3 5.5 5.8 11 8.6 16.8-2.7 4-5.3 8.2-8 12.4-1.2-.4-3.3.3-4-1.3l-13.4-27 9.8-9-15.6-2-4-8zM159 153h10c-2 3-3.8 6-5.6 9l-4.5-9z"/><path fill="#d05f2d" stroke="#d05f2d" stroke-width=".1" d="M169 153h21.7l-4.5 6.3c-1 1.2-1.7 2.3-2.5 3.5l4.5.6c6 .6 11.8 2 17.7 1.8v.5L194.6 176c-1.5 1.5-3 2.8-4.5 4l-11.7 11-4.7 4.2-5.3 4.8-14.3 13 8-12.8 8-12.4c1-2 2.3-3.8 3.5-5.7l5.7-9-11-1.3-7-.8c-1-.3-2-.4-3-.5.3-.7 1-2 1.6-2.8l3.6-5.7 5.6-9z"/><path fill="#00a4b4" stroke="#00a4b4" stroke-width=".1" d="M190.7 153h9.7c1.7 4 4.7 7.8 5.5 12.2-6 .2-12-1.2-17.8-1.8l-2-4 4.5-6.4zM207 153c5.8 0 11.6 0 17.3-.2l18 35.7c1.8 3.7 4.2 7.3 4.8 11.4h-16l-1-1.2-23-45.8zM126.4 159.3l3-4.3 2.5 5-5.6-.7zM206 165.7h.6c4.2 7.4 7.8 15.2 11.7 22.8 1.8 3.7 4 7.3 4.8 11.4h-16c-.3-.3-.8-1-1-1l-11.4-23 11.4-10.3zM95 169c6 1 12.4 1.6 18.6 2.4l3.5 6.8-9.7 15.6c-4-8.3-8.3-16.5-12.3-24.8zM168.3 171.7c3.6.5 7.3 1 11 1.3-2 3-4 6-5.8 9l-5.2-10.3zM128 187.2l12-11 12 23.7h-16c-1.6.3-2-1.3-2.7-2.3l-5.2-10.5zM178.3 191c4-3.8 8-7.3 11.8-11l10 20h-16c-1.7.3-2-1.5-2.7-2.5-1-2.2-2.4-4.3-3-6.6zM114 200l9.6-8.7 4.5 8.6h-14zM168.3 200l5.3-4.8 2.4 4.7h-7.7z"/></svg>
