<svg id="weather34 chance rain" width="302pt" height="340" viewBox="0 0 302 255" xmlns="http://www.w3.org/2000/svg"><path fill="#d05f2d" stroke="#d05f2d" stroke-width=".1" d="M44.4 16.3C62.4 3.7 88 4 105.8 17c-15.4 3-30 12-38 25.6-5 8-7.3 17.3-7.2 26.6-12.3 3.4-23.4 11.7-29.4 23-6-8.8-10-19.3-10-30-1-18 8.3-36 23.2-46z"/><path fill="#e6e8ef" stroke="#e6e8ef" stroke-width=".1" d="M105.8 17c5-1.3 10.3-1.3 15.4-.7 2 .8 4.3 1.3 6.5.8 2.5-.3 5 .6 7.3 1.2 13.3 3.8 25.4 12.3 32.6 24.2C176 38 185.4 35 195 36.7c11.4 1.3 22.5 7.8 28.4 18 2.5 4 3.6 8.5 4.5 13 15.8 2 30.8 12.3 37 27.2 3.4 7.3 3.7 15.7 2.4 23.5C263 138 244 152 224.4 153H74.8c-16.7.8-33.8-8-42.5-22.4-7-11.4-7.7-26.5-1.3-38.3 6-11.4 17-19.7 29.4-23 0-9.4 2-18.8 7-26.7C76 29 90.5 20 106 17m82 68.8c-6 2.6-10 8.7-10 15.2-3 1.3-5.8 2.5-7.7 5-3.3 4-4 10-1.4 14.4 2.8 5 8.7 7.8 14.4 7.6h46c4 0 8-1 11.2-3.8 4.6-3.6 6.2-10.6 3.3-15.8-2-4.4-6.7-6.8-11.3-8-1-2.8-2.3-6-5-7.5-4.4-3.2-10-3-14.6-.6-5.3-7.7-16.3-10.7-24.7-6.6z"/><path fill="#e6e8ef" stroke="#e6e8ef" stroke-width=".1" opacity=".8" d="M121.2 16.3c2-.8 4.8-1 6.6.4v.4c-2.3.6-4.5 0-6.6-.7z"/><path fill="#777" stroke="#777" stroke-width=".1" d="M188 85.8c8.3-4 19.3-1 24.6 6.6 4.5-2.3 10.2-2.6 14.5.5 3 1.5 4 4.6 5.2 7.5 4.6 1.2 9.2 3.5 11.3 8 3 5 1.3 12-3.3 15.7-3 2.7-7.2 4-11.2 3.8h-46c-5.7.2-11.6-2.5-14.4-7.6-2.6-4.5-2-10.5 1.5-14.4 2-2.5 5-3.8 7.7-5 .2-6.5 4.2-12.6 10.2-15.2z"/><path fill="#00a4b4" stroke="#00a4b4" stroke-width=".1" d="M87 153h17.3c8 15.6 15.7 31.4 23.8 47h-16c-1.6.3-2-1.2-2.7-2.2-7.3-15-15-29.8-22.3-44.7zM111 153h17.3c8 15.6 15.7 31.4 23.8 47h-16c-1.5.3-2-1.2-2.6-2-7.4-15.2-15-30-22.4-45zM135 153h17.3c8 15.6 15.8 31.3 23.7 47h-17c-1.3-1-1.6-2.6-2.3-3.8L134.8 153zM159 153h17.3c8 15.6 15.8 31.3 23.7 47h-16c-1.7.3-2-1.4-2.7-2.5L159 153zM183 153h17.4l18.3 36.3c1.6 3.5 4 6.7 4.3 10.6-5.5-.2-11.2.6-16.6-.4-8-15.5-15.7-31-23.4-46.6zM207 153h17.4l21.6 42.8c.6 1.3.8 2.8 1 4-5.4.2-10.7.3-16 0-1-.6-1.5-2-2-3-7.3-14.6-14.8-29-22-43.8z"/></svg>