<svg id="weather34 chance flurries" width="302pt" height="340" viewBox="0 0 302 255" xmlns="http://www.w3.org/2000/svg"><path fill="#d05f2d" stroke="#d05f2d" stroke-width=".1" d="M48.6 13.7c17.6-10 41-8.5 57.3 3.4C89 20.3 73 31 65.4 46.7c-3.5 7-5 14.8-5 22.6-12 3.5-23.3 11.6-29 23C23 81 19.4 66 21.6 52c2.4-16 12.7-30.5 27-38.3z"/><path fill="#e6e8ef" stroke="#e6e8ef" stroke-width=".1" d="M106 17c23-4.5 49.3 5.3 61.7 26 15.5-10 38-8 50.8 5.5 5 5.2 8.2 12 9 19.3 13.6 2 26.5 9.2 34 20.8 6.6 10 8.3 23 4.4 34-4.8 14.2-17.5 25-31.8 28.6-9.4 2.7-19.3 1.6-29 1.8-3.3-5-11.4-5.2-14.7 0h-41.3c-1.7-1.7-3.7-3.3-6-3.4-3-.4-5.5 1.5-7.7 3.2-12.7.4-25.5.4-38 0-3.6-3.3-9.4-3.4-12.7.2-7.5 0-15 .4-22.3-1.4-13.6-3-26-12.3-32-25.2-5-10.7-4.6-23.6 1-34 5.7-11.6 17-19.7 29-23.2 0-7.8 1.5-15.6 5-22.6C73.2 31 89 20.2 106 17M187 86.3c-5.7 2.6-9.2 8.5-9.5 14.8-2.8 1.3-5.7 2.6-7.7 5-3.3 4-4 10-1.4 14.4 2.8 5 8.7 7.7 14.4 7.6h47c8 0 16-6.8 15-15-.6-6.7-6.7-11-12.7-12.5-1.3-3-2.7-6.4-5.8-8-4.2-2.7-9.5-2-14-.2-5.4-7.8-16.7-10.7-25.3-6m-17.7 42.4c-5.6 1.7-8 9.4-3.8 13.6 4.3 5.3 14 2.5 14.8-4.2 1.5-6-5.3-11.5-11-9.3m-52 1c-5.7 2-7 10.4-2 14 4.7 4.5 13.4 1 14-5.6 1-6-6.6-11.4-12-8.3z"/><path fill="#777" stroke="#777" stroke-width=".1" d="M187.2 86.2c8.6-4.6 20-1.7 25.4 6 4.4-1.8 9.7-2.4 14 .3 3 1.6 4.4 5 5.6 8 6 1.3 12.2 5.8 12.7 12.4 1 8.2-7 15-15 15h-47c-5.7 0-11.6-2.5-14.4-7.6-2.6-4.5-2-10.5 1.4-14.4 2-2.4 5-3.7 7.7-5 .3-6.3 3.8-12.2 9.5-15z"/><path fill="#00a4b4" stroke="#00a4b4" stroke-width=".1" d="M169.5 128.7c5.7-2.2 12.5 3.3 11 9.4-1 6.8-10.5 9.6-14.8 4.3-4.3-4.2-1.8-12 3.8-13.6zm-52 1c5.4-3 13 2.2 12 8.4-.6 6.5-9.3 10-14 5.7-5-3.6-3.7-12 2-14zm73 23.2c3.3-5.2 11.4-5 14.7 0 1.2 3.4 1.4 8-1.7 10.5-3.4 3.2-9.4 3-12.3-.7-2.4-2.6-2.6-7-.7-10zm-105.7 0c3.3-3.6 9-3.5 12.6-.2 2.7 3 3 7.8.3 11-1.5 2-4.2 2.8-6.7 3.5-2.4-.7-5.2-1.3-6.8-3.6-2.6-3-2-8 .6-10.8zm50.6-.3c2.3-1.6 4.7-3.5 7.6-3 2.5 0 4.5 1.6 6.2 3.3 4.2 5.2-.5 14-7.2 13.5-6.7 0-11-8.6-6.6-13.8zm27.3 5c4.8-1 10.3 3.2 10 8.3.4 5.7-6.4 10.2-11.6 8-4-1.5-6.5-6.2-5-10.3 1-3 3.6-5.2 6.7-6zm-52.2 1c5.3-2 11.6 2.7 11 8.4 0 6.7-9 10.7-14 6.3-5.3-4-3.2-13 3-14.7zm21 21c3.8-1.3 8.4 0 10.3 3.5 2.8 4.8-.2 11.6-5.7 12.5-4 1-8.7-1.7-9.8-5.8-1.6-4.2 1.3-9 5.3-10.4zm54 0c4.8-3.4 12.4.2 13 6 .7 6.2-6.3 11.6-12 9-6.2-2.2-7-11.8-1-15zm-105.2.5c5-2.4 11.7 2.2 11.4 7.8.3 6-7 10.6-12.4 7.6-6.3-2.6-5.7-13.5 1-15.4z"/></svg>