<?xml version="1.0" encoding="UTF-8" standalone="no"?>
<!DOCTYPE svg PUBLIC "-//W3C//DTD SVG 1.1//EN" "http://www.w3.org/Graphics/SVG/1.1/DTD/svg11.dtd">
<svg width="100%" height="100%" viewBox="0 0 128 128" version="1.1" xmlns="http://www.w3.org/2000/svg" xmlns:xlink="http://www.w3.org/1999/xlink" xml:space="preserve" style="fill-rule:evenodd;clip-rule:evenodd;">
    <path d="M62.44,0L65.12,0C71.65,0.59 77.3,6.35 77.39,12.97C77.52,25.46 77.4,37.96 77.44,50.45C72.64,50.4 67.85,50.39 63.06,50.48C59.83,46.84 54.55,48.98 50.33,48.57C50.31,45.28 50.32,42 50.31,38.72C54.18,38.76 58.06,38.76 61.93,38.74C61.9,37.45 61.86,36.16 61.83,34.87C57.99,34.84 54.15,34.88 50.31,35.05C50.32,31.76 50.32,28.46 50.31,25.17C54.17,25.23 58.03,25.24 61.89,25.22C61.9,23.93 61.91,22.64 61.93,21.35C58.05,21.33 54.18,21.33 50.31,21.37C50.52,16.62 49.5,11.45 51.96,7.09C54,3.16 58.11,0.61 62.44,0Z" style="fill:rgb(218,220,229);fill-rule:nonzero;stroke:rgb(218,220,229);stroke-width:0.09px;"/>
    <path d="M50.31,21.37C54.18,21.33 58.05,21.33 61.93,21.35C61.91,22.64 61.9,23.93 61.89,25.22C58.03,25.24 54.17,25.23 50.31,25.17C50.31,23.91 50.31,22.64 50.31,21.37Z" style="fill:rgb(131,132,137);fill-rule:nonzero;stroke:rgb(131,132,137);stroke-width:0.09px;"/>
    <path d="M50.31,35.05C54.15,34.88 57.99,34.84 61.83,34.87C61.86,36.16 61.9,37.45 61.93,38.74C58.06,38.76 54.18,38.76 50.31,38.72C50.31,37.49 50.31,36.27 50.31,35.05Z" style="fill:rgb(129,130,135);fill-rule:nonzero;stroke:rgb(129,130,135);stroke-width:0.09px;"/>
    <path d="M50.33,48.57C54.55,48.98 59.83,46.84 63.06,50.48C58.9,51.52 54.6,51.61 50.34,51.38C50.34,50.68 50.33,49.27 50.33,48.57Z" style="fill:rgb(132,128,133);fill-rule:nonzero;stroke:rgb(132,128,133);stroke-width:0.09px;"/>
    <path d="M63.06,50.48C67.85,50.39 72.64,50.4 77.44,50.45C77.44,59.35 77.45,68.26 77.43,77.17C82.26,80.37 86.53,84.64 88.77,90.06C92.63,98.91 91.35,109.8 85.37,117.41C80.86,123.4 73.77,127.11 66.38,128L61.96,128C54.84,127.4 47.98,124.04 43.35,118.58C36.72,111.1 34.88,99.82 38.75,90.61C40.93,84.94 45.32,80.46 50.31,77.15C50.32,73.38 50.32,69.6 50.31,65.83C54.18,65.88 58.04,65.88 61.91,65.84C61.9,64.61 61.9,63.38 61.89,62.15C58.03,62.12 54.17,62.12 50.31,62.17C50.31,58.57 50.34,54.98 50.34,51.38C54.6,51.61 58.9,51.52 63.06,50.48M56.3,80.5C52.9,81.51 48.33,83.53 48.37,87.68C49.17,91.6 53.46,93.28 56.9,94.21C62.76,95.44 69.2,95.39 74.71,92.82C76.93,91.68 79.5,89.81 79.4,87.03C79.01,84.06 76.19,82.29 73.65,81.25C68.16,79.1 61.96,79.02 56.3,80.5Z" style="fill:rgb(246,123,51);fill-rule:nonzero;stroke:rgb(223,89,89);stroke-width:0.09px;"/>
    <path d="M50.31,62.17C54.17,62.12 58.03,62.12 61.89,62.15C61.9,63.38 61.9,64.61 61.91,65.84C58.04,65.88 54.18,65.88 50.31,65.83C50.31,64.61 50.31,63.39 50.31,62.17Z" style="fill:rgb(46,36,36);fill-rule:nonzero;stroke:rgb(132,52,52);stroke-width:0.09px;"/>
    <path d="M56.3,80.5C61.96,79.02 68.16,79.1 73.65,81.25C76.19,82.29 79.01,84.06 79.4,87.03C79.5,89.81 76.93,91.68 74.71,92.82C69.2,95.39 62.76,95.44 56.9,94.21C53.46,93.28 49.17,91.6 48.37,87.68C48.33,83.53 52.9,81.51 56.3,80.5Z" style="fill:rgb(10,139,185);fill-rule:nonzero;stroke:rgb(231,131,131);stroke-width:0.09px;"/>
</svg>
