<svg id="weather34 fog icon" width="302pt" height="340" viewBox="0 0 302 255" xmlns="http://www.w3.org/2000/svg"><path fill="#e6e8ef" stroke="#e6e8ef" stroke-width=".1" d="M105.8 17c23.2-4.6 49.5 5.2 62 26C183 33 205 34.7 218 48c5.3 5.3 8.8 12.4 9.6 19.8 14.6 2 28.7 10.6 35.7 23.8 6.2 11.2 6.2 25.5.2 36.8-8 15.4-25.3 24.6-42.4 24.6H74c-15.7 0-31.4-7.6-40.2-20.7-8-11.6-9-27.6-2.4-40 5.8-11.5 17-19.7 29.2-23 0-9.4 2.2-18.7 7-26.6C76 29 90.5 20 106 17M84 66v10.3h132V66H84m0 20.6V97h132V86.5H84m0 20.5v10.4h132V107H84m0 20.7V138h132v-10.3H84z"/><path fill="#00a4b4" stroke="#00a4b4" stroke-width=".1" d="M84 66h132v10.3H84V66zM84 86.6h132V97H84V86.5zM84 107h132v10.4H84V107zM84 127.7h132V138H84v-10.3z"/></svg>
