<svg xmlns="http://www.w3.org/2000/svg" fill-rule="evenodd" stroke-linejoin="round" stroke-miterlimit="1.41421" clip-rule="evenodd" viewBox="0 0 302 255"><g id="#00a4b4ff"><path fill="#00a4b4" fill-rule="nonzero" d="M83.96 55.95c44.02-.01 88.05-.01 132.08 0 .02 3.55.02 7.1-.01 10.65H83.97c-.03-3.55-.03-7.1-.01-10.65zM83.94 86.22c44.03 0 88.06-.01 132.09 0 .03 3.61.03 7.22.01 10.83-44.03.01-88.06 0-132.09 0-.01-3.61 0-7.22-.01-10.83zM83.96 115.95c44.02-.01 88.05-.01 132.08 0 .02 3.59.02 7.18-.01 10.77-44.02.01-88.04.01-132.06 0-.03-3.59-.03-7.18-.01-10.77zM83.98 146.4c44.02.01 88.03 0 132.05 0 .03 3.55.03 7.1.01 10.65-44.02.01-88.05.01-132.08 0-.03-3.56-.03-7.11.02-10.65z"/></g></svg>