<?xml version="1.0" encoding="UTF-8" ?>
<!DOCTYPE svg PUBLIC "-//W3C//DTD SVG 1.1//EN" "http://www.w3.org/Graphics/SVG/1.1/DTD/svg11.dtd">
<svg width="49pt" height="47pt" viewBox="0 0 99 97" version="1.1" xmlns="http://www.w3.org/2000/svg">
<path fill="#01a4b4" opacity="1.00" d=" M 47.84 0.00 L 49.17 0.00 C 55.34 4.03 59.85 10.02 64.71 15.46 C 59.85 21.28 54.52 26.67 48.84 31.69 C 47.40 30.26 46.13 28.67 45.23 26.85 C 47.60 24.07 50.02 21.34 52.63 18.78 C 37.06 18.78 21.48 18.84 5.90 18.81 C 4.10 18.60 1.53 18.98 0.56 17.02 C -1.00 14.71 1.45 11.82 3.99 12.16 C 20.26 11.99 36.54 12.04 52.82 12.02 C 50.16 9.37 46.74 6.91 45.82 3.06 C 45.60 1.61 46.89 0.80 47.84 0.00 Z" />
<path fill="#01a4b4" opacity="1.00" d=" M 80.65 35.94 C 80.28 34.18 81.57 32.47 83.24 32.02 C 84.43 32.17 85.38 32.95 86.28 33.67 C 90.83 37.75 95.32 41.97 99.00 46.87 L 99.00 47.69 C 95.28 54.16 89.02 58.59 83.85 63.81 C 82.56 62.57 81.30 61.31 80.08 60.00 C 82.27 56.85 84.64 53.82 87.22 50.97 C 60.83 50.94 34.44 51.06 8.05 51.00 C 5.24 50.83 1.66 51.39 0.00 48.52 L 0.00 47.49 C 0.41 45.52 2.08 44.15 4.12 44.34 C 31.82 44.05 59.53 44.26 87.24 44.16 C 84.96 41.49 82.38 39.02 80.65 35.94 Z" />
<path fill="#01a4b4" opacity="1.00" d=" M 45.42 67.91 C 46.89 67.22 48.65 65.04 50.22 66.73 C 54.91 70.35 59.12 74.60 62.89 79.17 C 64.33 80.70 64.13 83.16 62.46 84.44 C 57.99 88.56 54.32 93.63 49.20 96.99 C 47.14 96.57 45.65 95.07 45.39 92.97 C 47.78 90.19 50.14 87.39 52.70 84.77 C 36.24 84.78 19.78 84.80 3.32 84.60 C 0.26 84.76 -0.35 80.86 0.97 78.75 C 4.30 78.18 7.68 78.18 11.04 78.22 C 24.99 78.17 38.93 78.11 52.88 78.04 C 49.98 75.01 46.27 72.29 45.42 67.91 Z" />
</svg>
