<svg id="weather34 haze icon" width="302pt" height="340" viewBox="0 0 302 255" xmlns="http://www.w3.org/2000/svg"><path fill="#d05f2d" stroke="#d05f2d" stroke-width=".1" d="M117.5 24.4c11.5-9.2 27-13 41.6-10.7 13.4 2 25.8 9.6 34 20.3 7 9 11 20.5 11 32H97c0-16 7.8-31.8 20.5-41.6z"/><path fill="#00a4b4" stroke="#00a4b4" stroke-width=".1" d="M84 66h132v10.3H84V66z"/><path fill="#d05f2d" stroke="#d05f2d" stroke-width=".1" d="M98 76.3h105c-.6 3.4-1.7 6.8-2.7 10.2h-.7c-32.8.2-65.6 0-98.3 0C99 83.8 99 79.8 98 76.4z"/><path fill="#00a4b4" stroke="#00a4b4" stroke-width=".1" d="M84 86.6h132V97H84V86.5z"/><path fill="#d05f2d" stroke="#d05f2d" stroke-width=".1" d="M106.4 97h88.2c-3 3.5-5.7 7.5-9.6 10h-69c-4-2.5-6.7-6.5-9.6-10z"/><path fill="#00a4b4" stroke="#00a4b4" stroke-width=".1" d="M84 107h132v10.4H84V107z"/><path fill="##d05f2d" stroke="#d05f2d" stroke-width=".1" d="M132.4 117.4h36.2c-5.8 1-11.6 2.6-17.6 2.6-6.3.2-12.4-1.5-18.6-2.6z"/><path fill="#00a4b4" stroke="#00a4b4" stroke-width=".1" d="M84 127.7h132V138H84v-10.3z"/></svg>