<svg id= "heavy rain showers" width="302pt" height="340" viewBox="0 0 302 255" xmlns="http://www.w3.org/2000/svg"><path fill="#e6e8ef" stroke="#e6e8ef" stroke-width=".1" d="M81.6 27.6c21.4-16 53.5-15.4 74.2 1.7 4.7 3.8 8.7 8.4 12 13.6 14.7-9.6 35.7-8.3 48.7 3.6 6 5.4 10.2 13 11 21.2C242 69.8 256 78 263 91c6.5 11.4 6.6 26 .5 37.4-7.6 14.4-23.2 23.4-39.2 24.4-5.7.3-11.5 0-17.3.2H86.8c-8-.2-16 .6-23.7-1.2-13.3-3-25.5-11.3-31.8-23.4-5.5-10.4-6-23.3-1-34 5.4-12.6 17-21.6 30.2-25.2-.7-16.3 7.8-32 21-41.6m106.2 58.2c-6 2.6-10.2 8.7-10.2 15.2-5.7 1.8-10.8 6.7-10.8 13-.3 8 7.4 14 15 14h47c4 0 8.2-1 11.2-3.8 4.6-3.7 6.2-10.6 3.4-15.8-2.2-4.4-6.8-6.8-11.4-7.8-1-2.7-2-5.6-4.5-7.3-4.3-3.4-10.4-3.4-15-.8-5.4-8-16.3-10.7-24.8-6.7z"/><path fill="#777" stroke="#777" stroke-width=".1" d="M188 85.8c8.3-4 19.3-1.2 24.6 6.7 4.7-2.6 10.8-2.6 15 .8 2.6 1.7 3.6 4.6 4.6 7.3 4.6 1 9.2 3.5 11.4 7.8 2.8 5.2 1.2 12-3.4 15.8-3 2.7-7.2 4-11.2 3.8h-47c-7.6 0-15.3-6-15-14 0-6.3 5-11.2 10.8-13 0-6.5 4-12.6 10-15.2z"/><path fill="#00a4b4" stroke="#00a4b4" stroke-width=".1" d="M87 153h17.3c8 15.6 15.7 31.4 23.8 47h-16c-1.6.3-2.2-1.2-2.7-2.3-7.3-15-15-29.6-22.3-44.6zM111 153h17.3c8 15.6 15.7 31.4 23.8 47H136c-1.5.4-2-1.3-2.5-2.2-7.3-15-15-29.7-22.3-44.7zM135 153h17.3c8 15.5 15.8 31.3 23.7 47-5.8-.2-12 .5-17.6-.4-8-15.5-15.7-31-23.5-46.6zM159 153h17.3c8 15.5 15.8 31.3 23.7 47-6-.2-12 .6-17.7-.5L159 153zM183 153h17.4l21.6 43c.7 1 .7 2.6 1 4h-16c-1.2-.7-1.4-2-2-3.2-7.3-14.6-14.8-29-22-43.8zM207 153c5.8 0 11.6 0 17.3-.2l21.7 43c.7 1.3.7 2.8 1 4-5 .2-10 .2-15 .2-1.7.3-2.2-1.5-2.8-2.5-7.3-15-15-29.6-22.2-44.5z"/></svg>
