<?xml version="1.0" encoding="UTF-8" ?>
<svg width="302pt" height="255pt" viewBox="0 0 302 255" version="1.1" xmlns="http://www.w3.org/2000/svg">
<path fill="#565f67" stroke="#565f67" stroke-width="0.09375" opacity="1.00" d=" M 113.59 16.40 C 134.62 14.56 156.29 24.91 167.69 42.76 C 178.90 35.90 193.33 34.40 205.53 39.51 C 217.17 44.01 225.96 54.98 227.64 67.38 C 241.11 69.59 254.17 76.80 261.53 88.55 C 269.57 100.59 270.17 117.27 262.61 129.68 C 255.98 140.89 244.22 148.61 231.59 151.32 C 225.16 152.76 218.54 152.50 211.99 152.51 C 166.33 152.52 120.67 152.54 75.00 152.57 C 59.85 152.81 44.30 146.04 35.34 133.60 C 29.25 125.52 25.87 115.06 27.47 104.94 C 28.74 91.24 38.43 79.57 50.25 73.21 C 53.48 71.38 57.01 70.20 60.48 68.91 C 60.36 52.84 68.38 36.78 81.78 27.77 C 90.96 20.97 102.20 17.04 113.59 16.40 Z" />
<path fill="#d05f2d" stroke="#d05f2d" stroke-width="0.09375" opacity="1.00" d=" M 104.29 152.99 C 113.20 152.88 122.11 152.95 131.02 153.00 C 129.55 155.07 128.09 157.15 126.63 159.24 C 135.83 160.54 145.07 161.64 154.28 162.93 C 132.51 183.03 110.67 203.07 88.84 223.10 C 99.17 206.06 110.10 189.39 120.49 172.38 C 111.81 171.21 103.11 170.19 94.43 168.99 C 97.68 163.64 100.94 158.29 104.29 152.99 Z" />
<path fill="#d05f2d" stroke="#d05f2d" stroke-width="0.09375" opacity="1.00" d=" M 169.35 153.01 C 176.45 152.91 183.56 152.95 190.67 153.00 C 188.59 156.18 186.38 159.28 184.32 162.47 C 191.70 163.40 199.10 164.20 206.48 165.16 C 189.11 181.37 171.61 197.45 153.90 213.29 C 162.26 199.92 170.82 186.67 179.15 173.29 C 172.18 172.41 165.20 171.63 158.23 170.75 C 161.90 164.82 165.61 158.91 169.35 153.01 Z" />
</svg>
