<?xml version="1.0" encoding="UTF-8" standalone="no"?>
<svg
   xmlns:dc="http://purl.org/dc/elements/1.1/"
   xmlns:cc="http://creativecommons.org/ns#"
   xmlns:rdf="http://www.w3.org/1999/02/22-rdf-syntax-ns#"
   xmlns:svg="http://www.w3.org/2000/svg"
   xmlns="http://www.w3.org/2000/svg"
   xmlns:sodipodi="http://sodipodi.sourceforge.net/DTD/sodipodi-0.dtd"
   xmlns:inkscape="http://www.inkscape.org/namespaces/inkscape"
   id="weather34 clear icon"
   width="302pt"
   height="340"
   viewBox="0 0 302 255"
   version="1.1"
   sodipodi:docname="mostlyclear.svg"
   inkscape:version="0.92.2 5c3e80d, 2017-08-06">
  <metadata
     id="metadata9">
    <rdf:RDF>
      <cc:Work
         rdf:about="">
        <dc:format>image/svg+xml</dc:format>
        <dc:type
           rdf:resource="http://purl.org/dc/dcmitype/StillImage" />
        <dc:title></dc:title>
      </cc:Work>
    </rdf:RDF>
  </metadata>
  <defs
     id="defs7" />
  <sodipodi:namedview
     pagecolor="#ffffff"
     bordercolor="#666666"
     borderopacity="1"
     objecttolerance="10"
     gridtolerance="10"
     guidetolerance="10"
     inkscape:pageopacity="0"
     inkscape:pageshadow="2"
     inkscape:window-width="779"
     inkscape:window-height="480"
     id="namedview5"
     showgrid="false"
     inkscape:zoom="0.69411765"
     inkscape:cx="201.33333"
     inkscape:cy="170"
     inkscape:window-x="0"
     inkscape:window-y="0"
     inkscape:window-maximized="0"
     inkscape:current-layer="weather34 clear icon" />
  <path
     fill="#d05f2d"
     stroke="#d05f2d"
     stroke-width=".1"
     d="M147.5 5h8v29.2h-8V5zM96.6 34.5l6-6 16.8 17c-2 1.8-3.8 4.2-6.2 5.7-5.4-5.7-11-11-16.6-16.7zM184.6 45.4l17-16.8 5.8 6-17 16.8-5.8-6zM143.6 46.8c8.3-1.5 17-.7 24.6 3 11 5.2 19 15.8 21.2 27.7 1.3 8 .4 16.5-3.2 23.8-5 10.6-15.3 18.6-27 21-8.3 1.5-17.4.6-25-3.5-10.8-5.3-18.7-16-20.6-27.8-1.2-7.8-.3-16 3.2-23.3 5-10.5 15.3-18.6 26.8-21zM72 80.5h29.2v8H72v-8zM201.8 80.5H231v8h-29.2v-8zM96.6 133.5l17-17 5.8 6-17 17-5.8-6zM184.6 122.5l6-6 16.8 17-6 6c-5.5-5.8-11.2-11.4-16.8-17zM147.5 134.8h8V164h-8v-29.2z"
     id="path2" />
  <g
     id="g78"
     transform="translate(26.32041,33.049806)">
    <path
       id="path97"
       d="m 110.01,87.01 c 7.83,-4.81 18.88,-2.39 24.03,5.2 4.36,-2.02 9.9,-2.33 13.81,0.85 2.25,1.53 3.25,4.13 4,6.64 5.14,1.02 10.12,4.47 11.46,9.77 2.23,7.49 -4.72,15.27 -12.21,15.4 -15.04,0.11 -30.1,0.04 -45.14,0.03 -7.66,0.36 -14.96,-7.06 -13.22,-14.82 0.78,-4.95 5.09,-8.23 9.48,-9.97 0.42,-5.29 3.03,-10.47 7.79,-13.1 m 30.07,17.91 c -1.84,1.23 -3,3.14 -4.36,4.82 -1.07,1.73 -2.96,3.86 -1.55,5.95 1.44,2.3 4.48,1.99 6.82,2.19 4.22,0.02 8.5,0.28 12.68,-0.4 2.37,-0.35 3.92,-2.99 3.05,-5.24 -2.17,-3.12 -5.41,-5.65 -9.28,-6.08 -2.34,-0.75 -4.9,-2.7 -7.36,-1.24 z"
       inkscape:connector-curvature="0"
       style="opacity:1;fill:#e6e8ef" />
    <path
       d="m 256.09375,130.96289 c -5.00905,-0.09 -10.04346,1.00904 -14.6543,2.9707 -8.62666,4.37334 -14.43867,13.34641 -14.63867,23.06641 -7.58667,2.77333 -14.18706,8.50747 -16.40039,16.49414 -0.64,5.93333 0.64055,12.25258 4.56055,16.89258 4.72,5.82667 12.30635,8.61294 19.67968,8.59961 12.02667,0.13333 24.06514,-0.0797 36.0918,0.0137 12.48,-0.0933 24.96107,0.14591 37.42774,-0.10742 11.57333,-0.52 22.89336,-10.73284 21.69336,-22.82617 -0.64,-10.37334 -10.06704,-17.83943 -19.70704,-19.7461 -1.48,-6.57333 -6.17395,-12.1863 -12.64062,-14.29297 -5.8,-2.08 -11.83904,-0.50671 -17.3457,1.61328 -4.6,-5.33333 -10.17297,-10.3471 -17.29297,-11.7871 -2.225,-0.5625 -4.4966,-0.8497 -6.77344,-0.89063 z m 36.2793,33.38281 c 5.82666,0.18667 11.46674,3.18813 17.08007,4.82813 3.72,3.14666 10.01292,6.25239 8.90626,12.03906 -0.73334,4.12 -5.34607,5.76104 -9.05274,5.73438 -7.53333,0.18666 -15.09328,0.41283 -22.61328,-0.17383 -4.57333,-0.04 -9.45326,-5.89393 -5.91992,-9.94727 3.6,-4.29333 6.02627,-10.4538 11.59961,-12.48047 z"
       style="opacity:1;fill:#e4e3e3;stroke-width:1.33333337"
       transform="scale(0.75000001)"
       id="path99"
       inkscape:connector-curvature="0" />
    <path
       id="path101"
       d="m 140.08,104.92 c 2.46,-1.46 5.02,0.49 7.36,1.24 3.87,0.43 7.11,2.96 9.28,6.08 0.87,2.25 -0.68,4.89 -3.05,5.24 -4.18,0.68 -8.46,0.42 -12.68,0.4 -2.34,-0.2 -5.38,0.11 -6.82,-2.19 -1.41,-2.09 0.48,-4.22 1.55,-5.95 1.36,-1.68 2.52,-3.59 4.36,-4.82 z"
       inkscape:connector-curvature="0"
       style="opacity:1;fill:#cccccc" />
    <path
       id="path103"
       d="m 219.28,123.26 c 4.37,0.14 8.6,2.39 12.81,3.62 2.79,2.36 7.51,4.69 6.68,9.03 -0.55,3.09 -4.01,4.32 -6.79,4.3 -5.65,0.14 -11.32,0.31 -16.96,-0.13 -3.43,-0.03 -7.09,-4.42 -4.44,-7.46 2.7,-3.22 4.52,-7.84 8.7,-9.36 z"
       inkscape:connector-curvature="0"
       style="opacity:1;fill:#777777" />
    <path
       transform="scale(0.75000001)"
       inkscape:connector-curvature="0"
       id="path3852"
       d="m 250.64028,97.072488 c 0.14468,-1.055562 0.26306,-4.347962 0.26306,-7.316442 v -5.397237 l 1.22088,1.169678 c 0.67149,0.643324 1.34127,1.748495 1.48842,2.455937 0.14714,0.707443 0.53822,1.713412 0.86907,2.235487 0.63734,1.005723 2.32982,7.138083 2.04786,7.420035 -0.13997,0.139972 -5.512,1.351747 -5.99255,1.351747 -0.0879,0 -0.0414,-0.863642 0.10326,-1.919205 z"
       style="fill:#ffffff;stroke-width:0.41366002" />
    <path
       transform="scale(0.75000001)"
       inkscape:connector-curvature="0"
       id="path3854"
       d=""
       style="fill:#ffffff;stroke-width:0.41366002" />
    <path
       transform="scale(0.75000001)"
       inkscape:connector-curvature="0"
       id="path3856"
       d="m 265.1074,121.29579 c -0.41806,-0.15212 -0.90217,-0.19431 -1.07579,-0.0937 -0.17363,0.10056 -1.29051,-0.0924 -2.48196,-0.42879 -1.19145,-0.33639 -2.97526,-0.74056 -3.96401,-0.89815 -0.98874,-0.15759 -1.64026,-0.42273 -1.44781,-0.5892 0.60591,-0.52409 9.34402,-2.15996 9.65832,-1.80814 0.16483,0.1845 0.49221,0.8939 0.7275,1.57644 0.2353,0.68254 0.55586,1.55637 0.71236,1.94185 0.30199,0.74379 -0.57064,0.86667 -2.12861,0.29974 z"
       style="fill:#ffffff;stroke-width:0.41366002" />
  </g>
</svg>
