<svg id="weather34 mostly sunny icon" width="302pt" height="340" viewBox="0 0 302 255" xmlns="http://www.w3.org/2000/svg"><path fill="#d05f2d" stroke="#d05f2d" stroke-width=".1" d="M47.4 14.4C65.2 3.7 89 4.8 105.8 17c10.6 7.7 18.3 19.3 21 32 3.3 15.2-.3 31.8-9.8 44-8.8 11.6-22.5 19.3-37 20.7-18.5 2-37.8-6.4-48.7-21.6-9-12-12.3-28.3-9-43 3-14.5 12.5-27.3 25-34.6z"/><path fill="#e6e8ef" stroke="#e6e8ef" stroke-width=".1" d="M105.8 17c23.3-4.6 49.5 5.2 62 26 15-10 36.7-8.2 49.7 4.5 5.6 5.4 9.3 12.6 10 20.3 14.7 2 28.7 10.6 35.8 23.8 6 11 6.3 25 .5 36.2C256 143.4 238.4 153 221 153H74c-16 0-32.5-8-41-22-7.4-11.5-8-26.8-1.7-39 11 15.3 30.2 23.8 48.7 21.7 14.5-1.4 28.2-9 37-20.7 9.5-12.2 13-28.8 9.7-44-2.6-12.7-10.3-24.3-21-32m83.6 68.3c-6.6 2.2-11.5 8.6-11.6 15.7-2.5 1.2-5.3 2.3-7.2 4.5-3.6 3.7-4.5 9.6-2.3 14.2 2.6 5.5 9 8.5 14.8 8.3h47c7.6 0 15.2-6 15-14 0-7-6.3-12.3-12.8-13.4-1-2.5-1.8-5.2-4-7-4.2-3.6-10.7-3.8-15.5-1-5-7.4-15-10.6-23.4-7.3z"/><path fill="#777" stroke="#777" stroke-width=".1" d="M189.3 85.3c8.3-3.3 18.3 0 23.3 7.2 5-2.7 11.4-2.5 15.6 1.2 2.2 1.7 3 4.4 4 7 6.5 1 12.8 6.3 12.8 13.3.2 8-7.4 14-15 14h-47c-6 .2-12.2-2.8-14.8-8.3-2.2-4.6-1.3-10.5 2.3-14.2 2-2.2 4.7-3.3 7.3-4.5 0-7 5-13.5 11.5-15.7z"/></svg>