<?xml version="1.0" encoding="UTF-8" ?>
<!DOCTYPE svg PUBLIC "-//W3C//DTD SVG 1.1//EN" "http://www.w3.org/Graphics/SVG/1.1/DTD/svg11.dtd">
<svg width="302pt" height="255pt" viewBox="0 0 302 255" version="1.1" xmlns="http://www.w3.org/2000/svg">
<path fill="#f05e40" opacity="1.00" d=" M 173.87 21.72 C 192.34 29.59 208.03 44.19 216.48 62.48 C 222.87 76.15 224.81 91.59 223.13 106.52 C 218.78 104.96 214.25 106.14 210.12 107.73 C 206.67 103.73 202.49 99.97 197.15 98.89 C 191.81 97.54 186.11 98.31 181.08 100.45 C 186.26 87.71 189.24 73.81 187.64 60.03 C 186.62 46.25 181.01 33.37 173.87 21.72 Z" />
<path fill="#e6e8ef" opacity="1.00" d=" M 110.01 87.01 C 117.84 82.20 128.89 84.62 134.04 92.21 C 138.40 90.19 143.94 89.88 147.85 93.06 C 150.10 94.59 151.10 97.19 151.85 99.70 C 156.99 100.72 161.97 104.17 163.31 109.47 C 165.54 116.96 158.59 124.74 151.10 124.87 C 136.06 124.98 121.00 124.91 105.96 124.90 C 98.30 125.26 91.00 117.84 92.74 110.08 C 93.52 105.13 97.83 101.85 102.22 100.11 C 102.64 94.82 105.25 89.64 110.01 87.01 M 140.08 104.92 C 138.24 106.15 137.08 108.06 135.72 109.74 C 134.65 111.47 132.76 113.60 134.17 115.69 C 135.61 117.99 138.65 117.68 140.99 117.88 C 145.21 117.90 149.49 118.16 153.67 117.48 C 156.04 117.13 157.59 114.49 156.72 112.24 C 154.55 109.12 151.31 106.59 147.44 106.16 C 145.10 105.41 142.54 103.46 140.08 104.92 Z" />
<path fill="#e4e3e3" opacity="1.00" d=" M 181.08 100.45 C 186.11 98.31 191.81 97.54 197.15 98.89 C 202.49 99.97 206.67 103.73 210.12 107.73 C 214.25 106.14 218.78 104.96 223.13 106.52 C 227.98 108.10 231.50 112.31 232.61 117.24 C 239.84 118.67 246.91 124.27 247.39 132.05 C 248.29 141.12 239.80 148.78 231.12 149.17 C 221.77 149.36 212.41 149.18 203.05 149.25 C 194.03 149.18 185.00 149.34 175.98 149.24 C 170.45 149.25 164.76 147.16 161.22 142.79 C 158.28 139.31 157.32 134.57 157.80 130.12 C 159.46 124.13 164.41 119.83 170.10 117.75 C 170.25 110.46 174.61 103.73 181.08 100.45 M 219.28 123.26 C 215.10 124.78 213.28 129.40 210.58 132.62 C 207.93 135.66 211.59 140.05 215.02 140.08 C 220.66 140.52 226.33 140.35 231.98 140.21 C 234.76 140.23 238.22 139.00 238.77 135.91 C 239.60 131.57 234.88 129.24 232.09 126.88 C 227.88 125.65 223.65 123.40 219.28 123.26 Z" />
<path fill="#ccc" opacity="1.00" d=" M 140.08 104.92 C 142.54 103.46 145.10 105.41 147.44 106.16 C 151.31 106.59 154.55 109.12 156.72 112.24 C 157.59 114.49 156.04 117.13 153.67 117.48 C 149.49 118.16 145.21 117.90 140.99 117.88 C 138.65 117.68 135.61 117.99 134.17 115.69 C 132.76 113.60 134.65 111.47 135.72 109.74 C 137.08 108.06 138.24 106.15 140.08 104.92 Z" />
<path fill="#777" opacity="1.00" d=" M 219.28 123.26 C 223.65 123.40 227.88 125.65 232.09 126.88 C 234.88 129.24 239.60 131.57 238.77 135.91 C 238.22 139.00 234.76 140.23 231.98 140.21 C 226.33 140.35 220.66 140.52 215.02 140.08 C 211.59 140.05 207.93 135.66 210.58 132.62 C 213.28 129.40 215.10 124.78 219.28 123.26 Z" />
<path fill="#f05e40" opacity="1.00" d=" M 80.78 142.31 C 106.29 151.97 136.56 147.28 157.80 130.12 C 157.32 134.57 158.28 139.31 161.22 142.79 C 164.76 147.16 170.45 149.25 175.98 149.24 C 185.00 149.34 194.03 149.18 203.05 149.25 C 185.37 168.59 158.03 178.31 132.10 174.44 C 114.27 171.84 97.53 162.78 85.35 149.54 C 83.02 146.97 80.46 144.50 79.07 141.26 C 79.50 141.52 80.35 142.05 80.78 142.31 Z" />
</svg>
