<svg id="no sun" width="16pt" height="16pt" viewBox="0 0 80 80" fill="#777" xmlns="http://www.w3.org/2000/svg"><g><path d=" M 39.64 0.00 L 41.31 0.00 C 41.33 5.71 41.32 11.42 41.32 17.12 L 39.64 17.13 C 39.63 11.42 39.62 5.71 39.64 0.00 Z" /><path d=" M 39.64 62.89 L 41.32 62.90 C 41.32 68.60 41.32 74.30 41.32 80.00 L 39.64 80.00 C 39.62 74.30 39.63 68.59 39.64 62.89 Z" /></g><g><path d=" M 51.06 23.23 C 55.65 18.54 60.31 13.94 64.88 9.23 C 66.21 10.68 67.58 12.09 68.95 13.51 C 64.38 17.99 59.89 22.57 55.36 27.09 C 54.96 27.49 54.56 27.89 54.16 28.29 C 45.68 36.78 37.20 45.27 28.73 53.77 C 28.43 54.05 27.84 54.63 27.54 54.92 C 23.72 58.88 19.65 62.62 16.03 66.77 C 14.73 65.29 13.35 63.88 11.92 62.54 C 15.86 58.62 19.78 54.66 23.71 50.72 C 24.16 50.27 24.61 49.82 25.06 49.36 C 33.28 41.12 41.45 32.83 49.69 24.61 C 50.15 24.15 50.61 23.69 51.06 23.23 Z" /></g><g><path d=" M 15.92 15.94 L 16.99 15.70 C 19.65 17.84 22.19 20.40 24.32 23.09 L 24.11 24.64 C 21.09 22.50 18.63 19.68 16.06 17.05 L 15.92 15.94 Z" /></g><g><path d=" M 21.50 34.37 C 23.63 27.35 29.86 21.71 37.14 20.56 C 41.92 19.48 46.86 20.96 51.06 23.23 C 50.61 23.69 50.15 24.15 49.69 24.61 C 42.68 20.60 33.20 21.65 27.66 27.67 C 21.96 33.28 21.36 42.50 25.06 49.36 C 24.61 49.82 24.16 50.27 23.71 50.72 C 20.79 45.85 19.92 39.84 21.50 34.37 Z" /></g><g><path d=" M 54.16 28.29 C 54.56 27.89 54.96 27.49 55.36 27.09 C 58.39 30.66 60.41 35.25 60.19 40.00 C 60.52 48.86 53.78 57.19 45.25 59.22 C 39.12 61.04 32.29 59.04 27.54 54.92 C 27.84 54.63 28.43 54.05 28.73 53.77 C 32.40 56.12 36.52 58.23 41.01 57.95 C 49.97 57.76 58.13 49.99 58.22 40.93 C 58.62 36.33 56.74 31.98 54.16 28.29 Z" /></g><g><path d=" M 0.00 39.45 C 3.27 38.70 6.64 39.06 9.96 38.98 C 12.88 39.10 16.04 38.44 18.67 40.07 C 12.72 42.01 6.18 40.71 0.00 40.81 L 0.00 39.45 Z" /></g><g><path d=" M 63.54 39.06 C 69.02 39.03 74.53 38.77 80.00 39.32 L 80.00 40.65 C 74.52 41.37 68.96 40.94 63.45 40.95 C 63.47 40.47 63.52 39.53 63.54 39.06 Z" /></g><g><path d=" M 56.66 56.76 C 60.36 57.08 62.16 61.21 64.89 63.35 C 64.98 63.84 65.14 64.84 65.22 65.33 C 61.71 63.47 58.57 60.24 56.66 56.76 Z" /></g>
</svg>