<svg width="302pt" height="340" viewBox="0 0 302 255" xmlns="http://www.w3.org/2000/svg"><path fill="#505153" stroke="#505153" stroke-width=".1" d="M73.7 34.7C86 21 105 14.7 123 16.3c18 1.4 35.3 11 44.7 26.6 15.2-9.8 37-8.3 49.8 4.5 5.6 5.4 9 12.6 10 20.3 14.3 2 28 10 35 22.6 6.7 11 7.3 25.2 1.6 36.7-7.6 16.3-25.4 26-43 26H74c-15 0-30-7-39-19-7-9-9.6-21.2-7-32.3 3.4-16 17-28.3 32.6-32.5-.3-12.7 4.5-25.3 13-34.5m120.8 29c-11 1.2-21 7.4-27.2 16.5-6 8.5-8.2 19.5-6 29.7 2 10 8.3 19.3 17 24.8 10 6.6 23.2 7.8 34.4 3.7 8.2-3 15.2-8.8 19.7-16.3 5.2-8.3 6.8-18.7 4.8-28.2-2-9.7-8-18.4-16-24-7.7-5.2-17.3-7.5-26.6-6.4m-126 31c-5.6 2.7-4.8 12.7 1.7 13.6 5.3 1.4 9.7-4 8.4-8.8-.5-4.6-6-6.6-10-4.8M80 94v14.3h3.5v-5.5h4.8V100h-4.8v-3.2h5.3V94H80m11 0v14.3h3.5v-5.5h4.8V100h-4.8v-3.2h5.3V94H91m11 0v14.3h8.7v-2.8h-5.2V94H102m11 0v14.3h3.5V94H113m6.2 0v14.3h3.3v-9l5 9h3.8V94H128v8l-4.7-8h-4m14.7 0v14.3h9v-2.8h-5.5v-2.7h5V100h-5v-3.2h5.3V94H134z"/><path fill="#f7f7f7" stroke="#f7f7f7" stroke-width=".1" d="M194.4 63.6c9.3-1 19 1.2 26.6 6.5 8 5.6 14 14.3 16 24 2 9.5.5 20-4.7 28.2-4.5 7.5-11.5 13.3-19.7 16.3-11.2 4-24.4 3-34.4-3.7-8.7-5.5-15-14.8-17-25-2.2-10 0-21 6-29.6 6-9 16.3-15.3 27.2-16.6m14.4 22c3 2.5 7 4 9.5 7 2 2.2 3.6 5.4 6.8 6-1.2-3.8-3-7.7-6.2-10.5-2.8-2-6.5-3.3-10-2.3m-26.5.7c-5.2 2-7.6 7.5-9.3 12.4 3.8-1.3 5.3-5.2 8.2-7.6 2.4-2.3 6-3.2 7.6-6-2.2 0-4.4.4-6.5 1.2m5 7.7c-4 2.5-4 9.5 0 11.7 3.8 1 5.8-3.7 5.3-6.7 0-2.6-2.5-6.4-5.4-5m18.4 5c-.7 3.2 2 8.2 5.8 6.4 4-3 3-10-1.4-12.2-2 1.3-4.5 3-4.4 5.8m-30.3 16.4c-1.5 2.2-3.6 4.6-2.8 7.5.7 5.8 8.2 8.8 13 5.4 3-2.2 4.8-7 2.4-10.3-2.8-4-5.6-8.2-7.3-13-1.4 3.7-3 7.3-5.4 10.4M191 123c-1.3 1.8-1.7 4-2.4 6 2.8-1.2 5.5-3 8.5-3.7 4.7-1 8.7 2 12.7 3.7-.8-2.3-1.3-5-3-6.6-4-4.3-12-4-15.6.7z"/><path fill="#505153" stroke="#505153" stroke-width=".1" d="M208.8 85.7c3.5-1 7.2.4 10 2.4 3.2 3 5 6.8 6.3 10.7-3-.8-4.6-4-6.7-6-2.6-3-6.4-4.6-9.5-7zM182.3 86.4c2-.8 4.3-1 6.5-1.3-1.7 3-5.2 4-7.6 6.2-3 2.4-4.4 6.3-8.2 7.6 1.7-5 4-10.5 9.3-12.4z"/><path fill="#e4e3e3" stroke="#e4e3e3" stroke-width=".1" d="M68.4 94.6c4-1.8 9.5.2 10 4.8 1.3 5-3 10.2-8.3 8.8-6.4-1-7.2-11-1.6-13.6m0 7.4c.2 2 2.3 3 3.6 4.2 3.4-2.6 3.5-7.7 0-10-2 1.3-4 3.2-3.5 5.8zM80 94h8.8v2.8h-5.3v3.2h4.8v2.8h-4.8v5.5H80V94zM91 94h8.8v2.8h-5.3v3.2h4.8v2.8h-4.8v5.5H91V94z"/><path fill="#9aba2f" stroke="#9aba2f" stroke-width=".1" d="M102 94h3.5v11.5h5.3v2.8H102V94zM113 94h3.5v14.3H113V94zM119.2 94h4c1.7 2.7 3.3 5.3 4.8 8v-8h3.3v14.3h-3.7l-5-9v9H119V94zM134 94h8.8v2.7h-5.3v3.3h5v2.7h-5v2.8h5.5v2.8h-9V94z"/><path fill="#505153" stroke="#505153" stroke-width=".1" d="M187.2 94c3-1.4 5.5 2.4 5.4 5 .6 3-1.5 7.7-5.2 6.7-4-2.2-4.2-9.2-.2-11.6zM205.6 99c0-2.8 2.3-4.5 4.4-5.8 4.4 2.3 5.5 9 1.3 12.2-3.7 1.8-6.4-3.2-5.7-6.4zM68.5 102c-.6-2.6 1.5-4.5 3.4-6 3.5 2.5 3.4 7.6 0 10.2-1.3-1.3-3.4-2-3.5-4.2zM175.3 115.4c2.4-3 4-6.7 5.4-10.4 1.7 4.8 4.5 9 7.2 13 2.3 3.4.5 8.2-2.6 10.4-4.7 3.4-12.2.3-13-5.5-.7-3 1.4-5.4 3-7.6zM191 123c3.6-4.6 11.6-5 15.6-.6 1.8 1.7 2.3 4.3 3 6.6-4-1.7-8-4.8-12.5-3.7-3 .8-5.6 2.5-8.4 3.7.7-2 1-4.2 2.5-6z"/></svg>