<svg width="302pt" height="340" viewBox="0 0 302 255" xmlns="http://www.w3.org/2000/svg"><path fill="#565f67" stroke="#565f67" stroke-width=".1" d="M75.7 32.7C88 20.5 106 14.7 123 16.3c18 1.4 35.3 11 44.7 26.6 15.2-10 37-8.2 49.8 4.5 5.6 5.4 9.2 12.6 10 20.3 13.4 1.8 26 9 33.6 20.2 6.7 9.6 8.8 22 5.4 33.2-4 13.5-15.3 24.2-28.5 28.8-10.5 4-21.8 2.8-32.8 3-3.2-5-11.5-5.3-14.7 0h-41.3c-3.4-4.5-10.3-4.4-13.7 0h-38c-3.5-3.5-9.4-3.7-12.7 0-7.6 0-15.4.4-23-1.5-13-3.2-25-12-31-24.3-5-10.4-5-23 0-33.5 5.5-12.2 17-21 30-24.5-.6-13.6 5-27 15-36.5m112 53c-6 2.7-10 8.8-10 15.3-5.7 1.8-10.8 6.7-10.8 13-.3 8 7.4 14 15 14h47c3.8 0 7.6-1 10.6-3.3 4.8-3.4 6.8-10.2 4.3-15.6-2.2-4.7-7-7.4-11.8-8.5-1-3-2.3-6-5-7.6-4.3-3-10-3-14.6-.5-5.3-8-16.3-10.7-24.7-6.7m-18.6 43c-5.8 1.7-8 10-3.2 14 4.8 5 14.5 1.2 14.4-5.8.7-5.7-6-10.3-11.2-8.3m-52 1c-5.6 2-7 10.4-2 14 4.8 4.5 13.6.8 14-5.7 1-6.2-6.5-11.4-12-8.3z"/><path fill="#aca6a6" stroke="#aca6a6" stroke-width=".1" d="M188 85.8c8.3-4 19.3-1.2 24.6 6.7C217 90 223 90 227.2 93c2.7 1.6 4 4.6 5 7.5 4.8 1 9.6 3.8 11.7 8.6 2.4 5.5.4 12.3-4.4 15.7-3 2.3-6.8 3.4-10.6 3.3h-47c-7.6 0-15.3-6-15-14 0-6.3 5-11.2 10.8-13 0-6.5 4-12.6 10-15.2z"/><path fill="#00a4b4" stroke="#00a4b4" stroke-width=".1" d="M169.4 128.7c5.3-2 12 2.6 11.2 8.3 0 7-9.6 10.8-14.4 5.8-4.8-4-2.6-12.3 3.2-14zM117.4 129.7c5.5-3 13 2 12 8.3-.4 6.5-9.2 10.2-14 5.7-5-3.6-3.6-12 2-14zM190.5 153c3.2-5.3 11.5-5 14.7 0 1.2 3.4 1.4 8-1.7 10.5-3.2 3-8.8 3-12-.2-2.6-2.6-3-7.2-1-10.3zM84.8 153c3.3-3.7 9.3-3.5 12.6 0 2.7 2.8 3 7.7.3 10.7-1.5 2.2-4.2 3-6.7 3.6-2.5-.6-5.2-1.3-6.8-3.6-2.6-3-2.2-8 .6-10.7zM135.5 153c3.4-4.4 10.3-4.5 13.7 0 4.3 5.3-.5 14-7.2 13.5-6.6.2-11-8.5-6.5-13.5zM162.7 157.8c5-1.2 10.3 3 10 8.2.4 4.6-4.2 8.7-8.7 8.5-4.6 0-8.7-4-8.4-8.6.2-4 3.4-7.4 7-8.2zM105.4 170.6c-3-5.2 1.6-12.6 7.6-12.3 5-.4 9.6 4.8 8.5 9.8-.7 4.2-4.6 6.7-8.5 7.3-3-.6-6.2-1.7-7.6-4.7zM131.5 179.5c3.3-.8 7.3-.3 9.5 2.6 4 4.6 1 12.8-5 13.7-4 1-8.7-1.7-9.8-5.8-1.5-4.2 1.3-9 5.3-10.5zM185.4 179.8c5-3.5 12.5 0 13 6 .7 6-6.2 11.5-11.8 8.8-6.3-2-7-11.7-1.2-14.8zM80.3 180.2c5.2-2.3 11.7 2.2 11.4 7.8.2 6-7 10.5-12.4 7.6-6.3-2.7-5.7-13.6 1-15.4z"/></svg>