<svg width="302pt" height="340" viewBox="0 0 302 255" xmlns="http://www.w3.org/2000/svg"><path fill="#ce5d5a" stroke="#ce5d5a" stroke-width=".1" d="M117 24.8c11.6-9.5 27.4-13.5 42.2-11 13.5 2 26 9.7 34.2 20.7 6.8 9 10.5 20.2 10.6 31.5H97c0-15.8 7.6-31.4 20-41.2z"/><path fill="#00a4b4" stroke="#00a4b4" stroke-width=".1" d="M84 66h132v10.3H84V66z"/><path fill="#ce5d5a" stroke="#ce5d5a" stroke-width=".1" d="M98 76.3h105c-.7 3.5-1.6 7-3 10.3h-98.7l-.6-.3c-1.3-3.2-2-6.6-2.8-10z"/><path fill="#00a4b4" stroke="#00a4b4" stroke-width=".1" d="M84 86.6H216V97H84V86.5z"/><path fill="#ce5d5a" stroke="#ce5d5a" stroke-width=".1" d="M106.4 97h88.2c-2.8 3.6-5.7 7.3-9.4 10.2h-69.4c-3.7-3-6.6-6.6-9.4-10.3z"/><path fill="#00a4b4" stroke="#00a4b4" stroke-width=".1" d="M84 107c10.6 0 21.2 0 31.8.2H216v10.2H84V107z"/><path fill="#ce5d5a" stroke="#ce5d5a" stroke-width=".1" d="M132.5 117.4h36c-6 1-12.2 2.8-18.5 2.6-6 0-11.7-1.5-17.5-2.6z"/><path fill="#00a4b4" stroke="#00a4b4" stroke-width=".1" d="M84 127.7h132V138H84v-10.3z"/></svg>