<?xml version="1.0" encoding="UTF-8" ?>
<svg id="weather34 mostly cloudy night" width="302pt" height="255pt" viewBox="0 0 302 255" version="1.1" xmlns="http://www.w3.org/2000/svg">
<path fill="#565f67" opacity="1.00" stroke-width="1" stroke="#565f67" d=" M 111.12 16.65 C 130.62 14.15 151.20 22.10 163.68 37.34 C 165.10 39.08 166.24 41.05 167.74 42.73 C 180.81 34.66 198.36 34.25 211.44 42.51 C 220.16 47.91 226.18 57.22 227.66 67.35 C 240.87 69.61 253.72 76.52 261.13 87.94 C 269.67 100.22 270.32 117.61 262.24 130.28 C 253.62 144.32 237.12 152.52 220.83 152.49 C 172.21 152.55 123.59 152.56 74.97 152.57 C 61.69 152.78 48.27 147.61 38.99 138.03 C 34.06 132.61 29.94 126.20 28.31 118.98 C 25.93 111.17 27.31 102.78 29.65 95.13 C 34.26 85.19 42.28 76.82 52.27 72.23 C 54.89 70.92 57.79 70.18 60.24 68.53 C 60.96 64.65 60.92 60.65 61.89 56.81 C 64.63 45.65 71.23 35.35 80.59 28.60 C 82.68 27.08 84.79 25.58 86.97 24.18 C 94.51 20.31 102.60 17.21 111.12 16.65 Z" />
<path fill="#ce5d5a" opacity="1.00"  d=" M 32.00 52.95 C 39.72 37.25 55.63 25.93 73.03 23.88 C 77.64 23.44 82.43 23.03 86.97 24.18 C 84.79 25.58 82.68 27.08 80.59 28.60 C 71.23 35.35 64.63 45.65 61.89 56.81 C 60.92 60.65 60.96 64.65 60.24 68.53 C 57.79 70.18 54.89 70.92 52.27 72.23 C 42.28 76.82 34.26 85.19 29.65 95.13 C 24.42 81.61 25.55 65.88 32.00 52.95 Z" />
</svg>
