<svg id="weather34 scattered clouds night" width="302pt" height="340" viewBox="0 0 302 255" xmlns="http://www.w3.org/2000/svg"><path fill="#ce5d5a" stroke="#ce5d5a" stroke-width=".1" d="M43.5 29.5C56.5 16 76.5 9.5 95 13c4.6.6 9 2.3 13.2 3.6-16 2.5-31 11.2-39.7 24.8-5.5 8.2-8 18-8 27.8-12 3.4-23 11.5-29 22.8-9-20.8-4-46.5 12-62.5z"/><path fill="#565f67"  stroke-width="1" stroke="#565f67" d="M108.2 16.6c22.6-3.4 47.5 6.3 59.5 26.3 15-10 37-8.2 49.8 4.5 5.6 5.4 9.3 12.6 10 20.3C242 69.8 255.8 78 263 91c6 10.7 6.6 24.3 1.4 35.5C257 143 239 153 221 153H74c-15.5 0-31-7.4-39.8-20.2-8.5-11.7-9.5-28-2.8-40.8 6-11.3 17-19.4 29.2-22.8 0-9.8 2.4-19.6 8-27.8C77 27.8 92.3 19 108 16.6m42 56.4c-7 2-12.4 8.6-12.4 16-5.3 1.8-10.2 6-10.7 12-1 7.8 6.4 14.6 14 15h25.7c0 .3.5 1 .7 1.3 1.8 7.2 9.6 11.3 16.6 10.7h46c7.6 0 15.3-6 15-14 0-7-6.3-12.4-13-13.4-1.3-8.7-12.3-12.7-19.4-8-4-6-11.4-9.3-18.5-8.5l-3.3.5c-3.8-6-12-7.6-18-4-5-7-14.5-10.3-22.6-7.5z"/><path fill="#bbb" stroke="#bbb" stroke-width=".1" d="M150 73c8.2-2.8 17.8.4 22.6 7.5 6-3.6 14.3-2 18 4 1 0 2.6-.3 3.5-.4-1 .5-2 1-3 1.3l.8 2.7c5 2 10.6 4.3 12.4 9.8 3 7.7-3 16.3-10.6 17.7-7.5 1.2-15 0-22.6.5-1.4 0-2.6.6-3.6 1.3l-.7-1.3H141c-7.6-.4-15-7.2-14-15 .6-6 5.5-10.2 10.8-12 0-7.4 5.3-14 12.3-16z"/><path fill="#ccc" stroke="#ccc" stroke-width=".1" d="M194 84c7.2-.8 14.6 2.5 18.6 8.5 7.2-4.6 18-.6 19.5 8 6.7 1 13 6.5 13 13.5.3 8-7.4 14-15 14h-46c-7 .6-14.8-3.5-16.6-10.7 1-.7 2.2-1.4 3.6-1.3 7.5-.4 15 .7 22.6-.5 7.7-1.4 13.7-10 10.6-17.7-1.8-5.5-7.5-7.7-12.4-9.8l-.7-2.7 3-1.2z"/></svg>