<?xml version="1.0" encoding="UTF-8" ?>
<!DOCTYPE svg PUBLIC "-//W3C//DTD SVG 1.1//EN" "http://www.w3.org/Graphics/SVG/1.1/DTD/svg11.dtd">
<svg width="302pt" height="255pt" viewBox="0 0 302 255" version="1.1" xmlns="http://www.w3.org/2000/svg">
<g id="#505153ff">
<path fill="#505153" opacity="1.00" d=" M 79.43 32.45 C 91.22 19.78 108.91 13.19 126.10 14.21 C 144.80 15.03 163.17 24.94 173.07 41.02 C 183.70 34.37 197.31 32.79 209.12 37.10 C 221.50 41.34 231.55 52.60 232.91 65.83 C 245.32 67.75 257.23 73.97 264.99 83.97 C 273.93 95.78 276.16 112.83 269.08 126.07 C 261.10 141.83 243.37 151.17 225.99 151.17 C 177.65 151.21 129.32 151.19 80.98 151.18 C 68.47 151.28 55.80 147.06 46.44 138.65 C 39.06 132.10 33.79 122.98 32.66 113.11 C 31.41 100.93 35.57 88.01 44.79 79.73 C 50.52 73.78 57.99 69.86 65.77 67.31 C 65.93 54.53 70.50 41.72 79.43 32.45 M 120.52 46.06 C 121.33 49.96 124.91 52.31 127.54 54.99 C 111.33 55.06 95.11 54.92 78.90 55.10 C 76.54 54.81 74.41 57.35 75.42 59.58 C 76.18 61.91 79.00 61.64 80.95 61.75 C 96.49 61.77 112.04 61.70 127.58 61.75 C 125.11 64.50 122.08 66.81 120.21 70.04 C 120.22 72.31 123.10 75.08 125.11 73.16 C 130.40 68.82 134.96 63.67 139.33 58.41 C 135.00 53.19 130.51 48.04 125.26 43.70 C 123.54 42.18 120.16 43.62 120.52 46.06 M 155.03 78.90 C 156.88 81.85 159.49 84.22 161.71 86.89 C 134.12 86.99 106.52 86.84 78.93 87.03 C 76.53 86.70 74.36 89.29 75.40 91.56 C 76.30 93.75 79.02 93.47 80.95 93.65 C 107.87 93.71 134.79 93.62 161.71 93.64 C 159.43 96.41 156.82 98.94 154.94 102.02 C 154.72 104.27 156.96 105.19 158.54 106.15 C 163.39 101.45 168.75 97.15 172.84 91.74 C 174.63 89.11 171.23 87.08 169.78 85.29 C 165.56 81.66 162.59 76.17 157.02 74.47 C 156.21 75.85 154.74 77.12 155.03 78.90 M 185.78 90.88 C 184.13 93.31 184.10 96.34 183.22 99.06 C 179.79 100.90 176.06 102.75 174.24 106.42 C 171.72 110.98 172.35 117.17 176.06 120.92 C 179.30 124.51 184.21 126.16 188.96 126.12 C 203.96 126.13 218.96 126.10 233.96 126.13 C 238.53 126.26 243.21 124.71 246.46 121.43 C 250.35 117.76 251.74 111.53 249.02 106.79 C 246.88 102.25 242.05 100.12 237.51 98.79 C 236.12 95.39 234.47 91.57 230.74 90.21 C 226.70 88.09 222.03 88.84 218.01 90.57 C 215.60 87.68 212.78 85.00 209.17 83.70 C 201.01 80.26 190.30 83.00 185.78 90.88 M 120.70 113.00 C 122.70 115.76 125.30 117.99 127.58 120.50 C 111.02 120.52 94.46 120.39 77.91 120.86 C 74.40 120.90 75.05 125.28 76.75 127.11 C 93.64 127.18 110.53 127.15 127.42 127.21 C 125.20 129.74 122.64 131.98 120.67 134.72 C 119.04 137.24 123.42 140.80 125.48 138.46 C 129.18 135.15 132.50 131.44 136.06 127.98 C 137.41 126.40 140.03 124.14 137.94 122.09 C 134.17 117.53 129.98 113.29 125.49 109.44 C 123.24 107.08 119.25 110.21 120.70 113.00 Z" />
</g>
<g id="#01a4b4ff">
<path fill="#01a4b4" opacity="1.00" d=" M 120.52 46.06 C 120.16 43.62 123.54 42.18 125.26 43.70 C 130.51 48.04 135.00 53.19 139.33 58.41 C 134.96 63.67 130.40 68.82 125.11 73.16 C 123.10 75.08 120.22 72.31 120.21 70.04 C 122.08 66.81 125.11 64.50 127.58 61.75 C 112.04 61.70 96.49 61.77 80.95 61.75 C 79.00 61.64 76.18 61.91 75.42 59.58 C 74.41 57.35 76.54 54.81 78.90 55.10 C 95.11 54.92 111.33 55.06 127.54 54.99 C 124.91 52.31 121.33 49.96 120.52 46.06 Z" />
<path fill="#01a4b4" opacity="1.00" d=" M 155.03 78.90 C 154.74 77.12 156.21 75.85 157.02 74.47 C 162.59 76.17 165.56 81.66 169.78 85.29 C 171.23 87.08 174.63 89.11 172.84 91.74 C 168.75 97.15 163.39 101.45 158.54 106.15 C 156.96 105.19 154.72 104.27 154.94 102.02 C 156.82 98.94 159.43 96.41 161.71 93.64 C 134.79 93.62 107.87 93.71 80.95 93.65 C 79.02 93.47 76.30 93.75 75.40 91.56 C 74.36 89.29 76.53 86.70 78.93 87.03 C 106.52 86.84 134.12 86.99 161.71 86.89 C 159.49 84.22 156.88 81.85 155.03 78.90 Z" />
<path fill="#01a4b4" opacity="1.00" d=" M 120.70 113.00 C 119.25 110.21 123.24 107.08 125.49 109.44 C 129.98 113.29 134.17 117.53 137.94 122.09 C 140.03 124.14 137.41 126.40 136.06 127.98 C 132.50 131.44 129.18 135.15 125.48 138.46 C 123.42 140.80 119.04 137.24 120.67 134.72 C 122.64 131.98 125.20 129.74 127.42 127.21 C 110.53 127.15 93.64 127.18 76.75 127.11 C 75.05 125.28 74.40 120.90 77.91 120.86 C 94.46 120.39 111.02 120.52 127.58 120.50 C 125.30 117.99 122.70 115.76 120.70 113.00 Z" />
</g>
<g id="#aca6a6ff">
<path fill="#aca6a6" opacity="1.00" d=" M 185.78 90.88 C 190.30 83.00 201.01 80.26 209.17 83.70 C 212.78 85.00 215.60 87.68 218.01 90.57 C 222.03 88.84 226.70 88.09 230.74 90.21 C 234.47 91.57 236.12 95.39 237.51 98.79 C 242.05 100.12 246.88 102.25 249.02 106.79 C 251.74 111.53 250.35 117.76 246.46 121.43 C 243.21 124.71 238.53 126.26 233.96 126.13 C 218.96 126.10 203.96 126.13 188.96 126.12 C 184.21 126.16 179.30 124.51 176.06 120.92 C 172.35 117.17 171.72 110.98 174.24 106.42 C 176.06 102.75 179.79 100.90 183.22 99.06 C 184.10 96.34 184.13 93.31 185.78 90.88 Z" />
</g>
</svg>
