<?xml version="1.0" encoding="UTF-8" ?>
<!DOCTYPE svg PUBLIC "-//W3C//DTD SVG 1.1//EN" "http://www.w3.org/Graphics/SVG/1.1/DTD/svg11.dtd">
<svg width="302pt" height="340pt" viewBox="0 0 302 340" version="1.1" xmlns="http://www.w3.org/2000/svg">
<path fill="#01a4b4" stroke="#01a4b4" stroke-width="0.09375" opacity="1.00" d=" M 76.48 74.37 C 97.39 54.32 133.12 53.33 155.50 71.55 C 160.34 75.40 164.39 80.14 167.73 85.34 C 178.71 78.51 192.88 77.13 204.93 81.83 C 216.91 86.28 225.94 97.46 227.58 110.16 C 242.42 112.28 256.71 120.98 263.54 134.61 C 265.60 139.50 268.65 144.27 267.75 149.82 C 267.23 148.01 267.15 146.11 266.68 144.29 C 263.87 143.52 260.85 144.13 257.97 143.99 C 188.31 144.01 118.65 143.99 48.98 144.00 C 42.20 143.79 35.37 144.51 28.63 143.51 C 27.74 146.32 27.26 149.25 27.04 152.18 C 27.74 149.02 25.74 144.48 28.86 142.37 C 30.04 134.62 35.14 127.96 40.66 122.64 C 46.29 117.45 53.20 113.80 60.52 111.68 C 60.55 97.74 66.17 83.86 76.48 74.37 Z" />
<path fill="#ff8841" stroke="#ff8841" stroke-width="0.09375" opacity="1.00" d=" M 27.04 152.18 C 27.26 149.25 27.74 146.32 28.63 143.51 C 35.37 144.51 42.20 143.79 48.98 144.00 C 118.65 143.99 188.31 144.01 257.97 143.99 C 260.85 144.13 263.87 143.52 266.68 144.29 C 267.15 146.11 267.23 148.01 267.75 149.82 L 267.86 150.16 C 269.07 161.86 263.80 173.46 255.63 181.63 C 246.30 190.91 233.08 195.75 220.01 195.71 C 177.02 195.72 134.02 195.71 91.03 195.71 C 78.99 195.55 66.39 196.88 55.05 191.88 C 39.05 185.70 26.35 169.78 27.04 152.18 Z" />
</svg>
