<svg id="weather34 partly cloudy icon" width="302pt" height="255pt" viewBox="0 0 302 255" version="1.1" xmlns="http://www.w3.org/2000/svg">
<path fill="#d05f2d" opacity="1.00" d=" M 22.26 35.40 C 30.68 22.60 44.87 13.81 60.08 12.01 C 72.35 10.56 85.39 13.11 95.68 20.11 C 88.38 23.14 81.45 27.24 75.68 32.68 C 68.94 39.21 64.12 47.69 61.90 56.80 C 60.93 60.65 60.95 64.64 60.24 68.53 C 57.79 70.17 54.90 70.93 52.27 72.23 C 40.36 77.82 30.52 88.68 27.89 101.79 C 20.87 94.48 16.05 85.09 14.25 75.11 C 11.65 61.51 14.49 46.89 22.26 35.40 Z" />
<path fill="#e6e8ef" opacity="1.00" stroke-width="1" stroke="#e6e8ef" d=" M 111.12 16.65 C 130.84 14.12 151.69 22.28 164.11 37.88 C 165.40 39.44 166.32 41.28 167.76 42.72 C 180.83 34.66 198.37 34.25 211.43 42.51 C 220.16 47.91 226.17 57.22 227.66 67.35 C 240.87 69.61 253.73 76.52 261.14 87.96 C 269.08 99.43 270.23 115.31 263.72 127.69 C 257.35 139.94 244.96 148.48 231.59 151.31 C 226.48 152.47 221.21 152.54 216.00 152.52 C 168.99 152.52 121.99 152.57 74.98 152.57 C 61.69 152.78 48.28 147.61 38.99 138.03 C 33.84 132.40 29.67 125.67 28.09 118.14 C 26.47 112.82 27.08 107.19 27.89 101.79 C 30.52 88.68 40.36 77.82 52.27 72.23 C 54.90 70.93 57.79 70.17 60.24 68.53 C 60.95 64.64 60.93 60.65 61.90 56.80 C 64.12 47.69 68.94 39.21 75.68 32.68 C 81.45 27.24 88.38 23.14 95.68 20.11 C 100.72 18.56 105.80 16.88 111.12 16.65 Z" />
</svg>