<svg id="weather34 vp2 rain icon" width="313pt" height="313pt" viewBox="0 0 313 313" xmlns="http://www.w3.org/2000/svg">
  <path fill="#e6e8ef" d="M71.52 76.52c10.57-15.7 29.79-24.28 48.43-24.1 19.32.03 39.03 9.76 49.11 26.54 3.06-.6 5.54-2.66 8.5-3.54 7.17-2.6 15.07-2.83 22.52-1.44 12.85 2.56 24.6 12.13 27.92 25.07.62 2-.04 5.41 2.99 5.54a48.45 48.45 0 0 1 21.36 9.16c7.93 5.5 13.06 14.13 15.87 23.21.2 3.06.94 6.06 1.16 9.11-.21 3.34-.91 6.63-1.17 9.97-3.61 13.14-13.82 23.71-26.14 29.17-6.7 2.7-13.86 3.82-21.03 4.19-48.02-.02-96.04-.01-144.05-.01a79.36 79.36 0 0 1-5.12-.2c-8.42-1-16.72-3.58-23.74-8.44-11.2-7.33-18.88-20.23-18.94-33.73-.48-10.79 4.53-21.25 11.89-28.91 5.9-6.08 13.72-9.73 21.54-12.65.12-10.23 2.82-20.61 8.9-28.94m73.44 37.46c-3.39 2.99-4.3 7.5-5.5 11.62-4.05 2.06-8.46 4.7-9.78 9.38-2.27 5.65 1.11 12.24 6.2 15.08 4.83 2.85 10.68 2.17 16.05 2.23 5.1-.19 10.3.56 15.32-.69 3.1 2.14 3.24 6.56 6.38 8.69 3.89 3.54 9.35 3.83 14.32 3.92 13.35-.02 26.7-.02 40.05 0 3.44-.12 7.04-.17 10.22-1.66 5.46-2.44 9.48-8.51 8.2-14.6-1.37-6.01-6.95-9.94-12.63-11.46-1.35-4.55-4.91-8.41-9.69-9.32-3.37-1.13-6.79.12-9.97 1.23-5.04-6.83-13.97-9.32-22.1-7.73-3.99-5.76-11.96-6.62-18.03-3.98-3.73-4.99-9.76-8.32-16.05-8.24-4.93-.4-9.42 2.42-12.99 5.53z"/>
  <path fill="#777" d="M144.96 113.98c3.57-3.11 8.06-5.93 12.99-5.53 6.29-.08 12.32 3.25 16.05 8.24 6.07-2.64 14.04-1.78 18.03 3.98 8.13-1.59 17.06.9 22.1 7.73 3.18-1.11 6.6-2.36 9.97-1.23 4.78.91 8.34 4.77 9.69 9.32 5.68 1.52 11.26 5.45 12.63 11.46 1.28 6.09-2.74 12.16-8.2 14.6-3.18 1.49-6.78 1.54-10.22 1.66-13.35-.02-26.7-.02-40.05 0-4.97-.09-10.43-.38-14.32-3.92-3.14-2.13-3.28-6.55-6.38-8.69-5.02 1.25-10.22.5-15.32.69-5.37-.06-11.22.62-16.05-2.23-5.09-2.84-8.47-9.43-6.2-15.08 1.32-4.68 5.73-7.32 9.78-9.38 1.2-4.12 2.11-8.63 5.5-11.62z"/>
  <path fill="#00a4b4" d="M76.35 197.46c2.49-1.25 5.61-.05 6.93 2.33 6.74 10.92 13.27 21.96 19.99 32.89 1.09 1.87 2.53 3.96 1.8 6.23-.73 3.12-4.66 4.73-7.44 3.27-1.88-1.07-2.89-3.08-4-4.84-6.46-10.84-13.15-21.54-19.54-32.41a5.24 5.24 0 0 1 2.26-7.47zM111.3 197.4c2.5-1.17 5.53.08 6.81 2.43 11.42 18.65 22.64 37.42 34.04 56.08 1.04 1.78 2.35 3.77 1.75 5.95-.64 2.92-4.09 4.67-6.85 3.65-2.02-.68-3.11-2.67-4.19-4.35-11.25-18.74-22.7-37.37-33.91-56.13a5.25 5.25 0 0 1 2.35-7.63zM147.21 197.06c2.67-.61 5.04 1.27 6.21 3.52 6.87 11.44 13.9 22.78 20.68 34.27 2.39 3.5-.98 8.56-5.12 7.84-2.55-.21-4.01-2.53-5.21-4.49-6.59-11.03-13.36-21.96-19.92-33-2.17-2.97-.28-7.59 3.36-8.14zM180.4 197.65c2.63-1.59 6.1-.27 7.46 2.36 11.5 18.89 22.92 37.83 34.4 56.73 1.37 2.01 2.04 4.8.45 6.9-2.11 3-7.1 2.79-8.89-.46-11.72-19-23.15-38.18-34.77-57.25-2.02-2.55-1.66-6.68 1.35-8.28zM216.18 197.23c2.59-.96 5.36.6 6.58 2.92 6.94 11.43 13.9 22.85 20.77 34.33 2.06 2.79.6 7.31-2.88 8.01-2.8 1-5.47-1.07-6.72-3.44-6.78-11.22-13.61-22.4-20.35-33.64-2.11-2.79-.79-7.19 2.6-8.18z"/>
</svg>
