<?xml version="1.0" encoding="UTF-8" ?>
<!DOCTYPE svg PUBLIC "-//W3C//DTD SVG 1.1//EN" "http://www.w3.org/Graphics/SVG/1.1/DTD/svg11.dtd">
<svg width="302pt" height="255pt" viewBox="0 0 302 255" version="1.1" xmlns="http://www.w3.org/2000/svg">
<g id="#e64c3cff">
<path fill="#e64c3c" opacity="1.00" d=" M 37.16 39.13 C 48.01 24.44 65.06 14.48 83.22 12.40 C 94.62 11.19 106.54 13.01 116.55 18.78 C 110.47 19.80 104.46 21.15 98.37 22.08 C 97.64 22.03 96.19 21.94 95.46 21.90 C 91.22 21.41 86.91 21.04 82.67 21.75 C 66.86 23.98 52.10 32.89 43.14 46.16 C 34.45 58.25 32.18 74.08 35.43 88.44 C 32.73 92.07 30.43 96.00 28.50 100.08 C 26.99 94.69 24.98 89.40 24.34 83.80 C 22.46 67.97 27.56 51.73 37.16 39.13 Z" />
</g>
<g id="#e4e3e3ff">
<path fill="#e6e8ef" opacity="1.00" d=" M 116.55 18.78 C 136.45 17.89 156.20 28.68 166.95 45.37 C 176.48 39.73 188.09 37.51 198.92 40.16 C 213.08 43.28 225.14 55.45 226.81 70.08 C 232.91 71.70 239.20 73.05 244.69 76.29 C 257.00 83.00 266.20 95.79 267.14 109.95 C 268.13 120.55 264.02 131.16 257.07 139.07 C 247.61 149.91 233.17 155.80 218.87 155.49 C 175.25 155.73 131.62 155.53 88.00 155.60 C 78.75 155.52 69.30 156.22 60.29 153.64 C 46.81 150.26 34.47 140.83 29.37 127.67 C 26.06 118.97 24.93 108.88 28.50 100.08 C 30.43 96.00 32.73 92.07 35.43 88.44 C 37.35 86.19 39.47 84.11 41.73 82.20 C 44.40 80.04 47.22 78.05 50.24 76.41 C 53.32 74.93 56.55 73.82 59.77 72.71 C 60.52 63.26 62.44 53.71 67.32 45.46 C 71.21 40.23 75.67 35.45 80.22 30.80 C 86.30 27.96 92.12 24.56 98.37 22.08 C 104.46 21.15 110.47 19.80 116.55 18.78 M 176.40 92.42 C 173.96 95.68 173.25 99.78 172.28 103.64 C 168.01 106.40 163.02 109.28 161.60 114.55 C 159.58 120.47 162.21 127.21 167.23 130.76 C 171.70 134.21 177.60 134.38 183.00 134.42 C 197.00 134.28 211.00 134.33 224.99 134.39 C 230.88 134.31 237.38 134.08 242.16 130.16 C 247.71 125.81 249.43 117.34 245.78 111.26 C 243.72 107.16 239.16 105.66 235.56 103.30 C 231.49 100.75 230.20 95.23 225.64 93.33 C 221.09 91.54 216.09 92.39 211.36 92.76 C 207.35 89.22 203.08 85.47 197.64 84.49 C 189.82 82.81 181.18 85.98 176.40 92.42 Z" />
</g>
<g id="#b56222c6">
<path fill="#b56222" opacity="0.78" d=" M 82.67 21.75 C 86.91 21.04 91.22 21.41 95.46 21.90 C 91.20 21.70 86.93 21.56 82.67 21.75 Z" />
</g>
<g id="#f0c419ff">
<path fill="#f0c419" opacity="1.00" d=" M 43.14 46.16 C 52.10 32.89 66.86 23.98 82.67 21.75 C 86.93 21.56 91.20 21.70 95.46 21.90 C 96.19 21.94 97.64 22.03 98.37 22.08 C 92.12 24.56 86.30 27.96 80.22 30.80 C 76.44 31.73 72.52 32.25 68.92 33.81 C 54.74 40.30 43.52 53.93 41.65 69.63 C 41.35 73.51 41.38 77.42 41.69 81.30 L 41.73 82.20 C 39.47 84.11 37.35 86.19 35.43 88.44 C 32.18 74.08 34.45 58.25 43.14 46.16 Z" />
</g>
<g id="#71c285ff">
<path fill="#71c285" opacity="1.00" d=" M 68.92 33.81 C 72.52 32.25 76.44 31.73 80.22 30.80 C 75.67 35.45 71.21 40.23 67.32 45.46 C 55.59 50.64 50.01 64.17 50.24 76.41 C 47.22 78.05 44.40 80.04 41.73 82.20 L 41.69 81.30 C 41.62 77.41 41.41 73.52 41.65 69.63 C 43.52 53.93 54.74 40.30 68.92 33.81 Z" />
</g>
<g id="#00a4b5ff">
<path fill="#00a4b5" opacity="1.00" d=" M 50.24 76.41 C 50.01 64.17 55.59 50.64 67.32 45.46 C 62.44 53.71 60.52 63.26 59.77 72.71 C 56.55 73.82 53.32 74.93 50.24 76.41 Z" />
<path fill="#00a4b5" opacity="1.00" d=" M 209.32 156.72 C 214.87 156.43 220.41 156.30 225.96 156.21 C 231.65 167.19 237.04 178.32 242.78 189.26 C 244.43 192.47 245.67 195.86 246.91 199.25 C 241.44 199.23 235.82 200.08 230.43 198.86 C 229.18 197.27 228.30 195.43 227.40 193.64 C 221.42 181.31 214.99 169.20 209.32 156.72 Z" />
<path fill="#00a4b5" opacity="1.00" d=" M 89.25 156.74 C 94.84 156.55 100.44 156.59 106.03 156.64 C 113.35 171.09 120.67 185.54 127.99 199.99 C 122.12 200.12 116.24 199.96 110.38 199.62 C 103.42 185.29 95.98 171.18 89.25 156.74 Z" />
<path fill="#00a4b5" opacity="1.00" d=" M 113.35 156.73 C 118.90 156.55 124.47 156.59 130.03 156.64 C 137.35 171.09 144.67 185.54 151.99 199.99 C 146.12 200.08 140.25 199.93 134.38 199.62 C 127.43 185.29 120.05 171.17 113.35 156.73 Z" />
<path fill="#00a4b5" opacity="1.00" d=" M 137.29 156.74 C 142.87 156.55 148.45 156.59 154.03 156.64 C 161.35 171.05 168.67 185.46 175.98 199.87 C 170.09 199.78 164.21 199.60 158.33 199.55 C 151.35 185.26 144.01 171.15 137.29 156.74 Z" />
<path fill="#00a4b5" opacity="1.00" d=" M 161.21 156.74 C 166.81 156.54 172.42 156.59 178.03 156.64 C 185.35 171.09 192.68 185.54 199.99 199.99 C 194.08 200.18 188.16 200.07 182.26 199.71 C 175.36 185.33 167.91 171.22 161.21 156.74 Z" />
<path fill="#00a4b5" opacity="1.00" d=" M 185.47 156.73 C 191.00 156.56 196.52 156.59 202.05 156.64 C 209.28 170.87 217.08 184.86 223.05 199.69 C 217.51 199.71 211.98 199.72 206.45 199.64 C 199.51 185.31 192.06 171.23 185.47 156.73 Z" />
</g>
<g id="#a29c2ccd">
<path fill="#a29c2c" opacity="0.80" d=" M 41.69 81.30 C 41.38 77.42 41.35 73.51 41.65 69.63 C 41.41 73.52 41.62 77.41 41.69 81.30 Z" />
</g>
<g id="#aca6a6ff">
<path fill="#777" opacity="1.00" d=" M 176.40 92.42 C 181.18 85.98 189.82 82.81 197.64 84.49 C 203.08 85.47 207.35 89.22 211.36 92.76 C 216.09 92.39 221.09 91.54 225.64 93.33 C 230.20 95.23 231.49 100.75 235.56 103.30 C 239.16 105.66 243.72 107.16 245.78 111.26 C 249.43 117.34 247.71 125.81 242.16 130.16 C 237.38 134.08 230.88 134.31 224.99 134.39 C 211.00 134.33 197.00 134.28 183.00 134.42 C 177.60 134.38 171.70 134.21 167.23 130.76 C 162.21 127.21 159.58 120.47 161.60 114.55 C 163.02 109.28 168.01 106.40 172.28 103.64 C 173.25 99.78 173.96 95.68 176.40 92.42 Z" />
</g>
</svg>
