<svg width="302pt" height="340" viewBox="0 0 302 255" xmlns="http://www.w3.org/2000/svg"><path fill="#d05f2d" stroke="#d05f2d" stroke-width=".1" d="M47.4 14.4C65.2 3.7 89 5 106 17 90 20 75.4 29.5 67.2 43.4c-4.7 7.8-6.8 17-6.7 26-12.2 3.3-23.4 11.5-29.2 23-9-12-12.3-28-9.3-42.5 3-14.7 12.5-28 25.4-35.4z"/><path fill="#e6e8ef" stroke="#e6e8ef" stroke-width=".1" d="M106 17c23-4.6 49.3 5.3 61.7 26 15-9.8 36.3-8.3 49.4 4 5.8 5.5 9.7 13 10.6 20.8 15 2 29 11 36 24.5 6 11.3 5.8 25.5-.4 36.7-8.2 15-25.2 24-42 24H73.8c-15.7 0-31.5-7.6-40.2-20.7-8-11.6-9-27.6-2.4-40 5.8-11.5 17-19.7 29.2-23 0-9 2-18.2 6.7-26 8.2-14 23-23.3 38.6-26.2M148 74c-6 2.6-10.2 8.7-10.2 15.2-5.3 1.8-10.2 6-10.7 12-1 7.8 6.4 14.6 14 15h26c1.2 7 8 12 15 12h48c7.6 0 15.3-6 15-14 0-7-6.3-12.3-12.8-13.4-1-2.7-2-5.6-4.5-7.3-4.3-3.4-10.4-3.3-15-1-5-6.8-14-10-22-7.5-3.4-6.4-12.2-7.8-18-4.3-5.3-8-16.4-10.7-24.8-6.7z"/><path fill="#ccc" stroke="#ccc" stroke-width=".1" d="M148 73.8c8.3-4 19.4-1.2 24.6 6.7 6-3.5 14.7-2 18 4.3 1.6 5 7.7 5 11 8.7 3.8 4 4.5 10.8 1.4 15.5-2.7 4.4-7.8 6.8-13 7-7.6.2-15.3 0-23 0h-26c-7.6-.4-15-7.2-14-15 .6-6 5.5-10.2 10.8-12 0-6.5 4-12.6 10-15.2z"/><path fill="#777" stroke="#777" stroke-width="1" d="M190.6 84.8c8-2.4 17.2.7 22 7.6 4.7-2.5 10.8-2.5 15 1 2.5 1.6 3.6 4.5 4.6 7.2 6.5 1 12.8 6.4 12.8 13.4.3 8-7.4 14-15 14h-48c-7 0-13.8-5-15-12 7.7 0 15.4.2 23 0 5.2-.2 10.3-2.6 13-7 3-4.7 2.4-11.5-1.5-15.5-3.2-3.6-9.3-3.6-11-8.7z"/></svg>
