<?xml version="1.0" encoding="UTF-8" ?>
<!DOCTYPE svg PUBLIC "-//W3C//DTD SVG 1.1//EN" "http://www.w3.org/Graphics/SVG/1.1/DTD/svg11.dtd">
<svg width="302pt" height="255pt" viewBox="0 0 302 255" version="1.1" xmlns="http://www.w3.org/2000/svg">
<g id="#ff8841ff">
<path fill="#d05f2d" opacity="1.00" d=" M 32.88 26.93 C 44.35 12.35 63.83 4.76 82.15 7.60 C 101.92 10.12 119.34 24.91 125.34 43.86 C 110.90 49.81 100.04 64.46 100.64 80.38 C 85.91 84.15 73.53 98.28 75.11 113.99 C 58.94 114.23 42.84 106.74 32.82 94.01 C 17.14 75.28 17.17 45.64 32.88 26.93 Z" />
</g>
<g id="#e4e3e3ff">
<path fill="#e6e8ef" opacity="1.00" d=" M 125.34 43.86 C 145.04 35.07 171.03 41.59 182.42 60.41 C 194.14 52.92 210.93 54.27 220.79 64.27 C 224.91 68.27 227.42 73.70 228.17 79.36 C 237.73 80.66 246.93 85.53 252.77 93.31 C 257.48 99.45 259.78 107.44 258.75 115.14 C 257.64 124.51 251.74 132.93 243.84 137.92 C 237.39 142.08 229.67 144.07 222.02 144.01 C 185.02 143.99 148.02 144.01 111.01 143.99 C 100.84 143.98 90.62 139.92 83.59 132.49 C 78.81 127.50 75.72 120.89 75.11 113.99 C 73.53 98.28 85.91 84.15 100.64 80.38 C 100.04 64.46 110.90 49.81 125.34 43.86 Z" />
</g>
</svg>
