<?xml version="1.0" encoding="UTF-8" ?>
<!DOCTYPE svg PUBLIC "-//W3C//DTD SVG 1.1//EN" "http://www.w3.org/Graphics/SVG/1.1/DTD/svg11.dtd">
<svg width="302pt" height="255pt" viewBox="0 0 302 255" version="1.1" xmlns="http://www.w3.org/2000/svg">
<g id="#e4e3e3ff">
<path fill="#e6e8ef" opacity="1.00" d=" M 80.27 30.32 C 99.99 12.43 131.87 10.26 153.95 25.05 C 160.57 29.43 166.42 35.12 170.47 41.98 C 175.38 39.53 180.37 37.00 185.90 36.30 C 199.53 33.92 214.47 38.90 223.28 49.73 C 227.32 54.60 229.65 60.69 230.53 66.92 C 244.18 68.87 257.36 76.35 264.72 88.21 C 270.88 97.62 272.54 109.76 269.35 120.52 C 265.19 134.11 253.89 144.84 240.55 149.37 C 233.02 152.14 224.90 152.46 216.96 152.32 C 170.32 152.30 123.67 152.35 77.03 152.30 C 59.40 152.23 41.39 142.51 33.85 126.17 C 29.67 116.86 28.44 105.81 32.26 96.16 C 37.32 82.47 49.70 72.28 63.60 68.40 C 63.34 54.04 69.58 39.88 80.27 30.32 M 120.50 46.07 C 121.35 49.98 124.91 52.33 127.59 54.99 C 111.37 55.05 95.15 54.94 78.94 55.09 C 76.58 54.78 74.39 57.33 75.42 59.57 C 76.19 61.93 79.03 61.67 80.99 61.75 C 96.52 61.76 112.04 61.71 127.57 61.74 C 125.19 64.56 121.97 66.75 120.25 70.06 C 120.30 72.25 122.07 73.40 123.87 74.15 C 129.68 69.65 134.50 64.07 139.32 58.57 C 135.18 53.16 130.49 48.16 125.32 43.72 C 123.58 42.15 120.20 43.60 120.50 46.07 M 155.04 78.97 C 156.95 81.88 159.54 84.26 161.78 86.91 C 134.85 86.90 107.91 86.97 80.98 86.94 C 79.33 87.09 77.29 86.66 76.07 88.08 C 74.48 89.48 75.05 92.51 77.08 93.18 C 79.02 93.71 81.04 93.64 83.03 93.69 C 109.28 93.64 135.52 93.67 161.76 93.63 C 159.31 96.32 157.02 99.15 154.72 101.97 C 155.09 104.11 156.70 105.42 158.67 106.07 C 163.14 101.79 167.84 97.71 171.92 93.03 C 173.04 91.85 174.16 89.82 172.69 88.43 C 169.35 84.73 165.76 81.24 162.30 77.65 C 160.86 76.33 159.22 74.42 157.03 74.93 C 155.72 75.84 154.74 77.31 155.04 78.97 M 194.19 83.26 C 188.64 84.95 183.58 89.00 181.50 94.51 C 180.72 96.65 181.17 99.71 178.61 100.71 C 174.87 102.76 171.25 105.72 170.10 110.01 C 169.78 113.76 169.46 117.95 171.99 121.08 C 175.69 126.64 182.87 127.69 189.04 127.90 C 202.36 127.92 215.68 127.88 229.00 127.92 C 232.17 127.65 235.34 127.25 238.45 126.60 C 243.72 124.35 248.71 119.20 248.09 113.05 C 248.49 105.89 241.88 100.89 235.53 99.40 C 234.24 96.56 232.99 93.42 230.16 91.75 C 225.91 88.61 220.29 89.69 215.57 90.80 C 213.26 88.60 211.14 86.04 208.09 84.81 C 203.85 82.51 198.83 82.70 194.19 83.26 M 120.66 112.96 C 122.58 115.72 125.34 117.76 127.31 120.49 C 110.88 120.52 94.44 120.42 78.01 120.84 C 74.25 120.55 74.58 127.03 77.94 127.06 C 94.43 127.26 110.93 127.13 127.42 127.19 C 125.20 129.75 122.66 132.03 120.62 134.73 C 119.12 137.39 123.52 140.82 125.59 138.41 C 129.31 134.90 132.84 131.17 136.46 127.55 C 137.50 126.21 139.58 124.51 138.38 122.67 C 134.57 117.86 130.14 113.51 125.54 109.45 C 123.31 107.06 119.28 110.16 120.66 112.96 Z" />
</g>
<g id="#01a4b4ff">
<path fill="#01a4b4" opacity="1.00" d=" M 120.50 46.07 C 120.20 43.60 123.58 42.15 125.32 43.72 C 130.49 48.16 135.18 53.16 139.32 58.57 C 134.50 64.07 129.68 69.65 123.87 74.15 C 122.07 73.40 120.30 72.25 120.25 70.06 C 121.97 66.75 125.19 64.56 127.57 61.74 C 112.04 61.71 96.52 61.76 80.99 61.75 C 79.03 61.67 76.19 61.93 75.42 59.57 C 74.39 57.33 76.58 54.78 78.94 55.09 C 95.15 54.94 111.37 55.05 127.59 54.99 C 124.91 52.33 121.35 49.98 120.50 46.07 Z" />
<path fill="#01a4b4" opacity="1.00" d=" M 155.04 78.97 C 154.74 77.31 155.72 75.84 157.03 74.93 C 159.22 74.42 160.86 76.33 162.30 77.65 C 165.76 81.24 169.35 84.73 172.69 88.43 C 174.16 89.82 173.04 91.85 171.92 93.03 C 167.84 97.71 163.14 101.79 158.67 106.07 C 156.70 105.42 155.09 104.11 154.72 101.97 C 157.02 99.15 159.31 96.32 161.76 93.63 C 135.52 93.67 109.28 93.64 83.03 93.69 C 81.04 93.64 79.02 93.71 77.08 93.18 C 75.05 92.51 74.48 89.48 76.07 88.08 C 77.29 86.66 79.33 87.09 80.98 86.94 C 107.91 86.97 134.85 86.90 161.78 86.91 C 159.54 84.26 156.95 81.88 155.04 78.97 Z" />
<path fill="#01a4b4" opacity="1.00" d=" M 120.66 112.96 C 119.28 110.16 123.31 107.06 125.54 109.45 C 130.14 113.51 134.57 117.86 138.38 122.67 C 139.58 124.51 137.50 126.21 136.46 127.55 C 132.84 131.17 129.31 134.90 125.59 138.41 C 123.52 140.82 119.12 137.39 120.62 134.73 C 122.66 132.03 125.20 129.75 127.42 127.19 C 110.93 127.13 94.43 127.26 77.94 127.06 C 74.58 127.03 74.25 120.55 78.01 120.84 C 94.44 120.42 110.88 120.52 127.31 120.49 C 125.34 117.76 122.58 115.72 120.66 112.96 Z" />
</g>
<g id="#aca6a6ff">
<path fill="#777" opacity="1.00" d=" M 194.19 83.26 C 198.83 82.70 203.85 82.51 208.09 84.81 C 211.14 86.04 213.26 88.60 215.57 90.80 C 220.29 89.69 225.91 88.61 230.16 91.75 C 232.99 93.42 234.24 96.56 235.53 99.40 C 241.88 100.89 248.49 105.89 248.09 113.05 C 248.71 119.20 243.72 124.35 238.45 126.60 C 235.34 127.25 232.17 127.65 229.00 127.92 C 215.68 127.88 202.36 127.92 189.04 127.90 C 182.87 127.69 175.69 126.64 171.99 121.08 C 169.46 117.95 169.78 113.76 170.10 110.01 C 171.25 105.72 174.87 102.76 178.61 100.71 C 181.17 99.71 180.72 96.65 181.50 94.51 C 183.58 89.00 188.64 84.95 194.19 83.26 Z" />
</g>
</svg>
