<?xml version="1.0" encoding="UTF-8" ?>
<!DOCTYPE svg PUBLIC "-//W3C//DTD SVG 1.1//EN" "http://www.w3.org/Graphics/SVG/1.1/DTD/svg11.dtd">
<svg width="302pt" height="255pt" viewBox="0 0 302 255" version="1.1" xmlns="http://www.w3.org/2000/svg">
<g id="#f05e40ff">
<path fill="#f05e40" opacity="1.00" d=" M 137.61 1.28 C 154.99 8.90 170.09 22.12 178.83 39.08 C 188.67 58.02 190.32 81.00 183.41 101.18 C 177.10 119.23 164.30 135.20 147.45 144.40 C 135.83 151.15 122.43 154.87 108.99 154.88 C 83.09 155.91 57.71 142.33 42.75 121.42 C 50.28 123.99 57.99 126.27 65.96 126.80 C 72.81 127.61 79.66 126.33 86.50 126.14 C 91.98 126.94 97.52 126.65 103.03 126.67 C 114.75 126.70 126.46 126.69 138.18 126.73 C 135.87 129.28 133.18 131.55 131.35 134.50 C 130.01 136.82 133.40 138.07 134.75 139.39 C 139.41 134.79 144.38 130.45 148.52 125.38 C 150.76 123.31 148.11 120.86 146.71 119.22 C 143.09 115.52 139.72 111.44 135.42 108.51 C 133.19 107.03 130.11 110.20 131.49 112.42 C 133.32 115.31 136.00 117.54 138.33 120.02 C 127.20 120.06 116.06 119.93 104.92 120.10 C 117.92 114.33 129.14 104.81 137.28 93.17 C 149.00 93.15 160.71 93.18 172.43 93.14 C 169.94 96.08 167.41 98.99 165.14 102.11 C 166.39 103.38 167.68 104.62 168.97 105.84 C 173.96 101.16 179.44 96.82 183.50 91.27 C 185.13 89.37 183.09 87.62 181.86 86.22 C 177.47 81.77 173.44 76.83 168.03 73.54 C 167.28 75.01 165.71 76.35 165.84 78.13 C 167.33 81.38 170.20 83.71 172.46 86.41 C 162.14 86.43 151.83 86.43 141.51 86.44 C 150.62 70.74 153.86 51.78 150.77 33.91 C 148.97 22.16 143.76 11.32 137.61 1.28 Z" />
</g>
<g id="#01a4b4ff">
<path fill="#01a4b4" opacity="1.00" d=" M 131.32 45.83 C 130.66 43.12 134.70 41.42 136.37 43.52 C 141.44 47.82 145.83 52.84 150.07 57.94 C 145.62 63.25 141.01 68.50 135.60 72.85 C 133.32 74.65 129.86 70.78 131.50 68.57 C 133.51 65.89 136.06 63.68 138.35 61.25 C 122.90 61.24 107.45 61.26 92.00 61.28 C 89.90 61.19 86.73 61.49 86.07 58.86 C 85.19 56.54 87.60 54.23 89.91 54.60 C 106.05 54.48 122.18 54.55 138.32 54.52 C 135.71 51.91 132.23 49.62 131.32 45.83 Z" />
<path fill="#01a4b4" opacity="1.00" d=" M 165.84 78.13 C 165.71 76.35 167.28 75.01 168.03 73.54 C 173.44 76.83 177.47 81.77 181.86 86.22 C 183.09 87.62 185.13 89.37 183.50 91.27 C 179.44 96.82 173.96 101.16 168.97 105.84 C 167.68 104.62 166.39 103.38 165.14 102.11 C 167.41 98.99 169.94 96.08 172.43 93.14 C 160.71 93.18 149.00 93.15 137.28 93.17 C 122.17 93.16 107.06 93.21 91.95 93.18 C 89.92 93.00 86.92 93.34 86.09 90.93 C 85.05 88.49 87.60 86.16 89.98 86.52 C 107.16 86.41 124.34 86.48 141.51 86.44 C 151.83 86.43 162.14 86.43 172.46 86.41 C 170.20 83.71 167.33 81.38 165.84 78.13 Z" />
<path fill="#01a4b4" opacity="1.00" d=" M 131.49 112.42 C 130.11 110.20 133.19 107.03 135.42 108.51 C 139.72 111.44 143.09 115.52 146.71 119.22 C 148.11 120.86 150.76 123.31 148.52 125.38 C 144.38 130.45 139.41 134.79 134.75 139.39 C 133.40 138.07 130.01 136.82 131.35 134.50 C 133.18 131.55 135.87 129.28 138.18 126.73 C 126.46 126.69 114.75 126.70 103.03 126.67 C 97.52 126.65 91.98 126.94 86.50 126.14 C 86.27 124.21 85.30 120.70 88.18 120.44 C 93.75 120.02 99.34 120.28 104.92 120.10 C 116.06 119.93 127.20 120.06 138.33 120.02 C 136.00 117.54 133.32 115.31 131.49 112.42 Z" />
</g>
</svg>
