<svg id="sunposition" width="21pt" height="21pt" viewBox="0 0 302 255" xmlns="http://www.w3.org/2000/svg"><path fill="rgba(255, 124, 57, 1.000)" stroke="rgba(255, 124, 57, 1.000)" stroke-width=".1" d="M147.5 5h8v29.2h-8V5zM96.6 34.5l6-6 16.8 17c-2 1.8-3.8 4.2-6.2 5.7-5.4-5.7-11-11-16.6-16.7zM184.6 45.4l17-16.8 5.8 6-17 16.8-5.8-6zM143.6 46.8c8.3-1.5 17-.7 24.6 3 11 5.2 19 15.8 21.2 27.7 1.3 8 .4 16.5-3.2 23.8-5 10.6-15.3 18.6-27 21-8.3 1.5-17.4.6-25-3.5-10.8-5.3-18.7-16-20.6-27.8-1.2-7.8-.3-16 3.2-23.3 5-10.5 15.3-18.6 26.8-21zM72 80.5h29.2v8H72v-8zM201.8 80.5H231v8h-29.2v-8zM96.6 133.5l17-17 5.8 6-17 17-5.8-6zM184.6 122.5l6-6 16.8 17-6 6c-5.5-5.8-11.2-11.4-16.8-17zM147.5 134.8h8V164h-8v-29.2z"/></svg>