<?xml version="1.0" encoding="UTF-8" ?>
<!DOCTYPE svg PUBLIC "-//W3C//DTD SVG 1.1//EN" "http://www.w3.org/Graphics/SVG/1.1/DTD/svg11.dtd">
<svg width="302pt" height="340pt" viewBox="0 0 302 340" version="1.1" xmlns="http://www.w3.org/2000/svg">
<path fill="#e4e3e3" opacity="1.00" d=" M 102.98 60.26 C 117.25 56.83 132.81 58.43 145.84 65.29 C 154.77 69.86 162.37 76.89 167.74 85.35 C 178.67 78.34 192.95 77.11 204.99 81.89 C 216.86 86.41 226.18 97.40 227.58 110.18 C 241.19 112.13 254.34 119.58 261.71 131.39 C 268.13 141.18 269.73 153.93 265.99 165.01 C 259.72 183.62 240.29 195.61 221.03 195.52 C 172.34 195.59 123.65 195.54 74.96 195.54 C 62.40 195.66 49.73 191.11 40.49 182.54 C 30.00 172.98 24.80 157.74 27.92 143.82 C 31.78 128.10 45.23 115.89 60.62 111.68 C 60.83 104.12 61.92 96.39 65.45 89.59 C 72.35 74.53 87.04 63.97 102.98 60.26 M 107.33 97.56 C 97.72 122.67 88.15 147.80 79.04 173.10 C 78.01 174.76 78.90 177.65 81.11 177.49 C 102.42 177.68 123.74 177.49 145.06 177.59 C 152.23 178.20 156.24 169.14 154.57 163.10 C 153.31 157.27 147.93 153.85 145.29 148.80 C 144.19 146.81 145.96 144.28 148.09 144.17 C 150.47 144.49 152.88 146.77 155.24 145.27 C 155.92 143.89 156.05 142.22 155.16 140.91 C 152.97 139.63 150.52 138.63 147.97 138.50 C 142.52 138.65 138.32 144.88 140.13 150.01 C 141.97 155.25 146.88 158.55 149.31 163.45 C 150.33 166.30 149.56 169.51 147.41 171.62 C 126.63 171.98 105.83 171.66 85.05 171.79 C 89.97 157.92 95.25 144.18 100.37 130.38 C 101.69 126.75 103.32 123.17 106.01 120.33 C 108.84 128.89 108.70 138.10 110.42 146.91 C 110.78 148.68 111.51 151.45 113.91 150.90 C 115.21 150.96 115.76 149.47 116.24 148.51 C 117.50 142.35 116.70 135.91 118.08 129.76 C 119.57 133.02 119.23 139.08 124.06 139.18 C 124.73 138.17 125.42 137.16 126.11 136.16 C 128.28 142.78 130.62 149.34 132.85 155.94 C 133.18 157.51 134.77 159.53 136.53 158.47 C 138.52 157.65 138.00 155.06 137.49 153.44 C 131.43 135.86 125.41 118.26 119.37 100.67 C 118.43 97.96 117.77 94.52 114.79 93.31 C 111.66 91.64 108.17 94.54 107.33 97.56 M 192.34 126.30 L 191.71 127.10 C 190.27 126.42 187.07 127.31 187.01 129.02 C 183.31 129.60 180.90 133.27 179.18 136.32 C 177.72 138.47 178.47 141.51 176.71 143.43 C 172.95 145.33 169.04 147.93 167.62 152.12 C 166.89 155.15 166.19 158.95 167.92 161.75 C 169.15 166.70 174.55 169.81 179.36 170.37 C 180.89 170.84 182.45 171.06 184.05 171.02 C 197.03 170.98 210.02 171.00 223.00 171.00 C 225.92 170.95 228.93 171.35 231.76 170.37 C 238.98 170.27 245.89 163.34 245.09 155.95 C 245.38 148.85 238.59 144.18 232.42 142.57 C 231.03 138.66 228.50 134.01 223.80 133.87 L 224.43 133.17 C 220.34 132.71 216.22 132.88 212.30 134.18 C 209.46 129.80 204.32 126.78 199.15 126.51 C 197.32 125.47 194.65 125.47 192.82 126.49 L 192.34 126.30 Z" />
<path fill="#7d7d7d" opacity="1.00" d=" M 107.33 97.56 C 108.17 94.54 111.66 91.64 114.79 93.31 C 117.77 94.52 118.43 97.96 119.37 100.67 C 125.41 118.26 131.43 135.86 137.49 153.44 C 138.00 155.06 138.52 157.65 136.53 158.47 C 134.77 159.53 133.18 157.51 132.85 155.94 C 130.62 149.34 128.28 142.78 126.11 136.16 C 125.42 137.16 124.73 138.17 124.06 139.18 C 119.23 139.08 119.57 133.02 118.08 129.76 C 116.70 135.91 117.50 142.35 116.24 148.51 C 115.76 149.47 115.21 150.96 113.91 150.90 C 111.51 151.45 110.78 148.68 110.42 146.91 C 108.70 138.10 108.84 128.89 106.01 120.33 C 103.32 123.17 101.69 126.75 100.37 130.38 C 95.25 144.18 89.97 157.92 85.05 171.79 C 105.83 171.66 126.63 171.98 147.41 171.62 C 149.56 169.51 150.33 166.30 149.31 163.45 C 146.88 158.55 141.97 155.25 140.13 150.01 C 138.32 144.88 142.52 138.65 147.97 138.50 C 150.52 138.63 152.97 139.63 155.16 140.91 C 156.05 142.22 155.92 143.89 155.24 145.27 C 152.88 146.77 150.47 144.49 148.09 144.17 C 145.96 144.28 144.19 146.81 145.29 148.80 C 147.93 153.85 153.31 157.27 154.57 163.10 C 156.24 169.14 152.23 178.20 145.06 177.59 C 123.74 177.49 102.42 177.68 81.11 177.49 C 78.90 177.65 78.01 174.76 79.04 173.10 C 88.15 147.80 97.72 122.67 107.33 97.56 Z" />
<path fill="#aca6a6" opacity="1.00" d=" M 192.34 126.30 L 192.82 126.49 C 194.82 127.56 197.09 127.20 199.15 126.51 C 204.32 126.78 209.46 129.80 212.30 134.18 L 212.82 134.84 C 216.46 134.31 220.12 133.91 223.80 133.87 C 228.50 134.01 231.03 138.66 232.42 142.57 C 238.59 144.18 245.38 148.85 245.09 155.95 C 245.89 163.34 238.98 170.27 231.76 170.37 C 222.85 169.63 213.90 170.14 204.98 170.00 C 196.44 170.10 187.88 169.69 179.36 170.37 C 174.55 169.81 169.15 166.70 167.92 161.75 C 167.94 158.53 167.82 155.32 167.62 152.12 C 169.04 147.93 172.95 145.33 176.71 143.43 C 178.47 141.51 177.72 138.47 179.18 136.32 C 180.90 133.27 183.31 129.60 187.01 129.02 C 188.74 128.99 190.75 128.77 191.71 127.10 L 192.34 126.30 Z" />
<path fill="#949191" opacity="0.76" d=" M 192.82 126.49 C 194.65 125.47 197.32 125.47 199.15 126.51 C 197.09 127.20 194.82 127.56 192.82 126.49 Z" />
<path fill="#999595" opacity="0.85" d=" M 187.01 129.02 C 187.07 127.31 190.27 126.42 191.71 127.10 C 190.75 128.77 188.74 128.99 187.01 129.02 Z" />
<path fill="#979393" opacity="0.82" d=" M 212.30 134.18 C 216.22 132.88 220.34 132.71 224.43 133.17 L 223.80 133.87 C 220.12 133.91 216.46 134.31 212.82 134.84 L 212.30 134.18 Z" />
<path fill="#999494" opacity="0.84" d=" M 167.62 152.12 C 167.82 155.32 167.94 158.53 167.92 161.75 C 166.19 158.95 166.89 155.15 167.62 152.12 Z" />
<path fill="#979494" opacity="0.80" d=" M 179.36 170.37 C 187.88 169.69 196.44 170.10 204.98 170.00 C 213.90 170.14 222.85 169.63 231.76 170.37 C 228.93 171.35 225.92 170.95 223.00 171.00 C 210.02 171.00 197.03 170.98 184.05 171.02 C 182.45 171.06 180.89 170.84 179.36 170.37 Z" />
</svg>
