<svg id="weather34 windy rain icon" width="242pt" height="182pt" viewBox="0 0 242 182" xmlns="http://www.w3.org/2000/svg">
  <path fill="#505153" stroke="#505153" stroke-width=".09" d="M86.78 0h7.37c18.74 1.15 37.07 10.9 47.14 26.96 14.73-9.15 35.33-8.37 48.49 3.28a34.74 34.74 0 0 1 11.7 21.64c11.47 2.11 22.61 7.38 30.46 16.16 6.37 7.26 9.79 16.84 10.06 26.45v1.92c-.58 14.66-10.2 27.87-22.92 34.67-9.46 5.39-20.54 6.85-31.28 6.41h-24.14l-17.66.01-6.55-.01-17.47.01-6.65-.01c-5.82 0-11.63 0-17.45.02l-6.66-.02c-5.81 0-11.61 0-17.42.02l-6.69-.02c-5.82-.03-11.63.06-17.44 0-11.39-.05-23.03-3.04-32.18-10.01C7.46 120.41.7 108.79 0 96.49V93c.54-7.43 2.73-14.85 7.03-20.99 6.43-8.97 16.03-15.27 26.45-18.65.5-13.23 5.21-26.7 14.85-36.05C58.44 6.99 72.52 1.28 86.78 0m1.88 32.01c.82 3.89 4.3 6.3 6.93 8.98-16.25.13-32.49.02-48.74.23-2.3-.31-4.71 2.21-3.51 4.44.82 2.28 3.69 1.8 5.6 2.04 15.56.07 31.14-.04 46.71.05-2.5 2.65-5.22 5.16-7.15 8.28-.59 2 2.52 4.89 4.34 3.14 5.42-4.25 9.93-9.49 14.45-14.66a106.1 106.1 0 0 0-14.13-14.69c-1.64-1.54-4.84-.14-4.5 2.19m36.46 28.54c-.48 1.47-2.37 2.81-1.69 4.46 1.8 2.94 4.28 5.38 6.53 7.98-27.7.14-55.39.06-83.08.26-2.34-.34-4.84 2.24-3.55 4.49.97 2.15 3.75 1.7 5.67 1.95 26.98.09 53.97-.05 80.96.05-2.54 2.96-5.13 5.89-7.15 9.25 1.16 1.14 2.34 2.26 3.56 3.35a106.22 106.22 0 0 0 14.55-14.6c1.46-2.1-.84-4.04-2.15-5.48-4.3-4.16-7.94-9.35-13.65-11.71m32.22 12.72c-3.59 3.05-4.69 7.81-5.82 12.16-4.48 2.2-9.21 5.31-10.05 10.66-2.1 8.59 6.36 16.09 14.52 16 15.66.11 31.32.04 46.98.05 4.76.07 9.68-1.85 12.75-5.55 2.84-3.35 4.1-8.35 2.17-12.44-1.37-3.69-4.61-6.33-8.21-7.67-1.5-.82-3.69-.91-4.35-2.74-1.4-2.8-2.86-5.93-5.99-7.15-4.1-2.21-8.8-1.26-12.94.24-1.7-1.69-3.31-3.51-5.25-4.93-7.07-4.8-17.41-4.41-23.81 1.37M88.79 99.01c1.95 2.86 4.56 5.19 6.87 7.76-16.56.11-33.14-.1-49.69.41-3.72-.29-3.48 6.41-.03 6.08 16.52.07 33.04.01 49.56.13-2.56 2.82-5.22 5.56-7.44 8.66.88 1.61 1.96 3.35 4.03 3.43 2.35-1.34 4.03-3.53 5.98-5.36 2.86-2.97 6.17-5.58 8.38-9.11l-.02-1.85a86.13 86.13 0 0 0-13.25-13.54c-2.08-2-5.6.9-4.39 3.39z"/><path fill="#00a4b4" stroke="#00a4b4" stroke-width=".09" d="M88.66 32.01c-.34-2.33 2.86-3.73 4.5-2.19a106.1 106.1 0 0 1 14.13 14.69c-4.52 5.17-9.03 10.41-14.45 14.66-1.82 1.75-4.93-1.14-4.34-3.14 1.93-3.12 4.65-5.63 7.15-8.28-15.57-.09-31.15.02-46.71-.05-1.91-.24-4.78.24-5.6-2.04-1.2-2.23 1.21-4.75 3.51-4.44 16.25-.21 32.49-.1 48.74-.23-2.63-2.68-6.11-5.09-6.93-8.98zM125.12 60.55c5.71 2.36 9.35 7.55 13.65 11.71 1.31 1.44 3.61 3.38 2.15 5.48a106.22 106.22 0 0 1-14.55 14.6c-1.22-1.09-2.4-2.21-3.56-3.35 2.02-3.36 4.61-6.29 7.15-9.25-26.99-.1-53.98.04-80.96-.05-1.92-.25-4.7.2-5.67-1.95-1.29-2.25 1.21-4.83 3.55-4.49 27.69-.2 55.38-.12 83.08-.26-2.25-2.6-4.73-5.04-6.53-7.98-.68-1.65 1.21-2.99 1.69-4.46z"/><path fill="#aca6a6" stroke="#aca6a6" stroke-width=".09" d="M157.34 73.27c6.4-5.78 16.74-6.17 23.81-1.37 1.94 1.42 3.55 3.24 5.25 4.93 4.14-1.5 8.84-2.45 12.94-.24 3.13 1.22 4.59 4.35 5.99 7.15.66 1.83 2.85 1.92 4.35 2.74 3.6 1.34 6.84 3.98 8.21 7.67 1.93 4.09.67 9.09-2.17 12.44-3.07 3.7-7.99 5.62-12.75 5.55-15.66-.01-31.32.06-46.98-.05-8.16.09-16.62-7.41-14.52-16 .84-5.35 5.57-8.46 10.05-10.66 1.13-4.35 2.23-9.11 5.82-12.16z"/>
  <path fill="#00a4b4" stroke="#00a4b4" stroke-width=".09" d="M88.79 99.01c-1.21-2.49 2.31-5.39 4.39-3.39a86.13 86.13 0 0 1 13.25 13.54l.02 1.85c-2.21 3.53-5.52 6.14-8.38 9.11-1.95 1.83-3.63 4.02-5.98 5.36-2.07-.08-3.15-1.82-4.03-3.43 2.22-3.1 4.88-5.84 7.44-8.66-16.52-.12-33.04-.06-49.56-.13-3.45.33-3.69-6.37.03-6.08 16.55-.51 33.13-.3 49.69-.41-2.31-2.57-4.92-4.9-6.87-7.76zM49.67 137.49c5.81.06 11.62-.03 17.44 0 7.59 14.69 14.95 29.51 22.51 44.22-5.96.04-11.94.27-17.88-.4-7.38-14.59-14.68-29.23-22.07-43.82zM121.98 137.5l17.47-.01c7.56 14.69 14.9 29.5 22.41 44.22-5.97.05-11.95.29-17.9-.32-7.31-14.64-14.64-29.27-21.98-43.89zM73.8 137.51c5.81-.02 11.61-.02 17.42-.02 7.6 14.69 14.95 29.51 22.52 44.22-5.98.12-11.95.01-17.92-.36-7.35-14.6-14.66-29.23-22.02-43.84zM97.88 137.51c5.82-.02 11.63-.02 17.45-.02 7.56 14.7 14.91 29.5 22.42 44.22-5.91-.03-11.82.06-17.72-.07l-22.15-44.13zM146 137.5l17.66-.01c5.2 10.12 10.25 20.32 15.39 30.48 2.15 4.44 4.82 8.68 5.97 13.53-5.61-.16-11.28.48-16.84-.29-7.68-14.41-14.72-29.18-22.18-43.71zM170.2 137.49h17.6c6.42 12.49 12.65 25.07 19.06 37.56a32.18 32.18 0 0 1 2.34 6.46c-5.51.06-11.02-.02-16.52.06-7.93-14.46-14.88-29.44-22.48-44.08z"/></svg>
