<?xml version="1.0" encoding="UTF-8" ?>
<!DOCTYPE svg PUBLIC "-//W3C//DTD SVG 1.1//EN" "http://www.w3.org/Graphics/SVG/1.1/DTD/svg11.dtd">
<svg width="302pt" height="255pt" viewBox="0 0 302 255" version="1.1" xmlns="http://www.w3.org/2000/svg">
<g id="#ff8841ff">
<path fill="#d05f2d" opacity="1.00" d=" M 149.18 10.65 C 151.88 10.66 154.58 10.66 157.28 10.67 C 157.29 20.43 157.27 30.19 157.29 39.94 C 154.58 39.94 151.88 39.94 149.17 39.95 C 149.19 30.18 149.18 20.42 149.18 10.65 Z" />
<path fill="#d05f2d" opacity="1.00" d=" M 104.29 34.15 C 109.92 39.85 115.55 45.54 121.19 51.23 C 119.91 52.49 118.62 53.75 117.33 55.00 C 115.85 55.00 114.38 55.00 112.90 55.00 C 108.01 50.07 103.11 45.15 98.22 40.23 C 100.25 38.21 102.28 36.19 104.29 34.15 Z" />
<path fill="#d05f2d" opacity="1.00" d=" M 186.21 51.13 C 191.91 45.51 197.62 39.89 203.30 34.25 C 205.25 36.27 207.21 38.29 209.17 40.31 C 203.51 45.97 197.78 51.57 192.09 57.20 C 190.13 55.18 188.17 53.15 186.21 51.13 Z" />
<path fill="#d05f2d" opacity="1.00" d=" M 136.67 55.28 C 147.16 50.49 159.78 50.71 170.17 55.66 C 180.65 60.69 188.47 70.79 190.89 82.14 C 192.86 92.13 191.06 102.91 185.43 111.46 C 181.18 118.23 174.41 122.94 167.23 126.17 C 158.02 129.73 147.34 129.56 138.29 125.61 C 139.54 122.80 136.81 120.78 135.20 118.87 C 131.82 115.47 128.68 111.70 124.70 108.98 C 123.17 107.68 121.59 109.77 120.34 110.50 C 117.46 105.30 115.31 99.64 114.94 93.66 C 130.53 93.65 146.13 93.64 161.72 93.64 C 159.42 96.38 156.81 98.91 154.99 102.01 C 154.72 104.23 157.08 105.06 158.46 106.26 C 163.31 101.46 168.79 97.20 172.85 91.68 C 174.42 89.63 172.01 87.71 170.76 86.28 C 166.96 82.69 163.75 78.44 159.50 75.38 C 157.21 73.58 154.61 76.50 155.05 78.84 C 156.84 81.85 159.47 84.24 161.74 86.89 C 146.12 86.93 130.51 86.92 114.90 86.94 C 115.34 80.69 117.71 74.87 120.40 69.29 C 120.10 71.71 121.96 73.14 123.72 74.39 C 129.46 69.62 134.61 64.20 139.33 58.43 C 138.45 57.38 137.56 56.33 136.67 55.28 Z" />
<path fill="#d05f2d" opacity="1.00" d=" M 73.62 86.21 C 82.08 86.18 90.55 86.23 99.01 86.17 C 100.54 86.18 102.15 86.13 103.54 86.90 C 95.35 87.08 87.14 86.78 78.95 87.04 C 76.56 86.75 74.37 89.22 75.38 91.52 C 76.25 93.77 79.05 93.42 81.01 93.65 C 88.50 93.77 95.99 93.58 103.49 93.72 C 101.09 94.51 98.55 94.31 96.07 94.33 C 88.59 94.29 81.11 94.32 73.63 94.31 C 73.63 91.61 73.63 88.91 73.62 86.21 Z" />
<path fill="#d05f2d" opacity="1.00" d=" M 203.44 86.20 C 213.20 86.21 222.97 86.22 232.74 86.20 C 232.73 88.90 232.73 91.61 232.73 94.32 C 222.97 94.30 213.21 94.31 203.45 94.32 C 203.45 91.61 203.45 88.91 203.44 86.20 Z" />
<path fill="#d05f2d" opacity="1.00" d=" M 192.29 122.15 C 197.92 127.84 203.54 133.53 209.17 139.21 C 207.15 141.25 205.13 143.28 203.10 145.31 C 197.48 139.60 191.84 133.92 186.22 128.23 C 188.25 126.21 190.28 124.19 192.29 122.15 Z" />
<path fill="#d05f2d" opacity="1.00" d=" M 110.42 127.17 C 113.49 127.16 116.56 127.16 119.63 127.25 C 120.08 127.40 120.98 127.72 121.43 127.87 C 115.75 133.78 109.86 139.48 104.10 145.30 C 102.14 143.28 100.18 141.25 98.22 139.23 C 102.30 135.23 106.24 131.08 110.42 127.17 Z" />
<path fill="#d05f2d" opacity="1.00" d=" M 149.17 140.46 C 151.88 140.48 154.58 140.48 157.29 140.48 C 157.28 150.24 157.27 160.00 157.29 169.76 C 154.58 169.76 151.88 169.76 149.17 169.78 C 149.19 160.01 149.18 150.23 149.17 140.46 Z" />
</g>
<g id="#01a4b4ff">
<path fill="#01a4b4" opacity="1.00" d=" M 120.54 46.26 C 120.01 43.77 123.44 42.13 125.23 43.67 C 129.39 47.17 133.19 51.10 136.67 55.28 C 137.56 56.33 138.45 57.38 139.33 58.43 C 134.61 64.20 129.46 69.62 123.72 74.39 C 121.96 73.14 120.10 71.71 120.40 69.29 C 122.44 66.51 124.98 64.15 127.40 61.71 C 111.91 61.75 96.42 61.74 80.94 61.75 C 79.00 61.65 76.17 61.92 75.44 59.58 C 74.37 57.36 76.56 54.82 78.90 55.09 C 90.23 54.94 101.57 55.07 112.90 55.00 C 114.38 55.00 115.85 55.00 117.33 55.00 C 120.74 55.00 124.15 55.00 127.57 55.00 C 124.95 52.37 121.50 50.06 120.54 46.26 Z" />
<path fill="#01a4b4" opacity="1.00" d=" M 155.05 78.84 C 154.61 76.50 157.21 73.58 159.50 75.38 C 163.75 78.44 166.96 82.69 170.76 86.28 C 172.01 87.71 174.42 89.63 172.85 91.68 C 168.79 97.20 163.31 101.46 158.46 106.26 C 157.08 105.06 154.72 104.23 154.99 102.01 C 156.81 98.91 159.42 96.38 161.72 93.64 C 146.13 93.64 130.53 93.65 114.94 93.66 C 111.12 93.65 107.31 93.66 103.49 93.72 C 95.99 93.58 88.50 93.77 81.01 93.65 C 79.05 93.42 76.25 93.77 75.38 91.52 C 74.37 89.22 76.56 86.75 78.95 87.04 C 87.14 86.78 95.35 87.08 103.54 86.90 C 107.33 86.94 111.11 86.95 114.90 86.94 C 130.51 86.92 146.12 86.93 161.74 86.89 C 159.47 84.24 156.84 81.85 155.05 78.84 Z" />
<path fill="#01a4b4" opacity="1.00" d=" M 120.34 110.50 C 121.59 109.77 123.17 107.68 124.70 108.98 C 128.68 111.70 131.82 115.47 135.20 118.87 C 136.81 120.78 139.54 122.80 138.29 125.61 C 135.00 129.20 131.44 132.52 128.08 136.03 C 126.80 137.22 125.67 138.73 123.96 139.32 C 121.97 139.08 119.86 137.32 120.39 135.16 C 122.36 132.19 125.13 129.86 127.45 127.19 C 124.84 127.18 122.24 127.22 119.63 127.25 C 116.56 127.16 113.49 127.16 110.42 127.17 C 99.91 127.14 89.41 127.19 78.90 127.11 C 75.79 127.83 74.10 123.27 76.26 121.35 C 77.67 120.52 79.40 120.86 80.96 120.72 C 96.51 120.52 112.06 120.45 127.61 120.52 C 125.18 117.24 120.40 114.99 120.34 110.50 Z" />
</g>
</svg>
