<?xml version="1.0" encoding="UTF-8" standalone="no"?><!DOCTYPE svg PUBLIC "-//W3C//DTD SVG 1.1//EN" "http://www.w3.org/Graphics/SVG/1.1/DTD/svg11.dtd"><svg width="100%" height="100%" viewBox="0 0 1432 914" version="1.1" xmlns="http://www.w3.org/2000/svg" xmlns:xlink="http://www.w3.org/1999/xlink" xml:space="preserve" xmlns:serif="http://www.serif.com/" style="fill-rule:evenodd;clip-rule:evenodd;stroke-linejoin:round;stroke-miterlimit:1.41421;"><g><path d="M1136.41,8.173l4.666,-8.173c22.792,57.336 47.792,113.773 71.5,170.782c7.334,18.963 18.125,37.189 19.959,57.786c3.458,33.184 -13.625,67.716 -42.917,84.881c-32.625,19.82 -77.667,17.531 -107.708,-6.049c-30.917,-23.498 -43,-67.553 -28.167,-103.107c27.417,-65.428 55.375,-130.651 82.667,-196.12Z" style="fill:#15a9db;fill-rule:nonzero;"/><path d="M15.956,347.041c17.084,-25.664 48.167,-41.766 79.5,-40.335c36.667,0.735 71.75,24.397 84.959,58.071c29.541,71.517 61.083,142.217 89.416,214.183c-8.5,-0.245 -10.458,-8.868 -13.5,-14.916c-9.541,-23.049 -19.291,-46.016 -29.416,-68.779c-7.709,28.035 -19.292,54.802 -30.125,81.775c-18.125,49.571 -34.792,99.837 -55.917,148.264c-0.708,15.898 18.75,31.059 9.208,46.589c-47.625,-111.73 -94.541,-223.705 -141.958,-335.517c-13.167,-28.484 -10.167,-63.466 7.833,-89.335Z" style="fill:#d41f2a;fill-rule:nonzero;"/><path d="M690.915,437.602c20.25,-66.245 80.875,-117.737 150.416,-128.526c74.25,-13.323 154.042,24.029 190.709,88.476c1.75,15.898 4.958,31.672 4.625,47.733c-1.125,144.668 0.666,289.378 -0.959,434.046c-2.875,1.513 -5.708,3.065 -8.583,4.618c-81.917,-40.744 -141.875,-121.742 -153.375,-211.445c7.042,-14.916 4.792,-31.59 4.792,-47.487c-0.417,-38.169 0.375,-76.339 0.041,-114.549c0.625,-6.539 -2.458,-12.261 -5.625,-17.737l-1.166,-2.452c-1.5,-14.834 -3.292,-30.119 -11.209,-43.237c-17.833,-35.145 -58.916,-57.213 -98.75,-51.901c-28.791,2.779 -53.791,20.352 -70.916,42.461Z" style="fill:#fcb830;fill-rule:nonzero;"/><path d="M1294.08,317.576c28.209,-15.407 64.709,-14.835 92.334,1.594c27.208,15.693 45.791,45.689 45.583,76.911c0,76.217 -0.25,152.474 -0.292,228.732c-0.083,17.327 0.334,34.778 -2.916,51.86c-3.75,-27.83 -1.375,-55.988 -2.584,-83.981c0,-16.306 -0.25,-32.571 -0.333,-48.836c0.208,-40.745 -1.75,-81.489 -3.208,-122.192c-55.875,-0.981 -111.792,-0.736 -167.625,-0.164c-1.417,29.057 0.041,58.236 -3.334,87.251c-2.083,-8.868 -4.25,-17.818 -4.083,-26.972c-0.083,-32.734 0.375,-65.51 -1.167,-98.244c4.334,-27.667 22.584,-52.677 47.625,-65.959Z" style="fill:#1560ad;fill-rule:nonzero;"/><path d="M370.29,351.455c20.375,-34.247 64.375,-50.144 103.125,-41.317c-10.875,6.416 -23.667,4.823 -35.75,5.19c-17.125,1.39 -33.709,8.746 -45.75,20.802c-6.375,6.171 -12.834,12.587 -21.625,15.325Z" style="fill:#da2315;fill-rule:nonzero;"/><path d="M473.415,310.138c26.333,6.008 49.958,23.58 61.458,47.815c7.917,17.245 14.792,34.941 22.292,52.391c-1.875,0.082 -5.542,0.245 -7.417,0.286c-5.667,-11.075 -9.417,-22.926 -14.542,-34.247c-20.458,31.958 -26.583,69.801 -41.333,104.211c-24,61.504 -45.917,123.745 -69.667,185.372c-2.625,6.457 -2.875,13.445 -3.041,20.351c8,-15.243 12.875,-31.794 20.958,-46.956l7,0.327c-28.833,72.294 -60.375,143.566 -90.25,215.45c-9.583,24.52 -30.917,43.85 -56.333,51.942c-15.459,-6.906 -32.709,-2.534 -48.917,-5.231c-11.25,-1.349 -21.458,-6.416 -31.5,-11.238c5.333,-8.051 10.917,-16.061 14.208,-25.133c24.875,-70.414 52.084,-140.051 76.459,-210.628c20.333,-44.667 32.458,-92.4 52.333,-137.313c17.417,-49.081 36.042,-97.753 54.167,-146.63c6.666,-18.349 15,-36.249 18.375,-55.579c12.083,-0.367 24.875,1.226 35.75,-5.19Z" style="fill:#e0452f;fill-rule:nonzero;"/><path d="M391.915,336.13c12.041,-12.056 28.625,-19.412 45.75,-20.802c-3.375,19.33 -11.709,37.23 -18.375,55.579c-18.125,48.877 -36.75,97.549 -54.167,146.63c-19.875,44.913 -32,92.646 -52.333,137.313c-24.375,70.577 -51.584,140.214 -76.459,210.628c-3.291,9.072 -8.875,17.082 -14.208,25.133c10.042,4.822 20.25,9.889 31.5,11.238c16.208,2.697 33.458,-1.675 48.917,5.231c-42.875,14.467 -95.75,-4.7 -114.75,-45.975c-12.917,-29.588 -25.542,-59.339 -37.709,-89.212c9.542,-15.53 -9.916,-30.691 -9.208,-46.589c21.125,-48.427 37.792,-98.693 55.917,-148.264c10.833,-26.973 22.416,-53.74 30.125,-81.775c10.125,22.763 19.875,45.73 29.416,68.779c3.042,6.048 5,14.671 13.5,14.916c0.834,0.205 2.459,0.572 3.292,0.777c28.667,-69.678 58.625,-138.866 87.667,-208.462c2.791,-6.784 5.958,-13.404 9.5,-19.82c8.791,-2.738 15.25,-9.154 21.625,-15.325Z" style="fill:#db352d;fill-rule:nonzero;"/><path d="M493.873,480.594c14.75,-34.41 20.875,-72.253 41.333,-104.211c5.125,11.321 8.875,23.172 14.542,34.247c1.875,-0.041 5.542,-0.204 7.417,-0.286c22.083,52.636 45.291,104.946 66.041,158.073l-4.291,3.514c-5.167,-9.154 -9.875,-18.553 -14.167,-28.116c-29.042,76.503 -57.25,153.291 -86,229.794c0.042,20.842 23.25,38.374 15.542,59.706c-28.292,-64.038 -55.417,-128.689 -82,-193.422c-0.792,-0.041 -2.375,-0.164 -3.167,-0.205l-7,-0.327c-8.083,15.162 -12.958,31.713 -20.958,46.956c0.166,-6.906 0.416,-13.894 3.041,-20.351c23.75,-61.627 45.667,-123.868 69.667,-185.372Z" style="fill:#e65832;fill-rule:nonzero;"/><path d="M1245.46,436.825c0.209,-17.777 -0.833,-35.595 1,-53.29c1.542,32.734 1.084,65.51 1.167,98.244c-0.167,9.154 2,18.104 4.083,26.972c0.375,11.075 1.084,22.15 2.292,33.225c24.875,0.613 49.75,4.046 74.625,0.899c32.375,0.245 64.833,2.493 97.25,0.981c0.083,16.265 0.333,32.53 0.333,48.836c-57,1.553 -114.041,-0.205 -171.041,0.899c-2.75,18.063 5.083,40.335 -9.209,54.843c-0.916,-70.536 -0.291,-141.072 -0.5,-211.609Z" style="fill:#1580c1;fill-rule:nonzero;"/><path d="M690.915,437.602c17.125,-22.109 42.125,-39.682 70.916,-42.461c39.834,-5.312 80.917,16.756 98.75,51.901c-8.25,-0.368 -12.416,-7.438 -16.875,-13.077c-6.791,11.075 -11.083,24.888 -22.916,31.917c-22.667,14.262 -40.75,34.737 -55.375,56.682c-6.334,3.024 -13.5,4.904 -18.75,9.604c-6.625,12.423 -10.875,25.909 -16.167,38.905c9.792,2.166 19.625,4.128 29.5,5.885c-15.083,28.77 -23.542,60.115 -35.125,90.275c-17.75,51.451 -39.333,101.595 -56.042,153.414c-9.25,27.094 -20.583,53.413 -30.583,80.221c7.542,1.921 15.083,3.924 22.583,6.13c-30.625,9.849 -66.208,4.618 -91.333,-15.611c-18.667,-14.262 -28.583,-36.616 -35.208,-58.072c7.708,-21.332 -15.5,-38.864 -15.542,-59.706c28.75,-76.503 56.958,-153.291 86,-229.794c4.292,9.563 9,18.962 14.167,28.116l4.291,-3.514l0.709,-0.572c1.708,4.291 2.333,9.562 6.333,12.627c20.208,-47.609 39.5,-95.669 60.667,-142.87Z" style="fill:#ed7135;fill-rule:nonzero;"/><path d="M1036.66,445.285c0.333,-16.061 -2.875,-31.835 -4.625,-47.733c17,26.278 25.458,57.459 26.5,88.436c0.416,55.497 -0.459,111.035 0.375,166.533c0.875,28.484 11,56.028 25.041,80.712c15.042,24.642 35.834,45.648 60.084,61.668c-8.875,2.043 -16.709,-2.779 -24.375,-6.253c-1.667,40.908 -0.75,81.897 -0.292,122.846c-32.042,-4.21 -63.333,-13.323 -92.25,-27.545c2.875,-1.553 5.708,-3.105 8.583,-4.618c1.625,-144.668 -0.166,-289.378 0.959,-434.046Z" style="fill:#e6ba33;fill-rule:nonzero;"/><path d="M1255.04,421.5c55.833,-0.572 111.75,-0.817 167.625,0.164c1.458,40.703 3.416,81.447 3.208,122.192c-32.417,1.512 -64.875,-0.736 -97.25,-0.981c-24.875,3.147 -49.75,-0.286 -74.625,-0.899c-1.208,-11.075 -1.917,-22.15 -2.292,-33.225c3.375,-29.015 1.917,-58.194 3.334,-87.251Z" style="fill:#1572b8;fill-rule:nonzero;"/><path d="M820.79,465.882c11.833,-7.029 16.125,-20.842 22.916,-31.917c4.459,5.639 8.625,12.709 16.875,13.077c7.917,13.118 9.709,28.403 11.209,43.237c-53.792,122.846 -105.25,246.713 -157.667,370.131c-10.042,22.068 -30.167,38.742 -53.292,46.588c-7.5,-2.206 -15.041,-4.209 -22.583,-6.13c10,-26.808 21.333,-53.127 30.583,-80.221c16.709,-51.819 38.292,-101.963 56.042,-153.414c11.583,-30.16 20.042,-61.505 35.125,-90.275c-9.875,-1.757 -19.708,-3.719 -29.5,-5.885c5.292,-12.996 9.542,-26.482 16.167,-38.905c5.25,-4.7 12.416,-6.58 18.75,-9.604c14.625,-21.945 32.708,-42.42 55.375,-56.682Z" style="fill:#f28037;fill-rule:nonzero;"/><path d="M872.956,492.731c3.167,5.476 6.25,11.198 5.625,17.737c0.334,38.21 -0.458,76.38 -0.041,114.549c0,15.897 2.25,32.571 -4.792,47.487c-3.083,-59.829 -2,-119.903 -0.792,-179.773Z" style="fill:#feae10;fill-rule:nonzero;"/><path d="M1255.16,593.591c57,-1.104 114.041,0.654 171.041,-0.899c1.209,27.993 -1.166,56.151 2.584,83.981c-0.125,1.022 -0.334,2.983 -0.459,3.964c-5.75,18.349 -12.083,36.821 -22.416,53.249c-10.292,2.616 -20.792,4.618 -31.375,4.904c-86.209,-0.326 -172.375,0.123 -258.584,-0.04c-10.916,0 -21.583,-2.412 -32,-5.517c-14.041,-24.684 -24.166,-52.228 -25.041,-80.712c6.666,25.296 20.5,49.694 43.958,63.384c36.583,23.948 89.5,16.061 118.042,-16.51c14.041,-13.813 19.958,-32.816 25.041,-50.961c14.292,-14.508 6.459,-36.78 9.209,-54.843Z" style="fill:#1591cb;fill-rule:nonzero;"/><path d="M1405.91,733.886c10.333,-16.428 16.666,-34.9 22.416,-53.249c-10.25,77.116 -59.791,146.467 -125.708,188.478c0.583,-15.244 0.333,-30.528 -0.292,-45.771c7.834,-3.515 15.709,-6.866 23.375,-10.707c0.042,-1.635 0.084,-4.904 0.084,-6.539c32.875,-16.142 61.458,-40.989 80.125,-72.212Z" style="fill:#85c341;fill-rule:nonzero;"/><path d="M1083.96,733.233c10.417,3.105 21.084,5.517 32,5.517c86.209,0.163 172.375,-0.286 258.584,0.04c10.583,-0.286 21.083,-2.288 31.375,-4.904c-18.667,31.223 -47.25,56.07 -80.125,72.212c-17.875,8.051 -36.959,13.2 -56.334,16.51c-18,1.758 -36.166,1.472 -54.125,-0.654c-0.416,-0.081 -1.208,-0.245 -1.583,-0.326c-24.667,-4.864 -48.125,-14.14 -69.708,-26.727c-24.25,-16.02 -45.042,-37.026 -60.084,-61.668Z" style="fill:#15a1d6;fill-rule:nonzero;"/><path d="M1119.66,788.648c7.666,3.474 15.5,8.296 24.375,6.253c21.583,12.587 45.041,21.863 69.708,26.727c-7.417,1.92 -14.625,4.25 -21.875,6.579c-4.542,27.463 3.292,55.661 -4.75,82.755c-22.5,2.861 -45.25,2.657 -67.75,0.532c-0.458,-40.949 -1.375,-81.938 0.292,-122.846Z" style="fill:#c5bd38;fill-rule:nonzero;"/><path d="M1269.46,822.608c19.375,-3.31 38.459,-8.459 56.334,-16.51c0,1.635 -0.042,4.904 -0.084,6.539c-7.666,3.841 -15.541,7.192 -23.375,10.707c0.625,15.243 0.875,30.527 0.292,45.771c-19.417,11.688 -39.708,22.272 -61.542,28.852c6.042,-6.212 12.375,-12.179 19.167,-17.573c1.083,-17.041 0.667,-34.165 1.125,-51.206c3.042,-0.204 9.208,-0.572 12.292,-0.736c-1.042,-1.471 -3.167,-4.372 -4.209,-5.844Z" style="fill:#98c13e;fill-rule:nonzero;"/><path d="M1213.75,821.628c0.375,0.081 1.167,0.245 1.583,0.326c10.167,14.14 31.042,5.313 46.042,7.234c-0.458,17.041 -0.042,34.165 -1.125,51.206c-6.792,5.394 -13.125,11.361 -19.167,17.573c-17.166,6.947 -35.75,9.93 -53.958,12.995c8.042,-27.094 0.208,-55.292 4.75,-82.755c7.25,-2.329 14.458,-4.659 21.875,-6.579Z" style="fill:#acbf3b;fill-rule:nonzero;"/><path d="M1215.33,821.954c17.959,2.126 36.125,2.412 54.125,0.654c1.042,1.472 3.167,4.373 4.209,5.844c-3.084,0.164 -9.25,0.532 -12.292,0.736c-15,-1.921 -35.875,6.906 -46.042,-7.234Z" style="fill:#bcc423;fill-rule:nonzero;"/><text x="205.712px" y="728.302px" style="font-family:'Helvetica';font-size:392.322px;fill:#f2f2f2;">o<tspan x="428.173px 539.305px 739.305px 828.173px 1050.63px " y="728.302px 728.302px 728.302px 728.302px 728.302px ">fﬂine</tspan></text></g></svg>