<?xml version="1.0" encoding="UTF-8"?>
<svg width="64px" height="64px" viewBox="0 0 64 64" version="1.1" xmlns="http://www.w3.org/2000/svg" xmlns:xlink="http://www.w3.org/1999/xlink">
    <!-- Generator: Sketch 58 (84663) - https://sketch.com -->
    <title>avalanches</title>
    <desc>Created with Sketch.</desc>
    <g id="avalanches" stroke="none" stroke-width="1" fill="none" fill-rule="evenodd">
        <g id="9" transform="translate(6.000000, 4.000000)" fill="#FFFFFF" fill-rule="nonzero">
            <path d="M18.0269859,56.9999663 C8.50733216,57.0147656 0.622440338,49.6136875 0.0348304732,40.1117676 C-0.552779392,30.6098478 6.36013319,22.2935776 15.8090732,21.1352708 C25.2580131,19.976964 33.9748136,26.3772517 35.6995207,35.7397795 C37.4242279,45.1023072 31.560306,54.188796 22.3189195,56.4738012 C20.9155514,56.8260796 19.4738871,57.0028073 18.0269859,56.9999663 L18.0269859,56.9999663 Z M18.0269859,24.0336994 C16.8041842,24.0306806 15.5857386,24.1795048 14.3996097,24.4767567 C7.75892463,26.1089439 3.04568414,32.0026617 2.91325309,38.8399838 C2.78082203,45.677306 7.26230376,51.7491302 13.8348043,53.6372636 C20.4073047,55.5253969 27.4279182,52.7578691 30.9443216,46.892687 C33.0328083,43.4727347 33.6612772,39.3575834 32.688785,35.470116 L32.688785,35.470116 C31.0289427,28.7329588 24.9929936,23.9930794 18.0546757,23.9783172 L18.0269859,24.0336994 Z" id="Shape"></path>
            <path d="M32.8380157,34 L32.3375447,32.9914347 C30.0433527,27.9669409 25.0598896,24.5858172 19.3948077,24.2101931 L18.2409439,24.1429554 L18.0880222,23.0268098 C17.2835481,16.3321068 22.0791989,10.2145015 28.960481,9.15728228 C35.841763,8.10006306 42.3609538,12.4792905 43.7404631,19.0856469 C45.1199723,25.6920033 40.8690985,32.1755592 34.1030953,33.7848394 L33.9084676,33.7848394 L32.8380157,34 Z M20.785005,21.6955036 C26.6065885,22.4194696 31.6864248,25.86968 34.3672328,30.920514 C39.4770909,29.1477877 42.2662943,23.8234741 40.722345,18.7892328 C39.1783958,13.7549915 33.8387842,10.7633775 28.556208,11.9729344 L28.2225606,10.6281807 L28.556208,11.9729344 C23.9475199,13.0771277 20.7296047,17.1030685 20.785005,21.6955036 Z" id="Shape"></path>
            <path d="M41.139702,15.9994522 L40.3793254,15.9994522 L39.7571991,15.9994522 L39.3839233,15.4871621 C38.146133,13.8088601 36.4231525,12.552154 34.4483881,11.8872856 L33.8539119,11.6796005 L33.6188864,11.0288536 C33.4553432,10.6726549 33.3257349,10.3017922 33.2317856,9.92119926 C32.1805955,5.62410359 34.8040202,1.28650857 39.0935977,0.229224162 L39.0935977,0.229224162 C43.3830345,-0.815396498 47.7087861,1.80868673 48.7711177,6.09979194 C49.8141804,10.3956357 47.1940108,14.7278486 42.9093056,15.791767 C42.3308534,15.9371576 41.7360459,16.0069658 41.139702,15.9994522 L41.139702,15.9994522 Z M35.9553162,9.40890915 C38.0014905,10.2092662 39.8064083,11.5256287 41.1950021,13.2303165 C41.5582818,13.2218372 41.9196878,13.1754338 42.2733543,13.0918597 C43.6293441,12.7697929 44.7967747,11.9103997 45.508411,10.7104029 C46.6114067,8.8893535 46.509316,6.58195551 45.2498145,4.86574713 C43.990313,3.14953874 41.8218962,2.36312239 39.7571991,2.8737488 L39.7571991,2.8737488 C38.4041054,3.20772794 37.2389525,4.06644176 36.5181509,5.2609165 C35.7973494,6.45539124 35.5799666,7.88774345 35.9138412,9.242761 L35.9553162,9.40890915 Z" id="Shape"></path>
        </g>
    </g>
</svg>