<?xml version="1.0" encoding="UTF-8"?>
<svg width="64px" height="64px" viewBox="0 0 64 64" version="1.1" xmlns="http://www.w3.org/2000/svg" xmlns:xlink="http://www.w3.org/1999/xlink">
    <!-- Generator: Sketch 58 (84663) - https://sketch.com -->
    <title>coastalevent</title>
    <desc>Created with Sketch.</desc>
    <g id="coastalevent" stroke="none" stroke-width="1" fill="none" fill-rule="evenodd">
        <g id="7" transform="translate(5.000000, 12.000000)" fill="#FFFFFF" fill-rule="nonzero">
            <path d="M27,11 L26.8881988,11 C23.7158385,11 22.1785714,9.0562249 20.5434783,6.97991968 C18.9083851,4.90361446 17.3431677,2.94511379 14.1428571,2.94511379 C10.9425466,2.94511379 9.39130435,4.90361446 7.74223602,6.97991968 C6.0931677,9.0562249 4.56987578,11 1.39751553,11 C0.625689014,11 0,10.3407138 0,9.52744311 C0,8.71417239 0.625689014,8.05488621 1.39751553,8.05488621 C3.17236025,8.05488621 4.01086957,7.09772423 5.59006211,5.10977242 C7.39285714,2.82730924 9.62888199,0 14.1428571,0 C18.6568323,0 20.9627329,2.82730924 22.681677,5.09504685 C24.2189441,7.02409639 25.0434783,8.04016064 26.7065217,8.04016064 L26.8043478,8.04016064 L27.2515528,8.04016064 C28.9006211,8.04016064 29.7391304,7.06827309 31.318323,5.09504685 C33.121118,2.82730924 35.3571429,0 39.871118,0 C44.3850932,0 46.621118,2.82730924 48.4099379,5.09504685 C49.9891304,7.09772423 50.8276398,8.04016064 52.6024845,8.04016064 C53.374311,8.04016064 54,8.69944682 54,9.51271754 C54,10.3259883 53.374311,10.9852744 52.6024845,10.9852744 C49.4301242,10.9852744 47.8928571,9.04149933 46.257764,6.97991968 C44.6226708,4.91834003 43.0714286,2.94511379 39.871118,2.94511379 C36.6708075,2.94511379 35.1055901,4.90361446 33.5403727,6.97991968 C31.9751553,9.0562249 30.3540373,11 27.1956522,11 L27,11 Z" id="Path"></path>
            <path d="M27,25 L26.8881988,25 C23.7158385,25 22.1785714,23.0588235 20.5434783,21 C18.9083851,18.9411765 17.3431677,16.9558824 14.1428571,16.9558824 C10.9425466,16.9558824 9.39130435,18.9117647 7.74223602,21 C6.0931677,23.0882353 4.56987578,25 1.39751553,25 C0.625689014,25 0,24.3415952 0,23.5294118 C0,22.7172283 0.625689014,22.0588235 1.39751553,22.0588235 C3.17236025,22.0588235 4.01086957,21.1029412 5.59006211,19.1176471 C7.39285714,16.8382353 9.62888199,14.0147059 14.1428571,14.0147059 C18.6568323,14.0147059 20.8928571,16.8382353 22.681677,19.1029412 C24.2189441,21.0294118 25.0434783,22.0441176 26.7065217,22.0441176 L26.8043478,22.0441176 L27.2515528,22.0441176 C28.9006211,22.0441176 29.7391304,21.0735294 31.318323,19.1029412 C33.121118,16.8235294 35.3571429,14 39.871118,14 C44.3850932,14 46.621118,16.8235294 48.4099379,19.1029412 C49.9891304,21.0882353 50.8276398,22.0441176 52.6024845,22.0441176 C53.374311,22.0441176 54,22.7025224 54,23.5147059 C54,24.3268893 53.374311,24.9852941 52.6024845,24.9852941 C49.4301242,24.9852941 47.8928571,23.0441176 46.257764,20.9852941 C44.6226708,18.9264706 43.0574534,16.9411765 39.8571429,16.9411765 C36.6568323,16.9411765 35.1055901,18.9117647 33.5403727,20.9852941 C31.9751553,23.0588235 30.3540373,25 27.1956522,25 L27,25 Z" id="Path"></path>
            <path d="M52.6164596,41 C49.4440994,41 47.9068323,39.0562249 46.2717391,36.9946452 C44.636646,34.9330656 43.0714286,32.9451138 39.871118,32.9451138 C36.6708075,32.9451138 35.1055901,34.9036145 33.5403727,36.9799197 C31.9751553,39.0562249 30.3540373,41 27.1956522,41 L26.9580745,41 C23.7857143,41 22.2484472,39.0562249 20.613354,36.9946452 C18.9782609,34.9330656 17.4130435,32.9451138 14.2127329,32.9451138 C11.0124224,32.9451138 9.46118012,34.91834 7.8121118,36.9946452 C6.16304348,39.0709505 4.56987578,41 1.39751553,41 C0.625689014,41 0,40.3407138 0,39.5274431 C0,38.7141724 0.625689014,38.0548862 1.39751553,38.0548862 C3.17236025,38.0548862 4.01086957,37.0977242 5.59006211,35.1097724 C7.39285714,32.8273092 9.62888199,30 14.1428571,30 C18.6568323,30 20.9627329,32.8273092 22.6956522,35.1097724 C24.2468944,37.0682731 25.0854037,38.0548862 26.8043478,38.0548862 L26.9860248,38.0548862 L27.2096273,38.0548862 C28.9285714,38.0548862 29.7670807,37.0682731 31.318323,35.1097724 C33.121118,32.8273092 35.3571429,30 39.871118,30 C44.3850932,30 46.6071429,32.8273092 48.4099379,35.0950469 C49.9891304,37.0977242 50.8276398,38.0401606 52.6024845,38.0401606 C53.374311,38.0401606 54,38.6994468 54,39.5127175 C54,40.3259883 53.374311,40.9852744 52.6024845,40.9852744 L52.6164596,41 Z" id="Path"></path>
        </g>
    </g>
</svg>