<?xml version="1.0" encoding="UTF-8"?>
<svg width="64px" height="64px" viewBox="0 0 64 64" version="1.1" xmlns="http://www.w3.org/2000/svg" xmlns:xlink="http://www.w3.org/1999/xlink">
    <!-- Generator: Sketch 58 (84663) - https://sketch.com -->
    <title>Fog</title>
    <desc>Created with Sketch.</desc>
    <g id="fog" stroke="none" stroke-width="1" fill="none" fill-rule="evenodd">
        <g id="4" transform="translate(6.000000, 17.000000)" fill="#FFFFFF" fill-rule="nonzero">
            <path d="M51.6287193,3 L1.37128072,3 C0.613943293,3 0,2.32842712 0,1.5 C0,0.671572875 0.613943293,0 1.37128072,0 L51.6287193,0 C52.3860567,0 53,0.671572875 53,1.5 C53,2.32842712 52.3860567,3 51.6287193,3 Z" id="Path"></path>
            <path d="M27.6617443,21 L1.33825565,21 C0.599157464,21 0,20.3284271 0,19.5 C0,18.6715729 0.599157464,18 1.33825565,18 L27.6617443,18 C28.4008425,18 29,18.6715729 29,19.5 C29,20.3284271 28.4008425,21 27.6617443,21 Z" id="Path"></path>
            <path d="M51.6348123,21 L38.3651877,21 C37.6112154,21 37,20.3284271 37,19.5 C37,18.6715729 37.6112154,18 38.3651877,18 L51.6348123,18 C52.3887846,18 53,18.6715729 53,19.5 C53,20.3284271 52.3887846,21 51.6348123,21 Z" id="Path"></path>
            <path d="M19.6138614,12 L1.38613861,12 C0.620595396,12 0,11.3284271 0,10.5 C0,9.67157288 0.620595396,9 1.38613861,9 L19.6138614,9 C20.3794046,9 21,9.67157288 21,10.5 C21,11.3284271 20.3794046,12 19.6138614,12 Z" id="Path"></path>
            <path d="M51.6402266,12 L30.3597734,12 C29.6087913,12 29,11.3284271 29,10.5 C29,9.67157288 29.6087913,9 30.3597734,9 L51.6402266,9 C52.3912087,9 53,9.67157288 53,10.5 C53,11.3284271 52.3912087,12 51.6402266,12 Z" id="Path"></path>
            <path d="M50.6605081,31 L24.3394919,31 C23.599711,31 23,30.3284271 23,29.5 C23,28.6715729 23.599711,28 24.3394919,28 L50.6605081,28 C51.400289,28 52,28.6715729 52,29.5 C52,30.3284271 51.400289,31 50.6605081,31 Z" id="Path"></path>
            <path d="M14.6348123,31 L1.36518771,31 C0.611215359,31 0,30.3284271 0,29.5 C0,28.6715729 0.611215359,28 1.36518771,28 L14.6348123,28 C15.3887846,28 16,28.6715729 16,29.5 C16,30.3284271 15.3887846,31 14.6348123,31 Z" id="Path"></path>
        </g>
    </g>
</svg>