<?xml version="1.0" encoding="UTF-8"?>
<svg width="64px" height="64px" viewBox="0 0 64 64" version="1.1" xmlns="http://www.w3.org/2000/svg" xmlns:xlink="http://www.w3.org/1999/xlink">
    <!-- Generator: Sketch 58 (84663) - https://sketch.com -->
    <title>forest-fire</title>
    <desc>Created with Sketch.</desc>
    <g id="forest-fire" stroke="none" stroke-width="1" fill="none" fill-rule="evenodd">
        <g id="8" transform="translate(10.000000, 5.000000)" fill="#FFFFFF" fill-rule="nonzero">
            <path d="M30.8556415,55 C29.91793,54.9970189 29.049401,54.5120027 28.5631826,53.7198127 C28.0829014,52.9462614 28.0451328,51.981395 28.4635105,51.173506 C30.456953,47.2344681 31.9947514,41.9871069 30.0867422,39.6799562 C23.9640261,40.4958997 19.8205136,39.3845283 17.7558767,36.3880459 C16.8949964,35.1027994 16.4345863,33.5962998 16.4316614,32.0551042 C12.159999,38.076205 12.9716148,45.8276689 14.6518021,51.6377498 C14.8810128,52.4260125 14.722887,53.2748517 14.2246358,53.9308326 C13.3566651,55.0411249 11.7728594,55.3100746 10.5794839,54.5498242 C10.1523177,54.2684644 0,47.515828 0,36.8804257 C0,28.2708143 5.15447264,23.5017648 9.71091254,19.2813671 C14.5806077,14.7514735 18.7953146,10.8405716 18.7953146,2.63893195 C18.7920926,1.61574404 19.389638,0.683532502 20.3272406,0.249022877 C21.2648433,-0.185486748 22.3723872,-0.0434582702 23.1666491,0.613141034 C33.6749387,9.30716039 44.653111,24.2473684 43.9696451,36.4583859 C43.5709566,43.6471301 39.6979827,49.7385708 32.3364844,54.5498242 C31.899707,54.8431556 31.383771,55 30.8556415,55 L30.8556415,55 Z M21.6288507,2.94842779 C21.5007008,12.1348269 16.4886169,16.7772644 11.6616384,21.236818 C7.10519847,25.5275557 2.83353606,29.5369336 2.83353606,36.8804257 C2.83353606,45.0117253 9.95297341,50.6389223 11.7613105,51.9472456 C9.71091254,44.5474816 9.01320768,34.432595 16.8445888,27.3704627 L17.6419657,26.7233351 C18.1067208,26.3027783 18.7960093,26.2341044 19.3363918,26.5545192 C19.8613916,26.8950508 20.0985788,27.5352009 19.9201857,28.1301343 L19.6354082,29.1570978 C18.9103748,31.0260577 19.0562437,33.1157738 20.0340967,34.8687027 C21.4579842,36.9789016 24.9037918,37.6823012 30.1579366,36.8804257 L30.3145642,36.8804257 C30.7259375,36.8234155 31.1419971,36.9467355 31.4536742,37.2180575 L31.5675852,37.3024654 C35.7538144,40.9601435 32.9914727,48.3599075 31.2258522,51.9331776 C37.4197627,47.7127799 40.7374205,42.4654187 41.0791535,36.4583859 C41.7483806,25.1617879 31.5106297,11.2485434 21.6288507,3.00469976 L21.6288507,2.94842779 Z" id="Shape"></path>
        </g>
    </g>
</svg>