<?xml version="1.0" encoding="iso-8859-1"?>
<!-- Generator: Adobe Illustrator 16.0.0, SVG Export Plug-In . SVG Version: 6.00 Build 0)  -->
<!DOCTYPE svg PUBLIC "-//W3C//DTD SVG 1.1//EN" "http://www.w3.org/Graphics/SVG/1.1/DTD/svg11.dtd">
<svg version="1.1" id="Capa_1" xmlns="http://www.w3.org/2000/svg" xmlns:xlink="http://www.w3.org/1999/xlink" x="0px" y="0px"
	 width="18px" height="18px" viewBox="0 0 96 96" style="enable-background:new 0 0 96 96;" xml:space="preserve">
<g>
	<path d="M48,0C21.49,0,0,21.49,0,48s21.49,48,48,48s48-21.49,48-48S74.51,0,48,0z M48,11.297c4.884,0,8.857,3.973,8.857,8.857
		c0,4.884-3.974,8.857-8.857,8.857s-8.857-3.973-8.857-8.857C39.143,15.27,43.116,11.297,48,11.297z M59.748,83.189
		c0,0.836-0.678,1.513-1.512,1.513H38.15c-0.835,0-1.512-0.677-1.512-1.513v-7.174c0-0.834,0.677-1.512,1.512-1.512h3.884V40.767
		h-4.269c-0.835,0-1.512-0.677-1.512-1.512V34.2c0-0.835,0.677-1.512,1.512-1.512H52.84c0.835,0,1.512,0.677,1.512,1.512v40.304
		h3.885c0.834,0,1.512,0.678,1.512,1.512V83.189z"/>
</g>

</svg>
