<?xml version="1.0" encoding="UTF-8"?>
<svg width="64px" height="64px" viewBox="0 0 64 64" version="1.1" xmlns="http://www.w3.org/2000/svg" xmlns:xlink="http://www.w3.org/1999/xlink">
    <!-- Generator: Sketch 58 (84663) - https://sketch.com -->
    <title>low-temperature</title>
    <desc>Created with Sketch.</desc>
    <g id="low-temperature" stroke="none" stroke-width="1" fill="none" fill-rule="evenodd">
        <g id="6" transform="translate(18.000000, 3.000000)" fill="#FFFFFF" fill-rule="nonzero">
            <path d="M12.0193223,58 C7.04896851,58.0139029 2.58572362,54.9820615 0.800365907,50.3790023 C-0.984991804,45.7759431 0.278086933,40.5570266 3.97528138,37.2605654 L3.97528138,7.96766807 C3.98332384,3.58197439 7.55549497,0.0241342117 11.9750431,0 L12.1816791,0 C16.5271377,0.103260984 19.9975651,3.62503069 20.0043243,7.93837517 C20.0043243,8.74727619 19.3435097,9.40302004 18.5283535,9.40302004 L18.5283535,9.40302004 C17.7131974,9.40302004 17.0523827,8.74727619 17.0523827,7.93837517 C17.0080228,5.2410868 14.8533971,3.04520847 12.1373999,2.92928973 L11.9898029,2.92928973 C9.19718185,2.93733388 6.93532934,5.18182994 6.92722299,7.95302162 L6.92722299,38.5933922 L6.14495846,39.2671288 C2.34370186,42.4731918 1.87491282,48.1275649 5.09701919,51.907014 C7.25342896,54.372704 10.5823856,55.4925046 13.8052469,54.8363038 C16.1565923,54.3830371 18.2226241,53.0039224 19.5320137,51.0135807 C22.0255361,47.2448734 21.3045222,42.2239529 17.849407,39.2964217 L17.0523827,38.6226851 L17.0523827,27.4035054 C17.0523827,26.5946044 17.7131974,25.9388606 18.5283535,25.9388606 C19.3435097,25.9388606 20.0043243,26.5946044 20.0043243,27.4035054 L20.0043243,37.2605654 C23.386199,40.2586467 24.7703654,44.8957444 23.5795404,49.2379018 C22.3887155,53.5800592 18.8273971,56.8816063 14.3808756,57.7655935 C13.6038971,57.9240247 12.8125301,58.0025541 12.0193223,58 L12.0193223,58 Z" id="Path"></path>
            <path d="M34.5535832,19 L15.4464168,19 C14.6475829,19 14,18.3284271 14,17.5 C14,16.6715729 14.6475829,16 15.4464168,16 L34.5535832,16 C35.3524171,16 36,16.6715729 36,17.5 C36,18.3284271 35.3524171,19 34.5535832,19 Z" id="Path"></path>
            <circle id="Oval" cx="12" cy="47" r="4"></circle>
        </g>
    </g>
</svg>