<?xml version="1.0" encoding="UTF-8"?>
<svg width="64px" height="64px" viewBox="0 0 64 64" version="1.1" xmlns="http://www.w3.org/2000/svg" xmlns:xlink="http://www.w3.org/1999/xlink">
    <!-- Generator: Sketch 58 (84663) - https://sketch.com -->
    <title>Rain</title>
    <desc>Created with Sketch.</desc>
    <g id="rain" stroke="none" stroke-width="1" fill="none" fill-rule="evenodd">
        <g id="10" transform="translate(7.000000, 4.000000)" fill="#FFFFFF" fill-rule="nonzero">
            <path d="M17.006738,57 C7.61943616,57 0.00743843253,49.1494115 0,39.4601953 C0,34.36934 3.78676179,26.9416987 6.95362663,21.6422018 C8.58422513,18.8603137 10.3361078,16.2731577 11.9128022,14.1728322 C12.5319163,13.3266481 13.1931292,12.514173 13.8937772,11.7386801 C14.6459865,10.730165 15.7773249,10.0982792 17.006738,10 C18.2313291,10.1020999 19.3570882,10.7336032 20.1062228,11.7386801 C20.8107414,12.5106274 21.4721353,13.3233249 22.0871978,14.1728322 C23.8634772,16.568228 25.5187394,19.0566943 27.0463734,21.6282924 C30.2132382,26.9416987 34,34.3554306 34,39.4462859 C34,49.1355051 26.3940369,56.9923223 17.006738,57 Z M17.006738,12.7818881 C16.7506936,12.7818881 16.4137931,13.0461675 15.8343242,13.6581829 C15.2548553,14.2701983 14.7427665,14.9378514 14.0420135,15.869784 C12.5326992,17.9005623 10.7808165,20.4598994 9.24455014,23.1026931 C5.08045977,30.0852323 2.69520412,36.0384729 2.69520412,39.4601953 C2.93247185,47.438223 9.26692797,53.7787891 17,53.7787891 C24.733072,53.7787891 31.0675281,47.438223 31.3047959,39.4601953 C31.3047959,36.0384729 28.9195402,30.0852323 24.7554499,23.1026931 C23.2774594,20.6084453 21.6761909,18.1942884 19.9579865,15.869784 L19.9579865,15.869784 C19.2572335,14.9378514 18.6103845,14.1867416 18.1656758,13.6581829 C17.7209671,13.1296241 17.2493064,12.7818881 17.006738,12.7818881 Z" id="Shape"></path>
            <path d="M40.5067697,28 C34.704041,28 30,23.1586729 30,17.1865933 C30,14.7353677 31.3609805,11.2756378 33.9468436,6.91945973 C34.7835206,5.4986976 35.6920912,4.12411976 36.6688046,2.8014007 C37.8936871,1.16258129 38.8872029,0 40.4931599,0 C42.099117,0 43.0926328,1.14857429 44.3039054,2.8014007 C45.2838069,4.12175643 46.1924962,5.4965138 47.0258665,6.91945973 L47.0258665,6.91945973 C49.6389491,11.1915958 50.999965,14.7073537 50.999965,17.1585793 C51.0071572,20.0288982 49.9052568,22.7844081 47.9370154,24.8179741 C45.9687739,26.8515401 43.2957018,27.9962916 40.5067697,28 L40.5067697,28 Z M40.5067697,2.7873937 C40.3026227,2.7873937 39.9623775,2.98349175 38.8327637,4.48224112 C37.9050875,5.73441687 37.0463234,7.03911373 36.2605105,8.3901951 C33.987673,12.186093 32.7219611,15.3096548 32.7219611,17.1865933 C32.6024496,20.1263808 34.0582359,22.8970573 36.5139713,24.4036102 C38.9697067,25.9101631 42.030223,25.9101631 44.4859584,24.4036102 C46.9416938,22.8970573 48.39748,20.1263808 48.2779686,17.1865933 C48.2779686,15.3096548 47.0258665,12.186093 44.753029,8.3901951 C43.9572922,7.05143308 43.0941623,5.75635594 42.167166,4.51025513 C41.051162,2.98349175 40.697307,2.7873937 40.5067697,2.7873937 Z" id="Shape"></path>
        </g>
    </g>
</svg>