<?xml version="1.0" encoding="UTF-8"?>
<svg width="64px" height="64px" viewBox="0 0 64 64" version="1.1" xmlns="http://www.w3.org/2000/svg" xmlns:xlink="http://www.w3.org/1999/xlink">
    <!-- Generator: Sketch 58 (84663) - https://sketch.com -->
    <title>rain-flood</title>
    <desc>Created with Sketch.</desc>
    <g id="rain-flood" stroke="none" stroke-width="1" fill="none" fill-rule="evenodd">
        <g id="13" transform="translate(6.000000, 5.000000)" fill="#FFFFFF" fill-rule="nonzero">
            <path d="M51.6420807,40 C48.5284679,40 47.0196687,38.2329317 45.4148551,36.3587684 C43.8100414,34.4846051 42.2738095,32.6773762 39.132764,32.6773762 C35.9917184,32.6773762 34.4554865,34.4176707 32.9192547,36.3587684 C31.3830228,38.2998661 29.7919255,40 26.692029,40 L26.4588509,40 C23.3452381,40 21.8364389,38.2329317 20.2316253,36.3587684 C18.6268116,34.4846051 17.0905797,32.6773762 13.9495342,32.6773762 C10.8084886,32.6773762 9.2173913,34.4176707 7.59886128,36.3587684 C5.98033126,38.2998661 4.48524845,40 1.37163561,40 C0.614102181,40 0,39.4006489 0,38.6613119 C0,37.9219749 0.614102181,37.3226238 1.37163561,37.3226238 C3.11361284,37.3226238 3.9365942,36.4524766 5.48654244,34.6452477 C7.25595238,32.5702811 9.45056936,30 13.8809524,30 C18.3113354,30 20.5059524,32.5702811 22.2753623,34.6452477 C23.7704451,36.398929 24.5934265,37.3226238 26.2256729,37.3226238 L26.5548654,37.3226238 L26.7468944,37.3226238 C28.3654244,37.3226238 29.1884058,36.4390897 30.738354,34.6452477 C32.507764,32.5702811 34.702381,30 39.132764,30 C43.563147,30 45.757764,32.5702811 47.5134576,34.6452477 C49.0634058,36.4524766 49.8863872,37.3226238 51.6283644,37.3226238 C52.3858978,37.3226238 53,37.9219749 53,38.6613119 C53,39.4006489 52.3858978,40 51.6283644,40 L51.6420807,40 Z" id="Path"></path>
            <path d="M50.7202073,52 C47.6621762,52 46.1803109,50.230563 44.6041451,48.3538874 C43.0279793,46.4772118 41.519171,44.6809651 38.4341969,44.6809651 C35.3492228,44.6809651 33.8404145,46.463807 32.3316062,48.3404826 C30.8227979,50.2171582 29.2601036,51.9865952 26.215544,51.9865952 L25.9865285,51.9865952 C22.9284974,51.9865952 21.4466321,50.2171582 19.8704663,48.3404826 C18.2943005,46.463807 16.7854922,44.6675603 13.7005181,44.6675603 C10.615544,44.6675603 9.05284974,46.463807 7.46321244,48.3404826 C5.87357513,50.2171582 4.40518135,52 1.34715026,52 C0.603139715,52 0,51.3998455 0,50.6595174 C0,49.9191893 0.603139715,49.3190349 1.34715026,49.3190349 C3.05803109,49.3190349 3.86632124,48.4477212 5.38860104,46.6380697 C7.12642487,44.5737265 9.28186528,42 13.6331606,42 C17.984456,42 20.1398964,44.5737265 21.8777202,46.6380697 C23.3326425,48.3672922 24.1274611,49.3190349 25.6901554,49.3190349 L25.6901554,49.3190349 L26.215544,49.3190349 C27.8051813,49.3190349 28.6134715,48.4343164 30.1357513,46.6380697 C31.8735751,44.5737265 34.0290155,42 38.3803109,42 C42.7316062,42 44.8870466,44.5737265 46.611399,46.6380697 C48.1336788,48.4477212 48.9419689,49.3190349 50.6528497,49.3190349 C51.3968603,49.3190349 52,49.9191893 52,50.6595174 C52,51.3998455 51.3968603,52 50.6528497,52 L50.7202073,52 Z" id="Path"></path>
            <path d="M26.0136799,26 C20.4886151,26 16.0075479,21.4951951 16,15.9332627 C16,13.6610169 17.2585499,10.4247881 19.7346101,6.41737288 C20.5271058,5.09958615 21.3902137,3.82616585 22.3201094,2.60275424 C23.4829001,1.12923729 24.4678523,0 26.0136799,0 C27.5595075,0 28.5170999,1.07415254 29.6798906,2.60275424 C30.500684,3.67690678 31.4172367,5.02648305 32.2653899,6.40360169 L32.2653899,6.40360169 C34.7414501,10.4385593 36,13.6472458 36,15.9194915 C36,21.4760644 31.5333949,25.9848181 26.0136799,26 L26.0136799,26 Z M26.0136799,2.75423729 C25.7948016,2.75423729 25.3160055,3.23622881 24.5088919,4.28283898 C23.7017784,5.32944915 22.8399453,6.55508475 22.0875513,7.84957627 C19.9398085,11.3474576 18.7359781,14.2256356 18.7359781,15.9332627 C18.6201191,18.6189721 19.9774321,21.1521221 22.2705256,22.52978 C24.5636191,23.907438 27.422701,23.907438 29.7157945,22.52978 C32.008888,21.1521221 33.366201,18.6189721 33.250342,15.9332627 C33.250342,14.2256356 32.0601915,11.3474576 29.9261286,7.84957627 L29.9261286,7.84957627 C29.1775313,6.61825073 28.3647209,5.4276731 27.4911081,4.28283898 C26.7250342,3.23622881 26.246238,2.75423729 26.0136799,2.75423729 Z" id="Shape"></path>
        </g>
    </g>
</svg>