<?xml version="1.0" encoding="UTF-8"?>
<svg width="64px" height="64px" viewBox="0 0 64 64" version="1.1" xmlns="http://www.w3.org/2000/svg" xmlns:xlink="http://www.w3.org/1999/xlink">
    <!-- Generator: Sketch 58 (84663) - https://sketch.com -->
    <title>snow-ice</title>
    <desc>Created with Sketch.</desc>
    <g id="snow-ice" stroke="none" stroke-width="1" fill="none" fill-rule="evenodd">
        <g id="2" transform="translate(3.000000, 3.000000)" fill="#FFFFFF" fill-rule="nonzero">
            <path d="M29.5,58 C28.6715729,58 28,57.2019827 28,56.2175784 L28,1.78242163 C28,0.798017348 28.6715729,0 29.5,0 C30.3284271,0 31,0.798017348 31,1.78242163 L31,56.2175784 C31,57.2019827 30.3284271,58 29.5,58 Z" id="Path"></path>
            <path d="M56.2175784,31 L1.78242163,31 C0.798017348,31 0,30.3284271 0,29.5 C0,28.6715729 0.798017348,28 1.78242163,28 L56.2175784,28 C57.2019827,28 58,28.6715729 58,29.5 C58,30.3284271 57.2019827,31 56.2175784,31 Z" id="Path"></path>
            <path d="M30.0718248,22 L19.5201925,11.9206612 C19.1872663,11.6025834 19,11.1696023 19,10.7179166 C19,10.2662309 19.1872663,9.83324983 19.5201925,9.51517199 C20.2061145,8.85836569 21.3139041,8.85836569 21.9998261,9.51517199 L29.9838945,17.2059616 L37.985549,9.49823192 C38.4316343,9.06853263 39.0818178,8.90071594 39.6911817,9.05799678 C40.3005456,9.21527763 40.776513,9.6737613 40.9397916,10.2607414 C41.1030701,10.8477216 40.928854,11.4740219 40.4827686,11.9037212 L30.0718248,22 Z" id="Path"></path>
            <path d="M20.7406106,48.9997926 C20.0336882,48.9969333 19.3981542,48.5835847 19.1303389,47.9524786 C18.8625235,47.3213726 19.0151646,46.5967853 19.51709,46.1165701 L30.0044087,36 L40.4917274,46.1165701 C41.1694242,46.7742103 41.1694242,47.8363239 40.4917274,48.4939641 C40.1635327,48.8131632 39.7167801,48.9927082 39.250728,48.9927082 C38.7846759,48.9927082 38.3379233,48.8131632 38.0097286,48.4939641 L29.9519721,40.8390927 L21.9990888,48.510825 C21.6649575,48.8306234 21.2112417,49.0069096 20.7406106,48.9997926 Z" id="Path"></path>
            <path d="M47.379057,41 C46.9282989,41.0026687 46.4950498,40.8194638 46.1750137,40.4908255 L36,29.9567893 L46.090222,19.5105368 C46.7516614,18.8298211 47.8199108,18.8298211 48.4813502,19.5105368 C49.1388657,20.1953149 49.1388657,21.3012572 48.4813502,21.9860353 L40.7822565,29.9567893 L48.4983085,37.9451001 C48.985287,38.4451317 49.1333825,39.1996195 48.8735425,39.8567685 C48.6137026,40.5139175 47.9970943,40.9443232 47.3112236,40.9473004 L47.379057,41 Z" id="Path"></path>
            <path d="M11.6894761,40.9939954 C11.0067187,40.9910118 10.3929093,40.5596904 10.1342488,39.9011432 C9.87558829,39.2425961 10.0230116,38.4865031 10.5077795,37.9854076 L18.1719256,29.997695 L10.4908982,21.9923884 C9.83636728,21.3061533 9.83636728,20.1978581 10.4908982,19.511623 C11.1493352,18.829459 12.2127356,18.829459 12.8711726,19.511623 L23,30.0680714 L12.8711726,40.6245197 C12.5361083,40.8986516 12.1139943,41.030632 11.6894761,40.9939954 Z" id="Path"></path>
        </g>
    </g>
</svg>