<?xml version="1.0" encoding="UTF-8"?>
<svg width="64px" height="64px" viewBox="0 0 64 64" version="1.1" xmlns="http://www.w3.org/2000/svg" xmlns:xlink="http://www.w3.org/1999/xlink">
    <!-- Generator: Sketch 58 (84663) - https://sketch.com -->
    <title>Thunderstorm</title>
    <desc>Created with Sketch.</desc>
    <g id="thunderstorm" stroke="none" stroke-width="1" fill="none" fill-rule="evenodd">
        <g id="3" transform="translate(14.000000, 3.000000)" fill="#FFFFFF" fill-rule="nonzero">
            <path d="M14.4429539,36.997149 L14.3021118,36.997149 C14.1661705,36.9859525 14.0329667,36.9526263 13.9077537,36.8984847 L3.78120163,36.8984847 C2.93991545,36.90179 2.12354841,36.6128557 1.47139003,36.0809799 C-0.133334762,34.7007341 -0.470416122,32.3453972 0.682673878,30.5698704 L19.2175035,1.74578119 C19.9504616,0.528749385 21.3289233,-0.144450581 22.7385578,0.0262022676 C24.8302507,0.419651169 26.2477755,2.38339131 25.9638435,4.49428847 L24.0061373,22.5780569 C23.9672366,22.9528164 23.7800259,23.2963891 23.4862947,23.5320821 C23.1925635,23.7677751 22.8167663,23.8759659 22.4427892,23.8325039 C21.6742965,23.7440132 21.1209515,23.0518068 21.2033781,22.2820638 L23.1610843,4.25467502 C23.2866722,3.64951193 22.9425899,3.04540047 22.3582839,2.8451841 C22.0412042,2.82932288 21.7419939,2.99265236 21.583652,3.26803138 L3.10515921,32.0921206 C2.75453967,32.6588528 2.84855462,33.3939022 3.33050668,33.8539843 C3.45205458,33.9700945 3.61317656,34.0356 3.78120163,34.0372181 L15.0485753,34.0372181 L15.9358809,34.9251974 L15.9358809,35.7004174 C15.8758431,36.4682664 15.2110347,37.0457079 14.4429539,36.997149 Z" id="Path"></path>
            <path d="M14.7540141,57.9895546 C14.589745,58.0034818 14.4245906,58.0034818 14.2603216,57.9895546 C12.1483052,57.595862 10.7269419,55.6024184 11.0442671,53.4790801 L13.0331429,35.4653725 C13.1188357,34.6869143 13.8198282,34.1252664 14.5988536,34.2108968 C15.377879,34.2965272 15.9399361,34.9970094 15.8542433,35.7754676 L13.851262,53.7891752 C13.7117064,54.3964527 14.0612574,55.0092536 14.6552756,55.1986985 C14.9759692,55.2290022 15.2829512,55.0616794 15.4310782,54.7758415 L33.881075,25.9228999 C34.2640794,25.3439384 34.1683313,24.5725319 33.6553869,24.1046149 C33.5245463,23.9960063 33.3599987,23.9362144 33.1899054,23.9354721 L21.2989671,23.9354721 L21.1861231,22.6105202 C21.1386569,22.2317784 21.246936,21.849993 21.4862039,21.5524543 C21.7254717,21.2549155 22.0752687,21.0670657 22.4556183,21.0318541 C22.6317602,20.989382 22.8154854,20.989382 22.9916274,21.0318541 L33.2604329,21.0318541 C34.0856766,21.0298165 34.8850706,21.3193859 35.5173132,21.8493776 C37.1291298,23.2257795 37.4728217,25.5816694 36.3213268,27.3606137 L17.8008026,56.2558409 C17.1490984,57.3167508 15.9996216,57.9708374 14.7540141,57.9895546 Z" id="Path"></path>
        </g>
    </g>
</svg>