<?xml version="1.0" encoding="UTF-8"?>
<svg width="64px" height="64px" viewBox="0 0 64 64" version="1.1" xmlns="http://www.w3.org/2000/svg" xmlns:xlink="http://www.w3.org/1999/xlink">
    <!-- Generator: Sketch 58 (84663) - https://sketch.com -->
    <title>Wind</title>
    <desc>Created with Sketch.</desc>
    <g id="wind" stroke="none" stroke-width="1" fill="none" fill-rule="evenodd">
        <g id="1" transform="translate(7.000000, 3.000000)" fill="#FFFFFF" fill-rule="nonzero">
            <path d="M38.7247219,30.9917676 L1.37614506,30.9917676 C0.616121128,30.9917676 0,30.3864294 0,29.6397069 C0,28.8929844 0.616121128,28.2876463 1.37614506,28.2876463 L38.972428,28.2876463 C44.1693673,28.1910091 48.3121647,23.9905221 48.2469003,18.8840245 C48.1816359,13.7775269 43.9327918,9.68056945 38.7350213,9.71217396 C33.5372509,9.74377848 29.3403433,13.8920895 29.3394126,18.9989896 C29.3394126,19.7457121 28.7232915,20.3510502 27.9632676,20.3510502 C27.2032436,20.3510502 26.5871225,19.7457121 26.5871225,18.9989896 C26.5836689,12.4292647 31.9608251,7.07969235 38.647097,7.00088057 C45.3333688,6.9220688 50.8396034,12.1433575 50.9965706,18.7112729 C51.1535378,25.2791883 45.9028021,30.748639 39.2201341,30.978247 C39.0560924,31.0016514 38.889833,31.0061889 38.7247219,30.9917676 Z" id="Path"></path>
            <path d="M10.8586066,19 L1.43442623,19 C0.642214498,19 0,18.3826858 0,17.6211901 C0,16.8596945 0.642214498,16.2423803 1.43442623,16.2423803 L10.7438525,16.2423803 L11.1311475,16.2423803 C14.9933991,16.2423491 18.1258276,13.2354413 18.1310823,9.52294252 C18.136337,5.81044369 15.0124321,2.79535407 11.1501949,2.785221 C7.28795766,2.77508793 4.14697644,5.77374082 4.13114754,9.4862119 C4.13114754,10.2477076 3.48893304,10.8650218 2.69672131,10.8650218 C1.90450958,10.8650218 1.26229508,10.2477076 1.26229508,9.4862119 C1.26229508,4.24712173 5.68073083,0 11.1311475,0 C16.5815643,0 21,4.24712173 21,9.4862119 C21,14.7253021 16.5815643,18.9724238 11.1311475,18.9724238 L10.8586066,19 Z" id="Path"></path>
            <path d="M26.7651007,58 C21.6678719,57.9923951 17.537594,53.7435519 17.5302013,48.5 C17.5302013,47.7373975 18.1311614,47.119186 18.8724832,47.119186 C19.613805,47.119186 20.2147651,47.7373975 20.2147651,48.5 C20.2147651,52.2215001 23.1474502,55.2383721 26.7651007,55.2383721 C30.3827511,55.2383721 33.3154362,52.2215001 33.3154362,48.5 C33.3154362,44.7784999 30.3827511,41.7616279 26.7651007,41.7616279 L1.34228188,41.7616279 C0.600960067,41.7616279 0,41.1434164 0,40.380814 C0,39.6182115 0.600960067,39 1.34228188,39 L26.7651007,39 C31.8653947,39 36,43.2532949 36,48.5 C36,53.7467051 31.8653947,58 26.7651007,58 L26.7651007,58 Z" id="Path"></path>
        </g>
    </g>
</svg>